<?xml version="1.0" encoding="UTF-8"?>
<svg version="1.1" xmlns="http://www.w3.org/2000/svg" width="512" height="512">
<path d="M0 0 C0.86222672 -0.00700928 1.72445343 -0.01401855 2.61280823 -0.02124023 C5.46160125 -0.03883876 8.30940008 -0.027191 11.15820312 -0.01367188 C13.1383076 -0.01636626 15.11841079 -0.02024823 17.09851074 -0.02526855 C21.24793091 -0.03116612 25.3970066 -0.02259225 29.54638672 -0.00390625 C34.86643645 0.01888335 40.18567904 0.00576167 45.50569916 -0.01819611 C49.59436123 -0.03264704 53.6828318 -0.02805131 57.77149963 -0.01768494 C59.73311966 -0.01501571 61.69475705 -0.01829429 63.65635681 -0.02760315 C66.39767543 -0.0377571 69.13768518 -0.02228414 71.87890625 0 C73.09623192 -0.01214539 73.09623192 -0.01214539 74.33815002 -0.02453613 C77.9028177 0.02917498 80.01539893 0.20437878 82.92272949 2.35168457 C84.97904176 5.28811505 85.27133697 7.7213337 85.68945312 11.26757812 C85.83640625 12.5025 85.98335937 13.73742188 86.13476562 15.00976562 C86.47181676 18.89017483 86.59502462 22.62829075 86.43945312 26.51757812 C87.16350342 26.19291565 87.88755371 25.86825317 88.63354492 25.53375244 C91.43191655 24.52030753 93.3815177 24.26447297 96.33398438 24.25878906 C97.75070435 24.24933258 97.75070435 24.24933258 99.19604492 24.23968506 C100.70871948 24.24575775 100.70871948 24.24575775 102.25195312 24.25195312 C103.29843018 24.25003967 104.34490723 24.24812622 105.4230957 24.24615479 C107.63200115 24.24479594 109.84091466 24.24847137 112.04980469 24.25683594 C115.42726613 24.2675395 118.80419568 24.25693025 122.18164062 24.24414062 C124.3300793 24.24546227 126.47851764 24.24802477 128.62695312 24.25195312 C129.63540283 24.24790466 130.64385254 24.2438562 131.68286133 24.23968506 C133.0995813 24.24914154 133.0995813 24.24914154 134.54492188 24.25878906 C135.37145264 24.26038025 136.1979834 24.26197144 137.04956055 24.26361084 C139.78630045 24.55443663 141.93813437 25.39599259 144.43945312 26.51757812 C144.51292969 24.79861328 144.51292969 24.79861328 144.58789062 23.04492188 C144.66298113 21.51495278 144.73852619 19.98500594 144.81445312 18.45507812 C144.84539062 17.70291016 144.87632812 16.95074219 144.90820312 16.17578125 C145.15968261 11.3348012 145.7329572 7.07403834 147.43945312 2.51757812 C151.28044985 -0.04308636 154.4327092 0.22209858 158.88647461 0.22705078 C159.7485553 0.22033356 160.61063599 0.21361633 161.49884033 0.20669556 C164.35280089 0.18767454 167.20652685 0.18378942 170.06054688 0.18164062 C172.04207965 0.17521599 174.02361146 0.16848789 176.00514221 0.16146851 C180.16043294 0.14948579 184.31564047 0.14578875 188.47094727 0.14697266 C193.79881343 0.147176 199.12614711 0.11986205 204.45388699 0.08542824 C208.54680336 0.06320605 212.63959058 0.05913366 216.73256111 0.06019211 C218.69698994 0.05782954 220.66142199 0.04896927 222.62579155 0.03352737 C225.37192111 0.01396018 228.11688938 0.0196685 230.86303711 0.03173828 C232.08271935 0.01487976 232.08271935 0.01487976 233.32704163 -0.00231934 C236.62297436 0.03454554 239.04202399 0.29840715 241.94830322 1.90113831 C244.3289953 6.07840951 243.95044591 10.14275258 243.87426758 14.86645508 C243.87336121 15.91893433 243.87245483 16.97141357 243.871521 18.05578613 C243.86745531 20.3415211 243.8544548 22.62725355 243.83361244 24.91289711 C243.80250856 28.53213541 243.79861572 32.15046175 243.80253601 35.76982117 C243.8090605 46.05989187 243.76863429 56.34954975 243.70385742 66.6394043 C243.66613004 72.93359353 243.66230449 79.22708425 243.67888451 85.52135277 C243.67812061 87.9187346 243.6640613 90.31615073 243.63640785 92.71337318 C243.59809224 96.06988272 243.60264884 99.423875 243.61645508 102.78051758 C243.59435471 103.76829697 243.57225433 104.75607635 243.54948425 105.77378845 C243.61841044 110.95322011 244.11580065 113.78164043 247.84489441 117.52409363 C249.03356028 118.53324415 250.2309637 119.5322535 251.43945312 120.51757812 C275.44278082 147.57149597 291.6805607 182.08261872 291.55297852 218.68530273 C291.55312454 219.78847839 291.55327057 220.89165405 291.55342102 222.02825928 C291.55272677 225.65883378 291.54495723 229.28935638 291.53710938 232.91992188 C291.53524346 235.44340487 291.53382038 237.96688822 291.53282166 240.4903717 C291.52939928 246.44357102 291.52152526 252.39675381 291.51147217 258.34994465 C291.50027094 265.13111202 291.4947905 271.9122803 291.48977673 278.69345462 C291.47934151 292.63483965 291.46156422 306.57620717 291.43945312 320.51757812 C296.71945312 320.51757812 301.99945313 320.51757812 307.43945312 320.51757812 C307.53217111 340.16317265 307.60349398 359.80870508 307.64670181 379.4544735 C307.66729997 388.57698403 307.69536787 397.69935586 307.74121094 406.82177734 C307.78116301 414.7757472 307.8069059 422.72961657 307.8158071 430.68368399 C307.82100773 434.89274836 307.83317333 439.10152531 307.86237335 443.31049728 C307.88967503 447.27826507 307.89786862 451.2456291 307.89188385 455.2134819 C307.89297754 456.66383056 307.9008434 458.11419378 307.91627502 459.56446075 C308.02686214 470.50081446 306.84452864 479.73979525 299.14257812 487.98632812 C292.89172347 493.60636259 285.95370573 496.76306424 277.48166275 496.77484703 C275.71736243 496.78452037 275.71736243 496.78452037 273.91741967 496.79438913 C271.9928291 496.78974332 271.9928291 496.78974332 270.02935791 496.78500366 C268.64537106 496.78874179 267.26138633 496.79334396 265.87740493 496.79873431 C262.07931408 496.81095977 258.28131135 496.81070438 254.48320532 496.80834556 C250.38490792 496.80793727 246.28663873 496.81897768 242.18835449 496.82846069 C234.16065009 496.84506943 226.13297506 496.85057019 218.10525492 496.85168545 C211.57897256 496.85263603 205.05269989 496.85674684 198.52642059 496.8630867 C180.01911165 496.88069917 161.5118259 496.88992562 143.00450853 496.88842575 C141.50809223 496.88830588 141.50809223 496.88830588 139.98144531 496.88818359 C138.98261486 496.88810183 137.98378441 496.88802007 136.95468637 496.88793583 C120.76960123 496.88712304 104.58460917 496.90625886 88.39955094 496.93446033 C71.77682366 496.9631956 55.15414175 496.97700025 38.531389 496.97527277 C29.20061675 496.97460907 19.86994207 496.98009272 10.5391922 497.00162888 C2.59419744 497.01984918 -5.35065552 497.02418108 -13.29566213 497.01061003 C-17.34757513 497.0040845 -21.39921616 497.00394796 -25.45110321 497.02131653 C-29.16473533 497.03707109 -32.87788038 497.03415976 -36.59150079 497.01674826 C-38.56219507 497.01223826 -40.53290459 497.02731705 -42.5035398 497.04322755 C-52.36215519 496.96681332 -60.66464175 495.0990131 -68.02929688 488.22070312 C-73.83948996 481.75834551 -76.81549204 474.7594051 -76.80105591 466.02554321 C-76.80380524 464.73834381 -76.80655457 463.45114441 -76.80938721 462.12493896 C-76.80231027 460.71105863 -76.79504067 459.29717924 -76.78759766 457.88330078 C-76.78703312 456.38489795 -76.78735093 454.88649456 -76.78848267 453.38809204 C-76.78905553 449.33067676 -76.77731198 445.27338019 -76.76333475 441.21599245 C-76.75081633 436.9719125 -76.74965601 432.7278297 -76.74728394 428.48373413 C-76.74107244 420.45156637 -76.72466608 412.41945318 -76.70458496 404.38730943 C-76.68221569 395.24104001 -76.67122994 386.09476796 -76.66119409 376.94847798 C-76.64029957 358.13814626 -76.60472624 339.32786858 -76.56054688 320.51757812 C-71.28054687 320.51757812 -66.00054687 320.51757812 -60.56054688 320.51757812 C-60.57053963 318.45069481 -60.57053963 318.45069481 -60.58073425 316.34205627 C-60.6418085 303.29415595 -60.68664516 290.24628501 -60.71598339 277.19827366 C-60.73137218 270.49173831 -60.75269044 263.78532638 -60.78686523 257.07885742 C-60.81969563 250.59491282 -60.83744945 244.1110794 -60.8451786 237.62705803 C-60.85067988 235.16539703 -60.86142124 232.70374144 -60.87773705 230.24212837 C-60.98745058 212.98774992 -59.99584797 197.03592061 -54.81054688 180.45507812 C-54.55233154 179.62057129 -54.29411621 178.78606445 -54.02807617 177.92626953 C-47.90358702 158.68521197 -37.82313077 136.15990696 -21.75535583 123.26660156 C-16.63428106 118.83218817 -13.48038841 115.13815185 -12.58352661 108.26123047 C-12.11694281 101.72193904 -12.27208405 95.1916409 -12.40820312 88.64257812 C-12.41644875 86.2255169 -12.4192447 83.80843153 -12.41685486 81.39135742 C-12.42249729 75.05942825 -12.49021561 68.72980819 -12.5748291 62.39849854 C-12.70105855 52.23862614 -12.73696151 42.07820293 -12.76391411 31.91766357 C-12.78297881 28.37179938 -12.83144857 24.82724481 -12.88404846 21.28173828 C-12.90070582 19.11686734 -12.91668829 16.95199106 -12.93188477 14.78710938 C-12.95419662 13.80111252 -12.97650848 12.81511566 -12.99949646 11.79924011 C-13.01371269 5.31219927 -13.01371269 5.31219927 -11.07237244 1.90808105 C-7.44583579 -0.09950654 -4.03853385 -0.04029288 0 0 Z M93.43945312 51.51757812 C89.95389042 59.33395742 89.95389042 59.33395742 91.43945312 80.51757812 C107.27945313 80.51757812 123.11945313 80.51757812 139.43945312 80.51757812 C141.22830751 58.9772529 141.22830751 58.9772529 136.43945312 50.51757812 C130.94639265 47.18089678 123.95054615 48.1832188 117.7199707 48.2019043 C115.51202997 48.20506371 113.30543159 48.1815815 111.09765625 48.15625 C109.6816423 48.15397653 108.26562478 48.15327374 106.84960938 48.15429688 C105.572229 48.15131592 104.29484863 48.14833496 102.97875977 48.14526367 C99.06415814 48.55705697 96.7030972 49.32315689 93.43945312 51.51757812 Z " fill="#345385" transform="translate(140.560546875,7.482421875)"/>
<path d="M0 0 C1.95962506 0.01508402 3.91926143 0.0287658 5.87890625 0.04101562 C10.62812049 0.07112476 15.37572612 0.12989425 20.125 0.1875 C20.125 13.3875 20.125 26.5875 20.125 40.1875 C33.325 40.1875 46.525 40.1875 60.125 40.1875 C60.125 26.9875 60.125 13.7875 60.125 0.1875 C67.00811822 0.11823269 73.89000295 0.05861738 80.77319336 0.02270508 C83.10949831 0.0077174 85.44577562 -0.01267967 87.78198242 -0.03881836 C112.5686509 -0.30898722 112.5686509 -0.30898722 123.125 3.1875 C124.31996094 3.54070312 125.51492188 3.89390625 126.74609375 4.2578125 C147.03469694 11.85548637 162.38608915 25.72674177 172.4375 44.875 C172.75082275 45.44863281 173.06414551 46.02226562 173.38696289 46.61328125 C180.47384674 60.85142352 180.77383873 76.66415726 180.796875 92.19921875 C180.80976345 94.26805471 180.82322245 96.33688718 180.83721924 98.40571594 C180.86096386 102.70440137 180.86859997 107.00276745 180.86621094 111.30151367 C180.86580115 116.80427385 180.92083624 122.30500748 180.98929977 127.80728436 C181.03374644 132.06331314 181.0418896 136.31884565 181.03977203 140.57508278 C181.04448119 142.60489835 181.062113 144.63472788 181.0931015 146.66431236 C181.13232822 149.49341942 181.12080697 152.31803674 181.09667969 155.1472168 C181.11915771 155.9779068 181.14163574 156.8085968 181.16479492 157.66445923 C181.08652425 161.27808823 180.92279755 163.35136581 178.3670578 166.02991676 C175.00461985 168.59242523 171.47168921 170.8055804 167.5625 172.4375 C166.88058594 172.73140625 166.19867188 173.0253125 165.49609375 173.328125 C159.05792584 175.66156312 153.71182 176.47889101 146.89129639 176.44819641 C145.5280185 176.45393473 145.5280185 176.45393473 144.13719964 176.45978898 C141.1028002 176.47007777 138.06859144 176.46613462 135.03417969 176.4621582 C132.8539767 176.46650702 130.67377524 176.47169074 128.49357605 176.47764587 C122.57813414 176.49103055 116.66275615 176.49161499 110.74730206 176.48908257 C105.80466456 176.48801225 100.86203996 176.49289795 95.91940522 176.497688 C83.58795969 176.50941601 71.25654951 176.50855921 58.92510155 176.50213119 C47.57048959 176.49664536 36.21598943 176.51062014 24.8613956 176.5307439 C14.53079952 176.54837757 4.20024066 176.55435836 -6.1303699 176.55110615 C-12.29602413 176.54929557 -18.46159485 176.55190687 -24.62723541 176.56582069 C-30.42866761 176.57842264 -36.22991778 176.5764324 -42.03134727 176.56340981 C-44.15530904 176.56104944 -46.27928371 176.56375927 -48.40323067 176.57203293 C-61.05285646 176.61773795 -72.56490021 176.65041416 -83.875 170.1875 C-85.2053125 169.445 -85.2053125 169.445 -86.5625 168.6875 C-88.70775649 167.29598227 -90.23959778 166.137 -91.875 164.1875 C-92.17671272 161.21849107 -92.29494507 158.45848721 -92.27905273 155.48779297 C-92.28591599 154.59782623 -92.29277924 153.7078595 -92.29985046 152.79092407 C-92.31820323 149.83701761 -92.31426338 146.88363901 -92.30859375 143.9296875 C-92.31315685 141.86719592 -92.3184628 139.80470587 -92.32447815 137.74221802 C-92.33342984 133.40604509 -92.330969 129.07005603 -92.32104492 124.73388672 C-92.3096488 119.22118996 -92.32961118 113.70914271 -92.35896206 108.1965313 C-92.37747968 103.92721617 -92.37699928 99.6580515 -92.37132454 95.38870621 C-92.3711727 93.35967229 -92.37710156 91.33062726 -92.38961601 89.30163193 C-92.52869393 63.01629941 -86.0498966 41.26100197 -67.6953125 21.88671875 C-48.24582032 3.54150177 -25.543396 -0.34494649 0 0 Z " fill="#4369A8" transform="translate(211.875,151.8125)"/>
<path d="M0 0 C1.29334007 -0.01051392 1.29334007 -0.01051392 2.61280823 -0.02124023 C5.46160125 -0.03883876 8.30940008 -0.027191 11.15820312 -0.01367188 C13.1383076 -0.01636626 15.11841079 -0.02024823 17.09851074 -0.02526855 C21.24793091 -0.03116612 25.3970066 -0.02259225 29.54638672 -0.00390625 C34.86643645 0.01888335 40.18567904 0.00576167 45.50569916 -0.01819611 C49.59436123 -0.03264704 53.6828318 -0.02805131 57.77149963 -0.01768494 C59.73311966 -0.01501571 61.69475705 -0.01829429 63.65635681 -0.02760315 C66.39767543 -0.0377571 69.13768518 -0.02228414 71.87890625 0 C73.09623192 -0.01214539 73.09623192 -0.01214539 74.33815002 -0.02453613 C77.9028177 0.02917498 80.01539893 0.20437878 82.92272949 2.35168457 C84.97904176 5.28811505 85.27133697 7.7213337 85.68945312 11.26757812 C85.83640625 12.5025 85.98335937 13.73742188 86.13476562 15.00976562 C86.47181676 18.89017483 86.59502462 22.62829075 86.43945312 26.51757812 C87.16350342 26.19291565 87.88755371 25.86825317 88.63354492 25.53375244 C91.43191655 24.52030753 93.3815177 24.26447297 96.33398438 24.25878906 C97.75070435 24.24933258 97.75070435 24.24933258 99.19604492 24.23968506 C100.70871948 24.24575775 100.70871948 24.24575775 102.25195312 24.25195312 C103.29843018 24.25003967 104.34490723 24.24812622 105.4230957 24.24615479 C107.63200115 24.24479594 109.84091466 24.24847137 112.04980469 24.25683594 C115.42726613 24.2675395 118.80419568 24.25693025 122.18164062 24.24414062 C124.3300793 24.24546227 126.47851764 24.24802477 128.62695312 24.25195312 C129.63540283 24.24790466 130.64385254 24.2438562 131.68286133 24.23968506 C133.0995813 24.24914154 133.0995813 24.24914154 134.54492188 24.25878906 C135.37145264 24.26038025 136.1979834 24.26197144 137.04956055 24.26361084 C139.78630045 24.55443663 141.93813437 25.39599259 144.43945312 26.51757812 C144.51292969 24.79861328 144.51292969 24.79861328 144.58789062 23.04492188 C144.66298113 21.51495278 144.73852619 19.98500594 144.81445312 18.45507812 C144.84539062 17.70291016 144.87632812 16.95074219 144.90820312 16.17578125 C145.15968261 11.3348012 145.7329572 7.07403834 147.43945312 2.51757812 C151.28044985 -0.04308636 154.4327092 0.22209858 158.88647461 0.22705078 C159.7485553 0.22033356 160.61063599 0.21361633 161.49884033 0.20669556 C164.35280089 0.18767454 167.20652685 0.18378942 170.06054688 0.18164062 C172.04207965 0.17521599 174.02361146 0.16848789 176.00514221 0.16146851 C180.16043294 0.14948579 184.31564047 0.14578875 188.47094727 0.14697266 C193.79881343 0.147176 199.12614711 0.11986205 204.45388699 0.08542824 C208.54680336 0.06320605 212.63959058 0.05913366 216.73256111 0.06019211 C218.69698994 0.05782954 220.66142199 0.04896927 222.62579155 0.03352737 C225.37192111 0.01396018 228.11688938 0.0196685 230.86303711 0.03173828 C232.08271935 0.01487976 232.08271935 0.01487976 233.32704163 -0.00231934 C236.62297436 0.03454554 239.04202399 0.29840715 241.94830322 1.90113831 C244.3289953 6.07840951 243.95044591 10.14275258 243.87426758 14.86645508 C243.87336121 15.91893433 243.87245483 16.97141357 243.871521 18.05578613 C243.86745531 20.3415211 243.8544548 22.62725355 243.83361244 24.91289711 C243.80250856 28.53213541 243.79861572 32.15046175 243.80253601 35.76982117 C243.8090605 46.05989187 243.76863429 56.34954975 243.70385742 66.6394043 C243.66613004 72.93359353 243.66230449 79.22708425 243.67888451 85.52135277 C243.67812061 87.9187346 243.6640613 90.31615073 243.63640785 92.71337318 C243.59809224 96.06988272 243.60264884 99.423875 243.61645508 102.78051758 C243.59435471 103.76829697 243.57225433 104.75607635 243.54948425 105.77378845 C243.61841044 110.95322011 244.11580065 113.78164043 247.84489441 117.52409363 C249.03356028 118.53324415 250.2309637 119.5322535 251.43945312 120.51757812 C275.44278082 147.57149597 291.6805607 182.08261872 291.55297852 218.68530273 C291.55312454 219.78847839 291.55327057 220.89165405 291.55342102 222.02825928 C291.55272677 225.65883378 291.54495723 229.28935638 291.53710938 232.91992188 C291.53524346 235.44340487 291.53382038 237.96688822 291.53282166 240.4903717 C291.52939928 246.44357102 291.52152526 252.39675381 291.51147217 258.34994465 C291.50027094 265.13111202 291.4947905 271.9122803 291.48977673 278.69345462 C291.47934151 292.63484123 291.46101212 306.57620451 291.43945312 320.51757812 C283.51945312 320.51757812 275.59945313 320.51757812 267.43945312 320.51757812 C267.43010742 317.37049316 267.42076172 314.2234082 267.41113281 310.98095703 C267.37718808 300.51951974 267.32154313 290.05827608 267.25555038 279.5969944 C267.21623807 273.26159334 267.18397038 266.9263279 267.16845703 260.59082031 C267.15318289 254.4633144 267.11854889 248.33618178 267.0711441 242.20884323 C267.05644044 239.88482301 267.04841853 237.56074947 267.04756927 235.23668289 C267.02544078 205.01186904 260.3689025 178.4470275 238.43945312 156.51757812 C237.66988281 155.74800781 236.9003125 154.9784375 236.10742188 154.18554688 C213.52019591 132.76599657 186.07484119 128.94257082 156.37695312 128.76757812 C153.94919805 128.73935784 151.52146229 128.7094222 149.09375 128.67773438 C143.20880117 128.60143685 137.32512072 128.56024335 131.43945312 128.51757812 C131.43945312 144.35757813 131.43945312 160.19757813 131.43945312 176.51757812 C120.87945312 176.51757812 110.31945312 176.51757812 99.43945312 176.51757812 C99.43945312 160.67757812 99.43945312 144.83757812 99.43945312 128.51757812 C92.45036082 128.5920668 85.46243525 128.67533717 78.47387695 128.7800293 C76.10284746 128.81302061 73.73174429 128.84113027 71.3605957 128.86401367 C39.99848785 129.17479146 14.27755583 135.4022005 -9.18554688 157.64257812 C-26.53646557 175.59439444 -35.6191459 199.26974575 -35.76586914 224.13452148 C-35.78071854 225.70150284 -35.78071854 225.70150284 -35.79586792 227.30014038 C-35.82732913 230.73587822 -35.85217932 234.17162986 -35.87695312 237.60742188 C-35.89753594 239.99638722 -35.91853276 242.38534903 -35.93992615 244.77430725 C-35.9950097 251.04929739 -36.04447929 257.32431966 -36.09277344 263.59936523 C-36.14308882 270.00767867 -36.19872241 276.41594571 -36.25390625 282.82421875 C-36.36131999 295.38863363 -36.4623103 307.95308813 -36.56054688 320.51757812 C-44.48054688 320.51757812 -52.40054688 320.51757812 -60.56054688 320.51757812 C-60.62858819 306.07781546 -60.68351555 291.63816099 -60.71598339 277.19827366 C-60.73137218 270.49173831 -60.75269044 263.78532638 -60.78686523 257.07885742 C-60.81969563 250.59491282 -60.83744945 244.1110794 -60.8451786 237.62705803 C-60.85067988 235.16539703 -60.86142124 232.70374144 -60.87773705 230.24212837 C-60.98745058 212.98774992 -59.99584797 197.03592061 -54.81054688 180.45507812 C-54.55233154 179.62057129 -54.29411621 178.78606445 -54.02807617 177.92626953 C-47.90358702 158.68521197 -37.82313077 136.15990696 -21.75535583 123.26660156 C-16.63428106 118.83218817 -13.48038841 115.13815185 -12.58352661 108.26123047 C-12.11694281 101.72193904 -12.27208405 95.1916409 -12.40820312 88.64257812 C-12.41644875 86.2255169 -12.4192447 83.80843153 -12.41685486 81.39135742 C-12.42249729 75.05942825 -12.49021561 68.72980819 -12.5748291 62.39849854 C-12.70105855 52.23862614 -12.73696151 42.07820293 -12.76391411 31.91766357 C-12.78297881 28.37179938 -12.83144857 24.82724481 -12.88404846 21.28173828 C-12.90070582 19.11686734 -12.91668829 16.95199106 -12.93188477 14.78710938 C-12.95419662 13.80111252 -12.97650848 12.81511566 -12.99949646 11.79924011 C-13.01371269 5.31219927 -13.01371269 5.31219927 -11.07237244 1.90808105 C-7.44583579 -0.09950654 -4.03853385 -0.04029288 0 0 Z M93.43945312 51.51757812 C89.95389042 59.33395742 89.95389042 59.33395742 91.43945312 80.51757812 C107.27945313 80.51757812 123.11945313 80.51757812 139.43945312 80.51757812 C141.22830751 58.9772529 141.22830751 58.9772529 136.43945312 50.51757812 C130.94639265 47.18089678 123.95054615 48.1832188 117.7199707 48.2019043 C115.51202997 48.20506371 113.30543159 48.1815815 111.09765625 48.15625 C109.6816423 48.15397653 108.26562478 48.15327374 106.84960938 48.15429688 C105.572229 48.15131592 104.29484863 48.14833496 102.97875977 48.14526367 C99.06415814 48.55705697 96.7030972 49.32315689 93.43945312 51.51757812 Z " fill="#F1A042" transform="translate(140.560546875,7.482421875)"/>
<path d="M0 0 C0.88360632 -0.00297112 1.76721263 -0.00594224 2.6775949 -0.0090034 C5.65622749 -0.01771659 8.63482001 -0.01920086 11.61346436 -0.02069092 C13.74192898 -0.02531727 15.87039277 -0.03034168 17.99885559 -0.03573608 C23.79440942 -0.04888048 29.58995166 -0.05530912 35.38551807 -0.05974674 C39.00412211 -0.06267444 42.62272295 -0.06677869 46.24132538 -0.07125092 C57.55650196 -0.08493178 68.87167127 -0.09459531 80.18685555 -0.09845281 C93.26053832 -0.10293388 106.33411656 -0.12048167 119.40776753 -0.1494534 C129.50463554 -0.17105372 139.6014741 -0.18115622 149.69836497 -0.18249393 C155.73259796 -0.18354322 161.76673275 -0.18947739 167.80094147 -0.20731354 C173.47752463 -0.22376545 179.15393551 -0.22596368 184.83053398 -0.21717453 C186.91466927 -0.21640259 188.99881371 -0.22076749 191.0829258 -0.23063278 C193.9273163 -0.24330768 196.77109253 -0.2374996 199.61547852 -0.22705078 C200.44097301 -0.23510719 201.2664675 -0.24316359 202.11697698 -0.25146413 C207.67779571 -0.20366284 211.98324622 0.73347062 216.20623779 4.67559814 C219.34789446 8.7839184 220.68487116 10.80758949 220.70214844 15.9342041 C220.70785858 16.94639511 220.71356873 17.95858612 220.7194519 19.00144958 C220.72112869 20.6736834 220.72112869 20.6736834 220.72283936 22.37969971 C220.72780426 23.55053604 220.73276917 24.72137238 220.73788452 25.9276886 C220.75000633 29.14481846 220.75745511 32.36191196 220.76189518 35.57906055 C220.76482572 37.58957259 220.76893056 39.60007891 220.77339935 41.61058807 C220.78707796 47.90249488 220.79674201 54.19438864 220.80060124 60.48630929 C220.80507869 67.74621633 220.82261032 75.00593479 220.85160184 82.2657845 C220.87323669 87.87861492 220.88330653 93.49139236 220.88464236 99.10426402 C220.8856894 102.45574486 220.89157491 105.80704852 220.90946198 109.15848541 C220.92650259 112.90033772 220.92464658 116.64173067 220.91815186 120.38360596 C220.92736664 121.49033157 220.93658142 122.59705719 220.94607544 123.73731995 C220.91157566 130.07751198 220.53043686 134.88566204 216.06170654 139.78497314 C210.63942873 144.00700717 206.67229057 144.28909161 200.00315857 144.28761292 C199.11869783 144.2912896 198.23423709 144.29496629 197.3229745 144.29875439 C194.34745163 144.30980264 191.37196367 144.31363699 188.39642334 144.31744385 C186.26781096 144.32370755 184.13919968 144.33035427 182.0105896 144.33735657 C176.21923057 144.35477296 170.4278798 144.36531974 164.63650107 144.3735621 C161.02006941 144.37871013 157.40364032 144.3847859 153.78721046 144.39107323 C142.47737866 144.41012574 131.1675534 144.42435764 119.85770863 144.4326852 C106.79249515 144.44246358 93.72745081 144.46879864 80.66229695 144.50918609 C70.56965574 144.53931687 60.47706311 144.55415112 50.38437778 144.55746621 C44.35347769 144.55981984 38.3227583 144.56882133 32.29190636 144.59392738 C26.61937778 144.61716035 20.9471495 144.62146048 15.27458572 144.611166 C13.19205669 144.61066939 11.1095131 144.61702641 9.02702904 144.63072205 C6.18472585 144.64836965 3.34350872 144.64136987 0.50120544 144.62818909 C-0.32360693 144.63915833 -1.1484193 144.65012758 -1.99822599 144.66142923 C-7.27864545 144.60227632 -10.23091259 143.6056356 -14.43829346 140.14044189 C-18.27198167 135.8923009 -19.5579677 132.8997712 -19.58546448 127.22642517 C-19.59261978 126.2128595 -19.59977509 125.19929382 -19.60714722 124.15501404 C-19.60983612 123.04378677 -19.61252502 121.93255951 -19.61529541 120.78765869 C-19.62186661 119.61667633 -19.62843781 118.44569397 -19.63520813 117.23922729 C-19.65495299 113.35604505 -19.66660764 109.47287631 -19.67657471 105.58966064 C-19.68062315 104.25157971 -19.6847401 102.91349899 -19.68892479 101.57541847 C-19.70797026 95.28885805 -19.72220297 89.00230932 -19.73053676 82.7157256 C-19.74030901 75.46426302 -19.7666305 68.21310571 -19.80703765 60.96175069 C-19.83721607 55.35314766 -19.85200723 49.74463206 -19.85531777 44.13594943 C-19.85766625 40.78770239 -19.86857646 37.44004058 -19.89177895 34.09183311 C-19.91606913 30.3547763 -19.91522343 26.61851992 -19.90826416 22.88140869 C-19.92107422 21.77625412 -19.93388428 20.67109955 -19.94708252 19.53245544 C-19.90545315 13.40524068 -19.55560894 9.79015745 -15.43829346 5.14044189 C-10.13868155 0.47173617 -6.90925815 -0.00717477 0 0 Z " fill="#C46431" transform="translate(155.43829345703125,327.85955810546875)"/>
<path d="M0 0 C0.86222672 -0.00700928 1.72445343 -0.01401855 2.61280823 -0.02124023 C5.46160125 -0.03883876 8.30940008 -0.027191 11.15820312 -0.01367188 C13.1383076 -0.01636626 15.11841079 -0.02024823 17.09851074 -0.02526855 C21.24793091 -0.03116612 25.3970066 -0.02259225 29.54638672 -0.00390625 C34.86643645 0.01888335 40.18567904 0.00576167 45.50569916 -0.01819611 C49.59436123 -0.03264704 53.6828318 -0.02805131 57.77149963 -0.01768494 C59.73311966 -0.01501571 61.69475705 -0.01829429 63.65635681 -0.02760315 C66.39767543 -0.0377571 69.13768518 -0.02228414 71.87890625 0 C73.09623192 -0.01214539 73.09623192 -0.01214539 74.33815002 -0.02453613 C77.62384914 0.02497159 80.04759118 0.30206312 82.94610596 1.8961792 C85.34178314 6.10151451 84.96160844 10.22242583 84.89355469 14.97753906 C84.89413879 16.04126236 84.8947229 17.10498566 84.89532471 18.20094299 C84.89253713 21.71827787 84.86141198 25.23476622 84.83007812 28.75195312 C84.82261817 31.19003842 84.81692408 33.62812971 84.81292725 36.06622314 C84.79765179 42.48448225 84.75835289 48.90237951 84.71411133 55.32049561 C84.6732002 61.8692129 84.65492508 68.41798864 84.63476562 74.96679688 C84.59186101 87.81721171 84.52435455 100.66737567 84.43945312 113.51757812 C80.89004303 111.16060485 77.38810575 108.7690656 73.93945312 106.26757812 C52.90429986 91.58384633 29.85120978 84.02505645 4.43945312 81.51757812 C4.43010742 80.66639404 4.42076172 79.81520996 4.41113281 78.93823242 C4.36665557 75.72649558 4.30483872 72.51565122 4.23193359 69.30444336 C4.20401422 67.92468078 4.18265801 66.54476688 4.16845703 65.16479492 C4.03776732 53.17183539 2.72814125 43.21527969 -5.67773438 34.20898438 C-7.52612245 32.54850297 -9.37042456 31.35062182 -11.49804688 30.08007812 C-14.56054688 27.51757812 -14.56054688 27.51757812 -15.12304688 23.58007812 C-14.97780326 21.88841717 -14.78353207 20.2007567 -14.56054688 18.51757812 C-14.45097656 17.34453125 -14.34140625 16.17148437 -14.22851562 14.96289062 C-13.16218102 5.37584495 -13.16218102 5.37584495 -11.04382324 2.35388184 C-7.5150223 -0.25555397 -4.22115489 -0.0421149 0 0 Z " fill="#4369A8" transform="translate(299.560546875,7.482421875)"/>
<path d="M0 0 C0.86222672 -0.00700928 1.72445343 -0.01401855 2.61280823 -0.02124023 C5.46160125 -0.03883876 8.30940008 -0.027191 11.15820312 -0.01367188 C13.1383076 -0.01636626 15.11841079 -0.02024823 17.09851074 -0.02526855 C21.24793091 -0.03116612 25.3970066 -0.02259225 29.54638672 -0.00390625 C34.86643645 0.01888335 40.18567904 0.00576167 45.50569916 -0.01819611 C49.59436123 -0.03264704 53.6828318 -0.02805131 57.77149963 -0.01768494 C59.73311966 -0.01501571 61.69475705 -0.01829429 63.65635681 -0.02760315 C66.39767543 -0.0377571 69.13768518 -0.02228414 71.87890625 0 C73.09623192 -0.01214539 73.09623192 -0.01214539 74.33815002 -0.02453613 C77.90430517 0.0291974 80.01531387 0.20394066 82.92272949 2.35388184 C86.16636654 6.98112262 85.91458372 13.03963075 86.43945312 18.51757812 C86.58253906 19.39929688 86.725625 20.28101562 86.87304688 21.18945312 C87.14444012 23.61111591 87.20890772 25.1999438 86.43945312 27.51757812 C84.37473393 29.64379959 82.19986518 31.2409192 79.75976562 32.91992188 C73.07592535 37.52209472 70.41440464 43.91404274 68.43945312 51.51757812 C67.85411586 56.74328754 67.74351161 61.95197633 67.68945312 67.20507812 C67.66122101 68.60029619 67.6312838 69.99548084 67.59960938 71.390625 C67.52952548 74.76633259 67.47652266 78.14137401 67.43945312 81.51757812 C66.88298096 81.57179932 66.32650879 81.62602051 65.75317383 81.68188477 C37.54882479 84.58565529 12.2526723 94.31292559 -9.88085938 112.23242188 C-11.56054688 113.51757812 -11.56054688 113.51757812 -12.56054688 113.51757812 C-12.65398775 99.37489161 -12.72425881 85.23225296 -12.76779556 71.08932114 C-12.78868883 64.52249206 -12.81703883 57.95587005 -12.86230469 51.38916016 C-12.90569946 45.05439462 -12.92967087 38.71982852 -12.94005585 32.38492584 C-12.9474586 29.96553659 -12.96191404 27.54615851 -12.9834671 25.12685394 C-13.01241553 21.74350721 -13.01650634 18.36098929 -13.01464844 14.97753906 C-13.02902954 13.97268967 -13.04341064 12.96784027 -13.05822754 11.93254089 C-13.01883102 5.32204315 -13.01883102 5.32204315 -11.06719971 1.8961792 C-7.44189727 -0.09765328 -4.03197737 -0.04022746 0 0 Z " fill="#4369A8" transform="translate(140.560546875,7.482421875)"/>
<path d="M0 0 C1.65847961 -0.00639748 1.65847961 -0.00639748 3.35046387 -0.01292419 C4.54897476 -0.01247101 5.74748566 -0.01201782 6.98231506 -0.0115509 C8.25632172 -0.01490952 9.53032837 -0.01826813 10.84294128 -0.02172852 C14.32902399 -0.0305397 17.81508212 -0.03290558 21.30117488 -0.0335443 C23.48598848 -0.0342571 25.67079592 -0.03639589 27.85560799 -0.03904152 C35.49794533 -0.04828948 43.14026528 -0.0523776 50.78260803 -0.05158997 C57.87157139 -0.05099118 64.96045816 -0.06150509 72.04940218 -0.07733363 C78.16011404 -0.0904845 84.27080113 -0.09577063 90.38152701 -0.09513456 C94.01991155 -0.09488153 97.65822816 -0.09762276 101.29659843 -0.10831261 C105.36897221 -0.11995052 109.44117902 -0.11520105 113.51356506 -0.10920715 C115.28400429 -0.11763641 115.28400429 -0.11763641 117.09020996 -0.12623596 C128.6881694 -0.08322433 140.40542045 0.89121214 151.39271545 4.82121277 C152.14311096 5.08248962 152.89350647 5.34376648 153.66664124 5.61296082 C165.83102059 9.97803899 176.28847018 15.95372173 186.33021545 24.13371277 C187.05853577 24.70863464 187.78685608 25.28355652 188.5372467 25.87590027 C207.81351923 41.76836953 219.83116983 66.67291529 223.33021545 91.13371277 C223.42863647 93.78016757 223.48407541 96.40140479 223.4879303 99.04753113 C223.49301102 99.81744888 223.49809174 100.58736664 223.50332642 101.38061523 C223.51398184 103.04366885 223.52262071 104.70673636 223.52944565 106.3698101 C223.54129917 109.00607505 223.56076685 111.64218089 223.58256531 114.27838135 C223.64397483 121.77071315 223.69822385 129.26302535 223.73158264 136.75553894 C223.75256893 141.34672891 223.78789749 145.93762247 223.83234024 150.52864265 C223.84646166 152.27283293 223.85521393 154.01707557 223.85839462 155.76132011 C223.86332339 158.2046943 223.88652912 160.64728578 223.91371155 163.09049988 C223.91070541 163.80396576 223.90769928 164.51743164 223.90460205 165.2525177 C224.00390772 171.2869937 225.30271075 176.04988849 229.58021545 180.44621277 C232.84732676 182.62058511 232.84732676 182.62058511 239.33021545 184.13371277 C239.33021545 189.41371277 239.33021545 194.69371277 239.33021545 200.13371277 C231.41021545 200.13371277 223.49021545 200.13371277 215.33021545 200.13371277 C215.32086975 196.98662781 215.31152405 193.83954285 215.30189514 190.59709167 C215.26795041 180.13565438 215.21230546 169.67441072 215.14631271 159.21312904 C215.1070004 152.87772798 215.07473271 146.54246254 215.05921936 140.20695496 C215.04394522 134.07944904 215.00931122 127.95231642 214.96190643 121.82497787 C214.94720277 119.50095766 214.93918086 117.17688411 214.9383316 114.85281754 C214.91620311 84.62800369 208.25966483 58.06316214 186.33021545 36.13371277 C185.56064514 35.36414246 184.79107483 34.59457214 183.9981842 33.80168152 C161.41095824 12.38213121 133.96560352 8.55870546 104.26771545 8.38371277 C101.83996038 8.35549249 99.41222462 8.32555685 96.98451233 8.29386902 C91.0995635 8.21757149 85.21588305 8.17637799 79.33021545 8.13371277 C79.33021545 23.97371277 79.33021545 39.81371277 79.33021545 56.13371277 C68.77021545 56.13371277 58.21021545 56.13371277 47.33021545 56.13371277 C47.33021545 40.29371277 47.33021545 24.45371277 47.33021545 8.13371277 C40.34112315 8.20820144 33.35319758 8.29147181 26.36463928 8.39616394 C23.99360979 8.42915526 21.62250662 8.45726491 19.25135803 8.48014832 C-12.11074982 8.79092611 -37.83168185 15.01833514 -61.29478455 37.25871277 C-78.64570324 55.21052908 -87.72838357 78.88588039 -87.87510681 103.75065613 C-87.88995621 105.31763748 -87.88995621 105.31763748 -87.90510559 106.91627502 C-87.9365668 110.35201286 -87.96141699 113.7877645 -87.9861908 117.22355652 C-88.00677361 119.61252186 -88.02777043 122.00148367 -88.04916382 124.39044189 C-88.10424737 130.66543204 -88.15371697 136.9404543 -88.20201111 143.21549988 C-88.25232649 149.62381332 -88.30796009 156.03208036 -88.36314392 162.44035339 C-88.47055766 175.00476828 -88.57154797 187.56922278 -88.66978455 200.13371277 C-96.58978455 200.13371277 -104.50978455 200.13371277 -112.66978455 200.13371277 C-112.66978455 194.85371277 -112.66978455 189.57371277 -112.66978455 184.13371277 C-111.28790955 183.76246277 -109.90603455 183.39121277 -108.48228455 183.00871277 C-103.53736068 181.37338361 -101.53732405 179.43502202 -98.66978455 175.13371277 C-97.4872087 171.58598522 -97.53294844 168.38160085 -97.54380798 164.69084167 C-97.54193985 163.93409653 -97.54007172 163.17735138 -97.53814697 162.39767456 C-97.53414113 160.75096095 -97.53206797 159.10424178 -97.53168488 157.45752335 C-97.52825074 153.92558713 -97.50684238 150.39383185 -97.48645401 146.86195946 C-97.44864172 140.29464503 -97.4171406 133.72751576 -97.41929626 127.16007996 C-97.4169906 86.2394013 -97.4169906 86.2394013 -91.66978455 70.13371277 C-91.31171471 69.12102325 -91.31171471 69.12102325 -90.94641113 68.08787537 C-80.94727424 40.45431331 -59.54394828 20.51631354 -33.5721283 7.77433777 C-23.32066481 3.2252342 -11.22501861 0.01968182 0 0 Z " fill="#B0582A" transform="translate(192.66978454589844,127.86628723144531)"/>
<path d="M0 0 C0.80520411 -0.00638882 1.61040822 -0.01277764 2.44001245 -0.01936007 C5.13576762 -0.03461007 7.83005306 -0.01414953 10.52575684 0.00622559 C12.45924873 0.00272438 14.39273774 -0.00293418 16.32621765 -0.0105896 C21.5762809 -0.0248473 26.82582102 -0.00776622 32.07583427 0.01569557 C37.56813242 0.03578951 43.06040852 0.02992577 48.55273438 0.02758789 C57.77641436 0.02764148 66.9998896 0.04740786 76.22351074 0.07946777 C86.88962161 0.11636119 97.55546423 0.12514347 108.22163057 0.11817026 C118.47910468 0.11186655 128.73648673 0.12261713 138.99394226 0.14213562 C143.36066499 0.15031363 147.72734069 0.15301842 152.09407043 0.15144348 C157.23559958 0.15056499 162.37687352 0.1647713 167.51833534 0.19067001 C169.40614396 0.19783649 171.29397971 0.19991313 173.18179893 0.19655228 C175.75713763 0.19284177 178.33172977 0.20756984 180.90698242 0.22705078 C181.65552443 0.22172286 182.40406644 0.21639493 183.17529154 0.21090555 C187.59621227 0.26867304 190.43878641 0.89045667 193.95349121 3.62145996 C196.46303679 8.64055112 195.57141094 16.53186132 194.49255371 21.92614746 C192.76947988 26.48722525 189.83900739 28.92538751 185.95349121 31.62145996 C182.27324741 32.94709917 178.47258345 32.76674008 174.6101532 32.76190186 C173.4976253 32.76635854 173.4976253 32.76635854 172.36262208 32.77090526 C169.87621742 32.77958001 167.38986098 32.78109946 164.90344238 32.78259277 C163.12112831 32.78722179 161.33881523 32.79224656 159.5565033 32.79763794 C154.71344978 32.81075533 149.87041011 32.81720554 145.0273416 32.8216486 C142.00136806 32.82458021 138.97539829 32.82868517 135.94942665 32.83315277 C126.48113942 32.84682556 117.01286084 32.85649346 107.54456443 32.86035466 C96.61599209 32.86483592 85.6875448 32.88238792 74.75901049 32.91135526 C66.31048011 32.93297157 57.86198492 32.94305891 49.41342717 32.94439578 C44.36790206 32.94544378 39.32249452 32.95135071 34.27699852 32.96921539 C29.53031455 32.9856953 24.78383656 32.98785195 20.03713417 32.97907639 C18.296891 32.97830599 16.55663677 32.9826491 14.81642151 32.99253464 C12.43662982 33.00525851 10.0575672 32.99937534 7.67778015 32.98895264 C6.99274593 32.99700904 6.30771171 33.00506545 5.60191888 33.01336598 C0.15649784 32.9577698 -4.55400783 31.71717265 -8.78869629 28.15661621 C-12.81342317 22.92447127 -13.24014079 19.22018349 -13.42150879 12.68395996 C-13.47049316 11.47868652 -13.51947754 10.27341309 -13.56994629 9.03161621 C-12.38144723 1.28863356 -6.98384822 -0.11679071 0 0 Z " fill="#F1A041" transform="translate(165.0465087890625,327.3785400390625)"/>
<path d="M0 0 C13.2 0 26.4 0 40 0 C40.0905152 13.38719805 40.16383981 26.7741915 40.20724869 40.16162682 C40.22808702 46.37853782 40.25633652 52.59522786 40.30175781 58.81201172 C40.34534876 64.81612941 40.36916533 70.82003509 40.37950897 76.82429886 C40.38687652 79.11034098 40.4012635 81.39637204 40.42292023 83.68232346 C40.45212968 86.894424 40.4559486 90.10565824 40.45410156 93.31787109 C40.47567322 94.72265717 40.47567322 94.72265717 40.49768066 96.15582275 C40.4427425 105.03618504 37.83297188 112.9054796 31.703125 119.46875 C22.00192002 128.19093429 13.49456156 128 0 128 C0 85.76 0 43.52 0 0 Z " fill="#BD731C" transform="translate(408,376)"/>
<path d="M0 0 C13.2 0 26.4 0 40 0 C40 42.24 40 84.48 40 128 C17.41477273 128 17.41477273 128 8.53125 119.703125 C1.50694011 111.89037216 -0.30468282 104.03832102 -0.22705078 93.77197266 C-0.22734283 92.75672516 -0.22763489 91.74147766 -0.22793579 90.69546509 C-0.2265464 87.35157622 -0.21100339 84.00791228 -0.1953125 80.6640625 C-0.19158099 78.34093345 -0.18873467 76.01780282 -0.18673706 73.69467163 C-0.17911152 67.58892449 -0.1594722 61.48327293 -0.1373291 55.37756348 C-0.11684749 49.14364922 -0.10773038 42.90971948 -0.09765625 36.67578125 C-0.07622536 24.45047214 -0.04105191 12.22525899 0 0 Z " fill="#BD731C" transform="translate(64,376)"/>
<path d="M0 0 C0.91007812 0.00902344 1.82015625 0.01804687 2.7578125 0.02734375 C3.80582031 0.04474609 3.80582031 0.04474609 4.875 0.0625 C4.22402344 0.74570312 3.57304687 1.42890625 2.90234375 2.1328125 C-0.65778202 7.27750292 0.30561785 13.0353816 0.875 19.0625 C1.75352068 23.09017941 3.32755075 25.52908791 6.3125 28.4375 C10.80900139 31.28893991 15.00459413 31.20947282 20.21833801 31.20294189 C20.96002328 31.20591302 21.70170855 31.20888414 22.46586913 31.2119453 C24.95227379 31.22062005 27.43863023 31.2221395 29.92504883 31.22363281 C31.7073629 31.22826183 33.48967598 31.2332866 35.27198792 31.23867798 C40.11504144 31.25179537 44.9580811 31.25824558 49.80114961 31.26268864 C52.82712315 31.26562024 55.85309292 31.26972521 58.87906456 31.27419281 C68.34735179 31.2878656 77.81563037 31.2975335 87.28392678 31.3013947 C98.21249912 31.30587596 109.14094641 31.32342796 120.06948072 31.3523953 C128.5180111 31.37401161 136.9665063 31.38409895 145.41506404 31.38543582 C150.46058915 31.38648382 155.50599669 31.39239075 160.55149269 31.41025543 C165.29817666 31.42673534 170.04465465 31.42889199 174.79135704 31.42011642 C176.53160021 31.41934603 178.27185444 31.42368914 180.0120697 31.43357468 C182.39186139 31.44629855 184.77092401 31.44041538 187.15071106 31.42999268 C187.83574528 31.43804908 188.5207795 31.44610548 189.22657233 31.45440602 C194.19998267 31.40362893 197.52330592 30.30232436 201.875 28.0625 C206.82031028 22.98704998 207.02619321 18.90555201 207.0625 12 C207.07667969 10.77152344 207.09085938 9.54304688 207.10546875 8.27734375 C207.13000575 4.91007578 207.13000575 4.91007578 204.875 2.0625 C203.885 1.4025 202.895 0.7425 201.875 0.0625 C212.74373508 -0.51745227 212.74373508 -0.51745227 217.875 3.0625 C230.69002622 16.1212903 223.875 23.62952293 223.875 48.0625 C144.675 48.0625 65.475 48.0625 -16.125 48.0625 C-16.125 11.0625 -16.125 11.0625 -12.125 5.0625 C-7.88056842 1.3233579 -5.61847898 -0.07203178 0 0 Z " fill="#BC731C" transform="translate(152.125,327.9375)"/>
<path d="M0 0 C2 3 2 3 3.6875 6.3125 C7.26495639 12.58967256 12.08566807 16.09110371 19 18 C21.81084661 18.18696234 24.52089137 18.27883668 27.32966614 18.26742554 C28.15332017 18.27195665 28.9769742 18.27648776 29.82558745 18.28115618 C32.57754875 18.29378716 35.3293118 18.29218065 38.08129883 18.29052734 C40.05770624 18.29651341 42.03411131 18.30331913 44.01051331 18.31088257 C49.37424012 18.32854189 54.73790312 18.33323793 60.1016562 18.33451414 C63.45430492 18.33593634 66.80693744 18.34020726 70.15958214 18.34550858 C81.86038619 18.36400868 93.56114469 18.37217922 105.26196289 18.37060547 C116.16149013 18.3694041 127.06081933 18.39050566 137.96029645 18.4220928 C147.32439663 18.44826137 156.68843216 18.45897252 166.05256861 18.45769465 C171.64253146 18.45718519 177.23231829 18.46285989 182.82224464 18.48405075 C188.08117345 18.50344277 193.33975851 18.50355084 198.59869957 18.48901749 C200.5251605 18.4869295 202.45164301 18.49162967 204.37806702 18.5037384 C219.34938588 18.79661194 219.34938588 18.79661194 232.33984375 12.0703125 C235.51875686 8.19965546 237.87352856 5.00653975 239 0 C239.33 0 239.66 0 240 0 C240.08756305 3.70818297 240.14058015 7.41609763 240.1875 11.125 C240.21263672 12.17171875 240.23777344 13.2184375 240.26367188 14.296875 C240.32547676 20.8069892 240.08839033 25.6140304 235.5 30.64453125 C230.07772218 34.86656528 226.11058403 35.14864971 219.44145203 35.14717102 C218.55699128 35.15084771 217.67253054 35.1545244 216.76126796 35.1583125 C213.78574509 35.16936075 210.81025712 35.17319509 207.8347168 35.17700195 C205.70610442 35.18326566 203.57749313 35.18991238 201.44888306 35.19691467 C195.65752403 35.21433107 189.86617326 35.22487785 184.07479453 35.2331202 C180.45836286 35.23826823 176.84193377 35.24434401 173.22550392 35.25063133 C161.91567212 35.26968385 150.60584686 35.28391575 139.29600209 35.2922433 C126.2307886 35.30202168 113.16574427 35.32835675 100.10059041 35.36874419 C90.0079492 35.39887498 79.91535656 35.41370923 69.82267123 35.41702431 C63.79177114 35.41937795 57.76105175 35.42837944 51.73019981 35.45348549 C46.05767124 35.47671846 40.38544295 35.48101859 34.71287918 35.47072411 C32.63035014 35.4702275 30.54780656 35.47658451 28.46532249 35.49028015 C25.6230193 35.50792776 22.78180218 35.50092797 19.9394989 35.48774719 C18.70228034 35.50420106 18.70228034 35.50420106 17.44006747 35.52098733 C12.15964801 35.46183443 9.20738087 34.4651937 5 31 C1.01828563 26.58783002 -0.13015698 23.55841359 -0.09765625 17.67578125 C-0.09443359 16.64775391 -0.09121094 15.61972656 -0.08789062 14.56054688 C-0.07951172 13.48869141 -0.07113281 12.41683594 -0.0625 11.3125 C-0.05798828 10.22904297 -0.05347656 9.14558594 -0.04882812 8.02929688 C-0.03703743 5.35280915 -0.02058063 2.67643223 0 0 Z " fill="#AF582A" transform="translate(136,437)"/>
<path d="M0 0 C1.44644831 8.19977415 2.59069643 16.39318643 3.5078125 24.66796875 C3.63815887 25.82823074 3.76850525 26.98849274 3.90280151 28.18391418 C4.17498717 30.61648268 4.44548509 33.04924057 4.71435547 35.48217773 C5.12513224 39.1886932 5.54470965 42.89414431 5.96484375 46.59960938 C6.22970039 48.97650309 6.49404106 51.35345436 6.7578125 53.73046875 C6.94526535 55.37610054 6.94526535 55.37610054 7.13650513 57.05497742 C7.79395136 63.08007281 8.12604395 68.93918861 8 75 C8.92039063 74.52949219 9.84078125 74.05898437 10.7890625 73.57421875 C22.8303227 67.58566446 34.53449406 64.79693811 48 64 C47.91878906 63.07960937 47.83757812 62.15921875 47.75390625 61.2109375 C47.197429 50.0586791 49.33974504 41.71362079 56.7421875 32.93359375 C62.59295144 27.55466561 70.23136918 23.83417363 78.1875 23.9375 C79.08855469 23.94652344 79.98960937 23.95554687 80.91796875 23.96484375 C81.60503906 23.97644531 82.29210937 23.98804687 83 24 C82.62464841 26.57226238 82.29796938 27.73405537 80.328125 29.4921875 C79.64234375 29.94851562 78.9565625 30.40484375 78.25 30.875 C70.65358542 36.34170549 67.33869377 41.97903959 65 51 C64.4149648 56.22574085 64.30405849 61.43439736 64.25 66.6875 C64.22176789 68.08271807 64.19183068 69.47790271 64.16015625 70.87304688 C64.09007236 74.24875447 64.03706954 77.62379589 64 81 C63.44352783 81.05422119 62.88705566 81.10844238 62.3137207 81.16430664 C34.10937166 84.06807716 8.81321918 93.79534746 -13.3203125 111.71484375 C-15 113 -15 113 -16 113 C-16.09344088 98.85731349 -16.16371194 84.71467484 -16.20724869 70.57174301 C-16.22814196 64.00491394 -16.25649195 57.43829192 -16.30175781 50.87158203 C-16.34515259 44.5368165 -16.36912399 38.20225039 -16.37950897 31.86734772 C-16.38691172 29.44795847 -16.40136716 27.02858039 -16.42292023 24.60927582 C-16.45186866 21.22592908 -16.45595947 17.84341117 -16.45410156 14.45996094 C-16.46848267 13.45511154 -16.48286377 12.45026215 -16.49768066 11.41496277 C-16.45738522 4.65363071 -16.45738522 4.65363071 -14.16009521 1.3706665 C-9.89528346 -1.33552653 -4.86002136 -0.21130528 0 0 Z " fill="#234275" transform="translate(144,8)"/>
<path d="M0 0 C1.91541138 -0.10841951 3.83259773 -0.18578079 5.75 -0.25 C6.81734375 -0.29640625 7.8846875 -0.3428125 8.984375 -0.390625 C12 0 12 0 14.16009521 1.3706665 C17.04894362 5.4990029 16.52451656 9.53986062 16.45410156 14.45996094 C16.45468567 15.52368423 16.45526978 16.58740753 16.45587158 17.68336487 C16.45308401 21.20069974 16.42195886 24.71718809 16.390625 28.234375 C16.38316504 30.6724603 16.37747095 33.11055159 16.37347412 35.54864502 C16.35819867 41.96690412 16.31889977 48.38480138 16.2746582 54.80291748 C16.23374707 61.35163477 16.21547196 67.90041051 16.1953125 74.44921875 C16.15240789 87.29963358 16.08490142 100.14979755 16 113 C12.45058991 110.64302672 8.94865263 108.25148747 5.5 105.75 C-15.53515326 91.0662682 -38.58824335 83.50747833 -64 81 C-64.0093457 80.14881592 -64.01869141 79.29763184 -64.02832031 78.4206543 C-64.07279756 75.20891746 -64.1346144 71.99807309 -64.20751953 68.78686523 C-64.2354389 67.40710265 -64.25679511 66.02718876 -64.27099609 64.6472168 C-64.40116522 52.70203008 -65.67255031 42.6529987 -74.1171875 33.71484375 C-75.97219397 32.02532541 -77.86643434 30.60035249 -79.9375 29.1875 C-80.948125 28.465625 -81.95875 27.74375 -83 27 C-83 26.01 -83 25.02 -83 24 C-74.16077951 23.4235291 -66.31878216 26.00306889 -59.109375 31.12890625 C-53.69130746 35.93493283 -49.80053842 41.98737667 -48 49 C-47.86525877 51.66787642 -47.80802139 54.21646441 -47.875 56.875 C-47.88402344 57.56335938 -47.89304687 58.25171875 -47.90234375 58.9609375 C-47.92567487 60.64077838 -47.96153674 62.32043746 -48 64 C-47.22398437 64.02578125 -46.44796875 64.0515625 -45.6484375 64.078125 C-31.89343911 64.80034449 -20.22029329 68.91015284 -8 75 C-8.02603554 74.16836586 -8.02603554 74.16836586 -8.05259705 73.31993103 C-8.18231445 65.65325039 -7.38495412 58.17471384 -6.50390625 50.56640625 C-6.34896636 49.19787473 -6.19442752 47.82929774 -6.04026794 46.4606781 C-5.71839832 43.61375651 -5.39278113 40.76729823 -5.06420898 37.92114258 C-4.64340203 34.27466086 -4.23051863 30.62733517 -3.82019138 26.97966099 C-3.50275169 24.16298898 -3.18199937 21.34670232 -2.86015129 18.53053093 C-2.63218118 16.53260764 -2.40635356 14.53444027 -2.18055725 12.53627014 C-2.04048752 11.32748703 -1.90041779 10.11870392 -1.75610352 8.87329102 C-1.63396988 7.80869156 -1.51183624 6.7440921 -1.38600159 5.64723206 C-1 3 -1 3 0 0 Z " fill="#234275" transform="translate(368,8)"/>
<path d="M0 0 C0.99 1.485 0.99 1.485 2 3 C5.73654982 8.01559132 5.73654982 8.01559132 11 11 C13.92500556 11.19261525 16.75407675 11.2740365 19.67880249 11.26069641 C21.00677524 11.26643473 21.00677524 11.26643473 22.36157572 11.27228898 C25.33404673 11.28262419 28.30632476 11.27862581 31.27880859 11.2746582 C33.40756917 11.27900441 35.53632817 11.28418725 37.66508484 11.29014587 C43.45227393 11.3035575 49.2393978 11.30411209 55.02659941 11.30158257 C59.85523272 11.30051425 64.68385276 11.30539272 69.51248324 11.310188 C80.90318899 11.32129084 92.29386177 11.32171633 103.68457031 11.31567383 C115.44067963 11.30963342 127.19666929 11.32194502 138.95275819 11.3432439 C149.0411796 11.36085024 159.12956289 11.36686275 169.2179991 11.36360615 C175.24548763 11.36179149 181.27289081 11.36444773 187.30036545 11.37832069 C192.96877825 11.3908785 198.63700433 11.38897423 204.3054142 11.37590981 C206.38632202 11.37353995 208.4672429 11.37629329 210.54813576 11.38453293 C213.38805163 11.39496746 216.22733718 11.38692604 219.06723022 11.3742218 C220.3034256 11.38528323 220.3034256 11.38528323 221.56459463 11.39656812 C226.44453369 11.35062015 229.76300443 10.67914393 234 8 C236.29257876 5.45269027 238.09945441 2.85081838 240 0 C240.58138062 15.33122229 240.58138062 15.33122229 237 22 C232.76962292 26.3447116 227.95993143 28.05170677 221.95755959 28.25726891 C220.38709502 28.27079104 218.81651338 28.27346173 217.2460022 28.26742554 C215.94208418 28.27422221 215.94208418 28.27422221 214.61182439 28.28115618 C211.70551735 28.29379386 208.79939785 28.29218022 205.89306641 28.29052734 C203.80666361 28.29651294 201.72026303 28.30331856 199.63386536 28.31088257 C193.97062912 28.32854549 188.30745333 28.33323805 182.64419222 28.33451414 C179.10528084 28.33593601 175.56638482 28.34020626 172.02747726 28.34550858 C159.67944106 28.36400904 147.33144804 28.37217907 134.98339844 28.37060547 C123.47605588 28.36940371 111.96890078 28.39051281 100.46160567 28.4220928 C90.57862994 28.44824792 80.69571547 28.4589731 70.8127054 28.45769465 C64.91146337 28.45718484 59.01038798 28.46287882 53.10918045 28.48405075 C47.55888507 28.50342037 42.00891553 28.50356613 36.45860863 28.48901749 C34.42368659 28.4869268 32.38874422 28.49164572 30.35385704 28.5037384 C27.57151102 28.51919983 24.79028735 28.50987681 22.00796509 28.49447632 C20.80590028 28.50990701 20.80590028 28.50990701 19.57955134 28.52564943 C14.00905342 28.45771553 9.62544112 27.18422812 5 24 C0.31472175 18.23350369 -0.12986875 14.02582553 -0.0625 6.75 C-0.05347656 5.48671875 -0.04445312 4.2234375 -0.03515625 2.921875 C-0.02355469 1.95765625 -0.01195312 0.9934375 0 0 Z " fill="#192F54" transform="translate(136,460)"/>
<path d="M0 0 C0.93494797 -0.01283524 1.86989594 -0.02567047 2.83317566 -0.03889465 C3.84253677 -0.04628159 4.85189789 -0.05366852 5.8918457 -0.0612793 C7.45513359 -0.07338692 7.45513359 -0.07338692 9.05000305 -0.08573914 C11.25825337 -0.09957559 13.46652503 -0.1102997 15.67480469 -0.11816406 C19.03728305 -0.13534302 22.39876949 -0.17923013 25.76098633 -0.22338867 C27.90876557 -0.2335189 30.05655316 -0.24203397 32.2043457 -0.2487793 C33.70320564 -0.27504143 33.70320564 -0.27504143 35.23234558 -0.30183411 C45.52813413 -0.2701514 51.68479072 3.75720823 59.10668945 10.6652832 C65.27763913 17.48301626 67.51729141 24.90350544 67.4777832 33.91137695 C67.47294922 35.85463867 67.47294922 35.85463867 67.46801758 37.8371582 C67.45966293 39.20044012 67.45119799 40.56372137 67.44262695 41.92700195 C67.43760863 43.3059066 67.43304631 44.68481299 67.42895508 46.0637207 C67.41716797 49.43483314 67.39923256 52.80592305 67.38012695 56.17700195 C59.46012695 56.17700195 51.54012695 56.17700195 43.38012695 56.17700195 C43.00512695 44.48950195 43.00512695 44.48950195 42.90209961 40.83056641 C42.84868408 39.38750122 42.84868408 39.38750122 42.79418945 37.9152832 C42.76276855 36.93599854 42.73134766 35.95671387 42.69897461 34.94775391 C42.35211322 31.93356562 41.88152205 29.82167951 40.38012695 27.17700195 C36.43087341 24.81634454 32.58674581 24.91932515 28.06762695 24.91137695 C27.37628662 24.9094635 26.68494629 24.90755005 25.97265625 24.90557861 C24.51700474 24.90422303 23.06134089 24.90787555 21.60571289 24.91625977 C19.38701023 24.92696873 17.16911715 24.91634372 14.95043945 24.90356445 C13.53116685 24.90488616 12.11189474 24.90744879 10.69262695 24.91137695 C8.76870117 24.91476074 8.76870117 24.91476074 6.8059082 24.91821289 C3.44913842 25.17178872 1.26506075 25.45253927 -1.61987305 27.17700195 C-3.6162961 30.69366139 -3.90576067 33.92049944 -4.03393555 37.9152832 C-4.0695459 38.87732666 -4.10515625 39.83937012 -4.1418457 40.83056641 C-4.17584473 42.03801514 -4.20984375 43.24546387 -4.24487305 44.48950195 C-4.36862305 48.34637695 -4.49237305 52.20325195 -4.61987305 56.17700195 C-12.53987305 56.17700195 -20.45987305 56.17700195 -28.61987305 56.17700195 C-28.71263282 52.2475951 -28.7919699 48.32104078 -28.83959961 44.39111328 C-28.86917438 42.41127288 -28.92004837 40.43178694 -28.97143555 38.45239258 C-29.08294697 27.4406392 -27.48447072 18.21478306 -19.69018555 10.0324707 C-13.82936903 4.77985213 -8.08640254 0.09685115 0 0 Z " fill="#DC923C" transform="translate(236.619873046875,31.822998046875)"/>
<path d="M0 0 C16.29966021 19.01024672 24.21382297 50.09783301 24.11352539 74.69897461 C24.11367142 75.64609314 24.11381744 76.59321167 24.1139679 77.56903076 C24.1132747 80.68015889 24.10551015 83.79122615 24.09765625 86.90234375 C24.09578996 89.06710274 24.09436705 91.23186214 24.09336853 93.3966217 C24.08955994 99.07981544 24.07974385 104.7629834 24.06866455 110.44616699 C24.05841473 116.25121716 24.05386327 122.05627151 24.04882812 127.86132812 C24.03812006 139.2408967 24.02106361 150.62044621 24 162 C22.54357922 161.70628801 21.08879736 161.40444048 19.63476562 161.09912109 C18.82446899 160.93189545 18.01417236 160.7646698 17.17932129 160.59237671 C14.46103134 159.85349912 13.18610108 158.86986713 11.5 156.625 C11.0359375 156.03976562 10.571875 155.45453125 10.09375 154.8515625 C7.62175534 150.66682869 7.85983395 146.27040089 7.87402344 141.53540039 C7.8721553 140.78826279 7.87028717 140.04112518 7.86836243 139.27134705 C7.86436239 137.64866035 7.86228395 136.02596803 7.86190033 134.40327644 C7.85845961 130.92129005 7.83704483 127.43948611 7.81666946 123.95756435 C7.77888702 117.48641745 7.74735698 111.01545944 7.74951172 104.54418945 C7.74788757 76.80262859 7.19514841 52.12818345 -8.21484375 28 C-9.28657127 25.27002741 -8.85408203 23.78003699 -8 21 C-7.23487432 19.41376383 -6.41950489 17.85103993 -5.5625 16.3125 C-3.26107749 11.89536055 -2.12455827 7.8384185 -1.359375 2.93359375 C-1 1 -1 1 0 0 Z " fill="#DD933C" transform="translate(408,150)"/>
<path d="M0 0 C2.56528099 2.56528099 2.90442199 4.70224259 3.875 8.1875 C5.02401439 12.11582846 6.12512184 15.59599759 8.3125 19.0625 C10 22 10 22 9.7121582 23.96899414 C8.54818304 27.28853798 6.82172589 30.33154961 5.1875 33.4375 C1.59360758 40.45862775 -0.97249299 47.36552486 -3 55 C-3.39934753 56.38603172 -3.39934753 56.38603172 -3.8067627 57.80006409 C-6.15360085 66.66428666 -6.42769296 75.09275182 -6.41069031 84.19196892 C-6.4061474 86.83708475 -6.42038727 89.48155422 -6.43908691 92.12660217 C-6.48173304 98.68345013 -6.49313488 105.2402788 -6.50531006 111.79724121 C-6.5168536 117.3683687 -6.5404221 122.93919378 -6.58000183 128.51019478 C-6.59352052 131.10824111 -6.58941399 133.70587246 -6.58459473 136.30393982 C-6.59393526 137.8991651 -6.60410405 139.49438581 -6.61523438 141.08959961 C-6.60908615 141.80501419 -6.60293793 142.52042877 -6.59660339 143.25752258 C-6.67309104 149.51448461 -8.40735751 153.37116109 -12.75 157.8125 C-16.35397355 160.23825143 -18.7473967 160.53140746 -23 161 C-23.06989339 148.64640959 -23.12300937 136.29286718 -23.15543652 123.93911839 C-23.17100964 118.20112117 -23.19209312 112.46326048 -23.22631836 106.7253418 C-23.25921246 101.17507039 -23.2769156 95.62492926 -23.28463173 90.07456779 C-23.29012182 87.97016287 -23.30084038 85.86576406 -23.31719017 83.76141548 C-23.43786816 67.56676532 -22.10606485 52.4752359 -17.25 36.9375 C-16.99468506 36.10806885 -16.73937012 35.2786377 -16.47631836 34.42407227 C-12.5472187 22.03393952 -7.45563775 10.69623409 0 0 Z " fill="#DD933C" transform="translate(103,151)"/>
<path d="M0 0 C71.28 0 142.56 0 216 0 C216 2.64 216 5.28 216 8 C152.64 8 89.28 8 24 8 C24 15.92 24 23.84 24 32 C16.08 32 8.16 32 0 32 C0 21.44 0 10.88 0 0 Z " fill="#994D25" transform="translate(160,376)"/>
<path d="M0 0 C7.92 0 15.84 0 24 0 C24.0904562 11.22248324 24.16380558 22.44472339 24.20724869 33.66748905 C24.22810175 38.87896864 24.25637792 44.09018536 24.30175781 49.30151367 C24.34529663 54.33304355 24.36915426 59.36432095 24.37950897 64.3960247 C24.3868859 66.31333832 24.4012914 68.2306385 24.42292023 70.14784431 C24.4520611 72.83852867 24.45595156 75.52817675 24.45410156 78.21899414 C24.47567322 79.40151512 24.47567322 79.40151512 24.49768066 80.60792542 C24.45643686 86.17085312 23.18854171 89.41787952 20 94 C16.15159412 96.3922523 12.45344955 96.46878416 8 96 C4.73966475 94.3390745 2.61958872 93.13303925 0.84622192 89.89009094 C-0.27491136 86.06109874 -0.26277189 82.39810551 -0.22705078 78.44604492 C-0.22734283 77.59675415 -0.22763489 76.74746338 -0.22793579 75.87243652 C-0.22654634 73.07500875 -0.21100323 70.2778498 -0.1953125 67.48046875 C-0.191581 65.53705491 -0.18873468 63.59363918 -0.18673706 61.65022278 C-0.17911137 56.54235616 -0.15947197 51.43460379 -0.1373291 46.32678223 C-0.11684778 41.11175075 -0.10773045 35.89670076 -0.09765625 30.68164062 C-0.0762251 20.45436888 -0.04105158 10.22721183 0 0 Z " fill="#DC923B" transform="translate(424,376)"/>
<path d="M0 0 C7.92 0 15.84 0 24 0 C24.0904562 11.22248324 24.16380558 22.44472339 24.20724869 33.66748905 C24.22810175 38.87896864 24.25637792 44.09018536 24.30175781 49.30151367 C24.34529663 54.33304355 24.36915426 59.36432095 24.37950897 64.3960247 C24.3868859 66.31333832 24.4012914 68.2306385 24.42292023 70.14784431 C24.4520611 72.83852867 24.45595156 75.52817675 24.45410156 78.21899414 C24.47567322 79.40151512 24.47567322 79.40151512 24.49768066 80.60792542 C24.45643686 86.17085312 23.18854171 89.41787952 20 94 C16.15159412 96.3922523 12.45344955 96.46878416 8 96 C4.73966475 94.3390745 2.61958872 93.13303925 0.84622192 89.89009094 C-0.27491136 86.06109874 -0.26277189 82.39810551 -0.22705078 78.44604492 C-0.22734283 77.59675415 -0.22763489 76.74746338 -0.22793579 75.87243652 C-0.22654634 73.07500875 -0.21100323 70.2778498 -0.1953125 67.48046875 C-0.191581 65.53705491 -0.18873468 63.59363918 -0.18673706 61.65022278 C-0.17911137 56.54235616 -0.15947197 51.43460379 -0.1373291 46.32678223 C-0.11684778 41.11175075 -0.10773045 35.89670076 -0.09765625 30.68164062 C-0.0762251 20.45436888 -0.04105158 10.22721183 0 0 Z " fill="#DC923B" transform="translate(64,376)"/>
<path d="M0 0 C1.144189 -0.00744736 1.144189 -0.00744736 2.31149292 -0.01504517 C4.84137873 -0.02968007 7.37120181 -0.03647142 9.90112305 -0.04199219 C11.65748598 -0.0477431 13.4138489 -0.05350084 15.17021179 -0.05926514 C18.85647881 -0.06977928 22.542724 -0.07561906 26.22900391 -0.07910156 C30.95024452 -0.08458335 35.6711963 -0.10860281 40.39234638 -0.13707352 C44.02205749 -0.15570814 47.65169919 -0.16090596 51.28145409 -0.16243744 C53.02176681 -0.16546327 54.76207833 -0.17348949 56.50234413 -0.18662262 C58.93928527 -0.2036985 61.37552312 -0.20179918 63.8125 -0.1953125 C64.53008987 -0.20452728 65.24767975 -0.21374207 65.98701477 -0.22323608 C71.33056799 -0.1787333 74.28443376 1.29811346 78.3581543 4.57519531 C80.74911739 7.62780857 80.71961447 11.39741748 80.6003418 15.16113281 C79.1800445 18.4278166 77.33815823 20.87961911 74.6003418 23.16113281 C71.05279303 24.34364907 67.8127386 24.33982979 64.11889648 24.36987305 C63.35917038 24.37965683 62.59944427 24.38944061 61.81669617 24.39952087 C59.30188745 24.42943964 56.7871318 24.45085111 54.2722168 24.46972656 C52.98209057 24.4795843 52.98209057 24.4795843 51.66590118 24.48964119 C47.11265202 24.52222033 42.55942611 24.54667399 38.00610352 24.56616211 C34.24241005 24.58396946 30.47946664 24.61878174 26.71606445 24.66870117 C22.16728653 24.72896387 17.61920356 24.75964586 13.07004547 24.76933479 C11.33969281 24.77788058 9.60935828 24.79667727 7.87923431 24.82607841 C-7.35618923 25.07103112 -7.35618923 25.07103112 -11.95336914 21.30981445 C-15.39269179 16.88297371 -16.04668144 13.70704625 -15.3996582 8.16113281 C-11.12579164 1.50705134 -7.72572424 0.01193411 0 0 Z " fill="#FEBD4E" transform="translate(223.399658203125,95.8388671875)"/>
<path d="M0 0 C0.90105469 0.00902344 1.80210937 0.01804687 2.73046875 0.02734375 C3.41753906 0.03894531 4.10460937 0.05054687 4.8125 0.0625 C4.43714841 2.63476238 4.11046938 3.79655537 2.140625 5.5546875 C1.45484375 6.01101562 0.7690625 6.46734375 0.0625 6.9375 C-7.53391458 12.40420549 -10.84880623 18.04153959 -13.1875 27.0625 C-13.7725352 32.28824085 -13.88344151 37.49689736 -13.9375 42.75 C-13.96573211 44.14521807 -13.99566932 45.54040271 -14.02734375 46.93554688 C-14.09742764 50.31125447 -14.15043046 53.68629589 -14.1875 57.0625 C-15.02220825 57.14383179 -15.02220825 57.14383179 -15.8737793 57.22680664 C-33.04055908 58.99420744 -48.70885367 62.98727794 -64.36401367 70.31274414 C-66.1875 71.0625 -66.1875 71.0625 -68.1875 71.0625 C-68.8475 64.4625 -69.5075 57.8625 -70.1875 51.0625 C-57.00771579 44.4726079 -45.00786915 40.93962389 -30.1875 40.0625 C-30.26871094 39.14210937 -30.34992188 38.22171875 -30.43359375 37.2734375 C-30.990071 26.1211791 -28.84775496 17.77612079 -21.4453125 8.99609375 C-15.59454856 3.61716561 -7.95613082 -0.10332637 0 0 Z " fill="#365587" transform="translate(222.1875,31.9375)"/>
<path d="M0 0 C8.83922049 -0.5764709 16.68121784 2.00306889 23.890625 7.12890625 C29.30869254 11.93493283 33.19946158 17.98737667 35 25 C35.13474123 27.66787642 35.19197861 30.21646441 35.125 32.875 C35.11597656 33.56335938 35.10695313 34.25171875 35.09765625 34.9609375 C35.07432513 36.64077838 35.03846326 38.32043746 35 40 C36.16402344 40.03867188 36.16402344 40.03867188 37.3515625 40.078125 C51.17841914 40.80411747 62.68439788 44.97903896 75 51 C74.34 57.6 73.68 64.2 73 71 C67.40946126 69.13648709 62.11331837 67.2596359 56.6875 65.0625 C44.61944398 60.37399088 31.8345971 58.2975919 19 57 C18.9906543 56.14881592 18.98130859 55.29763184 18.97167969 54.4206543 C18.92720244 51.20891746 18.8653856 47.99807309 18.79248047 44.78686523 C18.7645611 43.40710265 18.74320489 42.02718876 18.72900391 40.6472168 C18.59883478 28.70203008 17.32744969 18.6529987 8.8828125 9.71484375 C7.02780603 8.02532541 5.13356566 6.60035249 3.0625 5.1875 C2.051875 4.465625 1.04125 3.74375 0 3 C0 2.01 0 1.02 0 0 Z " fill="#375587" transform="translate(285,32)"/>
<path d="M0 0 C0.84575592 -0.00570007 1.69151184 -0.01140015 2.56289673 -0.01727295 C4.3498612 -0.02670501 6.13684293 -0.0332498 7.92382812 -0.03710938 C10.64744597 -0.04681578 13.37030908 -0.07785597 16.09375 -0.109375 C17.83332887 -0.11590566 19.57291312 -0.12115588 21.3125 -0.125 C22.12206146 -0.1373468 22.93162292 -0.1496936 23.76571655 -0.16241455 C30.10140368 -0.13763882 34.18340484 1.29334247 38.9765625 5.640625 C41.98238653 9.43391731 42.62290811 13.93307222 43.515625 18.59375 C44.08242067 21.52766262 44.08242067 21.52766262 47.2890625 23.203125 C50.94818851 23.76443811 54.59163372 23.94213003 58.2890625 24.203125 C58.2890625 29.483125 58.2890625 34.763125 58.2890625 40.203125 C50.3690625 40.203125 42.4490625 40.203125 34.2890625 40.203125 C33.9140625 28.515625 33.9140625 28.515625 33.81103516 24.85668945 C33.75761963 23.41362427 33.75761963 23.41362427 33.703125 21.94140625 C33.6717041 20.96212158 33.6402832 19.98283691 33.60791016 18.97387695 C33.26104877 15.95968866 32.7904576 13.84780255 31.2890625 11.203125 C27.33980896 8.84246759 23.49568135 8.9454482 18.9765625 8.9375 C18.28522217 8.93558655 17.59388184 8.9336731 16.8815918 8.93170166 C15.42594029 8.93034608 13.97027643 8.9339986 12.51464844 8.94238281 C10.29594578 8.95309178 8.0780527 8.94246677 5.859375 8.9296875 C4.44010239 8.93100921 3.02083029 8.93357183 1.6015625 8.9375 C-0.32236328 8.94088379 -0.32236328 8.94088379 -2.28515625 8.94433594 C-5.64192603 9.19791176 -7.8260037 9.47866232 -10.7109375 11.203125 C-12.70736056 14.71978444 -12.99682512 17.94662249 -13.125 21.94140625 C-13.16061035 22.90344971 -13.1962207 23.86549316 -13.23291016 24.85668945 C-13.26690918 26.06413818 -13.3009082 27.27158691 -13.3359375 28.515625 C-13.4596875 32.3725 -13.5834375 36.229375 -13.7109375 40.203125 C-21.6309375 40.203125 -29.5509375 40.203125 -37.7109375 40.203125 C-37.7109375 34.923125 -37.7109375 29.643125 -37.7109375 24.203125 C-33.4209375 23.543125 -29.1309375 22.883125 -24.7109375 22.203125 C-24.06125 20.1921875 -24.06125 20.1921875 -23.3984375 18.140625 C-19.17632933 5.68931525 -19.17632933 5.68931525 -12.7109375 1.203125 C-8.55014114 -0.12890949 -4.32807527 0.02260763 0 0 Z " fill="#B0582A" transform="translate(245.7109375,47.796875)"/>
<path d="M0 0 C5.71428571 1.14285714 5.71428571 1.14285714 8 4 C9.36082631 6.72165261 9.38881722 9.15506179 9.66430664 12.19042969 C9.78435562 13.4922821 9.9044046 14.79413452 10.02809143 16.13543701 C10.15561179 17.56423492 10.28296252 18.99304798 10.41015625 20.421875 C10.542972 21.8844042 10.67606814 23.34690797 10.80943298 24.80938721 C11.08848335 27.87921064 11.36473131 30.9492695 11.63891602 34.01953125 C11.9896164 37.94506388 12.34625769 41.87002798 12.7049036 45.79484177 C12.98064192 48.81790737 13.25366975 51.84121297 13.52584648 54.86460114 C13.65629749 56.31107321 13.7874701 57.7574804 13.91938972 59.20381927 C14.10395969 61.2329691 14.28460017 63.26247518 14.46508789 65.29199219 C14.62044762 67.02168243 14.62044762 67.02168243 14.77894592 68.78631592 C15.37806757 77.49634622 15.37806757 77.49634622 13.73071289 79.69091797 C13.1505542 80.12033691 12.57039551 80.54975586 11.97265625 80.9921875 C11.34552734 81.46914062 10.71839844 81.94609375 10.07226562 82.4375 C9.40904297 82.911875 8.74582031 83.38625 8.0625 83.875 C7.40314453 84.37257813 6.74378906 84.87015625 6.06445312 85.3828125 C1.22000558 89 1.22000558 89 0 89 C0 59.63 0 30.26 0 0 Z " fill="#365486" transform="translate(128,32)"/>
<path d="M0 0 C0 29.37 0 58.74 0 89 C-1.98 87.68 -3.96 86.36 -6 85 C-7.2689209 84.29556763 -7.2689209 84.29556763 -8.56347656 83.5769043 C-11.22810174 81.92786696 -13.07040692 80.48279241 -15 78 C-15.92724305 73.17724346 -15.33862235 68.65887368 -14.75 63.8125 C-14.61705394 62.43813656 -14.48828754 61.06336293 -14.36352539 59.68823242 C-14.03069069 56.14815168 -13.64154149 52.61680697 -13.2354126 49.08447266 C-12.8619698 45.77780467 -12.53291286 42.46716714 -12.19921875 39.15625 C-11.61656051 33.4642127 -10.98123591 27.78000033 -10.32373047 22.09619141 C-9.89115169 17.95896356 -9.61366098 13.81480798 -9.36352539 9.6628418 C-8.97092823 6.78704781 -8.31023342 4.58914542 -7 2 C-4 0 -4 0 0 0 Z " fill="#365486" transform="translate(384,32)"/>
<path d="M0 0 C7.92 0 15.84 0 24 0 C24 10.56 24 21.12 24 32 C16.08 32 8.16 32 0 32 C0 21.44 0 10.88 0 0 Z " fill="#234275" transform="translate(160,376)"/>
<path d="M0 0 C7.92 0 15.84 0 24 0 C24.061875 3.17625 24.12375 6.3525 24.1875 9.625 C24.21481201 10.6145166 24.24212402 11.6040332 24.27026367 12.62353516 C24.32677936 18.63607519 23.69041381 22.97956209 19.53515625 27.64453125 C12.85939361 32.93910162 9.14843095 32 0 32 C0 21.44 0 10.88 0 0 Z " fill="#4369A8" transform="translate(64,328)"/>
<path d="M0 0 C7.92 0 15.84 0 24 0 C24 10.56 24 21.12 24 32 C9.22689076 32 9.22689076 32 4.5 27.60546875 C0.69863153 23.33972856 -0.13512096 19.99790159 -0.09765625 14.453125 C-0.09515869 13.69161133 -0.09266113 12.93009766 -0.09008789 12.14550781 C-0.08098389 11.18999023 -0.07187988 10.23447266 -0.0625 9.25 C-0.041875 6.1975 -0.02125 3.145 0 0 Z " fill="#4369A8" transform="translate(424,328)"/>
<path d="M0 0 C7.92 0 15.84 0 24 0 C24 10.56 24 21.12 24 32 C31.92 32 39.84 32 48 32 C48 34.64 48 37.28 48 40 C37.44 40 26.88 40 16 40 C16 29.44 16 18.88 16 8 C10.72 8 5.44 8 0 8 C0 5.36 0 2.72 0 0 Z " fill="#994D25" transform="translate(136,376)"/>
<path d="M0 0 C5.28 0 10.56 0 16 0 C16.06900495 4.75111878 16.12869507 9.50048771 16.16479492 14.25170898 C16.17984876 15.86667789 16.20029648 17.48160613 16.22631836 19.09643555 C16.26285286 21.42246555 16.27976015 23.74795341 16.29296875 26.07421875 C16.30845261 26.79212082 16.32393646 27.51002289 16.33988953 28.24967957 C16.34136511 32.67999919 15.73905727 35.48259257 13 39 C10.37121839 40.12276504 7.83903809 40.20605922 5 40 C1.73288174 38.32455474 1.172189 37.51656699 0 34 C-0.08481773 31.41369776 -0.11598229 28.85521944 -0.09765625 26.26953125 C-0.0962413 25.51911057 -0.09482635 24.76868988 -0.09336853 23.99552917 C-0.0877756 21.6011454 -0.07522444 19.20685547 -0.0625 16.8125 C-0.05748408 15.18815239 -0.05292134 13.56380332 -0.04882812 11.93945312 C-0.0386598 7.95957025 -0.01908312 3.97989007 0 0 Z " fill="#DC923B" transform="translate(248,136)"/>
<path d="M0 0 C2.64 0 5.28 0 8 0 C8 7.92 8 15.84 8 24 C5.36 24 2.72 24 0 24 C0 16.08 0 8.16 0 0 Z " fill="#446AA9" transform="translate(168,376)"/>
</svg>
