<?xml version="1.0" encoding="UTF-8"?>
<svg version="1.1" xmlns="http://www.w3.org/2000/svg" width="512" height="512">
<path d="M0 0 C1.60026183 1.7555504 3.18338066 3.52686315 4.75 5.3125 C11.71474054 12.0241613 20.09324456 11.28139768 29.3203125 11.6484375 C35.86906403 11.91421165 42.18322778 12.82525005 48.625 14 C49.56569336 14.16677246 50.50638672 14.33354492 51.47558594 14.50537109 C56.41507165 15.41414316 61.19855315 16.52667932 66 18 C66.226875 17.0925 66.45375 16.185 66.6875 15.25 C69.60472918 8.02638489 77.67832064 5.44749821 84.3125 2.25 C85.31990234 1.74339844 86.32730469 1.23679687 87.36523438 0.71484375 C93.14617553 -2.07959165 97.55192094 -3.97945505 104 -3 C106.42869909 0.64304864 106.25675675 3.30722339 106.1953125 7.51171875 C106.19106766 8.60405571 106.19106766 8.60405571 106.18673706 9.71846008 C106.17555257 12.04164137 106.15045166 14.36443547 106.125 16.6875 C106.11496794 18.2636663 106.10584248 19.83983865 106.09765625 21.41601562 C106.07561896 25.27749267 106.04110141 29.13868071 106 33 C106.74008301 33.12511963 107.48016602 33.25023926 108.24267578 33.37915039 C110.83746317 33.96340259 112.76980681 34.71503113 115.1171875 35.93359375 C116.26368774 36.52829468 116.26368774 36.52829468 117.43334961 37.13500977 C118.23909424 37.56483154 119.04483887 37.99465332 119.875 38.4375 C120.71490479 38.88343506 121.55480957 39.32937012 122.42016602 39.78881836 C151.93993951 55.72798522 180.11685584 79.12640675 199.81298828 106.35986328 C201.0324619 108.04485378 202.2780705 109.70810946 203.52734375 111.37109375 C225.90373585 141.50010594 240.69290346 177.06023838 247 214 C247.16226074 214.9492334 247.32452148 215.8984668 247.49169922 216.87646484 C251.90292787 244.06766067 253.11646314 276.1429635 245.7109375 302.890625 C244.58162186 307.11770037 243.72320006 310.59465866 244 315 C246.29361356 318.83787157 249.75230905 321.51382929 253.140625 324.3515625 C255.98922872 326.99002333 256.97398396 328.10521835 257.5 331.875 C257.28057515 339.06439076 251.75465985 343.47381937 247 348.265625 C244.03583835 350.83610893 241.91977157 351.92335237 238 352.25 C235.0450168 352.0037514 233.5513624 351.38565372 231 350 C230.62875 351.23621094 230.2575 352.47242188 229.875 353.74609375 C227.8430261 359.82183813 224.96710509 365.39759368 222 371.0625 C221.42403076 372.16432617 220.84806152 373.26615234 220.25463867 374.40136719 C215.45092455 383.43634237 210.12208958 391.81483106 204 400 C203.17181502 401.13407078 202.34368907 402.26818468 201.515625 403.40234375 C195.55730085 411.45076687 188.94638735 418.79817253 182 426 C181.38318359 426.64404785 180.76636719 427.2880957 180.13085938 427.95166016 C171.31280628 437.11918246 162.30736013 445.537121 152 453 C151.39784668 453.44118164 150.79569336 453.88236328 150.17529297 454.33691406 C107.66271341 485.27335046 57.37199475 501.78403369 4.8125 501.4375 C3.83886505 501.43479095 2.8652301 501.43208191 1.86209106 501.42929077 C-14.06047437 501.36242683 -29.38881972 500.35659541 -45 497 C-45.8981543 496.81276367 -46.79630859 496.62552734 -47.72167969 496.43261719 C-92.44143455 486.87457434 -133.12461192 464.59259163 -166 433 C-166.59458008 432.43265137 -167.18916016 431.86530273 -167.80175781 431.28076172 C-176.68978304 422.75715011 -184.77359748 413.97688993 -192 404 C-192.6798999 403.06269043 -192.6798999 403.06269043 -193.37353516 402.10644531 C-231.78486962 348.66108383 -248.34628322 283.47188657 -238.50927734 218.09912109 C-236.57223941 206.31160455 -233.88599216 194.6775911 -230.625 183.1875 C-230.43856934 182.50913086 -230.25213867 181.83076172 -230.06005859 181.13183594 C-228.94796946 177.34873893 -227.56068885 174.08357765 -225.6015625 170.65625 C-222.0104239 164.19407433 -222.0104239 164.19407433 -221 157 C-223.88526626 150.05303833 -229.15000801 144.55896641 -234.14697266 139.05273438 C-239.91099373 132.66750523 -239.91099373 132.66750523 -240.19140625 127.4140625 C-238.59979708 122.85318902 -236.0249279 121.49476775 -231.9375 119.375 C-230.81432373 118.75395386 -230.81432373 118.75395386 -229.66845703 118.12036133 C-227.12500919 116.72210795 -224.56348194 115.36113673 -222 114 C-220.11223099 112.97719649 -218.22554393 111.95239397 -216.33984375 110.92578125 C-214.35160225 109.84628094 -212.36332017 108.7668554 -210.375 107.6875 C-209.36228027 107.13723145 -208.34956055 106.58696289 -207.30615234 106.02001953 C-202.21068349 103.25753201 -197.10248382 100.53214703 -191.94921875 97.87890625 C-180.05185799 91.62698671 -171.02269784 84.83033215 -161.8515625 75.01953125 C-156.46286856 69.26826636 -150.34560607 64.63506726 -144 60 C-142.84894983 59.14193848 -141.69790823 58.28386549 -140.546875 57.42578125 C-134.62397579 53.061496 -128.56468401 49.02560177 -122.25 45.25 C-121.61964844 44.869646 -120.98929687 44.48929199 -120.33984375 44.09741211 C-117.63274114 42.4826055 -114.97921314 40.99040823 -112.11328125 39.66796875 C-104.44746089 35.97006153 -102.23393525 30.31955184 -98.85546875 22.9140625 C-92.40083867 8.869482 -78.89823292 -1.69565591 -64.74609375 -7.28515625 C-43.42778587 -14.58308005 -18.83670819 -13.02381777 0 0 Z " fill="#E178B2" transform="translate(248,11)"/>
<path d="M0 0 C1.35677101 -0.01418472 1.35677101 -0.01418472 2.74095154 -0.02865601 C3.71081497 -0.02258331 4.68067841 -0.01651062 5.67993164 -0.01025391 C7.1851815 -0.01455917 7.1851815 -0.01455917 8.72084045 -0.01895142 C10.84156865 -0.02099146 12.96231569 -0.0154658 15.08300781 -0.00292969 C18.32472981 0.01310761 21.56520183 -0.00277217 24.80688477 -0.02197266 C26.86873647 -0.01998989 28.9305874 -0.01614551 30.99243164 -0.01025391 C32.44419044 -0.01936295 32.44419044 -0.01936295 33.92527771 -0.02865601 C42.47339454 0.06040219 42.47339454 0.06040219 46.40258789 3.38818359 C49.26742369 6.54676266 49.77560706 8.57222877 49.76335144 12.80450439 C49.76953743 14.45351242 49.76953743 14.45351242 49.77584839 16.13583374 C49.76506256 17.33704865 49.75427673 18.53826355 49.74316406 19.77587891 C49.74360214 21.04442719 49.74404022 22.31297546 49.74449158 23.6199646 C49.74535215 27.09495119 49.72771669 30.56962698 49.7067697 34.04454136 C49.68801306 37.67736293 49.68625327 41.31019167 49.68269348 44.9430542 C49.67337002 51.82077054 49.64875223 58.69834378 49.61864501 65.57599711 C49.58511032 73.4066341 49.56861735 81.23727793 49.55355871 89.06796885 C49.52220288 105.17479086 49.46943661 121.28146896 49.40258789 137.38818359 C50.08603271 137.37513184 50.76947754 137.36208008 51.47363281 137.34863281 C52.37186768 137.33848145 53.27010254 137.32833008 54.19555664 137.31787109 C55.08525146 137.30481934 55.97494629 137.29176758 56.89160156 137.27832031 C61.08711416 137.46188674 63.91170526 138.86894178 66.84008789 141.85302734 C69.92123536 145.43311062 71.54479567 147.70766686 71.52758789 152.38818359 C71.53016602 153.08943359 71.53274414 153.79068359 71.53540039 154.51318359 C71.40258789 156.38818359 71.40258789 156.38818359 70.40258789 158.38818359 C70.97106445 158.46294922 71.53954102 158.53771484 72.12524414 158.61474609 C78.30623909 159.66726944 82.31086174 161.57563522 86.40258789 166.38818359 C89.47994622 170.95869803 90.96295661 174.78449645 90.40258789 180.38818359 C90.98814453 180.64704346 91.57370117 180.90590332 92.17700195 181.17260742 C94.57142749 182.48040084 96.11352118 183.8855446 98.01196289 185.83740234 C98.68485352 186.52125 99.35774414 187.20509766 100.05102539 187.90966797 C100.74454102 188.62445313 101.43805664 189.33923828 102.15258789 190.07568359 C107.9433445 196.01506228 113.87747946 201.63427903 120.26342773 206.93188477 C123.43389757 209.60896312 124.82980488 211.75675546 125.52758789 215.88818359 C125.72234837 220.55464462 124.51196 222.82378142 121.40258789 226.38818359 C112.42553537 236.1362713 112.42553537 236.1362713 106.40258789 236.63818359 C102.7299743 236.33213246 100.50299894 235.50737299 97.90039062 232.86035156 C97.40482666 232.24820801 96.9092627 231.63606445 96.39868164 231.00537109 C93.32698973 227.37511519 90.0720581 223.98283498 86.68774414 220.64599609 C86.18326752 220.14718933 85.67879089 219.64838257 85.1590271 219.13446045 C83.05837069 217.0608561 80.95355232 214.99156521 78.84472656 212.92626953 C77.28809138 211.3996469 75.73758325 209.86701312 74.18774414 208.33349609 C73.26872314 207.43131348 72.34970215 206.52913086 71.40283203 205.59960938 C69.40258789 203.38818359 69.40258789 203.38818359 69.40258789 201.38818359 C68.12383789 201.24380859 66.84508789 201.09943359 65.52758789 200.95068359 C63.14565895 200.68175613 61.55806098 200.46592014 59.40258789 199.38818359 C58.74258789 203.01818359 58.08258789 206.64818359 57.40258789 210.38818359 C49.81258789 241.07818359 42.22258789 271.76818359 34.40258789 303.38818359 C-72.18741211 303.38818359 -178.77741211 303.38818359 -288.59741211 303.38818359 C-301.96241211 249.43318359 -301.96241211 249.43318359 -315.59741211 194.38818359 C-319.06241211 181.51818359 -319.06241211 181.51818359 -322.59741211 168.38818359 C-326.72241211 150.51318359 -326.72241211 150.51318359 -323.90991211 145.20068359 C-318.56323386 138.6979668 -318.56323386 138.6979668 -314.2467767 138.01775968 C-311.17243024 137.86218845 -308.12116493 137.84280994 -305.04286194 137.86247253 C-303.860154 137.85426572 -302.67744606 137.8460589 -301.45889848 137.83760339 C-298.17919048 137.81887717 -294.90003749 137.81802457 -291.62030065 137.82471907 C-288.08151609 137.82760443 -284.54285304 137.80749369 -281.00411987 137.79022217 C-274.07047512 137.75999125 -267.13695491 137.75090787 -260.20325089 137.74875738 C-252.12092194 137.74537391 -244.03870378 137.72033029 -235.95642167 137.69420151 C-221.52450806 137.64821306 -207.09261949 137.62077772 -192.66064453 137.60424805 C-178.67622415 137.58820507 -164.69189042 137.56097845 -150.70751953 137.52026367 C-149.41753985 137.51651141 -149.41753985 137.51651141 -148.10149998 137.51268335 C-144.64405655 137.50260471 -141.18661315 137.49251268 -137.72916985 137.48238714 C-124.38244893 137.44363295 -111.03570711 137.41325143 -97.68896132 137.38450738 C-93.66385132 137.37582765 -89.63874269 137.36681406 -85.6136353 137.35699248 C-77.14691161 137.33641958 -68.68020177 137.31882138 -60.21345616 137.31045964 C-56.7140407 137.30696893 -53.21464726 137.30198195 -49.71524239 137.29252052 C-45.90842128 137.28317751 -42.10164627 137.28027067 -38.29481506 137.27897644 C-37.20673949 137.27490113 -36.11866391 137.27082582 -34.99761635 137.26662701 C-27.16306416 137.27397864 -19.40451979 137.74683715 -11.59741211 138.38818359 C-11.60047206 137.64732356 -11.60353201 136.90646353 -11.60668468 136.14315319 C-11.6728942 120.02797728 -11.72183861 103.91283894 -11.75284863 87.79755878 C-11.76831634 79.96744734 -11.78940399 72.1374264 -11.82373047 64.30737305 C-11.85363581 57.4825515 -11.87298781 50.65779549 -11.87967759 43.83291024 C-11.88358795 40.21929223 -11.89277568 36.60586175 -11.91460228 32.99230385 C-11.93877301 28.95791944 -11.93938138 24.92386088 -11.93798828 20.8894043 C-11.95416702 19.09297485 -11.95416702 19.09297485 -11.97067261 17.26025391 C-11.96654861 16.15954056 -11.96242462 15.05882721 -11.95817566 13.92475891 C-11.96094104 12.97070317 -11.96370642 12.01664743 -11.9665556 11.03368092 C-11.40481709 7.00793545 -9.62509317 4.35533225 -6.69725037 1.59994507 C-4.25623223 0.19129765 -2.80343342 0.00843545 0 0 Z " fill="#DA387E" transform="translate(379.597412109375,126.61181640625)"/>
<path d="M0 0 C1.60026183 1.7555504 3.18338066 3.52686315 4.75 5.3125 C11.71474054 12.0241613 20.09324456 11.28139768 29.3203125 11.6484375 C35.86906403 11.91421165 42.18322778 12.82525005 48.625 14 C49.56569336 14.16677246 50.50638672 14.33354492 51.47558594 14.50537109 C56.46015721 15.42243806 61.08757628 16.59645037 66 18 C65.67 61.89 65.34 105.78 65 151 C59 147 59 147 56.46484375 145.25390625 C37.86064133 132.80318036 16.08053722 129.24059985 -5.78515625 133.18359375 C-26.38499705 138.41490204 -44.16367332 151.18803398 -55.1328125 169.4765625 C-62.53529994 182.35560443 -65.32489021 193.78866064 -65.4375 208.625 C-65.4478125 209.75711914 -65.458125 210.88923828 -65.46875 212.05566406 C-65.36403572 222.05878697 -63.48174874 231.23608704 -59.5 240.4375 C-59.0978125 241.38496094 -58.695625 242.33242187 -58.28125 243.30859375 C-57.02989349 246.05513398 -57.02989349 246.05513398 -55.34375 248.72265625 C-54 251 -54 251 -54 253 C-62.91 253 -71.82 253 -81 253 C-79.68 252.01 -78.36 251.02 -77 250 C-71.58911224 245.89180387 -71.58911224 245.89180387 -69.4765625 239.58984375 C-69.64261573 233.22592635 -73.30690242 227.95108911 -76.375 222.5625 C-76.97828125 221.46228516 -77.5815625 220.36207031 -78.203125 219.22851562 C-80.76047618 213.80759207 -80.76047618 213.80759207 -85 210 C-87.67842611 211.17675788 -87.67842611 211.17675788 -90.73046875 212.9453125 C-91.30916214 213.26672714 -91.88785553 213.58814178 -92.48408508 213.91929626 C-94.38960091 214.98022801 -96.28847396 216.05250182 -98.1875 217.125 C-99.5035335 217.86061191 -100.819943 218.59555155 -102.13671875 219.32983398 C-106.09747185 221.5420524 -110.0496633 223.76924721 -114 226 C-115.12615723 226.63534668 -116.25231445 227.27069336 -117.41259766 227.92529297 C-119.47720544 229.09102822 -121.54135645 230.25757296 -123.60498047 231.42504883 C-125.51588255 232.50587361 -127.4276499 233.5851702 -129.34033203 234.6628418 C-133.28090631 236.88441399 -137.21080305 239.11522987 -141.09765625 241.4296875 C-142.25254139 242.09906665 -143.40748323 242.768348 -144.5625 243.4375 C-145.49191406 243.99308594 -146.42132813 244.54867187 -147.37890625 245.12109375 C-150 246 -150 246 -152.97265625 245.6484375 C-157.24200516 243.32370816 -159.21188797 240.17540888 -161.875 236.1875 C-163.01535574 234.54357596 -164.15871519 232.90173245 -165.3046875 231.26171875 C-165.9037793 230.39981934 -166.50287109 229.53791992 -167.12011719 228.64990234 C-170.29421718 224.17565801 -173.65112929 219.84405777 -177 215.5 C-181.93551216 209.06953516 -186.7859293 202.59455101 -191.5 196 C-199.87579275 184.28942526 -208.63841218 172.86488024 -217.49609375 161.515625 C-221.28157217 156.6556728 -224.99080861 151.74017843 -228.6875 146.8125 C-229.33783203 145.94947266 -229.98816406 145.08644531 -230.65820312 144.19726562 C-231.90447016 142.53684666 -233.14303722 140.8706107 -234.37255859 139.19775391 C-235.34957322 137.87835912 -236.34663358 136.57298762 -237.38134766 135.29833984 C-239.51039693 132.54089679 -240.00356748 130.93316429 -240.19140625 127.4140625 C-238.59979708 122.85318902 -236.0249279 121.49476775 -231.9375 119.375 C-230.81432373 118.75395386 -230.81432373 118.75395386 -229.66845703 118.12036133 C-227.12500919 116.72210795 -224.56348194 115.36113673 -222 114 C-220.11223099 112.97719649 -218.22554393 111.95239397 -216.33984375 110.92578125 C-214.35160225 109.84628094 -212.36332017 108.7668554 -210.375 107.6875 C-209.36228027 107.13723145 -208.34956055 106.58696289 -207.30615234 106.02001953 C-202.21068349 103.25753201 -197.10248382 100.53214703 -191.94921875 97.87890625 C-180.05185799 91.62698671 -171.02269784 84.83033215 -161.8515625 75.01953125 C-156.46286856 69.26826636 -150.34560607 64.63506726 -144 60 C-142.84894983 59.14193848 -141.69790823 58.28386549 -140.546875 57.42578125 C-134.62397579 53.061496 -128.56468401 49.02560177 -122.25 45.25 C-121.61964844 44.869646 -120.98929687 44.48929199 -120.33984375 44.09741211 C-117.63274114 42.4826055 -114.97921314 40.99040823 -112.11328125 39.66796875 C-104.44746089 35.97006153 -102.23393525 30.31955184 -98.85546875 22.9140625 C-92.40083867 8.869482 -78.89823292 -1.69565591 -64.74609375 -7.28515625 C-43.42778587 -14.58308005 -18.83670819 -13.02381777 0 0 Z " fill="#F2D4D4" transform="translate(248,11)"/>
<path d="M0 0 C3.30811012 1.394438 4.95172222 2.88279229 7.03125 5.7890625 C7.588125 6.55734375 8.145 7.325625 8.71875 8.1171875 C9.3065625 8.94476563 9.894375 9.77234375 10.5 10.625 C11.75975734 12.36766431 13.02018431 14.10984473 14.28125 15.8515625 C14.90902344 16.72329102 15.53679688 17.59501953 16.18359375 18.49316406 C18.74540617 22.02874066 21.36831189 25.51630732 24 29 C28.37093395 34.80596949 32.6953851 40.64471268 37 46.5 C41.41112846 52.49920739 45.84167034 58.48263126 50.3125 64.4375 C50.79879883 65.08605957 51.28509766 65.73461914 51.78613281 66.40283203 C54.09281818 69.47553765 56.40953633 72.5397823 58.74609375 75.58984375 C59.17043701 76.14679932 59.59478027 76.70375488 60.03198242 77.27758789 C61.16880197 78.76850998 62.31076846 80.25550364 63.453125 81.7421875 C65 84 65 84 65 86 C66.2375 86 67.475 86 68.75 86 C70.96777344 86.24609375 70.96777344 86.24609375 73 87 C74.29003906 88.84765625 74.29003906 88.84765625 75.265625 91.0625 C75.76497559 92.16271484 75.76497559 92.16271484 76.27441406 93.28515625 C76.51385742 93.85105469 76.75330078 94.41695313 77 95 C75.88028809 95.01458252 74.76057617 95.02916504 73.60693359 95.04418945 C69.43571726 95.10234886 65.26503081 95.17958023 61.09423828 95.26245117 C59.29224271 95.29561773 57.49014533 95.32367525 55.68798828 95.34643555 C53.09103177 95.38013432 50.49500134 95.43245649 47.8984375 95.48828125 C47.0982016 95.49467117 46.2979657 95.5010611 45.47348022 95.50764465 C40.60578798 95.63436751 37.22764405 96.34067552 33 99 C28.61358917 103.8606174 27.72509767 106.45699091 28 113 C28.45131706 115.43791955 28.98115857 117.86216372 29.57421875 120.26953125 C29.73992874 120.94940598 29.90563873 121.6292807 30.07637024 122.32975769 C30.42824681 123.76690939 30.78396079 125.20312641 31.14331055 126.63842773 C31.67605599 128.76678045 32.19755668 130.89761406 32.71679688 133.02929688 C34.42744826 140.00070832 36.24532868 146.93057977 38.20703125 153.8359375 C42.28257751 168.25946845 45.77559441 182.84556492 49.39599609 197.3883667 C50.19829844 200.60835884 51.00322564 203.8276923 51.80815125 207.0470295 C54.219974 216.6944359 56.61790879 226.34520941 59 236 C59.28955566 237.17254333 59.57911133 238.34508667 59.87744141 239.55316162 C60.61172229 242.53794605 61.33910236 245.52428082 62.0625 248.51171875 C62.36849121 249.75572197 62.36849121 249.75572197 62.68066406 251.02485657 C63.50824247 254.4802527 64 257.42336713 64 261 C170.59 261 277.18 261 387 261 C387.33 258.36 387.66 255.72 388 253 C388.2957109 251.50223449 388.61899809 250.00924907 388.98669434 248.5275116 C389.18014938 247.73833344 389.37360443 246.94915527 389.57292175 246.13606262 C389.88777275 244.88184761 389.88777275 244.88184761 390.20898438 243.60229492 C390.43185623 242.69886353 390.65472809 241.79543213 390.88435364 240.86462402 C391.61638571 237.90212101 392.35496686 234.94129473 393.09375 231.98046875 C393.60595914 229.91409782 394.11779433 227.84763415 394.62927246 225.78108215 C395.69911585 221.46248779 396.77193253 217.14464756 397.84716797 212.82739258 C399.22653291 207.28891433 400.60082035 201.74919294 401.97319794 196.20897961 C403.28253329 190.92405831 404.59425477 185.63973024 405.90625 180.35546875 C406.15674606 179.3458074 406.40724213 178.33614605 406.66532898 177.2958889 C407.37257894 174.44717501 408.08151016 171.59888528 408.79101562 168.75073242 C409.00091629 167.90446793 409.21081696 167.05820343 409.42707825 166.18629456 C410.20071542 163.08671166 410.98931699 160.03204902 412 157 C413.52500735 157.12273701 415.0455514 157.30105592 416.5625 157.5 C417.40941406 157.5928125 418.25632812 157.685625 419.12890625 157.78125 C422.80569477 159.34200921 424.37301573 161.4986122 426.87866211 164.54833984 C429.34410725 167.3976896 432.01719153 169.97940522 434.75 172.56640625 C435.78043327 173.55613556 436.81037555 174.54637629 437.83984375 175.53710938 C439.42832534 177.06358337 441.02165931 178.58268621 442.63330078 180.0847168 C444.21181312 181.560262 445.76338236 183.06010793 447.3125 184.56640625 C448.23675781 185.44240479 449.16101563 186.31840332 450.11328125 187.22094727 C452 190 452 190 451.92749023 193.53125 C451.11666031 196.56369842 450.24743166 199.13663244 448.84765625 201.93359375 C448.40639404 202.82135498 447.96513184 203.70911621 447.51049805 204.6237793 C447.03265869 205.55230713 446.55481934 206.48083496 446.0625 207.4375 C445.56596924 208.41178955 445.06943848 209.3860791 444.55786133 210.38989258 C433.78455588 231.23885267 420.27502127 250.43497701 403.79736328 267.171875 C401.94222504 269.05876377 400.10959844 270.9659042 398.27734375 272.875 C390.38133866 281.02465914 382.1793588 288.33112852 373 295 C372.39639648 295.44263184 371.79279297 295.88526367 371.17089844 296.34130859 C328.65866187 327.2744666 278.36975513 343.78401893 225.8125 343.4375 C224.83886505 343.43479095 223.8652301 343.43208191 222.86209106 343.42929077 C206.93952563 343.36242683 191.61118028 342.35659541 176 339 C175.1018457 338.81276367 174.20369141 338.62552734 173.27832031 338.43261719 C128.55856545 328.87457434 87.87538808 306.59259163 55 275 C54.40541992 274.43265137 53.81083984 273.86530273 53.19824219 273.28076172 C44.31021696 264.75715011 36.22640252 255.97688993 29 246 C28.3201001 245.06269043 28.3201001 245.06269043 27.62646484 244.10644531 C-10.78486962 190.66108383 -27.34628322 125.47188657 -17.50927734 60.09912109 C-14.0734061 39.19070806 -8.43053183 19.41208915 0 0 Z " fill="#F2D2D3" transform="translate(27,169)"/>
<path d="M0 0 C3.79203376 0.75840675 5.87439458 1.25020842 9.1171875 2.93359375 C9.881521 3.33006104 10.64585449 3.72652832 11.43334961 4.13500977 C12.23909424 4.56483154 13.04483887 4.99465332 13.875 5.4375 C14.71490479 5.88343506 15.55480957 6.32937012 16.42016602 6.78881836 C45.93993951 22.72798522 74.11685584 46.12640675 93.81298828 73.35986328 C95.0324619 75.04485378 96.2780705 76.70810946 97.52734375 78.37109375 C119.90373585 108.50010594 134.69290346 144.06023838 141 181 C141.16226074 181.9492334 141.32452148 182.8984668 141.49169922 183.87646484 C145.82918577 210.61310798 145.37859876 238.3085418 141 265 C140.79987305 266.22493164 140.79987305 266.22493164 140.59570312 267.47460938 C138.57559464 279.42440536 138.57559464 279.42440536 136 282 C135.4652002 281.45996338 134.93040039 280.91992676 134.37939453 280.36352539 C131.96386294 277.92725624 129.54448883 275.49483893 127.125 273.0625 C126.28324219 272.21236328 125.44148438 271.36222656 124.57421875 270.48632812 C123.76855469 269.67744141 122.96289062 268.86855469 122.1328125 268.03515625 C121.38918457 267.2862915 120.64555664 266.53742676 119.87939453 265.76586914 C118.1128324 263.93702297 118.1128324 263.93702297 116 263 C115.578125 261.21484375 115.578125 261.21484375 115.25 258.9375 C113.96579301 252.59735996 110.65948996 248.04576151 105.5625 244.125 C102.4416965 242.75489114 99.29956086 241.84106453 96 241 C96.04640625 240.34773437 96.0928125 239.69546875 96.140625 239.0234375 C96.38430607 233.12287451 96.13421915 229.58116176 92 225 C89.48635244 223.17380913 89.48635244 223.17380913 87 222 C86.34 221.67 85.68 221.34 85 221 C83.29636178 220.77377919 81.58671299 220.59111527 79.875 220.4375 C78.96492188 220.35371094 78.05484375 220.26992188 77.1171875 220.18359375 C76.41851562 220.12300781 75.71984375 220.06242188 75 220 C74.99780016 219.00193565 74.99780016 219.00193565 74.99555588 217.98370838 C74.95850098 201.79212433 74.89950399 185.60078396 74.81609726 169.40937519 C74.77629119 161.57930979 74.74390672 153.74934512 74.72900391 145.91918945 C74.71599544 139.09425311 74.68905163 132.26953825 74.64538693 125.44472665 C74.62275366 121.83112578 74.60709041 118.21779829 74.60811615 114.60412025 C74.60900023 110.56950665 74.57877251 106.53570048 74.54589844 102.5012207 C74.5509288 101.30360107 74.55595917 100.10598145 74.56114197 98.87207031 C74.52280404 92.53689592 74.52280404 92.53689592 72.15338135 86.78117371 C69.01429107 84.18466888 66.4525155 83.87171405 62.51611328 83.82299805 C61.61152374 83.81016281 60.7069342 83.79732758 59.77493286 83.78410339 C58.79990814 83.77671646 57.82488342 83.76932953 56.8203125 83.76171875 C55.81539764 83.753647 54.81048279 83.74557526 53.77511597 83.73725891 C51.64843467 83.72342759 49.52173126 83.71270118 47.39501953 83.70483398 C44.14442967 83.68760299 40.89485216 83.64370574 37.64453125 83.59960938 C35.57813248 83.5894838 33.51172506 83.58096727 31.4453125 83.57421875 C30.47433624 83.55671066 29.50335999 83.53920258 28.50296021 83.52116394 C24.18469579 83.53503315 21.68255615 83.59379874 17.90966797 85.83911133 C14.94051119 89.19886671 14.8709048 91.98167453 14.84178162 96.29606628 C14.82709839 97.94301231 14.82709839 97.94301231 14.81211853 99.62322998 C14.80636307 100.82804016 14.8006076 102.03285034 14.79467773 103.27416992 C14.77982834 105.1767733 14.77982834 105.1767733 14.76467896 107.11781311 C14.7376366 110.59684318 14.71662343 114.07588681 14.69667697 117.55496383 C14.67481329 121.19050172 14.64742647 124.82599786 14.62062073 128.46150208 C14.57069901 135.34624337 14.52575825 142.23100784 14.48259836 149.11579448 C14.43322154 156.95371101 14.37830506 164.79158564 14.32291877 172.62946165 C14.20910672 188.75293606 14.10246248 204.87644942 14 221 C9.38 221 4.76 221 0 221 C0 148.07 0 75.14 0 0 Z " fill="#F2D4D4" transform="translate(354,44)"/>
<path d="M0 0 C2.91503322 2.16420419 3.89646643 4.74275301 5.171875 8.08203125 C5.58050781 9.1380957 5.98914063 10.19416016 6.41015625 11.28222656 C6.85230469 12.4472168 7.29445313 13.61220703 7.75 14.8125 C8.23212992 16.0638403 8.71523084 17.31480684 9.19921875 18.56542969 C9.9776866 20.5775377 10.75544412 22.58989767 11.53039551 24.60336304 C14.33632683 31.89331782 17.20556808 39.15789391 20.07901001 46.42144775 C21.00947837 48.77396429 21.93885963 51.12690753 22.86791992 53.47998047 C27.8419207 66.07706389 32.8234228 78.67118329 37.80688477 91.26452637 C38.63280713 93.35165449 39.45865556 95.43881188 40.28442383 97.52600098 C41.07157831 99.51545305 41.85903662 101.50478494 42.64682007 103.49398804 C43.39615624 105.38790955 44.14393968 107.28244626 44.89004517 109.17764282 C46.52593949 113.32532248 48.18122255 117.45948611 49.92529297 121.56298828 C50.35883339 122.59674339 50.35883339 122.59674339 50.8011322 123.65138245 C51.55734346 125.44633755 52.32771343 127.23531009 53.09936523 129.02368164 C54.09811988 132.32425574 54.30300752 133.81446598 53 137 C49.81806423 140.03557936 46.25710096 142.11115326 42.4140625 144.21484375 C41.32947754 144.81232422 40.24489258 145.40980469 39.12744141 146.02539062 C37.97163574 146.65638672 36.81583008 147.28738281 35.625 147.9375 C33.18640882 149.27796859 30.7495729 150.62161732 28.3125 151.96484375 C27.69839264 152.3026889 27.08428528 152.64053406 26.4515686 152.98861694 C21.46075808 155.73681057 16.49678762 158.53065742 11.54223633 161.34375 C8.70250198 162.95599854 5.85753478 164.55867385 3.01171875 166.16015625 C-0.04843679 167.88476222 -3.08746746 169.63635703 -6.10546875 171.43359375 C-7.24628906 172.09488281 -8.38710937 172.75617188 -9.5625 173.4375 C-10.49191406 173.99308594 -11.42132813 174.54867187 -12.37890625 175.12109375 C-15 176 -15 176 -17.97265625 175.6484375 C-22.24200516 173.32370816 -24.21188797 170.17540888 -26.875 166.1875 C-28.01535574 164.54357596 -29.15871519 162.90173245 -30.3046875 161.26171875 C-30.9037793 160.39981934 -31.50287109 159.53791992 -32.12011719 158.64990234 C-35.29421718 154.17565801 -38.65112929 149.84405777 -42 145.5 C-46.93551216 139.06953516 -51.7859293 132.59455101 -56.5 126 C-64.87579275 114.28942526 -73.63841218 102.86488024 -82.49609375 91.515625 C-86.28157217 86.6556728 -89.99080861 81.74017843 -93.6875 76.8125 C-94.33783203 75.94947266 -94.98816406 75.08644531 -95.65820312 74.19726562 C-96.90447016 72.53684666 -98.14303722 70.8706107 -99.37255859 69.19775391 C-100.34957322 67.87835912 -101.34663358 66.57298762 -102.38134766 65.29833984 C-104.51039693 62.54089679 -105.00356748 60.93316429 -105.19140625 57.4140625 C-103.59979708 52.85318902 -101.0249279 51.49476775 -96.9375 49.375 C-95.81432373 48.75395386 -95.81432373 48.75395386 -94.66845703 48.12036133 C-92.12500919 46.72210795 -89.56348194 45.36113673 -87 44 C-85.11223099 42.97719649 -83.22554393 41.95239397 -81.33984375 40.92578125 C-78.33546541 39.29251859 -75.32934995 37.66296742 -72.31713867 36.04418945 C-65.07034589 32.14858752 -57.89751571 28.13701686 -50.75 24.0625 C-39.59062882 17.70644604 -39.59062882 17.70644604 -34 15 C-30.01652893 13.05195727 -26.16526568 10.97769707 -22.34765625 8.72265625 C-20.80174805 7.82450195 -20.80174805 7.82450195 -19.22460938 6.90820312 C-17.14442254 5.6940113 -15.07123199 4.46773919 -13.00585938 3.22851562 C-12.04615234 2.66970703 -11.08644531 2.11089844 -10.09765625 1.53515625 C-9.23664307 1.023479 -8.37562988 0.51180176 -7.48852539 -0.01538086 C-4.45791944 -1.21448159 -3.04869131 -1.08870611 0 0 Z " fill="#E8F6FE" transform="translate(113,81)"/>
<path d="M0 0 C101.97 0 203.94 0 309 0 C309 6 309 6 307.77734375 7.765625 C264.6884634 42.52947751 209.92546263 60.80086914 154.8125 60.4375 C153.83886505 60.43479095 152.8652301 60.43208191 151.86209106 60.42929077 C135.93952563 60.36242683 120.61118028 59.35659541 105 56 C104.1018457 55.81276367 103.20369141 55.62552734 102.27832031 55.43261719 C69.83525946 48.49849676 38.59066242 34.73619106 11.75390625 15.27099609 C10.10749487 14.07789787 8.44487364 12.90725952 6.78125 11.73828125 C5.8634375 11.06152344 4.945625 10.38476562 4 9.6875 C3.21625 9.11386719 2.4325 8.54023438 1.625 7.94921875 C0 6 0 6 0 0 Z " fill="#B30A4E" transform="translate(98,452)"/>
<path d="M0 0 C0.9182959 0.00829834 1.8365918 0.01659668 2.78271484 0.02514648 C16.86625037 0.37468486 28.53983076 5.86528246 38.375 16 C48.55445718 27.97045683 52.86249341 41.76054921 51.86328125 57.33398438 C50.29770154 71.15471675 42.83647349 83.53105608 32.375 92.4296875 C19.15094335 102.08475159 5.5024321 103.68941659 -10.375 102.4375 C-18.43546255 100.94889411 -24.95445081 97.43385464 -31.375 92.4375 C-32.12523437 91.88578125 -32.87546875 91.3340625 -33.6484375 90.765625 C-43.52294502 82.87949954 -49.76761491 70.92204442 -51.375 58.4375 C-52.73259918 42.49000582 -48.56012356 29.11733377 -38.82421875 16.4140625 C-28.6692622 5.27636822 -14.80491687 -0.17399819 0 0 Z " fill="#E28523" transform="translate(208.375,16.5625)"/>
<path d="M0 0 C2.07937866 3.11906798 2.2495954 3.7838514 2.24609566 7.32033825 C2.25007775 8.20761048 2.25405985 9.0948827 2.25816262 10.00904197 C2.24942409 11.47254906 2.24942409 11.47254906 2.24050903 12.96562195 C2.24221788 14.00132397 2.24392673 15.03702599 2.24568737 16.10411292 C2.24899418 19.59120646 2.23795889 23.0781096 2.22705078 26.56518555 C2.22648693 29.05820715 2.22680273 31.55122908 2.22793579 34.04425049 C2.22839193 39.42011167 2.22270156 44.79591304 2.21146011 50.17175865 C2.19521739 57.94435318 2.18999837 65.71692422 2.18748413 73.48953388 C2.1831051 86.09956258 2.16979035 98.70956542 2.15087891 111.31958008 C2.1325255 123.5702298 2.11836636 135.82087251 2.10986328 148.0715332 C2.10907511 149.20391577 2.10907511 149.20391577 2.10827102 150.35917475 C2.10566097 154.14633283 2.10313355 157.93349096 2.10064721 161.72064912 C2.07990822 193.1471188 2.04412723 224.57355406 2 256 C-7.24 256 -16.48 256 -26 256 C-24.60239504 252.50598759 -23.15706045 249.14775497 -21.5625 245.75 C-13.84320582 228.83131098 -11.20171781 207.09229495 -17.0625 189.125 C-21.45635899 177.47386829 -27.47751089 165.45407359 -37.08666229 157.20970535 C-39.47512673 154.45127822 -39.50230604 153.13156861 -39.50793457 149.52362061 C-39.51921387 148.41060074 -39.53049316 147.29758087 -39.54211426 146.15083313 C-39.53401733 144.93413437 -39.52592041 143.71743561 -39.51757812 142.46386719 C-39.5245874 141.17890854 -39.53159668 139.89394989 -39.53881836 138.5700531 C-39.55705349 135.04698442 -39.54998188 131.52438435 -39.53730202 128.00130749 C-39.52716651 124.30947302 -39.53657002 120.61767836 -39.54284668 116.92584229 C-39.55012517 110.72181003 -39.54053406 104.51796818 -39.52148438 98.31396484 C-39.49975342 91.15434344 -39.50673836 83.99517837 -39.52879 76.83556819 C-39.54698428 70.68080913 -39.54948158 64.52618694 -39.53903532 58.37140965 C-39.53281747 54.6990762 -39.53191653 51.02695662 -39.54518127 47.35463715 C-39.55895752 43.25405717 -39.53982468 39.1542537 -39.51757812 35.05371094 C-39.52567505 33.8451091 -39.53377197 32.63650726 -39.54211426 31.39128113 C-39.47257208 24.45944756 -38.72797648 19.89640483 -35 14 C-33.19335938 12.29418945 -33.19335938 12.29418945 -31.34375 11.30078125 C-30.29960937 10.72384521 -30.29960937 10.72384521 -29.234375 10.13525391 C-28.49703125 9.76062012 -27.7596875 9.38598633 -27 9 C-26.24203125 8.59571777 -25.4840625 8.19143555 -24.703125 7.77490234 C-22.32268847 6.5319716 -19.91864512 5.35411775 -17.5 4.1875 C-16.69691406 3.78080078 -15.89382813 3.37410156 -15.06640625 2.95507812 C-9.78855691 0.41024801 -5.87066123 -0.74682084 0 0 Z " fill="#717ED4" transform="translate(352,8)"/>
<path d="M0 0 C8.19558261 19.91726214 16.13620685 39.92982898 24.02099609 59.97167969 C27.03993522 67.64423135 30.06673667 75.31368092 33.09387207 82.98300171 C34.03011931 85.3554475 34.96579517 87.72811794 35.90136719 90.10083008 C36.34169785 91.21620399 36.34169785 91.21620399 36.79092407 92.35411072 C37.36360555 93.80650357 37.93475011 95.25950353 38.50424194 96.71315002 C39.89201566 100.24584306 41.31220285 103.75874688 42.80029297 107.25048828 C43.08561386 107.93039322 43.37093475 108.61029816 43.66490173 109.31080627 C44.44360099 111.16046896 45.23584631 113.00441235 46.02905273 114.84790039 C47.07472583 118.24259119 47.35849041 119.73298288 46 123 C42.73762083 126.12404122 39.0437389 128.22871375 35.09765625 130.390625 C33.96610107 131.01445068 32.8345459 131.63827637 31.66870117 132.28100586 C30.46678957 132.93762187 29.26471982 133.59394847 28.0625 134.25 C25.62137359 135.58798627 23.18157798 136.92838311 20.7421875 138.26953125 C20.1497374 138.5947023 19.55728729 138.91987335 18.94688416 139.25489807 C15.70584801 141.03937558 12.49520256 142.86213159 9.3203125 144.76171875 C8.68601318 145.13973633 8.05171387 145.51775391 7.39819336 145.90722656 C5.82592498 146.85413288 4.26213413 147.81507821 2.69921875 148.77734375 C-0.5100826 150.23105044 -2.51650118 150.52276244 -6 150 C-7.84375 148.48046875 -7.84375 148.48046875 -9.5 146.1875 C-10.16515625 145.2903125 -10.8303125 144.393125 -11.515625 143.46875 C-11.89525391 142.93765625 -12.27488281 142.4065625 -12.66601562 141.859375 C-14.25073702 139.65051004 -15.86660346 137.46602185 -17.484375 135.28125 C-19.94298273 131.95950721 -22.38967382 128.62952841 -24.828125 125.29296875 C-26.63937411 122.81556825 -28.47256446 120.42453844 -30.421875 118.05078125 C-32 116 -32 116 -32 114 C-31.21625 114.165 -30.4325 114.33 -29.625 114.5 C-19.21287933 115.93615457 -9.98056771 115.11011707 -1.1875 108.9375 C4.28234312 104.39704616 6.79252487 98.62242538 9 92 C9.86779066 80.93211256 8.70619385 73.36284473 1.75 64.6875 C-3.0928577 59.44802895 -9.30413203 56.2936558 -16.44140625 55.7265625 C-26.35428396 55.37753452 -33.61472281 56.1412422 -41.27734375 63.0546875 C-48.89166925 71.0132411 -50.42568032 78.22655489 -51 89 C-55.07632728 85.27165188 -58.1462154 80.88707611 -61.375 76.4375 C-62.61430057 74.73937694 -63.85389302 73.04146685 -65.09375 71.34375 C-65.73183594 70.46847656 -66.36992188 69.59320313 -67.02734375 68.69140625 C-69.01395785 65.98095652 -71.01931479 63.28544585 -73.03125 60.59375 C-73.67529785 59.72951416 -74.3193457 58.86527832 -74.98291016 57.97485352 C-76.22919852 56.30354061 -77.47879526 54.63468887 -78.73193359 52.96850586 C-79.29219238 52.21448486 -79.85245117 51.46046387 -80.4296875 50.68359375 C-80.92710449 50.01900146 -81.42452148 49.35440918 -81.93701172 48.66967773 C-83 47 -83 47 -83 45 C-82.33282959 44.64397705 -81.66565918 44.2879541 -80.97827148 43.92114258 C-68.17258272 37.07896777 -55.41866754 30.17108513 -42.79907227 22.98999023 C-33.85938773 17.9049397 -24.86891998 12.91386881 -15.86938477 7.93579102 C-14.78584717 7.33565186 -13.70230957 6.7355127 -12.5859375 6.1171875 C-11.6273584 5.58722168 -10.6687793 5.05725586 -9.68115234 4.51123047 C-7.85622488 3.48261082 -6.05458363 2.41180495 -4.27587891 1.30517578 C-2 0 -2 0 0 0 Z " fill="#FEFEFE" transform="translate(120,95)"/>
<path d="M0 0 C6.71811672 5.47621134 12.04368375 12.00821325 13.44140625 20.765625 C13.81217565 29.32920212 11.15637218 35.65531577 5.75 42.1875 C-6.77888125 55.56579693 -24.8676809 61.43769039 -42.83984375 62.26171875 C-64.49842705 62.8899401 -84.07873706 58.12574103 -100.375 43.1875 C-105.76644437 37.5122954 -108.13432289 31.28404034 -108.5625 23.5 C-108.13950454 14.11478829 -103.26912741 7.34539449 -96.55859375 1.09765625 C-70.52638373 -20.24478158 -26.83425874 -19.43645796 0 0 Z " fill="#FEFEFE" transform="translate(300,330)"/>
<path d="M0 0 C0.92515915 0.00565979 1.8503183 0.01131958 2.80351257 0.01715088 C5.74844861 0.0394802 8.69215261 0.08967014 11.63671875 0.140625 C13.63735218 0.16069446 15.63800474 0.17894445 17.63867188 0.1953125 C22.53432639 0.23933375 27.42906393 0.30833753 32.32421875 0.390625 C31.53660156 0.99390625 30.74898437 1.5971875 29.9375 2.21875 C26.85551685 4.78015902 25.69759284 6.63191697 24.32421875 10.390625 C23.88233222 16.98270276 25.1865185 22.4459531 26.94921875 28.765625 C29.15499724 36.79374812 31.15473194 44.84087153 32.97265625 52.96484375 C35.37394935 63.52144728 37.95856139 74.02283751 40.63671875 84.51171875 C40.82615429 85.25427162 41.01558983 85.99682449 41.21076584 86.76187897 C42.9711581 93.65869714 44.73990052 100.55336831 46.51074219 107.44750977 C47.68195403 112.00950605 48.84905691 116.57253586 50.01171875 121.13671875 C50.19891479 121.87152843 50.38611084 122.60633812 50.57897949 123.36341476 C54.12382537 137.31408219 57.28291512 151.31972183 60.32421875 165.390625 C46.46421875 165.390625 32.60421875 165.390625 18.32421875 165.390625 C17.54296631 162.22484863 16.76171387 159.05907227 15.95678711 155.79736328 C13.34895928 145.23170352 10.73809629 134.6667954 8.12581539 124.10223579 C6.54509923 117.70913284 4.96534523 111.31579562 3.38793945 104.921875 C1.86011207 98.72908048 0.3295625 92.53696412 -1.20272636 86.34527206 C-1.78122575 84.00573624 -2.35881176 81.66597433 -2.93538094 79.32596207 C-6.22316736 65.98539261 -9.6130343 52.68264055 -13.2585535 39.43472481 C-20.34264992 13.53915472 -20.34264992 13.53915472 -16.98828125 7.203125 C-11.63865763 0.69682601 -8.1208622 -0.18776772 0 0 Z " fill="#B3094E" transform="translate(72.67578125,264.609375)"/>
<path d="M0 0 C105.93 0 211.86 0 321 0 C319 11 319 11 316 20 C213.37 20 110.74 20 5 20 C0 3 0 3 0 0 Z " fill="#FEFEFE" transform="translate(92,431)"/>
<path d="M0 0 C14.18452751 10.71384525 25.34244636 27.20729135 28 45 C28.28877193 48.9630741 28.32505491 52.90262791 28.3125 56.875 C28.32861328 57.88691406 28.34472656 58.89882812 28.36132812 59.94140625 C28.37189702 76.45002648 21.56408446 92.19105726 10.13647461 104.04125977 C-3.55836197 117.64176305 -20.13390185 125.30671868 -39.5 125.5 C-58.55367392 125.3098368 -74.74923056 117.95469656 -88.375 104.6875 C-104.59637907 87.58928963 -107.70641252 69.41644857 -107.12304688 46.76123047 C-106.43103408 31.23213375 -97.65446009 16.81163729 -86.51367188 6.34033203 C-62.53487875 -14.89250253 -26.84912265 -17.80809156 0 0 Z M-78.30859375 21.80078125 C-88.22339304 34.69231012 -92.2344601 47.72913006 -91 64 C-89.02513525 77.64302397 -82.20709141 89.20560465 -71.6171875 97.97265625 C-58.31983489 107.78935387 -45.07171926 109.11635147 -29 108 C-17.57909985 105.97881724 -6.19620781 99.1383169 1 90 C9.80669115 77.30415437 13.49271024 64.3231276 12 49 C9.15264587 34.44330191 1.08993152 21.53248966 -11.25 13.1875 C-32.77977426 0.57468947 -60.84497292 3.07473 -78.30859375 21.80078125 Z " fill="#727ED3" transform="translate(248,11)"/>
<path d="M0 0 C0.77448486 -0.00950684 1.54896973 -0.01901367 2.34692383 -0.02880859 C6.18024369 -0.0060389 9.1922682 0.08077344 12.4375 2.25 C11.48230469 2.54132813 10.52710938 2.83265625 9.54296875 3.1328125 C-2.1978171 6.81162256 -11.90636039 11.46982201 -21.37109375 19.515625 C-23.5625 21.25 -23.5625 21.25 -25.72265625 22.234375 C-28.0900664 23.54122562 -28.47128192 24.81505057 -29.5625 27.25 C-30.58232115 28.51788575 -31.62654386 29.76633007 -32.6875 31 C-46.71269463 48.8901752 -50.66880322 69.85745941 -48.125 92.0703125 C-46.28926336 102.14391733 -42.26223577 112.70039635 -36.5625 121.25 C-34.69933613 121.71016865 -34.69933613 121.71016865 -32.52560425 121.64872742 C-31.25935715 121.66753464 -31.25935715 121.66753464 -29.9675293 121.6867218 C-29.039646 121.68528671 -28.1117627 121.68385162 -27.15576172 121.68237305 C-26.18011261 121.6925647 -25.2044635 121.70275635 -24.19924927 121.71325684 C-20.96350471 121.7435326 -17.72805544 121.75267506 -14.4921875 121.76171875 C-12.25301112 121.77855461 -10.01384425 121.79670336 -7.77468872 121.81611633 C-1.87281263 121.863741 4.02902491 121.89346967 9.93103027 121.91955566 C15.95019143 121.9492984 21.96921955 121.99585021 27.98828125 122.04101562 C39.80461809 122.12719054 51.6209822 122.19447259 63.4375 122.25 C63.4375 122.58 63.4375 122.91 63.4375 123.25 C-22.0325 123.25 -107.5025 123.25 -195.5625 123.25 C-195.5625 122.92 -195.5625 122.59 -195.5625 122.25 C-183.3525 121.92 -171.1425 121.59 -158.5625 121.25 C-159.5525 119.6 -160.5425 117.95 -161.5625 116.25 C-161.5625 115.26 -161.5625 114.27 -161.5625 113.25 C-160.7435022 112.80684448 -160.7435022 112.80684448 -159.90795898 112.35473633 C-148.1918056 106.00782709 -136.53185512 99.57294101 -124.94287109 92.99658203 C-116.18030845 88.02494737 -107.37864685 83.12584651 -98.5625 78.25 C-93.95608736 82.5534572 -91.32552672 87.5217696 -88.3125 93 C-87.75820312 93.96421875 -87.20390625 94.9284375 -86.6328125 95.921875 C-83.47364381 101.64884089 -81.57725852 105.68655306 -82.5625 112.25 C-83.734375 114.4921875 -83.734375 114.4921875 -85.3125 116.125 C-85.82296875 116.67929687 -86.3334375 117.23359375 -86.859375 117.8046875 C-88.5625 119.25 -88.5625 119.25 -92.5625 121.25 C-84.3125 121.58 -76.0625 121.91 -67.5625 122.25 C-68.820625 119.795625 -70.07875 117.34125 -71.375 114.8125 C-80.33736413 97.04377927 -83.81652896 74.73946965 -77.5 55.375 C-73.24939498 44.10373277 -67.55812036 34.25477633 -59.5625 25.25 C-58.67498047 24.22132813 -58.67498047 24.22132813 -57.76953125 23.171875 C-42.69334061 6.84201392 -21.65515023 0.22112577 0 0 Z " fill="#DC5CA2" transform="translate(261.5625,141.75)"/>
<path d="M0 0 C0.90436295 -0.00930542 1.80872589 -0.01861084 2.74049377 -0.02819824 C4.17980507 -0.00360535 4.17980507 -0.00360535 5.64819336 0.02148438 C6.64886337 0.02144409 7.64953339 0.02140381 8.68052673 0.0213623 C10.7893606 0.02670859 12.89819456 0.044253 15.00683594 0.07324219 C18.23100759 0.11514302 21.45309181 0.11430374 24.67749023 0.10742188 C26.73023909 0.11791352 28.78297722 0.13085149 30.83569336 0.14648438 C31.79725845 0.14668579 32.75882355 0.14688721 33.74952698 0.14709473 C39.99862753 0.25742945 43.63336576 1.07306303 48.17553711 5.61523438 C48.36326976 8.0847251 48.42750014 10.4410342 48.40258789 12.91064453 C48.40287994 13.66196152 48.403172 14.4132785 48.4034729 15.18736267 C48.40207698 17.67645729 48.38650369 20.1652544 48.37084961 22.65429688 C48.36712041 24.37779578 48.364273 26.1012968 48.36227417 27.82479858 C48.35463041 32.36553785 48.33497559 36.90614958 48.31286621 41.44683838 C48.28883086 46.89251062 48.27963033 52.33822546 48.26795959 57.78393555 C48.24855157 66.06112391 48.21023428 74.33803233 48.17553711 82.61523438 C28.70553711 82.61523438 9.23553711 82.61523438 -10.82446289 82.61523438 C-11.06511575 63.59920222 -11.06511575 63.59920222 -11.11743164 55.48828125 C-11.15328888 49.95529629 -11.19568859 44.4229075 -11.27709961 38.89038086 C-11.34233146 34.42939923 -11.37817693 29.9690569 -11.39372635 25.50763512 C-11.40480598 23.80631126 -11.42644284 22.10502211 -11.45884323 20.40397072 C-11.50246122 18.01895416 -11.50839533 15.63657245 -11.50561523 13.2512207 C-11.52718689 12.54919022 -11.54875854 11.84715973 -11.57098389 11.12385559 C-11.53665842 8.39894155 -11.31262285 6.24393821 -9.61253071 4.05438042 C-6.57385122 1.31610472 -4.06529582 -0.0105884 0 0 Z " fill="#B3094E" transform="translate(379.824462890625,126.384765625)"/>
<path d="M0 0 C5.63775254 1.87925085 8.56586382 8.31649365 11.2734375 13.3828125 C17.82343265 27.51701256 17.606524 41.24579342 12.484375 55.6953125 C8.67948506 64.16619904 8.67948506 64.16619904 3.6875 66.64453125 C2.470625 67.02996094 1.25375 67.41539063 0 67.8125 C-1.216875 68.21082031 -2.43375 68.60914062 -3.6875 69.01953125 C-16.92624551 72.93807503 -30.5944162 72.28569677 -43 66 C-46.9439645 63.64852176 -50.78457576 61.30073141 -54 58 C-54 53.63636678 -53.48881796 53.02642306 -50.5730896 50.07540894 C-50.06814972 49.58485016 -49.56320984 49.09429138 -49.04296875 48.58886719 C-48.25292953 47.79795181 -48.25292953 47.79795181 -47.44692993 46.99105835 C-45.70310001 45.25001587 -43.94552886 43.52356918 -42.1875 41.796875 C-40.97593749 40.5927725 -39.76525493 39.38778401 -38.55541992 38.1819458 C-35.36824392 35.01004487 -32.1692388 31.85033831 -28.96765137 28.69299316 C-25.70299851 25.46925227 -22.44963491 22.23416313 -19.1953125 19 C-12.80789486 12.65548631 -6.40792752 6.32379343 0 0 Z " fill="#E8A42D" transform="translate(244,32)"/>
<path d="M0 0 C7.58002367 4.10161893 13.91382334 10.09356196 17.078125 18.19921875 C19.43754817 26.48719252 18.9172917 35.4526296 15.2578125 43.2578125 C10.8848512 50.83580134 4.61928028 56.28391863 -3.875 58.75 C-14.30451774 60.84812564 -22.78546782 58.92425334 -31.75 53.25 C-37.5261458 48.82571811 -41.11316536 42.36450938 -43 35.4375 C-44.10276005 24.49965903 -42.66890416 16.70551015 -35.75 8.1875 C-26.74750319 -1.53286833 -12.53151524 -5.14451678 0 0 Z " fill="#5867CC" transform="translate(112,151.5625)"/>
<path d="M0 0 C6.81577573 0.89640588 11.48340407 2.68773432 16 8 C19.07735833 12.57051444 20.56036871 16.39631286 20 22 C20.58555664 22.25885986 21.17111328 22.51771973 21.77441406 22.78442383 C24.1688396 24.09221724 25.71093329 25.49736101 27.609375 27.44921875 C28.28226562 28.13306641 28.95515625 28.81691406 29.6484375 29.52148438 C30.34195313 30.23626953 31.03546875 30.95105469 31.75 31.6875 C37.54075661 37.62687869 43.47489157 43.24609544 49.86083984 48.54370117 C53.03130968 51.22077953 54.42721699 53.36857186 55.125 57.5 C55.31976048 62.16646103 54.10937211 64.43559782 51 68 C42.02294748 77.74808771 42.02294748 77.74808771 36 78.25 C32.32738641 77.94394887 30.10041105 77.11918939 27.49780273 74.47216797 C27.00223877 73.86002441 26.5066748 73.24788086 25.99609375 72.6171875 C22.92440184 68.98693159 19.66947021 65.59465139 16.28515625 62.2578125 C15.78067963 61.75900574 15.276203 61.26019897 14.75643921 60.74627686 C12.6557828 58.6726725 10.55096443 56.60338161 8.44213867 54.53808594 C6.88550349 53.01146331 5.33499536 51.47882953 3.78515625 49.9453125 C2.40662476 48.59203857 2.40662476 48.59203857 1.00024414 47.21142578 C-1 45 -1 45 -1 43 C-4.96 42.505 -4.96 42.505 -9 42 C-10.52941716 38.02748789 -9.45214059 35.01255426 -8.375 31 C-8.00072851 29.58088031 -7.62706091 28.16160126 -7.25390625 26.7421875 C-7.05168457 25.98389648 -6.84946289 25.22560547 -6.64111328 24.44433594 C-5.95415525 21.82521033 -5.29963895 19.19951299 -4.65234375 16.5703125 C-4.42949707 15.66539062 -4.20665039 14.76046875 -3.97705078 13.828125 C-3.53853987 12.04443919 -3.1007 10.26058826 -2.66357422 8.4765625 C-2.46135254 7.661875 -2.25913086 6.8471875 -2.05078125 6.0078125 C-1.87200439 5.28223145 -1.69322754 4.55665039 -1.5090332 3.80908203 C-1 2 -1 2 0 0 Z " fill="#5766CB" transform="translate(450,285)"/>
<path d="M0 0 C13.2 0 26.4 0 40 0 C40 35.97 40 71.94 40 109 C31.09 109 22.18 109 13 109 C14.39760496 105.50598759 15.84293955 102.14775497 17.4375 98.75 C25.15679418 81.83131098 27.79828219 60.09229495 21.9375 42.125 C17.60315197 30.63167264 11.60050665 18.03530632 1.76171875 10.22265625 C0 8 0 8 0 0 Z " fill="#2B41AD" transform="translate(313,155)"/>
<path d="M0 0 C19.47 0 38.94 0 59 0 C59 11.88 59 23.76 59 36 C39.53 36 20.06 36 0 36 C0 24.12 0 12.24 0 0 Z " fill="#B3094E" transform="translate(369,229)"/>
<path d="M0 0 C4.60641264 4.3034572 7.23697328 9.2717696 10.25 14.75 C10.80429688 15.71421875 11.35859375 16.6784375 11.9296875 17.671875 C15.09061319 23.40202601 16.97229485 27.43338181 16 34 C14.8984375 36.20703125 14.8984375 36.20703125 13.375 37.8125 C12.88773437 38.35519531 12.40046875 38.89789063 11.8984375 39.45703125 C7.41831372 43.09828412 3.31402794 44.37604314 -2.40087891 44.43579102 C-3.64882233 44.45493057 -4.89676575 44.47407013 -6.18252563 44.49378967 C-7.53053434 44.49837458 -8.87854777 44.50171706 -10.2265625 44.50390625 C-11.62088321 44.51355607 -13.01520092 44.5236492 -14.40951538 44.53416443 C-17.32288664 44.5520712 -20.2359917 44.5576906 -23.14941406 44.5559082 C-26.8802469 44.55560239 -30.60937882 44.59667766 -34.33980751 44.64822483 C-37.2155033 44.68158461 -40.09078624 44.68766617 -42.96665573 44.68607903 C-44.34220662 44.68961495 -45.71776867 44.7028619 -47.0931282 44.72607613 C-57.78086154 44.88969848 -57.78086154 44.88969848 -60.74969482 42.72311401 C-62.58225847 40.14639823 -63 38.13317545 -63 35 C-62.45400146 34.70456299 -61.90800293 34.40912598 -61.34545898 34.10473633 C-49.6293056 27.75782709 -37.96935512 21.32294101 -26.38037109 14.74658203 C-17.61780845 9.77494737 -8.81614685 4.87584651 0 0 Z " fill="#5866CC" transform="translate(163,220)"/>
<path d="M0 0 C2.23077928 3.34616892 2.24524037 4.39593959 2.22705078 8.29760742 C2.22689972 9.37850143 2.22674866 10.45939545 2.22659302 11.57304382 C2.21627045 12.73874405 2.20594788 13.90444427 2.1953125 15.10546875 C2.1924826 16.29981033 2.18965271 17.49415192 2.18673706 18.72468567 C2.17552677 22.54572497 2.15042037 26.36653134 2.125 30.1875 C2.11497131 32.77538724 2.10584527 35.36327816 2.09765625 37.95117188 C2.07728483 44.30094356 2.03813687 50.65021051 2 57 C-11.53 57 -25.06 57 -39 57 C-39.0825 51.39 -39.165 45.78 -39.25 40 C-39.28641602 38.24558594 -39.32283203 36.49117187 -39.36035156 34.68359375 C-39.3720513 33.26824155 -39.38224007 31.85287572 -39.390625 30.4375 C-39.41108887 29.72271484 -39.43155273 29.00792969 -39.45263672 28.27148438 C-39.45639618 22.75259869 -38.06839178 18.60479551 -35 14 C-33.19335938 12.29418945 -33.19335938 12.29418945 -31.34375 11.30078125 C-30.29960937 10.72384521 -30.29960937 10.72384521 -29.234375 10.13525391 C-28.49703125 9.76062012 -27.7596875 9.38598633 -27 9 C-26.24203125 8.59571777 -25.4840625 8.19143555 -24.703125 7.77490234 C-22.32268847 6.5319716 -19.91864512 5.35411775 -17.5 4.1875 C-16.69691406 3.78080078 -15.89382813 3.37410156 -15.06640625 2.95507812 C-9.78855691 0.41024801 -5.87066123 -0.74682084 0 0 Z " fill="#842968" transform="translate(352,8)"/>
<path d="M0 0 C0.97324219 0.01611328 1.94648438 0.03222656 2.94921875 0.04882812 C4.44775391 0.11166992 4.44775391 0.11166992 5.9765625 0.17578125 C7.50990234 0.20961914 7.50990234 0.20961914 9.07421875 0.24414062 C11.58485831 0.30280043 14.09243629 0.38482197 16.6015625 0.48828125 C15.6115625 1.14828125 14.6215625 1.80828125 13.6015625 2.48828125 C10.7179217 5.15010353 9.65031378 6.5368484 9.44334412 10.57608032 C9.42262901 11.91735137 9.40736273 13.25871276 9.39624023 14.60009766 C9.38139084 15.69781242 9.38139084 15.69781242 9.36624146 16.81770325 C9.33460051 19.24171693 9.30985884 21.66575023 9.28515625 24.08984375 C9.26458896 25.76850907 9.24359255 27.44716918 9.22218323 29.12582397 C9.16693932 33.54809356 9.11754029 37.97041006 9.06933594 42.39276123 C9.01913783 46.90381047 8.96344295 51.41479143 8.90820312 55.92578125 C8.80059317 64.7798918 8.69966235 73.63406022 8.6015625 82.48828125 C2.0015625 82.48828125 -4.5984375 82.48828125 -11.3984375 82.48828125 C-11.53403448 72.53511513 -11.64409276 62.58256316 -11.70931053 52.62868214 C-11.74061322 48.00658139 -11.78306573 43.3851457 -11.85107422 38.76342773 C-11.91630606 34.30244611 -11.95215154 29.84210377 -11.96770096 25.38068199 C-11.97878059 23.67935814 -12.00041744 21.97806898 -12.03281784 20.27701759 C-12.07643583 17.89200104 -12.08236994 15.50961933 -12.07958984 13.12426758 C-12.1011615 12.42223709 -12.12273315 11.7202066 -12.1449585 10.99690247 C-12.11010915 8.23040017 -11.90314571 6.10123228 -10.1118412 3.92575359 C-6.77162952 1.02314589 -4.4054033 -0.12957069 0 0 Z " fill="#84004F" transform="translate(380.3984375,126.51171875)"/>
<path d="M0 0 C0.97453125 0.00451172 1.9490625 0.00902344 2.953125 0.01367188 C5.34381434 0.02539094 7.7343744 0.04179781 10.125 0.0625 C6.59323947 1.92197478 3.27440993 2.79214193 -0.625 3.6875 C-13.40166963 6.90656934 -27.09137274 12.55960801 -34.19921875 24.23828125 C-38.02918273 31.58912439 -39.08214884 38.39639398 -36.9375 46.5 C-33.33519117 56.12860116 -24.88061007 62.74704266 -15.875 67.0625 C-7.43623983 70.82500453 1.07994671 73.24164639 10.125 75.0625 C10.125 75.3925 10.125 75.7225 10.125 76.0625 C-13.42863839 76.89136704 -34.26464937 73.73657141 -52.25 57.25 C-57.64144437 51.5747954 -60.00932289 45.34654034 -60.4375 37.5625 C-60.01450454 28.17728829 -55.14412741 21.40789449 -48.43359375 15.16015625 C-34.66631978 3.87309347 -17.48306703 -0.15398365 0 0 Z " fill="#EDF3FD" transform="translate(251.875,315.9375)"/>
<path d="M0 0 C13.53 0 27.06 0 41 0 C41 46.53 41 93.06 41 141 C40.67 141 40.34 141 40 141 C40 105.03 40 69.06 40 32 C26.8 32 13.6 32 0 32 C0 21.44 0 10.88 0 0 Z " fill="#747ED0" transform="translate(313,123)"/>
<path d="M0 0 C-0.268125 0.78375 -0.53625 1.5675 -0.8125 2.375 C-1.204375 3.57125 -1.59625 4.7675 -2 6 C-2.24903076 6.71905518 -2.49806152 7.43811035 -2.75463867 8.17895508 C-4.76715501 14.31373313 -5.54732851 19.86803458 -5.5 26.3125 C-5.49427979 27.22749268 -5.48855957 28.14248535 -5.48266602 29.08520508 C-5.18426198 40.4697713 -1.38277287 48.99363686 5.64453125 57.87890625 C7 60 7 60 7 64 C5.71484375 65.73925781 5.71484375 65.73925781 3.9375 67.453125 C3.30585938 68.071875 2.67421875 68.690625 2.0234375 69.328125 C1.35570312 69.96234375 0.68796875 70.5965625 0 71.25 C-0.66773438 71.8996875 -1.33546875 72.549375 -2.0234375 73.21875 C-3.67368018 74.82184289 -5.33251791 76.41487834 -7 78 C-14.76502425 74.46679351 -18.30464836 64.9894005 -21.2734375 57.38671875 C-25.34952477 43.9969912 -23.47642958 30.16338431 -17.421875 17.76953125 C-7.62104037 0 -7.62104037 0 0 0 Z " fill="#D66819" transform="translate(180,26)"/>
<path d="M0 0 C6.6 0 13.2 0 20 0 C20 19.14 20 38.28 20 58 C13.4 58 6.8 58 0 58 C0 38.86 0 19.72 0 0 Z " fill="#8C95DA" transform="translate(334,65)"/>
<path d="M0 0 C13.53 0 27.06 0 41 0 C42.32 5.1975 43.64 10.395 45 15.75 C45.41765625 17.38420898 45.8353125 19.01841797 46.265625 20.70214844 C46.59412532 22.00446268 46.92227402 23.30686568 47.25 24.609375 C47.42273438 25.27984863 47.59546875 25.95032227 47.7734375 26.64111328 C48.59174428 29.91190494 49 32.5957721 49 36 C43.94331695 35.42152344 40.04258105 33.0845041 35.6875 30.625 C34.89859375 30.18236816 34.1096875 29.73973633 33.296875 29.28369141 C25.8262799 25.02096984 18.71417249 20.31940577 11.75390625 15.27099609 C10.10749487 14.07789787 8.44487364 12.90725952 6.78125 11.73828125 C5.8634375 11.06152344 4.945625 10.38476562 4 9.6875 C3.21625 9.11386719 2.4325 8.54023438 1.625 7.94921875 C0 6 0 6 0 0 Z " fill="#860250" transform="translate(98,452)"/>
<path d="M0 0 C0.33 0 0.66 0 1 0 C1 42.9 1 85.8 1 130 C4.3 130 7.6 130 11 130 C11 130.33 11 130.66 11 131 C7.37 131 3.74 131 0 131 C0 119.12 0 107.24 0 95 C-12.87 95 -25.74 95 -39 95 C-39 88.4 -39 81.8 -39 75 C-26.13 75 -13.26 75 0 75 C0 50.25 0 25.5 0 0 Z " fill="#DE8D82" transform="translate(428,134)"/>
<path d="M0 0 C13.53 0 27.06 0 41 0 C44 9 44 9 46 20 C32.47 20 18.94 20 5 20 C0 3 0 3 0 0 Z " fill="#EDF5FE" transform="translate(92,431)"/>
<path d="M0 0 C1.64198364 -0.00574036 1.64198364 -0.00574036 3.31713867 -0.01159668 C5.63038045 -0.01431736 7.94365292 -0.00694534 10.25683594 0.00976562 C13.79952522 0.0311716 17.34018636 0.00996774 20.8828125 -0.015625 C23.13021281 -0.01298175 25.37761187 -0.00785684 27.625 0 C28.68549561 -0.00809692 29.74599121 -0.01619385 30.83862305 -0.02453613 C38.146329 0.06873978 38.146329 0.06873978 41.4765625 2.38085938 C43.34750555 5.39242122 43.45230508 7.04786676 42.8125 10.53125 C40.75867703 13.46659419 39.13393651 15.26727746 35.5319519 15.98681641 C32.66430451 16.16092179 29.8374559 16.17155778 26.96484375 16.125 C25.91599503 16.12504028 24.8671463 16.12508057 23.78651428 16.12512207 C21.57335403 16.11976934 19.3601941 16.10219733 17.1472168 16.07324219 C13.75836183 16.03135336 10.37149232 16.03217764 6.98242188 16.0390625 C4.83071535 16.02857101 2.67901906 16.01563313 0.52734375 16 C-0.48626724 15.99979858 -1.49987823 15.99959717 -2.54420471 15.99938965 C-3.48876022 15.98347778 -4.43331573 15.96756592 -5.40649414 15.95117188 C-6.23524551 15.94275269 -7.06399689 15.9343335 -7.91786194 15.92565918 C-10.71270751 15.43998141 -12.10677583 14.42698822 -14.1875 12.53125 C-14.9375 10.62890625 -14.9375 10.62890625 -15.1875 8.59375 C-15.290625 7.92472656 -15.39375 7.25570312 -15.5 6.56640625 C-15.1875 4.53125 -15.1875 4.53125 -13.8671875 2.43725586 C-9.57214857 -0.6177158 -5.14223091 -0.03926113 0 0 Z " fill="#DB397F" transform="translate(246.1875,200.46875)"/>
<path d="M0 0 C3.05191001 1.9536036 5.46342655 4.45032516 7.97827148 7.03027344 C8.79501846 7.85482277 8.79501846 7.85482277 9.62826538 8.69602966 C11.36174677 10.44727895 13.08837449 12.20508407 14.81420898 13.96386719 C16.54805051 15.7253253 18.28333081 17.48530342 20.02157593 19.24241638 C21.10168266 20.33478224 22.17910501 21.42981015 23.25357056 22.52772522 C26.6849711 26.25013634 26.6849711 26.25013634 31.35327148 27.49902344 C32.16538086 27.48742187 32.97749023 27.47582031 33.81420898 27.46386719 C34.63147461 27.45484375 35.44874023 27.44582031 36.29077148 27.43652344 C36.91725586 27.42492187 37.54374023 27.41332031 38.18920898 27.40136719 C30.58588357 36.7030299 30.58588357 36.7030299 25.18920898 39.40136719 C21.17165217 39.66338176 18.63405512 39.47611844 15.18920898 37.40136719 C13.66943359 35.86035156 13.66943359 35.86035156 12.15405273 33.99511719 C7.34310104 28.31189949 2.03449527 23.13888465 -3.24829102 17.90136719 C-4.27652082 16.8781658 -5.30451727 15.85472986 -6.33227539 14.83105469 C-8.8224344 12.35178719 -11.31571935 9.87569181 -13.81079102 7.40136719 C-12.81079102 4.40136719 -12.81079102 4.40136719 -10.44750977 2.94433594 C-9.47426758 2.49703125 -8.50102539 2.04972656 -7.49829102 1.58886719 C-6.5327832 1.12867188 -5.56727539 0.66847656 -4.57250977 0.19433594 C-1.81079102 -0.59863281 -1.81079102 -0.59863281 0 0 Z " fill="#3D4EC4" transform="translate(463.810791015625,323.5986328125)"/>
<path d="M0 0 C6.81577573 0.89640588 11.48340407 2.68773432 16 8 C19.07735833 12.57051444 20.56036871 16.39631286 20 22 C20.66 22.33 21.32 22.66 22 23 C21.06915029 24.77433812 20.13005387 26.54435149 19.1875 28.3125 C18.66542969 29.29863281 18.14335937 30.28476562 17.60546875 31.30078125 C16.20021568 33.66338435 15.1852105 35.36109213 13 37 C7.3963172 38.2268418 2.65740704 36.81601489 -2.2734375 34.16796875 C-2.84320313 33.78253906 -3.41296875 33.39710938 -4 33 C-4.59039062 32.62488281 -5.18078125 32.24976563 -5.7890625 31.86328125 C-7.83263034 28.71882364 -6.72334001 25.47524043 -6 22 C-5.23657631 18.52233242 -4.38611783 15.07326425 -3.5 11.625 C-3.27441406 10.72394531 -3.04882812 9.82289063 -2.81640625 8.89453125 C-1.1409337 2.2818674 -1.1409337 2.2818674 0 0 Z " fill="#717ED3" transform="translate(450,285)"/>
<path d="M0 0 C0 13.2 0 26.4 0 40 C-13.53 40 -27.06 40 -41 40 C-41 39.67 -41 39.34 -41 39 C-34.07 39 -27.14 39 -20 39 C-20.05800781 37.3603125 -20.11601562 35.720625 -20.17578125 34.03125 C-20.22270053 31.85419527 -20.26819835 29.67710957 -20.3125 27.5 C-20.35439453 26.42234375 -20.39628906 25.3446875 -20.43945312 24.234375 C-20.54586017 17.25407298 -19.94915415 12.18974355 -15 7 C-11.73828125 4.6875 -11.73828125 4.6875 -8.3125 3 C-7.17425781 2.4225 -6.03601563 1.845 -4.86328125 1.25 C-2 0 -2 0 0 0 Z " fill="#A93987" transform="translate(354,25)"/>
<path d="M0 0 C6.6 0 13.2 0 20 0 C20 11.55 20 23.1 20 35 C13.4 35 6.8 35 0 35 C0 23.45 0 11.9 0 0 Z " fill="#84004F" transform="translate(369,229)"/>
<path d="M0 0 C6.93 0 13.86 0 21 0 C21 10.56 21 21.12 21 32 C14.07 32 7.14 32 0 32 C0 21.44 0 10.88 0 0 Z " fill="#5766CC" transform="translate(313,123)"/>
<path d="M0 0 C2.08384462 0.00097228 4.16400139 -0.04066131 6.24731445 -0.08496094 C7.56666992 -0.08753906 8.88602539 -0.09011719 10.24536133 -0.09277344 C12.05315063 -0.1034082 12.05315063 -0.1034082 13.89746094 -0.11425781 C18.0829974 0.676117 19.58763731 2.1616106 22.15551758 5.50097656 C22.15551758 8.94250238 21.9647018 11.28109017 20.04003906 14.18261719 C15.83630307 17.12343522 9.48599986 16.01727269 4.47705078 16.00195312 C2.22859508 16.00098114 -0.0164419 16.04259012 -2.2644043 16.08691406 C-3.69603782 16.09212171 -5.12768318 16.09480925 -6.55932617 16.09472656 C-7.85990967 16.10181641 -9.16049316 16.10890625 -10.50048828 16.11621094 C-13.84448242 15.50097656 -13.84448242 15.50097656 -16.29980469 13.19042969 C-17.84448242 10.50097656 -17.84448242 10.50097656 -17.84448242 6.87597656 C-15.32989686 -1.61074972 -7.47384505 -0.02464582 0 0 Z " fill="#DB397F" transform="translate(257.844482421875,224.4990234375)"/>
<path d="M0 0 C0.33 0 0.66 0 1 0 C1 24.42 1 48.84 1 74 C7.6 74 14.2 74 21 74 C21 80.6 21 87.2 21 94 C14.07 94 7.14 94 0 94 C0 62.98 0 31.96 0 0 Z " fill="#D2642A" transform="translate(368,135)"/>
<path d="M0 0 C6.93 0 13.86 0 21 0 C21 12.21 21 24.42 21 37 C18.67628447 33.90171263 17.04102318 31.2726129 15.3125 27.875 C11.82698177 21.38202715 7.57708542 14.84795825 1.7578125 10.21484375 C0 8 0 8 0 0 Z " fill="#252F7A" transform="translate(313,155)"/>
<path d="M0 0 C0.391875 1.03125 0.78375 2.0625 1.1875 3.125 C2.85653977 7.06489676 5.1439377 9.83517421 8 13 C5.94280827 17.89374016 2.61707789 19.3438448 -1.875 21.8125 C-2.59558594 22.23208984 -3.31617187 22.65167969 -4.05859375 23.08398438 C-4.75855469 23.47521484 -5.45851563 23.86644531 -6.1796875 24.26953125 C-6.81632324 24.62635986 -7.45295898 24.98318848 -8.10888672 25.35083008 C-10.48650226 26.16700355 -11.67724591 25.89677293 -14 25 C-15.73828125 23.1796875 -15.73828125 23.1796875 -17.3125 20.875 C-17.84488281 20.12992188 -18.37726562 19.38484375 -18.92578125 18.6171875 C-20.46349432 14.87075928 -20.2356581 12.84856013 -19 9 C-16.81896792 6.86832597 -14.36125113 5.50067296 -11.6875 4.0625 C-11.01009766 3.66482422 -10.33269531 3.26714844 -9.63476562 2.85742188 C-5.97865542 0.78098001 -4.37445544 0 0 0 Z " fill="#DEEBFD" transform="translate(28,126)"/>
<path d="M0 0 C1.28027344 1.56640625 1.28027344 1.56640625 2.359375 3.5625 C2.75253906 4.27664062 3.14570312 4.99078125 3.55078125 5.7265625 C3.94652344 6.47679687 4.34226562 7.22703125 4.75 8 C5.16121094 8.75023437 5.57242188 9.50046875 5.99609375 10.2734375 C9 15.80222176 9 15.80222176 9 17 C4.75051671 17.17415915 0.50194845 17.28081127 -3.75 17.375 C-4.9565625 17.42527344 -6.163125 17.47554688 -7.40625 17.52734375 C-16.08010726 17.67190804 -16.08010726 17.67190804 -18.72070312 15.74316406 C-20.54067285 13.14802205 -21 11.14508263 -21 8 C-18.26070622 6.45925893 -15.50712161 4.94607142 -12.75 3.4375 C-11.97269531 2.99986328 -11.19539063 2.56222656 -10.39453125 2.11132812 C-9.64042969 1.70205078 -8.88632813 1.29277344 -8.109375 0.87109375 C-7.07248535 0.29766235 -7.07248535 0.29766235 -6.01464844 -0.28735352 C-3.51449036 -1.1717405 -2.41560301 -1.07273486 0 0 Z " fill="#2C42AD" transform="translate(121,247)"/>
<path d="M0 0 C0.33 0 0.66 0 1 0 C1 4.95 1 9.9 1 15 C-1.64 15 -4.28 15 -7 15 C-5.63408831 11.45756548 -4.09068516 8.07372071 -2.375 4.6875 C-1.70597656 3.36298828 -1.70597656 3.36298828 -1.0234375 2.01171875 C-0.68570312 1.34785156 -0.34796875 0.68398437 0 0 Z " fill="#272F7B" transform="translate(333,249)"/>
</svg>
