<?xml version="1.0" encoding="UTF-8"?>
<svg version="1.1" xmlns="http://www.w3.org/2000/svg" width="512" height="512">
<path d="M0 0 C1.85940713 0.16552079 3.71151654 0.41298582 5.55761719 0.68994141 C6.76777496 0.86875351 7.97793274 1.04756561 9.22476196 1.23179626 C10.58215187 1.43826083 11.9395222 1.64485416 13.296875 1.8515625 C14.72310702 2.06466983 16.14940896 2.27730973 17.57577515 2.48951721 C21.48305618 3.07239221 25.38921456 3.66250431 29.29520416 4.25396347 C32.56566006 4.74828507 35.83673292 5.23845069 39.10782051 5.72857189 C79.08684326 11.71961883 119.04397165 17.85778218 159 24 C158.69271277 26.70865209 158.38237896 29.41689785 158.0703125 32.125 C157.98434814 32.88554688 157.89838379 33.64609375 157.80981445 34.4296875 C157.3197191 38.66046414 156.71017192 42.82027385 155.875 47 C154.81604235 53.46778749 154.93363708 59.84306121 155 66.375 C155.30116346 99.96459977 144.6816498 130.74951985 121 155 C119.6267315 156.27726594 118.24346961 157.54385275 116.8515625 158.80078125 C106.65516712 168.108165 102.20045246 175.36768869 100 189 C99.76410156 190.18207031 99.52820313 191.36414063 99.28515625 192.58203125 C98.80025473 195.05090895 98.36724834 197.51148141 98 200 C98.4846875 199.50371094 98.969375 199.00742188 99.46875 198.49609375 C100.1390625 197.81675781 100.809375 197.13742188 101.5 196.4375 C102.1496875 195.77621094 102.799375 195.11492187 103.46875 194.43359375 C106.19945327 191.80824168 109.03537568 189.33721856 111.89453125 186.85375977 C115.25298552 183.89680901 118.49875971 180.82377525 121.75 177.75 C127.48278766 172.35267327 133.24779121 166.99658194 139.0625 161.6875 C141.71828644 159.25773794 144.36311544 156.81685923 147.00390625 154.37084961 C149.66423882 151.90842171 152.33168595 149.45377187 155 147 C155.9075 146.16339844 156.815 145.32679688 157.75 144.46484375 C158.554375 143.73394531 159.35875 143.00304687 160.1875 142.25 C160.88230469 141.61578125 161.57710938 140.9815625 162.29296875 140.328125 C164 139 164 139 166 139 C167.35009766 140.79052734 167.35009766 140.79052734 168.9140625 143.3359375 C169.50251953 144.28573486 170.09097656 145.23553223 170.69726562 146.21411133 C171.33341797 147.25720459 171.96957031 148.30029785 172.625 149.375 C173.6140332 150.97734497 173.6140332 150.97734497 174.62304688 152.61206055 C176.39233643 155.48131959 178.15529847 158.35427118 179.91516113 161.22930908 C182.06190792 164.73326267 184.2180546 168.23143695 186.37271118 171.73052979 C188.0695399 174.48661054 189.76437052 177.24387612 191.45556641 180.00341797 C192.07866699 181.01936035 192.70176758 182.03530273 193.34375 183.08203125 C194.24287109 184.55470459 194.24287109 184.55470459 195.16015625 186.05712891 C196.42553504 188.08113049 197.7273925 190.08263471 199.05859375 192.06396484 C199.70957031 193.03672363 200.36054688 194.00948242 201.03125 195.01171875 C201.92166992 196.30855591 201.92166992 196.30855591 202.83007812 197.6315918 C204 200 204 200 203.83813477 202.13867188 C202.42239094 205.28275313 199.88860103 207.45927987 197.4375 209.8125 C196.62212769 210.61143677 196.62212769 210.61143677 195.7902832 211.42651367 C192.23172544 214.88816827 188.57306712 218.20685212 184.79296875 221.42578125 C182.33417866 223.58458823 180.07292218 225.91666105 177.78125 228.25 C175.28103815 230.70634849 172.62319484 232.96309368 169.96875 235.25 C168.06976929 236.93798286 166.27994012 238.68769734 164.5 240.5 C162.10946833 242.93389732 159.64953738 245.21355559 157.0625 247.4375 C154.25423653 249.85617779 151.60029407 252.35899683 149 255 C145.78663622 258.26367085 142.43503516 261.28058628 138.95703125 264.2578125 C136.31289491 266.61167439 133.87588523 269.14295865 131.4453125 271.71484375 C130 273 130 273 128 273 C129.05356792 274.27824811 130.11832783 275.54727493 131.1875 276.8125 C131.77917969 277.52019531 132.37085938 278.22789062 132.98046875 278.95703125 C135.98644819 281.99789634 138.55083817 283.85232726 142.875 284.29296875 C143.90625 284.25816406 144.9375 284.22335937 146 284.1875 C147.134375 284.16429687 148.26875 284.14109375 149.4375 284.1171875 C150.613125 284.07851563 151.78875 284.03984375 153 284 C155.3329084 283.92325959 157.6663179 283.86023441 160 283.8125 C161.03125 283.77769531 162.0625 283.74289062 163.125 283.70703125 C167.24762617 284.12713582 169.83917963 285.82331421 172.71484375 288.73828125 C174.46104236 291.8113785 174.94279428 294.7136068 175.5625 298.1875 C175.81481941 299.53390756 176.06742258 300.88026198 176.3203125 302.2265625 C176.71331906 304.40842653 177.10480501 306.59056792 177.4921875 308.7734375 C177.63914062 309.52882813 177.78609375 310.28421875 177.9375 311.0625 C178.04964844 311.69285156 178.16179687 312.32320313 178.27734375 312.97265625 C180.68407874 319.72452359 185.00835712 322.64898033 190.9375 326 C202.61851618 332.63815768 202.61851618 332.63815768 204.76953125 339.4296875 C204.89782845 346.73096475 202.47884494 351.94908763 198.93481445 358.16552734 C195.72104506 363.90022566 194.1298045 368.73295023 195.890625 375.34375 C196.56351562 376.90609375 196.56351562 376.90609375 197.25 378.5 C197.71277344 379.61761719 198.17554688 380.73523438 198.65234375 381.88671875 C199.09707031 382.91410156 199.54179687 383.94148438 200 385 C202.67191128 391.20673554 204.59584378 396.76514184 202.09765625 403.39453125 C198.87023812 407.40326103 194.60324193 409.20552743 190.0625 411.5 C181.81532838 415.34891904 181.81532838 415.34891904 176 422 C174.94412868 425.43797932 174.2063376 428.91311895 173.5 432.4375 C170.65752738 446.56164841 170.65752738 446.56164841 164 451 C158.90762938 451.63537835 153.92583746 451.09119882 148.9375 450 C142.59766987 448.62868878 137.44238614 447.94724735 131.375 450.5625 C128.07478791 452.70687744 125.47015038 455.42828316 122.75390625 458.25390625 C118.50212878 462.48674485 114.22834972 466 108 466 C100.14750432 463.8187512 95.26314847 457.89520968 90.3125 451.6875 C87.29898661 448.18530877 84.82210758 446.18670729 80.14086914 445.70703125 C79.11598389 445.74183594 78.09109863 445.77664063 77.03515625 445.8125 C75.90529297 445.83570313 74.77542969 445.85890625 73.61132812 445.8828125 C71.2493447 445.96080865 68.88736551 446.03893322 66.52539062 446.1171875 C55.37703477 446.34587172 55.37703477 446.34587172 51 443 C47.26211532 438.65304036 46.89446509 433.04678385 46 427.5625 C45.01279566 421.53469721 44.11771869 416.30543606 41 411 C37.56955869 412.46580378 35.48624472 414.361307 32.9375 417.0625 C28.45668478 421.63032134 23.73522742 425.68791639 18.71240234 429.64697266 C17.47971264 430.62096272 16.25138584 431.60048373 15.02587891 432.58349609 C-10.01248466 452.66581244 -34.72547065 469.89738605 -68 468 C-77.91157275 466.5649502 -87.25654955 461.04461936 -93.52734375 453.26171875 C-98.08992908 446.25445905 -100.31788723 438.31282714 -99 430 C-98.09643581 427.00889094 -97.05787474 424.14147158 -95.875 421.25 C-94.87918458 419.09169027 -94.87918458 419.09169027 -95 417 C-95.82757813 417.4125 -96.65515625 417.825 -97.5078125 418.25 C-116.22217951 427.38608437 -135.68347957 433.55452179 -156 438 C-156.77778809 438.17934082 -157.55557617 438.35868164 -158.35693359 438.54345703 C-169.5652194 441.06450769 -180.80873937 441.30353659 -192.25 441.375 C-192.96766541 441.3830365 -193.68533081 441.391073 -194.42474365 441.39935303 C-211.65287624 441.54574262 -230.94861339 439.46873542 -244 427 C-250.90206792 419.17354799 -252.65932614 412.64724054 -252.375 402.2109375 C-251.21064968 383.90568709 -235.7735199 368.73203387 -223 357 C-222.34 356.67 -221.68 356.34 -221 356 C-221.43388505 352.58286455 -221.87225102 349.1663213 -222.3125 345.75 C-222.44567627 344.71544678 -222.57885254 343.68089355 -222.71606445 342.61499023 C-223.71658125 334.93967244 -224.82647159 327.28681232 -226.08520508 319.64941406 C-227.68457249 309.53617733 -227.27225239 300.78097923 -222.125 291.6875 C-214.62867639 282.20685543 -205.78293925 278.23208474 -194.625 274.1875 C-193.53316406 273.78080078 -192.44132812 273.37410156 -191.31640625 272.95507812 C-183.30044643 270 -183.30044643 270 -181 270 C-181.15319199 269.07344101 -181.30638397 268.14688202 -181.46421814 267.19224548 C-182.18453636 262.12257214 -182.35667246 257.03572214 -182.57250977 251.92407227 C-182.62142365 250.83065018 -182.67033752 249.73722809 -182.72073364 248.610672 C-182.88087931 245.01271905 -183.03616949 241.41457406 -183.19140625 237.81640625 C-183.30177861 235.31532998 -183.41245484 232.8142671 -183.52342224 230.31321716 C-183.78446049 224.41325905 -184.04244395 218.51317361 -184.29893202 212.61301607 C-184.61997927 205.23210662 -184.94579727 197.85140904 -185.27148438 190.47070312 C-185.85147355 177.31396803 -186.42724017 164.15705169 -187 151 C-188.25932465 151.93106366 -189.5167655 152.86467552 -190.7734375 153.79931641 C-191.47388184 154.31893951 -192.17432617 154.83856262 -192.89599609 155.37393188 C-196.10687225 157.85544027 -199.05145903 160.59141237 -202 163.375 C-202.58394531 163.92027344 -203.16789062 164.46554688 -203.76953125 165.02734375 C-205.18295019 166.34807948 -206.59196398 167.67352704 -208 169 C-215.92621236 165.68374563 -221.81258684 157.33176468 -227.2890625 150.9296875 C-229.74573119 148.15892418 -232.39359977 145.597071 -235.03125 143 C-237.55425459 140.43694772 -239.87562817 137.72654176 -242.21875 135 C-244.0742521 132.91662922 -246.01223101 130.95718793 -248 129 C-258.43895349 118.68313953 -258.43895349 118.68313953 -260 114 C-258.53768104 111.79418131 -257.05976025 109.83899375 -255.375 107.8125 C-254.88080566 107.20172607 -254.38661133 106.59095215 -253.87744141 105.96166992 C-252.81342734 104.64916459 -251.74472101 103.34045223 -250.671875 102.03515625 C-249.00021268 100.00025889 -247.34212367 97.95501752 -245.6875 95.90625 C-243.48593048 93.18212012 -241.27603148 90.46513344 -239.05859375 87.75390625 C-237.21966967 85.50406839 -235.40123432 83.24351068 -233.59765625 80.96484375 C-215.7071309 58.48036795 -191.05666067 39.43099003 -164.0390625 29.36328125 C-149.06743681 24.63663303 -149.06743681 24.63663303 -138.91821289 13.80883789 C-137.9726946 10.89559138 -137.34896699 8.04099804 -137 5 C-129.4726535 3.89443961 -121.93014624 3.58372898 -114.3359375 3.24609375 C-112.89791258 3.18039605 -111.4598939 3.11456178 -110.0218811 3.04859924 C-107.0078455 2.91115427 -103.99371114 2.77618327 -100.97949219 2.64282227 C-97.93471335 2.50786424 -94.89014229 2.36922018 -91.84570312 2.22680664 C-74.55686634 1.41829681 -57.3134881 0.75722178 -40 1 C-39.75926758 1.97259766 -39.51853516 2.94519531 -39.27050781 3.94726562 C-37.96960763 8.6018626 -36.63851268 11.73740948 -33 15 C-23.93494033 19.6913216 -13.81009213 22.32426428 -4 25 C-3.86722656 23.85402344 -3.73445313 22.70804688 -3.59765625 21.52734375 C-3.41931812 19.99739032 -3.24093004 18.46744271 -3.0625 16.9375 C-2.97548828 16.18533203 -2.88847656 15.43316406 -2.79882812 14.65820312 C-2.53931455 12.43792035 -2.27240625 10.21873642 -2 8 C-1.9160498 7.31180176 -1.83209961 6.62360352 -1.74560547 5.91455078 C-1.11940586 1.11940586 -1.11940586 1.11940586 0 0 Z M-6.1875 352 C-8.11261767 352.09660437 -10.03774781 352.19296063 -11.96289062 352.2890625 C-16.6420758 352.52317991 -21.32107921 352.76065925 -26 353 C-26.50354004 354.06436279 -27.00708008 355.12872559 -27.52587891 356.2253418 C-31.14182327 363.7421685 -34.56309375 370.72132033 -40.375 376.8125 C-41.40466279 377.94308507 -42.43334942 379.07456014 -43.4609375 380.20703125 C-44.71777344 381.58955078 -44.71777344 381.58955078 -46 383 C-46.66 383.99 -47.32 384.98 -48 386 C-46.78957031 385.65388672 -46.78957031 385.65388672 -45.5546875 385.30078125 C-23.15385406 379.28442153 -0.12033949 376.32515234 23 375 C23.83225184 373.26163562 24.65455655 371.51850676 25.47265625 369.7734375 C26.16113647 368.3181665 26.16113647 368.3181665 26.86352539 366.83349609 C28.78386783 362.04563479 28.81710569 358.16859229 26.97265625 353.2734375 C26.65167969 352.52320313 26.33070313 351.77296875 26 351 C15.25573871 350.77264164 4.53783416 351.45059741 -6.1875 352 Z M-80 414 C-85.68790766 420.09506808 -89.33771359 427.28120929 -90.5 435.5625 C-89.39321947 443.17161612 -86.373936 448.71804391 -80.30078125 453.4921875 C-69.85090694 460.34049223 -57.48078973 460.50602259 -45.48046875 458.375 C-20.76555873 451.548687 0.94859059 432.54684015 20.0625 416.1875 C20.6822168 415.66027344 21.30193359 415.13304687 21.94042969 414.58984375 C25.70861758 411.31926314 28.90424302 407.91504994 32 404 C31.22914063 403.46890625 30.45828125 402.9378125 29.6640625 402.390625 C28.66117187 401.68421875 27.65828125 400.9778125 26.625 400.25 C25.62726563 399.55390625 24.62953125 398.8578125 23.6015625 398.140625 C18.68041949 394.09139621 18.60447261 390.04472613 18 384 C-14.12184206 383.37339322 -55.87472215 390.91577542 -80 414 Z " fill="#7C213E" transform="translate(284,23)"/>
<path d="M0 0 C6.61413534 4.21020261 10.41249978 11.16830754 14.47509766 17.67236328 C15.99683793 20.10830894 17.53810739 22.53118399 19.08203125 24.953125 C21.16826542 28.23323196 23.2484215 31.51694733 25.31640625 34.80859375 C25.77708496 35.5245874 26.23776367 36.24058105 26.71240234 36.97827148 C27.8828125 38.92578125 27.8828125 38.92578125 29.07421875 41.90625 C31.77006688 44.91651671 34.49328211 44.70515566 38.41064453 44.97412109 C39.88186768 45.04300537 39.88186768 45.04300537 41.3828125 45.11328125 C43.39084455 45.25206742 45.3986648 45.39395559 47.40625 45.5390625 C48.36241211 45.60303223 49.31857422 45.66700195 50.30371094 45.73291016 C64.18516574 46.77099699 79.97328557 50.85382174 89.4453125 61.67578125 C90.82542876 63.41167819 91.88998674 64.94012974 92.8828125 66.92578125 C99.78386537 67.04756454 106.62313933 66.85999016 113.5078125 66.42578125 C122.63900109 65.85581645 131.73712559 65.82848671 140.8828125 65.92578125 C140.83930664 66.77958374 140.83930664 66.77958374 140.79492188 67.65063477 C140.63935136 72.97948059 141.25313815 76.88812533 143.3828125 81.86328125 C145.8828125 87.80078125 145.8828125 87.80078125 145.8828125 89.92578125 C110.40604048 92.31354931 110.40604048 92.31354931 93.8828125 91.92578125 C93.76550781 92.64894531 93.64820313 93.37210937 93.52734375 94.1171875 C91.24353993 104.06903567 84.00065275 111.6546164 77.39453125 119.0546875 C74.92176004 121.63761226 74.92176004 121.63761226 73.8828125 123.92578125 C74.96433594 123.61125 76.04585937 123.29671875 77.16015625 122.97265625 C86.65830765 120.29788948 96.13420073 118.22083874 105.8828125 116.67578125 C106.90753662 116.51303711 107.93226074 116.35029297 108.98803711 116.18261719 C118.16483088 114.78484215 127.28090026 113.77130687 136.5703125 113.86328125 C137.77042969 113.87230469 138.97054688 113.88132812 140.20703125 113.890625 C141.09003906 113.90222656 141.97304688 113.91382813 142.8828125 113.92578125 C142.10428432 117.38728505 141.09731493 120.12647441 138.8828125 122.92578125 C134.74370221 124.45567623 130.57631357 124.49881846 126.1953125 124.67578125 C123.64774681 124.86459947 121.10085458 125.06270652 118.5546875 125.26953125 C117.26884766 125.36878906 115.98300781 125.46804688 114.65820312 125.5703125 C89.30465606 127.95745454 58.57614943 135.40747557 39.8828125 153.92578125 C34.87785877 159.98496992 31.44096601 166.54028939 30.4453125 174.36328125 C31.20945191 180.58555931 33.3505595 185.86442984 37.9453125 190.23828125 C47.73825175 197.62413249 59.0937382 198.13132914 70.8828125 196.92578125 C102.90906185 191.23854496 132.54378287 161.36220899 155.5078125 139.98828125 C156.17087402 139.3737207 156.83393555 138.75916016 157.51708984 138.12597656 C161.27861447 134.59104981 164.66515034 130.96326921 167.8828125 126.92578125 C170.78824062 128.22821455 172.6921086 129.63464393 174.8828125 131.92578125 C172.73892719 134.30787604 170.5947733 136.68972067 168.44921875 139.0703125 C166.82677464 140.87549765 165.20896455 142.68486808 163.59765625 144.5 C155.80859695 153.25067156 147.8067544 161.31209824 138.59521484 168.57275391 C137.36252514 169.54674397 136.13419834 170.52626498 134.90869141 171.50927734 C109.87032784 191.59159369 85.15734185 208.8231673 51.8828125 206.92578125 C41.97123975 205.49073145 32.62626295 199.97040061 26.35546875 192.1875 C21.79288342 185.1802403 19.56492527 177.23860839 20.8828125 168.92578125 C21.78637669 165.93467219 22.82493776 163.06725283 24.0078125 160.17578125 C25.00362792 158.01747152 25.00362792 158.01747152 24.8828125 155.92578125 C23.64144531 156.54453125 23.64144531 156.54453125 22.375 157.17578125 C3.66063299 166.31186562 -15.80066707 172.48030304 -36.1171875 176.92578125 C-36.89497559 177.10512207 -37.67276367 177.28446289 -38.47412109 177.46923828 C-49.6824069 179.99028894 -60.92592687 180.22931784 -72.3671875 180.30078125 C-73.08485291 180.30881775 -73.80251831 180.31685425 -74.54193115 180.32513428 C-91.77006374 180.47152387 -111.06580089 178.39451667 -124.1171875 165.92578125 C-131.01925542 158.09932924 -132.77651364 151.57302179 -132.4921875 141.13671875 C-131.32783718 122.83146834 -115.8907074 107.65781512 -103.1171875 95.92578125 C-102.1271875 95.43078125 -102.1271875 95.43078125 -101.1171875 94.92578125 C-101.55107255 91.5086458 -101.98943852 88.09210255 -102.4296875 84.67578125 C-102.56286377 83.64122803 -102.69604004 82.6066748 -102.83325195 81.54077148 C-103.83376875 73.86545369 -104.94365909 66.21259357 -106.20239258 58.57519531 C-107.80175999 48.46195858 -107.38943989 39.70676048 -102.2421875 30.61328125 C-95.03224796 21.49482831 -86.60979194 17.41988462 -75.8671875 13.55078125 C-74.81378174 13.1635791 -73.76037598 12.77637695 -72.67504883 12.37744141 C-65.26536835 9.66626962 -57.83037829 7.0233145 -50.36645508 4.46508789 C-46.2200928 3.03976279 -42.11595484 1.55185564 -38.0390625 -0.0625 C-23.81442236 -5.66589499 -14.13450215 -7.17156474 0 0 Z " fill="#AC9A6A" transform="translate(164.1171875,284.07421875)"/>
<path d="M0 0 C1.85940713 0.16552079 3.71151654 0.41298582 5.55761719 0.68994141 C6.76777496 0.86875351 7.97793274 1.04756561 9.22476196 1.23179626 C10.58215187 1.43826083 11.9395222 1.64485416 13.296875 1.8515625 C14.72310702 2.06466983 16.14940896 2.27730973 17.57577515 2.48951721 C21.48305618 3.07239221 25.38921456 3.66250431 29.29520416 4.25396347 C32.56566006 4.74828507 35.83673292 5.23845069 39.10782051 5.72857189 C79.08684326 11.71961883 119.04397165 17.85778218 159 24 C158.69271277 26.70865209 158.38237896 29.41689785 158.0703125 32.125 C157.98434814 32.88554688 157.89838379 33.64609375 157.80981445 34.4296875 C157.3197191 38.66046414 156.71017192 42.82027385 155.875 47 C154.81604235 53.46778749 154.93363708 59.84306121 155 66.375 C155.30116346 99.96459977 144.6816498 130.74951985 121 155 C119.6267315 156.27726594 118.24346961 157.54385275 116.8515625 158.80078125 C106.65516712 168.108165 102.20045246 175.36768869 100 189 C99.76410156 190.18207031 99.52820313 191.36414063 99.28515625 192.58203125 C98.80025473 195.05090895 98.36724834 197.51148141 98 200 C98.4846875 199.50371094 98.969375 199.00742188 99.46875 198.49609375 C100.1390625 197.81675781 100.809375 197.13742188 101.5 196.4375 C102.1496875 195.77621094 102.799375 195.11492187 103.46875 194.43359375 C106.19945327 191.80824168 109.03537568 189.33721856 111.89453125 186.85375977 C115.25298552 183.89680901 118.49875971 180.82377525 121.75 177.75 C127.48278766 172.35267327 133.24779121 166.99658194 139.0625 161.6875 C141.71828644 159.25773794 144.36311544 156.81685923 147.00390625 154.37084961 C149.66423882 151.90842171 152.33168595 149.45377187 155 147 C156.36125 145.74509766 156.36125 145.74509766 157.75 144.46484375 C158.554375 143.73394531 159.35875 143.00304687 160.1875 142.25 C160.88230469 141.61578125 161.57710937 140.9815625 162.29296875 140.328125 C164 139 164 139 166 139 C167.35009766 140.79052734 167.35009766 140.79052734 168.9140625 143.3359375 C169.50251953 144.28573486 170.09097656 145.23553223 170.69726562 146.21411133 C171.33341797 147.25720459 171.96957031 148.30029785 172.625 149.375 C173.6140332 150.97734497 173.6140332 150.97734497 174.62304688 152.61206055 C176.39233643 155.48131959 178.15529847 158.35427118 179.91516113 161.22930908 C182.06190792 164.73326267 184.2180546 168.23143695 186.37271118 171.73052979 C188.0695399 174.48661054 189.76437052 177.24387612 191.45556641 180.00341797 C192.07866699 181.01936035 192.70176758 182.03530273 193.34375 183.08203125 C193.94316406 184.06381348 194.54257812 185.0455957 195.16015625 186.05712891 C196.42553504 188.08113049 197.7273925 190.08263471 199.05859375 192.06396484 C199.70957031 193.03672363 200.36054688 194.00948242 201.03125 195.01171875 C201.62486328 195.87627686 202.21847656 196.74083496 202.83007812 197.6315918 C204 200 204 200 203.83813477 202.13867188 C202.42239094 205.28275313 199.88860103 207.45927987 197.4375 209.8125 C196.62212769 210.61143677 196.62212769 210.61143677 195.7902832 211.42651367 C192.23172544 214.88816827 188.57306712 218.20685212 184.79296875 221.42578125 C182.33417866 223.58458823 180.07292218 225.91666105 177.78125 228.25 C175.28103815 230.70634849 172.62319484 232.96309368 169.96875 235.25 C168.06976929 236.93798286 166.27994012 238.68769734 164.5 240.5 C162.10946833 242.93389732 159.64953738 245.21355559 157.0625 247.4375 C154.25423653 249.85617779 151.60029407 252.35899683 149 255 C145.78457421 258.26576513 142.43192209 261.28534163 138.94921875 264.26171875 C136.35914416 266.57150471 133.99446598 269.0690975 131.640625 271.6171875 C129.67835631 273.27109968 128.57512817 273.88250366 126 274 C123.9296875 272.6015625 123.9296875 272.6015625 121.875 270.625 C118.17899524 267.06454042 118.17899524 267.06454042 113.375 265.5625 C106.71824067 266.42541325 102.18151728 271.81720445 97.375 276.1875 C89.65602369 283.01683158 89.65602369 283.01683158 83.91796875 282.98046875 C79.70884804 282.70175032 75.57994331 282.32613509 71.4453125 281.47265625 C66.21425031 280.46154039 60.27056433 279.75118962 55.5 282.375 C52.59626386 287.45653824 51.41312507 293.0503753 50.20703125 298.7421875 C48.66925678 305.72946651 47.29206165 311.33465258 41.23828125 315.76953125 C37.64366954 317.74562669 33.97829388 319.03305357 30 320 C29.233783 315.86297105 28.83759133 311.87979337 28.71875 307.67578125 C28.66267578 305.88430664 28.66267578 305.88430664 28.60546875 304.05664062 C28.57066406 302.82107422 28.53585937 301.58550781 28.5 300.3125 C28.23959277 290.47603435 28.23959277 290.47603435 27.5 280.66796875 C26.67939235 272.39122877 26.64088874 264.06216608 26.44775391 255.75195312 C26.26467717 248.05937093 26.00945727 240.42490946 25.23193359 232.76464844 C24.79777596 227.58948943 24.73128272 222.39891396 24.61129761 217.20855713 C24.2138464 200.23821077 23.47234615 183.28750693 22.66040039 166.33251953 C22.23024788 157.21607278 21.84013414 148.13011674 22 139 C30.09082059 144.14199673 37.52113912 150.02116669 45 156 C49.14530405 154.45141261 50.97435787 151.74633698 53.5625 148.25 C54.45360911 147.06058466 55.34556449 145.87180295 56.23828125 144.68359375 C56.69541504 144.07112793 57.15254883 143.45866211 57.62353516 142.82763672 C59.78779949 139.95397889 62.01867095 137.13418619 64.25 134.3125 C78.42926206 116.38631827 78.42926206 116.38631827 92 98 C90.515 97.505 90.515 97.505 89 97 C87.6328125 95.609375 87.6328125 95.609375 86.125 93.75 C82.12590655 88.99945703 77.73251461 84.70129165 73.26806641 80.39355469 C71.80925253 78.96501727 70.3999534 77.48626631 69 76 C69 75.34 69 74.68 69 74 C68.34 74 67.68 74 67 74 C65.765625 72.671875 65.765625 72.671875 64.25 70.75 C46.71533408 50.2568102 20.98117161 35.36147425 -4 26 C-2.38297872 2.38297872 -2.38297872 2.38297872 0 0 Z " fill="#030303" transform="translate(284,23)"/>
<path d="M0 0 C23.30329506 -0.4218672 23.30329506 -0.4218672 32 2 C32.9796875 2.268125 33.959375 2.53625 34.96875 2.8125 C45.07346942 5.87453619 53.83669773 10.17578863 60 19 C60.33 19.66 60.66 20.32 61 21 C67.90105287 21.12178329 74.74032683 20.93420891 81.625 20.5 C90.75618859 19.9300352 99.85431309 19.90270546 109 20 C108.95649414 20.85380249 108.95649414 20.85380249 108.91210938 21.72485352 C108.75653886 27.05369934 109.37032565 30.96234408 111.5 35.9375 C114 41.875 114 41.875 114 44 C78.52322798 46.38776806 78.52322798 46.38776806 62 46 C61.82404297 47.08474609 61.82404297 47.08474609 61.64453125 48.19140625 C59.36072743 58.14325442 52.11784025 65.72883515 45.51171875 73.12890625 C43.03894754 75.71183101 43.03894754 75.71183101 42 78 C43.08152344 77.68546875 44.16304687 77.3709375 45.27734375 77.046875 C54.77549515 74.37210823 64.25138823 72.29505749 74 70.75 C75.02472412 70.58725586 76.04944824 70.42451172 77.10522461 70.25683594 C86.28201838 68.8590609 95.39808776 67.84552562 104.6875 67.9375 C105.88761719 67.94652344 107.08773438 67.95554687 108.32421875 67.96484375 C109.20722656 67.97644531 110.09023438 67.98804688 111 68 C110.22147182 71.4615038 109.21450243 74.20069316 107 77 C102.86088971 78.52989498 98.69350107 78.57303721 94.3125 78.75 C91.76493431 78.93881822 89.21804208 79.13692527 86.671875 79.34375 C85.38603516 79.44300781 84.10019531 79.54226563 82.77539062 79.64453125 C57.42184356 82.03167329 26.69333693 89.48169432 8 108 C2.99504627 114.05918867 -0.44184649 120.61450814 -1.4375 128.4375 C-0.67336059 134.65977806 1.467747 139.93864859 6.0625 144.3125 C15.85543925 151.69835124 27.2109257 152.20554789 39 151 C71.02624935 145.31276371 100.66097037 115.43642774 123.625 94.0625 C124.28806152 93.44793945 124.95112305 92.83337891 125.63427734 92.20019531 C129.39580197 88.66526856 132.78233784 85.03748796 136 81 C138.90542812 82.3024333 140.8092961 83.70886268 143 86 C140.85611469 88.38209479 138.7119608 90.76393942 136.56640625 93.14453125 C134.94396214 94.9497164 133.32615205 96.75908683 131.71484375 98.57421875 C123.92578445 107.32489031 115.9239419 115.38631699 106.71240234 122.64697266 C105.47971264 123.62096272 104.25138584 124.60048373 103.02587891 125.58349609 C77.98751534 145.66581244 53.27452935 162.89738605 20 161 C10.08842725 159.5649502 0.74345045 154.04461936 -5.52734375 146.26171875 C-10.08992908 139.25445905 -12.31788723 131.31282714 -11 123 C-10.09643581 120.00889094 -9.05787474 117.14147158 -7.875 114.25 C-6.87918458 112.09169027 -6.87918458 112.09169027 -7 110 C-7.82757813 110.4125 -8.65515625 110.825 -9.5078125 111.25 C-28.22217951 120.38608437 -47.68347957 126.55452179 -68 131 C-68.77778809 131.17934082 -69.55557617 131.35868164 -70.35693359 131.54345703 C-81.5652194 134.06450769 -92.80873937 134.30353659 -104.25 134.375 C-104.96766541 134.3830365 -105.68533081 134.391073 -106.42474365 134.39935303 C-123.65287624 134.54574262 -142.94861339 132.46873542 -156 120 C-162.90206792 112.17354799 -164.65932614 105.64724054 -164.375 95.2109375 C-163.41161931 80.06521679 -152.93498184 68.49830556 -143 58 C-142.27039063 57.21753906 -141.54078125 56.43507813 -140.7890625 55.62890625 C-135.32612965 49.93242794 -135.32612965 49.93242794 -131 49 C-130.32373761 53.4432371 -129.64832649 57.88660261 -128.97363281 62.33007812 C-128.74501358 63.83499467 -128.51617993 65.33987865 -128.28710938 66.84472656 C-126.80894319 76.5565377 -125.36975894 86.27219287 -124 96 C-113.46086211 96.24257195 -103.41766636 95.49569959 -93 94 C-91.99743164 93.86319824 -91.99743164 93.86319824 -90.97460938 93.72363281 C-50.33127117 88.03994715 -10.74763892 69.71787152 21 44 C21.63808594 43.49082031 22.27617187 42.98164063 22.93359375 42.45703125 C23.28550781 41.97621094 23.63742188 41.49539063 24 41 C23.28374169 36.70911821 20.93488238 33.41206671 18.625 29.8125 C18.18671875 29.11995117 17.7484375 28.42740234 17.296875 27.71386719 C13.44134885 21.63923524 9.52570744 15.60198622 5.58056641 9.58520508 C5.14147949 8.91255615 4.70239258 8.23990723 4.25 7.546875 C3.86328125 6.95745117 3.4765625 6.36802734 3.078125 5.76074219 C1.93243652 3.88965855 0.95423751 1.97462103 0 0 Z " fill="#E3CB99" transform="translate(196,330)"/>
<path d="M0 0 C7.31854657 14.33413383 7.31854657 14.33413383 10.15625 21.83203125 C10.93089304 23.82243351 11.81810199 25.70511752 12.75 27.625 C14.48953821 32.32175317 15.05122429 36.24679351 13.26171875 40.93359375 C9.61225069 47.52917784 3.63331954 52.14996506 -2 57 C-2.7528125 57.67675781 -3.505625 58.35351562 -4.28125 59.05078125 C-10.60738216 64.73213455 -16.21910677 69.5455504 -25.18676758 69.56860352 C-29.00654919 68.79655879 -32.02966813 66.95364939 -35.32421875 64.96484375 C-35.96854858 64.58581909 -36.61287842 64.20679443 -37.2767334 63.81628418 C-38.85600646 62.8857065 -40.42868856 61.94395899 -42 61 C-41.96241577 61.55471481 -41.92483154 62.10942963 -41.8861084 62.68095398 C-41.48840681 68.57151428 -41.10071292 74.46267842 -40.71826172 80.35424805 C-40.5752052 82.53898025 -40.42978267 84.7235591 -40.28173828 86.90795898 C-39.30859595 101.29656347 -38.79466789 115.5782708 -39 130 C-41.64 130 -44.28 130 -47 130 C-47.73747772 121.2354237 -48.23658207 112.48909779 -48.53515625 103.69921875 C-48.57813339 102.4968306 -48.62111053 101.29444244 -48.66539001 100.05561829 C-48.80026294 96.2663291 -48.93144741 92.47692303 -49.0625 88.6875 C-49.15405154 86.09699653 -49.24584622 83.50650163 -49.33789062 80.91601562 C-49.56140114 74.61077342 -49.7818947 68.30543137 -50 62 C-50.83144531 62.56589844 -51.66289062 63.13179687 -52.51953125 63.71484375 C-54.14955078 64.81505859 -54.14955078 64.81505859 -55.8125 65.9375 C-56.89144531 66.66839844 -57.97039062 67.39929688 -59.08203125 68.15234375 C-64.22538436 71.40911218 -69.04648194 71.83463617 -75 71 C-78.14041136 69.60433858 -80.68750749 67.68661964 -83.375 65.5625 C-84.09961426 65.01770996 -84.82422852 64.47291992 -85.57080078 63.91162109 C-87.03340863 62.80957661 -88.48914197 61.6983431 -89.9375 60.57763672 C-91.81529278 59.14128528 -93.71918016 57.76492661 -95.65625 56.41015625 C-105.0173038 49.76426248 -105.0173038 49.76426248 -107 44 C-108.28673907 35.02843907 -105.55550062 27.29882648 -102.5625 18.9375 C-102.14162109 17.71611328 -101.72074219 16.49472656 -101.28710938 15.23632812 C-98.27839625 6.5567925 -98.27839625 6.5567925 -97 4 C-89.54619027 2.63082666 -81.89312761 2.58208315 -74.3359375 2.24609375 C-72.89791258 2.18039605 -71.4598939 2.11456178 -70.0218811 2.04859924 C-67.0078455 1.91115427 -63.99371114 1.77618327 -60.97949219 1.64282227 C-57.93471335 1.50786424 -54.89014229 1.36922018 -51.84570312 1.22680664 C-34.55686634 0.41829681 -17.3134881 -0.24277822 0 0 Z " fill="#AB9A6C" transform="translate(244,24)"/>
<path d="M0 0 C5.61696949 2.21255344 11.2222248 4.45228509 16.81884766 6.71582031 C19.02772185 7.60750706 21.23847464 8.49454867 23.45068359 9.37792969 C26.99489472 10.79794681 30.52924501 12.24046588 34.0625 13.6875 C35.19800293 14.13843018 36.33350586 14.58936035 37.50341797 15.05395508 C38.5657666 15.49376709 39.62811523 15.9335791 40.72265625 16.38671875 C41.66890869 16.77045654 42.61516113 17.15419434 43.59008789 17.54956055 C48.00111331 20.20439815 49.28499841 24.29373546 50.578125 29.078125 C50.84866699 30.06240479 51.11920898 31.04668457 51.39794922 32.06079102 C51.81971436 33.63944946 51.81971436 33.63944946 52.25 35.25 C52.86154714 37.49360739 53.47353977 39.73709338 54.0859375 41.98046875 C54.39885742 43.13466309 54.71177734 44.28885742 55.03417969 45.47802734 C55.99117704 48.9678261 56.97801679 52.44766185 57.9765625 55.92578125 C58.29463867 57.03856445 58.61271484 58.15134766 58.94042969 59.29785156 C59.5492525 61.42459624 60.16170266 63.55030691 60.77832031 65.67480469 C62.32859741 71.13416233 63.47562891 76.34620404 64 82 C56.18307708 84.6753888 48.33942329 87.11693726 40.375 89.3125 C38.78341064 89.75480957 38.78341064 89.75480957 37.15966797 90.20605469 C26.1003445 93.26953429 15.01903929 96.25257338 3.93066406 99.20898438 C1.91933495 99.75186228 -0.08901949 100.30584643 -2.09472656 100.86914062 C-3.07666992 101.14435547 -4.05861328 101.41957031 -5.0703125 101.703125 C-6.38539795 102.07679199 -6.38539795 102.07679199 -7.72705078 102.45800781 C-10 103 -10 103 -13 103 C-13.21092285 102.23147705 -13.4218457 101.4629541 -13.63916016 100.67114258 C-17.61874579 86.18117544 -21.61996506 71.69913972 -25.7734375 57.2578125 C-25.9806543 56.53110352 -26.18787109 55.80439453 -26.40136719 55.05566406 C-26.9619641 53.13061266 -27.56164372 51.21706388 -28.1640625 49.3046875 C-30.03911227 41.89210756 -30.03911227 41.89210756 -27.96679688 38.11865234 C-26.46735851 35.91114587 -24.88163494 33.79914905 -23.25 31.6875 C-22.05749123 30.09457478 -20.86611288 28.50080277 -19.67578125 26.90625 C-19.06557129 26.09671875 -18.45536133 25.2871875 -17.82666016 24.453125 C-14.94880802 20.58829497 -12.19466118 16.63888157 -9.4375 12.6875 C-6.40943898 8.35004775 -3.36204005 4.08982283 0 0 Z " fill="#AC9A6A" transform="translate(380,334)"/>
<path d="M0 0 C4.48509385 1.50534184 6.40610952 5.06972552 8.8125 8.875 C9.44188477 9.81279297 9.44188477 9.81279297 10.08398438 10.76953125 C13.07961703 15.43817786 13.07961703 15.43817786 12.70214844 18.10180664 C6.90468351 33.77471688 -26.05563041 46.88383058 -40.30004883 53.61669922 C-70.64130733 67.48058598 -102.61140523 75.44452271 -136 75 C-137.68561267 69.78556404 -138.38512698 65.02460865 -138.625 59.5625 C-138.66367188 58.83095703 -138.70234375 58.09941406 -138.7421875 57.34570312 C-138.83533984 55.56416468 -138.91870286 53.78211878 -139 52 C-138.07703125 51.92595947 -137.1540625 51.85191895 -136.203125 51.77563477 C-106.23866134 49.24220154 -78.59877363 43.32674949 -51 31 C-50.27893066 30.68740234 -49.55786133 30.37480469 -48.81494141 30.05273438 C-32.63996561 23.02235119 -17.84775485 13.89659398 -4 3 C-2.66935965 1.9964194 -1.33705537 0.99501795 0 0 Z " fill="#987F53" transform="translate(208,352)"/>
<path d="M0 0 C-0.77852818 3.4615038 -1.78549757 6.20069316 -4 9 C-8.13911029 10.52989498 -12.30649893 10.57303721 -16.6875 10.75 C-19.23506569 10.93881822 -21.78195792 11.13692527 -24.328125 11.34375 C-25.61396484 11.44300781 -26.89980469 11.54226563 -28.22460938 11.64453125 C-53.57815644 14.03167329 -84.30666307 21.48169432 -103 40 C-108.00495373 46.05918867 -111.44184649 52.61450814 -112.4375 60.4375 C-111.67336059 66.65977806 -109.532253 71.93864859 -104.9375 76.3125 C-95.14456075 83.69835124 -83.7890743 84.20554789 -72 83 C-39.97375065 77.31276371 -10.33902963 47.43642774 12.625 26.0625 C13.61959229 25.14065918 13.61959229 25.14065918 14.63427734 24.20019531 C18.39580197 20.66526856 21.78233784 17.03748796 25 13 C27.90542812 14.3024333 29.8092961 15.70886268 32 18 C29.85611469 20.38209479 27.7119608 22.76393942 25.56640625 25.14453125 C23.94396214 26.9497164 22.32615205 28.75908683 20.71484375 30.57421875 C12.92578445 39.32489031 4.9239419 47.38631699 -4.28759766 54.64697266 C-5.52028736 55.62096272 -6.74861416 56.60048373 -7.97412109 57.58349609 C-33.01248466 77.66581244 -57.72547065 94.89738605 -91 93 C-100.91157275 91.5649502 -110.25654955 86.04461936 -116.52734375 78.26171875 C-121.1263798 71.19847771 -123.2281133 63.36409794 -122 55 C-119.15679968 42.06438002 -109.2083802 30.89356362 -98.20410156 23.85058594 C-90.45613 19.14058446 -82.55937231 15.02912851 -74 12 C-72.78828125 11.52304687 -71.5765625 11.04609375 -70.328125 10.5546875 C-65.71884049 8.82727674 -61.03729061 7.62589149 -56.25 6.5 C-55.34330566 6.28569336 -54.43661133 6.07138672 -53.50244141 5.85058594 C-44.07779469 3.68883511 -34.59000138 2.2021206 -25 1 C-23.94296875 0.86722656 -22.8859375 0.73445313 -21.796875 0.59765625 C-14.54275124 -0.17654117 -7.28758335 -0.09574927 0 0 Z " fill="#DEDEDE" transform="translate(307,398)"/>
<path d="M0 0 C12.99398602 1.30963815 25.88559538 3.09392169 38.79150391 5.08666992 C41.91894737 5.56928174 45.04728223 6.04576778 48.17578125 6.52148438 C50.17713715 6.82777358 52.17844128 7.13440124 54.1796875 7.44140625 C55.57331009 7.65392784 55.57331009 7.65392784 56.99508667 7.8707428 C57.85764069 8.00435715 58.7201947 8.1379715 59.60888672 8.27563477 C60.36289764 8.39173599 61.11690857 8.50783722 61.89376831 8.62745667 C63.960442 8.99300311 65.97113261 9.46534251 68 10 C67.44692246 15.85340401 66.2175039 20.91252804 64.25 26.4375 C62.12809305 32.588401 60.12453551 38.750441 58.3125 45 C58.00602539 46.05574219 58.00602539 46.05574219 57.69335938 47.1328125 C57.12753707 49.08814598 56.56371272 51.04405729 56 53 C55.42013966 54.98018698 54.83742723 56.95954456 54.25 58.9375 C54.02828125 59.68902344 53.8065625 60.44054687 53.578125 61.21484375 C53 63 53 63 52 65 C49.90209961 65.9296875 49.90209961 65.9296875 47.15234375 66.875 C46.15396484 67.22046875 45.15558594 67.5659375 44.12695312 67.921875 C43.07443359 68.27765625 42.02191406 68.6334375 40.9375 69 C39.91205078 69.35578125 38.88660156 69.7115625 37.83007812 70.078125 C21.23395855 75.76943664 21.23395855 75.76943664 16 75 C13.68359375 73.5390625 13.68359375 73.5390625 11.4375 71.625 C8.69980293 69.31907145 6.22321492 67.54298799 3 66 C4.23363281 64.49373047 4.23363281 64.49373047 5.4921875 62.95703125 C18.31374829 47.40322073 18.31374829 47.40322073 30 31 C29.01 30.67 28.02 30.34 27 30 C25.6328125 28.609375 25.6328125 28.609375 24.125 26.75 C20.12590655 21.99945703 15.73251461 17.70129165 11.26806641 13.39355469 C9.80925253 11.96501727 8.3999534 10.48626631 7 9 C7 8.34 7 7.68 7 7 C6.34 7 5.68 7 5 7 C3.7109375 5.46875 3.7109375 5.46875 2.375 3.5 C1.70597656 2.52546875 1.70597656 2.52546875 1.0234375 1.53125 C0.68570312 1.0259375 0.34796875 0.520625 0 0 Z " fill="#1F2120" transform="translate(346,90)"/>
<path d="M0 0 C7.22315263 6.99014771 13.76804665 14.57702576 19.9921875 22.4609375 C23.60025068 27.02366331 27.30703429 31.50596275 31 36 C31.55059082 36.6707959 32.10118164 37.3415918 32.66845703 38.03271484 C34.50721696 40.27256827 36.34720006 42.51141176 38.1875 44.75 C38.76967285 45.45906494 39.3518457 46.16812988 39.95166016 46.89868164 C40.80123291 47.93109985 40.80123291 47.93109985 41.66796875 48.984375 C42.21759277 49.65662109 42.7672168 50.32886719 43.33349609 51.02148438 C44.45497395 52.35293128 45.61024748 53.65655127 46.79541016 54.93164062 C47.35405762 55.53685547 47.91270508 56.14207031 48.48828125 56.765625 C48.99528564 57.29446289 49.50229004 57.82330078 50.0246582 58.36816406 C51 60 51 60 50.7800293 62.07226562 C49.64015406 64.8893094 47.79441349 66.28133657 45.5 68.25 C44.60539062 69.02730469 43.71078125 69.80460937 42.7890625 70.60546875 C41.40847656 71.79076172 41.40847656 71.79076172 40 73 C38.28899503 74.51782699 36.58044465 76.03842804 34.875 77.5625 C33.5836196 78.70865596 32.29206642 79.85461745 31 81 C23.07378764 77.68374563 17.18741316 69.33176468 11.7109375 62.9296875 C9.25426881 60.15892418 6.60640023 57.597071 3.96875 55 C1.44574541 52.43694772 -0.87562817 49.72654176 -3.21875 47 C-5.0742521 44.91662922 -7.01223101 42.95718793 -9 41 C-19.43895349 30.68313953 -19.43895349 30.68313953 -21 26 C-19.45281185 23.69438628 -17.89154806 21.6273542 -16.125 19.5 C-15.62629395 18.88358643 -15.12758789 18.26717285 -14.61376953 17.63208008 C-13.08513328 15.74692405 -11.54312706 13.87330064 -10 12 C-9.09794615 10.89014482 -8.19684279 9.77951616 -7.296875 8.66796875 C-1.35227273 1.35227273 -1.35227273 1.35227273 0 0 Z " fill="#AB9869" transform="translate(45,111)"/>
<path d="M0 0 C3.41729444 1.47293031 5.61974068 3.38624935 8.22265625 6.02734375 C9.40118164 7.21553711 9.40118164 7.21553711 10.60351562 8.42773438 C11.41498047 9.25595703 12.22644531 10.08417969 13.0625 10.9375 C13.87783203 11.76185547 14.69316406 12.58621094 15.53320312 13.43554688 C17.04794277 14.96771163 18.56061923 16.50192082 20.07055664 18.03881836 C21.70568031 19.70083892 23.34847312 21.35430546 25 23 C23.56997559 27.29007324 21.45268442 30.09880655 18.5 33.5 C14.90088508 37.70736993 11.41645726 41.96945206 8.0625 46.375 C4.1485054 51.50726291 0.19980712 56.60893289 -3.80859375 61.66796875 C-6.24669235 64.74839928 -8.64707321 67.84996852 -11 70.99609375 C-11.49185791 71.64521729 -11.98371582 72.29434082 -12.49047852 72.96313477 C-13.43606192 74.21247907 -14.3719316 75.46925124 -15.29663086 76.73413086 C-16.58984375 78.4296875 -16.58984375 78.4296875 -19 81 C-23.42328354 81 -23.9818984 80.61075259 -27.2578125 77.97265625 C-28.04800781 77.34552734 -28.83820313 76.71839844 -29.65234375 76.07226562 C-30.87630859 75.07743164 -30.87630859 75.07743164 -32.125 74.0625 C-33.75159661 72.76045905 -35.37915432 71.45961757 -37.0078125 70.16015625 C-38.08506592 69.28822632 -38.08506592 69.28822632 -39.18408203 68.39868164 C-40.95355948 66.9434336 -40.95355948 66.9434336 -43 66 C-41.72368257 62.55896663 -40.24732513 59.62782536 -38.19921875 56.5859375 C-37.64105469 55.75255859 -37.08289063 54.91917969 -36.5078125 54.06054688 C-35.90710938 53.17431641 -35.30640625 52.28808594 -34.6875 51.375 C-34.06230469 50.44494141 -33.43710937 49.51488281 -32.79296875 48.55664062 C-28.20804756 41.74858728 -23.57444371 34.97386869 -18.92578125 28.20922852 C-12.51860816 18.87230487 -6.25996431 9.43598603 0 0 Z " fill="#AB996A" transform="translate(351,98)"/>
<path d="M0 0 C2.71654944 2.38583907 3.99148819 4.76748949 5.4375 8.0625 C5.86675781 9.03832031 6.29601562 10.01414062 6.73828125 11.01953125 C8.24076417 14.56874014 9.69176649 18.13345511 11.0859375 21.7265625 C11.89680023 23.74332365 12.80349452 25.67006811 13.75 27.625 C15.48953821 32.32175317 16.05122429 36.24679351 14.26171875 40.93359375 C10.61225069 47.52917784 4.63331954 52.14996506 -1 57 C-1.7528125 57.67675781 -2.505625 58.35351562 -3.28125 59.05078125 C-9.69054661 64.80682263 -15.23789857 69.53289493 -24.32421875 69.48828125 C-29.83957889 68.48182867 -34.37286016 65.01798087 -39 62 C-40.66284623 60.99366 -42.3282408 59.99146303 -44 59 C-43.40477837 55.85714384 -42.45976703 54.00754301 -40.41015625 51.56640625 C-39.87817627 50.92421143 -39.34619629 50.2820166 -38.7980957 49.62036133 C-38.22534912 48.94126709 -37.65260254 48.26217285 -37.0625 47.5625 C-35.86845238 46.12089993 -34.67575872 44.67817739 -33.484375 43.234375 C-32.89205078 42.51830078 -32.29972656 41.80222656 -31.68945312 41.06445312 C-29.3382123 38.19131838 -27.0642281 35.26393564 -24.8125 32.3125 C-24.01457031 31.26707031 -23.21664062 30.22164062 -22.39453125 29.14453125 C-21.60433594 28.10683594 -20.81414062 27.06914063 -20 26 C-18.33590337 23.83135295 -16.66793987 21.66569184 -15 19.5 C-14.17961661 18.43364829 -13.35930431 17.36724187 -12.5390625 16.30078125 C-6.26953125 8.15039062 -6.26953125 8.15039062 0 0 Z " fill="#D0C099" transform="translate(243,24)"/>
<path d="M0 0 C4.43329229 3.61901411 8.27966793 7.31373407 11.98828125 11.6640625 C18.09638261 18.75657631 24.50029018 25.57752124 31.171875 32.140625 C33.64071964 34.65167212 35.91222264 37.31223292 38.19921875 39.98828125 C40.7466414 42.83410048 43.50948318 45.43812281 46.30078125 48.04296875 C48.20641965 50.23773849 49.0690673 52.26390845 50 55 C47.94297722 56.63236654 45.87990147 58.25587005 43.8125 59.875 C42.9452832 60.56529297 42.9452832 60.56529297 42.06054688 61.26953125 C36.38631217 65.69351085 31.87841444 67.56939109 24.57324219 67.40576172 C20.10146143 66.70062893 17.11158 64.31819626 13.625 61.5625 C12.90038574 61.01770996 12.17577148 60.47291992 11.42919922 59.91162109 C9.96659137 58.80957661 8.51085803 57.6983431 7.0625 56.57763672 C5.18470722 55.14128528 3.28081984 53.76492661 1.34375 52.41015625 C-8.0173038 45.76426248 -8.0173038 45.76426248 -10 40 C-11.28673907 31.02843907 -8.55550062 23.29882648 -5.5625 14.9375 C-5.14162109 13.71611328 -4.72074219 12.49472656 -4.28710938 11.23632812 C-1.27839625 2.5567925 -1.27839625 2.5567925 0 0 Z " fill="#D0C099" transform="translate(147,28)"/>
<path d="M0 0 C0.27880005 1.04788696 0.27880005 1.04788696 0.56323242 2.11694336 C5.35750407 20.16707731 5.35750407 20.16707731 10.5769043 38.09741211 C12 42.80262416 12 42.80262416 12 45 C12.99 45.33 13.98 45.66 15 46 C10.64155243 47.28688479 6.2815994 48.56848592 1.92016602 49.84521484 C0.43666701 50.28028804 -1.04641019 50.7168022 -2.52905273 51.15478516 C-4.66020206 51.78406996 -6.79281441 52.40815762 -8.92578125 53.03125 C-9.58838455 53.22811401 -10.25098785 53.42497803 -10.93367004 53.62780762 C-13.73639898 54.4418003 -16.06278014 55 -19 55 C-20.39186253 49.91490887 -21.77921426 44.82861535 -23.16259766 39.74121094 C-23.63274681 38.01464538 -24.10407643 36.28840077 -24.57666016 34.5625 C-29.40762084 16.91366267 -29.40762084 16.91366267 -31 8 C-27.23012542 6.85364105 -23.45814179 5.71453808 -19.68408203 4.58203125 C-17.77131057 4.00641308 -15.86025209 3.42511266 -13.94921875 2.84375 C-12.74394531 2.4828125 -11.53867187 2.121875 -10.296875 1.75 C-9.18666992 1.41484375 -8.07646484 1.0796875 -6.93261719 0.734375 C-4 0 -4 0 0 0 Z " fill="#987F53" transform="translate(409,376)"/>
<path d="M0 0 C-1.72072361 4.01502176 -4.41822473 7.24393581 -7.125 10.625 C-7.85553589 11.54889526 -7.85553589 11.54889526 -8.60083008 12.49145508 C-10.87526691 15.36256332 -13.17289425 18.20957696 -15.50390625 21.03515625 C-16.22449219 21.91042969 -16.94507813 22.78570312 -17.6875 23.6875 C-18.33074219 24.45449219 -18.97398437 25.22148438 -19.63671875 26.01171875 C-21.28274843 28.0105807 -21.28274843 28.0105807 -21 31 C-20.01 31.66 -19.02 32.32 -18 33 C-17.7421875 35.90966797 -17.7421875 35.90966797 -17.875 39.6171875 C-17.90663071 40.98656134 -17.93382985 42.35604335 -17.95703125 43.72558594 C-17.96943848 44.4334021 -17.9818457 45.14121826 -17.99462891 45.8704834 C-18.00824258 51.26799656 -17.52207569 56.658096 -17.1449585 62.04006958 C-16.21800005 75.37246408 -15.72625814 88.63227251 -16 102 C-18.64 102 -21.28 102 -24 102 C-25.34543166 87.85865451 -25.62498847 73.64241714 -26.125 59.45263672 C-26.24654752 56.03078906 -26.37301095 52.6091494 -26.5 49.1875 C-26.55317383 47.61403809 -26.55317383 47.61403809 -26.60742188 46.00878906 C-26.64416016 45.03006836 -26.68089844 44.05134766 -26.71875 43.04296875 C-26.74904297 42.18727295 -26.77933594 41.33157715 -26.81054688 40.44995117 C-27.00751346 37.90283822 -27.44960528 35.492653 -28 33 C-27.01 32.34 -26.02 31.68 -25 31 C-26.4750836 25.74315846 -29.86002267 22.8386826 -33.6875 19.1875 C-34.95468325 17.94690215 -36.2203229 16.70472555 -37.484375 15.4609375 C-38.09087891 14.86635742 -38.69738281 14.27177734 -39.32226562 13.65917969 C-41.41434033 11.59024201 -43.45182348 9.4838292 -45.4375 7.3125 C-45.97246094 6.73113281 -46.50742188 6.14976563 -47.05859375 5.55078125 C-47.36925781 5.03902344 -47.67992187 4.52726562 -48 4 C-47.67 3.01 -47.34 2.02 -47 1 C-44.63671875 -0.1328125 -44.63671875 -0.1328125 -41.6875 -1.125 C-40.72199219 -1.45757812 -39.75648438 -1.79015625 -38.76171875 -2.1328125 C-26.67364713 -5.92850119 -11.33100549 -5.94413403 0 0 Z " fill="#7B8C9C" transform="translate(221,52)"/>
<path d="M0 0 C24.77626887 3.16887304 24.77626887 3.16887304 36 5 C35.73689871 7.50100995 35.46449333 10.00051691 35.1875 12.5 C35.11724609 13.17675781 35.04699219 13.85351562 34.97460938 14.55078125 C34.08601047 22.44153955 32.51197873 30.21003568 31 38 C26.19385254 37.3106403 21.38838528 36.61677727 16.58349609 35.91870117 C14.9482594 35.6817786 13.3128426 35.44609563 11.67724609 35.21166992 C9.32861852 34.87482916 6.9806711 34.53356053 4.6328125 34.19140625 C3.53273361 34.03509483 3.53273361 34.03509483 2.41043091 33.87562561 C-2.77225659 33.11387171 -2.77225659 33.11387171 -5 32 C-4.55914681 25.09836734 -3.63512617 18.31622421 -2.5 11.5 C-2.30410278 10.31591553 -2.30410278 10.31591553 -2.10424805 9.10791016 C-1.57173613 5.9802879 -1.0048585 3.0145755 0 0 Z " fill="#272828" transform="translate(407,42)"/>
<path d="M0 0 C-0.02900391 0.56920166 -0.05800781 1.13840332 -0.08789062 1.72485352 C-0.24346114 7.05369934 0.37032565 10.96234408 2.5 15.9375 C5 21.875 5 21.875 5 24 C-30.47677202 26.38776806 -30.47677202 26.38776806 -47 26 C-46.75636719 24.68322266 -46.75636719 24.68322266 -46.5078125 23.33984375 C-46.05266033 20.34634296 -45.86622986 17.58381176 -45.875 14.5625 C-45.87242187 13.67691406 -45.86984375 12.79132813 -45.8671875 11.87890625 C-46.02117074 8.54109306 -46.48481739 5.29962197 -47 2 C-31.32167366 0.78877117 -15.73148727 -0.37907198 0 0 Z " fill="#AC996A" transform="translate(305,350)"/>
<path d="M0 0 C2.52102107 0.2581446 4.99637448 0.58171147 7.5 0.9609375 C8.25087891 1.070961 9.00175781 1.1809845 9.77539062 1.29434204 C11.36628685 1.52880665 12.95677387 1.76606187 14.546875 2.00585938 C16.98855138 2.37327724 19.43158845 2.73026348 21.875 3.0859375 C23.41675903 3.31448197 24.95842896 3.54362846 26.5 3.7734375 C27.23541016 3.88078217 27.97082031 3.98812683 28.72851562 4.09872437 C33.88467357 4.88467357 33.88467357 4.88467357 35 6 C35.40029922 13.00523632 34.21851542 19.61703454 33 26.5 C32.71382813 28.16289063 32.71382813 28.16289063 32.421875 29.859375 C31.95383586 32.57400201 31.47974117 35.28742095 31 38 C28.69 37.67 26.38 37.34 24 37 C23.67 37.66 23.34 38.32 23 39 C22.05640625 38.48050781 21.1128125 37.96101563 20.140625 37.42578125 C12.24671627 33.12320356 4.39429329 29.25142086 -4 26 C-2.38297872 2.38297872 -2.38297872 2.38297872 0 0 Z " fill="#282828" transform="translate(284,23)"/>
<path d="M0 0 C30.18444166 3.18444166 30.18444166 3.18444166 32 5 C31.93383789 6.87646484 31.93383789 6.87646484 31.66015625 9.3359375 C31.55977051 10.24053711 31.45938477 11.14513672 31.35595703 12.07714844 C30.76454741 16.93335964 30.1134847 21.7799039 29.4375 26.625 C29.22963867 28.13126953 29.22963867 28.13126953 29.01757812 29.66796875 C28.6800396 32.11221324 28.34082223 34.55621161 28 37 C24.16563953 36.55001273 20.33274919 36.08849525 16.5 35.625 C15.42234375 35.49867187 14.3446875 35.37234375 13.234375 35.2421875 C7.34429281 34.52388479 1.71691849 33.59574181 -4 32 C-3.3653397 21.23265975 -1.67880003 10.64450817 0 0 Z " fill="#272828" transform="translate(327,30)"/>
<path d="M0 0 C28.39258114 3.19629057 28.39258114 3.19629057 32 5 C31.33273876 15.86025183 29.12955677 26.35450109 27 37 C23.51995488 36.54818719 20.04116096 36.0873396 16.5625 35.625 C15.10166992 35.43550781 15.10166992 35.43550781 13.61132812 35.2421875 C7.65049708 34.44475191 1.8512268 33.39170855 -4 32 C-4.24146881 24.75593565 -3.33221351 18.11113966 -2 11 C-1.6249018 8.91668434 -1.24989625 6.83335201 -0.875 4.75 C-0.58424419 3.16649915 -0.29293565 1.58309905 0 0 Z " fill="#272828" transform="translate(367,36)"/>
<path d="M0 0 C2.31 0.33 4.62 0.66 7 1 C8.62968139 5.05181239 7.3097535 8.60107896 6.19140625 12.61328125 C5.88847404 13.74540794 5.88847404 13.74540794 5.579422 14.90040588 C4.9157864 17.37353256 4.23908869 19.84288887 3.5625 22.3125 C3.10325466 24.01614944 2.6450929 25.72009134 2.18798828 27.42431641 C1.48819758 30.03262722 0.7876694 32.64071588 0.08355713 35.24786377 C-2.21838112 43.77348003 -4.43012421 52.32131025 -6.625 60.875 C-6.9705014 62.21788579 -7.31611956 63.56074154 -7.66186523 64.90356445 C-8.44219243 67.93546708 -9.2215988 70.96760245 -10 74 C-13.63 73.67 -17.26 73.34 -21 73 C-19.515 72.505 -19.515 72.505 -18 72 C-17.22687026 69.42070098 -16.65820282 66.97955287 -16.16015625 64.34375 C-15.82053235 62.68955555 -15.47811765 61.03593228 -15.13330078 59.3828125 C-14.86129852 58.06555176 -14.86129852 58.06555176 -14.58380127 56.72167969 C-13.59502762 52.11202006 -12.45263353 47.54192816 -11.30859375 42.96875 C-11.07484039 42.03144043 -10.84108704 41.09413086 -10.60025024 40.12841797 C-10.12233979 38.21620539 -9.64336216 36.30425921 -9.16333008 34.39257812 C-8.4315116 31.47613502 -7.70480444 28.55844951 -6.97851562 25.640625 C-6.50551044 23.7499244 -6.03221366 21.85929671 -5.55859375 19.96875 C-5.34601425 19.11438354 -5.13343475 18.26001709 -4.91441345 17.37976074 C-3.44158136 11.53326877 -1.77605754 5.76140757 0 0 Z " fill="#262727" transform="translate(374,231)"/>
<path d="M0 0 C0.33 0.66 0.66 1.32 1 2 C1.99 2.66 2.98 3.32 4 4 C4.2578125 6.90966797 4.2578125 6.90966797 4.125 10.6171875 C4.09336929 11.98656134 4.06617015 13.35604335 4.04296875 14.72558594 C4.03056152 15.4334021 4.0181543 16.14121826 4.00537109 16.8704834 C3.99175742 22.26799656 4.47792431 27.658096 4.8550415 33.04006958 C5.78199995 46.37246408 6.27374186 59.63227251 6 73 C3.36 73 0.72 73 -2 73 C-3.34543166 58.85865451 -3.62498847 44.64241714 -4.125 30.45263672 C-4.24654752 27.03078906 -4.37301095 23.6091494 -4.5 20.1875 C-4.53544922 19.13852539 -4.57089844 18.08955078 -4.60742188 17.00878906 C-4.64416016 16.03006836 -4.68089844 15.05134766 -4.71875 14.04296875 C-4.74904297 13.18727295 -4.77933594 12.33157715 -4.81054688 11.44995117 C-4.94111098 8.9425775 -4.94111098 8.9425775 -5.63085938 6.3293457 C-5.75267578 5.56066162 -5.87449219 4.79197754 -6 4 C-2.86486486 0 -2.86486486 0 0 0 Z " fill="#AB976A" transform="translate(199,81)"/>
<path d="M0 0 C0.71833008 0.5420105 0.71833008 0.5420105 1.45117188 1.0949707 C5.0398787 3.79562023 8.64161188 6.47376909 12.28125 9.10546875 C13.6875 10.1328125 15.09375 11.16015625 16.5 12.1875 C17.22703125 12.70763672 17.9540625 13.22777344 18.703125 13.76367188 C19.38890625 14.26833984 20.0746875 14.77300781 20.78125 15.29296875 C21.40064453 15.7418042 22.02003906 16.19063965 22.65820312 16.65307617 C24 18 24 18 24 21 C22.5 23.1875 22.5 23.1875 21 25 C15.46012257 22.9977517 11.40968037 19.72789794 6.8125 16.125 C5.99330078 15.49980469 5.17410156 14.87460938 4.33007812 14.23046875 C3.54697266 13.62074219 2.76386719 13.01101562 1.95703125 12.3828125 C1.24522705 11.82996582 0.53342285 11.27711914 -0.19995117 10.70751953 C-2.08068144 8.92346589 -3.00114806 7.37352881 -4 5 C-2.68 3.35 -1.36 1.7 0 0 Z " fill="#CDBB96" transform="translate(283,139)"/>
<path d="M0 0 C2.46800047 1.15173355 4.04783565 2.04783565 6 4 C5.78376266 6.48924383 5.27884355 7.69976571 3.57421875 9.53515625 C2.95160156 10.03917969 2.32898438 10.54320312 1.6875 11.0625 C-2.14075573 14.25619968 -5.83627981 17.5582352 -9.5 20.9375 C-10.04052002 21.43451416 -10.58104004 21.93152832 -11.13793945 22.44360352 C-12.42609725 23.628195 -13.71316729 24.81396919 -15 26 C-18.36720387 24.60667426 -19.9859524 23.0210714 -22 20 C-21.41734375 19.47792969 -20.8346875 18.95585937 -20.234375 18.41796875 C-13.44712989 12.32438862 -6.71512394 6.1728373 0 0 Z " fill="#CEBC96" transform="translate(117,147)"/>
<path d="M0 0 C5.28 0 10.56 0 16 0 C16 2.64 16 5.28 16 8 C10.72 8 5.44 8 0 8 C0 5.36 0 2.72 0 0 Z " fill="#AB9669" transform="translate(169,143)"/>
<path d="M0 0 C5.28 0 10.56 0 16 0 C16 2.64 16 5.28 16 8 C10.72 8 5.44 8 0 8 C0 5.36 0 2.72 0 0 Z " fill="#AB9669" transform="translate(168,119)"/>
</svg>
