<?xml version="1.0" encoding="UTF-8"?>
<svg version="1.1" xmlns="http://www.w3.org/2000/svg" width="512" height="512">
<path d="M0 0 C0.85799159 -0.00297112 1.71598318 -0.00594224 2.59997451 -0.0090034 C5.48014218 -0.01768733 8.36026827 -0.01919841 11.240448 -0.02069092 C13.30360503 -0.02531938 15.3667612 -0.03034408 17.42991638 -0.03573608 C23.03967586 -0.04886109 28.64942337 -0.05530548 34.2591958 -0.05974674 C37.76494031 -0.06267786 41.27068155 -0.06678279 44.77642441 -0.07125092 C55.74774763 -0.08492734 66.71906337 -0.09459277 77.69039452 -0.09845281 C90.34971497 -0.10293127 103.00892733 -0.1204688 115.66821492 -0.1494534 C125.45605888 -0.17108444 135.24387246 -0.18115788 145.03174007 -0.18249393 C150.87604163 -0.18354111 156.7202416 -0.18943045 162.56451797 -0.20731354 C168.06549567 -0.22381827 173.56629568 -0.22593798 179.06728935 -0.21717453 C181.08201893 -0.21640539 183.09675816 -0.22073054 185.11146355 -0.23063278 C209.15108252 -0.34181971 209.15108252 -0.34181971 217.32589722 6.32794189 C218.00136597 6.85774658 218.67683472 7.38755127 219.37277222 7.93341064 C225.9143355 14.48657245 229.09241988 21.22681486 232.01339722 29.95294189 C232.78916307 32.17829848 233.56520766 34.40355792 234.34152222 36.62872314 C235.08695396 38.79907633 235.83177429 40.96963963 236.57589722 43.14044189 C243.37733173 64.04696906 243.37733173 64.04696906 259.57589722 78.14044189 C264.52759681 79.79277333 268.88196737 80.40787106 274.09152222 80.48419189 C274.78799866 80.4988147 275.4844751 80.5134375 276.20205688 80.52850342 C278.40994608 80.57456672 280.61775498 80.60897308 282.82589722 80.64044189 C311.60428601 81.05456527 311.60428601 81.05456527 322.38839722 90.64044189 C323.11027222 91.46544189 323.83214722 92.29044189 324.57589722 93.14044189 C325.25652222 93.86231689 325.93714722 94.58419189 326.63839722 95.32794189 C332.08199914 103.22994469 333.1607012 110.87497964 333.08383179 120.29194641 C333.09007175 121.47837075 333.09631171 122.66479509 333.10274076 123.88717169 C333.11586392 127.15386508 333.11123805 130.4199561 333.09879589 133.68663371 C333.08970295 137.21975509 333.10373597 140.75279834 333.11471558 144.28590393 C333.13245982 151.19649823 333.12867934 158.10691831 333.11706501 165.0175193 C333.10801551 170.63554389 333.10681323 176.25351981 333.11116028 181.87154961 C333.11177321 182.67245096 333.11238614 183.47335232 333.11301765 184.29852341 C333.1142966 185.9257465 333.11559346 187.55296958 333.11690801 189.18019264 C333.12830162 204.42204734 333.1152189 219.66380564 333.09370655 234.90564453 C333.07583323 247.97362326 333.07894394 261.04145986 333.09738159 274.10943604 C333.11880398 289.29991174 333.1272067 304.49030309 333.11493254 319.6807918 C333.11365839 321.30157783 333.11240091 322.92236388 333.11116028 324.54314995 C333.11054318 325.34052564 333.10992607 326.13790133 333.10929027 326.95943992 C333.10584173 332.56888274 333.11165494 338.17827188 333.12107849 343.78770638 C333.13231493 350.62630606 333.12922385 357.46472218 333.10795552 364.30330092 C333.09746759 367.7900719 333.09328431 371.27653718 333.10655212 374.76330566 C333.11749077 378.5478152 333.10376222 382.33146611 333.08383179 386.11592102 C333.09275467 387.21125926 333.10167756 388.30659749 333.11087084 389.43512779 C333.00766507 399.54632682 329.56667579 407.7768218 322.57589722 415.14044189 C311.47741757 424.39615511 300.0014275 424.57766514 286.25610352 424.52812195 C284.37526344 424.53229713 282.49442588 424.53777566 280.61359298 424.54444176 C275.45599588 424.55889085 270.29855866 424.55465327 265.14095283 424.54727495 C259.57437119 424.54254427 254.00782419 424.55505226 248.44125366 424.56529236 C237.54003445 424.58248768 226.63887287 424.58331883 215.73764361 424.57807945 C206.87686668 424.57403786 198.01610678 424.57548119 189.15533066 424.58082771 C187.26357661 424.58195035 187.26357661 424.58195035 185.33360531 424.58309566 C182.77153016 424.58462714 180.20945501 424.58616548 177.64737986 424.58771063 C160.44544989 424.59753918 143.24352809 424.60170336 126.04159737 424.59408474 C125.36918463 424.59378757 124.6967719 424.59349039 124.00398303 424.59318421 C118.54380341 424.59073537 113.08362387 424.58812374 107.62344434 424.58550008 C86.32745467 424.57539857 65.03154386 424.58375227 43.73556519 424.60699463 C19.79832038 424.63307751 -4.1388706 424.64586288 -28.0761348 424.63880688 C-40.74638767 424.63531336 -53.41657579 424.63755555 -66.0868187 424.65505791 C-76.87279371 424.66977261 -87.65865837 424.67042481 -98.4446312 424.652987 C-103.94674959 424.64446866 -109.4486708 424.64234799 -114.95077896 424.65763855 C-119.99044307 424.67147048 -125.0297408 424.66674146 -130.06938364 424.64739931 C-131.88962023 424.64363444 -133.70988606 424.6465753 -135.53009664 424.65701097 C-147.7795385 424.72222945 -158.6232638 424.04225375 -168.57254028 415.97637939 C-176.32561257 408.28873388 -179.63235158 400.62372046 -179.70091379 389.82237172 C-179.69781658 388.71829496 -179.69471938 387.6142182 -179.69152832 386.47668457 C-179.69605943 385.29438349 -179.70059055 384.11208242 -179.70525897 382.89395404 C-179.71571822 379.62031756 -179.71723067 376.34681947 -179.71487021 373.07317162 C-179.71446158 369.5392945 -179.72550568 366.00545 -179.73498535 362.47158813 C-179.75158667 355.55080253 -179.75709452 348.630051 -179.75821011 341.70924714 C-179.75916106 336.08208706 -179.76327373 330.45493821 -179.76961136 324.82778168 C-179.78722196 308.86599826 -179.7964506 292.90424173 -179.79495041 276.94244853 C-179.7948705 276.08223946 -179.79479059 275.2220304 -179.79470825 274.33575439 C-179.79462649 273.47449222 -179.79454473 272.61323005 -179.79446049 271.72586903 C-179.7936478 257.7717291 -179.81278162 243.81769718 -179.84098499 229.86358848 C-179.86973019 215.52800523 -179.88352436 201.19247462 -179.88179743 186.85686183 C-179.88113406 178.81158433 -179.88660303 170.76642002 -179.90815353 162.72116852 C-179.92638697 155.87044112 -179.93069504 149.01987822 -179.91713469 142.16913703 C-179.91061565 138.67618169 -179.91044873 135.18354173 -179.92784119 131.69061661 C-179.94328474 127.89750809 -179.93398976 124.10522464 -179.9185791 120.31213379 C-179.92886623 119.21697992 -179.93915335 118.12182604 -179.94975221 116.99348569 C-179.86433178 107.4610876 -177.21260582 98.15236402 -170.42410278 91.14044189 C-162.88007238 85.11658334 -155.60070399 81.76080424 -145.98660278 81.45294189 C-145.25505981 81.41878174 -144.52351685 81.38462158 -143.76980591 81.34942627 C-141.98840717 81.26792437 -140.20628529 81.20248666 -138.42410278 81.14044189 C-138.43076462 80.46250076 -138.43742645 79.78455963 -138.44429016 79.08607483 C-138.51066431 72.02961978 -138.55591225 64.97325343 -138.58889771 57.91656494 C-138.60398335 55.28306476 -138.62445444 52.64958969 -138.65042114 50.01617432 C-138.68681297 46.23071086 -138.70383169 42.44557962 -138.71707153 38.65997314 C-138.73255539 37.48272171 -138.74803925 36.30547028 -138.76399231 35.09254456 C-138.7642189 33.99178085 -138.7644455 32.89101715 -138.76467896 31.75689697 C-138.77134079 30.79093094 -138.77800262 29.8249649 -138.78486633 28.82972717 C-138.2308547 24.69988828 -136.52786659 22.17919187 -133.52394104 19.35220337 C-131.0829229 17.94355595 -129.63012409 17.76069375 -126.82669067 17.7522583 C-125.46991966 17.73807358 -125.46991966 17.73807358 -124.08573914 17.72360229 C-122.63094398 17.73271133 -122.63094398 17.73271133 -121.14675903 17.74200439 C-119.64150917 17.73769913 -119.64150917 17.73769913 -118.10585022 17.73330688 C-115.98512202 17.73126684 -113.86437499 17.7367925 -111.74368286 17.74932861 C-108.50196086 17.76536592 -105.26148884 17.74948614 -102.01980591 17.73028564 C-99.9579542 17.73226842 -97.89610327 17.73611279 -95.83425903 17.74200439 C-94.38250023 17.73289536 -94.38250023 17.73289536 -92.90141296 17.72360229 C-87.96502097 17.77503189 -84.36820701 17.8191423 -80.42410278 21.14044189 C-77.51803238 25.49954749 -77.29804465 29.33055057 -77.31057739 34.48150635 C-77.31069069 36.04255852 -77.31069069 36.04255852 -77.31080627 37.63514709 C-77.31596756 38.74677719 -77.32112885 39.85840729 -77.32644653 41.00372314 C-77.32786148 42.15084274 -77.32927643 43.29796234 -77.33073425 44.47984314 C-77.33632418 48.13756944 -77.34887489 51.79523415 -77.36160278 55.45294189 C-77.36661908 57.93536288 -77.37118176 60.41778484 -77.37527466 62.90020752 C-77.38629032 68.9803066 -77.40301848 75.06036985 -77.42410278 81.14044189 C-75.53302216 80.70132945 -73.64411251 80.2528624 -71.75613403 79.80059814 C-70.70401733 79.55188965 -69.65190063 79.30318115 -68.56790161 79.04693604 C-60.44432646 76.70455547 -54.98250273 72.49629553 -50.29104614 65.56304932 C-46.09658255 57.87347365 -43.63024077 49.3612143 -40.86160278 41.07794189 C-39.90908353 38.23878094 -38.95162823 35.40180003 -37.97807312 32.56977844 C-37.37667248 30.81981737 -36.78684026 29.0658167 -36.21131897 27.30717468 C-32.51878854 16.54758241 -26.4241123 8.12015463 -16.23660278 2.82794189 C-10.84646829 0.22618655 -5.9321343 -0.00640496 0 0 Z " fill="#FBB65F" transform="translate(179.42410278320313,43.85955810546875)"/>
<path d="M0 0 C44.88 0 89.76 0 136 0 C134.69236426 3.26908935 133.412999 6.27019453 131.828125 9.37890625 C127.40086824 18.23341978 123.34320563 26.99959986 120.5 36.5 C120.26958008 37.26256104 120.03916016 38.02512207 119.80175781 38.81079102 C116.409707 50.80741247 115.62430506 62.7949011 115.6875 75.1875 C115.68899048 75.91167114 115.69048096 76.63584229 115.6920166 77.38195801 C115.73309351 88.4954064 116.3124281 99.18020625 119 110 C119.2784375 111.12148438 119.556875 112.24296875 119.84375 113.3984375 C122.34063568 122.28821153 126.14193759 130.63588614 130 139 C130.41121094 139.9178125 130.82242188 140.835625 131.24609375 141.78125 C146.26122254 173.78581517 176.7473114 197.60949512 209.453125 209.49609375 C221.19247353 213.52484774 233.48871642 216.14797541 245.91796875 216.16796875 C247.02571404 216.17296135 247.02571404 216.17296135 248.15583801 216.17805481 C249.71138899 216.18308935 251.26695065 216.18546422 252.82250977 216.18530273 C255.16376239 216.18747795 257.50453428 216.20563958 259.84570312 216.22460938 C292.40371789 216.35170806 323.37944807 204.13725841 348 183 C348.90492188 182.22914063 349.80984375 181.45828125 350.7421875 180.6640625 C376.4534612 158.08657285 391.71309633 125.63857761 396 92 C396.7463549 75.53722021 397.5355228 57.9580391 393 42 C392.77957031 41.20303711 392.55914062 40.40607422 392.33203125 39.58496094 C388.67420986 26.73904056 383.45101129 15.20618299 376.80688477 3.63793945 C376 2 376 2 376 0 C420.88 0 465.76 0 512 0 C512.16121214 55.81074616 512.16121214 55.81074616 512.1953125 79.18554688 C512.20316685 84.5266118 512.21122546 89.8676763 512.21972656 95.20874023 C512.22078156 95.87812793 512.22183655 96.54751563 512.22292352 97.2371878 C512.24030657 108.03484931 512.27183397 118.83242535 512.30861118 129.63003623 C512.34605689 140.71662243 512.36794423 151.80317384 512.37635398 162.88982159 C512.38156692 169.11481386 512.39381206 175.33961256 512.42292023 181.56454277 C512.45010534 187.42580301 512.45843859 193.28679023 512.45243073 199.14810753 C512.45352956 201.29710627 512.46146477 203.4461143 512.4768219 205.59505844 C512.49679793 208.53497282 512.49191114 211.47386379 512.48101807 214.4138031 C512.49849512 215.68183837 512.49849512 215.68183837 512.51632524 216.97549051 C512.42401946 226.22670606 508.33048326 234.33189097 502 241 C490.90152035 250.25571322 479.42553029 250.43722324 465.6802063 250.38768005 C463.79936622 250.39185524 461.91852866 250.39733377 460.03769577 250.40399987 C454.88009867 250.41844895 449.72266144 250.41421138 444.56505561 250.40683305 C438.99847397 250.40210238 433.43192698 250.41461036 427.86535645 250.42485046 C416.96413724 250.44204578 406.06297565 250.44287694 395.1617464 250.43763756 C386.30096946 250.43359597 377.44020956 250.43503929 368.57943344 250.44038582 C366.68767939 250.44150845 366.68767939 250.44150845 364.7577081 250.44265376 C362.19563294 250.44418524 359.63355779 250.44572359 357.07148264 250.44726873 C339.86955267 250.45709728 322.66763087 250.46126147 305.46570015 250.45364285 C304.79328742 250.45334567 304.12087469 250.4530485 303.42808581 250.45274232 C297.9679062 250.45029348 292.50772666 250.44768184 287.04754712 250.44505819 C265.75155745 250.43495668 244.45564664 250.44331038 223.15966797 250.46655273 C199.22242316 250.49263561 175.28523218 250.50542099 151.34796798 250.49836498 C138.67771512 250.49487146 126.007527 250.49711365 113.33728409 250.51461601 C102.55130908 250.52933072 91.76544441 250.52998292 80.97947158 250.5125451 C75.47735319 250.50402677 69.97543198 250.5019061 64.47332382 250.51719666 C59.43365971 250.53102858 54.39436199 250.52629957 49.35471915 250.50695742 C47.53448255 250.50319255 45.71421672 250.5061334 43.89400615 250.51656907 C31.64456428 250.58178755 20.80083899 249.90181185 10.8515625 241.8359375 C3.78378754 234.82780621 -0.20804657 227.33318038 -0.25816262 217.36273444 C-0.25233693 216.50863907 -0.24651125 215.6545437 -0.24050903 214.77456665 C-0.24221788 213.85472437 -0.24392673 212.93488209 -0.24568737 211.98716581 C-0.24897718 208.91014675 -0.23798684 205.83334657 -0.22705078 202.75634766 C-0.22648656 200.54859421 -0.22680344 198.34084039 -0.22793579 196.13308716 C-0.22850987 190.14186513 -0.21674654 184.1507231 -0.20278788 178.15951967 C-0.19028977 171.89747809 -0.18911074 165.6354347 -0.18673706 159.37338257 C-0.18122611 148.86365467 -0.16873161 138.35395152 -0.15087891 127.84423828 C-0.13251221 117.02067204 -0.11838251 106.19711381 -0.10986328 95.37353516 C-0.10932729 94.69922246 -0.10879129 94.02490977 -0.10823905 93.33016336 C-0.10361317 87.46432917 -0.09930766 81.59849475 -0.09503365 75.73266029 C-0.07622477 50.48841259 -0.03638081 25.24424266 0 0 Z " fill="#53BBE8" transform="translate(0,218)"/>
<path d="M0 0 C12.62157525 4.31684064 23.68815621 10.6592628 33.95703125 19.17993164 C35.23126953 20.20860352 35.23126953 20.20860352 36.53125 21.25805664 C57.39489596 38.94466389 70.87931129 65.8676935 73.20068359 93.03100586 C74.88703345 121.64226934 66.21389995 150.8363285 47.24609375 172.67211914 C46.49070312 173.49969727 45.7353125 174.32727539 44.95703125 175.17993164 C44.22226562 176.00750977 43.4875 176.83508789 42.73046875 177.68774414 C25.41343223 196.16311086 -0.81268162 208.69366095 -26.10668945 210.38476562 C-29.19283281 210.48186388 -32.26787695 210.50928662 -35.35546875 210.49243164 C-36.44851318 210.48679199 -37.54155762 210.48115234 -38.66772461 210.4753418 C-53.1415646 210.25885045 -65.78866236 206.78139072 -79.04296875 201.17993164 C-80.07035156 200.75067383 -81.09773438 200.32141602 -82.15625 199.87915039 C-106.78694453 188.58036089 -126.60607915 166.44906158 -136.04296875 141.17993164 C-145.87538271 112.71188911 -146.10099258 83.6896431 -133.04296875 56.17993164 C-120.5871689 31.32308272 -99.90991876 10.44360829 -73.421875 0.87133789 C-70.30943217 -0.09313077 -67.18682258 -0.96534632 -64.04296875 -1.82006836 C-63.02847656 -2.17198242 -62.01398438 -2.52389648 -60.96875 -2.88647461 C-58.32259348 -3.73084231 -56.04739808 -4.1593646 -53.29296875 -4.38256836 C-34.60166446 -5.94017705 -18.30405823 -5.84637757 0 0 Z " fill="#556267" transform="translate(291.04296875,191.820068359375)"/>
<path d="M0 0 C2.16365322 -0.00961837 4.32631846 -0.04066111 6.48974609 -0.07226562 C16.10667788 -0.14446656 24.83759341 0.99123325 34.19677734 3.24023438 C35.63996338 3.57474609 35.63996338 3.57474609 37.11230469 3.91601562 C54.44907833 8.06921298 70.51692784 16.11860509 85.07177734 26.24023438 C85.77375244 26.72645264 86.47572754 27.2126709 87.19897461 27.71362305 C92.01041615 31.14578849 96.12613785 34.96546251 100.19677734 39.24023438 C101.02177734 40.06523437 101.84677734 40.89023438 102.69677734 41.74023438 C103.52177734 42.56523437 104.34677734 43.39023438 105.19677734 44.24023438 C105.68404297 44.66949219 106.17130859 45.09875 106.67333984 45.54101562 C122.03227034 59.62610118 132.63540001 81.47824086 138.19677734 101.24023438 C138.3846582 101.89040527 138.57253906 102.54057617 138.76611328 103.21044922 C142.35712596 115.67604718 143.43455936 127.19076749 143.44677734 140.11523438 C143.44778442 140.85189331 143.4487915 141.58855225 143.4498291 142.34753418 C143.43945162 153.5655964 142.91011883 164.3166958 140.19677734 175.24023438 C139.91833984 176.36171875 139.63990234 177.48320312 139.35302734 178.63867188 C136.85614166 187.5284459 133.05483975 195.87612052 129.19677734 204.24023438 C128.78556641 205.15804687 128.37435547 206.07585937 127.95068359 207.02148438 C117.4686996 229.36370632 98.73088791 248.04512049 78.19677734 261.24023438 C77.27767578 261.84480469 76.35857422 262.449375 75.41162109 263.07226562 C63.49180089 270.49910156 49.98193306 275.38009215 36.50927734 279.17773438 C35.80399902 279.37705566 35.0987207 279.57637695 34.37207031 279.78173828 C24.4901701 282.40957961 14.54204983 282.45469752 4.38818359 282.48046875 C2.09744258 282.49012617 -0.19238038 282.5212088 -2.48291016 282.55273438 C-12.32521151 282.62292233 -21.226323 281.54158964 -30.80322266 279.24023438 C-32.05321045 278.96058838 -33.30319824 278.68094238 -34.59106445 278.39282227 C-68.86484341 270.55354141 -99.04182388 246.46994986 -117.80322266 217.24023438 C-136.42506021 185.93870341 -144.91455465 147.2559488 -136.89306641 111.17773438 C-136.53831874 109.86290222 -136.17440779 108.55052103 -135.80322266 107.24023438 C-135.4805542 106.06074219 -135.4805542 106.06074219 -135.15136719 104.85742188 C-129.31517933 84.12766296 -119.4949245 65.81649382 -105.80322266 49.24023438 C-105.05943359 48.33660156 -104.31564453 47.43296875 -103.54931641 46.50195312 C-99.34523205 41.60678641 -94.80519974 37.30805615 -89.80322266 33.24023438 C-88.86865234 32.46808594 -87.93408203 31.6959375 -86.97119141 30.90039062 C-62.24573009 10.91290544 -31.72995164 0.08489619 0 0 Z M-11.80322266 34.24023438 C-13.59759766 34.36398438 -13.59759766 34.36398438 -15.42822266 34.49023438 C-40.15842591 37.14131216 -65.44412334 53.0964224 -80.93994141 71.97070312 C-91.13350019 84.88826561 -98.3936324 98.35568765 -102.80322266 114.24023438 C-103.28275391 115.93986328 -103.28275391 115.93986328 -103.77197266 117.67382812 C-110.29568174 144.76534222 -104.20343309 172.96744893 -90.80712891 196.98242188 C-75.23927099 222.291571 -50.70096094 240.20337234 -21.80322266 247.24023438 C6.85050416 253.73760851 36.46404774 247.75696587 61.19677734 232.24023438 C74.60719774 223.17849017 85.69244681 212.06761682 94.19677734 198.24023438 C94.54869141 197.67353027 94.90060547 197.10682617 95.26318359 196.52294922 C109.56283628 173.02218237 114.18222666 143.62729296 108.03759766 116.84985352 C100.99593992 89.06280258 83.49129281 64.47516944 59.19677734 49.24023438 C42.73728048 39.46384677 7.057154 24.81004605 -11.80322266 34.24023438 Z " fill="#E4E8E9" transform="translate(253.80322265625,152.759765625)"/>
<path d="M0 0 C25.93454894 -1.4943082 49.41317227 7.68749584 68.79296875 24.9296875 C83.59471053 38.71138749 96.19943719 60.87833564 97.10668945 81.41503906 C97.73838474 109.71297445 92.16172173 133.4194416 73 155 C72.39800781 155.68449219 71.79601562 156.36898437 71.17578125 157.07421875 C55.6884185 173.60056601 33.29638833 183.26567322 10.8671875 184.375 C-1.34650421 184.72599469 -12.40234099 183.96218956 -24 180 C-24.89074219 179.71125 -25.78148437 179.4225 -26.69921875 179.125 C-50.80889062 170.42843559 -68.32022503 152.65638856 -79.20703125 129.89453125 C-85.82933782 115.68323336 -87.35371002 102.48463886 -87 87 C-69.06217852 87.04948365 -47.75116222 92.06438236 -33.69921875 103.9453125 C-31.8873452 106.13622166 -30.86344815 108.14087524 -29.75 110.75 C-24.81140637 120.89575127 -17.16769139 125.64672176 -7 130 C1.71980022 132.90660007 13.30349351 131.86184371 21.640625 128.26171875 C31.22863505 123.13435576 37.71141568 115.94171819 42 106 C42.35835937 105.22914063 42.71671875 104.45828125 43.0859375 103.6640625 C46.38903001 94.03710056 43.83031413 83.08058896 40 74 C35.84218504 65.69700782 29.40255314 59.73520837 20.8125 56.1875 C15.50549056 53.68637476 13.52168558 49.07078078 11 44 C10.2265625 42.50726563 10.2265625 42.50726563 9.4375 40.984375 C3.95634184 29.85762394 -0.23163784 17.14120029 -0.0625 4.625 C-0.05347656 3.75101563 -0.04445313 2.87703125 -0.03515625 1.9765625 C-0.02355469 1.32429687 -0.01195312 0.67203125 0 0 Z " fill="#556267" transform="translate(251,202)"/>
<path d="M0 0 C12.62157525 4.31684064 23.68815621 10.6592628 33.95703125 19.17993164 C35.23126953 20.20860352 35.23126953 20.20860352 36.53125 21.25805664 C57.39489596 38.94466389 70.87931129 65.8676935 73.20068359 93.03100586 C74.88703345 121.64226934 66.21389995 150.8363285 47.24609375 172.67211914 C46.49070312 173.49969727 45.7353125 174.32727539 44.95703125 175.17993164 C44.22226562 176.00750977 43.4875 176.83508789 42.73046875 177.68774414 C25.41343223 196.16311086 -0.81268162 208.69366095 -26.10668945 210.38476562 C-29.19283281 210.48186388 -32.26787695 210.50928662 -35.35546875 210.49243164 C-36.44851318 210.48679199 -37.54155762 210.48115234 -38.66772461 210.4753418 C-53.1415646 210.25885045 -65.78866236 206.78139072 -79.04296875 201.17993164 C-80.07035156 200.75067383 -81.09773438 200.32141602 -82.15625 199.87915039 C-106.78694453 188.58036089 -126.60607915 166.44906158 -136.04296875 141.17993164 C-145.87538271 112.71188911 -146.10099258 83.6896431 -133.04296875 56.17993164 C-120.5871689 31.32308272 -99.90991876 10.44360829 -73.421875 0.87133789 C-70.30943217 -0.09313077 -67.18682258 -0.96534632 -64.04296875 -1.82006836 C-63.02847656 -2.17198242 -62.01398438 -2.52389648 -60.96875 -2.88647461 C-58.32259348 -3.73084231 -56.04739808 -4.1593646 -53.29296875 -4.38256836 C-34.60166446 -5.94017705 -18.30405823 -5.84637757 0 0 Z M-105.0234375 41.43383789 C-114.81510544 53.01489691 -121.45884073 66.44727909 -125.04296875 81.17993164 C-125.26726562 82.09387695 -125.4915625 83.00782227 -125.72265625 83.94946289 C-130.71501331 108.39833481 -125.35914615 131.90570082 -112.73046875 153.05493164 C-98.71625242 173.77436259 -77.56866623 188.26861439 -53.04296875 193.17993164 C-52.26381104 193.35282715 -51.48465332 193.52572266 -50.68188477 193.70385742 C-27.06881306 197.96377877 -1.93719548 192.17719831 17.7265625 178.68774414 C37.09360893 164.60411809 52.41554038 143.11871109 56.29418945 119.09130859 C59.73157452 91.35484811 54.2225939 66.33252643 36.95703125 44.17993164 C23.93673503 27.72439122 6.21252971 17.23754683 -14.04296875 12.17993164 C-14.69475098 12.00478027 -15.3465332 11.82962891 -16.01806641 11.64916992 C-48.2771424 3.56818128 -83.33311678 17.07991987 -105.0234375 41.43383789 Z " fill="#445155" transform="translate(291.04296875,191.820068359375)"/>
<path d="M0 0 C8.91 0 17.82 0 27 0 C27.00142502 2.76711365 27.00285004 5.53422729 27.00431824 8.38519287 C27.02011732 34.45854743 27.06345414 60.53175262 27.13209057 86.60502243 C27.13898903 89.27558122 27.145847 91.94614004 27.15258789 94.61669922 C27.15426695 95.28045859 27.15594602 95.94421796 27.15767596 96.62809125 C27.18265015 106.69168411 27.19307005 116.75522605 27.19555664 126.81884766 C27.19859981 138.50484592 27.219138 150.19066138 27.26052457 161.87658906 C27.28182389 168.06198313 27.29447075 174.24711749 27.28615379 180.43254852 C27.27859453 186.26030152 27.29451349 192.08752911 27.32806015 197.91518593 C27.3362707 200.04838068 27.33607035 202.18162791 27.32659721 204.31481743 C27.27362086 217.56079152 27.45869806 228.9442469 36.625 239.4375 C41.12339304 243.56533576 46.34617272 245.83824251 52 248 C52 248.33 52 248.66 52 249 C47.58385263 249.17668214 43.16863222 249.28164862 38.75 249.375 C37.51507813 249.42527344 36.28015625 249.47554687 35.0078125 249.52734375 C25.20467197 249.68213018 17.19995916 247.68428423 9.76708984 240.98852539 C2.57160918 233.40036514 -0.15502118 225.43381628 -0.12025452 215.1353302 C-0.12110894 214.2180512 -0.12196337 213.30077219 -0.12284368 212.35569686 C-0.12449619 209.26941957 -0.11898082 206.18319614 -0.11352539 203.09692383 C-0.11324344 200.88961285 -0.1134014 198.68230177 -0.1139679 196.47499084 C-0.11425558 190.47121956 -0.10836355 184.46746814 -0.10139394 178.46370149 C-0.09515555 172.19363139 -0.09455622 165.92356088 -0.09336853 159.65348816 C-0.09061052 149.12584088 -0.08435831 138.59820013 -0.07543945 128.07055664 C-0.06626207 117.22648149 -0.05918283 106.38240833 -0.05493164 95.53833008 C-0.05466892 94.87003124 -0.05440619 94.2017324 -0.05413551 93.51318208 C-0.05283048 90.16056204 -0.05156677 86.80794198 -0.05032361 83.45532191 C-0.03986246 55.63687601 -0.02206506 27.8184389 0 0 Z " fill="#36A6CE" transform="translate(0,218)"/>
<path d="M0 0 C0.69013687 -0.00511093 1.38027374 -0.01022186 2.09132385 -0.01548767 C4.36329933 -0.02933926 6.63496983 -0.02842989 8.90698242 -0.02612305 C10.49493013 -0.03001323 12.0828768 -0.03434857 13.67082214 -0.03910828 C16.99705377 -0.04656156 20.32317925 -0.0462863 23.64941406 -0.04101562 C27.89613202 -0.03523087 32.14241243 -0.052132 36.38905811 -0.0753603 C39.66890471 -0.09014957 42.9486473 -0.09096216 46.22852135 -0.08785057 C47.79329989 -0.08836146 49.3580846 -0.09355536 50.92283058 -0.10366249 C68.84450384 -0.20519715 68.84450384 -0.20519715 75.41088867 5.3605957 C76.35834961 6.49368164 76.35834961 6.49368164 77.32495117 7.6496582 C78.29561523 8.77500977 78.29561523 8.77500977 79.28588867 9.9230957 C83.79179329 16.29059472 83.28322845 22.62828305 83.26245117 30.1496582 C83.27856445 31.30852539 83.29467773 32.46739258 83.3112793 33.66137695 C83.31637952 42.58676294 82.09115729 48.94185899 75.78565979 55.58351135 C68.25217484 62.52373554 58.5082864 61.88074386 48.89135742 61.84106445 C47.33633556 61.84631013 45.78131687 61.85259004 44.2263031 61.85984802 C40.97932887 61.87021105 37.73279401 61.8657506 34.48583984 61.85107422 C30.34894714 61.83389477 26.21344462 61.8573913 22.07670689 61.89256382 C18.86877953 61.91464843 15.66117917 61.91306984 12.45319939 61.90479851 C10.92914238 61.90398497 9.40505991 61.91073271 7.88107491 61.92556953 C-0.93127328 61.99822679 -8.71591619 61.723287 -16.05004883 56.2746582 C-23.44878951 48.53037178 -24.43007226 40.92153112 -24.48754883 30.5246582 C-24.52041992 29.49083008 -24.55329102 28.45700195 -24.5871582 27.3918457 C-24.64362745 19.23974036 -22.9185471 12.41951496 -17.23535156 6.33032227 C-11.94285995 1.4449454 -7.20942894 0.02670494 0 0 Z " fill="#E29A4C" transform="translate(308.050048828125,64.725341796875)"/>
<path d="M0 0 C25.93454894 -1.4943082 49.41317227 7.68749584 68.79296875 24.9296875 C83.40351312 38.53336619 94.62822776 59.03758368 97 79 C97.10800059 82.12670548 97.09492797 85.24694796 97.0625 88.375 C97.05798828 89.20644531 97.05347656 90.03789062 97.04882812 90.89453125 C97.03713164 92.92971897 97.01919935 94.96486923 97 97 C79.2171745 97.53083061 56.50949436 92.06204854 43 80 C41.16402836 77.2979287 39.72817002 74.58422036 38.30859375 71.64453125 C34.08918325 63.11754347 26.88820605 58.76663777 18.47265625 54.8125 C14.95146954 52.23140895 13.4442632 49.09760352 11.5 45.25 C11.11126709 44.4957373 10.72253418 43.74147461 10.32202148 42.96435547 C3.52732235 29.42034029 -0.59504068 15.23965297 0 0 Z " fill="#6E7A7E" transform="translate(251,202)"/>
<path d="M0 0 C17.93782148 0.04948365 39.24883778 5.06438236 53.30078125 16.9453125 C55.1126548 19.13622166 56.13655185 21.14087524 57.25 23.75 C61.08363915 31.62575415 65.81292412 36.23363107 73.9375 39.5 C82.32644728 43.36040052 85.32652082 50.9841951 89 59 C89.44085938 59.92683594 89.88171875 60.85367188 90.3359375 61.80859375 C95.25769607 73.07683047 96.51298746 84.85827359 97 97 C69.9422669 98.12740555 47.00737665 89.20335895 26.85546875 71.0703125 C12.13919725 57.05749566 0.67815467 34.37455782 -0.07714844 13.90966797 C-0.16058728 9.27067201 -0.10594798 4.63816717 0 0 Z " fill="#6E7A7E" transform="translate(164,289)"/>
<path d="M0 0 C9.24194903 8.94058113 13.13605432 19.6779239 13.5625 32.375 C13.28648385 43.35564243 8.85255553 51.5017642 1.2421875 59.22265625 C-8.32283277 68.0562338 -18.67352249 71.03153791 -31.54296875 70.6796875 C-42.53154226 70.00295072 -50.60947382 64.23852856 -57.875 56.3125 C-65.79130714 46.60540034 -68.0666106 36.6237514 -67.12939453 24.26660156 C-65.77425141 13.85722965 -59.0712099 4.47478361 -51.0625 -2 C-35.45299792 -12.89035029 -14.70694215 -12.14921308 0 0 Z " fill="#435054" transform="translate(282.875,263.6875)"/>
<path d="M0 0 C1.35677101 -0.01418472 1.35677101 -0.01418472 2.74095154 -0.02865601 C4.19574669 -0.01954697 4.19574669 -0.01954697 5.67993164 -0.01025391 C7.1851815 -0.01455917 7.1851815 -0.01455917 8.72084045 -0.01895142 C10.84156865 -0.02099146 12.96231569 -0.0154658 15.08300781 -0.00292969 C18.32472981 0.01310761 21.56520183 -0.00277217 24.80688477 -0.02197266 C26.86873647 -0.01998989 28.9305874 -0.01614551 30.99243164 -0.01025391 C32.44419044 -0.01936295 32.44419044 -0.01936295 33.92527771 -0.02865601 C38.8616697 0.02277359 42.45848366 0.066884 46.40258789 3.38818359 C49.30263149 7.73824899 49.52748648 11.57286485 49.53198242 16.71337891 C49.53513458 17.75085266 49.53828674 18.78832642 49.54153442 19.85723877 C49.53951019 20.96573181 49.53748596 22.07422485 49.53540039 23.21630859 C49.53635712 24.36105652 49.53731384 25.50580444 49.53829956 26.6852417 C49.53897903 29.09924372 49.53714102 31.5132476 49.53295898 33.92724609 C49.52758783 37.6382248 49.53292196 41.34908355 49.53930664 45.06005859 C49.5386462 47.40380886 49.53736576 49.74755906 49.53540039 52.09130859 C49.53742462 53.20789856 49.53944885 54.32448853 49.54153442 55.47491455 C49.53680618 57.01221222 49.53680618 57.01221222 49.53198242 58.58056641 C49.53118683 59.48703918 49.53039124 60.39351196 49.52957153 61.32745361 C49.40258789 63.38818359 49.40258789 63.38818359 48.40258789 64.38818359 C46.53077849 64.4820474 44.65540729 64.50562163 42.78125 64.50170898 C41.58008041 64.50163345 40.37891083 64.50155792 39.14134216 64.5014801 C37.83407669 64.49631882 36.52681122 64.49115753 35.17993164 64.48583984 C33.83614657 64.48397558 32.49236082 64.48255172 31.14857483 64.48155212 C27.60576513 64.47772761 24.06299619 64.46789791 20.52020264 64.45684814 C16.90743562 64.44663259 13.29466205 64.4420542 9.68188477 64.43701172 C2.58876909 64.42627557 -4.50431885 64.40919995 -11.59741211 64.38818359 C-11.67347566 56.50453877 -11.72601788 48.6209886 -11.76220703 40.73706055 C-11.77559913 38.05498806 -11.79647288 35.37312867 -11.82373047 32.69116211 C-11.86011822 28.83620108 -11.8771401 24.98156627 -11.89038086 21.12646484 C-11.91360664 19.32777702 -11.91360664 19.32777702 -11.93730164 17.49275208 C-11.93752823 16.37196762 -11.93775482 15.25118317 -11.93798828 14.09643555 C-11.94798103 12.62083916 -11.94798103 12.62083916 -11.95817566 11.11543274 C-11.40859641 6.96080143 -9.71890714 4.44362039 -6.69725037 1.59994507 C-4.25623223 0.19129765 -2.80343342 0.00843545 0 0 Z " fill="#E4E8E9" transform="translate(52.597412109375,61.61181640625)"/>
<path d="M0 0 C6.87411149 3.96455218 12.95356984 10.17320953 15.5 17.8125 C16.14537823 26.54097602 16.47151386 35.24193734 11.5 42.8125 C5.83509307 49.31211816 -0.0347005 53.40293824 -8.6796875 54.05078125 C-17.27308376 54.23589976 -23.5677994 53.1884923 -30.5 47.8125 C-37.26806912 41.30474123 -40.49947481 35.46257271 -41.0625 26.0625 C-40.84690354 18.32062727 -37.83294806 11.76442413 -32.859375 5.8671875 C-31.1559668 4.28317707 -29.47343079 3.0413167 -27.5 1.8125 C-26.84386719 1.40257812 -26.18773438 0.99265625 -25.51171875 0.5703125 C-17.47778893 -3.68899216 -8.21376533 -3.86818159 0 0 Z " fill="#556369" transform="translate(109.5,384.1875)"/>
<path d="M0 0 C1.01320312 0.05220703 2.02640625 0.10441406 3.0703125 0.15820312 C5.54727608 0.28672482 8.02371337 0.42162766 10.5 0.5625 C10.5 0.8925 10.5 1.2225 10.5 1.5625 C9.57380859 1.76552734 9.57380859 1.76552734 8.62890625 1.97265625 C-1.35782797 4.5111412 -7.75939446 9.63762815 -13.30859375 18.25390625 C-15.88640411 23.24894207 -16.75451448 27.70525976 -16.81884766 33.30224609 C-16.82889328 33.94685791 -16.8389389 34.59146973 -16.84928894 35.25561523 C-16.87994044 37.36571438 -16.89710505 39.47568774 -16.9140625 41.5859375 C-16.93278874 43.05710926 -16.95236322 44.52827045 -16.9727478 45.99942017 C-17.02392149 49.85607651 -17.06362578 53.71276761 -17.10089111 57.56958008 C-17.14102376 61.51131689 -17.19207369 65.45291093 -17.2421875 69.39453125 C-17.33877187 77.11709665 -17.42222204 84.8397181 -17.5 92.5625 C-26.41 92.5625 -35.32 92.5625 -44.5 92.5625 C-44.59072601 84.12986678 -44.66395905 75.69761931 -44.70724869 67.26462746 C-44.72803592 63.34794461 -44.75618872 59.43161585 -44.80175781 55.51513672 C-44.84553565 51.72848454 -44.8692036 47.94217079 -44.87950897 44.15528488 C-44.88684359 42.71771296 -44.90116499 41.28015749 -44.92292023 39.84273148 C-45.08619571 28.59732266 -43.66121173 17.99230857 -35.5 9.5625 C-24.32403029 0.63856185 -13.82539736 -0.78924512 0 0 Z " fill="#E29A4B" transform="translate(44.5,125.4375)"/>
<path d="M0 0 C1.05692047 0.00212242 1.05692047 0.00212242 2.13519287 0.00428772 C4.37663084 0.00986692 6.61796743 0.02241552 8.859375 0.03515625 C10.38281105 0.04017394 11.90624868 0.04473638 13.4296875 0.04882812 C17.15628272 0.05982951 20.88281896 0.07707979 24.609375 0.09765625 C24.609375 0.42765625 24.609375 0.75765625 24.609375 1.09765625 C23.66578125 1.24460938 23.66578125 1.24460938 22.703125 1.39453125 C13.08130896 3.07545092 5.33056908 6.35238956 -0.83203125 14.2109375 C-3.54519185 18.08052721 -5.11578965 22.02382607 -6.640625 26.47265625 C-6.92800537 27.27558105 -7.21538574 28.07850586 -7.51147461 28.90576172 C-8.86162711 32.68704665 -10.17748769 36.4797954 -11.48681641 40.27539062 C-12.25243008 42.49203697 -13.02283049 44.70703543 -13.79785156 46.92041016 C-14.54976266 49.06968096 -15.29060172 51.22286796 -16.01855469 53.38037109 C-20.34114366 65.7269395 -26.59031567 74.58915664 -38.49609375 80.3359375 C-42.75898261 82.04988251 -46.53062913 82.21546325 -51.125 82.1953125 C-53.06826172 82.19047852 -53.06826172 82.19047852 -55.05078125 82.18554688 C-56.41406317 82.17719223 -57.77734442 82.16872729 -59.140625 82.16015625 C-60.51952965 82.15513793 -61.89843604 82.1505756 -63.27734375 82.14648438 C-66.64848159 82.13469718 -70.01953128 82.1182426 -73.390625 82.09765625 C-70.72699209 80.32190097 -68.60952527 79.36852824 -65.640625 78.28515625 C-56.1375352 74.50049549 -50.58222794 69.17831628 -46.32592773 59.7355957 C-45.39997969 57.2899754 -44.55330248 54.83110805 -43.734375 52.34765625 C-43.42415405 51.44950195 -43.11393311 50.55134766 -42.79431152 49.62597656 C-41.81414369 46.787227 -40.85033182 43.94338297 -39.890625 41.09765625 C-38.62417878 37.34238455 -37.34070681 33.59356899 -36.046875 29.84765625 C-35.76855835 29.00364258 -35.4902417 28.15962891 -35.20349121 27.29003906 C-31.48165054 16.52700823 -25.40640454 8.08556121 -15.203125 2.78515625 C-10.05663612 0.30100581 -5.73180743 -0.02274527 0 0 Z " fill="#E29A4B" transform="translate(178.390625,43.90234375)"/>
<path d="M0 0 C1.28483276 -0.01260864 2.56966553 -0.02521729 3.89343262 -0.03820801 C5.28768464 -0.03104796 6.68193164 -0.02284391 8.07617188 -0.01367188 C9.51436627 -0.01636852 10.95255889 -0.02025238 12.39074707 -0.02526855 C15.40016087 -0.03115562 18.40909871 -0.02262697 21.41845703 -0.00390625 C25.26885108 0.01888377 29.11812981 0.0057563 32.96848297 -0.01819611 C35.93687284 -0.03267606 38.90499988 -0.02803824 41.87339783 -0.01768494 C43.29272088 -0.01502367 44.71206808 -0.01826629 46.13136292 -0.02760315 C48.11751832 -0.03780286 50.10375779 -0.01949036 52.08984375 0 C53.21837769 0.00318237 54.34691162 0.00636475 55.50964355 0.00964355 C59.21753282 0.6301353 60.89847177 1.893077 63.54492188 4.51757812 C64.17602539 6.92773438 64.17602539 6.92773438 64.17382812 9.58007812 C64.17576172 10.54171875 64.17769531 11.50335938 64.1796875 12.49414062 C64.15583984 13.491875 64.13199219 14.48960938 64.10742188 15.51757812 C64.11837891 16.5153125 64.12933594 17.51304688 64.140625 18.54101562 C64.06727943 25.83645508 64.06727943 25.83645508 61.9203949 28.63586426 C58.79777818 31.10942263 56.96163758 31.02438487 53.00390625 31.03515625 C52.03243401 31.04567017 52.03243401 31.04567017 51.04133606 31.05639648 C48.90667476 31.07396038 46.77334596 31.06236133 44.63867188 31.04882812 C43.1518122 31.05152355 41.66495424 31.05540639 40.17810059 31.0604248 C37.06436352 31.06631761 33.95108593 31.05776459 30.83740234 31.0390625 C26.84901099 31.01627227 22.86169628 31.02939664 18.87334442 31.05335236 C15.80377105 31.0678167 12.73445232 31.0632016 9.66487122 31.05284119 C8.19448214 31.05017562 6.72406983 31.05343774 5.25370789 31.0627594 C3.19716286 31.07293647 1.14235344 31.05741215 -0.9140625 31.03515625 C-2.08336304 31.03197388 -3.25266357 31.0287915 -4.45739746 31.0255127 C-8.07220651 30.41301034 -9.25024891 29.39254371 -11.45507812 26.51757812 C-12.2585132 22.88759594 -12.05831117 19.22668116 -12.01757812 15.51757812 C-12.05334961 14.02097656 -12.05334961 14.02097656 -12.08984375 12.49414062 C-12.08791016 11.5325 -12.08597656 10.57085937 -12.08398438 9.58007812 C-12.08470947 8.70480469 -12.08543457 7.82953125 -12.08618164 6.92773438 C-10.53529678 1.00497407 -5.45155129 0.01537293 0 0 Z " fill="#E4E7E7" transform="translate(311.455078125,79.482421875)"/>
<path d="M0 0 C0 21.12 0 42.24 0 64 C-8.91 64 -17.82 64 -27 64 C-27.06886734 56.11596483 -27.12860499 48.23297324 -27.16479492 40.34887695 C-27.17818702 37.66680446 -27.19906077 34.98494508 -27.22631836 32.30297852 C-27.26270611 28.44801749 -27.279728 24.59338267 -27.29296875 20.73828125 C-27.31619453 18.93959343 -27.31619453 18.93959343 -27.33988953 17.10456848 C-27.34011612 15.98378403 -27.34034271 14.86299957 -27.34057617 13.70825195 C-27.35056892 12.23265556 -27.35056892 12.23265556 -27.36076355 10.72724915 C-26.92646147 7.44407387 -25.96668419 5.65157697 -24 3 C-20 0 -20 0 0 0 Z " fill="#D1D1D0" transform="translate(68,62)"/>
</svg>
