<?xml version="1.0" encoding="UTF-8"?>
<svg version="1.1" xmlns="http://www.w3.org/2000/svg" width="512" height="512">
<path d="M0 0 C1.5052796 -0.00570793 3.01055487 -0.01267382 4.51582336 -0.02079773 C8.59025897 -0.03869759 12.66447884 -0.03756679 16.73894191 -0.03185534 C20.14593979 -0.02875892 23.5528965 -0.03486098 26.95988852 -0.04089409 C34.99998674 -0.05492725 43.03997869 -0.05338808 51.08007812 -0.04199219 C59.36273805 -0.03051161 67.64507414 -0.04458828 75.9276914 -0.07138866 C83.05063938 -0.09357004 90.17348588 -0.10017757 97.29646593 -0.09431225 C101.5455565 -0.09094735 105.79443951 -0.09332655 110.0435009 -0.11056328 C114.04014183 -0.12606939 118.03630428 -0.12203667 122.03292656 -0.10325813 C123.49538585 -0.09958236 124.95788089 -0.10265115 126.42030716 -0.11314392 C135.64910076 -0.17427887 142.18103126 0.16704087 149.43774414 6.29858398 C149.97657227 6.93151367 150.51540039 7.56444336 151.07055664 8.21655273 C151.62485352 8.84174805 152.17915039 9.46694336 152.75024414 10.11108398 C156.73196756 16.42803439 156.91722149 24.30809672 157.70336914 31.54858398 C157.83371552 32.71354904 157.96406189 33.8785141 158.09835815 35.07878113 C158.37182582 37.53689491 158.64228144 39.99534542 158.90991211 42.45410156 C159.31812672 46.19428906 159.73856604 49.9329578 160.16040039 53.67163086 C160.42545984 56.06803388 160.68980607 58.46451592 160.95336914 60.86108398 C161.07833771 61.96869583 161.20330627 63.07630768 161.33206177 64.21748352 C162.02253026 70.64278008 162.35712782 76.94227807 162.19555664 83.40405273 C163.17697632 83.37263184 163.17697632 83.37263184 164.17822266 83.34057617 C177.62577448 82.98546949 190.53545699 86.21873989 200.60961914 95.65405273 C210.37146383 106.42574342 214.34564785 117.65642018 214.34272766 131.95324707 C214.34640435 132.9202323 214.35008104 133.88721753 214.35386914 134.88350534 C214.36489007 138.12668798 214.36874716 141.36983856 214.37255859 144.61303711 C214.37882452 146.93748069 214.38547144 149.26192326 214.39247131 151.58636475 C214.4135014 159.22350366 214.42387377 166.86064275 214.43383789 174.49780273 C214.43788605 177.12905386 214.44200299 179.76030488 214.44618797 182.39155579 C214.46305605 193.33943133 214.47768984 204.2873048 214.48493671 215.23519135 C214.48684643 218.07403057 214.48876678 220.91286979 214.49072266 223.75170898 C214.4912064 224.45723776 214.49169014 225.16276653 214.49218854 225.88967496 C214.50048066 237.30697727 214.52580476 248.72417454 214.55830333 260.14143103 C214.59143985 271.87909299 214.60939147 283.61670169 214.61258096 295.35441065 C214.61492838 301.93826348 214.62384897 308.52195026 214.64904213 315.10575867 C214.67237822 321.30444524 214.67653362 327.50285707 214.66628075 333.70157623 C214.6657866 335.96983506 214.67207094 338.23810766 214.68583679 340.50632477 C214.7767218 356.37662255 214.2289685 369.33856586 204.19555664 382.40405273 C203.61805664 383.27030273 203.04055664 384.13655273 202.44555664 385.02905273 C194.49675438 393.41945512 183.72765808 398.56535445 172.19555664 399.40405273 C168.86014181 399.46800612 165.53094231 399.46445207 162.19555664 399.40405273 C162.23289917 401.24084595 162.23289917 401.24084595 162.27099609 403.11474609 C162.26725749 409.1322169 161.63215251 415.05527374 160.98852539 421.03295898 C160.79943352 422.81657082 160.79943352 422.81657082 160.60652161 424.63621521 C160.33921373 427.13844977 160.06928457 429.64040555 159.796875 432.14208984 C159.38410851 435.95683144 158.98777048 439.7730579 158.59204102 443.58959961 C158.32937536 446.02916128 158.06573623 448.46861838 157.80102539 450.90795898 C157.68526657 452.04149307 157.56950775 453.17502716 157.45024109 454.34291077 C156.56768828 462.22999215 155.38954425 469.57298728 149.94555664 475.71655273 C149.40415039 476.35206055 148.86274414 476.98756836 148.30493164 477.64233398 C141.18594788 483.58800375 133.22432294 482.8383279 124.39111328 482.80810547 C122.88583368 482.8138134 121.38055841 482.82077929 119.87528992 482.8289032 C115.80085431 482.84680305 111.72663445 482.84567226 107.65217137 482.83996081 C104.24517349 482.83686439 100.83821678 482.84296645 97.43122476 482.84899956 C89.39112654 482.86303272 81.35113459 482.86149355 73.31103516 482.85009766 C65.02837523 482.83861707 56.74603914 482.85269375 48.46342188 482.87949413 C41.3404739 482.90167551 34.2176274 482.90828304 27.09464735 482.90241772 C22.84555678 482.89905282 18.59667377 482.90143202 14.34761238 482.91866875 C10.35097145 482.93417486 6.354809 482.93014214 2.35818672 482.9113636 C0.89572743 482.90768783 -0.56676761 482.91075662 -2.02919388 482.92124939 C-11.25798748 482.98238434 -17.78991798 482.6410646 -25.04663086 476.50952148 C-25.58545898 475.8765918 -26.12428711 475.24366211 -26.67944336 474.59155273 C-27.51088867 473.65375977 -27.51088867 473.65375977 -28.35913086 472.69702148 C-32.34085428 466.38007108 -32.52610821 458.50000875 -33.31225586 451.25952148 C-33.44260223 450.09455643 -33.57294861 448.92959137 -33.70724487 447.72932434 C-33.98071254 445.27121056 -34.25116816 442.81276005 -34.51879883 440.35400391 C-34.92701344 436.61381641 -35.34745276 432.87514767 -35.76928711 429.13647461 C-36.03434655 426.74007159 -36.29869279 424.34358955 -36.56225586 421.94702148 C-36.68722443 420.83940964 -36.81219299 419.73179779 -36.94094849 418.59062195 C-37.63141698 412.16532539 -37.96601454 405.8658274 -37.80444336 399.40405273 C-38.45872314 399.425 -39.11300293 399.44594727 -39.78710938 399.4675293 C-53.23466119 399.82263598 -66.14434371 396.58936558 -76.21850586 387.15405273 C-84.49854642 378.01745625 -89.94716736 367.34719891 -89.91796875 354.87939453 C-89.91789322 353.79865158 -89.91781769 352.71790863 -89.91773987 351.60441589 C-89.90999794 349.87134941 -89.90999794 349.87134941 -89.90209961 348.10327148 C-89.90068466 346.9117598 -89.89926971 345.72024811 -89.89781189 344.49263 C-89.89222064 340.69224523 -89.87966968 336.89191966 -89.86694336 333.09155273 C-89.86192723 330.51277754 -89.85736452 327.93400143 -89.85327148 325.35522461 C-89.84225406 319.03814716 -89.82552458 312.72110418 -89.80444336 306.40405273 C-90.97362305 306.46206055 -92.14280273 306.52006836 -93.34741211 306.57983398 C-94.89554916 306.62674723 -96.44372953 306.67224572 -97.99194336 306.71655273 C-98.76086914 306.75844727 -99.52979492 306.8003418 -100.32202148 306.84350586 C-104.35973558 306.93015208 -106.33575588 306.70376954 -109.81591797 304.47827148 C-112.57089698 300.21913144 -112.50855339 296.8797839 -112.43334961 291.90405273 C-112.43576157 290.99075195 -112.43817352 290.07745117 -112.44065857 289.13647461 C-112.43968126 287.20999804 -112.42631529 285.283493 -112.40136719 283.35717773 C-112.36705344 280.41349599 -112.38071489 277.47281684 -112.40014648 274.52905273 C-112.39324775 272.65403999 -112.38357513 270.77903498 -112.37084961 268.90405273 C-112.37580948 268.0268457 -112.38076935 267.14963867 -112.38587952 266.24584961 C-112.30824381 262.20454707 -112.09245063 259.903932 -110.03955078 256.34082031 C-107.56163177 254.19365139 -106.69161878 253.80093933 -103.47631836 253.91577148 C-102.75541016 253.92825928 -102.03450195 253.94074707 -101.29174805 253.95361328 C-100.3884375 253.9991333 -99.48512695 254.04465332 -98.55444336 254.09155273 C-94.22319336 254.24624023 -94.22319336 254.24624023 -89.80444336 254.40405273 C-89.80444336 245.82405273 -89.80444336 237.24405273 -89.80444336 228.40405273 C-95.54930307 228.60122756 -95.54930307 228.60122756 -101.29174805 228.85449219 C-102.01265625 228.86697998 -102.73356445 228.87946777 -103.47631836 228.89233398 C-104.20947266 228.91851807 -104.94262695 228.94470215 -105.69799805 228.97167969 C-109.12809122 228.04736738 -110.05094584 226.44750735 -111.80444336 223.40405273 C-112.38687077 220.23374111 -112.38903861 217.12097536 -112.37084961 213.90405273 C-112.37704819 212.99075195 -112.38324677 212.07745117 -112.38963318 211.13647461 C-112.39672106 209.21005314 -112.39357537 207.28357028 -112.38085938 205.35717773 C-112.36698704 202.41332144 -112.40108597 199.47264106 -112.43920898 196.52905273 C-112.44016018 194.65405196 -112.43830132 192.77904721 -112.43334961 190.90405273 C-112.45323692 189.58824219 -112.45323692 189.58824219 -112.473526 188.24584961 C-112.4099171 184.06202481 -112.13344279 181.91267898 -109.81591797 178.32983398 C-105.73671639 175.72126146 -102.7191524 175.83399315 -97.99194336 176.09155273 C-96.80955078 176.12539063 -96.80955078 176.12539063 -95.60327148 176.15991211 C-93.66950407 176.21851112 -91.73672168 176.30818446 -89.80444336 176.40405273 C-89.81332581 175.75640457 -89.82220825 175.10875641 -89.83135986 174.44148254 C-89.92050079 167.64337067 -89.98045214 160.84542735 -90.02416992 154.046875 C-90.0441688 151.51653285 -90.07137689 148.98623623 -90.10620117 146.45605469 C-90.15523696 142.79928284 -90.17753046 139.14312696 -90.19506836 135.48608398 C-90.2157135 134.37199661 -90.23635864 133.25790924 -90.25762939 132.11006165 C-90.26099065 120.09305499 -87.12739302 109.93998169 -79.80444336 100.40405273 C-79.22694336 99.53780273 -78.64944336 98.67155273 -78.05444336 97.77905273 C-70.1056411 89.38865035 -59.3365448 84.24275102 -47.80444336 83.40405273 C-44.46870688 83.34009319 -41.14011295 83.35341858 -37.80444336 83.40405273 C-37.81844681 82.82688004 -37.83245026 82.24970734 -37.84687805 81.65504456 C-37.9401178 74.67309871 -37.36457102 67.86639257 -36.59741211 60.93139648 C-36.47135086 59.7683046 -36.34528961 58.60521271 -36.21540833 57.40687561 C-35.94836625 54.96185651 -35.67843769 52.51715111 -35.40576172 50.07275391 C-34.99291698 46.35033137 -34.59651245 42.62639095 -34.20092773 38.90209961 C-33.9382576 36.51592142 -33.67461828 34.12984967 -33.40991211 31.74389648 C-33.23627388 30.08885353 -33.23627388 30.08885353 -33.05912781 28.40037537 C-31.15950571 11.79362064 -31.15950571 11.79362064 -25.55444336 6.52905273 C-25.01303711 5.99538086 -24.47163086 5.46170898 -23.91381836 4.91186523 C-16.38246425 -0.47165826 -8.9691121 -0.03068741 0 0 Z " fill="#332C37" transform="translate(204.804443359375,14.595947265625)"/>
<path d="M0 0 C0.82587988 -0.00367669 1.65175975 -0.00735338 2.50266629 -0.01114148 C5.28004813 -0.02218621 8.05739257 -0.02602351 10.83479309 -0.02983093 C12.82223123 -0.03609501 14.8096682 -0.04274176 16.79710388 -0.04974365 C22.20431166 -0.06715892 27.61151059 -0.07770696 33.01873946 -0.08594918 C36.39665299 -0.09109846 39.77456377 -0.09717424 43.15247536 -0.10346031 C53.72014013 -0.12251428 64.28779791 -0.13674471 74.85547656 -0.14507228 C87.05584775 -0.154845 99.25603752 -0.18116466 111.45634478 -0.22157317 C120.88490395 -0.25173016 130.3134111 -0.26654078 139.74201757 -0.26985329 C145.37392268 -0.27220432 151.00563402 -0.28117178 156.63748741 -0.30631447 C161.93739614 -0.32959264 167.23698349 -0.33382932 172.53693008 -0.32355309 C174.47993984 -0.32305755 176.4229654 -0.32938319 178.36592674 -0.34310913 C181.02363191 -0.36083061 183.68018405 -0.35372082 186.33789062 -0.34057617 C187.10240404 -0.35154542 187.86691745 -0.36251466 188.65459794 -0.37381631 C194.90317444 -0.29947105 199.97064996 1.28859551 204.57530421 5.6532585 C208.32160055 10.24442546 208.69647712 14.37074835 208.60786438 20.14204407 C208.6142532 21.02513339 208.62064202 21.90822271 208.62722445 22.81807232 C208.64243681 25.76547812 208.62203801 28.71153161 208.60163879 31.65888977 C208.60514111 33.77662094 208.61080093 35.89434947 208.61845398 38.0120697 C208.63269553 43.75591863 208.61564618 49.49928847 208.59216881 55.24309158 C208.57205375 61.25628221 208.57793971 67.26945307 208.58027649 73.28266907 C208.58022292 83.38048702 208.56047021 93.4781178 208.52839661 103.57588196 C208.49150425 115.24741456 208.48272119 126.918702 208.48969412 138.5902853 C208.49600113 149.82165269 208.48524111 161.05293607 208.46572876 172.2842865 C208.45755774 177.06243589 208.45484467 181.84054233 208.4564209 186.61869812 C208.45730036 192.24614982 208.44306667 197.87336882 208.41719437 203.50075912 C208.4100372 205.56511176 208.40794678 207.62948917 208.4113121 209.69385147 C208.41503178 212.51358541 208.40026216 215.33264212 208.3808136 218.15229797 C208.38614152 218.96757808 208.39146945 219.78285818 208.39695883 220.62284374 C208.33477456 225.85508448 207.43540509 229.49835828 204.98640442 234.14717102 C199.4614536 239.5267284 194.222524 240.44473139 186.72557068 240.41459656 C185.48312924 240.42139323 185.48312924 240.42139323 184.21558797 240.4283272 C181.44203377 240.44098046 178.66867569 240.43935024 175.89509583 240.43769836 C173.9057388 240.443683 171.91638411 240.4504884 169.92703247 240.45805359 C164.52412588 240.47572661 159.12128263 240.4804095 153.71834993 240.48168516 C149.20788128 240.48358436 144.69742737 240.49094208 140.18696439 240.49802935 C129.54555919 240.5143156 118.90418784 240.51919806 108.26277161 240.51777649 C97.28540497 240.51657475 86.30823485 240.53768262 75.33091795 240.56926382 C65.90572326 240.59541341 56.4805928 240.60614435 47.05536211 240.60486567 C41.42632476 240.60435568 35.79746206 240.61005944 30.16846085 240.63122177 C24.87425879 240.65058204 19.5803984 240.65074363 14.28618431 240.63618851 C12.34437117 240.63409662 10.40253677 240.63882385 8.46076012 240.65090942 C5.80717371 240.66635418 3.15476659 240.65705915 0.50120544 240.64164734 C-0.26485657 240.65193447 -1.03091859 240.66222159 -1.8201946 240.67282045 C-7.30057475 240.60261504 -10.47606425 239.24184638 -15.01359558 236.14717102 C-20.25730039 230.62748174 -20.16240773 225.84754077 -20.1607666 218.5063324 C-20.16444329 217.62510078 -20.16811998 216.74386917 -20.17190808 215.83593357 C-20.18293834 212.87733626 -20.18678761 209.91877409 -20.19059753 206.9601593 C-20.19686253 204.84125151 -20.20350936 202.72234482 -20.21051025 200.60343933 C-20.22791295 194.84313028 -20.23846941 189.08282952 -20.24671578 183.32250071 C-20.25186608 179.72499224 -20.25794171 176.12748635 -20.26422691 172.52997971 C-20.28327449 161.27781642 -20.29750818 150.0256597 -20.30583888 138.7734834 C-20.31561942 125.77733019 -20.34196215 112.78134694 -20.38233978 99.78525364 C-20.41247014 89.74354726 -20.42730472 79.70188969 -20.4306199 69.66013896 C-20.4329733 63.6605525 -20.44197209 57.6611477 -20.46708107 51.66160965 C-20.49031371 46.01943605 -20.49461431 40.37756436 -20.48431969 34.73535538 C-20.4838231 32.66411334 -20.49017968 30.59285667 -20.50387573 28.52165985 C-20.52152414 25.69473495 -20.51452323 22.86890193 -20.50134277 20.04197693 C-20.51779664 18.81161797 -20.51779664 18.81161797 -20.53458291 17.55640328 C-20.47525339 12.28856629 -19.4675313 9.34541286 -16.01359558 5.14717102 C-10.79218448 0.43516588 -6.81558245 -0.00161995 0 0 Z " fill="#8BC1FC" transform="translate(173.0135955810547,135.8528289794922)"/>
<path d="M0 0 C1.5052796 -0.00570793 3.01055487 -0.01267382 4.51582336 -0.02079773 C8.59025897 -0.03869759 12.66447884 -0.03756679 16.73894191 -0.03185534 C20.14593979 -0.02875892 23.5528965 -0.03486098 26.95988852 -0.04089409 C34.99998674 -0.05492725 43.03997869 -0.05338808 51.08007812 -0.04199219 C59.36273805 -0.03051161 67.64507414 -0.04458828 75.9276914 -0.07138866 C83.05063938 -0.09357004 90.17348588 -0.10017757 97.29646593 -0.09431225 C101.5455565 -0.09094735 105.79443951 -0.09332655 110.0435009 -0.11056328 C114.04014183 -0.12606939 118.03630428 -0.12203667 122.03292656 -0.10325813 C123.49538585 -0.09958236 124.95788089 -0.10265115 126.42030716 -0.11314392 C135.64910076 -0.17427887 142.18103126 0.16704087 149.43774414 6.29858398 C149.97657227 6.93151367 150.51540039 7.56444336 151.07055664 8.21655273 C151.90200195 9.1543457 151.90200195 9.1543457 152.75024414 10.11108398 C156.72552185 16.41780835 156.91624128 24.28433325 157.70336914 31.51342773 C157.83371552 32.67602112 157.96406189 33.8386145 158.09835815 35.03643799 C158.37184493 37.49035292 158.64229974 39.94460741 158.90991211 42.39916992 C159.31775341 46.12842032 159.73839067 49.85606973 160.16040039 53.58374023 C160.42549711 55.97688381 160.6898443 58.37011056 160.95336914 60.76342773 C161.07833771 61.8658783 161.20330627 62.96832886 161.33206177 64.10418701 C161.50256546 65.6907309 161.50256546 65.6907309 161.67651367 67.30932617 C161.77707062 68.22309021 161.87762756 69.13685425 161.98123169 70.07830811 C162.28836606 74.84420444 162.19555664 79.62827014 162.19555664 84.40405273 C96.19555664 84.40405273 30.19555664 84.40405273 -37.80444336 84.40405273 C-37.80444336 72.02369034 -37.80444336 72.02369034 -37.30126953 67.34106445 C-37.19082809 66.28982391 -37.08038666 65.23858337 -36.96659851 64.15548706 C-36.844767 63.05931061 -36.72293549 61.96313416 -36.59741211 60.83374023 C-36.47135086 59.67206329 -36.34528961 58.51038635 -36.21540833 57.31350708 C-35.94861416 54.87443645 -35.67868713 52.43570663 -35.40576172 49.99731445 C-34.99247242 46.2838065 -34.59622607 42.56873232 -34.20092773 38.85327148 C-33.93829049 36.47164674 -33.67465251 34.09013211 -33.40991211 31.70874023 C-33.29415329 30.60851532 -33.17839447 29.50829041 -33.05912781 28.37472534 C-31.15622786 11.79054191 -31.15622786 11.79054191 -25.55444336 6.52905273 C-24.74233398 5.72854492 -24.74233398 5.72854492 -23.91381836 4.91186523 C-16.38246425 -0.47165826 -8.9691121 -0.03068741 0 0 Z " fill="#000000" transform="translate(204.804443359375,14.595947265625)"/>
<path d="M0 0 C66 0 132 0 200 0 C200 11.25584637 200 11.25584637 199.49682617 16.05712891 C199.38638474 17.13169342 199.2759433 18.20625793 199.16215515 19.31338501 C199.04032364 20.43973358 198.91849213 21.56608215 198.79296875 22.7265625 C198.6669075 23.91422211 198.54084625 25.10188171 198.41096497 26.32553101 C198.14389932 28.8218158 197.87397068 31.31779579 197.60131836 33.81347656 C197.18811824 37.61930564 196.79193432 41.42666582 196.39648438 45.234375 C196.13385092 47.66938306 195.8702131 50.10428304 195.60546875 52.5390625 C195.48970993 53.66945953 195.37395111 54.79985657 195.25468445 55.96450806 C194.37062284 63.84127386 193.18661792 71.17725127 187.75 77.3125 C186.93789063 78.26576172 186.93789063 78.26576172 186.109375 79.23828125 C178.99039124 85.18395102 171.0287663 84.43427516 162.19555664 84.40405273 C160.69027704 84.40976066 159.18500177 84.41672656 157.67973328 84.42485046 C153.60529767 84.44275032 149.5310778 84.44161952 145.45661473 84.43590808 C142.04961685 84.43281166 138.64266014 84.43891371 135.23566812 84.44494683 C127.1955699 84.45897999 119.15557795 84.45744082 111.11547852 84.44604492 C102.83281859 84.43456434 94.5504825 84.44864101 86.26786524 84.4754414 C79.14491726 84.49762278 72.02207076 84.50423031 64.89909071 84.49836498 C60.65000014 84.49500009 56.40111713 84.49737929 52.15205574 84.51461601 C48.15541481 84.53012212 44.15925236 84.5260894 40.16263008 84.50731087 C38.70017079 84.5036351 37.23767575 84.50670388 35.77524948 84.51719666 C26.54645588 84.57833161 20.01452538 84.23701186 12.7578125 78.10546875 C12.21898437 77.47253906 11.68015625 76.83960938 11.125 76.1875 C10.57070312 75.56230469 10.01640625 74.93710937 9.4453125 74.29296875 C5.47003479 67.98624438 5.27931536 60.11971948 4.4921875 52.890625 C4.36184113 51.72803162 4.23149475 50.56543823 4.09719849 49.36761475 C3.82371171 46.91369982 3.5532569 44.45944532 3.28564453 42.00488281 C2.87780323 38.27563241 2.45716598 34.547983 2.03515625 30.8203125 C1.77005953 28.42716892 1.50571234 26.03394218 1.2421875 23.640625 C1.11721893 22.53817444 0.99225037 21.43572388 0.86349487 20.29986572 C0.74982574 19.2421698 0.63615662 18.18447388 0.51904297 17.09472656 C0.41848602 16.18096252 0.31792908 15.26719849 0.21432495 14.32574463 C-0.09280942 9.5598483 0 4.77578259 0 0 Z " fill="#000000" transform="translate(167,413)"/>
<path d="M0 0 C6.10202786 2.98930803 9.47396476 9.62803337 12.05078125 15.6015625 C13.90589484 26.91775542 13.58807256 39.45913484 6.75 49.140625 C2.06647151 54.27398391 -2.88704751 55.69372271 -9.76171875 56.0390625 C-16.32216805 55.79580134 -20.77462433 54.21957161 -25.32421875 49.4140625 C-31.5337703 40.05495475 -32.11983465 30.36483139 -31.32421875 19.4140625 C-29.59882363 11.6966702 -26.55831249 5.55014969 -20.125 0.78515625 C-14.33368375 -2.04992325 -6.21233505 -1.56613489 0 0 Z " fill="#E5EBF4" transform="translate(356.32421875,234.5859375)"/>
<path d="M0 0 C6.2677664 3.07050129 9.72165372 9.85526593 12.05078125 16.1015625 C14.1672425 27.03297574 13.47952888 38.71521071 7.48828125 48.2890625 C3.6909353 53.02734373 -0.46348637 55.03501546 -6.44921875 55.828125 C-12.76011916 56.10568775 -17.61450005 55.75697535 -22.74609375 51.88671875 C-28.81025243 46.22783801 -30.92250634 38.86677842 -31.6484375 30.8203125 C-31.92920249 21.29366591 -30.85724813 12.64174135 -24.88671875 4.9140625 C-17.98532275 -1.81900677 -9.14357861 -2.30510385 0 0 Z " fill="#E6EBF4" transform="translate(308.32421875,234.5859375)"/>
<path d="M0 0 C6.27 0 12.54 0 19 0 C19 17.16 19 34.32 19 52 C13.06 52 7.12 52 1 52 C-4.6261372 46.3738628 -4.6261372 46.3738628 -4.63110352 42.65625 C-4.64363663 41.83189453 -4.65616974 41.00753906 -4.66908264 40.15820312 C-4.65582443 39.28099609 -4.64256622 38.40378906 -4.62890625 37.5 C-4.63131821 36.58669922 -4.63373016 35.67339844 -4.63621521 34.73242188 C-4.6352379 32.80594531 -4.62187193 30.87944027 -4.59692383 28.953125 C-4.56261008 26.00944326 -4.57627153 23.06876411 -4.59570312 20.125 C-4.58880439 18.24998726 -4.57913177 16.37498225 -4.56640625 14.5 C-4.57136612 13.62279297 -4.57632599 12.74558594 -4.58143616 11.84179688 C-4.56559982 11.01744141 -4.54976349 10.19308594 -4.53344727 9.34375 C-4.5241494 8.26383789 -4.5241494 8.26383789 -4.5146637 7.16210938 C-4 5 -4 5 0 0 Z " fill="#FBC60D" transform="translate(97,269)"/>
<path d="M0 0 C5.94 0 11.88 0 18 0 C18 17.16 18 34.32 18 52 C11.73 52 5.46 52 -1 52 C-5.50144499 46.37319377 -5.50144499 46.37319377 -5.53344727 42.65625 C-5.5492836 41.83189453 -5.56511993 41.00753906 -5.58143616 40.15820312 C-5.57647629 39.28099609 -5.57151642 38.40378906 -5.56640625 37.5 C-5.57260483 36.58669922 -5.57880341 35.67339844 -5.58518982 34.73242188 C-5.5922777 32.8060004 -5.58913201 30.87951754 -5.57641602 28.953125 C-5.56254368 26.0092687 -5.59664261 23.06858832 -5.63476562 20.125 C-5.63571682 18.24999922 -5.63385797 16.37499448 -5.62890625 14.5 C-5.64216446 13.62279297 -5.65542267 12.74558594 -5.66908264 11.84179688 C-5.65654953 11.01744141 -5.64401642 10.19308594 -5.63110352 9.34375 C-5.63014175 8.62380859 -5.62917999 7.90386719 -5.62818909 7.16210938 C-5 5 -5 5 0 0 Z " fill="#EE4E49" transform="translate(98,191)"/>
<path d="M0 0 C0.90270126 -0.00525696 1.80540253 -0.01051392 2.73545837 -0.01593018 C5.72420471 -0.02915156 8.71241997 -0.02038448 11.70117188 -0.01025391 C13.77478132 -0.01227402 15.84839007 -0.01518494 17.92199707 -0.01895142 C22.26984413 -0.02337767 26.61750642 -0.01693395 30.96533203 -0.00292969 C36.54433143 0.01416227 42.1228979 0.00432272 47.70188141 -0.01364708 C51.98434727 -0.02447672 56.26671014 -0.02104233 60.54917908 -0.0132637 C62.60652212 -0.01125943 64.66387446 -0.0137289 66.72120667 -0.02070236 C69.59433844 -0.0283033 72.46676466 -0.01673162 75.33984375 0 C76.19396347 -0.00607269 77.04808319 -0.01214539 77.92808533 -0.0184021 C83.74018237 0.04444715 83.74018237 0.04444715 85.88452911 1.75964928 C87.16992188 3.38818359 87.16992188 3.38818359 87.60742188 5.82568359 C87.00803722 9.33636514 86.02913851 10.26327176 83.16992188 12.38818359 C80.13390661 12.78270155 77.46124497 12.93536468 74.42578125 12.90576172 C73.54404739 12.912771 72.66231354 12.91978027 71.75386047 12.92700195 C68.84014363 12.94460281 65.92739855 12.93295179 63.01367188 12.91943359 C60.98872694 12.92212791 58.96378327 12.92600982 56.93884277 12.93103027 C52.69526856 12.93692816 48.45203116 12.9283529 44.20849609 12.90966797 C38.76738425 12.8868784 33.32706158 12.8999999 27.8859787 12.92395782 C23.7046717 12.93840787 19.523552 12.93381343 15.34223938 12.92344666 C13.33596198 12.92077718 11.32966761 12.92405686 9.32341003 12.93336487 C6.51983564 12.94351729 3.71754147 12.92804777 0.9140625 12.90576172 C-0.33131538 12.9179071 -0.33131538 12.9179071 -1.60185242 12.93029785 C-5.23817324 12.87671173 -7.38808653 12.71666278 -10.34924316 10.51599121 C-11.83007812 8.38818359 -11.83007812 8.38818359 -12.26757812 5.82568359 C-11.08070455 -0.78689773 -5.57055682 -0.03960602 0 0 Z " fill="#4F9AFE" transform="translate(178.830078125,159.61181640625)"/>
<path d="M0 0 C1.18810776 -0.00953201 2.37621552 -0.01906403 3.60032654 -0.02888489 C4.88472122 -0.02797348 6.16911591 -0.02706207 7.49243164 -0.02612305 C8.8104628 -0.03040817 10.12849396 -0.0346933 11.48646545 -0.03910828 C14.27649964 -0.04656854 17.06640729 -0.04628075 19.85644531 -0.04101562 C23.42880274 -0.03522212 27.00064149 -0.05214932 30.57291317 -0.0753603 C33.98360777 -0.09365057 37.39418824 -0.08991212 40.80493164 -0.08862305 C42.72848732 -0.10243767 42.72848732 -0.10243767 44.69090271 -0.11653137 C45.88216263 -0.11030258 47.07342255 -0.10407379 48.30078125 -0.09765625 C49.34874374 -0.09828568 50.39670624 -0.0989151 51.47642517 -0.0995636 C54.62233352 0.33030587 56.00193582 1.01638747 58.21508789 3.2746582 C58.71508789 6.7746582 58.71508789 6.7746582 58.21508789 10.2746582 C56.00612769 12.52467149 54.61764107 13.21753315 51.4831543 13.66233826 C49.91573486 13.67044273 49.91573486 13.67044273 48.31665039 13.67871094 C46.53460205 13.6977372 46.53460205 13.6977372 44.71655273 13.71714783 C43.43731934 13.71421219 42.15808594 13.71127655 40.84008789 13.70825195 C39.52347168 13.7134938 38.20685547 13.71873566 36.8503418 13.72413635 C34.06622728 13.73306149 31.28239971 13.73065097 28.49829102 13.72070312 C24.93363764 13.70920621 21.36997382 13.72943716 17.80545044 13.75862026 C14.40027701 13.78139402 10.99533569 13.77451571 7.59008789 13.77075195 C5.67123779 13.78760292 5.67123779 13.78760292 3.71362305 13.80479431 C2.52559082 13.79541336 1.33755859 13.78603241 0.11352539 13.77636719 C-1.45389404 13.77611794 -1.45389404 13.77611794 -3.05297852 13.77586365 C-6.503071 13.14290348 -7.71385551 12.0682428 -9.78491211 9.2746582 C-9.72241211 5.6496582 -9.72241211 5.6496582 -8.78491211 2.2746582 C-5.344227 -0.01913187 -4.05172671 0.01782704 0 0 Z " fill="#529BFE" transform="translate(176.784912109375,185.725341796875)"/>
<path d="M0 0 C4.99110501 2.2686841 7.22894631 5.0114931 9.1875 10.0625 C11.41680944 18.99879169 10.40582721 27.89545366 6 36 C2.91858714 38.88045115 1.12037624 39.81327063 -3 40.5 C-6.99160539 39.83473243 -8.96855824 38.6946149 -12 36 C-14.67762133 30.16887678 -15.49697023 25.3116271 -15.4375 18.9375 C-15.45748047 18.17373047 -15.47746094 17.40996094 -15.49804688 16.62304688 C-15.49250913 10.14941933 -13.68058463 5.86545253 -9.1875 1.0625 C-5.9625715 -0.50389384 -3.53772048 -0.37239163 0 0 Z " fill="#8EC2FD" transform="translate(302,242)"/>
<path d="M0 0 C4.13811551 1.63599915 6.01965212 4.02409517 8.15112305 7.88891602 C9.73260487 11.8219253 9.61589253 15.75089724 9.5625 19.9375 C9.58634766 20.79279297 9.61019531 21.64808594 9.63476562 22.52929688 C9.62062944 28.70681174 8.25165427 33.3798076 4 38 C0.53303284 40.0820518 -1.94862688 40.48616477 -6 40 C-10.47725686 37.80526624 -12.54933396 35.69370787 -14.40454102 31.07104492 C-15.50991522 27.22648183 -15.43117164 23.41008341 -15.375 19.4375 C-15.38660156 18.61314453 -15.39820313 17.78878906 -15.41015625 16.93945312 C-15.37994457 10.64031854 -14.20336308 6.32577214 -9.75 1.625 C-6.19452499 -0.47596251 -4.07335802 -0.50916975 0 0 Z " fill="#8DC2FD" transform="translate(350,242)"/>
<path d="M0 0 C2.07940625 1.56696371 2.90107226 2.44301626 3.36076355 5.03117371 C3.35410172 5.80616714 3.34743988 6.58116058 3.34057617 7.37963867 C3.34034958 8.26032516 3.34012299 9.14101166 3.33988953 10.04838562 C3.32440567 10.99534805 3.30892181 11.94231049 3.29296875 12.91796875 C3.28872391 13.89034988 3.28447906 14.86273102 3.28010559 15.86457825 C3.26330315 18.97249966 3.22564779 22.07977434 3.1875 25.1875 C3.1724552 27.29361043 3.15876644 29.39973102 3.14648438 31.50585938 C3.11339444 36.67082238 3.06160109 41.83530151 3 47 C3.62648437 46.97679687 4.25296875 46.95359375 4.8984375 46.9296875 C5.71570313 46.91164063 6.53296875 46.89359375 7.375 46.875 C8.18710938 46.85179687 8.99921875 46.82859375 9.8359375 46.8046875 C12 47 12 47 14 49 C13.67028521 52.29714793 13.3773161 53.6226839 11 56 C8.32617187 56.25878906 8.32617187 56.25878906 4.96875 56.265625 C3.76605469 56.26820313 2.56335938 56.27078125 1.32421875 56.2734375 C0.06222656 56.26570313 -1.19976562 56.25796875 -2.5 56.25 C-3.76199219 56.25773437 -5.02398437 56.26546875 -6.32421875 56.2734375 C-7.52691406 56.27085937 -8.72960937 56.26828125 -9.96875 56.265625 C-11.07669922 56.26336914 -12.18464844 56.26111328 -13.32617188 56.25878906 C-16 56 -16 56 -18 54 C-18.25 51.5 -18.25 51.5 -18 49 C-17.34 48.34 -16.68 47.68 -16 47 C-12.7 47 -9.4 47 -6 47 C-6.495 29.675 -6.495 29.675 -7 12 C-8.98 12.99 -10.96 13.98 -13 15 C-15.875 14.6875 -15.875 14.6875 -18 14 C-18.33 12.02 -18.66 10.04 -19 8 C-17.03327222 6.76530489 -15.06468696 5.53419562 -13.08984375 4.3125 C-11.49314182 3.3097115 -9.92655718 2.25881329 -8.375 1.1875 C-5.34976874 -0.32511563 -3.33980581 -0.43562684 0 0 Z " fill="#E6EBF4" transform="translate(235,234)"/>
<path d="M0 0 C2.07940625 1.56696371 2.90107226 2.44301626 3.36076355 5.03117371 C3.35410172 5.80616714 3.34743988 6.58116058 3.34057617 7.37963867 C3.34034958 8.26032516 3.34012299 9.14101166 3.33988953 10.04838562 C3.32440567 10.99534805 3.30892181 11.94231049 3.29296875 12.91796875 C3.28872391 13.89034988 3.28447906 14.86273102 3.28010559 15.86457825 C3.26330315 18.97249966 3.22564779 22.07977434 3.1875 25.1875 C3.1724552 27.29361043 3.15876644 29.39973102 3.14648438 31.50585938 C3.11339444 36.67082238 3.06160109 41.83530151 3 47 C3.62648437 46.97679687 4.25296875 46.95359375 4.8984375 46.9296875 C5.71570313 46.91164063 6.53296875 46.89359375 7.375 46.875 C8.18710938 46.85179687 8.99921875 46.82859375 9.8359375 46.8046875 C12 47 12 47 14 49 C13.67028521 52.29714793 13.3773161 53.6226839 11 56 C8.32617187 56.25878906 8.32617187 56.25878906 4.96875 56.265625 C3.76605469 56.26820313 2.56335938 56.27078125 1.32421875 56.2734375 C0.06222656 56.26570313 -1.19976562 56.25796875 -2.5 56.25 C-3.76199219 56.25773437 -5.02398437 56.26546875 -6.32421875 56.2734375 C-7.52691406 56.27085937 -8.72960937 56.26828125 -9.96875 56.265625 C-11.07669922 56.26336914 -12.18464844 56.26111328 -13.32617188 56.25878906 C-16 56 -16 56 -18 54 C-18.25 51.5 -18.25 51.5 -18 49 C-17.34 48.34 -16.68 47.68 -16 47 C-12.7 47 -9.4 47 -6 47 C-6.495 29.675 -6.495 29.675 -7 12 C-8.98 12.99 -10.96 13.98 -13 15 C-15.875 14.6875 -15.875 14.6875 -18 14 C-18.33 12.02 -18.66 10.04 -19 8 C-17.03327222 6.76530489 -15.06468696 5.53419562 -13.08984375 4.3125 C-11.49314182 3.3097115 -9.92655718 2.25881329 -8.375 1.1875 C-5.34976874 -0.32511563 -3.33980581 -0.43562684 0 0 Z " fill="#E6EBF4" transform="translate(187,234)"/>
<path d="M0 0 C1.7325 0.1546875 1.7325 0.1546875 3.5 0.3125 C5.65502531 3.54503796 5.96856135 4.56400923 5.5 8.3125 C4.4375 10.1875 4.4375 10.1875 2.5 11.3125 C-1.0625 11.1875 -1.0625 11.1875 -4.5 10.3125 C-6.5 7.3125 -6.5 7.3125 -6.25 4.75 C-5.04036727 0.81869362 -4.10954858 0.36692398 0 0 Z " fill="#E3EAF4" transform="translate(265.5,278.6875)"/>
<path d="M0 0 C1.875 1.0625 1.875 1.0625 3 3 C2.55555556 9.44444444 2.55555556 9.44444444 1 11 C-5.18545455 11.45818182 -5.18545455 11.45818182 -8 9.875 C-9.54297074 6.98192987 -8.91256088 5.06359725 -8 2 C-4.76746204 -0.15502531 -3.74849077 -0.46856135 0 0 Z " fill="#E3EAF4" transform="translate(268,248)"/>
</svg>
