<?xml version="1.0" encoding="UTF-8"?>
<svg version="1.1" xmlns="http://www.w3.org/2000/svg" width="512" height="512">
<path d="M0 0 C2.5625 2.0625 2.5625 2.0625 4 5 C4.22947773 10.85168204 1.56288956 14.63232614 -1.44140625 19.39453125 C-7.41875223 29.38673618 -9.15247706 39.72623256 -9.25 51.1875 C-9.26401855 52.32832031 -9.26401855 52.32832031 -9.27832031 53.4921875 C-9.2507252 58.35741735 -8.54110833 62.38279051 -7 67 C-6.30519531 66.73445313 -5.61039063 66.46890625 -4.89453125 66.1953125 C10.86018694 60.72409224 30.01160072 58.29954712 45.8125 64.75 C53.62960524 68.68030708 60.08218375 73.56841835 66 80 C69.0424002 78.65950402 70.87565083 77.2332763 73.0625 74.75 C81.47811544 66.1001169 93.56771375 61.71481523 105.44140625 61.00390625 C118.67755347 60.989377 130.68398721 63.17668856 143 68 C145.34392368 46.73726373 142.99673421 28.99510132 131 11 C130.58142518 7.16306413 130.45355731 4.88796936 132.5 1.5625 C135.34688871 -0.21680545 137.62007576 -0.76868734 140.98828125 -0.55078125 C146.13932394 0.85950423 148.25578762 5.72653375 150.78515625 10.0546875 C162.24475819 31.51406947 162.54731432 53.61381209 158 77 C158.59425781 77.2784375 159.18851562 77.556875 159.80078125 77.84375 C163.41322113 79.74300791 167.14888441 82.29776882 169 86 C171.66720514 108.03723593 159.67577801 135.05881148 146.63671875 152.23046875 C144.47848568 154.87327919 142.25437726 157.43912423 140 160 C138.46958549 161.88810738 136.94833471 163.78368895 135.4375 165.6875 C134.77621094 166.51636719 134.11492187 167.34523437 133.43359375 168.19921875 C132.96050781 168.79347656 132.48742187 169.38773438 132 170 C133.18142578 170.21076172 133.18142578 170.21076172 134.38671875 170.42578125 C137.34200812 171.07514977 138.34786403 171.47831878 140 174 C140.31490353 176.9600932 140.14411666 179.35147502 139.5 182.25 C137.6688899 184.38629511 136.60719803 184.49355885 133.90625 185.109375 C133.17728516 185.27920898 132.44832031 185.44904297 131.69726562 185.62402344 C131.13716797 185.7480957 130.57707031 185.87216797 130 186 C130.43231934 186.40202637 130.86463867 186.80405273 131.31005859 187.21826172 C153.23195085 207.62629157 153.23195085 207.62629157 161.03125 216.75 C163.07761886 219.08870727 165.18364389 221.36035751 167.30493164 223.63085938 C172.26812142 228.94674356 177.0526982 234.3390174 181.60546875 240.015625 C183.38240685 242.23027542 185.17495802 244.42492381 186.98828125 246.609375 C230.03130389 298.63113816 283.69469507 378.18762098 287.5 448.25 C286.91593625 452.63047813 286.32565206 453.26821438 283 456 C280.6665398 457.25251908 278.42683206 458.34524422 276 459.375 C275.30358398 459.67317627 274.60716797 459.97135254 273.88964844 460.27856445 C247.83212385 471.09570726 219.98342264 474.84416298 192 476 C192.15726562 476.7321875 192.31453125 477.464375 192.4765625 478.21875 C192.93982858 480.68028322 193.26060735 483.00096051 193.375 485.5 C193.42398437 486.2321875 193.47296875 486.964375 193.5234375 487.71875 C192.69770601 491.31746038 190.83925061 492.70847884 188 495 C185.28531636 496.1905994 182.81998549 497.11032839 180 497.9375 C179.18241211 498.18419434 178.36482422 498.43088867 177.52246094 498.68505859 C147.48542448 507.39216432 115.01775714 512.08418404 83.7578125 512.203125 C82.52365097 512.21013931 81.28948944 512.21715363 80.01792908 512.22438049 C76.05360255 512.24180429 72.08935667 512.24881446 68.125 512.25 C67.45045147 512.25044186 66.77590294 512.25088371 66.08091354 512.25133896 C46.23051067 512.25816379 26.66042068 512.054218 7 509 C5.80117187 508.82307617 4.60234375 508.64615234 3.3671875 508.46386719 C-15.06016772 505.7026253 -33.27512459 502.00904821 -50.9609375 496.06640625 C-51.85345215 495.76806885 -52.7459668 495.46973145 -53.66552734 495.16235352 C-56.35620735 493.82264138 -57.46368582 492.55803467 -59 490 C-59.328125 487.81640625 -59.328125 487.81640625 -59.25 485.5625 C-59.23453125 484.82128906 -59.2190625 484.08007812 -59.203125 483.31640625 C-58.98453499 480.82363943 -58.50664277 478.44868876 -58 476 C-58.72775635 475.96036133 -59.4555127 475.92072266 -60.20532227 475.87988281 C-91.069702 474.12630744 -125.03896234 470.65830863 -152 454 C-155.364249 447.27150199 -152.083191 438.20087341 -150.1875 431.4375 C-149.72162476 429.75551514 -149.72162476 429.75551514 -149.24633789 428.03955078 C-129.76807917 359.3839754 -94.5925774 296.72575287 -49 242 C-48.5246582 241.42556152 -48.04931641 240.85112305 -47.55957031 240.25927734 C-41.10422015 232.46452108 -34.37295514 224.97183923 -27.46435547 217.57763672 C-26.04910134 216.05289977 -24.64869501 214.51611533 -23.25390625 212.97265625 C-18.34860744 207.54797286 -13.34668332 202.24600866 -8.1875 197.0625 C-7.660354 196.53076172 -7.13320801 195.99902344 -6.59008789 195.45117188 C-3.21315887 192.08756513 0.29904081 189.00391755 4 186 C2.72125 185.731875 1.4425 185.46375 0.125 185.1875 C-3.49675855 184.42809901 -3.80051868 184.29922197 -6 181 C-6.43492767 177.01316304 -6.62467485 174.87008283 -4.25 171.5625 C-2 170 -2 170 2 170 C1.45472656 169.34515625 0.90945312 168.6903125 0.34765625 168.015625 C-18.11891695 145.66633642 -36.40876892 118.77887495 -35.4140625 88.3046875 C-34.59159834 83.72682098 -32.01337096 81.50413428 -28.33203125 78.75390625 C-26.92133642 77.78551954 -25.46423537 76.88535162 -24 76 C-24.144375 75.24460937 -24.28875 74.48921875 -24.4375 73.7109375 C-28.72854011 48.26268572 -25.91006177 25.45728021 -11.875 3.60546875 C-8.78834104 -0.6837011 -5.0350049 -0.86399492 0 0 Z " fill="#FE5F85" transform="translate(189,0)"/>
<path d="M0 0 C2.5625 2.0625 2.5625 2.0625 4 5 C4.22947773 10.85168204 1.56288956 14.63232614 -1.44140625 19.39453125 C-7.41875223 29.38673618 -9.15247706 39.72623256 -9.25 51.1875 C-9.2593457 51.94804688 -9.26869141 52.70859375 -9.27832031 53.4921875 C-9.2507252 58.35741735 -8.54110833 62.38279051 -7 67 C-5.95779297 66.60167969 -5.95779297 66.60167969 -4.89453125 66.1953125 C10.86018694 60.72409224 30.01160072 58.29954712 45.8125 64.75 C53.62960524 68.68030708 60.08218375 73.56841835 66 80 C69.0424002 78.65950402 70.87565083 77.2332763 73.0625 74.75 C81.47811544 66.1001169 93.56771375 61.71481523 105.44140625 61.00390625 C118.67755347 60.989377 130.68398721 63.17668856 143 68 C145.34392368 46.73726373 142.99673421 28.99510132 131 11 C130.58142518 7.16306413 130.45355731 4.88796936 132.5 1.5625 C135.34688871 -0.21680545 137.62007576 -0.76868734 140.98828125 -0.55078125 C146.13932394 0.85950423 148.25578762 5.72653375 150.78515625 10.0546875 C162.24475819 31.51406947 162.54731432 53.61381209 158 77 C158.89138672 77.41765625 158.89138672 77.41765625 159.80078125 77.84375 C163.41322113 79.74300791 167.14888441 82.29776882 169 86 C171.67836154 108.12941335 159.61037963 134.9674105 146.63671875 152.265625 C144.49319532 154.91633792 142.28402394 157.46994117 140 160 C139.25105469 160.86753906 138.50210938 161.73507813 137.73046875 162.62890625 C132.34802905 168.82598548 132.34802905 168.82598548 130 170 C128.48438737 170.01781657 126.96773143 169.96734073 125.4543457 169.88330078 C124.49755417 169.83551483 123.54076263 169.78772888 122.55497742 169.73849487 C121.50171768 169.68299469 120.44845795 169.62749451 119.36328125 169.5703125 C104.6741555 168.89283278 89.99753861 168.84754511 75.2967453 168.87264252 C73.15845271 168.87503247 71.02018943 168.87391466 68.88189697 168.87164307 C48.44168524 168.8463132 48.44168524 168.8463132 28.01171875 169.4375 C26.72738197 169.49129318 26.72738197 169.49129318 25.417099 169.5461731 C21.64482237 169.70928722 17.88051403 169.90660076 14.11401367 170.17138672 C3.96176807 170.6889699 3.96176807 170.6889699 -0.0625 167.41015625 C-1.61181641 165.73828125 -1.61181641 165.73828125 -3 164 C-3.69681885 163.22462891 -3.69681885 163.22462891 -4.40771484 162.43359375 C-5.79616001 160.85303979 -7.09158339 159.22923741 -8.375 157.5625 C-8.84123779 156.96050781 -9.30747559 156.35851562 -9.7878418 155.73828125 C-24.13254105 136.83657102 -35.89576915 112.63449633 -35.37890625 88.4453125 C-34.65197204 83.75396389 -32.0889481 81.56059588 -28.33203125 78.75390625 C-26.92133642 77.78551954 -25.46423537 76.88535162 -24 76 C-24.144375 75.24460937 -24.28875 74.48921875 -24.4375 73.7109375 C-28.72854011 48.26268572 -25.91006177 25.45728021 -11.875 3.60546875 C-8.78834104 -0.6837011 -5.0350049 -0.86399492 0 0 Z " fill="#FE5F85" transform="translate(189,0)"/>
<path d="M0 0 C1.65571067 1.41425286 3.31044744 2.82965795 4.9609375 4.25 C6.23115897 5.34015176 7.5063675 6.42455266 8.7890625 7.5 C17.50500345 14.91782208 25.73213555 23.12798235 33.13671875 31.85546875 C35.14058616 34.16180671 37.21253719 36.3922389 39.29833984 38.62426758 C44.26438964 43.9417396 49.05076643 49.33660877 53.60546875 55.015625 C55.38240685 57.23027542 57.17495802 59.42492381 58.98828125 61.609375 C102.03130389 113.63113816 155.69469507 193.18762098 159.5 263.25 C158.91352067 267.64859495 158.36019589 268.2711785 155 271 C152.48835509 272.38862207 149.89430791 273.51419408 147.25 274.625 C146.23292969 275.07359375 146.23292969 275.07359375 145.1953125 275.53125 C140.53527915 277.53346965 135.94607582 278.87992453 131 280 C130.8548999 279.30777344 130.7097998 278.61554688 130.56030273 277.90234375 C127.06462816 261.36495689 123.0595145 245.12865081 118 229 C117.67692871 227.95972656 117.35385742 226.91945313 117.02099609 225.84765625 C106.4217464 192.00389816 92.10856504 159.52379653 75.9921875 127.96533203 C74.89233019 125.78672687 73.81986117 123.59583023 72.75 121.40234375 C66.33754364 108.30186518 59.29776211 95.62549363 52 83 C51.33356921 81.84112819 50.66739812 80.682107 50.00146484 79.52294922 C41.05390576 63.96207453 31.80816559 48.6824657 21.83496094 33.74951172 C19.93523429 30.90295484 18.04867136 28.04799088 16.1640625 25.19140625 C14.92239807 23.31475798 13.68022948 21.43844316 12.4375 19.5625 C11.87780518 18.71623047 11.31811035 17.86996094 10.74145508 16.99804688 C7.67772755 12.40037832 4.50635451 7.9496733 1.08618164 3.60913086 C0 2 0 2 0 0 Z " fill="#B3527E" transform="translate(317,185)"/>
<path d="M0 0 C2.10171029 -0.00203153 4.20341144 -0.00578084 6.30511856 -0.00990677 C20.62612437 -0.03425523 34.94108604 0.0531992 49.25613785 0.50574875 C50.94042641 0.55129395 50.94042641 0.55129395 52.658741 0.59775925 C53.69562561 0.63587723 54.73251022 0.67399521 55.80081558 0.71326828 C56.70250977 0.74389359 57.60420395 0.77451889 58.5332222 0.80607224 C62.07095836 1.2475213 64.95332639 2.35106197 67.8850441 4.37293625 C69.67459963 7.01017598 69.39025696 9.00935022 69.0725441 12.12293625 C67.6725441 15.82293625 67.6725441 15.82293625 65.0725441 17.12293625 C58.39334476 17.41003205 51.65582377 17.38059843 45.0100441 16.62293625 C35.76232978 15.6189795 26.36154489 16.0430388 17.0725441 16.12293625 C17.81697769 17.05299484 17.81697769 17.05299484 18.57645035 18.0018425 C38.77360994 44.33096706 40.83489144 77.43670842 36.99832535 109.4080925 C35.77890764 112.98402207 33.95391766 114.72898067 31.0725441 117.12293625 C28.0100441 117.74793625 28.0100441 117.74793625 25.0725441 117.12293625 C21.8931488 114.19766668 21.09978599 112.71978124 20.9006691 108.35731125 C21.02358734 106.86095948 21.16555065 105.36609752 21.3225441 103.87293625 C21.45011885 102.1675866 21.57223516 100.4618224 21.6897316 98.75574875 C21.75515152 97.84599289 21.82057144 96.93623703 21.88797379 95.99891281 C23.48138602 71.17034644 21.64443441 45.46224238 4.78201675 25.75208664 C2.62670459 23.34619871 0.5791388 21.17803253 -1.9274559 19.12293625 C-5.757572 18.74232767 -5.757572 18.74232767 -7.7868309 20.415905 C-22.99627212 35.65677068 -30.00260971 56.116023 -30.24947739 77.34827805 C-30.22825854 84.50664595 -30.07754711 91.62953169 -29.5133934 98.7674675 C-29.41610947 100.06696335 -29.41610947 100.06696335 -29.3168602 101.39271164 C-29.18624842 102.99716752 -29.03049034 104.59985893 -28.84469223 106.19886398 C-28.49403035 110.25141519 -28.6980478 111.82564207 -31.2243309 115.09949875 C-33.9274559 117.12293625 -33.9274559 117.12293625 -36.9899559 117.74793625 C-40.92293981 116.91113116 -41.71805082 115.41795799 -43.9274559 112.12293625 C-46.48688823 103.47836966 -46.24329574 94.07759827 -46.18819809 85.12952805 C-46.17744676 83.05867506 -46.18818144 80.98868562 -46.2008934 78.91785812 C-46.22644513 56.46790736 -40.08138503 33.25114487 -24.9274559 16.12293625 C-32.58842258 16.02387202 -40.15620293 16.08113589 -47.8024559 16.62293625 C-53.59365212 17.00408571 -59.37447913 17.31576154 -65.1774559 17.43543625 C-65.89272446 17.46508469 -66.60799301 17.49473312 -67.34493637 17.52528 C-70.75599659 17.56455342 -72.59746601 17.36517405 -75.3805809 15.322155 C-77.63999527 12.1099068 -77.47465698 9.95334383 -76.9274559 6.12293625 C-74.90079616 3.16089508 -73.68022845 2.28147421 -70.16500473 1.54114914 C-64.33788869 0.78842689 -58.48299456 0.71924185 -52.6149559 0.56043625 C-51.50255035 0.52916641 -51.50255035 0.52916641 -50.36767197 0.49726486 C-33.58164317 0.04443225 -16.79098071 0.01269506 0 0 Z " fill="#FEE578" transform="translate(259.9274559020996,167.8770637512207)"/>
<path d="M0 0 C5.15104269 1.41028548 7.26750637 6.277315 9.796875 10.60546875 C21.25647694 32.06485072 21.55903307 54.16459334 17.01171875 77.55078125 C17.60597656 77.82921875 18.20023437 78.10765625 18.8125 78.39453125 C22.42493988 80.29378916 26.16060316 82.84855007 28.01171875 86.55078125 C30.69008029 108.6801946 18.62209838 135.51819175 5.6484375 152.81640625 C3.50491407 155.46711917 1.29574269 158.02072242 -0.98828125 160.55078125 C-1.73722656 161.41832031 -2.48617187 162.28585938 -3.2578125 163.1796875 C-8.6402522 169.37676673 -8.6402522 169.37676673 -10.98828125 170.55078125 C-12.87666343 170.56705095 -14.76583935 170.5154377 -16.65234375 170.4296875 C-17.77382813 170.38134766 -18.8953125 170.33300781 -20.05078125 170.28320312 C-21.22640625 170.22712891 -22.40203125 170.17105469 -23.61328125 170.11328125 C-24.79664063 170.06107422 -25.98 170.00886719 -27.19921875 169.95507812 C-30.12915686 169.82512119 -33.05877798 169.69014597 -35.98828125 169.55078125 C-33.69121979 165.47100035 -31.33919108 161.50833311 -28.73828125 157.61328125 C-17.64104083 140.1849229 -10.20503 120.74185654 -5.98828125 100.55078125 C-5.84406738 99.86274414 -5.69985352 99.17470703 -5.55126953 98.46582031 C-3.45189983 88.1838679 -2.39733255 78.0309576 -1.98828125 67.55078125 C-0.66828125 67.88078125 0.65171875 68.21078125 2.01171875 68.55078125 C4.35564243 47.28804498 2.00845296 29.54588257 -9.98828125 11.55078125 C-10.40685607 7.71384538 -10.53472394 5.43875061 -8.48828125 2.11328125 C-5.64139254 0.3339758 -3.36820549 -0.21790609 0 0 Z " fill="#B3527E" transform="translate(329.98828125,-0.55078125)"/>
<path d="M0 0 C4.01203539 3.77391099 7.16050956 7.76105823 10.25 12.3125 C10.72888672 13.01689209 11.20777344 13.72128418 11.70117188 14.44702148 C32.32993989 45.21552756 45.00316408 80.01423836 53 116 C43.76 116.66 34.52 117.32 25 118 C22.75695046 110.14932661 22.75695046 110.14932661 22.32421875 105.98046875 C22.22165771 105.05572754 22.11909668 104.13098633 22.01342773 103.17822266 C21.90587158 102.19128418 21.79831543 101.2043457 21.6875 100.1875 C19.23345118 79.59980005 14.75616316 59.53086487 10 39.375 C9.79075897 38.48266663 9.58151794 37.59033325 9.36593628 36.67095947 C7.08258437 26.97048278 4.66690459 17.37745771 1.5234375 7.91513062 C0.60663404 5.13131052 0 2.95697271 0 0 Z " fill="#B3527E" transform="translate(356,358)"/>
<path d="M0 0 C1.10700376 3.32101129 0.97080469 3.72601103 -0.203125 6.8203125 C-2.42324202 13.07540411 -4.08195567 19.45372399 -5.75 25.875 C-6.00695648 26.86212982 -6.00695648 26.86212982 -6.269104 27.86920166 C-10.09545893 42.65604084 -13.0827566 57.59369217 -15.94338989 72.59275818 C-16.58225672 75.92596615 -17.27050885 79.23519313 -18.0625 82.53515625 C-19.56668557 89.12283029 -20.26575352 95.86654887 -21.125 102.5625 C-21.30822479 103.96684506 -21.49181575 105.3711424 -21.67578125 106.77539062 C-22.12140769 110.18305426 -22.56208465 113.59133579 -23 117 C-32.06898975 118.99969914 -42.16830354 117.70358055 -51 115 C-45.3184565 75.82102295 -27.58000672 35.11456883 -3 4 C-1.99606913 2.6696239 -0.99450461 1.33743723 0 0 Z " fill="#B3527E" transform="translate(155,358)"/>
<path d="M0 0 C5.15104269 1.41028548 7.26750637 6.277315 9.796875 10.60546875 C21.04408747 31.66712778 21.78696999 53.58409671 17.01171875 76.55078125 C13.46928423 75.18486956 10.08543946 73.64146641 6.69921875 71.92578125 C5.37470703 71.25675781 5.37470703 71.25675781 4.0234375 70.57421875 C3.02763672 70.06761719 3.02763672 70.06761719 2.01171875 69.55078125 C2.08390625 68.82375 2.15609375 68.09671875 2.23046875 67.34765625 C4.16097114 46.43388032 1.79054649 29.21902286 -9.98828125 11.55078125 C-10.40685607 7.71384538 -10.53472394 5.43875061 -8.48828125 2.11328125 C-5.64139254 0.3339758 -3.36820549 -0.21790609 0 0 Z " fill="#58758C" transform="translate(329.98828125,-0.55078125)"/>
<path d="M0 0 C2.5625 2.0625 2.5625 2.0625 4 5 C4.22947773 10.85168204 1.56288956 14.63232614 -1.44140625 19.39453125 C-10.38160787 34.33968033 -10.48830486 52.20394218 -8 69 C-12.95 71.31 -17.9 73.62 -23 76 C-29.27312049 52.47579816 -26.88192232 29.91186995 -15.0078125 8.71728516 C-11.09390192 2.04808771 -8.44454418 -1.44906379 0 0 Z " fill="#58758C" transform="translate(189,0)"/>
<path d="M0 0 C2.875 1.625 2.875 1.625 5 4 C5.625 6.9375 5.625 6.9375 5 10 C2.9375 12.9375 2.9375 12.9375 0 15 C-3.85210127 15.06641554 -5.99848005 14.87229157 -8.9375 12.3125 C-10.33817538 9.26397123 -10.4842732 7.32073048 -10 4 C-7.20900702 -0.07914358 -4.82277608 -0.78739201 0 0 Z " fill="#FF9EA6" transform="translate(313,442)"/>
<path d="M0 0 C2.875 1.625 2.875 1.625 5 4 C5.625 6.9375 5.625 6.9375 5 10 C2.9375 12.9375 2.9375 12.9375 0 15 C-3.85210127 15.06641554 -5.99848005 14.87229157 -8.9375 12.3125 C-10.33817538 9.26397123 -10.4842732 7.32073048 -10 4 C-7.20900702 -0.07914358 -4.82277608 -0.78739201 0 0 Z " fill="#FF9EA6" transform="translate(204,442)"/>
<path d="M0 0 C3.4375 0.9375 3.4375 0.9375 5.375 2.0625 C7.08300843 5.07663252 6.79954814 7.55838399 6.4375 10.9375 C5.375 12.8125 5.375 12.8125 3.4375 13.9375 C0 14.875 0 14.875 -3.5625 14.9375 C-6 13.4375 -6 13.4375 -7.5625 10.9375 C-8.12895882 6.97228823 -8.13840314 4.85894502 -6 1.4375 C-3.5625 -0.0625 -3.5625 -0.0625 0 0 Z " fill="#FF9FA7" transform="translate(256.5625,445.0625)"/>
<path d="M0 0 C2 1 2 1 3 3 C3.51981506 6.56444611 3.63102777 9.73794446 2 13 C-1.26205554 14.63102777 -4.43555389 14.51981506 -8 14 C-10 13 -10 13 -11 11 C-11.51981506 7.43555389 -11.63102777 4.26205554 -10 1 C-6.73794446 -0.63102777 -3.56444611 -0.51981506 0 0 Z " fill="#FF9FA7" transform="translate(416,414)"/>
<path d="M0 0 C2 1 2 1 3 3 C3.51981506 6.56444611 3.63102777 9.73794446 2 13 C-1.26205554 14.63102777 -4.43555389 14.51981506 -8 14 C-10 13 -10 13 -11 11 C-11.51981506 7.43555389 -11.63102777 4.26205554 -10 1 C-6.73794446 -0.63102777 -3.56444611 -0.51981506 0 0 Z " fill="#FF9FA7" transform="translate(104,414)"/>
</svg>
