<?xml version="1.0" encoding="UTF-8"?>
<svg version="1.1" xmlns="http://www.w3.org/2000/svg" width="512" height="512">
<path d="M0 0 C5.94 0 11.88 0 18 0 C18 64.68 18 129.36 18 196 C20.97 196 23.94 196 27 196 C27 249.13 27 302.26 27 357 C51.98658008 349.10950103 68.31388264 341.23650456 84 321 C89.09226423 314.63203397 94.11157256 309.62947581 102 307 C112.28221799 306.32061584 119.99430166 306.61738665 128.1875 313.0625 C133.59604946 318.07711968 137.01555381 324.68401039 138 332 C138 334.97 138 337.94 138 341 C148.89 341 159.78 341 171 341 C171 332.42 171 323.84 171 315 C186.62329548 316.30194129 199.30298153 320.24379287 210.1875 331.80859375 C219.29588582 342.82110333 223.14344646 355.40133211 223.16113281 369.46508789 C223.16609772 370.412146 223.17106262 371.3592041 223.17617798 372.33496094 C223.19076592 375.46420016 223.19759741 378.59338862 223.203125 381.72265625 C223.20888094 383.90636699 223.21463862 386.09007772 223.22039795 388.27378845 C223.23089956 392.85432164 223.23674716 397.43483733 223.24023438 402.01538086 C223.24570533 407.86018748 223.26970711 413.70475954 223.29820633 419.54949284 C223.31691426 424.06305089 223.32204273 428.57655348 223.32357025 433.09014702 C223.3265809 435.24333409 223.33455522 437.39652055 223.34775543 439.54966927 C223.4558157 458.53729705 222.05733282 474.32223957 208.375 488.6796875 C197.42497353 499.3775752 186.29536676 503.49575714 171 504 C171 495.42 171 486.84 171 478 C160.11 478 149.22 478 138 478 C138 480.97 138 483.94 138 487 C136.27827593 496.53469923 131.79289107 503.34306194 124 509 C117.28044081 513.19972449 109.71262348 512.74664759 102 512 C93.79743061 509.76606001 88.36871813 504.863293 83.4375 498.0625 C70.02906871 479.68109767 50.79872558 466.73495947 28 463 C22.60066857 462.49285847 17.18579425 462.22336154 11.76953125 461.96484375 C0.28207872 461.24940899 -8.43820694 458.57583149 -16.83203125 450.515625 C-21.80428406 444.74601994 -25.09035077 437.78726439 -25.17700195 430.13647461 C-25.18983719 429.14791977 -25.20267242 428.15936493 -25.21589661 427.14085388 C-25.22697701 425.53779137 -25.22697701 425.53779137 -25.23828125 423.90234375 C-25.246353 422.79830704 -25.25442474 421.69427032 -25.26274109 420.55677795 C-25.27658175 418.21568369 -25.28730398 415.87456924 -25.29516602 413.53344727 C-25.31231597 409.97567672 -25.35619626 406.41885068 -25.40039062 402.86132812 C-25.41052339 400.58334015 -25.41903766 398.30534428 -25.42578125 396.02734375 C-25.44328934 394.97280502 -25.46079742 393.9182663 -25.47883606 392.83177185 C-25.45256348 383.75606637 -23.36858074 375.79308499 -17.0625 369 C-16.41410156 368.278125 -15.76570312 367.55625 -15.09765625 366.8125 C-13 365 -13 365 -8 363 C-8 307.89 -8 252.78 -8 196 C-5.36 196 -2.72 196 0 196 C0 131.32 0 66.64 0 0 Z " fill="#383A41" transform="translate(25,0)"/>
<path d="M0 0 C6.347284 4.44964239 10.63639883 10.03550838 15.04296875 16.328125 C27.34701789 33.12646753 47.88548965 42.47642434 67.7890625 46.57421875 C71.24989382 47.03313677 74.64503166 47.18078719 78.1315918 47.28979492 C91.31686881 47.71885429 102.39476151 49.15848225 112.01171875 59.07421875 C118.98311951 67.44866872 120.46661544 75.69509166 120.46875 86.39453125 C120.47636353 87.46313889 120.48397705 88.53174652 120.49182129 89.63273621 C120.50257404 91.88249387 120.50549516 94.13230126 120.50097656 96.38208008 C120.50000564 99.79269194 120.54165764 103.20104096 120.5859375 106.61132812 C120.65781344 119.39616508 120.67521641 129.61571679 112.61328125 140.10546875 C111.85402344 140.79253906 111.09476563 141.47960937 110.3125 142.1875 C109.54550781 142.90292969 108.77851563 143.61835938 107.98828125 144.35546875 C106 146 106 146 104 147 C103.67 202.11 103.34 257.22 103 314 C100.36 314 97.72 314 95 314 C95 344.69 95 375.38 95 407 C89.06 407 83.12 407 77 407 C77 376.31 77 345.62 77 314 C74.03 314 71.06 314 68 314 C68 260.87 68 207.74 68 153 C43.75077553 159.46645986 24.15843481 169.00818573 9.8125 189.875 C5.43343409 196.1580076 0.3038204 200.26682124 -7.125 202.375 C-15.93354221 203.79573261 -24.1183134 202.75455183 -31.75 197.875 C-38.16547377 192.82452065 -41.75849034 185.94566181 -43 178 C-43 175.03 -43 172.06 -43 169 C-53.89 169 -64.78 169 -76 169 C-76 177.25 -76 185.5 -76 194 C-89.66652067 194 -102.09029131 190.27058766 -112.31640625 180.8046875 C-123.17763963 169.16225172 -128.14156905 156.1633936 -128.16113281 140.44311523 C-128.16609772 139.48630356 -128.17106262 138.52949188 -128.17617798 137.54368591 C-128.19076686 134.38198115 -128.19759754 131.22032663 -128.203125 128.05859375 C-128.20888084 125.85246276 -128.21463852 123.64633178 -128.22039795 121.44020081 C-128.23089981 116.81258919 -128.23674725 112.1849949 -128.24023438 107.55737305 C-128.24570557 101.65203333 -128.26970775 95.74692575 -128.29820633 89.84165859 C-128.3169127 85.28177746 -128.32204264 80.72195124 -128.32357025 76.16203499 C-128.32658122 73.98651936 -128.33455664 71.81100433 -128.34775543 69.63552666 C-128.4590524 49.87433389 -126.73350035 34.30891341 -112.4765625 19.2890625 C-101.71087406 9.33844196 -90.35237944 6.30476177 -76 5 C-76 13.58 -76 22.16 -76 31 C-65.11 31 -54.22 31 -43 31 C-43 28.03 -43 25.06 -43 22 C-41.61571058 13.34211968 -37.48165343 6.42302462 -30.5 1.125 C-21.59269158 -4.61354794 -9.41526934 -5.06712677 0 0 Z " fill="#32343B" transform="translate(375,105)"/>
<path d="M0 0 C0 8.58 0 17.16 0 26 C11.22 26 22.44 26 34 26 C34.02254641 43.84531177 34.04097881 61.69061145 34.05181217 79.53593349 C34.05697528 87.82124274 34.06401827 96.10654253 34.07543945 104.3918457 C34.08538583 111.61069608 34.09185332 118.82953961 34.09408849 126.04839665 C34.09539568 129.87308255 34.09848203 133.69774887 34.10573006 137.52242851 C34.11248954 141.11825787 34.11461711 144.71405946 34.11310768 148.30989456 C34.11351636 150.26706037 34.11891193 152.22422312 34.12442017 154.18138123 C34.1230455 155.335495 34.12167084 156.48960876 34.12025452 157.67869568 C34.12117631 158.688059 34.1220981 159.69742231 34.12304783 160.7373724 C34 163 34 163 33 164 C30.55169574 164.08843793 28.13179401 164.11528752 25.68359375 164.09765625 C24.58701195 164.09553383 24.58701195 164.09553383 23.46827698 164.09336853 C21.12464368 164.08775408 18.78110461 164.07519922 16.4375 164.0625 C14.85221492 164.05748686 13.26692834 164.05292363 11.68164062 164.04882812 C7.78769457 164.03862921 3.89395323 164.01905687 0 164 C0 172.25 0 180.5 0 189 C-13.66652067 189 -26.09029131 185.27058766 -36.31640625 175.8046875 C-47.17763963 164.16225172 -52.14156905 151.1633936 -52.16113281 135.44311523 C-52.16609772 134.48630356 -52.17106262 133.52949188 -52.17617798 132.54368591 C-52.19076686 129.38198115 -52.19759754 126.22032663 -52.203125 123.05859375 C-52.20888084 120.85246276 -52.21463852 118.64633178 -52.22039795 116.44020081 C-52.23089981 111.81258919 -52.23674725 107.1849949 -52.24023438 102.55737305 C-52.24570557 96.65203333 -52.26970775 90.74692575 -52.29820633 84.84165859 C-52.3169127 80.28177746 -52.32204264 75.72195124 -52.32357025 71.16203499 C-52.32658122 68.98651936 -52.33455664 66.81100433 -52.34775543 64.63552666 C-52.4590524 44.87433389 -50.73350035 29.30891341 -36.4765625 14.2890625 C-26.43212274 5.00508506 -13.69427228 0 0 0 Z " fill="#4E5677" transform="translate(299,110)"/>
<path d="M0 0 C15.62329548 1.30194129 28.30298153 5.24379287 39.1875 16.80859375 C48.29588582 27.82110333 52.14344646 40.40133211 52.16113281 54.46508789 C52.16858017 55.88567505 52.16858017 55.88567505 52.17617798 57.33496094 C52.19076592 60.46420016 52.19759741 63.59338862 52.203125 66.72265625 C52.20888094 68.90636699 52.21463862 71.09007772 52.22039795 73.27378845 C52.23089956 77.85432164 52.23674716 82.43483733 52.24023438 87.01538086 C52.24570533 92.86018748 52.26970711 98.70475954 52.29820633 104.54949284 C52.31691426 109.06305089 52.32204273 113.57655348 52.32357025 118.09014702 C52.3265809 120.24333409 52.33455522 122.39652055 52.34775543 124.54966927 C52.4558157 143.53729705 51.05733282 159.32223957 37.375 173.6796875 C26.42497353 184.3775752 15.29536676 188.49575714 0 189 C0 180.42 0 171.84 0 163 C-11.22 163 -22.44 163 -34 163 C-34 117.79 -34 72.58 -34 26 C-22.78 26 -11.56 26 0 26 C0 17.42 0 8.84 0 0 Z " fill="#4D5677" transform="translate(196,315)"/>
<path d="M0 0 C0 55.11 0 110.22 0 167 C-2.64 167 -5.28 167 -8 167 C-8 197.69 -8 228.38 -8 260 C-13.94 260 -19.88 260 -26 260 C-26 229.31 -26 198.62 -26 167 C-28.97 167 -31.94 167 -35 167 C-35 113.54 -35 60.08 -35 5 C-27.17103898 3.881577 -27.17103898 3.881577 -23.66015625 3.7890625 C-22.90669922 3.76070312 -22.15324219 3.73234375 -21.37695312 3.703125 C-19.83813047 3.65118162 -18.29903069 3.60686841 -16.75976562 3.5703125 C-10.92194504 3.33101669 -5.47851774 0 0 0 Z " fill="#4F5255" transform="translate(478,252)"/>
<path d="M0 0 C11.22 0 22.44 0 34 0 C34.02254641 17.84531177 34.04097881 35.69061145 34.05181217 53.53593349 C34.05697528 61.82124274 34.06401827 70.10654253 34.07543945 78.3918457 C34.08538583 85.61069608 34.09185332 92.82953961 34.09408849 100.04839665 C34.09539568 103.87308255 34.09848203 107.69774887 34.10573006 111.52242851 C34.11248954 115.11825787 34.11461711 118.71405946 34.11310768 122.30989456 C34.11351636 124.26706037 34.11891193 126.22422312 34.12442017 128.18138123 C34.1230455 129.335495 34.12167084 130.48960876 34.12025452 131.67869568 C34.12117631 132.688059 34.1220981 133.69742231 34.12304783 134.7373724 C34 137 34 137 33 138 C22.11 138 11.22 138 0 138 C0 92.46 0 46.92 0 0 Z " fill="#4E5155" transform="translate(299,136)"/>
<path d="M0 0 C11.22 0 22.44 0 34 0 C34 45.21 34 90.42 34 137 C22.78 137 11.56 137 0 137 C0 91.79 0 46.58 0 0 Z " fill="#4E5155" transform="translate(162,341)"/>
<path d="M0 0 C5.94 0 11.88 0 18 0 C18 64.68 18 129.36 18 196 C12.06 196 6.12 196 0 196 C0 131.32 0 66.64 0 0 Z " fill="#121212" transform="translate(25,0)"/>
<path d="M0 0 C5.94 0 11.88 0 18 0 C18 31.02 18 62.04 18 94 C12.06 94 6.12 94 0 94 C0 62.98 0 31.96 0 0 Z " fill="#121212" transform="translate(452,418)"/>
<path d="M0 0 C11.22 0 22.44 0 34 0 C34 5.61 34 11.22 34 17 C22.78 17 11.56 17 0 17 C0 11.39 0 5.78 0 0 Z " fill="#121212" transform="translate(26,418)"/>
<path d="M0 0 C11.22 0 22.44 0 34 0 C34 5.61 34 11.22 34 17 C22.78 17 11.56 17 0 17 C0 11.39 0 5.78 0 0 Z " fill="#121212" transform="translate(435,179)"/>
</svg>
