<?xml version="1.0" encoding="UTF-8"?>
<svg version="1.1" xmlns="http://www.w3.org/2000/svg" width="512" height="512">
<path d="M0 0 C0.94778845 -0.00768229 1.89557691 -0.01536458 2.87208623 -0.02327967 C3.90514781 -0.0215467 4.93820939 -0.01981374 6.00257587 -0.01802826 C7.65836461 -0.02694163 7.65836461 -0.02694163 9.34760362 -0.03603506 C13.05385806 -0.05340591 16.75998327 -0.05642526 20.46627522 -0.0594101 C23.12071053 -0.06866669 25.77513412 -0.078675 28.42956257 -0.08950043 C35.64664316 -0.11664003 42.86370149 -0.12871237 50.08082461 -0.13752174 C54.58945831 -0.14305138 59.09808347 -0.15152698 63.60671139 -0.16053009 C76.09612171 -0.18491229 88.5855252 -0.20551128 101.0749588 -0.21228027 C101.87399022 -0.21271941 102.67302165 -0.21315854 103.49626615 -0.21361098 C104.29718196 -0.21404753 105.09809777 -0.21448409 105.92328376 -0.21493387 C107.54617544 -0.2158208 109.16906713 -0.21671392 110.79195881 -0.21761322 C111.5969648 -0.21805608 112.40197079 -0.21849894 113.2313709 -0.21895522 C126.27061787 -0.22684853 139.30964112 -0.26174967 152.34880169 -0.30833226 C165.74418417 -0.35580014 179.13945449 -0.38068583 192.53492242 -0.38301611 C200.052678 -0.3848474 207.57014208 -0.39629548 215.08781719 -0.43265533 C221.49030263 -0.4635129 227.89240648 -0.47366614 234.29495218 -0.45717913 C237.55925977 -0.44938484 240.82264196 -0.4544179 244.08688641 -0.47929382 C247.63300783 -0.50472955 251.17717032 -0.49298453 254.723279 -0.47212982 C256.25614096 -0.49629904 256.25614096 -0.49629904 257.81996983 -0.52095652 C265.25385465 -0.41898575 270.28430625 1.7432178 276.18038654 6.26285553 C284.4265772 15.33366525 282.48666062 30.04650706 282.4992342 41.48209381 C282.50854332 43.42443504 282.51871344 45.36677231 282.52967548 47.30910492 C282.55687859 52.55833695 282.57209608 57.80754229 282.58510351 63.05682611 C282.60077658 68.55146741 282.62755344 74.04605455 282.65313435 79.54065704 C282.69984833 89.93488997 282.73662811 100.32913318 282.76980722 110.72341716 C282.80808083 122.56142597 282.85747724 134.39938027 282.90779138 146.23734307 C283.01100143 170.57914012 283.10029728 194.9209722 283.18038654 219.26285553 C283.7800423 218.1803653 284.37969807 217.09787506 284.99752522 215.98258209 C285.8018038 214.5394564 286.60625644 213.09642769 287.41085529 211.65348053 C287.80397907 210.94272369 288.19710285 210.23196686 288.60213947 209.49967194 C297.62647258 193.35135323 310.42281501 177.51121121 328.33273029 171.14176178 C342.53939495 167.26721687 357.2087234 169.85720383 370.11788654 176.70035553 C379.80968277 182.55434193 385.49547442 189.69003335 388.58053303 200.54434967 C389.56399546 205.00135178 389.66982893 209.33762088 389.61788654 213.88785553 C389.60886311 214.84860992 389.59983967 215.80936432 389.59054279 216.79923248 C388.78903999 250.18126764 366.37614297 284.86013761 342.88351154 307.47379303 C340.95196574 309.21644752 340.95196574 309.21644752 340.43038654 312.07535553 C341.41439605 316.25739592 343.15422213 317.39269747 346.44210529 320.02066803 C349.96501069 322.90532951 353.24635175 326.0125181 356.55538654 329.13785553 C361.80904703 334.10614636 361.80904703 334.10614636 367.23116779 338.88785553 C374.37992443 344.98812786 377.90258686 349.89697587 379.18038654 359.26285553 C379.32103137 362.28945266 379.32037291 365.31152539 379.31319904 368.34098053 C379.31474491 369.21741714 379.31629078 370.09385376 379.31788349 370.99684906 C379.32034145 373.83556775 379.31413462 376.67415027 379.30538654 379.51285553 C379.30156467 380.95865494 379.30156467 380.95865494 379.2976656 382.43366241 C379.27976937 388.18409719 379.24593802 393.93427126 379.19997883 399.68454742 C379.18221917 402.02168508 379.16960745 404.35878477 379.15841389 406.695961 C379.13196998 410.28202311 379.07161828 413.86511587 378.99288654 417.45035553 C378.98724689 418.45550201 378.98160725 419.4606485 378.9757967 420.49625397 C378.75022792 427.66709782 376.75885433 432.65839822 371.66769123 437.78653717 C367.36222161 441.5405974 363.78603887 443.43707464 358.11788654 443.88785553 C356.8320467 444.00000397 356.8320467 444.00000397 355.52023029 444.11441803 C352.49610849 444.24882344 349.49812295 444.2774393 346.47164631 444.27213287 C345.48084568 444.27079346 344.49004505 444.26945404 343.46922016 444.26807404 C342.33624752 444.26549088 342.33624752 444.26549088 341.18038654 444.26285553 C341.38083576 444.84421768 341.58128498 445.42557983 341.78780842 446.02455902 C343.88054204 452.10289582 345.95388086 458.18760374 348.01632404 464.27628326 C348.7874571 466.54455951 349.56343961 468.81119335 350.34444904 471.07608795 C351.46938282 474.34112214 352.57646221 477.61176091 353.68038654 480.88394928 C354.03036701 481.88743912 354.38034748 482.89092896 354.74093342 483.92482758 C357.00571309 490.71436049 358.8621678 497.31066958 355.93038654 504.20035553 C353.61735526 506.92642811 351.57692662 508.09976281 348.00413287 508.51700586 C347.20997261 508.51895678 346.41581235 508.52090771 345.59758663 508.52291775 C344.21699108 508.53351613 344.21699108 508.53351613 342.8085047 508.54432863 C341.29714172 508.540706 341.29714172 508.540706 339.75524616 508.53701019 C338.68208759 508.54224687 337.60892901 508.54748355 336.50325048 508.55287892 C332.89510354 508.56792128 329.28709788 508.568585 325.6789217 508.56925201 C323.09696429 508.57687059 320.51500917 508.58529756 317.93305683 508.59447479 C310.91038815 508.61732224 303.88774969 508.62524492 296.86504889 508.63030124 C292.48024165 508.63355815 288.09544318 508.64008055 283.71064091 508.64730263 C271.57039962 508.66686719 259.43016648 508.68327258 247.28990841 508.68617916 C246.12466055 508.68646052 246.12466055 508.68646052 244.93587234 508.68674755 C243.3610518 508.6871138 241.78623126 508.6874775 240.21141072 508.68783867 C239.42966883 508.68802148 238.64792695 508.68820429 237.84249592 508.68839264 C237.0598001 508.68857319 236.27710429 508.68875374 235.47069041 508.68893976 C222.78436378 508.69248244 210.09820677 508.71951125 197.41193898 508.75689053 C184.38725134 508.79495993 171.36264791 508.81433653 158.33790338 508.81463867 C151.02486194 508.81522351 143.71202292 508.82373221 136.39903355 508.85263634 C129.52237707 508.87969099 122.64612804 508.88106674 115.76943874 508.8649807 C113.24345687 508.86315988 110.71745232 508.86991353 108.19151974 508.88579941 C104.74703131 508.90614405 101.30396324 508.89577478 97.85949421 508.87758636 C96.85638034 508.89078633 95.85326646 508.9039863 94.8197552 508.91758627 C90.31142661 508.86309039 87.16786862 508.74419786 83.57544231 505.84943485 C79.72473152 501.69079728 80.18038654 501.55810621 80.18038654 495.26285553 C52.13038654 495.26285553 24.08038654 495.26285553 -4.81961346 495.26285553 C-5.80961346 498.23285553 -6.79961346 501.20285553 -7.81961346 504.26285553 C-10.51833159 507.27622428 -11.98118858 508.1294162 -15.96878338 508.76406097 C-17.15061199 508.76422714 -18.33244061 508.76439331 -19.55008221 508.76456451 C-20.53399441 508.77266899 -20.53399441 508.77266899 -21.53778362 508.78093719 C-23.69469339 508.79339103 -25.85025941 508.77695805 -28.00711346 508.75894928 C-29.51256664 508.75910435 -31.01802023 508.76059463 -32.52347088 508.76335907 C-35.67412306 508.76474155 -38.82431918 508.752211 -41.97488689 508.72940826 C-46.00673181 508.70102359 -50.03781931 508.70376273 -54.06972027 508.71649837 C-57.17706007 508.72346438 -60.28422582 508.71565585 -63.39154339 508.70324135 C-64.87784437 508.69873577 -66.3641641 508.69838223 -67.85046673 508.70230675 C-69.93041346 508.70522817 -72.0093286 508.68866981 -74.08914471 508.66690826 C-75.27097332 508.66150528 -76.45280193 508.65610229 -77.67044353 508.65053558 C-81.28708118 508.20530769 -83.03265021 507.61385864 -85.81961346 505.26285553 C-88.15039922 500.8051644 -89.43332109 496.33100178 -90.53714275 491.44132233 C-90.68388439 490.79977707 -90.83062603 490.15823181 -90.98181438 489.49724579 C-91.4589654 487.40359743 -91.92655827 485.3079471 -92.39383221 483.21207428 C-92.72532361 481.7470151 -93.05734821 480.28207646 -93.38988018 478.81725311 C-94.08221546 475.76120705 -94.77018131 472.70422385 -95.45462322 469.64640045 C-96.33287131 465.72300702 -97.21890433 461.80142554 -98.10777855 457.88042736 C-98.95590143 454.13743406 -99.79993627 450.39352239 -100.64383221 446.64957428 C-100.80537981 445.93470037 -100.96692741 445.21982647 -101.1333704 444.48328972 C-101.5879484 442.46850172 -102.039584 440.45307825 -102.49026775 438.43741608 C-102.74769253 437.29048782 -103.0051173 436.14355957 -103.27034283 434.96187592 C-103.81961346 432.26285553 -103.81961346 432.26285553 -103.81961346 430.26285553 C-104.80961346 430.22160553 -105.79961346 430.18035553 -106.81961346 430.13785553 C-111.72737992 429.41114772 -115.49327548 426.87724752 -118.81961346 423.26285553 C-123.47400381 416.03678834 -123.38494478 409.45082746 -123.32132244 401.0475235 C-123.32511073 399.61766784 -123.33061496 398.18781586 -123.33769512 396.75797272 C-123.35159823 392.8943728 -123.34051771 389.03122075 -123.32398391 385.16764593 C-123.31008392 381.1158934 -123.3165989 377.06416557 -123.320117 373.01239777 C-123.3228146 366.21185884 -123.3093802 359.41149688 -123.28616619 352.61100006 C-123.25953782 344.75604512 -123.25781779 336.90138554 -123.26955456 329.0464009 C-123.28034291 321.47729022 -123.27413836 313.90828605 -123.25999928 306.33918381 C-123.25425079 303.123203 -123.25431313 299.90730043 -123.25906467 296.69131851 C-123.26384601 292.90400619 -123.25368527 289.11701634 -123.23211002 285.32976532 C-123.22655847 283.94226545 -123.22606186 282.55473448 -123.23106289 281.16723251 C-123.23704476 279.26923931 -123.22263723 277.37121484 -123.20729351 275.47327423 C-123.20486362 274.41254133 -123.20243372 273.35180843 -123.19993019 272.25893211 C-122.43238858 266.21235768 -119.38977568 262.12210363 -114.81961346 258.26285553 C-111.27472083 256.19557959 -107.71141581 254.56012298 -103.81961346 253.26285553 C-102.84966157 250.9106641 -102.84966157 250.9106641 -102.23807049 247.96793365 C-101.8334811 246.26981537 -101.8334811 246.26981537 -101.42071819 244.53739166 C-101.00328854 242.68446503 -101.00328854 242.68446503 -100.57742596 240.79410553 C-100.14029781 238.89718964 -100.14029781 238.89718964 -99.6943388 236.96195221 C-99.07834328 234.27716291 -98.47311443 231.59019847 -97.87430096 228.9015274 C-97.1092648 225.47377719 -96.31076513 222.05484552 -95.50275135 218.63700867 C-94.73493823 215.36091421 -94.00212781 212.07722269 -93.26492596 208.79410553 C-92.97449413 207.57501495 -92.68406231 206.35592438 -92.38482952 205.09989166 C-90.78011777 197.69547264 -90.85136543 193.1748851 -93.81961346 186.26285553 C-95.54511991 177.63395329 -94.33063187 170.41746311 -91.88211346 162.07535553 C-89.04909177 152.18176538 -86.99245847 143.70443204 -91.21414471 133.95035553 C-93.91408799 129.43074245 -97.49625921 125.77324054 -101.16336346 122.02457428 C-104.62892157 118.42141312 -107.82080901 115.09184613 -109.50711346 110.32535553 C-109.73785564 109.69758209 -109.96859783 109.06980865 -110.20633221 108.42301178 C-116.6402181 85.76098056 -111.58939931 57.01432319 -100.34695721 36.58707428 C-96.12555707 29.8891194 -90.56540986 22.74735626 -82.81961346 20.26285553 C-68.21718793 18.54492312 -57.31082931 24.77341337 -46.13650799 33.59098053 C-38.3239301 39.91027102 -30.63304437 46.36043353 -24.62820721 54.46988678 C-24.09896648 55.18249664 -23.56972576 55.89510651 -23.02444744 56.62931061 C-22.42805462 57.43791534 -22.42805462 57.43791534 -21.81961346 58.26285553 C-21.81026775 57.06797516 -21.80092205 55.87309479 -21.79129314 54.64200592 C-21.75117584 50.17435283 -21.68535803 45.70737271 -21.61209393 41.24015045 C-21.58400974 39.3131556 -21.56273326 37.38604824 -21.54861736 35.45890045 C-21.52701289 32.67552355 -21.48027535 29.89348163 -21.42898846 27.11051178 C-21.42775982 26.2601384 -21.42653118 25.40976501 -21.42526531 24.53362274 C-21.26263396 17.76918008 -19.78016229 11.45978867 -15.0700407 6.37358856 C-10.57738719 2.25275066 -6.18816118 0.01890769 0 0 Z " fill="#D1CBFE" transform="translate(122.81961345672607,1.7371444702148438)"/>
<path d="M0 0 C0.94778845 -0.00768229 1.89557691 -0.01536458 2.87208623 -0.02327967 C3.90514781 -0.0215467 4.93820939 -0.01981374 6.00257587 -0.01802826 C7.65836461 -0.02694163 7.65836461 -0.02694163 9.34760362 -0.03603506 C13.05385806 -0.05340591 16.75998327 -0.05642526 20.46627522 -0.0594101 C23.12071053 -0.06866669 25.77513412 -0.078675 28.42956257 -0.08950043 C35.64664316 -0.11664003 42.86370149 -0.12871237 50.08082461 -0.13752174 C54.58945831 -0.14305138 59.09808347 -0.15152698 63.60671139 -0.16053009 C76.09612171 -0.18491229 88.5855252 -0.20551128 101.0749588 -0.21228027 C101.87399022 -0.21271941 102.67302165 -0.21315854 103.49626615 -0.21361098 C104.29718196 -0.21404753 105.09809777 -0.21448409 105.92328376 -0.21493387 C107.54617544 -0.2158208 109.16906713 -0.21671392 110.79195881 -0.21761322 C111.5969648 -0.21805608 112.40197079 -0.21849894 113.2313709 -0.21895522 C126.27061787 -0.22684853 139.30964112 -0.26174967 152.34880169 -0.30833226 C165.74418417 -0.35580014 179.13945449 -0.38068583 192.53492242 -0.38301611 C200.052678 -0.3848474 207.57014208 -0.39629548 215.08781719 -0.43265533 C221.49030263 -0.4635129 227.89240648 -0.47366614 234.29495218 -0.45717913 C237.55925977 -0.44938484 240.82264196 -0.4544179 244.08688641 -0.47929382 C247.63300783 -0.50472955 251.17717032 -0.49298453 254.723279 -0.47212982 C256.25614096 -0.49629904 256.25614096 -0.49629904 257.81996983 -0.52095652 C265.25385465 -0.41898575 270.28430625 1.7432178 276.18038654 6.26285553 C284.37283403 15.27454777 282.4610074 29.54000649 282.42330647 40.91300201 C282.42438115 42.79901953 282.42632258 44.68503672 282.42905903 46.57105255 C282.43389707 51.68792779 282.42625146 56.8047154 282.41610599 61.92158008 C282.40724422 67.34320376 282.40908492 72.76482532 282.40946674 78.18645477 C282.40852963 87.34190044 282.39986209 96.49731304 282.38619709 105.65274811 C282.37239647 114.93009854 282.36516823 124.20741852 282.36568928 133.48477936 C282.36824515 183.08645685 282.31591443 232.67204003 281.18038654 282.26285553 C274.25038654 282.26285553 267.32038654 282.26285553 260.18038654 282.26285553 C260.18038654 196.46285553 260.18038654 110.66285553 260.18038654 22.26285553 C230.15038654 22.26285553 200.12038654 22.26285553 169.18038654 22.26285553 C169.18038654 27.87285553 169.18038654 33.48285553 169.18038654 39.26285553 C166.265504 44.1209931 164.99727463 45.69171947 160.18038654 48.26285553 C157.03158283 48.7707901 157.03158283 48.7707901 153.62765217 48.78043365 C152.34612263 48.7930423 151.06459309 48.80565094 149.74422932 48.81864166 C148.35835942 48.81148138 146.97249458 48.80327728 145.58663654 48.79410553 C144.15226701 48.79680327 142.71789926 48.80068805 141.28353596 48.80570221 C138.28429388 48.81158411 135.28552986 48.80307738 132.28634357 48.7843399 C128.45289015 48.76155019 124.62055704 48.77468044 120.78714466 48.79862976 C117.82729457 48.81312374 114.86770758 48.80846549 111.90784931 48.79811859 C110.49493494 48.7954612 109.08199623 48.79868618 107.6691103 48.8080368 C105.69045219 48.8182598 103.71170968 48.79990049 101.73312092 48.78043365 C100.6098238 48.77725128 99.48652668 48.77406891 98.32919025 48.7707901 C94.37164946 48.13239788 92.26718889 46.79651028 89.18038654 44.26285553 C86.18038654 39.26285553 86.18038654 39.26285553 86.18038654 22.26285553 C57.80038654 22.26285553 29.42038654 22.26285553 0.18038654 22.26285553 C0.1545405 56.51980384 0.1545405 56.51980384 0.19405842 90.7765274 C0.22467423 104.77000958 0.24850098 118.76324193 0.22506428 132.75675201 C0.20802006 142.95351052 0.21609429 153.14990828 0.25273412 163.34662002 C0.27124987 168.73182664 0.27827576 174.11642511 0.25508022 179.50162697 C0.15420477 205.03583372 1.03359877 228.8224922 9.18038654 253.26285553 C11.7667711 254.66903049 11.7667711 254.66903049 14.86788654 255.95035553 C20.61130588 258.69215452 24.26006188 261.56071962 27.18038654 267.26285553 C28.22953402 270.59230097 28.31577961 273.67672528 28.33428669 277.15683746 C28.34288715 278.36241302 28.35148762 279.56798859 28.3603487 280.81009674 C28.36673862 282.78943207 28.36673862 282.78943207 28.37325764 284.80875397 C28.38116293 286.21506704 28.38943215 287.62137811 28.39803791 289.02768707 C28.42420688 293.64251532 28.43955964 298.25735242 28.45382404 302.87223053 C28.45918568 304.46317551 28.4645632 306.05412043 28.4699564 307.64506531 C28.49157691 314.26426534 28.51031265 320.88346298 28.52157879 327.50268936 C28.53781354 336.97749334 28.57098896 346.451887 28.62797964 355.92653632 C28.66671922 362.59505201 28.68621617 369.26345813 28.69149935 375.93208337 C28.69514711 379.9119301 28.7071066 383.89133867 28.73960209 387.87106323 C28.76975434 391.61736409 28.77596965 395.3629633 28.76421833 399.10935974 C28.76389365 401.13080683 28.78831103 403.15221109 28.81359577 405.17350006 C28.74962567 414.5312565 26.93631056 419.50693152 20.36788654 426.07535553 C17.33626455 428.15588043 16.55346565 428.37660228 13.22726154 428.95816803 C11.01013565 429.63854459 11.01013565 429.63854459 9.18038654 431.26285553 C7.08828712 436.11057708 6.20288927 441.16394294 5.24288654 446.32535553 C4.9536752 447.72118506 4.66138441 449.11638027 4.36593342 450.5109024 C2.86667341 457.77899274 1.92250902 464.84163078 1.18038654 472.26285553 C29.89038654 472.26285553 58.60038654 472.26285553 88.18038654 472.26285553 C89.17038654 468.63285553 90.16038654 465.00285553 91.18038654 461.26285553 C92.19672701 458.04191585 93.22800323 454.83752156 94.30538654 451.63785553 C94.56964436 450.83734772 94.83390217 450.0368399 95.10616779 449.21207428 C97.053553 443.38968908 97.053553 443.38968908 98.18038654 442.26285553 C100.84170113 442.16280878 103.47713251 442.12845393 106.13897419 442.13587189 C106.98300726 442.1343119 107.82704032 442.13275191 108.69665015 442.13114464 C111.54720333 442.12713092 114.39770399 442.13032574 117.24825764 442.133461 C119.28292084 442.1321071 121.3175838 442.13032724 123.35224628 442.12815094 C128.89560622 442.12357464 134.43894763 442.12536712 139.98230791 442.12853003 C145.77185556 442.13105331 151.56140158 442.12871611 157.35094929 442.12714386 C167.07762659 442.12532178 176.80429632 442.12772918 186.53097248 442.13248444 C197.78773366 442.13792407 209.04447672 442.13616672 220.30123746 442.13065803 C229.95048312 442.12612435 239.5997233 442.1254777 249.24896967 442.1280967 C255.01871801 442.12965846 260.78845782 442.12985605 266.5582056 442.12656021 C271.98356508 442.12367792 277.40890114 442.12566384 282.83425808 442.13145447 C284.82934435 442.13278026 286.82443259 442.13239099 288.81951809 442.1301918 C291.53564948 442.12747319 294.25170509 442.13087027 296.96783161 442.13587189 C297.76383726 442.13364117 298.55984292 442.13141044 299.37996995 442.12911212 C302.58037999 442.14060116 305.12134609 442.24317538 308.18038654 443.26285553 C310.69093559 443.41582023 313.17927179 443.51980731 315.69210529 443.57926178 C316.42032993 443.60004288 317.14855457 443.62082397 317.89884663 443.6422348 C320.22176529 443.70754299 322.5447956 443.7665279 324.86788654 443.82535553 C326.4440699 443.86855858 328.02024202 443.91217345 329.59640217 443.9562149 C333.4576163 444.06320513 337.31894257 444.16452514 341.18038654 444.26285553 C343.47830696 450.92750591 345.75459094 457.59926633 348.01632404 464.27628326 C348.7874571 466.54455951 349.56343961 468.81119335 350.34444904 471.07608795 C351.46938282 474.34112214 352.57646221 477.61176091 353.68038654 480.88394928 C354.03036701 481.88743912 354.38034748 482.89092896 354.74093342 483.92482758 C357.00571309 490.71436049 358.8621678 497.31066958 355.93038654 504.20035553 C353.61735526 506.92642811 351.57692662 508.09976281 348.00413287 508.51700586 C347.20997261 508.51895678 346.41581235 508.52090771 345.59758663 508.52291775 C344.21699108 508.53351613 344.21699108 508.53351613 342.8085047 508.54432863 C341.29714172 508.540706 341.29714172 508.540706 339.75524616 508.53701019 C338.68208759 508.54224687 337.60892901 508.54748355 336.50325048 508.55287892 C332.89510354 508.56792128 329.28709788 508.568585 325.6789217 508.56925201 C323.09696429 508.57687059 320.51500917 508.58529756 317.93305683 508.59447479 C310.91038815 508.61732224 303.88774969 508.62524492 296.86504889 508.63030124 C292.48024165 508.63355815 288.09544318 508.64008055 283.71064091 508.64730263 C271.57039962 508.66686719 259.43016648 508.68327258 247.28990841 508.68617916 C246.12466055 508.68646052 246.12466055 508.68646052 244.93587234 508.68674755 C243.3610518 508.6871138 241.78623126 508.6874775 240.21141072 508.68783867 C239.42966883 508.68802148 238.64792695 508.68820429 237.84249592 508.68839264 C237.0598001 508.68857319 236.27710429 508.68875374 235.47069041 508.68893976 C222.78436378 508.69248244 210.09820677 508.71951125 197.41193898 508.75689053 C184.38725134 508.79495993 171.36264791 508.81433653 158.33790338 508.81463867 C151.02486194 508.81522351 143.71202292 508.82373221 136.39903355 508.85263634 C129.52237707 508.87969099 122.64612804 508.88106674 115.76943874 508.8649807 C113.24345687 508.86315988 110.71745232 508.86991353 108.19151974 508.88579941 C104.74703131 508.90614405 101.30396324 508.89577478 97.85949421 508.87758636 C96.85638034 508.89078633 95.85326646 508.9039863 94.8197552 508.91758627 C90.31142661 508.86309039 87.16786862 508.74419786 83.57544231 505.84943485 C79.72473152 501.69079728 80.18038654 501.55810621 80.18038654 495.26285553 C52.13038654 495.26285553 24.08038654 495.26285553 -4.81961346 495.26285553 C-5.80961346 498.23285553 -6.79961346 501.20285553 -7.81961346 504.26285553 C-10.51833159 507.27622428 -11.98118858 508.1294162 -15.96878338 508.76406097 C-17.15061199 508.76422714 -18.33244061 508.76439331 -19.55008221 508.76456451 C-20.53399441 508.77266899 -20.53399441 508.77266899 -21.53778362 508.78093719 C-23.69469339 508.79339103 -25.85025941 508.77695805 -28.00711346 508.75894928 C-29.51256664 508.75910435 -31.01802023 508.76059463 -32.52347088 508.76335907 C-35.67412306 508.76474155 -38.82431918 508.752211 -41.97488689 508.72940826 C-46.00673181 508.70102359 -50.03781931 508.70376273 -54.06972027 508.71649837 C-57.17706007 508.72346438 -60.28422582 508.71565585 -63.39154339 508.70324135 C-64.87784437 508.69873577 -66.3641641 508.69838223 -67.85046673 508.70230675 C-69.93041346 508.70522817 -72.0093286 508.68866981 -74.08914471 508.66690826 C-75.27097332 508.66150528 -76.45280193 508.65610229 -77.67044353 508.65053558 C-81.28708118 508.20530769 -83.03265021 507.61385864 -85.81961346 505.26285553 C-88.15039922 500.8051644 -89.43332109 496.33100178 -90.53714275 491.44132233 C-90.68388439 490.79977707 -90.83062603 490.15823181 -90.98181438 489.49724579 C-91.4589654 487.40359743 -91.92655827 485.3079471 -92.39383221 483.21207428 C-92.72532361 481.7470151 -93.05734821 480.28207646 -93.38988018 478.81725311 C-94.08221546 475.76120705 -94.77018131 472.70422385 -95.45462322 469.64640045 C-96.33287131 465.72300702 -97.21890433 461.80142554 -98.10777855 457.88042736 C-98.95590143 454.13743406 -99.79993627 450.39352239 -100.64383221 446.64957428 C-100.80537981 445.93470037 -100.96692741 445.21982647 -101.1333704 444.48328972 C-101.5879484 442.46850172 -102.039584 440.45307825 -102.49026775 438.43741608 C-102.74769253 437.29048782 -103.0051173 436.14355957 -103.27034283 434.96187592 C-103.81961346 432.26285553 -103.81961346 432.26285553 -103.81961346 430.26285553 C-104.80961346 430.22160553 -105.79961346 430.18035553 -106.81961346 430.13785553 C-111.72737992 429.41114772 -115.49327548 426.87724752 -118.81961346 423.26285553 C-123.47400381 416.03678834 -123.38494478 409.45082746 -123.32132244 401.0475235 C-123.32511073 399.61766784 -123.33061496 398.18781586 -123.33769512 396.75797272 C-123.35159823 392.8943728 -123.34051771 389.03122075 -123.32398391 385.16764593 C-123.31008392 381.1158934 -123.3165989 377.06416557 -123.320117 373.01239777 C-123.3228146 366.21185884 -123.3093802 359.41149688 -123.28616619 352.61100006 C-123.25953782 344.75604512 -123.25781779 336.90138554 -123.26955456 329.0464009 C-123.28034291 321.47729022 -123.27413836 313.90828605 -123.25999928 306.33918381 C-123.25425079 303.123203 -123.25431313 299.90730043 -123.25906467 296.69131851 C-123.26384601 292.90400619 -123.25368527 289.11701634 -123.23211002 285.32976532 C-123.22655847 283.94226545 -123.22606186 282.55473448 -123.23106289 281.16723251 C-123.23704476 279.26923931 -123.22263723 277.37121484 -123.20729351 275.47327423 C-123.20486362 274.41254133 -123.20243372 273.35180843 -123.19993019 272.25893211 C-122.43238858 266.21235768 -119.38977568 262.12210363 -114.81961346 258.26285553 C-111.27472083 256.19557959 -107.71141581 254.56012298 -103.81961346 253.26285553 C-102.84966157 250.9106641 -102.84966157 250.9106641 -102.23807049 247.96793365 C-101.8334811 246.26981537 -101.8334811 246.26981537 -101.42071819 244.53739166 C-101.00328854 242.68446503 -101.00328854 242.68446503 -100.57742596 240.79410553 C-100.14029781 238.89718964 -100.14029781 238.89718964 -99.6943388 236.96195221 C-99.07834328 234.27716291 -98.47311443 231.59019847 -97.87430096 228.9015274 C-97.1092648 225.47377719 -96.31076513 222.05484552 -95.50275135 218.63700867 C-94.73493823 215.36091421 -94.00212781 212.07722269 -93.26492596 208.79410553 C-92.97449413 207.57501495 -92.68406231 206.35592438 -92.38482952 205.09989166 C-90.78011777 197.69547264 -90.85136543 193.1748851 -93.81961346 186.26285553 C-95.54511991 177.63395329 -94.33063187 170.41746311 -91.88211346 162.07535553 C-89.04909177 152.18176538 -86.99245847 143.70443204 -91.21414471 133.95035553 C-93.91408799 129.43074245 -97.49625921 125.77324054 -101.16336346 122.02457428 C-104.62892157 118.42141312 -107.82080901 115.09184613 -109.50711346 110.32535553 C-109.73785564 109.69758209 -109.96859783 109.06980865 -110.20633221 108.42301178 C-116.6402181 85.76098056 -111.58939931 57.01432319 -100.34695721 36.58707428 C-96.12555707 29.8891194 -90.56540986 22.74735626 -82.81961346 20.26285553 C-68.21718793 18.54492312 -57.31082931 24.77341337 -46.13650799 33.59098053 C-38.3239301 39.91027102 -30.63304437 46.36043353 -24.62820721 54.46988678 C-24.09896648 55.18249664 -23.56972576 55.89510651 -23.02444744 56.62931061 C-22.42805462 57.43791534 -22.42805462 57.43791534 -21.81961346 58.26285553 C-21.81026775 57.06797516 -21.80092205 55.87309479 -21.79129314 54.64200592 C-21.75117584 50.17435283 -21.68535803 45.70737271 -21.61209393 41.24015045 C-21.58400974 39.3131556 -21.56273326 37.38604824 -21.54861736 35.45890045 C-21.52701289 32.67552355 -21.48027535 29.89348163 -21.42898846 27.11051178 C-21.42775982 26.2601384 -21.42653118 25.40976501 -21.42526531 24.53362274 C-21.26263396 17.76918008 -19.78016229 11.45978867 -15.0700407 6.37358856 C-10.57738719 2.25275066 -6.18816118 0.01890769 0 0 Z " fill="#F3ABB8" transform="translate(122.81961345672607,1.7371444702148438)"/>
<path d="M0 0 C28.38 0 56.76 0 86 0 C86.495 8.415 86.495 8.415 87 17 C90.08622776 22.28858335 90.08622776 22.28858335 95 25 C98.08352709 25.45741471 98.08352709 25.45741471 101.43920898 25.40405273 C102.72081406 25.41673691 104.00241913 25.42942108 105.32286072 25.44248962 C106.71394004 25.44043798 108.10501826 25.43744978 109.49609375 25.43359375 C110.93189236 25.43815826 112.36768878 25.44346464 113.80348206 25.44947815 C116.80861298 25.45839896 119.81347802 25.45599825 122.81860352 25.44604492 C126.65989244 25.43455866 130.50026159 25.4547654 134.34142971 25.48396206 C137.30554484 25.50235452 140.26944081 25.5020256 143.23359871 25.49632454 C144.64931592 25.49617168 146.06504833 25.50218661 147.48071098 25.51461601 C149.46422105 25.52957812 151.44788286 25.51619207 153.43139648 25.50170898 C154.55770981 25.50154282 155.68402313 25.50137665 156.84446716 25.50120544 C160.78341325 24.87556745 162.92759283 23.51120647 166 21 C169.22552671 15.20547875 169.22552671 15.20547875 169 0 C199.03 0 229.06 0 260 0 C260 85.8 260 171.6 260 260 C243.17 260 226.34 260 209 260 C208.6875 243.3125 208.6875 243.3125 208.61206055 238.0715332 C208.5797533 236.68958876 208.54637713 235.30766872 208.51171875 233.92578125 C208.50547485 233.21723999 208.49923096 232.50869873 208.49279785 231.77868652 C208.36328133 227.29898495 207.46372954 224.69724893 205 221 C205.22265625 218.16015625 205.22265625 218.16015625 206.0625 215.0625 C206.36027344 213.92683594 206.65804687 212.79117188 206.96484375 211.62109375 C209.81393902 201.65463597 209.81393902 201.65463597 211.1328125 197.2890625 C217.19223674 174.3069219 212.73210455 150.28378965 201 130 C189.13937278 111.65581435 171.45199718 98.0456139 150 93 C149.36537842 92.83371094 148.73075684 92.66742188 148.0769043 92.49609375 C125.09464207 86.8082949 103.97675582 92.99837366 84.1953125 104.65234375 C72.3811624 112.37117345 63.59798473 122.61768337 57 135 C56.44570312 136.02738281 55.89140625 137.05476562 55.3203125 138.11328125 C43.35719962 162.00974803 45.46371909 186.53544181 53.25 211.3125 C53.58515625 212.29863281 53.9203125 213.28476563 54.265625 214.30078125 C55.01178746 217.04332519 55.29168832 219.17548475 55 222 C54.34 222.66 53.68 223.32 53 224 C52.7633882 226.66607762 52.64770771 229.22491833 52.62890625 231.89453125 C52.61987778 232.6789006 52.6108493 233.46326996 52.60154724 234.27140808 C52.58702672 235.93325983 52.57815353 237.59516899 52.57446289 239.25708008 C52.56259213 241.79281949 52.51345204 244.32610463 52.46289062 246.86132812 C52.45342332 248.47655063 52.44618975 250.09178808 52.44140625 251.70703125 C52.42187393 252.46240677 52.40234161 253.21778229 52.38221741 253.99604797 C52.41556913 257.91367301 52.85695893 259.80930988 55.23095703 262.97412109 C58.11751344 265.08597483 59.35663396 265.63916066 62.86328125 265.70703125 C64.19262695 265.75053711 64.19262695 265.75053711 65.54882812 265.79492188 C66.9168457 265.80362305 66.9168457 265.80362305 68.3125 265.8125 C69.24384766 265.83763672 70.17519531 265.86277344 71.13476562 265.88867188 C73.42360186 265.94735998 75.71053426 265.98377168 78 266 C78 268.31 78 270.62 78 273 C84.6 273 91.2 273 98 273 C98.23320457 291.79570684 98.4108091 310.59099439 98.51812172 329.38785839 C98.56931175 338.11902329 98.63887409 346.84926351 98.75439453 355.57983398 C98.85523566 363.20474877 98.91885244 370.82899303 98.94088495 378.45455629 C98.95373016 382.47882825 98.98308203 386.50118504 99.05730057 390.52483177 C99.12710368 394.34139391 99.14574997 398.15532376 99.13107681 401.97246361 C99.13498186 403.98183987 99.18776868 405.99095479 99.24420166 407.99954224 C99.07598148 423.72628025 93.57756951 433.82504841 88 450 C59.29 450 30.58 450 1 450 C1 441.63646752 1.65372162 434.39899742 3.33154297 426.33056641 C3.61109851 424.94061754 3.86855224 423.54604495 4.10400391 422.14794922 C6.07570932 410.4786166 6.07570932 410.4786166 10.83349609 406.82275391 C14.0703125 405.2421875 14.0703125 405.2421875 17.21923828 404.08154297 C21.83395632 402.28670531 23.57775287 399.33949636 26.10089397 395.18910694 C27.25359693 392.38255247 27.25476001 390.13310598 27.26069641 387.09928894 C27.27132362 385.28875786 27.27132362 385.28875786 27.28216553 383.44165039 C27.27987176 382.10717736 27.27736207 380.77270469 27.2746582 379.43823242 C27.27900633 378.03029612 27.28418982 376.62236218 27.29014587 375.21443176 C27.3035387 371.39197982 27.30411407 367.56962674 27.30158257 363.7471559 C27.30051271 360.55396012 27.30539681 357.36078433 27.310188 354.16759282 C27.3212849 346.63148873 27.32172005 339.09543448 27.31567383 331.55932617 C27.3096377 323.79197014 27.32193539 316.02479541 27.3432439 308.25747031 C27.36087696 301.58386303 27.36685843 294.91031337 27.36360615 288.23668367 C27.36179532 284.25309307 27.36440914 280.2696317 27.37832069 276.28606224 C27.39092164 272.53740889 27.3889337 268.78903727 27.37590981 265.04038811 C27.37242673 263.01522966 27.38370627 260.99006253 27.39547729 258.9649353 C27.34453091 250.13665434 26.53294268 243.50952712 20 237 C18.05880555 236.36194723 16.09786448 235.78212121 14.125 235.25 C10.20904179 233.45916545 8.60501709 232.40450396 6.89257812 228.42919922 C4.95944646 222.13647385 3.69614088 215.70500404 2.58740234 209.22143555 C2.2696871 207.47901966 1.93565414 205.73775736 1.51359189 204.01763541 C0.21989029 198.73935909 -0.28317859 193.86108012 -0.24050903 188.43882751 C-0.24221788 187.62667788 -0.24392673 186.81452824 -0.24568737 185.977768 C-0.24895576 183.28318175 -0.23802272 180.58885003 -0.22705078 177.89428711 C-0.22648609 175.95209763 -0.22680435 174.00990773 -0.22793579 172.06771851 C-0.22850805 166.81424906 -0.21677419 161.56087151 -0.20278788 156.30742335 C-0.19025945 150.81014269 -0.18910835 145.31285976 -0.18673706 139.81556702 C-0.1805285 129.4141769 -0.16412611 119.01282897 -0.14403808 108.61145741 C-0.11747275 94.55006662 -0.1067014 80.48866424 -0.09503365 66.42725468 C-0.07624509 44.28480486 -0.03639521 22.14244408 0 0 Z " fill="#FEFEFE" transform="translate(123,24)"/>
<path d="M0 0 C1.42168268 -0.01152344 1.42168268 -0.01152344 2.87208623 -0.02327967 C3.90514781 -0.0215467 4.93820939 -0.01981374 6.00257587 -0.01802826 C7.65836461 -0.02694163 7.65836461 -0.02694163 9.34760362 -0.03603506 C13.05385806 -0.05340591 16.75998327 -0.05642526 20.46627522 -0.0594101 C23.12071053 -0.06866669 25.77513412 -0.078675 28.42956257 -0.08950043 C35.64664316 -0.11664003 42.86370149 -0.12871237 50.08082461 -0.13752174 C54.58945831 -0.14305138 59.09808347 -0.15152698 63.60671139 -0.16053009 C76.09612171 -0.18491229 88.5855252 -0.20551128 101.0749588 -0.21228027 C101.87399022 -0.21271941 102.67302165 -0.21315854 103.49626615 -0.21361098 C104.29718196 -0.21404753 105.09809777 -0.21448409 105.92328376 -0.21493387 C107.54617544 -0.2158208 109.16906713 -0.21671392 110.79195881 -0.21761322 C111.5969648 -0.21805608 112.40197079 -0.21849894 113.2313709 -0.21895522 C126.27061787 -0.22684853 139.30964112 -0.26174967 152.34880169 -0.30833226 C165.74418417 -0.35580014 179.13945449 -0.38068583 192.53492242 -0.38301611 C200.052678 -0.3848474 207.57014208 -0.39629548 215.08781719 -0.43265533 C221.49030263 -0.4635129 227.89240648 -0.47366614 234.29495218 -0.45717913 C237.55925977 -0.44938484 240.82264196 -0.4544179 244.08688641 -0.47929382 C247.63300783 -0.50472955 251.17717032 -0.49298453 254.723279 -0.47212982 C256.25614096 -0.49629904 256.25614096 -0.49629904 257.81996983 -0.52095652 C265.25385465 -0.41898575 270.28430625 1.7432178 276.18038654 6.26285553 C284.37283403 15.27454777 282.4610074 29.54000649 282.42330647 40.91300201 C282.42438115 42.79901953 282.42632258 44.68503672 282.42905903 46.57105255 C282.43389707 51.68792779 282.42625146 56.8047154 282.41610599 61.92158008 C282.40724422 67.34320376 282.40908492 72.76482532 282.40946674 78.18645477 C282.40852963 87.34190044 282.39986209 96.49731304 282.38619709 105.65274811 C282.37239647 114.93009854 282.36516823 124.20741852 282.36568928 133.48477936 C282.36824515 183.08645685 282.31591443 232.67204003 281.18038654 282.26285553 C274.25038654 282.26285553 267.32038654 282.26285553 260.18038654 282.26285553 C260.18038654 196.46285553 260.18038654 110.66285553 260.18038654 22.26285553 C230.15038654 22.26285553 200.12038654 22.26285553 169.18038654 22.26285553 C169.18038654 27.87285553 169.18038654 33.48285553 169.18038654 39.26285553 C166.265504 44.1209931 164.99727463 45.69171947 160.18038654 48.26285553 C157.03158283 48.7707901 157.03158283 48.7707901 153.62765217 48.78043365 C152.34612263 48.7930423 151.06459309 48.80565094 149.74422932 48.81864166 C148.35835942 48.81148138 146.97249458 48.80327728 145.58663654 48.79410553 C144.15226701 48.79680327 142.71789926 48.80068805 141.28353596 48.80570221 C138.28429388 48.81158411 135.28552986 48.80307738 132.28634357 48.7843399 C128.45289015 48.76155019 124.62055704 48.77468044 120.78714466 48.79862976 C117.82729457 48.81312374 114.86770758 48.80846549 111.90784931 48.79811859 C110.49493494 48.7954612 109.08199623 48.79868618 107.6691103 48.8080368 C105.69045219 48.8182598 103.71170968 48.79990049 101.73312092 48.78043365 C100.6098238 48.77725128 99.48652668 48.77406891 98.32919025 48.7707901 C94.37164946 48.13239788 92.26718889 46.79651028 89.18038654 44.26285553 C86.18038654 39.26285553 86.18038654 39.26285553 86.18038654 22.26285553 C57.80038654 22.26285553 29.42038654 22.26285553 0.18038654 22.26285553 C0.18038654 85.95285553 0.18038654 149.64285553 0.18038654 215.26285553 C-0.14961346 215.26285553 -0.47961346 215.26285553 -0.81961346 215.26285553 C-1.00548016 214.31966461 -1.19134686 213.37647369 -1.38284588 212.40470123 C-2.08120481 208.88761173 -2.80469829 205.37608044 -3.53567791 201.86563873 C-3.8478398 200.34912363 -4.15327819 198.83120769 -4.45169353 197.3119278 C-4.88328968 195.1209131 -5.33928021 192.93617157 -5.80008221 190.75113678 C-5.92739223 190.07698227 -6.05470226 189.40282776 -6.18587017 188.70824432 C-7.24566107 183.85325885 -8.85005119 181.24230355 -12.81961346 178.26285553 C-14.8536109 177.58151724 -14.8536109 177.58151724 -16.99922466 177.12804413 C-18.89031712 176.69977577 -18.89031712 176.69977577 -20.81961346 176.26285553 C-20.91314218 155.68731117 -20.9836345 135.11180196 -21.02686214 114.53608799 C-21.04746887 104.98196612 -21.0755533 95.42797649 -21.12137127 85.87393951 C-21.16129693 77.54458937 -21.18706 69.21533503 -21.19596744 60.88589185 C-21.2011725 56.47733315 -21.21336672 52.06904847 -21.24253368 47.66057777 C-21.26979345 43.50650173 -21.27803726 39.35281118 -21.27204418 35.19865417 C-21.27313972 33.67854654 -21.28103069 32.15842528 -21.29643536 30.63839531 C-21.46425249 13.21679449 -21.46425249 13.21679449 -15.06943417 6.39612675 C-10.60546745 2.24050275 -6.18296443 0.01889181 0 0 Z " fill="#4B5F65" transform="translate(122.81961345672607,1.7371444702148438)"/>
<path d="M0 0 C0.8004671 0.00223072 1.60093419 0.00446144 2.42565787 0.00675976 C3.69170747 0.00441978 3.69170747 0.00441978 4.98333383 0.00203252 C7.83388701 -0.0019812 10.68438766 0.00121362 13.53494132 0.00434887 C15.56960452 0.00299498 17.60426747 0.00121511 19.63892996 -0.00096118 C25.1822899 -0.00553748 30.72563131 -0.003745 36.26899159 -0.0005821 C42.05853924 0.00194118 47.84808526 -0.00039601 53.63763297 -0.00196826 C63.36431027 -0.00379035 73.09098 -0.00138295 82.81765616 0.00337231 C94.07441734 0.00881195 105.3311604 0.00705459 116.58792114 0.00154591 C126.23716679 -0.00298777 135.88640698 -0.00363443 145.53565335 -0.00101542 C151.30540168 0.00054633 157.07514149 0.00074392 162.84488928 -0.00255191 C168.27024876 -0.0054342 173.69558482 -0.00344829 179.12094176 0.00234234 C181.11602803 0.00366814 183.11111627 0.00327886 185.10620177 0.00107968 C187.82233316 -0.00163893 190.53838877 0.00175815 193.25451529 0.00675976 C194.05052094 0.00452904 194.8465266 0.00229832 195.66665363 0 C198.86706367 0.01148904 201.40802977 0.11406325 204.46707022 1.13374341 C206.97761927 1.2867081 209.46595547 1.39069519 211.97878897 1.45014966 C212.70701361 1.47093075 213.43523825 1.49171185 214.1855303 1.51312268 C216.50844897 1.57843087 218.83147928 1.63741578 221.15457022 1.69624341 C222.73075357 1.73944646 224.3069257 1.78306133 225.88308585 1.82710278 C229.74429997 1.934093 233.60562625 2.03541301 237.46707022 2.13374341 C239.76499064 8.79839378 242.04127462 15.47015421 244.30300772 22.14717114 C245.07414078 24.41544738 245.85012329 26.68208122 246.63113272 28.94697583 C247.7560665 32.21201002 248.86314589 35.48264878 249.96707022 38.75483716 C250.31705069 39.75832699 250.66703116 40.76181683 251.0276171 41.79571545 C253.29239677 48.58524837 255.14885148 55.18155745 252.21707022 62.07124341 C249.90403894 64.79731599 247.8636103 65.97065069 244.29081655 66.38789374 C243.09957616 66.39082012 243.09957616 66.39082012 241.88427031 66.39380562 C240.50367475 66.40440401 240.50367475 66.40440401 239.09518838 66.41521651 C238.08761306 66.41280142 237.08003774 66.41038634 236.04192984 66.40789807 C234.43219198 66.41575309 234.43219198 66.41575309 232.78993416 66.42376679 C229.18178722 66.43880915 225.57378156 66.43947288 221.96560538 66.44013989 C219.38364797 66.44775846 216.80169285 66.45618544 214.21974051 66.46536267 C207.19707183 66.48821012 200.17443337 66.4961328 193.15173256 66.50118911 C188.76692532 66.50444603 184.38212686 66.51096842 179.99732459 66.5181905 C167.85708329 66.53775507 155.71685016 66.55416046 143.57659209 66.55706704 C142.41134423 66.55734839 142.41134423 66.55734839 141.22255602 66.55763543 C139.64773548 66.55800168 138.07291494 66.55836538 136.49809439 66.55872654 C135.71635251 66.55890935 134.93461063 66.55909216 134.1291796 66.55928051 C133.34648378 66.55946106 132.56378796 66.55964161 131.75737409 66.55982763 C119.07104746 66.56337031 106.38489045 66.59039913 93.69862266 66.6277784 C80.67393502 66.66584781 67.64933159 66.68522441 54.62458706 66.68552655 C47.31154562 66.68611138 39.9987066 66.69462008 32.68571723 66.72352421 C25.80906074 66.75057887 18.93281172 66.75195462 12.05612242 66.73586857 C9.53014054 66.73404776 7.004136 66.74080141 4.47820342 66.75668728 C1.03371499 66.77703193 -2.40935308 66.76666265 -5.85382211 66.74847424 C-6.85693599 66.76167421 -7.86004986 66.77487418 -8.89356112 66.78847414 C-13.40188971 66.73397827 -16.5454477 66.61508574 -20.13787401 63.72032273 C-24.27908531 59.24795442 -23.53292978 59.1767251 -23.53292978 52.13374341 C-21.22292978 45.20374341 -18.91292978 38.27374341 -16.53292978 31.13374341 C-45.24292978 31.13374341 -73.95292978 31.13374341 -103.53292978 31.13374341 C-103.53292978 28.49374341 -103.53292978 25.85374341 -103.53292978 23.13374341 C-103.20292978 23.13374341 -102.87292978 23.13374341 -102.53292978 23.13374341 C-102.53292978 25.44374341 -102.53292978 27.75374341 -102.53292978 30.13374341 C-73.82292978 30.13374341 -45.11292978 30.13374341 -15.53292978 30.13374341 C-14.54292978 26.50374341 -13.55292978 22.87374341 -12.53292978 19.13374341 C-11.51658932 15.91280373 -10.4853131 12.70840944 -9.40792978 9.50874341 C-9.14367197 8.70823559 -8.87941415 7.90772778 -8.60714853 7.08296216 C-6.24569755 0.02258335 -6.24569755 0.02258335 0 0 Z " fill="#A280FE" transform="translate(226.53292977809906,443.8662565946579)"/>
<path d="M0 0 C1.08410156 0.31839844 2.16820312 0.63679688 3.28515625 0.96484375 C11.85405946 3.73411933 18.84431236 7.55922751 26 13 C26.79019531 13.59425781 27.58039063 14.18851563 28.39453125 14.80078125 C43.26169739 26.96009226 52.19402993 45.39300576 54.24462891 64.24951172 C55.83315601 82.21995285 50.85353679 98.89321907 46 116 C42.04 116 38.08 116 34 116 C34 113.69 34 111.38 34 109 C25.09 109 16.18 109 7 109 C7 124.84 7 140.68 7 157 C-9.83 157 -26.66 157 -44 157 C-44 141.16 -44 125.32 -44 109 C-52.91 109 -61.82 109 -71 109 C-71 111.31 -71 113.62 -71 116 C-74.96 116 -78.92 116 -83 116 C-83.48919922 114.33324219 -83.48919922 114.33324219 -83.98828125 112.6328125 C-84.1987207 111.91665771 -84.40916016 111.20050293 -84.62597656 110.46264648 C-85.08569848 108.89727045 -85.54467644 107.33167575 -86.00292969 105.76586914 C-87.2119817 101.64265879 -88.45697542 97.53529433 -89.75 93.4375 C-95.67275038 73.42730381 -91.65284126 51.94561052 -81.875 33.9375 C-71.18652104 16.43886707 -54.1413815 3.57708802 -34.1875 -1.4375 C-23.30044607 -3.11954059 -10.57022666 -3.23026127 0 0 Z " fill="#FEFEFF" transform="translate(272,127)"/>
<path d="M0 0 C11.78124116 6.74801549 22.82043178 16.00392469 32 26 C32.596801 26.621995 33.19360201 27.24399 33.80848789 27.88483334 C39.2323602 34.05807548 39.98574056 38.70188692 39.79467773 46.76196289 C39.79569992 47.90444489 39.79672211 49.04692688 39.79777527 50.22402954 C39.79292507 53.97454121 39.73859846 57.72257352 39.68359375 61.47265625 C39.6705286 64.08294851 39.66056877 66.69325801 39.65357971 69.30357361 C39.63189998 75.45544942 39.5745643 81.60644517 39.50413328 87.75793499 C39.42564822 94.76634982 39.38734316 101.77480867 39.35226524 108.7835542 C39.27927273 123.18948824 39.156301 137.59473179 39 152 C38.27194656 152.00586624 37.54389313 152.01173248 36.79377747 152.01777649 C29.92269442 152.07575084 23.0518882 152.14785476 16.18112659 152.23571491 C12.64901334 152.28038664 9.11701456 152.31964938 5.5847168 152.34643555 C1.52102678 152.3774908 -2.54204542 152.43227834 -6.60546875 152.48828125 C-8.50258858 152.49786613 -8.50258858 152.49786613 -10.43803406 152.50764465 C-11.61888077 152.52743881 -12.79972748 152.54723297 -14.01635742 152.56762695 C-15.05338303 152.57873001 -16.09040863 152.58983307 -17.15885925 152.60127258 C-20.43840874 153.06152655 -22.34137475 154.05370305 -25 156 C-26.15323751 158.09430879 -26.15323751 158.09430879 -26.6875 160.4375 C-27.53327691 163.50408988 -28.49579036 166.19000838 -30 169 C-34.06976542 164.74524525 -34.89512713 159.339373 -35.07421875 153.63671875 C-34.68698032 146.52259568 -32.74865549 139.78644019 -30.72827148 132.98876953 C-28.39619791 124.83883978 -27.98234662 117.57124789 -31.39453125 109.6875 C-34.09447453 105.16788692 -37.67664575 101.51038501 -41.34375 97.76171875 C-44.80930812 94.15855759 -48.00119556 90.8289906 -49.6875 86.0625 C-49.91824219 85.43472656 -50.14898437 84.80695313 -50.38671875 84.16015625 C-56.82060465 61.49812503 -51.76978585 32.75146766 -40.52734375 12.32421875 C-30.62545449 -3.38677888 -17.24243638 -8.57264795 0 0 Z " fill="#C6F7CB" transform="translate(63,26)"/>
<path d="M0 0 C2.375 0.875 2.375 0.875 4.375 2.875 C4.53515625 5.71313477 4.53515625 5.71313477 4.4375 9.31640625 C4.43105469 10.62287109 4.42460937 11.92933594 4.41796875 13.27539062 C4.40381131 15.34847922 4.37573121 17.41660575 4.30322266 19.48852539 C3.94599045 28.08039982 3.94599045 28.08039982 7.44165039 35.63842773 C9.98054885 37.91968405 12.58888811 39.90699045 15.375 41.875 C16.53924312 42.90389795 17.68708379 43.95202592 18.80859375 45.02734375 C19.30689697 45.48850586 19.8052002 45.94966797 20.31860352 46.42480469 C21.36277165 47.39474286 22.40616637 48.36551399 23.44897461 49.33691406 C26.09836029 51.7982488 28.76250449 54.22779523 31.5078125 56.58203125 C38.88323222 62.98389557 43.11514364 67.93305834 44.375 77.875 C44.51169745 80.90180645 44.5149865 83.92361391 44.5078125 86.953125 C44.50935837 87.82956161 44.51090424 88.70599823 44.51249695 89.60899353 C44.5149549 92.44771222 44.50874807 95.28629474 44.5 98.125 C44.49745209 99.08886627 44.49490417 100.05273254 44.49227905 101.04580688 C44.47438283 106.79624166 44.44055148 112.54641573 44.39459229 118.29669189 C44.37683263 120.63382955 44.36422091 122.97092924 44.35302734 125.30810547 C44.32658344 128.89416758 44.26623173 132.47726035 44.1875 136.0625 C44.18186035 137.06764648 44.1762207 138.07279297 44.17041016 139.10839844 C43.94484138 146.2792423 41.95346779 151.27054269 36.86230469 156.39868164 C28.23786346 163.91857487 17.83779864 163.02200518 6.95703125 163.11328125 C6.01494308 163.121353 5.07285492 163.12942474 4.10221863 163.13774109 C2.13009411 163.15144811 0.1579472 163.1622288 -1.81420898 163.17016602 C-3.81851218 163.18175347 -5.82278294 163.20231017 -7.8269043 163.23168945 C-10.75330127 163.27444021 -13.6787981 163.29053524 -16.60546875 163.30078125 C-17.49211716 163.31828934 -18.37876556 163.33579742 -19.2922821 163.35383606 C-26.31218558 163.32952605 -31.55179082 161.56807355 -36.8671875 156.91015625 C-37.67542969 155.93369141 -37.67542969 155.93369141 -38.5 154.9375 C-39.05429687 154.28910156 -39.60859375 153.64070312 -40.1796875 152.97265625 C-43.34894461 148.37295066 -43.88622774 144.38928269 -43.94726562 138.85668945 C-43.95719543 138.16976517 -43.96712524 137.48284088 -43.97735596 136.77510071 C-44.00645386 134.51278601 -44.02018021 132.250752 -44.03125 129.98828125 C-44.03690475 129.21100363 -44.04255951 128.43372601 -44.04838562 127.63289452 C-44.07831696 123.51704943 -44.09680707 119.4013435 -44.10546875 115.28540039 C-44.11641232 111.05641833 -44.1644233 106.82873265 -44.22141266 102.60015583 C-44.2588708 99.3287956 -44.26908743 96.05774078 -44.2721405 92.78618431 C-44.27815177 91.22857792 -44.29406653 89.6709742 -44.32051086 88.1135807 C-44.4860572 77.61189058 -43.44630831 70.02783668 -35.93356323 62.0872345 C-34.182617 60.44009558 -32.3715052 58.91328235 -30.51171875 57.390625 C-13.07962138 43.30123436 -13.07962138 43.30123436 -5.42308044 23.30334473 C-5.26846105 17.70454785 -5.79620398 12.13067982 -6.69482422 6.60693359 C-6.625 3.875 -6.625 3.875 -4.81689453 1.49853516 C-2.625 -0.125 -2.625 -0.125 0 0 Z " fill="#F6C64D" transform="translate(457.625,283.125)"/>
<path d="M0 0 C36.96 0 73.92 0 112 0 C110.87628866 11.2371134 110.87628866 11.2371134 109.625 16.1640625 C109.36203125 17.22367187 109.0990625 18.28328125 108.828125 19.375 C108.55484375 20.4475 108.2815625 21.52 108 22.625 C107.45411484 24.78279134 106.91234915 26.94162964 106.375 29.1015625 C106.13523437 30.04338379 105.89546875 30.98520508 105.6484375 31.95556641 C104.87302269 35.5961623 104.46168932 39.30648547 104 43 C132.71 43 161.42 43 191 43 C189.79495957 48.42268192 188.69321288 53.31964565 186.9375 58.5 C186.59589844 59.5209375 186.25429687 60.541875 185.90234375 61.59375 C185 64 185 64 184 65 C181.35261911 65.09511266 178.73140999 65.12555635 176.08374023 65.11352539 C175.25454071 65.11367142 174.42534119 65.11381744 173.5710144 65.1139679 C170.81684802 65.11326851 168.06274839 65.10547493 165.30859375 65.09765625 C163.40430234 65.09579216 161.50001045 65.09436822 159.59571838 65.09336853 C154.57332037 65.08954263 149.55095108 65.07971173 144.52856445 65.06866455 C139.4077188 65.05845198 134.28686852 65.05387124 129.16601562 65.04882812 C119.11066443 65.03808953 109.0553346 65.02101224 99 65 C98.84144531 65.60328125 98.68289062 66.2065625 98.51953125 66.828125 C98.16955078 68.02695312 98.16955078 68.02695312 97.8125 69.25 C97.48185547 70.43335938 97.48185547 70.43335938 97.14453125 71.640625 C95.60497256 74.81432278 93.99605374 76.14894542 91 78 C87.85083008 78.50120544 87.85083008 78.50120544 84.26953125 78.50170898 C83.28561905 78.50981346 83.28561905 78.50981346 82.28182983 78.51808167 C80.12492007 78.5305355 77.96935405 78.51410252 75.8125 78.49609375 C74.30704682 78.49624882 72.80159323 78.4977391 71.29614258 78.50050354 C68.1454904 78.50188602 64.99529428 78.48935547 61.84472656 78.46655273 C57.81288165 78.43816806 53.78179415 78.4409072 49.74989319 78.45364285 C46.64255339 78.46060885 43.53538764 78.45280032 40.42807007 78.44038582 C38.94176908 78.43588024 37.45544936 78.4355267 35.96914673 78.43945122 C33.8892 78.44237264 31.81028486 78.42581428 29.73046875 78.40405273 C28.54864014 78.39864975 27.36681152 78.39324677 26.14916992 78.38768005 C22.53253227 77.94245216 20.78696325 77.35100311 18 75 C15.66921424 70.54230887 14.38629237 66.06814625 13.2824707 61.1784668 C13.06235825 60.21614891 13.06235825 60.21614891 12.83779907 59.23439026 C12.36064805 57.1407419 11.89305519 55.04509157 11.42578125 52.94921875 C11.09428985 51.48415957 10.76226525 50.01922093 10.42973328 48.55439758 C9.737398 45.49835152 9.04943214 42.44136832 8.36499023 39.38354492 C7.48674215 35.46015149 6.60070912 31.53857001 5.71183491 27.61757183 C4.86371202 23.87457853 4.01967718 20.13066686 3.17578125 16.38671875 C3.01423365 15.67184484 2.85268604 14.95697094 2.68624306 14.22043419 C2.23166506 12.20564619 1.78002946 10.19022272 1.3293457 8.17456055 C1.07192093 7.02763229 0.81449615 5.88070404 0.54927063 4.69902039 C0 2 0 2 0 0 Z " fill="#E43399" transform="translate(19,432)"/>
<path d="M0 0 C16.26966998 12.88496322 29.57965595 33.61716583 32.1875 54.5625 C33.21195681 68.77683828 32.58259863 82.13083899 28.52246094 95.80175781 C28.04091903 97.42851774 27.563674 99.05655533 27.09057617 100.68579102 C26.62435865 102.27500265 26.14093318 103.85929841 25.63793945 105.43725586 C25.42097412 106.16050049 25.20400879 106.88374512 24.98046875 107.62890625 C24.7796167 108.26771729 24.57876465 108.90652832 24.37182617 109.56469727 C24.02180254 111.65329363 24.02180254 111.65329363 25.11474609 113.78295898 C26.54768508 117.4957515 26.53118007 121.04362635 26.55859375 124.96875 C26.56762222 125.77107056 26.5766507 126.57339111 26.58595276 127.40002441 C26.60041587 129.0910267 26.60933218 130.78208445 26.61303711 132.47314453 C26.62496382 135.05466789 26.6742084 137.6338221 26.72460938 140.21484375 C26.73407135 141.86196756 26.74130746 143.50910597 26.74609375 145.15625 C26.76562607 145.92408813 26.78515839 146.69192627 26.80528259 147.48303223 C26.77217233 151.4286129 26.33688236 153.36196669 23.95654297 156.55737305 C21.01787124 158.68533204 19.87651861 159.16537157 16.32421875 159.05078125 C14.99487305 159.02661133 14.99487305 159.02661133 13.63867188 159.00195312 C12.72666016 158.96005859 11.81464844 158.91816406 10.875 158.875 C9.47797852 158.84116211 9.47797852 158.84116211 8.05273438 158.80664062 C5.7626604 158.74792078 3.47592125 158.66586858 1.1875 158.5625 C1.1875 160.8725 1.1875 163.1825 1.1875 165.5625 C-7.7225 165.5625 -16.6325 165.5625 -25.8125 165.5625 C-25.8125 145.4325 -25.8125 125.3025 -25.8125 104.5625 C-16.9025 104.5625 -7.9925 104.5625 1.1875 104.5625 C1.1875 106.8725 1.1875 109.1825 1.1875 111.5625 C5.1475 111.5625 9.1075 111.5625 13.1875 111.5625 C13.414375 109.995 13.64125 108.4275 13.875 106.8125 C14.51486774 102.82383539 15.31937535 98.96470221 16.43359375 95.0859375 C22.62555139 73.34234294 22.48072618 51.65454686 11.48828125 31.46484375 C0.73006204 12.71321673 -15.10917391 1.60498238 -35.8125 -4.4375 C-56.67808509 -8.30419934 -76.16243522 -4.2107384 -93.734375 7.51171875 C-110.03157408 19.98768015 -120.78380576 37.70194771 -123.5 58.09765625 C-124.37565524 67.80648368 -124.29784224 77.12322037 -121.8125 86.5625 C-121.62461914 87.28050781 -121.43673828 87.99851562 -121.24316406 88.73828125 C-120.36486141 92.09107129 -119.48613222 95.44339628 -118.57739258 98.78808594 C-117.43147374 103.03107096 -116.43820469 107.20365831 -115.8125 111.5625 C-111.8525 111.5625 -107.8925 111.5625 -103.8125 111.5625 C-103.8125 109.5825 -103.8125 107.6025 -103.8125 105.5625 C-95.2325 105.5625 -86.6525 105.5625 -77.8125 105.5625 C-77.8125 125.0325 -77.8125 144.5025 -77.8125 164.5625 C-86.3925 164.5625 -94.9725 164.5625 -103.8125 164.5625 C-103.8125 162.5825 -103.8125 160.6025 -103.8125 158.5625 C-104.39217529 158.58344727 -104.97185059 158.60439453 -105.5690918 158.62597656 C-108.21254924 158.70946807 -110.8557288 158.76126153 -113.5 158.8125 C-114.41201172 158.84601563 -115.32402344 158.87953125 -116.26367188 158.9140625 C-120.63019795 158.97757561 -123.09975121 158.99972486 -126.89453125 156.671875 C-130.36149524 152.85892072 -129.97335909 149.48740635 -129.98046875 144.5625 C-129.98379715 143.77101563 -129.98712555 142.97953125 -129.99055481 142.1640625 C-129.9956204 140.48958925 -129.99796325 138.8151059 -129.99780273 137.140625 C-129.99999127 134.57274865 -130.01815609 132.00530041 -130.03710938 129.4375 C-130.04004291 127.81250147 -130.04202797 126.1875009 -130.04296875 124.5625 C-130.05015427 123.79164063 -130.05733978 123.02078125 -130.06474304 122.2265625 C-130.0413272 116.7913272 -130.0413272 116.7913272 -127.8125 114.5625 C-128.12995994 108.78310105 -129.90940246 103.27347642 -131.39135742 97.70214844 C-138.38063203 70.95243027 -137.49305118 47.95040529 -123.8125 23.5625 C-111.65807036 3.38253401 -92.37140044 -9.99718282 -69.8125 -16.3125 C-45.07089265 -21.35749198 -19.97198856 -15.25870123 0 0 Z " fill="#D3CDFF" transform="translate(304.8125,131.4375)"/>
<path d="M0 0 C8.44516716 8.25749678 12.12605078 17.89081049 12.28125 29.63745117 C12.2709375 30.54084229 12.260625 31.4442334 12.25 32.375 C12.24097656 33.33575439 12.23195313 34.29650879 12.22265625 35.28637695 C11.42066148 68.68890233 -11.00274477 103.32184317 -34.484375 125.96484375 C-36.57230666 128.15334092 -36.85840012 129.78810108 -37.1875 132.75 C-37.5175 132.75 -37.8475 132.75 -38.1875 132.75 C-38.217229 131.40252686 -38.217229 131.40252686 -38.24755859 130.02783203 C-38.32559261 126.69909922 -38.41228114 123.37082744 -38.50488281 120.04248047 C-38.54319674 118.6011626 -38.57804543 117.15974832 -38.609375 115.71826172 C-38.65497446 113.64776114 -38.71297444 111.57792567 -38.7734375 109.5078125 C-38.8048584 108.2614502 -38.8362793 107.01508789 -38.86865234 105.73095703 C-38.88432309 102.63458224 -38.88432309 102.63458224 -41.1875 100.75 C-43.51567205 100.47234584 -43.51567205 100.47234584 -46.1953125 100.5546875 C-47.18144531 100.56113281 -48.16757812 100.56757813 -49.18359375 100.57421875 C-50.21613281 100.59097656 -51.24867188 100.60773438 -52.3125 100.625 C-53.35277344 100.63402344 -54.39304687 100.64304687 -55.46484375 100.65234375 C-58.03929092 100.67596253 -60.61328212 100.70889851 -63.1875 100.75 C-54.78235048 91.93723521 -42.67815062 90.60552983 -31.1875 89.75 C-30.80531233 88.09385343 -30.47354898 86.42542976 -30.1875 84.75 C-31.76265373 83.17484627 -33.31278919 83.54186049 -35.5 83.5 C-48.71797831 83.74270299 -58.95839782 89.40369462 -70.1875 95.75 C-70.1875 92.0732247 -69.20369943 90.85974063 -67.21484375 87.796875 C-66.56942627 86.7958374 -65.92400879 85.7947998 -65.2590332 84.76342773 C-64.20268677 83.14803101 -64.20268677 83.14803101 -63.125 81.5 C-62.40852295 80.39277588 -61.6920459 79.28555176 -60.95385742 78.14477539 C-59.07880016 75.24793251 -57.19537032 72.35664651 -55.30871582 69.46734619 C-53.52390458 66.73358278 -51.7428284 63.99738624 -49.9609375 61.26171875 C-48.02693699 58.29395978 -46.09152997 55.32719283 -44.15014648 52.36425781 C-43.01285791 50.62772207 -41.87877763 48.8890792 -40.74853516 47.14794922 C-39.72779842 45.57996733 -38.69660202 44.01873236 -37.65380859 42.46533203 C-37.19441895 41.76649902 -36.7350293 41.06766602 -36.26171875 40.34765625 C-35.85912842 39.74574463 -35.45653809 39.14383301 -35.04174805 38.52368164 C-33.89821999 36.47747845 -33.89821999 36.47747845 -34.1875 32.75 C-36.48980043 32.21009295 -36.48980043 32.21009295 -39.1875 32.75 C-41.01123482 34.88806455 -42.37445129 36.80717969 -43.8125 39.1875 C-44.23926025 39.86055176 -44.66602051 40.53360352 -45.10571289 41.22705078 C-46.01534202 42.66282012 -46.91790434 44.10308688 -47.81396484 45.54736328 C-49.59106464 48.39716676 -51.42268437 51.20958202 -53.25634766 54.02319336 C-54.63929936 56.14695918 -56.01413552 58.27577052 -57.38671875 60.40625 C-59.28135594 63.34622717 -61.17975947 66.28370664 -63.08203125 69.21875 C-63.55664795 69.9511792 -64.03126465 70.6836084 -64.52026367 71.43823242 C-65.4537916 72.87864752 -66.38754253 74.31891811 -67.3215332 75.7590332 C-69.36561353 78.91529544 -71.40026255 82.07615621 -73.3984375 85.26171875 C-74.03007812 86.26847656 -74.66171875 87.27523437 -75.3125 88.3125 C-75.85132813 89.18003906 -76.39015625 90.04757812 -76.9453125 90.94140625 C-77.35523438 91.53824219 -77.76515625 92.13507813 -78.1875 92.75 C-78.5175 92.75 -78.8475 92.75 -79.1875 92.75 C-79.04406032 91.06229485 -78.89761431 89.37484514 -78.75 87.6875 C-78.66878906 86.74777344 -78.58757812 85.80804688 -78.50390625 84.83984375 C-78.28544933 82.70651756 -78.0025569 80.57915723 -77.66796875 78.4609375 C-76.01896251 65.72471042 -76.2359018 53.31680171 -82.1875 41.75 C-83.8375 41.75 -85.4875 41.75 -87.1875 41.75 C-86.75616614 45.27255986 -86.25479579 48.53957124 -85.171875 51.92578125 C-84.03275283 56.35118047 -83.8048358 60.32697423 -83.8125 64.875 C-83.81193604 65.73158203 -83.81137207 66.58816406 -83.81079102 67.47070312 C-83.99836952 78.77871414 -86.41677796 89.8211264 -89.1875 100.75 C-91.4975 100.75 -93.8075 100.75 -96.1875 100.75 C-96.3745765 93.31694372 -96.51585956 85.88413744 -96.60199738 78.44924831 C-96.64338558 74.99501118 -96.69931325 71.5424081 -96.79101562 68.08911133 C-97.5370033 39.23828823 -97.5370033 39.23828823 -88.1875 26.75 C-86.86661412 24.6510874 -85.55294668 22.54759563 -84.25 20.4375 C-80.35358476 14.75331777 -75.9395395 9.72750123 -71.1875 4.75 C-70.62546875 4.11320312 -70.0634375 3.47640625 -69.484375 2.8203125 C-50.57264823 -17.83569975 -21.33126615 -15.05736434 0 0 Z " fill="#C6F6CB" transform="translate(500.1875,183.25)"/>
<path d="M0 0 C12.17514381 7.11337822 20.73189328 18.18677287 24.453125 31.83984375 C26.96710864 46.52680083 24.84455799 60.11601591 16.328125 72.46484375 C9.47473658 81.08602207 2.407741 86.63677305 -7.921875 90.52734375 C-9.25992188 91.07455078 -9.25992188 91.07455078 -10.625 91.6328125 C-22.6762297 94.90263667 -37.08654612 93.61943701 -47.921875 87.52734375 C-60.13247811 80.23332786 -67.31486418 70.90073144 -71.921875 57.52734375 C-72.16808594 56.84027344 -72.41429688 56.15320313 -72.66796875 55.4453125 C-76.23613556 43.75649019 -73.89070307 31.39975888 -68.49609375 20.69921875 C-54.21407506 -3.95294788 -25.70462558 -12.95540621 0 0 Z " fill="#FEFEFE" transform="translate(99.921875,300.47265625)"/>
<path d="M0 0 C1.9227475 -0.01925285 1.9227475 -0.01925285 3.88433838 -0.03889465 C5.29105239 -0.0470631 6.69777077 -0.05450663 8.10449219 -0.0612793 C8.81228569 -0.06535482 9.52007919 -0.06943035 10.24932098 -0.07362938 C13.99742847 -0.09449368 17.74549934 -0.10879237 21.49365234 -0.11816406 C25.35848236 -0.12921425 29.22273434 -0.16359615 33.08736038 -0.20333576 C36.06430096 -0.22953157 39.04110463 -0.2378586 42.01815033 -0.24144554 C43.44226728 -0.24630589 44.86637834 -0.25790431 46.29038239 -0.27648354 C48.28849838 -0.30092746 50.28689584 -0.29748502 52.28515625 -0.29296875 C53.42051819 -0.29883499 54.55588013 -0.30470123 55.72564697 -0.31074524 C59.65955677 0.2934495 61.80778578 1.71475836 64.90136719 4.17700195 C67.10644377 7.48461683 67.79465443 10.44437811 68.60058594 14.25512695 C68.83452812 15.32238007 68.83452812 15.32238007 69.07319641 16.41119385 C69.5843111 18.74855679 70.08662521 21.08771793 70.58886719 23.42700195 C71.11897167 25.86489054 71.65112324 28.30232663 72.18338013 30.73974609 C72.54666213 32.40413259 72.90918321 34.06868533 73.27096558 35.73339844 C74.47593055 41.26913778 75.71556255 46.79596481 76.98339844 52.31762695 C77.1468425 53.03122375 77.31028656 53.74482056 77.47868347 54.4800415 C78.10518601 57.21384923 78.73201095 59.9475529 79.36630249 62.67956543 C79.7984483 64.54241892 80.22504088 66.40655803 80.65136719 68.27075195 C81.01488281 69.84373047 81.01488281 69.84373047 81.38574219 71.44848633 C81.90136719 74.17700195 81.90136719 74.17700195 81.90136719 78.17700195 C44.94136719 78.17700195 7.98136719 78.17700195 -30.09863281 78.17700195 C-18.48337245 24.45642276 -18.48337245 24.45642276 -14.59082031 10.69262695 C-14.3663623 9.89759766 -14.1419043 9.10256836 -13.91064453 8.28344727 C-11.28831834 1.48085244 -6.57344044 0.05715552 0 0 Z " fill="#E43399" transform="translate(49.0986328125,177.822998046875)"/>
<path d="M0 0 C8.91 0 17.82 0 27 0 C27 2.31 27 4.62 27 7 C28.31355469 6.96519531 29.62710937 6.93039063 30.98046875 6.89453125 C32.71613301 6.86638534 34.45181115 6.83908604 36.1875 6.8125 C37.48397461 6.77479492 37.48397461 6.77479492 38.80664062 6.73632812 C43.68835222 6.6802165 47.067322 6.74509817 51 10 C53.42843172 14.85686345 52.31257287 22.28329175 52.35009766 27.68432617 C52.36664961 29.43120656 52.39392995 31.17801943 52.43212891 32.92456055 C52.48698252 35.44615726 52.50878326 37.96616775 52.5234375 40.48828125 C52.54610687 41.26553055 52.56877625 42.04277985 52.59213257 42.84358215 C52.57669791 46.81828053 52.16463535 48.77828601 49.77124023 52.00146484 C46.83196389 54.12118259 45.68528843 54.60275124 42.13671875 54.48828125 C40.80737305 54.46411133 40.80737305 54.46411133 39.45117188 54.43945312 C38.0831543 54.37661133 38.0831543 54.37661133 36.6875 54.3125 C35.29047852 54.27866211 35.29047852 54.27866211 33.86523438 54.24414062 C31.5751604 54.18542078 29.28842125 54.10336858 27 54 C27 56.31 27 58.62 27 61 C18.09 61 9.18 61 0 61 C0 40.87 0 20.74 0 0 Z " fill="#A483FF" transform="translate(279,236)"/>
<path d="M0 0 C8.58 0 17.16 0 26 0 C26 19.47 26 38.94 26 59 C17.42 59 8.84 59 0 59 C0 57.02 0 55.04 0 53 C-0.57967529 53.02094727 -1.15935059 53.04189453 -1.7565918 53.06347656 C-4.40004924 53.14696807 -7.0432288 53.19876153 -9.6875 53.25 C-11.05551758 53.30027344 -11.05551758 53.30027344 -12.45117188 53.3515625 C-16.81769795 53.41507561 -19.28725121 53.43722486 -23.08203125 51.109375 C-27.72049906 46.00800511 -26.34229565 38.30587274 -26.4050293 31.74291992 C-26.42661081 30.04447092 -26.46071626 28.34613319 -26.50756836 26.64819336 C-26.57460609 24.19594829 -26.60203007 21.74600107 -26.62109375 19.29296875 C-26.64892441 18.53759323 -26.67675507 17.78221771 -26.70542908 17.00395203 C-26.69424466 14.12606645 -26.55806888 11.74572159 -24.79650879 9.39183044 C-21.70680939 6.59716087 -19.16693107 5.37769704 -15.0390625 5.51171875 C-13.71455078 5.53588867 -13.71455078 5.53588867 -12.36328125 5.56054688 C-11.45964844 5.60244141 -10.55601562 5.64433594 -9.625 5.6875 C-8.23474609 5.72133789 -8.23474609 5.72133789 -6.81640625 5.75585938 C-4.54257665 5.81446323 -2.27215114 5.8964307 0 6 C0 4.02 0 2.04 0 0 Z " fill="#A27FFF" transform="translate(201,237)"/>
<path d="M0 0 C0.33 1.32 0.66 2.64 1 4 C29.71 4 58.42 4 88 4 C86.79495957 9.42268192 85.69321288 14.31964565 83.9375 19.5 C83.59589844 20.5209375 83.25429687 21.541875 82.90234375 22.59375 C82 25 82 25 81 26 C78.38849712 26.10041457 75.80341635 26.13617057 73.19140625 26.12939453 C71.96464676 26.13202301 71.96464676 26.13202301 70.71310425 26.13470459 C67.9962149 26.13912385 65.27939007 26.13618486 62.5625 26.1328125 C60.68302396 26.13348552 58.80354801 26.13445553 56.92407227 26.13571167 C52.97964654 26.13718874 49.03524342 26.13503379 45.09082031 26.13037109 C40.02287497 26.1246738 34.95498258 26.12795276 29.88703918 26.13394356 C26.00443113 26.13754892 22.12183572 26.1364107 18.23922729 26.13381577 C16.37002557 26.13314643 14.50082272 26.13397516 12.63162231 26.13629532 C10.02391496 26.13882143 7.41629459 26.13498184 4.80859375 26.12939453 C4.02829803 26.13141876 3.24800232 26.13344299 2.44406128 26.13552856 C-2.88573747 26.11426253 -2.88573747 26.11426253 -4 25 C-4.36296238 19.24553391 -3.33107601 14.1431261 -2 8.5625 C-1.80921875 7.73556641 -1.6184375 6.90863281 -1.421875 6.05664062 C-0.95471563 4.03617634 -0.47830626 2.01785453 0 0 Z " fill="#4A5D64" transform="translate(122,471)"/>
<path d="M0 0 C0.99804007 -0.00679667 0.99804007 -0.00679667 2.01624256 -0.01373065 C4.25024285 -0.02641136 6.4840005 -0.02475196 8.71803284 -0.02310181 C10.31787938 -0.02908473 11.91772303 -0.03588973 13.51756287 -0.04345703 C17.86670404 -0.06114718 22.21576655 -0.06581364 26.56494021 -0.0670886 C30.19330144 -0.06898612 33.82164428 -0.07634186 37.44999844 -0.08343279 C46.00859097 -0.09972541 54.56714142 -0.10460091 63.12574768 -0.10317993 C71.9605157 -0.1019779 80.79503966 -0.12309 89.6297459 -0.15466726 C97.21028497 -0.18079837 104.79074416 -0.19154858 112.37132794 -0.19026911 C116.90093342 -0.18975859 121.43032203 -0.19549133 125.95988274 -0.21662521 C130.21907746 -0.23595475 134.47784723 -0.23616861 138.73705673 -0.22159195 C140.30117855 -0.21949623 141.8653266 -0.22425005 143.42940331 -0.23631287 C145.56313915 -0.25170472 147.6953985 -0.24249985 149.82910156 -0.22705078 C151.02353599 -0.22814032 152.21797041 -0.22922985 153.44859982 -0.2303524 C157.08656805 0.3674144 158.30777855 1.33108702 160.4780426 4.26742554 C160.31654056 7.65896849 159.89507503 8.85039311 157.4780426 11.26742554 C154.66346073 11.52190113 154.66346073 11.52190113 150.99368286 11.52812195 C150.32030457 11.5319475 149.64692628 11.53577304 148.95314258 11.53971452 C146.68605502 11.55007242 144.4192194 11.54604718 142.15211487 11.54208374 C140.53108993 11.54642869 138.91006705 11.55161111 137.28904724 11.55757141 C132.87792487 11.57099624 128.466888 11.57153621 124.05574918 11.56900811 C120.37763873 11.56794073 116.69954574 11.57281579 113.02143902 11.57761353 C104.34639719 11.58872082 95.67139865 11.5891393 86.99635315 11.58309937 C78.03722664 11.57705769 69.0782571 11.58937269 60.11915737 11.61066943 C52.43589637 11.628264 44.75268543 11.63429018 37.06940502 11.63103169 C32.47670314 11.62921522 27.88411322 11.63189108 23.29142952 11.64574623 C18.97320894 11.65828513 14.65523369 11.65641805 10.33701706 11.64333534 C8.74990571 11.64096136 7.16277731 11.6437335 5.5756855 11.65195847 C3.41329761 11.66235887 1.25174317 11.65438048 -0.91061401 11.64164734 C-2.7277196 11.64189895 -2.7277196 11.64189895 -4.58153439 11.64215565 C-7.5219574 11.26742554 -7.5219574 11.26742554 -9.44297886 9.93544292 C-10.5219574 8.26742554 -10.5219574 8.26742554 -10.3969574 5.20492554 C-8.73814495 -0.36394483 -5.11482685 0.01435719 0 0 Z " fill="#FAF9FF" transform="translate(266.52195739746094,470.7325744628906)"/>
<path d="M0 0 C1.91894531 0.21118164 1.91894531 0.21118164 4 1 C5.24511719 2.57202148 5.24511719 2.57202148 6.296875 4.62109375 C6.69471191 5.38365479 7.09254883 6.14621582 7.50244141 6.93188477 C7.91413574 7.75873779 8.32583008 8.58559082 8.75 9.4375 C9.18103027 10.28046631 9.61206055 11.12343262 10.05615234 11.99194336 C22 35.62687046 22 35.62687046 22 40 C22.66 40 23.32 40 24 40 C24.04125 38.845 24.0825 37.69 24.125 36.5 C25.32012464 25.99286255 30.21768474 12.41252922 38 5 C40.65234375 4.18359375 40.65234375 4.18359375 43 4 C44 5 44 5 44.2265625 7.35546875 C43.96538914 10.40399229 43.41564552 11.12011417 41.375 13.3125 C33.26043255 23.53723866 28.17322579 41.33440833 29.2109375 54.30078125 C29.93756381 59.69293255 31.73743808 64.64585276 33.5625 69.75 C36.8923686 79.37387116 39.81198844 89.05727541 42.5 98.875 C42.85006104 100.14698242 43.20012207 101.41896484 43.56079102 102.72949219 C46 111.71559945 46 111.71559945 46 114 C43.36 114 40.72 114 38 114 C37.75765625 112.99839844 37.5153125 111.99679688 37.265625 110.96484375 C36.92763132 109.62225776 36.58905851 108.27981747 36.25 106.9375 C36.09273437 106.28072266 35.93546875 105.62394531 35.7734375 104.94726562 C33.72835015 96.96355923 29.85688716 91.43729974 24.1875 85.5625 C23.11237652 84.42663692 22.03815312 83.28992119 20.96484375 82.15234375 C20.19503174 81.33999268 20.19503174 81.33999268 19.40966797 80.51123047 C17.62739389 78.6005487 15.93514303 76.62148585 14.25 74.625 C11.42663456 71.36517227 8.37235099 68.55215484 5.078125 65.7734375 C3.68376431 64.58351315 2.31876414 63.35837088 0.984375 62.1015625 C-4.07791072 57.35801328 -9.38301429 53.66278541 -15.39111328 50.23291016 C-18.33034405 48.47262395 -19.81884186 47.55362552 -20.90625 44.23046875 C-20.9371875 43.49441406 -20.968125 42.75835937 -21 42 C-17.56624113 40.80425902 -16.28371087 40.8655725 -12.94140625 42.44921875 C-11.80276476 43.17634173 -10.67704267 43.92395111 -9.5625 44.6875 C-8.95269287 45.09468262 -8.34288574 45.50186523 -7.71459961 45.92138672 C5.19506127 54.75317885 16.11856792 65.8442461 27 77 C27 71.78984833 24.76243013 67.00843565 23.0625 62.125 C22.65717041 60.95984863 22.25184082 59.79469727 21.83422852 58.59423828 C15.61887523 40.99627643 7.97165968 24.19300622 -0.7421875 7.703125 C-2 5 -2 5 -1.75 2.6875 C-1 1 -1 1 0 0 Z " fill="#FCFEFC" transform="translate(45,64)"/>
<path d="M0 0 C1.2065625 0.0309375 1.2065625 0.0309375 2.4375 0.0625 C3.25 2.0390625 3.25 2.0390625 3.4375 5.0625 C2.1158249 8.07172854 0.27095137 10.71813488 -1.5625 13.4375 C-2.0992334 14.25895508 -2.6359668 15.08041016 -3.18896484 15.92675781 C-4.35384862 17.70685728 -5.52518511 19.48274691 -6.70214844 21.25488281 C-8.60359523 24.12452036 -10.48050963 27.00890276 -12.3515625 29.8984375 C-19.33640231 40.67669891 -26.40320788 51.39936609 -33.5625 62.0625 C-31.16579261 61.26359754 -29.11475134 60.40043969 -26.8671875 59.28515625 C-26.15046875 58.93646484 -25.43375 58.58777344 -24.6953125 58.22851562 C-23.21055101 57.50283203 -21.7286707 56.77121824 -20.25 56.03320312 C-13.48074927 52.7630046 -6.70135454 50.76401133 0.875 50.8125 C1.69871094 50.80734375 2.52242188 50.8021875 3.37109375 50.796875 C5.4375 51.0625 5.4375 51.0625 7.4375 53.0625 C6.88194444 57.61805556 6.88194444 57.61805556 5.4375 59.0625 C3.78460748 59.20077286 2.13140097 59.33598999 0.47705078 59.45556641 C-6.72176902 60.03581971 -11.77470824 61.43733403 -17.9375 65.1875 C-28.45718544 71.4082034 -40.78098381 69.76378073 -52.5625 69.0625 C-51.97434673 64.69417719 -51.242282 60.39175306 -50.40673828 56.06225586 C-49.00633264 48.53150306 -48.24582119 41.16311678 -48.1875 33.5 C-48.17388428 32.69216064 -48.16026855 31.88432129 -48.14624023 31.05200195 C-48.18464413 25.94849225 -49.07979833 21.76370134 -50.89501953 16.99243164 C-51.72173284 14.60209928 -51.87578167 12.56875338 -51.5625 10.0625 C-50.5625 9.0625 -50.5625 9.0625 -48 9 C-47.195625 9.020625 -46.39125 9.04125 -45.5625 9.0625 C-40.69018005 16.85821193 -39.20665295 23.96248857 -39.3125 33.0625 C-39.31636719 33.87759033 -39.32023437 34.69268066 -39.32421875 35.5324707 C-39.43517157 43.48023689 -40.39417242 51.20813005 -41.5625 59.0625 C-38.95760663 55.08380872 -36.35352621 51.104586 -33.75 47.125 C-33.36190155 46.53181976 -32.9738031 45.93863953 -32.57394409 45.32748413 C-27.90448077 38.1893841 -23.24704209 31.04393422 -18.625 23.875 C-15.10010795 18.41225261 -11.53884903 12.97518224 -7.9375 7.5625 C-7.29760132 6.59920776 -7.29760132 6.59920776 -6.64477539 5.61645508 C-2.94194494 0.07175475 -2.94194494 0.07175475 0 0 Z " fill="#FCFEFD" transform="translate(463.5625,214.9375)"/>
<path d="M0 0 C19 0 19 0 24 3 C26.42843172 7.85686345 25.31257287 15.28329175 25.35009766 20.68432617 C25.36664961 22.43120656 25.39392995 24.17801943 25.43212891 25.92456055 C25.48698252 28.44615726 25.50878326 30.96616775 25.5234375 33.48828125 C25.54610687 34.26553055 25.56877625 35.04277985 25.59213257 35.84358215 C25.56830755 41.97894585 24.80386898 42.19613102 20 47 C13.4 47 6.8 47 0 47 C0 31.49 0 15.98 0 0 Z " fill="#9E6CFF" transform="translate(306,243)"/>
<path d="M0 0 C6.93 0 13.86 0 21 0 C21 14.85 21 29.7 21 45 C14.07 45 7.14 45 0 45 C-4.10876564 39.86404295 -4.59714926 37.87413175 -4.53125 31.77734375 C-4.5350769 30.99484756 -4.53890381 30.21235138 -4.54284668 29.40614319 C-4.54555977 27.75797228 -4.53824077 26.10975788 -4.52148438 24.46166992 C-4.50003464 21.94156946 -4.52131855 19.42431003 -4.546875 16.90429688 C-4.54423218 15.29947289 -4.53910813 13.69465067 -4.53125 12.08984375 C-4.53934692 11.33871811 -4.54744385 10.58759247 -4.55578613 9.81370544 C-4.46115683 4.52780471 -4.03424616 4.03424616 0 0 Z " fill="#9E6CFF" transform="translate(179,244)"/>
<path d="M0 0 C3.04657499 1.5232875 5.37235389 2.90253356 8.0546875 4.90625 C8.8283667 5.48101074 9.6020459 6.05577148 10.39916992 6.64794922 C11.21619385 7.25912598 12.03321777 7.87030273 12.875 8.5 C14.57620849 9.76384831 16.27803733 11.02686199 17.98046875 12.2890625 C18.82399902 12.91458008 19.6675293 13.54009766 20.53662109 14.18457031 C25.97463663 18.19220991 31.48683901 22.09671799 37 26 C35.71607016 29.85178951 33.47247868 31.01458753 30.25 33.1875 C22.59239903 38.48598784 15.21787401 44.12910551 7.84667969 49.81713867 C6.97301758 50.48849854 6.09935547 51.1598584 5.19921875 51.8515625 C4.02105591 52.76156006 4.02105591 52.76156006 2.8190918 53.68994141 C1 55 1 55 0 55 C0 36.85 0 18.7 0 0 Z " fill="#E5359A" transform="translate(63,317)"/>
<path d="M0 0 C0.33 0 0.66 0 1 0 C1 17.49 1 34.98 1 53 C7.93 53 14.86 53 22 53 C22 63.56 22 74.12 22 85 C15.07 85 8.14 85 1 85 C1 102.49 1 119.98 1 138 C0.67 138 0.34 138 0 138 C0 92.46 0 46.92 0 0 Z " fill="#FED7E2" transform="translate(151,275)"/>
<path d="M0 0 C2.375 0.875 2.375 0.875 4.375 2.875 C4.61550903 5.50723267 4.61550903 5.50723267 4.60205078 8.88525391 C4.60182419 10.77698837 4.60182419 10.77698837 4.60159302 12.7069397 C4.59137898 14.08848222 4.58094697 15.47002315 4.5703125 16.8515625 C4.56658288 18.26117757 4.56373567 19.67079523 4.56173706 21.08041382 C4.55409655 24.79259382 4.53444461 28.50461761 4.5123291 32.21673584 C4.49187959 36.00384406 4.48273727 39.7909775 4.47265625 43.578125 C4.451199 51.01048793 4.41705816 58.44272208 4.375 65.875 C-1.07 66.37 -1.07 66.37 -6.625 66.875 C-6.71770775 58.72996178 -6.78876823 50.58514423 -6.83224869 42.43970871 C-6.85311795 38.65737005 -6.88142248 34.87539253 -6.92675781 31.09326172 C-6.97024074 27.44279688 -6.99414209 23.79267924 -7.00450897 20.1419754 C-7.0118961 18.74968246 -7.02632175 17.35740838 -7.04792023 15.96526337 C-7.07698041 14.01446589 -7.07863412 12.06331854 -7.07910156 10.11230469 C-7.08798401 9.0019989 -7.09686646 7.89169312 -7.10601807 6.7477417 C-6.39356068 2.49279539 -4.51064519 -0.21479263 0 0 Z " fill="#E4B24B" transform="translate(457.625,283.125)"/>
<path d="M0 0 C4.20475482 1.6997945 6.20472472 3.8425204 8 8 C8.53715295 13.01342749 8.12527558 16.01257943 5 20 C2.70861181 22.56913221 1.04267636 23.81448262 -2.37109375 24.421875 C-6.95281437 24.66695961 -9.2527698 24.56042265 -13 21.75 C-16.51198274 16.92102373 -17.63579647 14.14603257 -17 8 C-12.70377848 0.14828481 -8.43392647 -0.86363407 0 0 Z " fill="#FEFDFB" transform="translate(463,349)"/>
<path d="M0 0 C2.9375 0.875 2.9375 0.875 4.9375 3.875 C5.23828125 6.46875 5.23828125 6.46875 5.25 9.375 C5.26675781 10.3340625 5.28351563 11.293125 5.30078125 12.28125 C4.9375 14.875 4.9375 14.875 3.609375 16.69921875 C1.0488011 18.49999619 -1.02612914 18.19801818 -4.0625 17.875 C-6.84059395 15.09690605 -6.36205703 13.30744797 -6.375 9.4375 C-6.39175781 8.28378906 -6.40851563 7.13007812 -6.42578125 5.94140625 C-6.0625 2.875 -6.0625 2.875 -4.734375 0.95703125 C-3.0625 -0.125 -3.0625 -0.125 0 0 Z " fill="#E1E1E1" transform="translate(336.0625,51.125)"/>
<path d="M0 0 C3.0625 0.3125 3.0625 0.3125 4.73046875 1.51953125 C6.48658392 3.88333437 6.46358454 5.39103159 6.4375 8.3125 C6.44523437 9.17875 6.45296875 10.045 6.4609375 10.9375 C5.98841441 13.75410824 5.35655104 14.65240217 3.0625 16.3125 C0 16.625 0 16.625 -2.9375 16.3125 C-4.9375 14.3125 -4.9375 14.3125 -5.203125 11.5625 C-5.19796875 10.49 -5.1928125 9.4175 -5.1875 8.3125 C-5.19265625 7.24 -5.1978125 6.1675 -5.203125 5.0625 C-4.82298726 1.12695632 -3.90131389 0.41503339 0 0 Z " fill="#E1E1E1" transform="translate(334.9375,87.6875)"/>
<path d="M0 0 C1.59134766 -0.02513672 1.59134766 -0.02513672 3.21484375 -0.05078125 C6.0625 0.3125 6.0625 0.3125 7.953125 1.671875 C9.0625 3.3125 9.0625 3.3125 8.875 5.875 C8.0625 8.3125 8.0625 8.3125 6.0625 10.3125 C3.3125 10.578125 3.3125 10.578125 0.0625 10.5625 C-1.54625 10.57023437 -1.54625 10.57023437 -3.1875 10.578125 C-5.9375 10.3125 -5.9375 10.3125 -7.9375 8.3125 C-8.1875 5.3125 -8.1875 5.3125 -7.9375 2.3125 C-5.24648766 -0.37851234 -3.74674054 0.01362451 0 0 Z " fill="#E0E0E0" transform="translate(352.9375,72.6875)"/>
<path d="M0 0 C1.0725 0.00515625 2.145 0.0103125 3.25 0.015625 C4.85875 0.00789063 4.85875 0.00789063 6.5 0 C9.25 0.265625 9.25 0.265625 11.25 2.265625 C11.5 5.265625 11.5 5.265625 11.25 8.265625 C9.25 10.265625 9.25 10.265625 6.5 10.53125 C5.4275 10.52609375 4.355 10.5209375 3.25 10.515625 C1.64125 10.52335937 1.64125 10.52335937 0 10.53125 C-2.75 10.265625 -2.75 10.265625 -4.75 8.265625 C-5 5.265625 -5 5.265625 -4.75 2.265625 C-2.75 0.265625 -2.75 0.265625 0 0 Z " fill="#E0E0E0" transform="translate(313.75,72.734375)"/>
<path d="M0 0 C6.29749838 0.02031451 11.58980773 2.72296305 17.1875 5.375 C17.1875 5.705 17.1875 6.035 17.1875 6.375 C10.2575 6.375 3.3275 6.375 -3.8125 6.375 C-4.1425 4.725 -4.4725 3.075 -4.8125 1.375 C-3.8125 0.375 -3.8125 0.375 0 0 Z " fill="#FCFEFD" transform="translate(47.8125,171.625)"/>
</svg>
