<?xml version="1.0" encoding="UTF-8"?>
<svg version="1.1" xmlns="http://www.w3.org/2000/svg" width="512" height="512">
<path d="M0 0 C2.71677708 -0.00403733 5.4335121 -0.01551349 8.15026855 -0.02655029 C14.73269126 -0.04866034 21.31482721 -0.04403664 27.89726067 -0.02948709 C33.25196541 -0.01814624 38.60659038 -0.01668476 43.96130371 -0.02210617 C44.72649094 -0.02287234 45.49167818 -0.0236385 46.2800529 -0.02442788 C47.83502994 -0.02602668 49.39000696 -0.02764775 50.94498396 -0.02929084 C65.48984895 -0.04351249 80.03455578 -0.02721213 94.57939482 -0.00028901 C107.03087358 0.02204654 119.48211919 0.0181654 131.93359375 -0.00488281 C146.43016515 -0.03170443 160.92659831 -0.04213953 175.42319107 -0.02682149 C176.97210946 -0.02522893 178.52102786 -0.02365707 180.06994629 -0.02210617 C181.21277702 -0.0209491 181.21277702 -0.0209491 182.37869525 -0.01976866 C187.72039307 -0.01547069 193.06200242 -0.02269689 198.40368652 -0.03450394 C204.92290395 -0.04859847 211.4418208 -0.04458435 217.96100426 -0.01810022 C221.28063711 -0.005054 224.5993616 -0.00238858 227.91905212 -0.01634598 C249.40552022 -0.0983179 264.68899912 2.0929632 281.3203125 16.66650391 C285.68451309 21.10712046 288.57505219 26.14917276 291.390625 31.64697266 C291.72489502 32.29931885 292.05916504 32.95166504 292.40356445 33.6237793 C296.78326115 42.68207036 297.43648792 51.99919414 298.05078125 61.93212891 C298.13436386 63.1877916 298.21794647 64.44345428 298.30406189 65.73716736 C298.52390077 69.05291474 298.73802719 72.36892049 298.94891357 75.6852417 C299.24697962 80.3547553 299.5544671 85.02365093 299.86289978 89.69248962 C300.02611308 92.17094662 300.18653778 94.64958931 300.34376526 97.12843323 C300.72560244 103.00274477 301.2017249 108.81618694 302.015625 114.64697266 C302.716875 114.17646484 303.418125 113.70595703 304.140625 113.22119141 C314.08849458 106.69290199 323.43342763 102.06585265 335.640625 104.27197266 C343.37430835 106.33156029 349.69988548 110.90515357 354.015625 117.64697266 C368.02939301 146.16688431 357.69294747 180.94592007 348.09375 209.37744141 C332.07019968 255.34330397 332.07019968 255.34330397 316.453125 263.27197266 C312.19650814 264.87569802 308.5252089 264.97494239 304.015625 264.64697266 C304.07363281 265.51580078 304.13164062 266.38462891 304.19140625 267.27978516 C304.60587492 277.86649915 304.60587492 277.86649915 301.640625 281.39697266 C298.19207509 284.35287258 296.32824323 284.81122487 291.890625 285.20947266 C290.52550781 285.33515625 290.52550781 285.33515625 289.1328125 285.46337891 C288.43414062 285.52396484 287.73546875 285.58455078 287.015625 285.64697266 C287.40943359 286.56397949 287.80324219 287.48098633 288.20898438 288.42578125 C289.68079036 291.86616476 291.12862285 295.31622875 292.56982422 298.76953125 C293.19397292 300.2559525 293.82438692 301.73976045 294.46142578 303.22070312 C301.65036719 319.957281 301.65036719 319.957281 300.015625 327.64697266 C298.45565855 331.42695588 298.45565855 331.42695588 296.015625 332.64697266 C293.80859375 332.88525391 293.80859375 332.88525391 291.203125 332.95947266 C290.35105469 332.99685547 289.49898438 333.03423828 288.62109375 333.07275391 C285.11633597 332.50001238 283.62696086 331.02733971 281.015625 328.64697266 C279.39746094 326.16772461 279.39746094 326.16772461 278 323.38525391 C277.47494873 322.35601807 276.94989746 321.32678223 276.40893555 320.26635742 C275.86664307 319.17508545 275.32435059 318.08381348 274.765625 316.95947266 C273.62177716 314.70391762 272.47724255 312.44871073 271.33203125 310.19384766 C270.77273926 309.08460938 270.21344727 307.97537109 269.63720703 306.83251953 C267.02910623 301.70898757 264.30207987 296.6498486 261.55566406 291.59936523 C259.015625 286.86362764 259.015625 286.86362764 259.015625 284.64697266 C161.335625 284.64697266 63.655625 284.64697266 -36.984375 284.64697266 C-37.644375 286.29697266 -38.304375 287.94697266 -38.984375 289.64697266 C-40.02147868 291.64095448 -41.0894627 293.61903187 -42.1796875 295.58447266 C-42.81390625 296.72787109 -43.448125 297.87126953 -44.1015625 299.04931641 C-44.4325293 299.64212402 -44.76349609 300.23493164 -45.10449219 300.84570312 C-46.08969161 302.61168985 -47.06863208 304.38103151 -48.046875 306.15087891 C-51.34723075 312.09936588 -54.72400717 318.0025435 -58.2265625 323.83447266 C-58.85159668 324.87990234 -59.47663086 325.92533203 -60.12060547 327.00244141 C-61.90904638 329.54008771 -63.34514284 331.04994015 -65.984375 332.64697266 C-68.45703125 333.04541016 -68.45703125 333.04541016 -71.046875 333.02197266 C-71.90410156 333.02970703 -72.76132813 333.03744141 -73.64453125 333.04541016 C-76.42619854 332.57173726 -77.26870194 331.83833077 -78.984375 329.64697266 C-80.90783799 325.80004668 -80.57710232 321.8301825 -79.984375 317.64697266 C-78.22934753 312.69071173 -75.94777077 308.03273426 -73.609375 303.33447266 C-72.99817904 302.0742865 -72.38879029 300.81322217 -71.78125 299.55126953 C-70.66692728 297.23694069 -69.54087969 294.93011076 -68.40478516 292.6262207 C-67.15152388 289.9975601 -66.02827267 287.36431568 -64.984375 284.64697266 C-66.180625 284.75009766 -67.376875 284.85322266 -68.609375 284.95947266 C-72.2374602 284.95303988 -73.0832506 284.58471765 -76.359375 282.52197266 C-81.36647496 277.03800604 -81.26687566 271.70948927 -80.984375 264.64697266 C-81.95375 264.72947266 -82.923125 264.81197266 -83.921875 264.89697266 C-90.49297383 264.85714781 -95.7176077 261.99529545 -100.4296875 257.58837891 C-104.32991536 253.55259563 -106.84433792 249.13189186 -109.359375 244.14697266 C-109.82561279 243.2377002 -110.29185059 242.32842773 -110.7722168 241.39160156 C-126.64848489 209.72551094 -145.08677564 162.96512666 -134.296875 127.20947266 C-130.79025577 117.91314758 -125.40845331 110.29307115 -116.671875 105.33447266 C-104.87877284 102.31763257 -95.00968794 104.01761513 -84.4921875 110.01416016 C-81.84336372 111.73878374 -79.41779033 113.63220943 -76.984375 115.64697266 C-76.94699219 114.41333984 -76.90960938 113.17970703 -76.87109375 111.90869141 C-76.41871607 98.68344242 -75.66695822 85.47771076 -74.79702759 72.27407837 C-74.67291317 70.3711454 -74.55255123 68.4679636 -74.43612671 66.56454468 C-73.17091186 46.0380246 -69.94510438 28.23393034 -53.984375 13.64697266 C-37.33272951 0.03814584 -20.54922132 -0.08639769 0 0 Z " fill="#A1A69E" transform="translate(143.984375,171.35302734375)"/>
<path d="M0 0 C9.36583097 8.55818745 15.33849252 19.54548145 19.58203125 31.359375 C19.96230469 32.39964844 20.34257813 33.43992187 20.734375 34.51171875 C21.58203125 37.359375 21.58203125 37.359375 21.58203125 41.359375 C20.85757813 41.6996875 20.133125 42.04 19.38671875 42.390625 C12.69113365 45.747345 8.31072155 48.82517495 4.58203125 55.359375 C4.17082031 56.07222656 3.75960937 56.78507812 3.3359375 57.51953125 C0.50952355 63.06477938 -0.3158197 68.18259314 0.58203125 74.359375 C2.18906542 78.13590531 4.07174441 80.26954697 7.58203125 82.359375 C10.9665746 82.81502221 10.9665746 82.81502221 14.83166504 82.74705505 C15.56321635 82.75244059 16.29476766 82.75782613 17.04848719 82.76337487 C19.5005947 82.77768625 21.9521648 82.77054312 24.40429688 82.76342773 C26.16192561 82.76912961 27.91955063 82.77609316 29.6771698 82.78422546 C34.45189588 82.80219104 39.22643853 82.80098226 44.00118828 82.79528308 C47.98500666 82.79219651 51.96878953 82.79827766 55.95260286 82.80432183 C65.34880295 82.81837625 74.74491212 82.81679778 84.14111328 82.80541992 C93.84102517 82.793934 103.54066073 82.80802026 113.24053621 82.8348164 C121.5641972 82.85695142 129.8877713 82.86361585 138.21145964 82.85773998 C143.18480769 82.85436439 148.15797852 82.85682553 153.13130188 82.87399101 C157.80664877 82.8894234 162.48158521 82.88554602 167.15691566 82.86668587 C168.87422416 82.86298986 170.59156283 82.86613781 172.30884361 82.87657166 C174.65050561 82.88971461 176.99079523 82.87829534 179.33239746 82.86058044 C181.29908512 82.86026652 181.29908512 82.86026652 183.30550385 82.85994625 C187.12555616 82.27633802 188.13761985 81.2376912 190.58203125 78.359375 C191.24203125 78.359375 191.90203125 78.359375 192.58203125 78.359375 C193.13467935 79.00903764 193.68732744 79.65870028 194.25672245 80.32804966 C197.47570223 83.1400612 199.54957703 82.85989956 203.78697205 82.86058044 C204.51373424 82.86611484 205.24049643 82.87164924 205.98928171 82.87735134 C208.42541226 82.8909685 210.86052013 82.87598368 213.29663086 82.86108398 C215.04278499 82.86486683 216.78893612 82.87036658 218.53507996 82.87745667 C223.27895645 82.89143419 228.02247117 82.88022496 232.76632762 82.86374545 C237.72878865 82.84990713 242.69122842 82.85635372 247.65370178 82.85987854 C255.98883908 82.86258188 264.32383249 82.84909529 272.65893555 82.82592773 C282.29631141 82.79932595 291.93344651 82.79756768 301.5708465 82.8093161 C310.83892964 82.82009524 320.10692568 82.81390516 329.37500191 82.79976082 C333.32027813 82.79400133 337.26549059 82.79408344 341.21076775 82.79882622 C345.85735289 82.80359832 350.50367442 82.79348463 355.15020943 82.77187157 C356.85580176 82.76630638 358.56141943 82.76583595 360.26701355 82.77082443 C362.59500394 82.7767794 364.92218897 82.76426871 367.25010681 82.74705505 C368.55293578 82.74462516 369.85576475 82.74219526 371.19807339 82.73969173 C375.7747663 82.22532572 378.3788445 80.72851855 381.39453125 77.296875 C383.77074662 71.41886855 383.36446705 65.55654192 380.95703125 59.734375 C376.5229394 50.9592142 371.11971599 44.53860325 361.58203125 41.359375 C362.09531004 35.58498858 363.21711573 30.89075732 365.58203125 25.609375 C366.03908447 24.57719849 366.03908447 24.57719849 366.50537109 23.52416992 C372.6489865 10.25402216 382.78662848 -1.75424835 396.51953125 -7.453125 C404.99280002 -10.27754792 413.5556667 -10.48241525 421.7109375 -6.63671875 C431.04968875 -1.2673798 435.15618075 6.34115084 438.58203125 16.359375 C447.56439547 54.85350156 428.21459571 104.27109696 409.58203125 137.359375 C405.22194058 144.17690808 399.58644102 149.41464164 391.58203125 151.359375 C388.81527641 151.62682797 386.37033839 151.56216097 383.58203125 151.359375 C383.64003906 152.22820312 383.69804687 153.09703125 383.7578125 153.9921875 C384.17228117 164.57890149 384.17228117 164.57890149 381.20703125 168.109375 C377.75848134 171.06527492 375.89464948 171.52362721 371.45703125 171.921875 C370.54695313 172.00566406 369.636875 172.08945312 368.69921875 172.17578125 C368.00054687 172.23636719 367.301875 172.29695312 366.58203125 172.359375 C367.17274414 173.73488525 367.17274414 173.73488525 367.77539062 175.13818359 C369.24719661 178.57856711 370.6950291 182.02863109 372.13623047 185.48193359 C372.76037917 186.96835484 373.39079317 188.45216279 374.02783203 189.93310547 C381.21677344 206.66968335 381.21677344 206.66968335 379.58203125 214.359375 C378.0220648 218.13935823 378.0220648 218.13935823 375.58203125 219.359375 C373.375 219.59765625 373.375 219.59765625 370.76953125 219.671875 C369.49142578 219.72794922 369.49142578 219.72794922 368.1875 219.78515625 C364.68274222 219.21241472 363.19336711 217.73974206 360.58203125 215.359375 C358.96386719 212.88012695 358.96386719 212.88012695 357.56640625 210.09765625 C357.04135498 209.06842041 356.51630371 208.03918457 355.9753418 206.97875977 C355.16190308 205.34185181 355.16190308 205.34185181 354.33203125 203.671875 C353.18818341 201.41631996 352.0436488 199.16111308 350.8984375 196.90625 C350.33914551 195.79701172 349.77985352 194.68777344 349.20361328 193.54492188 C346.59551248 188.42138991 343.86848612 183.36225094 341.12207031 178.31176758 C338.58203125 173.57602998 338.58203125 173.57602998 338.58203125 171.359375 C240.90203125 171.359375 143.22203125 171.359375 42.58203125 171.359375 C41.92203125 173.009375 41.26203125 174.659375 40.58203125 176.359375 C39.54492757 178.35335683 38.47694355 180.33143422 37.38671875 182.296875 C36.43539062 184.01197266 36.43539062 184.01197266 35.46484375 185.76171875 C34.96839355 186.65093018 34.96839355 186.65093018 34.46191406 187.55810547 C33.47671464 189.32409219 32.49777417 191.09343386 31.51953125 192.86328125 C28.2191755 198.81176822 24.84239908 204.71494584 21.33984375 210.546875 C20.71480957 211.59230469 20.08977539 212.63773438 19.44580078 213.71484375 C17.65735987 216.25249006 16.22126341 217.76234249 13.58203125 219.359375 C11.109375 219.7578125 11.109375 219.7578125 8.51953125 219.734375 C7.66230469 219.74210938 6.80507812 219.74984375 5.921875 219.7578125 C3.14020771 219.28413961 2.29770431 218.55073311 0.58203125 216.359375 C-1.34143174 212.51244902 -1.01069607 208.54258484 -0.41796875 204.359375 C1.33705872 199.40311407 3.61863548 194.7451366 5.95703125 190.046875 C6.56822721 188.78668884 7.17761596 187.52562451 7.78515625 186.26367188 C8.89947897 183.94934304 10.02552656 181.6425131 11.16162109 179.33862305 C12.41488237 176.70996244 13.53813358 174.07671803 14.58203125 171.359375 C12.78765625 171.5140625 12.78765625 171.5140625 10.95703125 171.671875 C7.32894605 171.66544222 6.48315565 171.29711999 3.20703125 169.234375 C-1.80006871 163.75040838 -1.70046941 158.42189161 -1.41796875 151.359375 C-2.38734375 151.441875 -3.35671875 151.524375 -4.35546875 151.609375 C-10.92656758 151.56955016 -16.15120145 148.70769779 -20.86328125 144.30078125 C-24.76350911 140.26499797 -27.27793167 135.8442942 -29.79296875 130.859375 C-30.25920654 129.95010254 -30.72544434 129.04083008 -31.20581055 128.10400391 C-47.08207864 96.43791328 -65.52036939 49.677529 -54.73046875 13.921875 C-51.24399597 4.67895974 -45.81565446 -3.36376159 -36.85546875 -7.953125 C-23.53807831 -11.70931205 -10.96617157 -8.0821548 0 0 Z " fill="#7C8378" transform="translate(64.41796875,284.640625)"/>
<path d="M0 0 C1.54176498 -0.00271482 3.08352866 -0.0062785 4.62528992 -0.01062012 C8.78395738 -0.01968339 12.94252485 -0.01622629 17.1011939 -0.00986195 C21.4621694 -0.00477588 25.8231367 -0.00950011 30.18411255 -0.01263428 C37.49889658 -0.01626403 44.8136401 -0.01149847 52.12841797 -0.00195312 C60.58438213 0.00895396 69.04025001 0.00538555 77.49621189 -0.00560594 C84.76691254 -0.01467798 92.03758421 -0.01596523 99.30828869 -0.0107286 C103.64657046 -0.00761158 107.98480693 -0.0071927 112.32308578 -0.01380157 C116.39596645 -0.01957405 120.46872255 -0.01558002 124.54158974 -0.00401306 C126.03636913 -0.001367 127.53115899 -0.00213067 129.02593422 -0.00653839 C131.0646388 -0.01199645 133.10336627 -0.00394111 135.14205933 0.00482178 C136.28315596 0.00557583 137.42425259 0.00632988 138.5999279 0.00710678 C141.47276037 0.25504748 143.14261917 0.65062718 145.51611328 2.25878906 C146.26611328 4.38378906 146.26611328 4.38378906 146.51611328 6.25878906 C147.17611328 6.25878906 147.83611328 6.25878906 148.51611328 6.25878906 C148.59861328 5.64003906 148.68111328 5.02128906 148.76611328 4.38378906 C149.51611328 2.25878906 149.51611328 2.25878906 151.15986443 1.14227009 C154.20071286 0.00209685 156.71651765 0.00386415 159.96609497 -0.00190735 C160.93456527 -0.00764567 160.93456527 -0.00764567 161.92260063 -0.01349992 C164.08422564 -0.02381136 166.24558409 -0.01984129 168.40722656 -0.01586914 C169.95807643 -0.02021686 171.50892415 -0.02540021 173.05976868 -0.03135681 C177.27290297 -0.04475705 181.48594761 -0.04532395 185.69909906 -0.04279351 C189.22007464 -0.0417237 192.74103209 -0.04660785 196.26200378 -0.05139893 C204.57491083 -0.06249936 212.88777271 -0.06292964 221.20068359 -0.05688477 C229.76208952 -0.05085451 238.32333071 -0.06313057 246.88470852 -0.08445483 C254.24370624 -0.10210698 261.60265171 -0.10806619 268.9616698 -0.10481709 C273.3527994 -0.10300859 277.74381169 -0.10559634 282.13492203 -0.11953163 C286.27016106 -0.1321629 290.40514509 -0.1301161 294.54038048 -0.11712074 C296.05198823 -0.11476625 297.56361421 -0.11744891 299.07520103 -0.12574387 C310.65026812 -0.18464379 320.3403394 0.58575182 329.47314453 8.23144531 C335.7599188 14.47013718 339.50084246 21.43214449 339.82861328 30.32128906 C339.72078119 35.45101578 338.32794974 38.14497987 335.01611328 42.00878906 C331.57154914 44.87925918 327.6861062 44.38951492 323.42469788 44.39923096 C322.33477788 44.40368764 322.33477788 44.40368764 321.2228393 44.40823436 C318.78160458 44.41692446 316.34041889 44.41842985 313.89916992 44.41992188 C312.15154414 44.42454974 310.40391937 44.42957436 308.65629578 44.43496704 C303.90429067 44.44809405 299.15229969 44.45453632 294.40027928 44.4589777 C291.43313039 44.46190729 288.46598537 44.46601183 285.49883842 44.47048187 C276.22010124 44.48415616 266.94137289 44.49382376 257.66262633 44.49768376 C246.94229479 44.50216773 236.22209055 44.51973163 225.50179774 44.54868436 C217.22063657 44.57027556 208.9395113 44.58038663 200.65832227 44.58172488 C195.7095691 44.58277454 190.7609356 44.58871664 185.81221199 44.60654449 C181.15911773 44.62298146 176.50623368 44.62520207 171.8531208 44.61640549 C170.14386941 44.61563282 168.43460691 44.62000793 166.72538376 44.62986374 C164.3948406 44.64251594 162.0650496 44.63674374 159.73451233 44.62628174 C157.77693796 44.62848158 157.77693796 44.62848158 155.77981663 44.63072586 C152.34787022 44.23961582 150.89826678 43.7227367 148.51611328 41.25878906 C148.51611328 40.59878906 148.51611328 39.93878906 148.51611328 39.25878906 C147.85611328 39.25878906 147.19611328 39.25878906 146.51611328 39.25878906 C146.22736328 39.89816406 145.93861328 40.53753906 145.64111328 41.19628906 C144.51611328 43.25878906 144.51611328 43.25878906 142.51611328 44.25878906 C140.18834191 44.36647761 137.85740482 44.40718732 135.5271759 44.41941833 C134.79945014 44.42450615 134.07172438 44.42959397 133.32194632 44.43483597 C130.87080145 44.45059686 128.41968614 44.4590951 125.96850586 44.4675293 C124.21604219 44.47706489 122.46358041 44.48695592 120.71112061 44.49717712 C114.94431807 44.52859843 109.17750095 44.548834 103.41064453 44.56738281 C101.93963559 44.5723288 101.93963559 44.5723288 100.43890929 44.5773747 C91.1920961 44.60815876 81.94527971 44.6348702 72.69843006 44.65179348 C60.86569241 44.67370198 49.03340846 44.7156713 37.20085222 44.78523105 C28.88400099 44.83246457 20.5672722 44.85672625 12.25029105 44.86399037 C7.28169619 44.86894796 2.31361234 44.88403878 -2.65483665 44.92373466 C-7.33107309 44.96060253 -12.00650674 44.9690103 -16.68286133 44.95572853 C-18.39732894 44.95578248 -20.11183212 44.96607878 -21.82616615 44.98748016 C-36.39203823 45.15956621 -36.39203823 45.15956621 -40.99604797 41.40272522 C-44.72163254 37.42372602 -44.82948844 33.16423197 -44.76123047 27.94628906 C-43.90797812 19.6781536 -38.63064244 11.8483991 -32.44873047 6.49707031 C-22.74810061 -0.56882058 -11.55894897 -0.03438871 0 0 Z " fill="#B7BABC" transform="translate(108.48388671875,323.7412109375)"/>
<path d="M0 0 C0.98484375 -0.00128906 1.9696875 -0.00257812 2.984375 -0.00390625 C4.02078125 -0.00003906 5.0571875 0.00382813 6.125 0.0078125 C7.67960937 0.00201172 7.67960937 0.00201172 9.265625 -0.00390625 C10.25046875 -0.00261719 11.2353125 -0.00132813 12.25 0 C13.16007813 0.00112793 14.07015625 0.00225586 15.0078125 0.00341797 C17.125 0.1328125 17.125 0.1328125 18.125 1.1328125 C18.36171983 3.66074644 18.5464325 6.16216216 18.6875 8.6953125 C18.9040625 12.376875 18.9040625 12.376875 19.125 16.1328125 C26.385 16.1328125 33.645 16.1328125 41.125 16.1328125 C41.269375 14.3384375 41.41375 12.5440625 41.5625 10.6953125 C42 5.2578125 42 5.2578125 43.125 4.1328125 C44.74757544 4.0336468 46.37439831 4.00201473 48 4 C48.98484375 3.99871094 49.9696875 3.99742188 50.984375 3.99609375 C52.02078125 3.99996094 53.0571875 4.00382812 54.125 4.0078125 C55.67960937 4.00201172 55.67960937 4.00201172 57.265625 3.99609375 C58.25046875 3.99738281 59.2353125 3.99867187 60.25 4 C61.16007813 4.00112793 62.07015625 4.00225586 63.0078125 4.00341797 C65.125 4.1328125 65.125 4.1328125 66.125 5.1328125 C66.22020906 7.96321922 66.25053631 10.76916243 66.23852539 13.59985352 C66.23867142 14.48757446 66.23881744 15.37529541 66.2389679 16.28991699 C66.23826843 19.23887534 66.23047448 22.18777137 66.22265625 25.13671875 C66.22079219 27.17553167 66.21936823 29.21434504 66.21836853 31.25315857 C66.21454241 36.63065824 66.20471132 42.00813108 66.19366455 47.38562012 C66.18345245 52.86840451 66.17887134 58.35119322 66.17382812 63.83398438 C66.16308914 74.60027223 66.14601159 85.36654014 66.125 96.1328125 C67.259375 96.1121875 68.39375 96.0915625 69.5625 96.0703125 C73.125 96.1328125 73.125 96.1328125 74.125 97.1328125 C74.22409302 99.46441305 74.25470504 101.79911192 74.25 104.1328125 C74.25257813 105.4115625 74.25515625 106.6903125 74.2578125 108.0078125 C74.125 111.1328125 74.125 111.1328125 73.125 112.1328125 C70.6735919 112.23272586 68.25029839 112.26723089 65.79833984 112.25979614 C64.63430413 112.26213613 64.63430413 112.26213613 63.44675255 112.26452339 C60.82646198 112.26853646 58.20622858 112.26534257 55.5859375 112.26220703 C53.71551479 112.26356094 51.84509234 112.26534081 49.97467041 112.26751709 C44.87977704 112.27209271 39.78490382 112.27030134 34.69001007 112.267138 C29.37065067 112.26461506 24.05129306 112.26695176 18.73193359 112.26852417 C9.79719735 112.27034606 0.86246936 112.26793905 -8.07226562 112.26318359 C-18.41793542 112.25774094 -28.76358552 112.25950358 -39.10925484 112.26501 C-47.97461173 112.26954058 -56.83996268 112.27019195 -65.70532036 112.26757133 C-71.00775348 112.26600825 -76.31017733 112.26581563 -81.61260986 112.26910782 C-86.59638649 112.27198574 -91.58013759 112.27001231 -96.56391144 112.26421356 C-98.39858203 112.26288554 -100.23325474 112.26328079 -102.0679245 112.26547623 C-104.56142579 112.26818608 -107.05484393 112.26480866 -109.54833984 112.25979614 C-110.65186767 112.26314223 -110.65186767 112.26314223 -111.77768898 112.26655591 C-116.76085015 112.24696235 -116.76085015 112.24696235 -117.875 111.1328125 C-117.97409302 108.80121195 -118.00470504 106.46651308 -118 104.1328125 C-118.00257812 102.8540625 -118.00515625 101.5753125 -118.0078125 100.2578125 C-117.875 97.1328125 -117.875 97.1328125 -116.875 96.1328125 C-115.02608054 95.89917369 -113.17011969 95.71977615 -111.3125 95.5703125 C-110.352229 95.49304932 -109.39195801 95.41578613 -108.40258789 95.33618164 C-107.56848389 95.26906982 -106.73437988 95.20195801 -105.875 95.1328125 C-105.88023682 94.471604 -105.88547363 93.81039551 -105.89086914 93.12915039 C-105.91157656 90.15121399 -105.92464012 87.17329268 -105.9375 84.1953125 C-105.94587891 83.15439453 -105.95425781 82.11347656 -105.96289062 81.04101562 C-105.96611328 80.05166016 -105.96933594 79.06230469 -105.97265625 78.04296875 C-105.97789307 77.12652588 -105.98312988 76.21008301 -105.98852539 75.26586914 C-105.875 73.1328125 -105.875 73.1328125 -104.875 72.1328125 C-102.87541636 72.09200467 -100.87454746 72.09026894 -98.875 72.1328125 C-99.76650009 62.4436142 -101.04918085 53.39693083 -103.97265625 44.0859375 C-104.78076123 41.44123028 -105.38653247 38.85211629 -105.875 36.1328125 C-98.33581528 36.73594728 -93.94655113 39.67114205 -88.875 45.1328125 C-87.87386377 42.15155285 -86.88629375 39.16882914 -85.9453125 36.16796875 C-84.1030964 30.37488425 -82.14138503 25.26570327 -78.875 20.1328125 C-75.875 21.1328125 -75.875 21.1328125 -74.59375 23.21484375 C-71.53986211 30.0567272 -69.44712288 36.80902055 -67.875 44.1328125 C-65.15330862 44.1328125 -64.48563676 43.0700312 -62.5 41.2578125 C-59.2428458 38.28763224 -56.6324228 36.21269535 -52.125 36.0078125 C-51.3825 36.0490625 -50.64 36.0903125 -49.875 36.1328125 C-50.56930078 39.9979921 -51.63684805 43.63847194 -52.8125 47.3828125 C-55.19301257 55.5371501 -56.09857979 63.69435073 -56.875 72.1328125 C-55.905625 72.1121875 -54.93625 72.0915625 -53.9375 72.0703125 C-50.875 72.1328125 -50.875 72.1328125 -49.875 73.1328125 C-49.78799658 74.76754132 -49.76798937 76.40595305 -49.77734375 78.04296875 C-49.78217773 79.52700195 -49.78217773 79.52700195 -49.78710938 81.04101562 C-49.79967773 82.60239258 -49.79967773 82.60239258 -49.8125 84.1953125 C-49.81701172 85.24009766 -49.82152344 86.28488281 -49.82617188 87.36132812 C-49.83800073 89.95184704 -49.85593681 92.54233672 -49.875 95.1328125 C-43.275 95.4628125 -36.675 95.7928125 -29.875 96.1328125 C-29.88023682 93.50256104 -29.88547363 90.87230957 -29.89086914 88.16235352 C-29.9074043 79.49305656 -29.91847092 70.82375893 -29.92681217 62.15445042 C-29.93204119 56.89584586 -29.93913918 51.6372574 -29.95043945 46.37866211 C-29.96126766 41.30828123 -29.96727669 36.23791588 -29.96987724 31.16752434 C-29.97173161 29.22854302 -29.97535245 27.28956259 -29.98073006 25.35058784 C-29.9879396 22.6445949 -29.98899098 19.93866694 -29.98852539 17.23266602 C-29.9939183 16.01778755 -29.9939183 16.01778755 -29.99942017 14.77836609 C-29.98905216 9.24686466 -29.98905216 9.24686466 -28.875 8.1328125 C-27.24027118 8.04580908 -25.60185945 8.02580187 -23.96484375 8.03515625 C-22.97548828 8.03837891 -21.98613281 8.04160156 -20.96679688 8.04492188 C-19.92587891 8.05330078 -18.88496094 8.06167969 -17.8125 8.0703125 C-16.24532227 8.07708008 -16.24532227 8.07708008 -14.64648438 8.08398438 C-12.0559334 8.09581337 -9.46549441 8.11229561 -6.875 8.1328125 C-6.730625 6.9984375 -6.58625 5.8640625 -6.4375 4.6953125 C-5.61896169 -0.48876346 -4.87583964 0.006043 0 0 Z " fill="#F18774" transform="translate(125.875,15.8671875)"/>
<path d="M0 0 C1.4387146 -0.00422974 1.4387146 -0.00422974 2.90649414 -0.00854492 C3.96731201 -0.00652069 5.02812988 -0.00449646 6.12109375 -0.00241089 C7.23154053 -0.00416321 8.3419873 -0.00591553 9.48608398 -0.00772095 C13.17693621 -0.01214208 16.86774099 -0.00920055 20.55859375 -0.00582886 C23.11067718 -0.00650182 25.66276054 -0.00747178 28.21484375 -0.00872803 C33.57162137 -0.01020536 38.9283818 -0.00814391 44.28515625 -0.00338745 C50.4864309 0.00205514 56.68767268 0.00029247 62.88894653 -0.00521386 C68.8439359 -0.01029073 74.79891502 -0.00976343 80.75390625 -0.00683212 C83.2929688 -0.00616259 85.83203217 -0.00699218 88.37109375 -0.00931168 C91.91278339 -0.01183666 95.45440892 -0.00799978 98.99609375 -0.00241089 C100.05691162 -0.00443512 101.11772949 -0.00645935 102.21069336 -0.00854492 C103.16983643 -0.0057251 104.12897949 -0.00290527 105.1171875 0 C105.95564209 0.00037703 106.79409668 0.00075405 107.65795898 0.0011425 C109.55859375 0.12698364 109.55859375 0.12698364 110.55859375 1.12698364 C110.65929154 4.28774708 110.69473398 7.42670392 110.68798828 10.58792114 C110.69061676 12.07802704 110.69061676 12.07802704 110.69329834 13.59823608 C110.69771886 16.89950276 110.69477816 20.20071637 110.69140625 23.50198364 C110.69207923 25.78502411 110.69304921 28.06806451 110.69430542 30.35110474 C110.69578266 35.14294108 110.69362698 39.93475883 110.68896484 44.72659302 C110.68326755 50.88414999 110.68654641 57.04166338 110.69253731 63.19921875 C110.6961422 67.91564261 110.69500466 72.63205606 110.69240952 77.34848022 C110.69174005 79.61959844 110.69256935 81.89071759 110.69488907 84.16183472 C110.69741442 87.32993086 110.69357665 90.49795536 110.68798828 93.66604614 C110.69001251 94.61465515 110.69203674 95.56326416 110.69412231 96.5406189 C110.67285599 103.0127214 110.67285599 103.0127214 109.55859375 104.12698364 C108.08075574 104.22483139 106.59826107 104.25330129 105.1171875 104.25396729 C103.6784729 104.25819702 103.6784729 104.25819702 102.21069336 104.26251221 C101.14987549 104.26048798 100.08905762 104.25846375 98.99609375 104.25637817 C97.33042358 104.25900665 97.33042358 104.25900665 95.63110352 104.26168823 C91.94025129 104.26610937 88.24944651 104.26316783 84.55859375 104.25979614 C82.00651032 104.26046911 79.45442696 104.26143907 76.90234375 104.26269531 C71.54556613 104.26417264 66.1888057 104.2621112 60.83203125 104.25735474 C54.6307566 104.25191215 48.42951482 104.25367482 42.22824097 104.25918114 C36.2732516 104.26425801 30.31827248 104.26373071 24.36328125 104.26079941 C21.8242187 104.26012988 19.28515533 104.26095946 16.74609375 104.26327896 C13.20440411 104.26580394 9.66277858 104.26196706 6.12109375 104.25637817 C5.06027588 104.2584024 3.99945801 104.26042664 2.90649414 104.26251221 C1.94735107 104.25969238 0.98820801 104.25687256 0 104.25396729 C-0.83845459 104.25359026 -1.67690918 104.25321323 -2.54077148 104.25282478 C-4.44140625 104.12698364 -4.44140625 104.12698364 -5.44140625 103.12698364 C-5.54210404 99.9662202 -5.57754648 96.82726337 -5.57080078 93.66604614 C-5.5725531 92.67264221 -5.57430542 91.67923828 -5.57611084 90.6557312 C-5.58053136 87.35446452 -5.57759066 84.05325092 -5.57421875 80.75198364 C-5.57489173 78.46894317 -5.57586171 76.18590277 -5.57711792 73.90286255 C-5.57859516 69.1110262 -5.57643948 64.31920846 -5.57177734 59.52737427 C-5.56608005 53.3698173 -5.56935891 47.21230391 -5.57534981 41.05474854 C-5.5789547 36.33832467 -5.57781716 31.62191123 -5.57522202 26.90548706 C-5.57455255 24.63436884 -5.57538185 22.3632497 -5.57770157 20.09213257 C-5.58022692 16.92403642 -5.57638915 13.75601192 -5.57080078 10.58792114 C-5.57282501 9.63931213 -5.57484924 8.69070312 -5.57693481 7.71334839 C-5.55159815 0.00249637 -5.55159815 0.00249637 0 0 Z " fill="#CE915B" transform="translate(245.44140625,7.873016357421875)"/>
<path d="M0 0 C0.92548645 -0.00281982 1.8509729 -0.00563965 2.80450439 -0.00854492 C4.33962677 -0.00550858 4.33962677 -0.00550858 5.90576172 -0.00241089 C6.97719421 -0.00416321 8.04862671 -0.00591553 9.15252686 -0.00772095 C12.71351719 -0.01214189 16.27445833 -0.00920062 19.83544922 -0.00582886 C22.29785166 -0.00650183 24.76025404 -0.00747179 27.22265625 -0.00872803 C32.3911197 -0.01020533 37.5595659 -0.0080494 42.72802734 -0.00338745 C49.36985649 0.00230985 56.01164524 -0.00096898 62.6534729 -0.00695992 C67.74048164 -0.01056465 72.82748072 -0.00942734 77.91448975 -0.00683212 C80.36423752 -0.00616261 82.81398615 -0.00699211 85.26373291 -0.00931168 C88.68089132 -0.01183677 92.09798329 -0.00799962 95.51513672 -0.00241089 C96.53855164 -0.00443512 97.56196655 -0.00645935 98.61639404 -0.00854492 C100.00462372 -0.00431519 100.00462372 -0.00431519 101.42089844 0 C102.22985565 0.00037703 103.03881287 0.00075405 103.87228394 0.0011425 C105.71044922 0.12698364 105.71044922 0.12698364 106.71044922 1.12698364 C106.81109121 4.16564125 106.84659512 7.18161094 106.83984375 10.22073364 C106.84247223 11.65231812 106.84247223 11.65231812 106.84515381 13.11282349 C106.84957408 16.28422842 106.84663372 19.45557809 106.84326172 22.62698364 C106.84393471 24.82034313 106.84490469 27.01370254 106.84616089 29.20706177 C106.8476381 33.81058459 106.84548256 38.41408806 106.84082031 43.01760864 C106.83512302 48.93302959 106.8384019 54.84840518 106.84439278 60.76382446 C106.84799776 65.2949559 106.84686009 69.8260765 106.84426498 74.35720825 C106.84359554 76.53901169 106.84442474 78.7208161 106.84674454 80.90261841 C106.84927004 83.94618354 106.84543192 86.9896741 106.83984375 90.03323364 C106.84186798 90.9444397 106.84389221 91.85564575 106.84597778 92.79446411 C106.82471151 99.01272135 106.82471151 99.01272135 105.71044922 100.12698364 C104.28331302 100.22468566 102.85137492 100.25330059 101.42089844 100.25396729 C100.49541199 100.25678711 99.56992554 100.25960693 98.61639404 100.26251221 C97.08127167 100.25947586 97.08127167 100.25947586 95.51513672 100.25637817 C94.44370422 100.25813049 93.37227173 100.25988281 92.26837158 100.26168823 C88.70738125 100.26610918 85.14644011 100.2631679 81.58544922 100.25979614 C79.12304678 100.26046911 76.6606444 100.26143908 74.19824219 100.26269531 C69.02977874 100.26417261 63.86133254 100.26201669 58.69287109 100.25735474 C52.05104195 100.25165744 45.4092532 100.25493627 38.76742554 100.2609272 C33.6804168 100.26453194 28.59341771 100.26339463 23.50640869 100.26079941 C21.05666092 100.2601299 18.60691229 100.26095939 16.15716553 100.26327896 C12.74000712 100.26580406 9.32291515 100.2619669 5.90576172 100.25637817 C4.8823468 100.2584024 3.85893188 100.26042664 2.80450439 100.26251221 C1.41627472 100.25828247 1.41627472 100.25828247 0 100.25396729 C-0.80895721 100.25359026 -1.61791443 100.25321323 -2.4513855 100.25282478 C-4.28955078 100.12698364 -4.28955078 100.12698364 -5.28955078 99.12698364 C-5.39019277 96.08832603 -5.42569668 93.07235634 -5.41894531 90.03323364 C-5.42069763 89.07884399 -5.42244995 88.12445435 -5.42425537 87.1411438 C-5.42867565 83.96973887 -5.42573528 80.79838919 -5.42236328 77.62698364 C-5.42303627 75.43362416 -5.42400625 73.24026475 -5.42526245 71.04690552 C-5.42673966 66.44338269 -5.42458412 61.83987923 -5.41992188 57.23635864 C-5.41422458 51.32093769 -5.41750346 45.40556211 -5.42349434 39.49014282 C-5.42709932 34.95901138 -5.42596165 30.42789079 -5.42336655 25.89675903 C-5.4226971 23.71495559 -5.4235263 21.53315119 -5.4258461 19.35134888 C-5.4283716 16.30778375 -5.42453348 13.26429319 -5.41894531 10.22073364 C-5.42096954 9.30952759 -5.42299377 8.39832153 -5.42507935 7.45950317 C-5.39957666 0.00251655 -5.39957666 0.00251655 0 0 Z " fill="#C98957" transform="translate(397.28955078125,51.873016357421875)"/>
<path d="M0 0 C127.05 0 254.1 0 385 0 C385 13 385 13 382.625 16.75 C379.17645009 19.70589992 377.31261823 20.16425221 372.875 20.5625 C371.96492188 20.64628906 371.05484375 20.73007812 370.1171875 20.81640625 C369.41851562 20.87699219 368.71984375 20.93757813 368 21 C368.39380859 21.91700684 368.78761719 22.83401367 369.19335938 23.77880859 C370.66516536 27.21919211 372.11299785 30.66925609 373.55419922 34.12255859 C374.17834792 35.60897984 374.80876192 37.09278779 375.44580078 38.57373047 C382.63474219 55.31030835 382.63474219 55.31030835 381 63 C379.44003355 66.77998323 379.44003355 66.77998323 377 68 C374.79296875 68.23828125 374.79296875 68.23828125 372.1875 68.3125 C370.90939453 68.36857422 370.90939453 68.36857422 369.60546875 68.42578125 C366.10071097 67.85303972 364.61133586 66.38036706 362 64 C360.38183594 61.52075195 360.38183594 61.52075195 358.984375 58.73828125 C358.45932373 57.70904541 357.93427246 56.67980957 357.39331055 55.61938477 C356.57987183 53.98247681 356.57987183 53.98247681 355.75 52.3125 C354.60615216 50.05694496 353.46161755 47.80173808 352.31640625 45.546875 C351.75711426 44.43763672 351.19782227 43.32839844 350.62158203 42.18554688 C348.01348123 37.06201491 345.28645487 32.00287594 342.54003906 26.95239258 C340 22.21665498 340 22.21665498 340 20 C242.32 20 144.64 20 44 20 C43.34 21.65 42.68 23.3 42 25 C40.96289632 26.99398183 39.8949123 28.97205922 38.8046875 30.9375 C38.17046875 32.08089844 37.53625 33.22429687 36.8828125 34.40234375 C36.5518457 34.99515137 36.22087891 35.58795898 35.87988281 36.19873047 C34.89468339 37.96471719 33.91574292 39.73405886 32.9375 41.50390625 C29.63714425 47.45239322 26.26036783 53.35557084 22.7578125 59.1875 C22.13277832 60.23292969 21.50774414 61.27835937 20.86376953 62.35546875 C19.07532862 64.89311506 17.63923216 66.40296749 15 68 C12.52734375 68.3984375 12.52734375 68.3984375 9.9375 68.375 C8.65166016 68.38660156 8.65166016 68.38660156 7.33984375 68.3984375 C4.55817646 67.92476461 3.71567306 67.19135811 2 65 C0.07653701 61.15307402 0.40727268 57.18320984 1 53 C2.75502747 48.04373907 5.03660423 43.3857616 7.375 38.6875 C7.98619596 37.42731384 8.59558471 36.16624951 9.203125 34.90429688 C10.31744772 32.58996804 11.44349531 30.2831381 12.57958984 27.97924805 C13.83285112 25.35058744 14.95610233 22.71734303 16 20 C14.80375 20.103125 13.6075 20.20625 12.375 20.3125 C8.7469148 20.30606722 7.9011244 19.93774499 4.625 17.875 C-0.72919854 12.01087779 0 8.18911225 0 0 Z " fill="#93634C" transform="translate(63,436)"/>
<path d="M0 0 C2.82397461 1.92822266 2.82397461 1.92822266 5.46484375 4.5390625 C6.20890724 5.26097275 6.20890724 5.26097275 6.96800232 5.99746704 C8.06464546 7.06691792 9.15315183 8.14475858 10.23455811 9.22961426 C12.11064537 11.11095521 14.00861074 12.96815142 15.91064453 14.82324219 C19.4332146 18.26941968 22.92798631 21.74228404 26.41235352 25.22705078 C28.58526418 27.39774092 30.7661096 29.560255 32.94726562 31.72265625 C34.34163332 33.114095 35.73553119 34.50600474 37.12890625 35.8984375 C37.77573868 36.53808441 38.42257111 37.17773132 39.08900452 37.83676147 C46.83908251 45.62646705 46.83908251 45.62646705 47.25 51.6875 C45.82665332 59.97732133 37.11469403 66.05929721 31.01367188 71.19042969 C29.09064629 72.91854143 27.45308494 74.69599453 25.78515625 76.66796875 C21.88272444 81.184826 17.7671591 85.45256433 13.5625 89.6875 C12.49418945 90.78674805 12.49418945 90.78674805 11.40429688 91.90820312 C1.07668929 102.31085236 1.07668929 102.31085236 -5.37719727 103.40185547 C-9.01721132 102.8441469 -11.08771816 100.93521033 -13.7421875 98.55078125 C-14.29760223 98.06571609 -14.85301697 97.58065094 -15.42526245 97.08088684 C-22.51480768 90.79690824 -29.22849823 84.10731578 -35.91503906 77.40063477 C-38.14780776 75.16465948 -40.39374764 72.94249068 -42.640625 70.72070312 C-44.07632956 69.28726788 -45.51125478 67.85305155 -46.9453125 66.41796875 C-47.61088165 65.76160934 -48.27645081 65.10524994 -48.96218872 64.42900085 C-53.29779899 60.04972739 -56.75794928 56.14665931 -57.25 49.75 C-53.64014367 38.92043101 -40.50759747 29.32141977 -32.55151367 21.36621094 C-30.30163514 19.11412447 -28.05991059 16.85412135 -25.81835938 14.59375 C-24.37548936 13.14794897 -22.93214663 11.7026195 -21.48828125 10.2578125 C-20.49433098 9.25308395 -20.49433098 9.25308395 -19.4803009 8.22805786 C-8.38685386 -2.81131538 -8.38685386 -2.81131538 0 0 Z " fill="#F89447" transform="translate(345,221)"/>
<path d="M0 0 C2.82397461 1.92822266 2.82397461 1.92822266 5.46484375 4.5390625 C6.20890724 5.26097275 6.20890724 5.26097275 6.96800232 5.99746704 C8.06464546 7.06691792 9.15315183 8.14475858 10.23455811 9.22961426 C12.11064537 11.11095521 14.00861074 12.96815142 15.91064453 14.82324219 C19.4332146 18.26941968 22.92798631 21.74228404 26.41235352 25.22705078 C28.58526418 27.39774092 30.7661096 29.560255 32.94726562 31.72265625 C34.34163332 33.114095 35.73553119 34.50600474 37.12890625 35.8984375 C37.77573868 36.53808441 38.42257111 37.17773132 39.08900452 37.83676147 C46.83908251 45.62646705 46.83908251 45.62646705 47.25 51.6875 C45.82665332 59.97732133 37.11469403 66.05929721 31.01367188 71.19042969 C29.09064629 72.91854143 27.45308494 74.69599453 25.78515625 76.66796875 C21.88272444 81.184826 17.7671591 85.45256433 13.5625 89.6875 C12.49418945 90.78674805 12.49418945 90.78674805 11.40429688 91.90820312 C1.07668929 102.31085236 1.07668929 102.31085236 -5.37719727 103.40185547 C-9.01721132 102.8441469 -11.08771816 100.93521033 -13.7421875 98.55078125 C-14.29760223 98.06571609 -14.85301697 97.58065094 -15.42526245 97.08088684 C-22.51480768 90.79690824 -29.22849823 84.10731578 -35.91503906 77.40063477 C-38.14780776 75.16465948 -40.39374764 72.94249068 -42.640625 70.72070312 C-44.07632956 69.28726788 -45.51125478 67.85305155 -46.9453125 66.41796875 C-47.61088165 65.76160934 -48.27645081 65.10524994 -48.96218872 64.42900085 C-53.29779899 60.04972739 -56.75794928 56.14665931 -57.25 49.75 C-53.64014367 38.92043101 -40.50759747 29.32141977 -32.55151367 21.36621094 C-30.30163514 19.11412447 -28.05991059 16.85412135 -25.81835938 14.59375 C-24.37548936 13.14794897 -22.93214663 11.7026195 -21.48828125 10.2578125 C-20.49433098 9.25308395 -20.49433098 9.25308395 -19.4803009 8.22805786 C-8.38685386 -2.81131538 -8.38685386 -2.81131538 0 0 Z " fill="#F89447" transform="translate(177,221)"/>
<path d="M0 0 C3 1 3 1 4.28125 3.08203125 C7.33513789 9.9239147 9.42787712 16.67620805 11 24 C13.72169138 24 14.38936324 22.9372187 16.375 21.125 C19.6321542 18.15481974 22.2425772 16.07988285 26.75 15.875 C27.4925 15.91625 28.235 15.9575 29 16 C28.30569922 19.8651796 27.23815195 23.50565944 26.0625 27.25 C23.68198743 35.4043376 22.77642021 43.56153823 22 52 C22.969375 51.979375 23.93875 51.95875 24.9375 51.9375 C28 52 28 52 29 53 C29.08700342 54.63472882 29.10701063 56.27314055 29.09765625 57.91015625 C29.09282227 59.39418945 29.09282227 59.39418945 29.08789062 60.90820312 C29.07532227 62.46958008 29.07532227 62.46958008 29.0625 64.0625 C29.05798828 65.10728516 29.05347656 66.15207031 29.04882812 67.22851562 C29.03699913 69.8190666 29.02051689 72.40950559 29 75 C29.94948092 75.00634791 29.94948092 75.00634791 30.91814327 75.01282406 C46.29874401 75.11599347 61.67929506 75.22461036 77.0598135 75.33933926 C84.49762313 75.39468832 91.93543756 75.44817302 99.37329102 75.49731445 C105.8538435 75.54013574 112.33436042 75.58640843 118.81485802 75.63687855 C122.24828452 75.66349613 125.68170389 75.68834953 129.11517143 75.70907402 C132.94198181 75.73223726 136.76870827 75.76310399 140.59545898 75.79467773 C141.74200455 75.8004332 142.88855011 75.80618866 144.06983948 75.81211853 C145.10615509 75.82190735 146.1424707 75.83169617 147.21018982 75.84178162 C148.11631232 75.84823417 149.02243483 75.85468672 149.95601559 75.8613348 C152 76 152 76 153 77 C153.09909302 79.33160055 153.12970504 81.66629942 153.125 84 C153.12757813 85.27875 153.13015625 86.5575 153.1328125 87.875 C153 91 153 91 152 92 C149.5485919 92.09991336 147.12529839 92.13441839 144.67333984 92.12698364 C143.50930413 92.12932363 143.50930413 92.12932363 142.32175255 92.13171089 C139.70146198 92.13572396 137.08122858 92.13253007 134.4609375 92.12939453 C132.59051479 92.13074844 130.72009234 92.13252831 128.84967041 92.13470459 C123.75477704 92.13928021 118.65990382 92.13748884 113.56501007 92.1343255 C108.24565067 92.13180256 102.92629306 92.13413926 97.60693359 92.13571167 C88.67219735 92.13753356 79.73746936 92.13512655 70.80273438 92.13037109 C60.45706458 92.12492844 50.11141448 92.12669108 39.76574516 92.1321975 C30.90038827 92.13672808 22.03503732 92.13737945 13.16967964 92.13475883 C7.86724652 92.13319575 2.56482267 92.13300313 -2.73760986 92.13629532 C-7.72138649 92.13917324 -12.70513759 92.13719981 -17.68891144 92.13140106 C-19.52358203 92.13007304 -21.35825474 92.13046829 -23.1929245 92.13266373 C-25.68642579 92.13537358 -28.17984393 92.13199616 -30.67333984 92.12698364 C-31.77686767 92.13032973 -31.77686767 92.13032973 -32.90268898 92.13374341 C-37.88585015 92.11414985 -37.88585015 92.11414985 -39 91 C-39.09909302 88.66839945 -39.12970504 86.33370058 -39.125 84 C-39.12757812 82.72125 -39.13015625 81.4425 -39.1328125 80.125 C-39 77 -39 77 -38 76 C-36.15108054 75.76636119 -34.29511969 75.58696365 -32.4375 75.4375 C-31.477229 75.36023682 -30.51695801 75.28297363 -29.52758789 75.20336914 C-28.69348389 75.13625732 -27.85937988 75.06914551 -27 75 C-27.00523682 74.3387915 -27.01047363 73.67758301 -27.01586914 72.99633789 C-27.03657656 70.01840149 -27.04964012 67.04048018 -27.0625 64.0625 C-27.07087891 63.02158203 -27.07925781 61.98066406 -27.08789062 60.90820312 C-27.09111328 59.91884766 -27.09433594 58.92949219 -27.09765625 57.91015625 C-27.10289307 56.99371338 -27.10812988 56.07727051 -27.11352539 55.13305664 C-27 53 -27 53 -26 52 C-24.00041636 51.95919217 -21.99954746 51.95745644 -20 52 C-20.89150009 42.3108017 -22.17418085 33.26411833 -25.09765625 23.953125 C-25.90576123 21.30841778 -26.51153247 18.71930379 -27 16 C-19.46081528 16.60313478 -15.07155113 19.53832955 -10 25 C-8.99886377 22.01874035 -8.01129375 19.03601664 -7.0703125 16.03515625 C-5.2280964 10.24207175 -3.26638503 5.13289077 0 0 Z " fill="#C88856" transform="translate(47,36)"/>
<path d="M0 0 C26.4 0 52.8 0 80 0 C80 22.44 80 44.88 80 68 C53.6 68 27.2 68 0 68 C0 45.56 0 23.12 0 0 Z " fill="#4FA7D1" transform="translate(408,68)"/>
<path d="M0 0 C2.84399774 1.56853286 5.21969535 3.38499079 7.69140625 5.484375 C8.20703125 5.21625 8.72265625 4.948125 9.25390625 4.671875 C10.46046875 4.0840625 10.46046875 4.0840625 11.69140625 3.484375 C12.74328125 2.948125 13.79515625 2.411875 14.87890625 1.859375 C20.11352899 -0.30129907 24.93430056 -0.52767437 30.27734375 1.43359375 C35.53346283 3.93538016 41.98323315 7.0680288 44.69140625 12.484375 C44.69140625 23.044375 44.69140625 33.604375 44.69140625 44.484375 C16.97140625 44.484375 -10.74859375 44.484375 -39.30859375 44.484375 C-39.30859375 32.274375 -39.30859375 20.064375 -39.30859375 7.484375 C-31.42011246 0.72281961 -31.42011246 0.72281961 -28.05859375 -0.828125 C-27.4140625 -1.13363281 -26.76953125 -1.43914063 -26.10546875 -1.75390625 C-17.1475803 -5.55127201 -8.6208945 -3.80023104 0 0 Z " fill="#2E7452" transform="translate(295.30859375,51.515625)"/>
<path d="M0 0 C3.02257553 1.15974764 4.68821442 2.95820969 6.96972656 5.24804688 C7.85917969 6.13814453 8.74863281 7.02824219 9.66503906 7.9453125 C10.58542969 8.88181641 11.50582031 9.81832031 12.45410156 10.78320312 C13.3988395 11.72583661 14.34414608 12.66790055 15.29003906 13.609375 C22.20410156 20.57887095 22.20410156 20.57887095 22.20410156 22.84570312 C27.48410156 18.88570312 32.76410156 14.92570312 38.20410156 10.84570312 C41.81182633 12.64956551 43.68044209 14.05149802 46.45410156 16.84570312 C47.16050781 17.54695313 47.86691406 18.24820313 48.59472656 18.97070312 C50.20410156 20.84570312 50.20410156 20.84570312 50.20410156 22.84570312 C50.84347656 23.15507813 51.48285156 23.46445313 52.14160156 23.78320312 C54.20410156 24.84570312 54.20410156 24.84570312 55.20410156 25.84570312 C55.20410156 32.77570313 55.20410156 39.70570313 55.20410156 46.84570312 C28.80410156 46.84570312 2.40410156 46.84570312 -24.79589844 46.84570312 C-24.79589844 25.84570312 -24.79589844 25.84570312 -19.85839844 19.22070312 C-16.83105469 16.49804688 -16.83105469 16.49804688 -15.28857422 15.19287109 C-12.81102242 12.956834 -10.8632234 10.40226885 -8.79589844 7.78320312 C-7.47388852 6.12826056 -6.14222297 4.48092647 -4.79589844 2.84570312 C-4.30089844 2.22824219 -3.80589844 1.61078125 -3.29589844 0.97460938 C-1.79589844 -0.15429688 -1.79589844 -0.15429688 0 0 Z " fill="#174F71" transform="translate(432.7958984375,89.154296875)"/>
<path d="M0 0 C27.72 0 55.44 0 84 0 C84 12.87 84 25.74 84 39 C82.02 37.68 80.04 36.36 78 35 C76.60921221 34.09635329 75.21407428 33.19932444 73.8125 32.3125 C73.15894531 31.89613281 72.50539063 31.47976562 71.83203125 31.05078125 C67.41808653 28.51911573 62.94773326 28.38353485 58 29 C55.80249891 29.8828557 53.84976958 30.90202591 51.82421875 32.125 C50 33 50 33 46 33 C43.6328125 31.7578125 43.6328125 31.7578125 41.125 30.125 C33.40462786 25.36709624 27.07300568 24.06222164 18 25 C11.2007685 26.89946785 5.85440865 31.0970609 0 35 C0 23.45 0 11.9 0 0 Z " fill="#E2DCCA" transform="translate(256,24)"/>
<path d="M0 0 C0.98484375 -0.00128906 1.9696875 -0.00257812 2.984375 -0.00390625 C4.02078125 -0.00003906 5.0571875 0.00382812 6.125 0.0078125 C7.67960938 0.00201172 7.67960938 0.00201172 9.265625 -0.00390625 C10.25046875 -0.00261719 11.2353125 -0.00132813 12.25 0 C13.16007812 0.00112793 14.07015625 0.00225586 15.0078125 0.00341797 C17.125 0.1328125 17.125 0.1328125 18.125 1.1328125 C18.22020906 3.96321922 18.25053631 6.76916243 18.23852539 9.59985352 C18.23867142 10.48757446 18.23881744 11.37529541 18.2389679 12.28991699 C18.23826843 15.23887534 18.23047448 18.18777137 18.22265625 21.13671875 C18.22079219 23.17553167 18.21936823 25.21434504 18.21836853 27.25315857 C18.21454241 32.63065824 18.20471132 38.00813108 18.19366455 43.38562012 C18.18345245 48.86840451 18.17887134 54.35119322 18.17382812 59.83398438 C18.16308914 70.60027412 18.14549158 81.36653689 18.125 92.1328125 C10.205 92.1328125 2.285 92.1328125 -5.875 92.1328125 C-5.89754978 80.28515737 -5.91591436 68.43751639 -5.92681217 56.5898447 C-5.93204131 51.08910388 -5.93913951 45.58837845 -5.95043945 40.08764648 C-5.96126725 34.7838469 -5.9672766 29.48006215 -5.96987724 24.17625237 C-5.97173169 22.14795638 -5.97535267 20.11966124 -5.98073006 18.09137154 C-5.98793906 15.26084736 -5.988991 12.43038532 -5.98852539 9.59985352 C-5.99212067 8.75253159 -5.99571594 7.90520966 -5.99942017 7.0322113 C-5.98683093 0.00741994 -5.98683093 0.00741994 0 0 Z " fill="#F18774" transform="translate(173.875,19.8671875)"/>
<path d="M0 0 C3 1 3 1 4.28125 3.08203125 C7.33513789 9.9239147 9.42787712 16.67620805 11 24 C13.72169138 24 14.38936324 22.9372187 16.375 21.125 C19.6321542 18.15481974 22.2425772 16.07988285 26.75 15.875 C27.4925 15.91625 28.235 15.9575 29 16 C28.30569922 19.8651796 27.23815195 23.50565944 26.0625 27.25 C23.42247783 36.42944491 23.42247783 36.42944491 22 52 C8.14 52 -5.72 52 -20 52 C-20.66 46.39 -21.32 40.78 -22 35 C-23.46778219 29.45306713 -23.46778219 29.45306713 -25.09765625 23.953125 C-25.90576123 21.30841778 -26.51153247 18.71930379 -27 16 C-19.46081528 16.60313478 -15.07155113 19.53832955 -10 25 C-8.99886377 22.01874035 -8.01129375 19.03601664 -7.0703125 16.03515625 C-5.2280964 10.24207175 -3.26638503 5.13289077 0 0 Z " fill="#9DA82B" transform="translate(47,36)"/>
<path d="M0 0 C6.61072987 5.4335882 12.59214196 11.46446043 18.62109375 17.5234375 C19.73188169 18.63609385 20.8428931 19.74852716 21.95411682 20.86074829 C24.85788934 23.7683127 27.75864436 26.67886905 30.65875244 29.59008789 C33.62678263 32.56840429 36.59769662 35.54384106 39.56835938 38.51953125 C45.38171083 44.34356123 51.19187334 50.1707595 57 56 C51.49929615 62.71616004 51.49929615 62.71616004 48 64.875 C47.360625 65.28492188 46.72125 65.69484375 46.0625 66.1171875 C43.40356482 67.25529233 41.88865626 67.35262169 39 67 C36.87769071 65.58885981 35.13642118 64.2382783 33.2578125 62.55078125 C32.70239777 62.06571609 32.14698303 61.58065094 31.57473755 61.08088684 C24.48519232 54.79690824 17.77150177 48.10731578 11.08496094 41.40063477 C8.85219224 39.16465948 6.60625236 36.94249068 4.359375 34.72070312 C2.92367044 33.28726788 1.48874522 31.85305155 0.0546875 30.41796875 C-0.61088165 29.76160934 -1.27645081 29.10524994 -1.96218872 28.42900085 C-6.29779899 24.04972739 -9.75794928 20.14665931 -10.25 13.75 C-8.32706783 7.9812035 -4.23489556 4.25200624 0 0 Z " fill="#F8994A" transform="translate(298,257)"/>
<path d="M0 0 C6.61072987 5.4335882 12.59214196 11.46446043 18.62109375 17.5234375 C19.73188169 18.63609385 20.8428931 19.74852716 21.95411682 20.86074829 C24.85788934 23.7683127 27.75864436 26.67886905 30.65875244 29.59008789 C33.62678263 32.56840429 36.59769662 35.54384106 39.56835938 38.51953125 C45.38171083 44.34356123 51.19187334 50.1707595 57 56 C51.49929615 62.71616004 51.49929615 62.71616004 48 64.875 C47.360625 65.28492188 46.72125 65.69484375 46.0625 66.1171875 C43.40356482 67.25529233 41.88865626 67.35262169 39 67 C36.87769071 65.58885981 35.13642118 64.2382783 33.2578125 62.55078125 C32.70239777 62.06571609 32.14698303 61.58065094 31.57473755 61.08088684 C24.48519232 54.79690824 17.77150177 48.10731578 11.08496094 41.40063477 C8.85219224 39.16465948 6.60625236 36.94249068 4.359375 34.72070312 C2.92367044 33.28726788 1.48874522 31.85305155 0.0546875 30.41796875 C-0.61088165 29.76160934 -1.27645081 29.10524994 -1.96218872 28.42900085 C-6.29779899 24.04972739 -9.75794928 20.14665931 -10.25 13.75 C-8.32706783 7.9812035 -4.23489556 4.25200624 0 0 Z " fill="#F8994A" transform="translate(130,257)"/>
<path d="M0 0 C1.61672607 -0.00472824 1.61672607 -0.00472824 3.26611328 -0.009552 C4.43899902 -0.00752777 5.61188477 -0.00550354 6.8203125 -0.00341797 C8.0151123 -0.00437469 9.20991211 -0.00533142 10.44091797 -0.00631714 C12.9729823 -0.00699918 15.50504838 -0.00514325 18.03710938 -0.00097656 C21.9284251 0.00437132 25.81962539 -0.00092079 29.7109375 -0.00732422 C32.16406276 -0.00666344 34.61718794 -0.00538229 37.0703125 -0.00341797 C38.24319824 -0.0054422 39.41608398 -0.00746643 40.62451172 -0.009552 C41.7023291 -0.00639984 42.78014648 -0.00324768 43.890625 0 C44.84469238 0.00079559 45.79875977 0.00159119 46.78173828 0.00241089 C48.9453125 0.12939453 48.9453125 0.12939453 49.9453125 1.12939453 C50.0444782 2.75196997 50.07611027 4.37879284 50.078125 6.00439453 C50.08005859 7.48166016 50.08005859 7.48166016 50.08203125 8.98876953 C50.07816406 10.02517578 50.07429688 11.06158203 50.0703125 12.12939453 C50.07611328 13.68400391 50.07611328 13.68400391 50.08203125 15.27001953 C50.08074219 16.25486328 50.07945313 17.23970703 50.078125 18.25439453 C50.07699707 19.16447266 50.07586914 20.07455078 50.07470703 21.01220703 C49.9453125 23.12939453 49.9453125 23.12939453 48.9453125 24.12939453 C47.26276015 24.22814623 45.57607222 24.25738357 43.890625 24.25878906 C42.27389893 24.2635173 42.27389893 24.2635173 40.62451172 24.26834106 C39.45162598 24.26631683 38.27874023 24.2642926 37.0703125 24.26220703 C35.8755127 24.26316376 34.68071289 24.26412048 33.44970703 24.2651062 C30.9176427 24.26578824 28.38557662 24.26393231 25.85351562 24.25976562 C21.9621999 24.25441774 18.07099961 24.25970986 14.1796875 24.26611328 C11.72656224 24.2654525 9.27343706 24.26417135 6.8203125 24.26220703 C5.64742676 24.26423126 4.47454102 24.26625549 3.26611328 24.26834106 C2.1882959 24.2651889 1.11047852 24.26203674 0 24.25878906 C-0.95406738 24.25799347 -1.90813477 24.25719788 -2.89111328 24.25637817 C-5.0546875 24.12939453 -5.0546875 24.12939453 -6.0546875 23.12939453 C-6.1538532 21.50681909 -6.18548527 19.87999622 -6.1875 18.25439453 C-6.18878906 17.26955078 -6.19007812 16.28470703 -6.19140625 15.27001953 C-6.18753906 14.23361328 -6.18367188 13.19720703 -6.1796875 12.12939453 C-6.18548828 10.57478516 -6.18548828 10.57478516 -6.19140625 8.98876953 C-6.19011719 8.00392578 -6.18882813 7.01908203 -6.1875 6.00439453 C-6.18637207 5.09431641 -6.18524414 4.18423828 -6.18408203 3.24658203 C-5.93323797 -0.85779469 -3.55924441 0.00296804 0 0 Z " fill="#7C8277" transform="translate(26.0546875,87.87060546875)"/>
<path d="M0 0 C9.24 0 18.48 0 28 0 C26.44283441 3.89291396 24.82551732 7.29437854 22.8046875 10.9375 C22.17046875 12.08089844 21.53625 13.22429687 20.8828125 14.40234375 C20.5518457 14.99515137 20.22087891 15.58795898 19.87988281 16.19873047 C18.89468339 17.96471719 17.91574292 19.73405886 16.9375 21.50390625 C13.63714425 27.45239322 10.26036783 33.35557084 6.7578125 39.1875 C6.13277832 40.23292969 5.50774414 41.27835937 4.86376953 42.35546875 C3.07532862 44.89311506 1.63923216 46.40296749 -1 48 C-3.47265625 48.3984375 -3.47265625 48.3984375 -6.0625 48.375 C-7.34833984 48.38660156 -7.34833984 48.38660156 -8.66015625 48.3984375 C-11.44182354 47.92476461 -12.28432694 47.19135811 -14 45 C-15.92346299 41.15307402 -15.59272732 37.18320984 -15 33 C-13.24497253 28.04373907 -10.96339577 23.3857616 -8.625 18.6875 C-8.01380404 17.42731384 -7.40441529 16.16624951 -6.796875 14.90429688 C-5.68255228 12.58996804 -4.55650469 10.2831381 -3.42041016 7.97924805 C-2.17503134 5.36712057 -1.07473675 2.68684187 0 0 Z " fill="#C17D50" transform="translate(79,456)"/>
<path d="M0 0 C8.91 0 17.82 0 27 0 C30.36892954 6.73785908 33.39510827 13.42035096 36.25 20.375 C36.70890625 21.4475 37.1678125 22.52 37.640625 23.625 C40.49780256 30.61488081 43.09703797 37.84374033 40.09863281 45.21630859 C39 47 39 47 37 48 C34.79296875 48.23828125 34.79296875 48.23828125 32.1875 48.3125 C31.33542969 48.34988281 30.48335938 48.38726562 29.60546875 48.42578125 C26.10071097 47.85303972 24.61133586 46.38036706 22 44 C20.38183594 41.52075195 20.38183594 41.52075195 18.984375 38.73828125 C18.45932373 37.70904541 17.93427246 36.67980957 17.39331055 35.61938477 C16.85101807 34.52811279 16.30872559 33.43684082 15.75 32.3125 C14.60615216 30.05694496 13.46161755 27.80173808 12.31640625 25.546875 C11.75711426 24.43763672 11.19782227 23.32839844 10.62158203 22.18554688 C8.01348123 17.06201491 5.28645487 12.00287594 2.54003906 6.95239258 C0 2.21665498 0 2.21665498 0 0 Z " fill="#C17D50" transform="translate(403,456)"/>
<path d="M0 0 C0.98484375 -0.00128906 1.9696875 -0.00257812 2.984375 -0.00390625 C4.02078125 -0.00003906 5.0571875 0.00382812 6.125 0.0078125 C7.67960937 0.00201172 7.67960937 0.00201172 9.265625 -0.00390625 C10.25046875 -0.00261719 11.2353125 -0.00132813 12.25 0 C13.16007812 0.00112793 14.07015625 0.00225586 15.0078125 0.00341797 C17.125 0.1328125 17.125 0.1328125 18.125 1.1328125 C18.21768999 2.48376232 18.24247326 3.83948341 18.23852539 5.19360352 C18.23844986 6.05442032 18.23837433 6.91523712 18.23829651 7.80213928 C18.23313522 8.73755051 18.22797394 9.67296173 18.22265625 10.63671875 C18.2212413 11.58973373 18.21982635 12.54274872 18.21836853 13.52464294 C18.21275152 16.58156415 18.20019616 19.63841327 18.1875 22.6953125 C18.18248719 24.76236874 18.17792391 26.82942612 18.17382812 28.89648438 C18.16362558 33.97531083 18.14405356 39.05398056 18.125 44.1328125 C10.205 44.1328125 2.285 44.1328125 -5.875 44.1328125 C-5.89790553 38.02721595 -5.91783367 31.92176734 -5.92993164 25.81616211 C-5.93497288 23.73738094 -5.94180574 21.65860334 -5.95043945 19.57983398 C-5.96251422 16.59878664 -5.96823024 13.61778601 -5.97265625 10.63671875 C-5.98039818 9.23360191 -5.98039818 9.23360191 -5.98829651 7.80213928 C-5.98837204 6.94132248 -5.98844757 6.08050568 -5.98852539 5.19360352 C-5.990746 4.43193375 -5.99296661 3.67026398 -5.99525452 2.88551331 C-5.74015078 -0.832605 -3.12135785 0.00386854 0 0 Z " fill="#FFBC5B" transform="translate(101.875,23.8671875)"/>
<path d="M0 0 C0.98484375 -0.00128906 1.9696875 -0.00257812 2.984375 -0.00390625 C4.02078125 -0.00003906 5.0571875 0.00382813 6.125 0.0078125 C7.67960938 0.00201172 7.67960938 0.00201172 9.265625 -0.00390625 C10.25046875 -0.00261719 11.2353125 -0.00132813 12.25 0 C13.16007812 0.00112793 14.07015625 0.00225586 15.0078125 0.00341797 C17.125 0.1328125 17.125 0.1328125 18.125 1.1328125 C18.21768999 2.48376232 18.24247326 3.83948341 18.23852539 5.19360352 C18.23844986 6.05442032 18.23837433 6.91523712 18.23829651 7.80213928 C18.23313522 8.73755051 18.22797394 9.67296173 18.22265625 10.63671875 C18.2212413 11.58973373 18.21982635 12.54274872 18.21836853 13.52464294 C18.21275152 16.58156415 18.20019616 19.63841327 18.1875 22.6953125 C18.18248719 24.76236874 18.17792391 26.82942612 18.17382812 28.89648438 C18.16362558 33.97531083 18.14405356 39.05398056 18.125 44.1328125 C10.205 44.1328125 2.285 44.1328125 -5.875 44.1328125 C-5.89790553 38.02721595 -5.91783367 31.92176734 -5.92993164 25.81616211 C-5.93497288 23.73738094 -5.94180574 21.65860334 -5.95043945 19.57983398 C-5.96251422 16.59878664 -5.96823024 13.61778601 -5.97265625 10.63671875 C-5.98039818 9.23360191 -5.98039818 9.23360191 -5.98829651 7.80213928 C-5.98837204 6.94132248 -5.98844757 6.08050568 -5.98852539 5.19360352 C-5.990746 4.43193375 -5.99296661 3.67026398 -5.99525452 2.88551331 C-5.74015078 -0.832605 -3.12135785 0.00386854 0 0 Z " fill="#F18774" transform="translate(125.875,15.8671875)"/>
<path d="M0 0 C2.82397461 1.92822266 2.82397461 1.92822266 5.46484375 4.5390625 C5.96088608 5.020336 6.45692841 5.5016095 6.96800232 5.99746704 C8.06464546 7.06691792 9.15315183 8.14475858 10.23455811 9.22961426 C12.11064537 11.11095521 14.00861074 12.96815142 15.91064453 14.82324219 C19.4332146 18.26941968 22.92798631 21.74228404 26.41235352 25.22705078 C28.58526418 27.39774092 30.7661096 29.560255 32.94726562 31.72265625 C34.34163332 33.114095 35.73553119 34.50600474 37.12890625 35.8984375 C37.77573868 36.53808441 38.42257111 37.17773132 39.08900452 37.83676147 C47 45.78820734 47 45.78820734 47 52 C46.3045344 56.22075674 44.3006651 58.29176197 41 61 C40.62230469 60.54921082 40.24460937 60.09842163 39.85546875 59.63397217 C35.0285574 53.98697339 29.8310292 48.76368536 24.52511597 43.57221222 C22.42874363 41.51849094 20.34218343 39.45491304 18.25486755 37.39199448 C14.3847806 33.56742397 10.51061375 29.74718709 6.62060547 25.94287109 C3.89801444 23.27951383 1.18766203 20.6042353 -1.51489258 17.92055511 C-2.54389486 16.90330645 -3.57742018 15.89061218 -4.61547852 14.88260651 C-6.05837812 13.48051496 -7.48471936 12.06144298 -8.91015625 10.64160156 C-9.72621338 9.8396637 -10.54227051 9.03772583 -11.38305664 8.21148682 C-13 6 -13 6 -12.85327148 3.82318115 C-10.1759164 -1.89751081 -5.4651091 -1.45326042 0 0 Z " fill="#F58F46" transform="translate(345,221)"/>
<path d="M0 0 C2.82397461 1.92822266 2.82397461 1.92822266 5.46484375 4.5390625 C5.96088608 5.020336 6.45692841 5.5016095 6.96800232 5.99746704 C8.06464546 7.06691792 9.15315183 8.14475858 10.23455811 9.22961426 C12.11064537 11.11095521 14.00861074 12.96815142 15.91064453 14.82324219 C19.4332146 18.26941968 22.92798631 21.74228404 26.41235352 25.22705078 C28.58526418 27.39774092 30.7661096 29.560255 32.94726562 31.72265625 C34.34163332 33.114095 35.73553119 34.50600474 37.12890625 35.8984375 C37.77573868 36.53808441 38.42257111 37.17773132 39.08900452 37.83676147 C47 45.78820734 47 45.78820734 47 52 C46.3045344 56.22075674 44.3006651 58.29176197 41 61 C40.62230469 60.54921082 40.24460938 60.09842163 39.85546875 59.63397217 C35.0285574 53.98697339 29.8310292 48.76368536 24.52511597 43.57221222 C22.42874363 41.51849094 20.34218343 39.45491304 18.25486755 37.39199448 C14.3847806 33.56742397 10.51061375 29.74718709 6.62060547 25.94287109 C3.89801444 23.27951383 1.18766203 20.6042353 -1.51489258 17.92055511 C-2.54389486 16.90330645 -3.57742018 15.89061218 -4.61547852 14.88260651 C-6.05837812 13.48051496 -7.48471936 12.06144298 -8.91015625 10.64160156 C-9.72621338 9.8396637 -10.54227051 9.03772583 -11.38305664 8.21148682 C-13 6 -13 6 -12.85327148 3.82318115 C-10.1759164 -1.89751081 -5.4651091 -1.45326042 0 0 Z " fill="#F58F46" transform="translate(177,221)"/>
<path d="M0 0 C0.98484375 -0.00128906 1.9696875 -0.00257812 2.984375 -0.00390625 C4.02078125 -0.00003906 5.0571875 0.00382812 6.125 0.0078125 C7.67960938 0.00201172 7.67960938 0.00201172 9.265625 -0.00390625 C10.25046875 -0.00261719 11.2353125 -0.00132813 12.25 0 C13.16007812 0.00112793 14.07015625 0.00225586 15.0078125 0.00341797 C17.125 0.1328125 17.125 0.1328125 18.125 1.1328125 C18.21365208 4.0171507 18.24021296 6.87743408 18.22265625 9.76171875 C18.2212413 10.62594955 18.21982635 11.49018036 18.21836853 12.38059998 C18.21275239 15.15220542 18.20019719 17.9237313 18.1875 20.6953125 C18.18248708 22.5696603 18.17792381 24.44400935 18.17382812 26.31835938 C18.16362681 30.92323271 18.14405467 35.5279331 18.125 40.1328125 C10.205 40.1328125 2.285 40.1328125 -5.875 40.1328125 C-5.89790734 34.5968726 -5.91783491 29.06109595 -5.92993164 23.52514648 C-5.93497244 21.6403752 -5.94180498 19.75560785 -5.95043945 17.87084961 C-5.96251617 15.16779614 -5.96823068 12.46479419 -5.97265625 9.76171875 C-5.97781754 8.91380264 -5.98297882 8.06588654 -5.98829651 7.192276 C-5.98849195 5.17210182 -5.93706211 3.15203316 -5.875 1.1328125 C-4.22105883 -0.52112867 -2.27184587 0.00281567 0 0 Z " fill="#FFBD5D" transform="translate(149.875,31.8671875)"/>
<path d="M0 0 C5.43710692 3.87421384 5.43710692 3.87421384 7 7 C7.08639869 9.40838678 7.11567764 11.78733881 7.09765625 14.1953125 C7.0962413 14.90275604 7.09482635 15.61019958 7.09336853 16.33908081 C7.087766 18.60109669 7.07521318 20.86301398 7.0625 23.125 C7.05748532 24.65755065 7.05292236 26.19010286 7.04882812 27.72265625 C7.03779577 31.48180888 7.02052952 35.24088772 7 39 C-0.36167817 39.48110552 -0.36167817 39.48110552 -3.109375 37.41015625 C-3.65078125 36.63542969 -4.1921875 35.86070313 -4.75 35.0625 C-5.40355469 34.15757813 -6.05710937 33.25265625 -6.73046875 32.3203125 C-7.48713559 31.2136486 -8.24363048 30.10686713 -9 29 C-9.9729064 27.62073235 -10.94832736 26.2432362 -11.92578125 24.8671875 C-14.00933957 21.9291875 -16.08023042 18.98280321 -18.14453125 16.03125 C-21.2818873 11.56978639 -24.56924509 7.24012314 -28 3 C-24.75787402 -2.52362205 -24.75787402 -2.52362205 -21.8125 -4.375 C-13.26639593 -6.27413424 -7.39403472 -4.6118725 0 0 Z " fill="#086D54" transform="translate(333,57)"/>
<path d="M0 0 C0.98484375 -0.00128906 1.9696875 -0.00257812 2.984375 -0.00390625 C4.02078125 -0.00003906 5.0571875 0.00382812 6.125 0.0078125 C7.67960938 0.00201172 7.67960938 0.00201172 9.265625 -0.00390625 C10.25046875 -0.00261719 11.2353125 -0.00132813 12.25 0 C13.16007812 0.00112793 14.07015625 0.00225586 15.0078125 0.00341797 C17.125 0.1328125 17.125 0.1328125 18.125 1.1328125 C18.21290975 3.42432667 18.23194038 5.71853774 18.22265625 8.01171875 C18.2212413 8.6983812 18.21982635 9.38504364 18.21836853 10.09251404 C18.21275479 12.29349051 18.20020007 14.49436659 18.1875 16.6953125 C18.18248676 18.18424333 18.17792355 19.67317574 18.17382812 21.16210938 C18.16363021 24.81908055 18.14405779 28.47583367 18.125 32.1328125 C10.205 32.1328125 2.285 32.1328125 -5.875 32.1328125 C-5.89791238 27.73618217 -5.91783833 23.33975762 -5.92993164 18.94311523 C-5.93497121 17.44636332 -5.94180287 15.94961634 -5.95043945 14.45288086 C-5.96252159 12.30581443 -5.96823191 10.15881288 -5.97265625 8.01171875 C-5.97789307 6.7182251 -5.98312988 5.42473145 -5.98852539 4.09204102 C-5.80530923 -0.68379368 -4.31886451 0.0053527 0 0 Z " fill="#F18774" transform="translate(173.875,19.8671875)"/>
<path d="M0 0 C0.55374802 0.71804306 1.10749603 1.43608612 1.67802429 2.17588806 C4.02932509 5.03566676 6.50893109 7.59390568 9.15161133 10.18579102 C9.65123383 10.67752808 10.15085632 11.16926514 10.6656189 11.67590332 C11.74223366 12.73541796 12.81988591 13.79387921 13.89847755 14.8513813 C16.18958044 17.100258 18.47125305 19.35860157 20.7535429 21.61641598 C24.99631129 25.81349403 29.24284474 30.00657892 33.50561523 34.18334961 C36.47762245 37.0961138 39.43739965 40.02081684 42.38934898 42.95390129 C43.51604253 44.06882836 44.64726391 45.17919867 45.78299904 46.28491402 C47.36543355 47.82652815 48.9318256 49.38285862 50.49536133 50.94360352 C51.39152664 51.82564957 52.28769196 52.70769562 53.21101379 53.61647034 C55 56 55 56 55.03153992 58.12852478 C54 60 54 60 50 63 C31.52 44.52 13.04 26.04 -6 7 C-4.02 4.69 -2.04 2.38 0 0 Z " fill="#FEC477" transform="translate(331,224)"/>
<path d="M0 0 C0.55374802 0.71804306 1.10749603 1.43608612 1.67802429 2.17588806 C4.02932509 5.03566676 6.50893109 7.59390568 9.15161133 10.18579102 C9.65123383 10.67752808 10.15085632 11.16926514 10.6656189 11.67590332 C11.74223366 12.73541796 12.81988591 13.79387921 13.89847755 14.8513813 C16.18958044 17.100258 18.47125305 19.35860157 20.7535429 21.61641598 C24.99631129 25.81349403 29.24284474 30.00657892 33.50561523 34.18334961 C36.47762245 37.0961138 39.43739965 40.02081684 42.38934898 42.95390129 C43.51604253 44.06882836 44.64726391 45.17919867 45.78299904 46.28491402 C47.36543355 47.82652815 48.9318256 49.38285862 50.49536133 50.94360352 C51.39152664 51.82564957 52.28769196 52.70769562 53.21101379 53.61647034 C55 56 55 56 55.03153992 58.12852478 C54 60 54 60 50 63 C31.52 44.52 13.04 26.04 -6 7 C-4.02 4.69 -2.04 2.38 0 0 Z " fill="#FEC477" transform="translate(163,224)"/>
<path d="M0 0 C6.61072987 5.4335882 12.59214196 11.46446043 18.62109375 17.5234375 C19.73188169 18.63609385 20.8428931 19.74852716 21.95411682 20.86074829 C24.85788934 23.7683127 27.75864436 26.67886905 30.65875244 29.59008789 C33.62678263 32.56840429 36.59769662 35.54384106 39.56835938 38.51953125 C45.38171083 44.34356123 51.19187334 50.1707595 57 56 C54.525 58.97 54.525 58.97 52 62 C45.38927013 56.5664118 39.40785804 50.53553957 33.37890625 44.4765625 C32.26811831 43.36390615 31.1571069 42.25147284 30.04588318 41.13925171 C27.14211066 38.2316873 24.24135564 35.32113095 21.34124756 32.40991211 C18.37321737 29.43159571 15.40230338 26.45615894 12.43164062 23.48046875 C6.61828917 17.65643877 0.80812666 11.8292405 -5 6 C-3.35 4.02 -1.7 2.04 0 0 Z " fill="#FEC477" transform="translate(298,257)"/>
<path d="M0 0 C6.61072987 5.4335882 12.59214196 11.46446043 18.62109375 17.5234375 C19.73188169 18.63609385 20.8428931 19.74852716 21.95411682 20.86074829 C24.85788934 23.7683127 27.75864436 26.67886905 30.65875244 29.59008789 C33.62678263 32.56840429 36.59769662 35.54384106 39.56835938 38.51953125 C45.38171083 44.34356123 51.19187334 50.1707595 57 56 C54.525 58.97 54.525 58.97 52 62 C45.38927013 56.5664118 39.40785804 50.53553957 33.37890625 44.4765625 C32.26811831 43.36390615 31.1571069 42.25147284 30.04588318 41.13925171 C27.14211066 38.2316873 24.24135564 35.32113095 21.34124756 32.40991211 C18.37321737 29.43159571 15.40230338 26.45615894 12.43164062 23.48046875 C6.61828917 17.65643877 0.80812666 11.8292405 -5 6 C-3.35 4.02 -1.7 2.04 0 0 Z " fill="#FEC477" transform="translate(130,257)"/>
<path d="M0 0 C-0.69430078 3.8651796 -1.76184805 7.50565944 -2.9375 11.25 C-5.333489 19.4573514 -6.16301268 27.49062889 -7 36 C-13.6 36 -20.2 36 -27 36 C-25.34702721 22.77621766 -21.40487084 12.12535395 -10.9296875 3.375 C-7.17594048 0.70026528 -4.64108227 -0.2578379 0 0 Z " fill="#9DA82C" transform="translate(76,52)"/>
<path d="M0 0 C3 1 3 1 4.28125 3.08203125 C12.22551283 20.88023547 12.22551283 20.88023547 10 30 C8.9140625 32.45703125 8.9140625 32.45703125 7.625 34.8125 C5.21381138 39.41821971 3.4784841 44.02363889 2 49 C1.34 49 0.68 49 0 49 C-0.47179687 47.60587891 -0.47179687 47.60587891 -0.953125 46.18359375 C-3.50353554 38.37869481 -3.50353554 38.37869481 -7.375 31.1875 C-10.52840207 25.00198056 -8.17310788 19.21154149 -6.1875 12.875 C-4.56148579 8.21733293 -2.64495496 4.15635779 0 0 Z " fill="#798B00" transform="translate(47,36)"/>
<path d="M0 0 C7.92 0 15.84 0 24 0 C24 6.6 24 13.2 24 20 C16.08 20 8.16 20 0 20 C0 13.4 0 6.8 0 0 Z " fill="#FFBE5F" transform="translate(96,92)"/>
<path d="M0 0 C7.92 0 15.84 0 24 0 C24 5.28 24 10.56 24 16 C16.08 16 8.16 16 0 16 C0 10.72 0 5.44 0 0 Z " fill="#FFBE5F" transform="translate(144,96)"/>
<path d="M0 0 C7.92 0 15.84 0 24 0 C24 2.64 24 5.28 24 8 C16.08 8 8.16 8 0 8 C0 5.36 0 2.72 0 0 Z " fill="#F47E3E" transform="translate(144,88)"/>
<path d="M0 0 C7.92 0 15.84 0 24 0 C24 2.64 24 5.28 24 8 C16.08 8 8.16 8 0 8 C0 5.36 0 2.72 0 0 Z " fill="#F47E3E" transform="translate(96,84)"/>
<path d="M0 0 C7.92 0 15.84 0 24 0 C24 2.64 24 5.28 24 8 C16.08 8 8.16 8 0 8 C0 5.36 0 2.72 0 0 Z " fill="#FFBE5F" transform="translate(144,80)"/>
<path d="M0 0 C7.92 0 15.84 0 24 0 C24 2.64 24 5.28 24 8 C16.08 8 8.16 8 0 8 C0 5.36 0 2.72 0 0 Z " fill="#FFBE5F" transform="translate(96,76)"/>
<path d="M0 0 C7.92 0 15.84 0 24 0 C24 2.64 24 5.28 24 8 C16.08 8 8.16 8 0 8 C0 5.36 0 2.72 0 0 Z " fill="#F58541" transform="translate(144,72)"/>
<path d="M0 0 C7.92 0 15.84 0 24 0 C24 2.64 24 5.28 24 8 C16.08 8 8.16 8 0 8 C0 5.36 0 2.72 0 0 Z " fill="#F58541" transform="translate(96,68)"/>
<path d="M0 0 C7.92 0 15.84 0 24 0 C24 2.64 24 5.28 24 8 C16.08 8 8.16 8 0 8 C0 5.36 0 2.72 0 0 Z " fill="#DA535A" transform="translate(120,52)"/>
<path d="M0 0 C7.92 0 15.84 0 24 0 C24 2.64 24 5.28 24 8 C16.08 8 8.16 8 0 8 C0 5.36 0 2.72 0 0 Z " fill="#E15C63" transform="translate(168,44)"/>
<path d="M0 0 C7.92 0 15.84 0 24 0 C24 2.64 24 5.28 24 8 C16.08 8 8.16 8 0 8 C0 5.36 0 2.72 0 0 Z " fill="#F18774" transform="translate(120,44)"/>
<path d="M0 0 C7.92 0 15.84 0 24 0 C24 2.64 24 5.28 24 8 C16.08 8 8.16 8 0 8 C0 5.36 0 2.72 0 0 Z " fill="#DA535A" transform="translate(120,36)"/>
</svg>
