<?xml version="1.0" encoding="UTF-8"?>
<svg version="1.1" xmlns="http://www.w3.org/2000/svg" width="512" height="512">
<path d="M0 0 C1.01545898 0.19867676 2.03091797 0.39735352 3.07714844 0.60205078 C52.9758035 10.58327711 96.53871388 34.88580573 133 70 C133.7940625 70.7528125 134.588125 71.505625 135.40625 72.28125 C140.75597303 77.46114055 145.38660506 83.16405541 150 89 C151.19109375 90.48306641 151.19109375 90.48306641 152.40625 91.99609375 C175.32205725 121.03970389 191.22147176 154.85685587 199.6875 190.8125 C199.97306763 191.99936401 199.97306763 191.99936401 200.2644043 193.21020508 C204.22851721 210.89052902 205.555362 228.61292655 205.4375 246.6875 C205.43293793 248.18546112 205.43293793 248.18546112 205.42828369 249.71368408 C205.35621635 265.78341917 204.43972751 281.25213186 201 297 C200.78037598 298.02625488 200.56075195 299.05250977 200.33447266 300.10986328 C191.83138831 338.85817193 174.61772522 375.56726438 149 406 C148.57138672 406.51739746 148.14277344 407.03479492 147.70117188 407.56787109 C137.18164284 420.2564129 126.03816903 431.86528878 113 442 C111.52660156 443.18142578 111.52660156 443.18142578 110.0234375 444.38671875 C70.29759115 476.0035908 18.37047678 496.93437939 -32.79296875 497.203125 C-33.69337387 497.21018463 -34.59377899 497.21724426 -35.52146912 497.22451782 C-72.98691069 497.45161655 -72.98691069 497.45161655 -90 494 C-91.01545898 493.80132324 -92.03091797 493.60264648 -93.07714844 493.39794922 C-142.9758035 483.41672289 -186.53871388 459.11419427 -223 424 C-223.7940625 423.2471875 -224.588125 422.494375 -225.40625 421.71875 C-230.75597303 416.53885945 -235.38660506 410.83594459 -240 405 C-240.7940625 404.01128906 -241.588125 403.02257812 -242.40625 402.00390625 C-266.9776499 370.86198961 -283.32468106 334.48759715 -291.25 295.6875 C-291.47671387 294.57942993 -291.47671387 294.57942993 -291.70800781 293.44897461 C-292.18439803 290.97158418 -292.60252786 288.49133778 -293 286 C-293.17805176 284.88423584 -293.35610352 283.76847168 -293.53955078 282.61889648 C-295.19998488 270.98027732 -295.3987437 259.43103747 -295.375 247.6875 C-295.37445618 246.6738739 -295.37391235 245.6602478 -295.37335205 244.61590576 C-295.33347417 228.41878779 -294.46747801 212.87491635 -291 197 C-290.78037598 195.97374512 -290.56075195 194.94749023 -290.33447266 193.89013672 C-279.82149525 145.98280374 -255.85138923 104.15003587 -222 69 C-221.2471875 68.2059375 -220.494375 67.411875 -219.71875 66.59375 C-214.53885945 61.24402697 -208.83594459 56.61339494 -203 52 C-202.01128906 51.2059375 -201.02257812 50.411875 -200.00390625 49.59375 C-167.66655102 24.07913264 -130.33332447 7.86607287 -90 0 C-89.17274414 -0.16661133 -88.34548828 -0.33322266 -87.49316406 -0.50488281 C-59.91781494 -5.80488028 -27.50199116 -5.57960557 0 0 Z " fill="#B75975" transform="translate(301,9)"/>
<path d="M0 0 C2.9264042 0.00108273 5.85278731 -0.00384686 8.7791869 -0.00860542 C15.70096662 -0.01964154 22.62269205 -0.02017272 29.54447627 -0.01409125 C36.62046922 -0.0080685 43.69626247 -0.02033282 50.77222139 -0.04166132 C56.9027659 -0.05944207 63.03324784 -0.06525276 69.16381711 -0.06202358 C72.80064213 -0.06023514 76.43732499 -0.06259527 80.07412601 -0.07673812 C112.3668056 -0.19133167 145.40603059 1.36899317 169.94315791 25.30158257 C178.06271182 33.97260107 183.52452262 43.33117772 187.94315791 54.30158257 C188.43042354 55.44627007 188.43042354 55.44627007 188.92753291 56.61408257 C195.66342578 74.20988436 194.40685482 93.95673412 194.37906599 112.45234251 C194.37593791 115.6751302 194.38210583 118.89787555 194.38810474 122.12065715 C194.40206279 129.73316744 194.40066073 137.3455653 194.38920283 144.95807672 C194.37771681 152.76080305 194.39182537 160.56318583 194.41859931 168.36586696 C194.44087877 175.11635785 194.44736672 181.86674185 194.4415229 188.61726683 C194.43818282 192.62671176 194.44036919 196.63593644 194.45777392 200.64534974 C194.58332641 232.60528376 194.58332641 232.60528376 189.94315791 246.30158257 C189.32995944 248.11741593 189.32995944 248.11741593 188.70437312 249.96993279 C181.45193067 270.43792407 168.55144419 286.55779081 148.75565791 296.05158257 C143.40758214 298.47957303 137.93826087 300.41739958 132.31815791 302.11408257 C131.67467402 302.30905328 131.03119014 302.50402398 130.36820674 302.70490289 C119.33288925 305.81591595 108.24072912 306.59901323 96.82548213 306.57624078 C95.46524475 306.580602 94.10500981 306.58578977 92.74477839 306.59172845 C89.0894021 306.60498293 85.43413005 306.60571209 81.77873445 306.60316515 C78.70551381 306.60208546 75.63231341 306.60700437 72.55909717 306.61177057 C65.29419797 306.62282045 58.02935049 306.62332974 50.76444697 306.6172564 C43.32262399 306.61122974 35.88099069 306.62350474 28.43920004 306.64482647 C22.00471185 306.66256986 15.57028332 306.6684237 9.13577163 306.66518873 C5.31289708 306.66339477 1.49015763 306.66581879 -2.33269429 306.67990327 C-34.69881194 306.78886106 -66.78262981 304.29597685 -91.05684209 280.30158257 C-101.41163426 268.76338558 -108.41908026 254.32085666 -112.05684209 239.30158257 C-112.2234594 238.64594166 -112.3900767 237.99030074 -112.56174302 237.31479192 C-114.30420934 229.73215865 -114.34683772 222.28950667 -114.33150029 214.54303765 C-114.33585618 213.07823197 -114.34104222 211.61342856 -114.34698796 210.14862847 C-114.36029859 206.1958342 -114.36096528 202.24313602 -114.35842466 198.29032373 C-114.35734901 194.97580028 -114.36225369 191.66129579 -114.36703008 188.34677643 C-114.37809899 180.51683713 -114.3785782 172.68694582 -114.37251592 164.8570025 C-114.36648515 156.81588882 -114.37877031 148.77495052 -114.40008599 140.73386675 C-114.41778339 133.79929423 -114.42369038 126.86477711 -114.42044824 119.93018287 C-114.41864732 115.8022284 -114.42115061 111.6743989 -114.43516278 107.54646516 C-114.44786897 103.65817955 -114.44567823 99.77016409 -114.43275189 95.88188195 C-114.43041365 94.46751011 -114.43301988 93.05311849 -114.44137502 91.63876939 C-114.57381043 67.44553296 -107.09190162 43.01303418 -90.05684209 25.30158257 C-76.92167181 12.83770844 -60.82451021 5.4000578 -43.05684209 2.30158257 C-42.18392018 2.13526834 -41.31099828 1.9689541 -40.41162419 1.79760003 C-27.03578521 -0.37691354 -13.51229352 -0.00992551 0 0 Z " fill="#CB4771" transform="translate(216.05684208869934,102.69841742515564)"/>
<path d="M0 0 C6.06384155 5.07781824 11.80286239 10.46279936 17.52514648 15.91967773 C18.29000083 16.64753888 18.29000083 16.64753888 19.07030678 17.39010429 C29.13231666 26.96762215 39.10098652 36.64060593 49.03697109 46.34866238 C55.34850864 52.51178019 61.6859287 58.64262643 68.09643555 64.70288086 C73.71281219 70.01250021 79.27035569 75.37641652 84.7671991 80.80978543 C87.66874602 83.67417425 90.58974777 86.50651368 93.58318901 89.27499199 C113.78676791 108.01922008 113.78676791 108.01922008 114.58198911 122.10157281 C114.73588551 129.13191259 113.96181932 136.04456811 113 143 C112.71659296 145.49167404 112.43686528 147.9837698 112.16111755 150.4763031 C106.79819049 197.32491033 87.37925453 242.9107761 57 279 C56.57138672 279.51739746 56.14277344 280.03479492 55.70117188 280.56787109 C45.18164284 293.2564129 34.03816903 304.86528878 21 315 C19.52660156 316.18142578 19.52660156 316.18142578 18.0234375 317.38671875 C-19.09903819 346.93162897 -64.83111527 365.23220272 -112.0423336 369.68202877 C-114.06756675 369.89975646 -116.08829794 370.16277569 -118.10279274 370.46408176 C-128.58011393 371.9634964 -139.9526109 373.25735917 -149.139862 367.02226913 C-156.45147237 361.492806 -162.71364203 354.73711013 -168.95069528 348.05559206 C-171.87518576 344.95488889 -174.88354165 341.93757339 -177.88285828 338.90951538 C-183.52778439 333.18537199 -189.09405763 327.39079759 -194.63525504 321.56638086 C-200.95305157 314.9341263 -207.36157555 308.39251851 -213.77596533 301.85387158 C-223.21296804 292.22732705 -232.61970007 282.57060955 -241.9327507 272.8239727 C-242.93895679 271.77182885 -243.94680493 270.72125266 -244.9563694 269.67233086 C-246.32822013 268.24581759 -247.69287168 266.8123912 -249.05708313 265.37857056 C-249.82322087 264.57661066 -250.58935862 263.77465076 -251.37871265 262.94838905 C-253 261 -253 261 -253 259 C-249.1458297 260.14583441 -245.61413086 261.64000365 -242 263.375 C-226.27198572 270.58013086 -209.73337161 272.30890252 -192.62353516 272.2746582 C-191.25975775 272.27902205 -189.89598278 272.28421065 -188.5322113 272.29014587 C-184.87708763 272.3033668 -181.22206839 272.30413379 -177.56692553 272.30158257 C-174.49341603 272.30050135 -171.4199267 272.3054252 -168.3464216 272.310188 C-161.08444754 272.32122448 -153.82252523 272.32175369 -146.56054688 272.31567383 C-139.11750648 272.30963738 -131.67465528 272.32195023 -124.23164713 272.3432439 C-117.79545138 272.3609668 -111.35931526 272.3668446 -104.92309606 272.36360615 C-101.09919723 272.36181026 -97.27543343 272.36425711 -93.45155716 272.37832069 C-75.08776115 272.44015245 -57.2976254 272.42928005 -39.75 266.25 C-39.0060498 265.99250977 -38.26209961 265.73501953 -37.49560547 265.46972656 C-17.78682667 258.40391518 -2.42462843 245.89446912 6.75 226.875 C11.91054322 215.63023083 16.10568 202.32826227 16.14044189 189.90119934 C16.14615204 188.6750441 16.15186218 187.44888885 16.15774536 186.18557739 C16.15899062 184.83441172 16.16011574 183.48324594 16.16113281 182.13208008 C16.16576484 180.70243706 16.17079002 179.27279527 16.17617798 177.84315491 C16.18927775 173.96220133 16.19574366 170.08126505 16.20018864 166.20029283 C16.20312679 163.76804962 16.20723325 161.33581104 16.21169281 158.90357018 C16.2253691 151.27253741 16.23503184 143.64151534 16.2388947 136.01047117 C16.24335848 127.24294456 16.26082715 118.47557518 16.2898953 109.70809633 C16.31164644 102.90776728 16.32160629 96.10748199 16.32293582 89.30711859 C16.32397545 85.25778789 16.3296995 81.20860492 16.34775543 77.15931129 C16.4560105 51.36673499 15.5456519 28.01131415 2.19921875 5.13671875 C1 3 1 3 0 0 Z " fill="#A94366" transform="translate(393,136)"/>
<path d="M0 0 C2.9264042 0.00108273 5.85278731 -0.00384686 8.7791869 -0.00860542 C15.70096662 -0.01964154 22.62269205 -0.02017272 29.54447627 -0.01409125 C36.62046922 -0.0080685 43.69626247 -0.02033282 50.77222139 -0.04166132 C56.9027659 -0.05944207 63.03324784 -0.06525276 69.16381711 -0.06202358 C72.80064213 -0.06023514 76.43732499 -0.06259527 80.07412601 -0.07673812 C112.3668056 -0.19133167 145.40603059 1.36899317 169.94315791 25.30158257 C178.06271182 33.97260107 183.52452262 43.33117772 187.94315791 54.30158257 C188.43042354 55.44627007 188.43042354 55.44627007 188.92753291 56.61408257 C195.66342578 74.20988436 194.40685482 93.95673412 194.37906599 112.45234251 C194.37593791 115.6751302 194.38210583 118.89787555 194.38810474 122.12065715 C194.40206279 129.73316744 194.40066073 137.3455653 194.38920283 144.95807672 C194.37771681 152.76080305 194.39182537 160.56318583 194.41859931 168.36586696 C194.44087877 175.11635785 194.44736672 181.86674185 194.4415229 188.61726683 C194.43818282 192.62671176 194.44036919 196.63593644 194.45777392 200.64534974 C194.58332641 232.60528376 194.58332641 232.60528376 189.94315791 246.30158257 C189.32995944 248.11741593 189.32995944 248.11741593 188.70437312 249.96993279 C181.45193067 270.43792407 168.55144419 286.55779081 148.75565791 296.05158257 C143.40758214 298.47957303 137.93826087 300.41739958 132.31815791 302.11408257 C131.67467402 302.30905328 131.03119014 302.50402398 130.36820674 302.70490289 C119.33288925 305.81591595 108.24072912 306.59901323 96.82548213 306.57624078 C95.46524475 306.580602 94.10500981 306.58578977 92.74477839 306.59172845 C89.0894021 306.60498293 85.43413005 306.60571209 81.77873445 306.60316515 C78.70551381 306.60208546 75.63231341 306.60700437 72.55909717 306.61177057 C65.29419797 306.62282045 58.02935049 306.62332974 50.76444697 306.6172564 C43.32262399 306.61122974 35.88099069 306.62350474 28.43920004 306.64482647 C22.00471185 306.66256986 15.57028332 306.6684237 9.13577163 306.66518873 C5.31289708 306.66339477 1.49015763 306.66581879 -2.33269429 306.67990327 C-34.69881194 306.78886106 -66.78262981 304.29597685 -91.05684209 280.30158257 C-101.41163426 268.76338558 -108.41908026 254.32085666 -112.05684209 239.30158257 C-112.2234594 238.64594166 -112.3900767 237.99030074 -112.56174302 237.31479192 C-114.30420934 229.73215865 -114.34683772 222.28950667 -114.33150029 214.54303765 C-114.33585618 213.07823197 -114.34104222 211.61342856 -114.34698796 210.14862847 C-114.36029859 206.1958342 -114.36096528 202.24313602 -114.35842466 198.29032373 C-114.35734901 194.97580028 -114.36225369 191.66129579 -114.36703008 188.34677643 C-114.37809899 180.51683713 -114.3785782 172.68694582 -114.37251592 164.8570025 C-114.36648515 156.81588882 -114.37877031 148.77495052 -114.40008599 140.73386675 C-114.41778339 133.79929423 -114.42369038 126.86477711 -114.42044824 119.93018287 C-114.41864732 115.8022284 -114.42115061 111.6743989 -114.43516278 107.54646516 C-114.44786897 103.65817955 -114.44567823 99.77016409 -114.43275189 95.88188195 C-114.43041365 94.46751011 -114.43301988 93.05311849 -114.44137502 91.63876939 C-114.57381043 67.44553296 -107.09190162 43.01303418 -90.05684209 25.30158257 C-76.92167181 12.83770844 -60.82451021 5.4000578 -43.05684209 2.30158257 C-42.18392018 2.13526834 -41.31099828 1.9689541 -40.41162419 1.79760003 C-27.03578521 -0.37691354 -13.51229352 -0.00992551 0 0 Z M-66.05684209 43.30158257 C-66.73488896 43.89841851 -67.41293584 44.49525445 -68.11152959 45.11017632 C-79.31027711 55.61164334 -85.63547209 70.77025882 -86.15096402 86.10071969 C-86.19417293 89.58680447 -86.203375 93.07157492 -86.20210576 96.55793023 C-86.20510181 97.89745958 -86.20850536 99.23698807 -86.21228337 100.57651544 C-86.22108491 104.2008298 -86.22345994 107.82512052 -86.22409916 111.44944453 C-86.22481216 113.7198453 -86.22695126 115.99024014 -86.22959638 118.26063943 C-86.238839 126.19893292 -86.24293286 134.13720966 -86.24214482 142.07550836 C-86.2415452 149.44570951 -86.25207707 156.81583719 -86.26788849 164.18601978 C-86.28102044 170.53620887 -86.28632632 176.88637413 -86.28568941 183.23657668 C-86.28543597 187.0190812 -86.2882013 190.80152046 -86.29886746 194.58401132 C-86.30864347 198.14799379 -86.30856354 201.71184991 -86.30135083 205.27583718 C-86.29982863 207.18530422 -86.30808598 209.0947715 -86.31679082 211.00421929 C-86.27767202 221.90573119 -85.51299013 232.64721163 -80.80684209 242.61408257 C-80.49674199 243.29212945 -80.18664189 243.97017632 -79.86714482 244.66877007 C-77.48676296 249.72289716 -74.82887321 254.153289 -71.05684209 258.30158257 C-70.23506474 259.29351617 -70.23506474 259.29351617 -69.39668584 260.30548882 C-59.93463558 270.89253869 -45.72463848 275.27611377 -32.05684209 277.30158257 C-30.05675506 277.39187575 -28.05422749 277.43619046 -26.05211186 277.44202447 C-24.87217656 277.44773461 -23.69224126 277.45344476 -22.47655034 277.45932794 C-20.5549056 277.46100472 -20.5549056 277.46100472 -18.59443974 277.46271539 C-17.22051669 277.46734909 -15.84659492 277.47237449 -14.47267461 277.47776055 C-10.74893433 277.49084049 -7.02521205 277.49732184 -3.3014524 277.50177121 C-0.96788252 277.50471138 1.36568254 277.50881811 3.69924998 277.51327538 C11.02059232 277.52694382 18.34192354 277.53661152 25.66327775 277.54047728 C34.07594392 277.54494506 42.48844658 277.5624359 50.90106308 277.59147787 C57.42707346 277.61321334 63.95303825 277.62318797 70.47908437 277.62451839 C74.36513622 277.62555874 78.25103425 277.63129895 82.13704753 277.64933801 C116.25596007 278.36669454 116.25596007 278.36669454 145.94315791 263.30158257 C146.54772822 262.7782232 147.15229854 262.25486382 147.77518916 261.71564507 C159.94022152 250.42522289 165.21948423 234.1396875 166.13199496 217.95157838 C166.20743044 214.42635001 166.22496653 210.90597684 166.21781611 207.37995172 C166.22217743 206.04115797 166.22736522 204.70236671 166.23330379 203.36357903 C166.24655094 199.7684534 166.24728875 196.17343379 166.24474049 192.57828856 C166.24366123 189.55927367 166.24857815 186.54027942 166.25334591 183.52126902 C166.26439114 176.39081381 166.26490639 169.26041131 166.25883174 162.12995172 C166.25279249 154.81186034 166.26511318 147.49396126 166.28640181 140.17590266 C166.30409977 133.85614112 166.31000643 127.53644033 166.30676407 121.21665496 C166.30496447 117.45821405 166.30745345 113.69991042 166.32147861 109.94149232 C166.33418736 106.4044531 166.33199187 102.86771079 166.31906772 99.33067536 C166.31563002 97.43934733 166.32678212 95.54800965 166.33863521 93.65671563 C166.23678871 76.79033694 162.06452813 62.71660534 151.94315791 49.30158257 C151.34503291 48.41470757 150.74690791 47.52783257 150.13065791 46.61408257 C144.46100774 40.62045239 137.74954813 36.92724767 130.13065791 33.98908257 C129.51609736 33.74681939 128.90153682 33.50455621 128.26835322 33.25495172 C117.49555056 29.34822489 106.08251442 29.00445141 94.74613643 29.02692437 C93.37778647 29.02256347 92.00943894 29.0173758 90.64109492 29.0114367 C86.96539399 28.99818517 83.28979673 28.99745224 79.61407661 29 C76.52795805 29.00107896 73.44185968 28.99616309 70.35574549 28.99139458 C63.0670775 28.98034782 55.77846106 28.97983496 48.48978877 28.98590875 C41.00810432 28.9919481 33.52660794 28.97962738 26.04495555 28.95833868 C19.58506804 28.94064347 13.12523997 28.93473363 6.66532916 28.93797642 C2.82305239 28.93977645 -1.0190901 28.93728252 -4.86134458 28.92326188 C-8.47717612 28.9105577 -12.09271716 28.91274447 -15.70854497 28.92567277 C-17.64281296 28.92911233 -19.57709037 28.91795494 -21.51132512 28.90610528 C-37.49744962 29.00058336 -53.81478021 32.46812614 -66.05684209 43.30158257 Z " fill="#FEFDFD" transform="translate(216.05684208869934,102.69841742515564)"/>
<path d="M0 0 C1.58264648 -0.02416992 1.58264648 -0.02416992 3.19726562 -0.04882812 C10.44291512 -0.05328699 16.69113175 1.04752689 23.5625 3.3125 C25.31046875 3.87710938 25.31046875 3.87710938 27.09375 4.453125 C39.07666608 8.93095153 48.46376952 15.36147618 57.5625 24.3125 C58.3359375 25.07304687 59.109375 25.83359375 59.90625 26.6171875 C74.50626667 41.86720491 80.7141069 60.65296179 80.8125 81.5 C80.8434375 83.1097168 80.8434375 83.1097168 80.875 84.75195312 C80.91047923 92.08284949 79.88776219 98.3676894 77.5625 105.3125 C77.33804199 105.99578369 77.11358398 106.67906738 76.88232422 107.38305664 C69.74052365 128.04229855 56.20970536 143.8068928 36.875 154.0625 C34.44508601 155.19804804 32.03613451 156.28557469 29.5625 157.3125 C28.6338916 157.69994385 28.6338916 157.69994385 27.68652344 158.09521484 C9.59218866 165.28584253 -12.53003289 164.85219453 -30.49462891 157.46679688 C-39.40917551 153.596088 -47.2550591 148.9198562 -54.4375 142.3125 C-55.26636719 141.57515625 -56.09523437 140.8378125 -56.94921875 140.078125 C-71.02292498 126.88806648 -80.67781172 108.47186691 -81.53808594 89.04052734 C-82.32845344 64.08540541 -76.37075638 43.39541254 -59.4375 24.3125 C-43.74068662 8.01059404 -22.30549585 -0.06788039 0 0 Z " fill="#FEFDFD" transform="translate(256.4375,174.6875)"/>
<path d="M0 0 C0.90177979 0.78084961 1.80355957 1.56169922 2.73266602 2.36621094 C5.99972482 5.17260735 9.32383608 7.90212153 12.65991211 10.62597656 C60.8992501 50.31292695 60.8992501 50.31292695 63.39903069 72.9623642 C64.52309438 86.65142843 62.98195552 100.4961751 60.53691101 113.96783447 C59.76164796 118.34607568 59.1404419 122.74545526 58.50970459 127.14654541 C57.79983203 131.12059068 56.51957177 134.60872107 54.8125 138.25 C54.35230469 139.26211548 54.35230469 139.26211548 53.8828125 140.29467773 C51.27893273 145.81662992 48.13887423 150.49675535 44 155 C43.48050781 155.62132812 42.96101562 156.24265625 42.42578125 156.8828125 C32.27086993 168.2425438 15.2738287 172.1350799 0.65942383 173.25628662 C-6.99152545 173.61575003 -14.64992348 173.72168331 -22.30810547 173.81005859 C-25.10455647 173.84576525 -27.89700123 173.91557226 -30.69189453 174.01513672 C-56.45019469 174.91081411 -56.45019469 174.91081411 -62.97888184 168.98635864 C-64.74852349 166.9982927 -66.27297158 164.87131716 -67.74182129 162.65339661 C-69.75431523 160.00873999 -72.28760825 158.02753939 -74.8170166 155.89080811 C-78.77184991 152.46529838 -82.40792488 148.71381451 -86.09375 145.00390625 C-86.92588013 144.17036118 -87.75801025 143.3368161 -88.61535645 142.47801208 C-91.24594935 139.84186738 -93.87302441 137.20224895 -96.5 134.5625 C-98.29403855 132.76344021 -100.08830715 130.9646098 -101.8828125 129.16601562 C-106.25787125 124.77999188 -110.63005512 120.39111858 -115 116 C-114.01 115.505 -114.01 115.505 -113 115 C-110.87618962 116.14849832 -108.85690648 117.3478021 -106.8125 118.625 C-89.4757511 129.0147699 -67.92417503 132.29530382 -48.0703125 128.12890625 C-32.85395681 124.20714757 -18.72695162 116.55210175 -8 105 C-7.09314453 104.06607422 -7.09314453 104.06607422 -6.16796875 103.11328125 C10.64313092 85.20929939 14.87732289 63.81002873 14.17041016 40.06054688 C13.52585099 28.4843381 9.23140404 18.52506803 3.8046875 8.42578125 C2.33988752 5.64519774 1.09097434 2.94113185 0 0 Z " fill="#9F375A" transform="translate(322,207)"/>
<path d="M0 0 C1.45792969 0.77923828 1.45792969 0.77923828 2.9453125 1.57421875 C15.38102991 8.8425059 23.61130675 20.59826416 27.70703125 34.37890625 C28.88878268 44.95164234 29.5742931 57.19547744 25 67 C24.37931641 68.34578125 24.37931641 68.34578125 23.74609375 69.71875 C16.91297228 83.27327978 6.9289216 91.08729928 -6.734375 97.2734375 C-20.71822739 101.7579143 -36.7324801 99.79819876 -49.5625 93.3125 C-59.26544538 87.72885865 -65.72966272 80.86063103 -71 71 C-71.50917969 70.06929688 -72.01835937 69.13859375 -72.54296875 68.1796875 C-77.81059013 56.87717215 -78.36738219 41.57553712 -74.375 29.75 C-73.26171875 27.30859375 -73.26171875 27.30859375 -72 25 C-71.55269531 24.14535156 -71.10539063 23.29070312 -70.64453125 22.41015625 C-63.2023814 9.14198025 -51.95936543 -0.2517954 -37.17333984 -4.52832031 C-24.89958076 -7.19209279 -10.99355739 -6.01448084 0 0 Z " fill="#8A344E" transform="translate(280,209)"/>
<path d="M0 0 C5.78515707 4.77695543 11.09874257 9.9445146 16.39038086 15.26000977 C17.823573 16.69861482 19.26210304 18.13172918 20.70117188 19.56445312 C21.61060547 20.47517578 22.52003906 21.38589844 23.45703125 22.32421875 C24.28178955 23.15010498 25.10654785 23.97599121 25.95629883 24.8269043 C29.06488875 28.13231093 30.25157403 30.08773956 30.22705078 34.56323242 C30.22689972 35.48396042 30.22674866 36.40468842 30.22659302 37.35331726 C30.21627045 38.34402725 30.20594788 39.33473724 30.1953125 40.35546875 C30.1924826 41.37224197 30.18965271 42.3890152 30.18673706 43.43659973 C30.17553383 46.68701908 30.15042886 49.93716381 30.125 53.1875 C30.11497039 55.38996998 30.10584451 57.59244428 30.09765625 59.79492188 C30.07559405 65.19670843 30.04211508 70.59833459 30 76 C23.79652613 70.87458022 18.14315324 65.2723094 12.47265625 59.5703125 C11.47396983 58.56975714 10.47505953 57.56942519 9.47593689 56.56930542 C6.86808036 53.9576612 4.26324305 51.34302633 1.65905762 48.72772217 C-1.00735236 46.05101677 -3.67665464 43.37719898 -6.34570312 40.703125 C-11.56661101 35.47154602 -16.78432751 30.23679904 -22 25 C-19.40227705 23.70113852 -17.64236147 24.0413014 -14.75 24.1875 C-9.62130256 24.2210209 -6.87623198 23.59260525 -3 20 C0.77574808 15.72744296 1.45768913 12.62090617 1.20703125 7.125 C0.97080431 4.70033108 0.60905411 2.36008467 0 0 Z " fill="#772C6A" transform="translate(352,166)"/>
<path d="M0 0 C4.69327902 2.65657303 7.56838922 5.64266766 9.3125 10.875 C9.85475459 15.54194522 9.7823456 18.95271048 7.625 23.1875 C4.39873632 26.93694157 1.04902689 30.55732689 -4.04296875 31.1484375 C-9.81114622 31.35529628 -13.84069075 31.20767705 -18.31640625 27.34375 C-22.77418087 22.56847006 -23.23632358 17.79356172 -23.03125 11.49609375 C-22.44255712 7.00731058 -20.62327764 4.43832422 -17.14453125 1.62890625 C-11.42276572 -2.15505311 -6.39823962 -1.95200531 0 0 Z " fill="#FDFCFD" transform="translate(344.6875,160.125)"/>
</svg>
