<?xml version="1.0" encoding="UTF-8"?>
<svg version="1.1" xmlns="http://www.w3.org/2000/svg" width="512" height="512">
<path d="M0 0 C0.68421782 -0.00438225 1.36843563 -0.00876451 2.07338732 -0.01327956 C4.37718994 -0.02668574 6.6809543 -0.03285045 8.98478699 -0.03897095 C10.63212254 -0.04687044 12.27945635 -0.05513929 13.92678833 -0.06375122 C19.34608809 -0.08998738 24.76539564 -0.10527966 30.18473816 -0.11953735 C32.04877414 -0.12489623 33.91281006 -0.13027374 35.77684593 -0.13566971 C43.52917339 -0.15730008 51.28149875 -0.17603783 59.03384876 -0.1872921 C70.15236502 -0.20353812 81.27053216 -0.23672983 92.38891679 -0.29369295 C100.20213417 -0.33236112 108.01525806 -0.35192103 115.82856864 -0.35721266 C120.49746166 -0.3608702 125.16598248 -0.37293402 129.83477211 -0.4053154 C134.22695826 -0.43534152 138.61854594 -0.44172757 143.01081276 -0.42993164 C144.62290678 -0.42971045 146.23502813 -0.4380531 147.84702682 -0.45558548 C150.04856188 -0.47822654 152.24791738 -0.47000902 154.44946289 -0.45410156 C155.68114606 -0.45741171 156.91282923 -0.46072186 158.18183613 -0.46413231 C162.31519242 0.32592504 163.78153581 1.95086525 166.41520691 5.15390015 C167.67043311 7.66435256 167.5735858 9.45404147 167.62614441 12.26327515 C167.65224792 13.31692261 167.67835144 14.37057007 167.70524597 15.45614624 C167.73328308 16.59390503 167.76132019 17.73166382 167.79020691 18.90390015 C168.85083594 51.26199833 175.93975216 81.60381146 191.41520691 110.15390015 C191.97981628 111.19932983 192.54442566 112.24475952 193.12614441 113.3218689 C199.35050554 124.3825294 206.67750844 134.64315424 215.33708191 143.9234314 C217.24547582 145.97172636 219.05145417 148.07425612 220.85270691 150.21640015 C241.06111744 173.23281305 271.78064837 190.45339613 300.94914246 198.95223999 C305.79943336 200.4839108 308.84542145 202.80215971 311.41520691 207.15390015 C311.89902691 209.90278382 312.0966283 212.01119592 312.04411316 214.7437439 C312.05031425 215.8364283 312.05031425 215.8364283 312.05664062 216.95118713 C312.0593296 219.33240803 312.02138955 221.71060722 311.97770691 224.09140015 C311.96967041 224.91146545 311.96163391 225.73153076 311.95335388 226.57644653 C311.26422951 293.42799601 287.63941333 359.28040183 245.41520691 411.15390015 C244.99738953 411.66791382 244.57957214 412.18192749 244.14909363 412.71151733 C238.78186703 419.27795528 233.16910625 425.61195887 227.41520691 431.84140015 C226.88250183 432.4226062 226.34979675 433.00381226 225.8009491 433.60263062 C220.64570341 439.11951294 215.04112355 444.1263094 209.41520691 449.15390015 C210.51509949 449.17371948 211.61499207 449.19353882 212.74821472 449.21395874 C216.83356913 449.29009916 220.91857129 449.37880351 225.00358582 449.47128296 C226.77076761 449.50953786 228.53802635 449.54439685 230.30534363 449.57577515 C232.84745254 449.62150167 235.38903339 449.67948304 237.93083191 449.73983765 C238.7195166 449.75138885 239.50820129 449.76294006 240.32078552 449.77484131 C247.73729562 449.97385627 247.73729562 449.97385627 250.41520691 452.15390015 C254.10095854 457.41433524 253.86733592 462.63342517 253.84880066 468.81015015 C253.85404251 469.83064453 253.85928436 470.85113892 253.86468506 471.90255737 C253.87109145 474.05420016 253.86978623 476.20587803 253.86125183 478.35751343 C253.8527348 481.64314243 253.88153518 484.92703611 253.91325378 488.2124939 C253.91486582 490.30754546 253.91428821 492.40260009 253.91130066 494.49765015 C253.92253464 495.47592773 253.93376862 496.45420532 253.94534302 497.46212769 C253.88566104 503.32255823 253.31739221 506.68802036 249.41520691 511.15390015 C246.78171537 512.47064591 244.82396533 512.28423351 241.87317181 512.29091454 C240.68791871 512.29598908 239.50266561 512.30106362 238.28149575 512.30629194 C236.96780961 512.3067897 235.65412347 512.30728745 234.30062866 512.30780029 C232.90003265 512.31181352 231.49943779 512.31625151 230.09884435 512.32107985 C226.23648185 512.3330666 222.37413186 512.33869864 218.51175439 512.343261 C214.35145582 512.34920907 210.19117226 512.36082081 206.03088379 512.37155151 C195.97747888 512.39609252 185.924069 512.4107045 175.87064335 512.42361158 C173.03259425 512.42732206 170.19454565 512.43129541 167.35649705 512.43536425 C149.74384278 512.46059764 132.13118776 512.48265722 114.5185194 512.49509239 C110.43745102 512.49802223 106.35638266 512.50098387 102.27531433 512.5039978 C101.26094786 512.50474385 100.2465814 512.5054899 99.20147655 512.50625856 C82.76055192 512.51891867 66.31973527 512.55214964 49.87886115 512.59379964 C33.01107785 512.63618197 16.14334989 512.65978308 -0.72448653 512.66501296 C-10.19995124 512.66843112 -19.67524715 512.68023403 -29.15065956 512.71311569 C-37.21850648 512.74106648 -45.28615002 512.75213745 -53.35404161 512.74092023 C-57.47220436 512.7357209 -61.58994086 512.73870233 -65.70804214 512.76338577 C-69.4765427 512.78578574 -73.24430854 512.78521161 -77.01282116 512.7661819 C-79.02519982 512.76203391 -81.03758228 512.7825957 -83.04985172 512.80396879 C-92.78057209 512.71774413 -92.78057209 512.71774413 -95.86576366 509.74090004 C-98.10723223 506.36767161 -98.71236143 504.7011892 -98.7459259 500.70761108 C-98.75553345 499.78615295 -98.76514099 498.86469482 -98.77503967 497.91531372 C-98.77928955 496.91639099 -98.78353943 495.91746826 -98.78791809 494.88827515 C-98.79361816 493.86212097 -98.79931824 492.8359668 -98.80519104 491.77871704 C-98.81465012 489.6031701 -98.82117861 487.42760878 -98.82502747 485.25204468 C-98.83471314 481.93131277 -98.86572014 478.61120492 -98.89729309 475.2906189 C-98.90382508 473.17734132 -98.90907478 471.06405932 -98.91291809 468.95077515 C-98.92526489 467.95994934 -98.93761169 466.96912354 -98.95033264 465.94827271 C-98.93329817 460.64643625 -98.75169136 456.64048837 -95.58479309 452.15390015 C-92.05777317 449.2826108 -87.45017897 449.80354497 -83.10041809 449.73983765 C-81.87702728 449.71078842 -81.87702728 449.71078842 -80.62892151 449.68115234 C-78.03098417 449.62150439 -75.43300216 449.57503073 -72.83479309 449.52890015 C-71.07045115 449.49070672 -69.30612758 449.45165419 -67.54182434 449.41171265 C-63.22296364 449.3158151 -58.90401565 449.23172968 -54.58479309 449.15390015 C-55.00140198 448.77282104 -55.41801086 448.39174194 -55.84724426 447.99911499 C-70.03378089 434.97776902 -82.98297725 421.53157968 -94.58479309 406.15390015 C-95.0356427 405.56528198 -95.48649231 404.97666382 -95.95100403 404.37020874 C-128.91478528 361.28802054 -149.29231448 308.9228412 -155.58479309 255.15390015 C-155.72618713 253.99543579 -155.72618713 253.99543579 -155.87043762 252.81356812 C-156.76421222 244.48819362 -156.8053313 236.15492596 -156.82502747 227.7906189 C-156.83485509 225.26295516 -156.86602935 222.73606582 -156.89729309 220.20858765 C-156.90381408 218.58880073 -156.90906809 216.96900811 -156.91291809 215.34921265 C-156.92526489 214.60019684 -156.93761169 213.85118103 -156.95033264 213.07946777 C-156.93122257 208.59097257 -156.39400823 205.70065379 -153.58479309 202.15390015 C-150.86213684 200.6343689 -150.86213684 200.6343689 -147.52229309 199.34140015 C-146.25480914 198.83106228 -144.98790956 198.31927131 -143.72151184 197.8062439 C-142.712901 197.40574829 -142.712901 197.40574829 -141.68391418 196.99716187 C-90.78719118 176.55086258 -50.51232647 140.53667343 -28.35017395 89.96981812 C-18.70531005 67.12164706 -14.2841441 42.94623385 -13.38557434 18.2281189 C-13.33856384 17.0683252 -13.33856384 17.0683252 -13.29060364 15.88510132 C-13.23851828 14.44701046 -13.20351632 13.00814915 -13.18952942 11.56918335 C-13.03092553 6.86825844 -11.89226206 4.47375664 -8.58479309 1.15390015 C-5.70486307 -0.28606486 -3.21964204 0.01457948 0 0 Z " fill="#335E7F" transform="translate(178.5847930908203,-0.153900146484375)"/>
<path d="M0 0 C0.68421782 -0.00438225 1.36843563 -0.00876451 2.07338732 -0.01327956 C4.37718994 -0.02668574 6.6809543 -0.03285045 8.98478699 -0.03897095 C10.63212254 -0.04687044 12.27945635 -0.05513929 13.92678833 -0.06375122 C19.34608809 -0.08998738 24.76539564 -0.10527966 30.18473816 -0.11953735 C32.04877414 -0.12489623 33.91281006 -0.13027374 35.77684593 -0.13566971 C43.52917339 -0.15730008 51.28149875 -0.17603783 59.03384876 -0.1872921 C70.15236502 -0.20353812 81.27053216 -0.23672983 92.38891679 -0.29369295 C100.20213417 -0.33236112 108.01525806 -0.35192103 115.82856864 -0.35721266 C120.49746166 -0.3608702 125.16598248 -0.37293402 129.83477211 -0.4053154 C134.22695826 -0.43534152 138.61854594 -0.44172757 143.01081276 -0.42993164 C144.62290678 -0.42971045 146.23502813 -0.4380531 147.84702682 -0.45558548 C150.04856188 -0.47822654 152.24791738 -0.47000902 154.44946289 -0.45410156 C155.68114606 -0.45741171 156.91282923 -0.46072186 158.18183613 -0.46413231 C162.31519242 0.32592504 163.78153581 1.95086525 166.41520691 5.15390015 C167.67043311 7.66435256 167.5735858 9.45404147 167.62614441 12.26327515 C167.65224792 13.31692261 167.67835144 14.37057007 167.70524597 15.45614624 C167.73328308 16.59390503 167.76132019 17.73166382 167.79020691 18.90390015 C168.85391558 51.3559534 176.04942541 81.47738296 191.41520691 110.15390015 C192.02235535 111.28827515 192.62950378 112.42265015 193.25505066 113.59140015 C194.62644553 116.12122034 196.01050614 118.64246543 197.41520691 121.15390015 C196.67915222 121.8603064 195.94309753 122.56671265 195.18473816 123.29452515 C192.53085705 126.03449831 190.33613453 128.81711535 188.10270691 131.90390015 C186.54185855 133.98847118 184.97938888 136.07182935 183.41520691 138.15390015 C182.74102722 139.07171265 182.06684753 139.98952515 181.37223816 140.93515015 C176.61567621 146.93544386 176.61567621 146.93544386 173.16130066 147.5640564 C171.63372483 147.49943813 170.10736249 147.3867254 168.58708191 147.22421265 C164.66106279 147.09711131 162.54874956 148.88054568 159.41520691 151.15390015 C156.32527735 154.15799833 155.36943548 156.37647617 154.54020691 160.46640015 C152.88026227 165.83890913 148.98793611 167.83754455 144.29875183 170.33578491 C130.26032756 177.4074788 115.04158095 183.09972891 99.41520691 185.15390015 C98.68430847 185.2621814 97.95341003 185.37046265 97.20036316 185.48202515 C94.1923437 185.73606134 91.99865733 185.54717155 89.47380066 183.8453064 C87.60270691 182.21640015 87.60270691 182.21640015 85.95817566 180.5640564 C82.9606293 177.82452669 79.45915448 177.82157752 75.54411316 177.86483765 C71.33399617 178.43648656 67.68277564 180.610773 64.97770691 183.90390015 C62.26464181 186.07435222 58.73703278 185.35877684 55.41520691 185.15390015 C52.60490062 184.7851254 49.86495497 184.222904 47.10270691 183.59140015 C46.3307196 183.41504028 45.5587323 183.23868042 44.76335144 183.05697632 C8.04570955 174.22357467 8.04570955 174.22357467 0.96989441 162.82577515 C0.29020691 160.52890015 0.29020691 160.52890015 -0.10041809 158.2984314 C-0.98290335 154.39129906 -3.67313983 151.77513275 -6.58479309 149.15390015 C-9.0757867 147.60544466 -10.5912133 146.99065479 -13.51057434 147.4703064 C-16.18132897 147.84506593 -17.95919714 147.84699225 -20.58479309 147.15390015 C-24.92128142 143.70267127 -28.23707691 139.52859161 -31.58479309 135.15390015 C-32.37345764 134.13513794 -32.37345764 134.13513794 -33.17805481 133.09579468 C-34.7836776 130.99122496 -36.34800452 128.86271229 -37.89729309 126.71640015 C-38.39599915 126.04286499 -38.8947052 125.36932983 -39.40852356 124.67538452 C-42.70685073 119.90597246 -42.70685073 119.90597246 -42.19807434 116.77108765 C-41.66569153 115.90741577 -41.13330872 115.0437439 -40.58479309 114.15390015 C-39.8057563 112.72073173 -39.03305083 111.28411487 -38.26448059 109.8453064 C-37.81540344 109.02739624 -37.36632629 108.20948608 -36.90364075 107.36679077 C-21.74494906 79.54082578 -14.86399506 50.13108474 -13.63117981 18.57943726 C-13.55163798 16.62304155 -13.44743695 14.66769758 -13.34260559 12.7124939 C-13.29249329 11.57094849 -13.24238098 10.42940308 -13.19075012 9.25326538 C-12.4695896 5.56465425 -11.17244667 3.83490386 -8.58479309 1.15390015 C-5.70486307 -0.28606486 -3.21964204 0.01457948 0 0 Z " fill="#335E80" transform="translate(178.5847930908203,-0.153900146484375)"/>
<path d="M0 0 C0.66 0 1.32 0 2 0 C3.18579102 1.40185547 3.18579102 1.40185547 4.50390625 3.3671875 C5.23710083 4.44238647 5.23710083 4.44238647 5.98510742 5.53930664 C6.50564697 6.31008545 7.02618652 7.08086426 7.5625 7.875 C14.70781238 19.93286314 14.70781238 19.93286314 25.34375 27.4921875 C27.67665973 27.47317539 27.67665973 27.47317539 29.9375 27.1796875 C33.34895592 26.88247732 35.23647157 28.09623597 38 30 C41.82779139 33.46189956 43.98692827 36.34137933 44.9375 41.4375 C46.12207627 45.42444527 48.026303 47.04483421 51.59716797 49.12426758 C63.89493383 55.59187628 77.15479256 60.35578035 90.6875 63.4375 C91.40526611 63.6015332 92.12303223 63.76556641 92.86254883 63.93457031 C101.24031174 65.7797707 101.24031174 65.7797707 109.20703125 63.72265625 C110.00173828 62.90087891 110.00173828 62.90087891 110.8125 62.0625 C114.04529115 58.81435117 116.04903326 58.07924723 120.75 57.6875 C125.47826277 57.739746 128.13208447 59.34554817 132 62 C132.474375 62.5775 132.94875 63.155 133.4375 63.75 C136.28218109 66.02574487 139.57754633 65.36189087 143 65 C160.26047769 62.77143199 180.97038547 56.59215912 195 46 C196.415314 43.66271003 196.98620397 41.84653151 197.484375 39.17578125 C198.67239329 34.16270407 202.72783604 30.87637962 206.8125 28.0625 C209.98597144 27.00467619 211.13131657 27.0729894 214.3125 27.4375 C217.46054525 27.52158802 218.66502527 27.25794846 221.19140625 25.3125 C223.63281562 22.65708516 225.84886344 19.89014664 228 17 C228.48388184 16.35788574 228.96776367 15.71577148 229.46630859 15.05419922 C232.7028862 10.74387549 235.86982832 6.38809114 239 2 C243.10088936 3.50607883 244.53509554 5.96188878 246.75 9.625 C247.36359375 10.62789062 247.9771875 11.63078125 248.609375 12.6640625 C249.06828125 13.43492187 249.5271875 14.20578125 250 15 C248.5264063 16.96274066 247.04681575 18.92038453 245.5625 20.875 C245.11527588 21.46853271 244.66805176 22.06206543 244.20727539 22.67358398 C241.34184639 26.422701 238.30451427 29.74420459 234.9375 33.0625 C230.64473125 37.66296721 230.21956715 41.13146999 230.15625 47.2890625 C229.92266931 51.3416875 228.7218762 53.04482013 226 56 C224.686932 56.70574404 223.35582591 57.38035629 222 58 C219.65723487 88.02050608 219.65723487 88.02050608 231.9987793 113.95727539 C233.34812014 115.35154647 234.71789817 116.72640547 236.10986328 118.078125 C238.98000206 120.99645779 241.16986307 124.2538508 243.375 127.6875 C243.76494141 128.27958252 244.15488281 128.87166504 244.55664062 129.48168945 C247.58169156 134.15126112 250.30449947 138.97538091 252.9375 143.875 C253.30343262 144.55264404 253.66936523 145.23028809 254.04638672 145.9284668 C260.16881545 157.67052303 262.33940058 169.38702654 258.375 182.375 C255.4369891 190.08857632 251.13260487 196.46569805 245 202 C244.52304687 202.48082031 244.04609375 202.96164062 243.5546875 203.45703125 C234.05661524 212.51920164 221.91786898 214.49899493 209.33203125 214.2734375 C197.58813093 213.75984844 186.56232384 207.1162529 178.625 198.6875 C169.24567549 187.42462262 166.98255248 175.5023985 167.77050781 161.26611328 C168.31245653 155.91465799 170.42366658 151.64465743 173 147 C173.63919863 145.77144541 174.27714382 144.54223813 174.9140625 143.3125 C182.80262362 128.43314312 193.03519959 111.96480041 205 100 C205.1603556 96.97192956 205.25960448 93.96414546 205.31640625 90.93359375 C205.3475779 89.57065941 205.3475779 89.57065941 205.37937927 88.18019104 C205.44497672 85.26604054 205.5038068 82.35179696 205.5625 79.4375 C205.60567554 77.46678709 205.64928951 75.49608374 205.69335938 73.52539062 C205.80066843 68.68369012 205.90190675 63.84189563 206 59 C204.92331055 59.54124512 203.84662109 60.08249023 202.73730469 60.64013672 C201.29885537 61.36170795 199.86037727 62.08322183 198.421875 62.8046875 C197.71530762 63.16006592 197.00874023 63.51544434 196.28076172 63.8815918 C179.17193514 72.45569303 161.55043095 78.67824963 142.53466797 81.35595703 C136.5372661 82.35120756 134.52417968 84.07818549 131 89 C130.34 89 129.68 89 129 89 C128.8285613 100.58872748 128.72885922 112.17573232 128.71759319 123.76578522 C128.7101729 129.14939941 128.67920614 134.53061376 128.59204102 139.91357422 C128.50862305 145.12107581 128.49017398 150.32532833 128.51441383 155.53340149 C128.51263903 157.50758476 128.48850549 159.48189435 128.44031334 161.45549011 C128.15557048 173.85181278 129.57740065 181.58507274 138.0983305 190.93250275 C139.21586873 192.10159894 140.34277944 193.26183135 141.48030376 194.41149044 C143.55133328 196.57629819 145.28769255 198.93208194 147.015625 201.375 C147.55968994 202.14384521 148.10375488 202.91269043 148.66430664 203.70483398 C149.18758545 204.46223877 149.71086426 205.21964355 150.25 206 C150.82935303 206.83539307 151.40870605 207.67078613 152.00561523 208.53149414 C161.92376077 223.02469971 173.82805516 240.64220667 172 259 C169.2369333 273.41531372 163.30094942 285.84759817 151.4296875 294.9765625 C148.68495511 296.81420384 145.91053502 298.43962984 143 300 C142.21625 300.43570312 141.4325 300.87140625 140.625 301.3203125 C129.80749524 306.27833552 114.06669583 305.93414011 102.9375 302.125 C89.85331296 296.06369026 79.59276715 286.34807092 74 273 C73.69964844 272.29746094 73.39929688 271.59492188 73.08984375 270.87109375 C69.00869473 259.65267947 69.58673482 247.05007953 74.3984375 236.23046875 C74.92695313 235.16441406 75.45546875 234.09835937 76 233 C76.56976563 231.82050781 77.13953125 230.64101563 77.7265625 229.42578125 C85.85387663 213.15830348 97.19023522 195.81834084 110.05793762 182.94042969 C112.71594186 178.91600974 112.5744218 175.80183003 112.54589844 171.07885742 C112.56140495 169.74639984 112.56140495 169.74639984 112.57722473 168.38702393 C112.60665181 165.45965381 112.60815189 162.53297515 112.609375 159.60546875 C112.6243567 157.57235902 112.64108382 155.53926147 112.65948486 153.50617981 C112.70317162 148.16162558 112.7231605 142.81723553 112.73822021 137.47253418 C112.75778643 132.01609585 112.79975703 126.55983495 112.83984375 121.10351562 C112.91516032 110.40239846 112.96544312 99.70132098 113 89 C112.36839966 88.71194992 111.73679932 88.42389984 111.08605957 88.12712097 C109 87 109 87 107.62304688 84.96606445 C105.35679283 82.2208563 103.50295582 82.14138666 100.03125 81.54296875 C98.82968262 81.32157227 97.62811523 81.10017578 96.39013672 80.87207031 C95.1063916 80.64616211 93.82264648 80.42025391 92.5 80.1875 C73.60702434 76.60660381 57.55924617 70.31286241 40.78320312 60.92041016 C38.84895284 59.86402815 38.84895284 59.86402815 36 59 C35.89477744 64.62057462 35.85688604 70.23638732 35.87792969 75.85791016 C35.87599822 77.7645881 35.85654456 79.6713402 35.81835938 81.57763672 C35.35743764 95.18825233 35.35743764 95.18825233 41.63671875 106.73828125 C43.40495563 108.51186879 45.19157749 110.26740586 47 112 C48.25776757 113.57142453 49.47914087 115.17306653 50.65234375 116.80859375 C51.19592529 117.56479004 51.73950684 118.32098633 52.29956055 119.10009766 C57.74763234 126.8747048 62.75243603 134.72421889 67.1875 143.125 C67.85543579 144.38461548 67.85543579 144.38461548 68.53686523 145.66967773 C74.47108656 157.30628784 76.96402211 167.76816178 73.375 180.5625 C68.87676189 193.83702085 61.30048177 203.43686656 48.69921875 209.74609375 C47.80847656 210.15988281 46.91773438 210.57367188 46 211 C45.30519531 211.34160156 44.61039063 211.68320312 43.89453125 212.03515625 C34.79780983 215.81812551 21.56692587 215.46398322 12.328125 212.1015625 C0.51860433 206.51383628 -8.38681444 198.84531554 -14 187 C-14.30808594 186.35675781 -14.61617188 185.71351563 -14.93359375 185.05078125 C-19.13098908 175.79241165 -19.75788713 164.96079671 -16.25927734 155.37280273 C-8.85823893 137.11770122 2.92215307 120.98087041 15.00390625 105.57421875 C18.43703743 101.17873573 18.43703743 101.17873573 19.30639648 95.88330078 C19.32238388 95.05879425 19.33837128 94.23428772 19.35484314 93.38479614 C19.36020584 92.49726654 19.36556854 91.60973694 19.37109375 90.6953125 C19.38012222 89.77918182 19.3891507 88.86305115 19.39845276 87.91915894 C19.41296085 85.9808072 19.42184338 84.04240642 19.42553711 82.10400391 C19.43742887 79.1427123 19.48660392 76.18350769 19.53710938 73.22265625 C19.54657427 71.33855183 19.55380899 69.45443462 19.55859375 67.5703125 C19.57812607 66.68683136 19.59765839 65.80335022 19.61778259 64.89309692 C19.58520083 60.43924818 19.51951348 58.62745818 16.59008789 55.08935547 C15.73535889 54.39986816 14.88062988 53.71038086 14 53 C11.69947032 49.54920548 11.91549103 48.51417589 12 44.5 C11.53453217 37.57616599 8.58114505 34.62862957 3.79296875 29.875 C0.76061615 26.856426 -1.73289094 23.55903947 -4.1875 20.0625 C-4.94417969 19.00160156 -5.70085937 17.94070312 -6.48046875 16.84765625 C-8 14 -8 14 -7.953125 11.94921875 C-6.69433243 9.37488477 -5.21128238 7.09463025 -3.5625 4.75 C-2.63630859 3.41195312 -2.63630859 3.41195312 -1.69140625 2.046875 C-1.13324219 1.37140625 -0.57507813 0.6959375 0 0 Z " fill="#F9D168" transform="translate(135,119)"/>
<path d="M0 0 C1.1828851 -0.00521549 2.36577021 -0.01043099 3.58450031 -0.01580453 C4.88526099 -0.01134309 6.18602167 -0.00688164 7.52619934 -0.002285 C8.92098497 -0.00458886 10.31576939 -0.00776487 11.71055126 -0.01173949 C15.54755627 -0.02010651 19.38446208 -0.0159536 23.22146749 -0.00976706 C27.35785191 -0.00525135 31.49421898 -0.01222194 35.63059998 -0.0177269 C43.73544709 -0.02663198 51.84025721 -0.02469393 59.94510579 -0.01890162 C66.53060158 -0.01438951 73.11608698 -0.01377026 79.70158386 -0.01594925 C81.10614673 -0.01640895 81.10614673 -0.01640895 82.53908461 -0.01687793 C84.44116156 -0.01751737 86.3432385 -0.01816579 88.24531543 -0.01882312 C106.09175227 -0.02452968 123.93816858 -0.01796341 141.78460205 -0.00722238 C157.10611156 0.00171342 172.42759077 0.00016147 187.74909973 -0.00905991 C205.53057129 -0.01975678 223.31202485 -0.02398033 241.09349918 -0.01783538 C242.98867861 -0.01719826 244.88385804 -0.01656952 246.77903748 -0.01594925 C248.17782718 -0.01548642 248.17782718 -0.01548642 249.60487527 -0.01501425 C256.18439775 -0.01328556 262.76390884 -0.01620615 269.34342957 -0.02090836 C277.3588834 -0.02651072 285.37429805 -0.02501434 293.38974738 -0.01434687 C297.48133104 -0.00908146 301.57284931 -0.00704817 305.66443253 -0.01364517 C309.40731686 -0.0195888 313.15007497 -0.01635589 316.89294779 -0.00569007 C318.89400565 -0.0023848 320.89507221 -0.00894119 322.89612103 -0.01580453 C324.67044868 -0.00798129 324.67044868 -0.00798129 326.48062134 0 C327.50369794 0.0003247 328.52677454 0.00064941 329.58085346 0.00098395 C332.33464482 0.26057485 333.93461427 0.75040581 336.24031067 2.25168228 C339.9260623 7.51211737 339.69243968 12.7312073 339.67390442 18.90793228 C339.67914627 19.92842667 339.68438812 20.94892105 339.68978882 22.00033951 C339.69619521 24.15198229 339.69488999 26.30366017 339.68635559 28.45529556 C339.67783856 31.74092456 339.70663893 35.02481825 339.73835754 38.31027603 C339.73996958 40.4053276 339.73939197 42.50038223 339.73640442 44.59543228 C339.7476384 45.57370987 339.75887238 46.55198746 339.77044678 47.55990982 C339.7107648 53.42034036 339.14249597 56.78580249 335.24031067 61.25168228 C332.60681913 62.56842805 330.64906909 62.38201564 327.69827557 62.38869667 C326.51302247 62.39377121 325.32776937 62.39884576 324.10659951 62.40407407 C322.79291337 62.40457183 321.47922723 62.40506959 320.12573242 62.40558243 C318.72513641 62.40959566 317.32454155 62.41403365 315.92394811 62.41886199 C312.06158561 62.43084873 308.19923562 62.43648078 304.33685815 62.44104314 C300.17655958 62.4469912 296.01627601 62.45860295 291.85598755 62.46933365 C281.80258264 62.49387466 271.74917276 62.50848664 261.69574711 62.52139372 C258.85769801 62.5251042 256.01964941 62.52907754 253.18160081 62.53314638 C235.56894654 62.55837977 217.95629152 62.58043936 200.34362316 62.59287453 C196.26255478 62.59580436 192.18148642 62.59876601 188.10041809 62.60177994 C186.57886839 62.60289901 186.57886839 62.60289901 185.02658031 62.6040407 C168.58565568 62.6167008 152.14483903 62.64993178 135.70396491 62.69158177 C118.83618161 62.7339641 101.96845365 62.75756521 85.10061723 62.76279509 C75.62515252 62.76621326 66.14985661 62.77801617 56.6744442 62.81089783 C48.60659727 62.83884861 40.53895374 62.84991959 32.47106215 62.83870237 C28.3528994 62.83350303 24.2351629 62.83648446 20.11706161 62.86116791 C16.34856106 62.88356788 12.58079522 62.88299374 8.8122826 62.86396404 C6.79990394 62.85981604 4.78752148 62.88037783 2.77525204 62.90175092 C-6.95546833 62.81552626 -6.95546833 62.81552626 -10.0406599 59.83868217 C-12.28212847 56.46545374 -12.88725767 54.79897134 -12.92082214 50.80539322 C-12.93042969 49.88393509 -12.94003723 48.96247696 -12.94993591 48.01309586 C-12.95418579 47.01417313 -12.95843567 46.0152504 -12.96281433 44.98605728 C-12.9685144 43.95990311 -12.97421448 42.93374893 -12.98008728 41.87649918 C-12.98954636 39.70095224 -12.99607485 37.52539091 -12.99992371 35.34982681 C-13.00960938 32.02909491 -13.04061638 28.70898705 -13.07218933 25.38840103 C-13.07872132 23.27512346 -13.08397102 21.16184145 -13.08781433 19.04855728 C-13.10016113 18.05773148 -13.11250793 17.06690567 -13.12522888 16.04605484 C-13.10819441 10.74421838 -12.9265876 6.73827051 -9.75968933 2.25168228 C-6.50330812 0.13292241 -3.83658582 0.00121766 0 0 Z " fill="#FEE079" transform="translate(92.75968933105469,449.74831771850586)"/>
<path d="M0 0 C3.54988519 2.66548473 6.20167062 5.34276962 8.875 8.875 C30.23861378 35.40266612 63.04414062 55.33176631 95.53393555 64.79833984 C100.38422645 66.33001066 103.43021454 68.64825956 106 73 C106.48382 75.74888367 106.68142139 77.85729577 106.62890625 80.58984375 C106.63510735 81.68252815 106.63510735 81.68252815 106.64143372 82.79728699 C106.64412269 85.17850789 106.60618264 87.55670708 106.5625 89.9375 C106.5544635 90.75756531 106.546427 91.57763062 106.53814697 92.42254639 C105.84902261 159.27409586 82.22420642 225.12650168 40 277 C39.58218262 277.51401367 39.16436523 278.02802734 38.73388672 278.55761719 C32.28020203 286.45326297 25.52569976 294.08857403 18.40234375 301.38671875 C16.23372019 303.61847719 14.34306238 305.84241609 12.56640625 308.39453125 C8.50880646 313.45192362 5.76554964 315.65495418 -0.64746094 316.45507812 C-10.08883182 317.0615975 -19.56994808 316.59922566 -29 316 C-26.61304428 312.97139947 -24.34697603 310.27228441 -21.375 307.8125 C-13.62333 301.17233575 -6.53460762 293.8339601 0 286 C0.67820801 285.19248291 0.67820801 285.19248291 1.37011719 284.36865234 C46.24839343 230.75846868 74.1937584 162.45117023 74.18530273 92.04931641 C74.18752778 89.97408633 74.20588595 87.89935817 74.22460938 85.82421875 C74.22753788 84.48698095 74.2295263 83.14974068 74.23046875 81.8125 C74.23457764 80.62269531 74.23868652 79.43289062 74.24291992 78.20703125 C73.99765422 74.96903104 73.58576705 72.82745553 72 70 C70.19642546 68.67423842 70.19642546 68.67423842 67.984375 67.91015625 C67.17677734 67.58805176 66.36917969 67.26594727 65.53710938 66.93408203 C64.69986328 66.62583496 63.86261719 66.31758789 63 66 C62.21947266 65.70851074 61.43894531 65.41702148 60.63476562 65.11669922 C59.02859051 64.52646628 57.42009727 63.94251063 55.80957031 63.36425781 C29.7764855 53.93831447 5.10053416 39.27394581 -14 19 C-11.10349478 14.5469616 -8.01187281 10.31612727 -4.75 6.125 C-4.29109375 5.53203125 -3.8321875 4.9390625 -3.359375 4.328125 C-2.24136829 2.884033 -1.12093832 1.4418176 0 0 Z " fill="#235170" transform="translate(384,134)"/>
<path d="M0 0 C3.72756636 0.20971789 4.95756599 0.9590441 7.69140625 3.59765625 C8.6623732 4.7409133 9.6185745 5.89681644 10.5625 7.0625 C11.07989746 7.68519775 11.59729492 8.30789551 12.13037109 8.94946289 C53.64967877 59.43387947 53.64967877 59.43387947 53.27734375 84.21484375 C51.83481627 98.70107041 45.64156616 111.09487441 35 121 C31.49791704 123.69309115 27.89109462 125.91394094 24 128 C23.21625 128.43570313 22.4325 128.87140625 21.625 129.3203125 C10.80749524 134.27833552 -4.93330417 133.93414011 -16.0625 130.125 C-29.14668704 124.06369026 -39.40723285 114.34807092 -45 101 C-45.30035156 100.29746094 -45.60070312 99.59492188 -45.91015625 98.87109375 C-49.99130527 87.65267947 -49.41326518 75.05007953 -44.6015625 64.23046875 C-44.07304687 63.16441406 -43.54453125 62.09835937 -43 61 C-42.43023437 59.82050781 -41.86046875 58.64101563 -41.2734375 57.42578125 C-30.76343626 36.38916217 -15.33998735 17.67633813 0 0 Z " fill="#F9D168" transform="translate(254,291)"/>
<path d="M0 0 C0.88171875 0.24363281 0.88171875 0.24363281 1.78125 0.4921875 C6.2810486 1.52207098 10.58923424 1.21876422 15 0 C14.9779248 1.17916992 14.95584961 2.35833984 14.93310547 3.57324219 C14.86370532 8.00196365 14.86134952 12.42874579 14.87792969 16.85791016 C14.87599822 18.7645881 14.85654456 20.6713402 14.81835938 22.57763672 C14.35743764 36.18825233 14.35743764 36.18825233 20.63671875 47.73828125 C22.40495563 49.51186879 24.19157749 51.26740586 26 53 C27.25776757 54.57142453 28.47914087 56.17306653 29.65234375 57.80859375 C30.19592529 58.56479004 30.73950684 59.32098633 31.29956055 60.10009766 C36.74763234 67.8747048 41.75243603 75.72421889 46.1875 84.125 C46.63279053 84.96474365 47.07808105 85.8044873 47.53686523 86.66967773 C53.47108656 98.30628784 55.96402211 108.76816178 52.375 121.5625 C47.87676189 134.83702085 40.30048177 144.43686656 27.69921875 150.74609375 C26.80847656 151.15988281 25.91773438 151.57367188 25 152 C24.30519531 152.34160156 23.61039063 152.68320312 22.89453125 153.03515625 C13.79780983 156.81812551 0.56692587 156.46398322 -8.671875 153.1015625 C-20.48139567 147.51383628 -29.38681444 139.84531554 -35 128 C-35.30808594 127.35675781 -35.61617188 126.71351563 -35.93359375 126.05078125 C-40.13098908 116.79241165 -40.75788713 105.96079671 -37.25927734 96.37280273 C-29.63567664 77.56873811 -16.83051697 56.80504793 -2.40112305 42.40429688 C-0.24060355 38.6968921 -0.51984486 35.07929788 -0.48828125 30.859375 C-0.47033005 29.97719299 -0.45237885 29.09501099 -0.43388367 28.18609619 C-0.37979029 25.37411245 -0.34588824 22.56229835 -0.3125 19.75 C-0.27932605 17.84112223 -0.24483632 15.93226685 -0.20898438 14.0234375 C-0.12406439 9.34908075 -0.05724859 4.67477424 0 0 Z " fill="#F9D168" transform="translate(156,178)"/>
<path d="M0 0 C0.66 0 1.32 0 2 0 C3.18579102 1.40185547 3.18579102 1.40185547 4.50390625 3.3671875 C5.23710083 4.44238647 5.23710083 4.44238647 5.98510742 5.53930664 C6.50564697 6.31008545 7.02618652 7.08086426 7.5625 7.875 C14.70781238 19.93286314 14.70781238 19.93286314 25.34375 27.4921875 C27.67665973 27.47317539 27.67665973 27.47317539 29.9375 27.1796875 C33.34895592 26.88247732 35.23647157 28.09623597 38 30 C41.82779139 33.46189956 43.98692827 36.34137933 44.9375 41.4375 C46.12207627 45.42444527 48.026303 47.04483421 51.59716797 49.12426758 C63.89493383 55.59187628 77.15479256 60.35578035 90.6875 63.4375 C91.40526611 63.6015332 92.12303223 63.76556641 92.86254883 63.93457031 C101.24031174 65.7797707 101.24031174 65.7797707 109.20703125 63.72265625 C109.73683594 63.17480469 110.26664062 62.62695312 110.8125 62.0625 C114.04529115 58.81435117 116.04903326 58.07924723 120.75 57.6875 C125.47826277 57.739746 128.13208447 59.34554817 132 62 C132.474375 62.5775 132.94875 63.155 133.4375 63.75 C136.28218109 66.02574487 139.57754633 65.36189087 143 65 C160.38912899 62.75482132 177.16134318 56.16861515 192.296875 47.46875 C195 46 195 46 197 46 C197.79275148 47.4160599 198.58415312 48.83287553 199.375 50.25 C199.81585938 51.03890625 200.25671875 51.8278125 200.7109375 52.640625 C201.85747823 54.73914197 202.94649552 56.8536077 204 59 C188.52646899 68.93946816 171.69845845 75.80611735 153.62890625 79.2734375 C152.54923584 79.48081543 151.46956543 79.68819336 150.35717773 79.90185547 C148.24521342 80.29269409 146.12871638 80.65997348 144.00805664 81.00048828 C137.66469305 82.08997118 137.66469305 82.08997118 132.9296875 86.15625 C132.29289063 87.0946875 131.65609375 88.033125 131 89 C130.34 89 129.68 89 129 89 C129 118.7 129 148.4 129 179 C127.35 177.35 125.7 175.7 124 174 C121.32209104 173.12761142 121.32209104 173.12761142 119 173 C118.195625 173.99 117.39125 174.98 116.5625 176 C115.716875 176.99 114.87125 177.98 114 179 C113.67 179 113.34 179 113 179 C113 149.3 113 119.6 113 89 C111.02 88.01 111.02 88.01 109 87 C108.54560547 86.32880127 108.09121094 85.65760254 107.62304688 84.96606445 C105.35679283 82.2208563 103.50295582 82.14138666 100.03125 81.54296875 C98.82968262 81.32157227 97.62811523 81.10017578 96.39013672 80.87207031 C95.1063916 80.64616211 93.82264648 80.42025391 92.5 80.1875 C77.51956744 77.34817099 63.96006847 73.4588006 50.63916016 65.89135742 C42.41645267 61.22483582 37.28583589 58.81820611 27.6875 60.52734375 C25 61 25 61 22 60 C21.67 72.87 21.34 85.74 21 99 C20.67 99 20.34 99 20 99 C19.99589111 97.78417236 19.99178223 96.56834473 19.98754883 95.31567383 C19.9657433 90.7958767 19.91143887 86.27694837 19.84741211 81.75756836 C19.82424449 79.80322611 19.80983929 77.84875923 19.80444336 75.89428711 C19.79514468 73.08107957 19.75413525 70.26982888 19.70703125 67.45703125 C19.7109639 66.58601273 19.71489655 65.7149942 19.71894836 64.81758118 C19.61323396 60.40199268 19.49646769 58.59587145 16.58081055 55.09643555 C15.72914307 54.40461182 14.87747559 53.71278809 14 53 C11.69947032 49.54920548 11.91549103 48.51417589 12 44.5 C11.53453217 37.57616599 8.58114505 34.62862957 3.79296875 29.875 C0.76061615 26.856426 -1.73289094 23.55903947 -4.1875 20.0625 C-4.94417969 19.00160156 -5.70085937 17.94070312 -6.48046875 16.84765625 C-8 14 -8 14 -7.953125 11.94921875 C-6.69433243 9.37488477 -5.21128238 7.09463025 -3.5625 4.75 C-2.94503906 3.85796875 -2.32757813 2.9659375 -1.69140625 2.046875 C-0.85416016 1.03367187 -0.85416016 1.03367187 0 0 Z " fill="#F7F2BC" transform="translate(135,119)"/>
<path d="M0 0 C4.60805521 -0.12394421 9.21513281 -0.21449675 13.82446289 -0.2746582 C15.39104114 -0.29974547 16.95750299 -0.33382415 18.52368164 -0.37719727 C20.78040309 -0.43811226 23.03557294 -0.46626499 25.29296875 -0.48828125 C25.98899704 -0.51408768 26.68502533 -0.5398941 27.40214539 -0.56648254 C31.31658213 -0.56872136 32.85644514 -0.11829439 35.91918945 2.40551758 C38.76816377 5.95779377 39.12726272 7.63699628 39.2109375 12.109375 C39.23704102 13.16302246 39.26314453 14.21666992 39.29003906 15.30224609 C39.33209473 17.00888428 39.33209473 17.00888428 39.375 18.75 C40.43870867 51.20205325 47.6342185 81.32348282 63 110 C63.60714844 111.134375 64.21429688 112.26875 64.83984375 113.4375 C66.21123862 115.96732019 67.59529923 118.48856528 69 121 C68.26910156 121.69738281 67.53820312 122.39476563 66.78515625 123.11328125 C63.08215761 126.81367123 60.21118009 131.10005711 57.18359375 135.35546875 C55.15576868 137.81134992 53.93631778 138.91469433 51 140 C21.08852481 109.88435092 7.73565355 62.12524939 7.61914062 20.92822266 C7.60959749 18.91032779 7.5746324 16.89260392 7.5390625 14.875 C7.53084473 13.69679688 7.52262695 12.51859375 7.51416016 11.3046875 C6.89152837 7.30281485 5.51231167 5.14394932 3 2 C2.01 1.34 1.02 0.68 0 0 Z " fill="#235170" transform="translate(307,0)"/>
<path d="M0 0 C4.3250735 4.06076345 7.78855578 8.50328229 11.25 13.3125 C11.81702637 14.09850586 12.38405273 14.88451172 12.96826172 15.69433594 C18.25445493 23.14611976 22.77180481 30.90968713 27 39 C27.59554687 40.09828125 28.19109375 41.1965625 28.8046875 42.328125 C29.39636719 43.65070313 29.39636719 43.65070313 30 45 C29.505 45.99 29.505 45.99 29 47 C27.9275 46.34 26.855 45.68 25.75 45 C20.28979447 42.26989724 14.97960393 42.3084238 9 43 C2.89757912 45.10810903 -1.12586865 49.14164333 -4.3125 54.6875 C-6.80655057 60.09297286 -7.0473381 65.5047415 -5.33984375 71.203125 C-2.6746442 77.24885905 1.73207745 81.10804484 7.375 84.375 C15.81530147 86.38459559 22.60224469 84.47373736 30 80.3125 C30.66 79.879375 31.32 79.44625 32 79 C28.56634633 92.09080463 19.92739733 102.06353625 8.375 108.875 C1.94532726 112.16103377 1.94532726 112.16103377 -2 112 C-13.71018729 108.01355326 -24.24210345 98.87270336 -30 88 C-35.62214984 75.6541595 -37.68832945 62.38750624 -33 49.375 C-32.04567423 47.22909988 -31.04316747 45.10414511 -30 43 C-29.43023437 41.82050781 -28.86046875 40.64101563 -28.2734375 39.42578125 C-21.64513248 26.16568354 -12.2759773 8.6170467 0 0 Z " fill="#FEE079" transform="translate(241,309)"/>
<path d="M0 0 C4.05233252 3.80408152 7.20113503 7.84154407 10.3125 12.4375 C10.78961426 13.13834717 11.26672852 13.83919434 11.75830078 14.5612793 C18.28644728 24.26596105 25.38212114 34.83004614 29 46 C28.67 46.99 28.34 47.98 28 49 C26.53515625 47.73046875 25.0703125 46.4609375 23.60546875 45.19140625 C19.88361134 42.42944394 15.43915259 42.4019358 11 43 C6.20123921 45.3993804 3.3295603 48.16168244 1 53 C0.37869856 57.41193835 -0.10645808 61.42096264 2.52734375 65.1796875 C3.01332031 65.78039062 3.49929687 66.38109375 4 67 C4 67.66 4 68.32 4 69 C4.928125 69.4640625 4.928125 69.4640625 5.875 69.9375 C7.25 70.625 8.625 71.3125 10 72 C14.98513953 72.54693078 18.87327341 72.5842286 23.375 70.25 C25.70381391 68.25387379 27.91309554 66.24743557 30 64 C29.57768024 74.98031386 23.8853522 84.0062227 16.4296875 91.80078125 C11.62572677 96.14906082 6.59194355 99.01034882 0.5625 101.3125 C-7.69991941 100.58772637 -14.76405691 93.94270466 -20.28515625 88.10546875 C-23.08324963 84.66999646 -25.10798358 80.99265823 -27 77 C-27.30808594 76.35675781 -27.61617188 75.71351563 -27.93359375 75.05078125 C-32.13098908 65.79241165 -32.75788713 54.96079671 -29.25927734 45.37280273 C-24.2024908 32.89993793 -12.75378425 6.37689213 0 0 Z " fill="#FDE079" transform="translate(148,229)"/>
<path d="M0 0 C3.09072695 1.33419196 4.75925016 2.61005442 6.69921875 5.3515625 C7.42322876 6.36923706 7.42322876 6.36923706 8.16186523 7.4074707 C8.66532471 8.13925537 9.16878418 8.87104004 9.6875 9.625 C10.21351807 10.38192139 10.73953613 11.13884277 11.28149414 11.91870117 C18.61772092 22.6364265 26.22939189 34.47464662 30 47 C29.505 47.99 29.505 47.99 29 49 C28.2575 48.21625 27.515 47.4325 26.75 46.625 C23.22279553 43.25812301 20.58372834 41.71034348 15.6875 41.5625 C10.62668741 41.68756127 7.49706581 43.39868561 4 47 C1.05571138 51.3689444 0.35850009 54.77635788 1 60 C2.95059476 65.24566727 5.877884 68.58390755 11 71 C15.64391817 71.82200741 19.61296772 71.5204086 23.8125 69.3125 C26.85095944 67.10812746 28.86892892 65.06874236 31 62 C29.14423376 76.46217826 22.22754836 86.81013288 10.82421875 95.6953125 C6.68318665 98.50960616 3.10634533 100.34042302 -2 100 C-13.59712755 95.17598476 -21.75137671 86.69239958 -27.02734375 75.421875 C-27.34832031 74.62265625 -27.66929687 73.8234375 -28 73 C-28.36351562 72.10023438 -28.72703125 71.20046875 -29.1015625 70.2734375 C-32.27448642 58.71295817 -30.75429827 46.37394618 -25 36 C-24.36080137 34.77144541 -23.72285618 33.54223813 -23.0859375 32.3125 C-19.09284466 24.78197698 -14.56993128 17.67126868 -9.6875 10.6875 C-9.18404053 9.96409424 -8.68058105 9.24068848 -8.16186523 8.49536133 C-5.74026586 5.10770912 -3.5996418 2.23160691 0 0 Z " fill="#FDE079" transform="translate(333,230)"/>
<path d="M0 0 C4.34161825 -0.04952706 8.68308575 -0.08577954 13.02490234 -0.10986328 C14.50116847 -0.11990591 15.97741479 -0.13354265 17.45361328 -0.15087891 C19.57850034 -0.17520421 21.70312385 -0.1865004 23.828125 -0.1953125 C25.1059082 -0.20578613 26.38369141 -0.21625977 27.70019531 -0.22705078 C32.58686001 0.10918762 32.58686001 0.10918762 35 2 C38.68575163 7.26043509 38.45212901 12.47952502 38.43359375 18.65625 C38.4388356 19.67674438 38.44407745 20.69723877 38.44947815 21.74865723 C38.45588454 23.90030001 38.45457932 26.05197788 38.44604492 28.20361328 C38.43752789 31.48924228 38.46632827 34.77313597 38.49804688 38.05859375 C38.49965892 40.15364531 38.4990813 42.24869995 38.49609375 44.34375 C38.51294472 45.81116638 38.51294472 45.81116638 38.53013611 47.30822754 C38.47045413 53.16865808 37.9021853 56.53412021 34 61 C30.98786971 62.50606515 27.88717378 62.12160331 24.5859375 62.09765625 C23.85629791 62.0962413 23.12665833 62.09482635 22.37490845 62.09336853 C20.04156415 62.08776531 17.70831536 62.07521235 15.375 62.0625 C13.79427222 62.05748541 12.21354293 62.05292243 10.6328125 62.04882812 C6.75517146 62.03779484 2.87760193 62.02052811 -1 62 C0.2065625 61.071875 0.2065625 61.071875 1.4375 60.125 C4.03874519 58.25835959 4.03874519 58.25835959 5 56 C5.1152227 54.42901404 5.16947336 52.85335228 5.19287109 51.27832031 C5.20893402 50.29679993 5.22499695 49.31527954 5.24154663 48.30401611 C5.28599233 43.80815287 5.32706981 39.31243787 5.35009766 34.81640625 C5.36664991 32.44586362 5.39392998 30.07537076 5.43212891 27.70507812 C5.48692838 24.28749695 5.50877824 20.87108653 5.5234375 17.453125 C5.54610687 16.39667786 5.56877625 15.34023071 5.59213257 14.25177002 C5.58962322 7.77013947 5.58962322 7.77013947 2.46728516 2.28417969 C1.65308105 1.53040039 0.83887695 0.77662109 0 0 Z " fill="#FBD268" transform="translate(394,450)"/>
<path d="M0 0 C0.89002716 -0.00700928 1.78005432 -0.01401855 2.697052 -0.02124023 C5.6329894 -0.03881559 8.5679594 -0.02719906 11.50390625 -0.01367188 C13.54744654 -0.01636692 15.59098558 -0.02024944 17.63452148 -0.02526855 C21.91500064 -0.03116298 26.19514565 -0.02260227 30.47558594 -0.00390625 C35.96028744 0.01888309 41.444206 0.00575974 46.92887878 -0.01819611 C51.14796846 -0.03265546 55.36687274 -0.02804742 59.58596802 -0.01768494 C61.60816541 -0.01501804 63.63037968 -0.0182861 65.65255737 -0.02760315 C68.47976213 -0.03777085 71.30570188 -0.02226449 74.1328125 0 C74.96724884 -0.00809692 75.80168518 -0.01619385 76.66140747 -0.02453613 C80.59382661 0.03278851 82.61838823 0.24470975 86.05053711 2.33508301 C88.06640625 4.51757812 88.06640625 4.51757812 89.25390625 7.95507812 C89.06640625 11.51757812 89.06640625 11.51757812 86.62586975 14.19979858 C82.61000604 17.29687093 78.84606117 17.22380108 73.92749023 17.16455078 C73.02756348 17.17331238 72.12763672 17.18207397 71.20043945 17.19110107 C68.23729692 17.21303824 65.27565666 17.1985637 62.3125 17.18164062 C60.24796768 17.18501009 58.18343729 17.1898638 56.11891174 17.19613647 C51.79726225 17.20349986 47.47613026 17.19281812 43.15454102 17.16943359 C37.61703333 17.14092857 32.08073638 17.15736457 26.54327297 17.18729591 C22.28211857 17.20536787 18.02125103 17.19961156 13.76008797 17.18665695 C11.71835245 17.1833236 9.67659081 17.18740751 7.63488579 17.19905472 C4.78119826 17.21176351 1.92946944 17.19238678 -0.92407227 17.16455078 C-1.7662883 17.17467194 -2.60850433 17.18479309 -3.47624207 17.19522095 C-7.76040823 17.11785252 -9.46464249 16.87333102 -12.98887634 14.19979858 C-14.93359375 11.51757812 -14.93359375 11.51757812 -15.05859375 7.95507812 C-12.529866 0.22841001 -7.14011715 -0.06928388 0 0 Z " fill="#FFF7BC" transform="translate(218.93359375,472.482421875)"/>
<path d="M0 0 C5.55611067 3.27372496 9.39284704 8.32281016 11.5625 14.375 C12.46950888 21.57576563 11.76811015 27.38064008 7.5625 33.375 C3.02751801 38.60767152 -1.60527559 41.82092916 -8.515625 42.61328125 C-14.37147939 42.81339138 -18.66247111 41.85921824 -23.4375 38.375 C-29.03776719 33.0944331 -32.39121593 28.46432889 -32.875 20.6875 C-32.72908015 14.16974682 -30.29316634 8.56706683 -25.9453125 3.70703125 C-18.86964312 -2.54375439 -8.62032639 -3.93322877 0 0 Z " fill="#F07381" transform="translate(266.4375,352.625)"/>
<path d="M0 0 C0.66 0 1.32 0 2 0 C3.18579102 1.40185547 3.18579102 1.40185547 4.50390625 3.3671875 C5.23710083 4.44238647 5.23710083 4.44238647 5.98510742 5.53930664 C6.50564697 6.31008545 7.02618652 7.08086426 7.5625 7.875 C14.70781238 19.93286314 14.70781238 19.93286314 25.34375 27.4921875 C27.67665973 27.47317539 27.67665973 27.47317539 29.9375 27.1796875 C33.34895592 26.88247732 35.23647157 28.09623597 38 30 C42.03762488 34.09449283 45.12942828 37.34198572 45.25 43.25 C45.16755563 49.68066104 42.45124827 54.42157321 38 59 C32.74373523 61.45292356 27.51465082 61.83821694 22 60 C21.67 72.87 21.34 85.74 21 99 C20.67 99 20.34 99 20 99 C19.99589111 97.78417236 19.99178223 96.56834473 19.98754883 95.31567383 C19.9657433 90.7958767 19.91143887 86.27694837 19.84741211 81.75756836 C19.82424449 79.80322611 19.80983929 77.84875923 19.80444336 75.89428711 C19.79514468 73.08107957 19.75413525 70.26982888 19.70703125 67.45703125 C19.7109639 66.58601273 19.71489655 65.7149942 19.71894836 64.81758118 C19.61323396 60.40199268 19.49646769 58.59587145 16.58081055 55.09643555 C15.72914307 54.40461182 14.87747559 53.71278809 14 53 C11.69947032 49.54920548 11.91549103 48.51417589 12 44.5 C11.53453217 37.57616599 8.58114505 34.62862957 3.79296875 29.875 C0.76061615 26.856426 -1.73289094 23.55903947 -4.1875 20.0625 C-4.94417969 19.00160156 -5.70085937 17.94070312 -6.48046875 16.84765625 C-8 14 -8 14 -7.953125 11.94921875 C-6.69433243 9.37488477 -5.21128238 7.09463025 -3.5625 4.75 C-2.94503906 3.85796875 -2.32757813 2.9659375 -1.69140625 2.046875 C-0.85416016 1.03367187 -0.85416016 1.03367187 0 0 Z " fill="#ED7382" transform="translate(135,119)"/>
<path d="M0 0 C4.10088936 1.50607883 5.53509554 3.96188878 7.75 7.625 C8.36359375 8.62789062 8.9771875 9.63078125 9.609375 10.6640625 C10.06828125 11.43492187 10.5271875 12.20578125 11 13 C9.5264063 14.96274066 8.04681575 16.92038453 6.5625 18.875 C6.11527588 19.46853271 5.66805176 20.06206543 5.20727539 20.67358398 C2.34184639 24.422701 -0.69548573 27.74420459 -4.0625 31.0625 C-8.35526875 35.66296721 -8.78043285 39.13146999 -8.84375 45.2890625 C-9.07733069 49.3416875 -10.2781238 51.04482013 -13 54 C-14.32 54.66 -15.64 55.32 -17 56 C-17 69.53 -17 83.06 -17 97 C-17.33 97 -17.66 97 -18 97 C-18.495 77.695 -18.495 77.695 -19 58 C-20.485 58.495 -20.485 58.495 -22 59 C-26.79629374 59.27148832 -30.72082329 59.27615782 -35 57 C-38.72627233 52.5355878 -43.26777452 46.62077717 -42.8203125 40.5703125 C-40.89470862 33.79824492 -37.89624934 29.88724503 -32 26 C-28.9137962 24.9712654 -27.95247362 25.12680033 -24.875 25.5625 C-21.68581974 25.57278768 -20.35052309 25.26972876 -17.796875 23.3046875 C-15.3616942 20.65051562 -13.14814605 17.88612876 -11 15 C-10.51611816 14.35788574 -10.03223633 13.71577148 -9.53369141 13.05419922 C-6.2971138 8.74387549 -3.13017168 4.38809114 0 0 Z " fill="#E67683" transform="translate(374,121)"/>
<path d="M0 0 C0.90878906 0.50789062 1.81757813 1.01578125 2.75390625 1.5390625 C19.56083069 10.79845382 36.80702366 17.13458384 55.76171875 20.38671875 C59 21 59 21 61 22 C61 26.95 61 31.9 61 37 C36.71426829 35.91257918 14.94816346 26.5654179 -6 15 C-6 10.18203529 -4.92344964 9.61132014 -2 6 C-1.28938855 4.01518872 -0.61647405 2.01603675 0 0 Z " fill="#FBF5BD" transform="translate(180,164)"/>
<path d="M0 0 C0.79275148 1.4160599 1.58415312 2.83287553 2.375 4.25 C2.81585938 5.03890625 3.25671875 5.8278125 3.7109375 6.640625 C4.85747823 8.73914197 5.94649552 10.8536077 7 13 C-11.54484088 24.91233308 -38.40822154 37.17009211 -61 36 C-60.835 35.484375 -60.67 34.96875 -60.5 34.4375 C-59.55523195 29.83175578 -59.75473696 25.50666623 -61 21 C-60.18917969 20.81824219 -59.37835938 20.63648438 -58.54296875 20.44921875 C-51.30821635 18.806871 -44.11663255 17.09983417 -37 15 C-35.85917969 14.66355469 -34.71835937 14.32710937 -33.54296875 13.98046875 C-22.96969219 10.67009211 -13.43761042 5.94928392 -3.66796875 0.76171875 C-2 0 -2 0 0 0 Z " fill="#FCF5BE" transform="translate(332,165)"/>
<path d="M0 0 C3.07318585 1.70950041 5.66802866 3.6156909 8.02734375 6.2109375 C9.51234375 7.2009375 9.51234375 7.2009375 11.02734375 8.2109375 C10.36734375 8.2109375 9.70734375 8.2109375 9.02734375 8.2109375 C9.52234375 8.984375 9.52234375 8.984375 10.02734375 9.7734375 C11.64788428 13.72350503 11.70861086 17.24078666 10.3046875 21.30078125 C7.83851189 26.66246669 4.88863674 29.54184992 -0.22265625 32.5234375 C-5.69961874 33.89267812 -10.41447287 33.04773969 -15.34765625 30.3984375 C-18.76558439 27.55016405 -20.56651385 25.42936471 -21.97265625 21.2109375 C-22.06623317 19.35866498 -22.10259534 17.5030657 -22.09765625 15.6484375 C-22.10023438 14.67777344 -22.1028125 13.70710937 -22.10546875 12.70703125 C-21.97265625 10.2109375 -21.97265625 10.2109375 -20.97265625 8.2109375 C-21.63265625 7.8809375 -22.29265625 7.5509375 -22.97265625 7.2109375 C-21.88984375 6.5921875 -21.88984375 6.5921875 -20.78515625 5.9609375 C-17.92383839 4.26093379 -17.92383839 4.26093379 -15.34765625 2.0859375 C-10.9326854 -1.39956581 -5.22892588 -2.09157035 0 0 Z " fill="#EE7482" transform="translate(261.97265625,177.7890625)"/>
<path d="M0 0 C4.00704087 1.70734785 7.02484349 3.96389621 10 7.125 C12.03330707 12.97075782 11.99796217 18.80448322 9.4375 24.4375 C5.21446274 28.87710327 1.53418071 31.19208683 -4.5625 31.5 C-9.00418952 31.28093708 -11.59372257 29.93098291 -15 27 C-18.33997264 23.29894924 -19.83029663 20.76491504 -20.3125 15.75 C-19.87653497 10.51841965 -18.07222342 7.13127642 -14.4921875 3.44921875 C-9.99479819 -0.26374219 -5.70857568 -1.22396563 0 0 Z " fill="#F07481" transform="translate(353,271)"/>
<path d="M0 0 C5.26594344 1.85856827 7.79395768 4.60314196 11 9 C12.55417619 13.66252858 12.54448802 17.48753327 10.875 22.125 C8.30678923 26.06292318 5.25774835 28.87112583 1 31 C-3.9252115 31.54035594 -7.86941718 31.54435469 -12.375 29.375 C-15.95907713 26.13226355 -18.59535241 23.53524104 -19.3828125 18.6015625 C-19.63977086 12.89708694 -18.8849647 9.40995993 -15 5 C-10.0208594 0.61361423 -6.65759141 -0.67198119 0 0 Z " fill="#F07481" transform="translate(167,271)"/>
<path d="M0 0 C4.48804102 1.50980182 6.85324892 5.10511197 9.54296875 8.85546875 C12.36747539 14.7500913 12.41256109 20.85594383 10.35546875 26.98046875 C8.73240009 30.92889538 6.42893101 33.73550955 3.54296875 36.85546875 C-2.10026661 35.48741169 -5.10250446 31.2907065 -8.45703125 26.85546875 C-11.21189325 22.30395762 -11.20265202 17.02262066 -10.45703125 11.85546875 C-6.02936638 -0.35466861 -6.02936638 -0.35466861 0 0 Z " fill="#F58A96" transform="translate(244.45703125,356.14453125)"/>
<path d="M0 0 C0.66 0 1.32 0 2 0 C3.18579102 1.40185547 3.18579102 1.40185547 4.50390625 3.3671875 C5.23818848 4.44238647 5.23818848 4.44238647 5.98730469 5.53930664 C6.50711914 6.31008545 7.02693359 7.08086426 7.5625 7.875 C12.28439457 14.7409325 17.17897646 21.01728136 23 27 C20.9702949 29.03395135 18.93696492 31.06118111 16.875 33.0625 C14.83136814 35.05792953 14.83136814 35.05792953 13 38 C8.79481745 36.43046004 6.39398906 33.30414353 3.625 29.9375 C3.14256836 29.35621338 2.66013672 28.77492676 2.16308594 28.17602539 C-8.12354048 15.63941562 -8.12354048 15.63941562 -7.85546875 12.08203125 C-6.74054328 9.36853684 -5.24938405 7.14881224 -3.5625 4.75 C-2.94503906 3.85796875 -2.32757813 2.9659375 -1.69140625 2.046875 C-0.85416016 1.03367187 -0.85416016 1.03367187 0 0 Z " fill="#F9F3BD" transform="translate(135,119)"/>
<path d="M0 0 C1.32 0.33 2.64 0.66 4 1 C8.01230534 1.14329662 11.08332099 0.97916975 15 0 C15 12.87 15 25.74 15 39 C13.68 38.01 12.36 37.02 11 36 C11 35.34 11 34.68 11 34 C8.71305777 33.49620971 8.71305777 33.49620971 6 34 C4.05662103 35.84109586 2.61585748 37.84552335 1 40 C0.67 40 0.34 40 0 40 C0 26.8 0 13.6 0 0 Z " fill="#FEF7BE" transform="translate(341,178)"/>
<path d="M0 0 C1.32 0.33 2.64 0.66 4 1 C8.01230534 1.14329662 11.08332099 0.97916975 15 0 C15 13.2 15 26.4 15 40 C13.35 38.35 11.7 36.7 10 35 C8.13740463 33.67948503 8.13740463 33.67948503 6 34 C3.03 36.475 3.03 36.475 0 39 C0 26.13 0 13.26 0 0 Z " fill="#FEF7BE" transform="translate(156,178)"/>
<path d="M0 0 C4.10088936 1.50607883 5.53509554 3.96188878 7.75 7.625 C8.36359375 8.62789062 8.9771875 9.63078125 9.609375 10.6640625 C10.06828125 11.43492187 10.5271875 12.20578125 11 13 C-1.88417725 30.16097095 -1.88417725 30.16097095 -8 36 C-8.66 36 -9.32 36 -10 36 C-10.5775 35.0925 -11.155 34.185 -11.75 33.25 C-14.2758091 29.60160908 -16.24557868 28.21852169 -20 26 C-16.61245017 21.36370632 -13.09446175 16.86499216 -9.4375 12.4375 C-6.10668119 8.39775691 -2.96961806 4.31073589 0 0 Z " fill="#F6E69C" transform="translate(374,121)"/>
<path d="M0 0 C4.72606558 2.73061567 7.25479088 4.76437265 9 10 C9.91803654 16.85693956 9.07585268 21.41025919 5 27 C4.01 27.66 3.02 28.32 2 29 C1.5267707 30.84725228 1.5267707 30.84725228 1.56762695 32.99072266 C1.54783279 33.81142242 1.52803864 34.63212219 1.50764465 35.47769165 C1.49805977 36.80744522 1.49805977 36.80744522 1.48828125 38.1640625 C1.47033005 39.07127045 1.45237885 39.97847839 1.43388367 40.91317749 C1.37960573 43.81707072 1.34582927 46.720798 1.3125 49.625 C1.27934233 51.59116902 1.24485413 53.55731609 1.20898438 55.5234375 C1.12386935 60.34883888 1.05714194 65.17418955 1 70 C0.67 70 0.34 70 0 70 C-0.00410889 68.78417236 -0.00821777 67.56834473 -0.01245117 66.31567383 C-0.0342567 61.7958767 -0.08856113 57.27694837 -0.15258789 52.75756836 C-0.17575551 50.80322611 -0.19016071 48.84875923 -0.19555664 46.89428711 C-0.20485532 44.08107957 -0.24586475 41.26982888 -0.29296875 38.45703125 C-0.2890361 37.58601273 -0.28510345 36.7149942 -0.28105164 35.81758118 C-0.38676604 31.40199268 -0.50353231 29.59587145 -3.41918945 26.09643555 C-4.27085693 25.40461182 -5.12252441 24.71278809 -6 24 C-9.1226283 19.31605756 -8.70800274 14.47994121 -8 9 C-6.19588151 4.96155016 -3.69030749 2.46020499 0 0 Z " fill="#E98C97" transform="translate(155,148)"/>
<path d="M0 0 C3.18328782 1.46920976 4.48923316 3.23619055 6.4375 6.125 C6.85 6.723125 7.2625 7.32125 7.6875 7.9375 C9.2974052 12.63305682 8.94098942 16.7735284 7.25 21.3125 C5.26126028 24.39847543 3.23515076 26.74699685 0.4375 29.125 C-0.5525 29.125 -1.5425 29.125 -2.5625 29.125 C-4.09765625 27.33203125 -4.09765625 27.33203125 -5.625 24.9375 C-6.13160156 24.16019531 -6.63820313 23.38289063 -7.16015625 22.58203125 C-10.70469902 16.37167636 -10.70469902 16.37167636 -10.27734375 12.625 C-6.44958304 0.31461381 -6.44958304 0.31461381 0 0 Z " fill="#F28996" transform="translate(341.5625,148.875)"/>
<path d="M0 0 C4.038216 1.4252527 5.23098079 3.06361261 7.26953125 6.73828125 C8.87398802 10.90986886 8.98041993 14.74925666 8.1875 19.125 C5.96383776 23.57232447 3.19478765 26.23084781 -0.8125 29.125 C-4.91823451 26.00107157 -7.26934093 24.19010584 -8.8125 19.125 C-9.04296875 16.30078125 -9.04296875 16.30078125 -9 13.4375 C-8.99355469 12.48488281 -8.98710937 11.53226563 -8.98046875 10.55078125 C-8.8125 8.125 -8.8125 8.125 -7.8125 6.125 C-8.4725 5.795 -9.1325 5.465 -9.8125 5.125 C-9.02875 4.67125 -8.245 4.2175 -7.4375 3.75 C-1.48653315 0.06606814 -1.48653315 0.06606814 0 0 Z " fill="#F28996" transform="translate(248.8125,179.875)"/>
<path d="M0 0 C4.22464389 1.76845558 5.90418873 5.01531148 7.6875 9.125 C8.412166 14.37882849 7.47301805 17.64827456 4.6875 22.125 C2.5 24.5 2.5 24.5 0.6875 26.125 C-3.11739745 24.63021886 -4.97440835 22.43057786 -7.3125 19.125 C-8.67411941 15.04014177 -9.21994411 11.26243943 -7.48828125 7.18359375 C-3.56220541 0.19255164 -3.56220541 0.19255164 0 0 Z " fill="#F58B95" transform="translate(341.3125,273.875)"/>
<path d="M0 0 C4.27683498 1.52744106 6.00037651 4.00075302 8 8 C8.82432789 13.00367028 8.6346752 17.46722451 6.25 22 C4.20547667 24.72603111 3.18633383 25.97582127 0 27 C-7.28717991 19.90458798 -7.28717991 19.90458798 -7.375 14.1875 C-7.26519134 8.39298133 -5.15317331 5.3069714 -1.25 1.125 C-0.8375 0.75375 -0.425 0.3825 0 0 Z " fill="#F58A96" transform="translate(155,273)"/>
<path d="M0 0 C3.10442031 1.3904499 5.3656443 3.01571598 7.8125 5.375 C8.43769531 5.96023437 9.06289063 6.54546875 9.70703125 7.1484375 C11 9 11 9 10.828125 11.1484375 C9.73076921 13.60195941 8.44992516 14.05164187 6 15 C5.46375 14.0925 4.9275 13.185 4.375 12.25 C2.09936542 8.79561944 -0.46395159 7.08948315 -4 5 C-2.68 3.35 -1.36 1.7 0 0 Z " fill="#FBF3BC" transform="translate(358,142)"/>
</svg>
