<?xml version="1.0" encoding="UTF-8"?>
<svg version="1.1" xmlns="http://www.w3.org/2000/svg" width="512" height="512">
<path d="M0 0 C0.49628906 1.01578125 0.99257812 2.0315625 1.50390625 3.078125 C8.70107814 17.7116605 16.02117642 31.63547506 28 43 C28.46277344 43.51820312 28.92554688 44.03640625 29.40234375 44.5703125 C41.72512413 58.00786764 61.52664784 66.02097617 79.53125 67.16015625 C102.01309267 67.85515945 121.01043254 59.09639238 137.7421875 44.62890625 C150.93936801 32.11008549 159.01278189 16.55992061 166 0 C187.35065432 0.09046887 206.7638057 13.19088726 222 27 C223.45661256 28.25200478 224.91469377 29.5023054 226.375 30.75 C227.58738564 31.82879637 228.79601575 32.91183527 230 34 C230.81791016 34.71929687 230.81791016 34.71929687 231.65234375 35.453125 C257.70875079 59.73156544 271.57612701 99.35775764 286 131 C286.3533844 131.774646 286.7067688 132.54929199 287.07086182 133.34741211 C296.89103583 154.88020336 306.59085099 176.46076993 316.01953125 198.16796875 C317.86437177 202.41268776 319.73034457 206.64584002 321.63671875 210.86328125 C322.21450073 212.14332031 322.21450073 212.14332031 322.80395508 213.44921875 C323.4877157 214.95794973 324.17591137 216.46468386 324.86987305 217.96875 C326.17122204 220.84169734 327 222.80446784 327 226 C301.04081137 237.42834774 275.05336146 248.78782038 249 260 C248.37136047 260.28465118 247.74272095 260.56930237 247.09503174 260.86257935 C244.21034034 262.15329782 242.19936667 263 239 263 C238.75991211 262.50935059 238.51982422 262.01870117 238.27246094 261.51318359 C232.9400205 250.65015465 227.39779376 239.93537092 221.56054688 229.33496094 C216.22526296 219.634131 211.09997306 209.82611019 206 200 C206.24784902 205.23073006 206.49609801 210.46144097 206.74462891 215.69213867 C206.82805692 217.44897012 206.91139851 219.20580567 206.99462891 220.96264648 C207.0731033 222.61884372 207.15185447 224.27502786 207.230896 225.93119812 C207.32016007 227.81574742 207.40801257 229.70036424 207.49429321 231.58505249 C207.75129888 237.11248257 208.03248625 242.63726154 208.36218536 248.16078037 C210.04915936 276.58204821 210.27034322 304.93394366 210.20278788 333.39891362 C210.19003793 339.70746093 210.18909138 346.0160115 210.18673706 352.3245697 C210.18128423 362.86051832 210.16890762 373.3964388 210.15087891 383.93237305 C210.13237231 394.75919449 210.11828935 405.58600762 210.10986328 416.4128418 C210.10933783 417.08609212 210.10881239 417.75934245 210.10827102 418.45299429 C210.10565996 421.83225055 210.10313278 425.21150686 210.10064721 428.59076321 C210.08008953 456.39386782 210.04331788 484.19692102 210 512 C183.6 512 157.2 512 130 512 C124.39 501.44 118.78 490.88 113 480 C108.51932744 471.76928129 108.51932744 471.76928129 104.0234375 463.546875 C100.4734102 457.05390589 96.98787497 450.52647629 93.5 444 C87.0668085 431.96321483 80.56072534 419.96771271 74 408 C72.25623814 411.23690356 71.1145907 414.50315991 70.00390625 418.00488281 C69.42189453 419.83155487 69.42189453 419.83155487 68.828125 421.69512939 C68.40616472 423.031101 67.98429234 424.36710037 67.5625 425.703125 C67.11875696 427.10056914 66.67474103 428.49792666 66.23046875 429.89520264 C65.05425458 433.59736852 63.88213631 437.30081943 62.71075439 441.0045166 C61.7860928 443.92579612 60.85854419 446.84615442 59.93080139 449.7664566 C55.96545714 462.24912136 52.01188918 474.73532336 48.1171875 487.24023438 C47.88481384 487.9859457 47.65244019 488.73165703 47.4130249 489.49996567 C46.30075398 493.07040754 45.19059911 496.64148507 44.08398438 500.21368408 C43.69275391 501.47186951 43.30152344 502.73005493 42.8984375 504.02636719 C42.55474121 505.13534363 42.21104492 506.24432007 41.85693359 507.38690186 C41 510 41 510 40 512 C13.93 512 -12.14 512 -39 512 C-39.1340993 483.96774457 -39.24414847 455.93575343 -39.30639198 427.90325258 C-39.31388977 424.53901679 -39.32165633 421.17478167 -39.32958984 417.81054688 C-39.33116371 417.14122432 -39.33273757 416.47190176 -39.33435912 415.7822967 C-39.35838862 405.81472871 -39.40043035 395.84734915 -39.45263672 385.87988281 C-39.77400701 323.31277197 -39.0987849 261.30741654 -33 199 C-33.50927032 199.9934845 -34.01854065 200.98696899 -34.54324341 202.01055908 C-36.46508248 205.75880504 -38.38868534 209.5061436 -40.31277466 213.25323486 C-41.13929265 214.86342757 -41.96535613 216.47385367 -42.79092407 218.08453369 C-50.55341202 233.22777686 -58.51784761 248.24500003 -67 263 C-74.65606462 261.03150277 -82.07888578 258.66798779 -89.5078125 255.97265625 C-90.58076569 255.58726181 -91.65371887 255.20186737 -92.75918579 254.80479431 C-96.21607951 253.56181317 -99.67068515 252.31262843 -103.125 251.0625 C-105.50416628 250.20359462 -107.88339842 249.34487162 -110.26269531 248.48632812 C-113.82294461 247.20133084 -117.38297626 245.91574977 -120.94226074 244.62808228 C-127.05426988 242.41791407 -133.17102454 240.22298394 -139.30038452 238.06138611 C-142.41486245 236.96286515 -145.52645618 235.8563313 -148.63763428 234.74850464 C-150.03942829 234.251787 -151.44262503 233.75900939 -152.847229 233.27029419 C-154.75079739 232.60735463 -156.6490358 231.92916701 -158.546875 231.25 C-160.10680176 230.70085937 -160.10680176 230.70085937 -161.69824219 230.140625 C-162.8376123 229.57601562 -162.8376123 229.57601562 -164 229 C-165.26669029 225.19992914 -164.54295086 224.37464477 -162.88671875 220.8046875 C-162.39018799 219.71816895 -161.89365723 218.63165039 -161.38208008 217.51220703 C-161.10780182 216.92360901 -160.83352356 216.33501099 -160.55093384 215.72857666 C-159.03243213 212.468733 -157.54639485 209.19404284 -156.0546875 205.921875 C-155.73049332 205.21318268 -155.40629913 204.50449036 -155.07228088 203.77432251 C-151.43133417 195.79718125 -147.94245769 187.75461595 -144.44168091 179.715271 C-131.43620017 149.88150449 -117.83335108 120.3212444 -103.51367188 91.09472656 C-102.08791135 88.17973617 -100.6756829 85.25854649 -99.265625 82.3359375 C-91.55062641 66.46121239 -82.99443594 52.01777921 -71 39 C-70.13761719 38.05511719 -69.27523437 37.11023437 -68.38671875 36.13671875 C-60.69404013 28.07935018 -51.84648172 20.85926341 -42.1171875 15.375 C-39.69104257 14.11209667 -39.69104257 14.11209667 -39 11 C-27.05160179 3.55815083 -14.14517202 -0.91752467 0 0 Z " fill="#3A556A" transform="translate(175,0)"/>
<path d="M0 0 C0.92021698 2.5612706 1.83617218 5.12394936 2.75 7.6875 C3.00265625 8.38939453 3.2553125 9.09128906 3.515625 9.81445312 C5.0712101 14.18953621 6.50361614 18.58817311 7.85571289 23.03051758 C9.850207 29.53946064 11.91776978 36.02247266 14.01171875 42.5 C14.77377718 44.86284354 15.53573655 47.22571903 16.29760742 49.58862305 C16.6888681 50.80141937 17.08012878 52.0142157 17.48324585 53.26376343 C19.90123345 60.76564641 22.30848316 68.27098145 24.71647644 75.77607727 C26.63826977 81.7645915 28.56510376 87.7513776 30.50334167 93.73458862 C31.57410282 97.04925497 32.63022602 100.36850765 33.6875 103.6875 C34.05512451 104.81091797 34.42274902 105.93433594 34.80151367 107.09179688 C35.11838135 108.09662109 35.43524902 109.10144531 35.76171875 110.13671875 C36.02944092 110.96905029 36.29716309 111.80138184 36.57299805 112.65893555 C37.07806671 115.42800551 36.82430666 117.31807674 36 120 C33.9609375 121.5546875 33.9609375 121.5546875 31.375 122.875 C20.26389534 129.18812765 13.93380222 138.91348279 10.37353516 151.15380859 C8.61095329 158.54315898 7.98675564 165.72713221 7.9375 173.3125 C7.3679699 183.69547178 1.96103524 192.08522967 -3 201 C-3.96024881 202.76197828 -4.91857564 204.52500534 -5.875 206.2890625 C-7.34382335 208.99385895 -8.81702979 211.69569747 -10.30566406 214.38964844 C-13.13867563 219.52323258 -15.88466784 224.68958958 -18.546875 229.9140625 C-19.42702271 231.63749878 -19.42702271 231.63749878 -20.32495117 233.39575195 C-21.4662705 235.64006331 -22.59951501 237.8885029 -23.72387695 240.14135742 C-24.23909912 241.15302979 -24.75432129 242.16470215 -25.28515625 243.20703125 C-25.73769775 244.1091333 -26.19023926 245.01123535 -26.65649414 245.94067383 C-28 248 -28 248 -31 249 C-33.00083923 248.54457092 -33.00083923 248.54457092 -35.32397461 247.71508789 C-36.20430862 247.40571289 -37.08464264 247.09633789 -37.99165344 246.77758789 C-38.95218124 246.42946045 -39.91270905 246.08133301 -40.90234375 245.72265625 C-41.91205734 245.36478027 -42.92177094 245.0069043 -43.96208191 244.63818359 C-47.29061699 243.45558252 -50.61414547 242.25957516 -53.9375 241.0625 C-56.22946919 240.24288855 -58.52162591 239.42380135 -60.81396484 238.60522461 C-65.53246088 236.91818358 -70.24863149 235.22483112 -74.96337891 233.52734375 C-80.62186726 231.49157004 -86.28736108 229.47637967 -91.95649719 227.47047424 C-96.04767943 226.02100472 -100.13517694 224.56136541 -104.22171021 223.09884644 C-106.15585394 222.40844241 -108.09130416 221.7216875 -110.02804565 221.03860474 C-112.71290607 220.09015508 -115.39210195 219.12719526 -118.0703125 218.16015625 C-118.86575974 217.88276611 -119.66120697 217.60537598 -120.48075867 217.31958008 C-122.35494385 216.63406765 -124.18407774 215.8276012 -126 215 C-127.26669029 211.19992914 -126.54295086 210.37464477 -124.88671875 206.8046875 C-124.39018799 205.71816895 -123.89365723 204.63165039 -123.38208008 203.51220703 C-123.10780182 202.92360901 -122.83352356 202.33501099 -122.55093384 201.72857666 C-121.03243213 198.468733 -119.54639485 195.19404284 -118.0546875 191.921875 C-117.73049332 191.21318268 -117.40629913 190.50449036 -117.07228088 189.77432251 C-113.43133417 181.79718125 -109.94245769 173.75461595 -106.44168091 165.715271 C-93.43620017 135.88150449 -79.83335108 106.3212444 -65.51367188 77.09472656 C-64.08791135 74.17973617 -62.6756829 71.25854649 -61.265625 68.3359375 C-53.55062641 52.46121239 -44.99443594 38.01777921 -33 25 C-32.13761719 24.05511719 -31.27523437 23.11023438 -30.38671875 22.13671875 C-9.25194484 0 -9.25194484 0 0 0 Z " fill="#FBD361" transform="translate(137,14)"/>
<path d="M0 0 C4.83694034 1.51836285 8.01960505 4.2726508 11.75 7.5625 C12.36979736 8.10479248 12.98959473 8.64708496 13.62817383 9.20581055 C15.42874453 10.79311568 17.21671344 12.39332288 19 14 C19.83402344 14.74765625 20.66804688 15.4953125 21.52734375 16.265625 C48.04872962 41.39619678 62.17354727 80.47460193 77 113 C77.3533844 113.774646 77.7067688 114.54929199 78.07086182 115.34741211 C87.89103583 136.88020336 97.59085099 158.46076993 107.01953125 180.16796875 C108.86437177 184.41268776 110.73034457 188.64584002 112.63671875 192.86328125 C113.21450073 194.14332031 113.21450073 194.14332031 113.80395508 195.44921875 C114.4877157 196.95794973 115.17591137 198.46468386 115.86987305 199.96875 C117.17122204 202.84169734 118 204.80446784 118 208 C92.04081137 219.42834774 66.05336146 230.78782038 40 242 C39.37136047 242.28465118 38.74272095 242.56930237 38.09503174 242.86257935 C35.21034034 244.15329782 33.19936667 245 30 245 C29.75991211 244.50935059 29.51982422 244.01870117 29.27246094 243.51318359 C24.41959312 233.62712033 19.43407985 223.83712313 14.125 214.1875 C9.83845767 206.37353419 5.56263175 198.55503698 1.375 190.6875 C0.86598145 189.75123779 0.35696289 188.81497559 -0.16748047 187.8503418 C-4.50847363 179.63615402 -6.12489386 172.53345515 -6.4375 163.25 C-7.22152063 147.99023781 -11.15120255 133.46217244 -22.734375 122.72265625 C-26.85731873 119.58779731 -31.37408917 117.29290654 -36 115 C-34.00632317 106.42370216 -31.48498957 98.13642236 -28.625 89.8125 C-26.20180073 82.73926489 -23.86555309 75.65986624 -21.7890625 68.4765625 C-18.39339875 56.74633715 -14.67140428 45.11642429 -10.98730469 33.47436523 C-9.94379698 30.17667423 -8.90338248 26.87801628 -7.86379623 23.57908726 C-6.86394402 20.40768072 -5.86155436 17.23707818 -4.859375 14.06640625 C-4.48649353 12.88325333 -4.11361206 11.7001004 -3.72943115 10.48109436 C-3.38527161 9.39493332 -3.04111206 8.30877228 -2.68652344 7.18969727 C-2.38405701 6.23281509 -2.08159058 5.27593292 -1.7699585 4.29005432 C-1 2 -1 2 0 0 Z " fill="#FBD361" transform="translate(384,18)"/>
<path d="M0 0 C1.65 0 3.3 0 5 0 C5.49628906 1.01578125 5.99257812 2.0315625 6.50390625 3.078125 C13.70107814 17.7116605 21.02117642 31.63547506 33 43 C33.46277344 43.51820312 33.92554688 44.03640625 34.40234375 44.5703125 C46.72512413 58.00786764 66.52664784 66.02097617 84.53125 67.16015625 C107.01309267 67.85515945 126.01043254 59.09639238 142.7421875 44.62890625 C155.93936801 32.11008549 164.01278189 16.55992061 171 0 C173.97 0.33 176.94 0.66 180 1 C179.29226172 5.52041057 177.71359788 9.60993343 176.03515625 13.83984375 C175.73065048 14.61703262 175.42614471 15.3942215 175.1124115 16.19496155 C174.09960979 18.77733214 173.08101295 21.35737723 172.0625 23.9375 C171.34268186 25.77001851 170.62328929 27.60270423 169.90429688 29.43554688 C168.38364044 33.31050956 166.86082546 37.18461388 165.33642578 41.05810547 C161.91973192 49.74280286 158.52260281 58.43515248 155.12371826 67.12683105 C153.6257091 70.95700233 152.1267509 74.78680189 150.62780762 78.61660767 C146.08378149 90.22702133 141.54198281 101.83830522 137.00610352 113.4519043 C136.29868383 115.2628793 135.59100525 117.07375319 134.88305664 118.88452148 C133.9096044 121.37455882 132.93709429 123.86496201 131.96484375 126.35546875 C131.67721664 127.09065231 131.38958954 127.82583588 131.09324646 128.58329773 C130.00465726 131.37432058 128.94755077 134.1573477 128 137 C103.91 137 79.82 137 55 137 C48.11650974 122.08577109 48.11650974 122.08577109 45.07421875 114.546875 C44.72952545 113.70038391 44.38483215 112.85389282 44.0296936 111.98175049 C43.29430319 110.17519483 42.56019497 108.36811675 41.82730103 106.56054688 C39.84731511 101.6782533 37.8566434 96.80031556 35.8671875 91.921875 C35.46097672 90.92514771 35.05476593 89.92842041 34.63624573 88.90148926 C30.91088718 79.76646927 27.1466222 70.64785829 23.36483765 61.53607178 C22.31734196 59.01166884 21.27148798 56.48659043 20.22583008 53.96142578 C17.06825845 46.34311206 13.89413056 38.73256088 10.67112732 31.1416626 C9.24110091 27.77267926 7.81742831 24.401026 6.39389038 21.02929688 C5.39632528 18.67532171 4.38839139 16.32597011 3.38012695 13.9765625 C2.78152417 12.56012377 2.18343083 11.14346959 1.5859375 9.7265625 C1.30669937 9.08490143 1.02746124 8.44324036 0.73976135 7.78213501 C-1.11380501 3.34141503 -1.11380501 3.34141503 0 0 Z " fill="#FBD362" transform="translate(170,0)"/>
<path d="M0 0 C2.75 1.3125 2.75 1.3125 5 3 C5.5775 3.391875 6.155 3.78375 6.75 4.1875 C8.83978787 7.21769242 9.22333657 10.41347749 9 14 C7.8262318 17.38942053 6.24775359 20.21689105 3.1328125 22.171875 C-0.5512699 23.60232458 -4.1173762 23.56852706 -8 23 C-11.47060168 20.93240751 -13.77725393 18.89055567 -15 15 C-15.45295055 10.01754396 -15.1745053 6.94076519 -12 3 C-8.06538376 -0.16955197 -4.97922113 -0.53348798 0 0 Z " fill="#F9FAFA" transform="translate(319,157)"/>
<path d="M0 0 C4.53664256 1.89905968 6.84514668 4.60741439 9 9 C9.2888966 11.888966 8.98848645 14.27042945 8 17 C5.39010713 20.14525551 3.19771223 22.73661995 -0.98828125 23.23828125 C-5.05070018 23.36800555 -7.37166461 23.37432746 -10.9375 21.25 C-14.02255654 17.88448377 -14.89459487 16.15945644 -15.3125 11.5625 C-14.97426877 7.70666403 -14.40978135 5.99145272 -12 3 C-8.06538376 -0.16955197 -4.97922113 -0.53348798 0 0 Z " fill="#F9FAFB" transform="translate(210,157)"/>
</svg>
