<?xml version="1.0" encoding="UTF-8"?>
<svg version="1.1" xmlns="http://www.w3.org/2000/svg" width="512" height="512">
<path d="M0 0 C3 0.125 3 0.125 4 1.125 C4.09492722 3.46753782 4.12559791 5.78046104 4.11352539 8.12329102 C4.11367142 8.85495483 4.11381744 9.58661865 4.1139679 10.3404541 C4.11326867 12.76996784 4.10547585 15.19940583 4.09765625 17.62890625 C4.0957921 19.30899514 4.09436819 20.98908457 4.09336853 22.66917419 C4.08954307 27.09973643 4.07971256 31.5302661 4.06866455 35.96081543 C4.05845103 40.47842976 4.05387104 44.99604934 4.04882812 49.51367188 C4.03809031 58.38412893 4.02101356 67.25456176 4 76.125 C5.32 76.125 6.64 76.125 8 76.125 C8 99.885 8 123.645 8 148.125 C39.68 148.125 71.36 148.125 104 148.125 C104 138.885 104 129.645 104 120.125 C108.50776502 115.61723498 108.50776502 115.61723498 113.5 115.59375 C114.551875 115.58859375 115.60375 115.5834375 116.6875 115.578125 C117.780625 115.59359375 118.87375 115.6090625 120 115.625 C121.093125 115.60953125 122.18625 115.5940625 123.3125 115.578125 C124.364375 115.58328125 125.41625 115.5884375 126.5 115.59375 C127.4590625 115.59826172 128.418125 115.60277344 129.40625 115.60742188 C132.71298564 116.267275 133.90908706 117.53613555 136 120.125 C136.53125 122.125 136.53125 122.125 136.5 124.125 C136.51546875 125.115 136.51546875 125.115 136.53125 126.125 C135.73922269 129.10674986 134.45326814 130.28911059 132 132.125 C127.93404512 132.65167809 124.11858117 132.30406875 120 132.125 C120 137.405 120 142.685 120 148.125 C127.92 148.125 135.84 148.125 144 148.125 C143.95359375 146.15015625 143.9071875 144.1753125 143.859375 142.140625 C143.82186012 139.55209843 143.78545966 136.96355554 143.75 134.375 C143.69972656 132.42207031 143.69972656 132.42207031 143.6484375 130.4296875 C143.63554687 129.17929688 143.62265625 127.92890625 143.609375 126.640625 C143.58842773 125.48852539 143.56748047 124.33642578 143.54589844 123.14941406 C144.09481149 119.49353507 145.116418 118.35706138 148 116.125 C150 115.59375 150 115.59375 152 115.625 C152.99 115.60953125 152.99 115.60953125 154 115.59375 C156.95613104 116.37897231 158.09984561 117.75005125 160 120.125 C160.45410156 123.14941406 160.45410156 123.14941406 160.390625 126.640625 C160.37128906 128.51621094 160.37128906 128.51621094 160.3515625 130.4296875 C160.30128906 132.38261719 160.30128906 132.38261719 160.25 134.375 C160.23195313 135.69242188 160.21390625 137.00984375 160.1953125 138.3671875 C160.14816882 141.62010156 160.07642616 144.87264217 160 148.125 C167.92 148.125 175.84 148.125 184 148.125 C184 142.845 184 137.565 184 132.125 C182.1025 132.2075 180.205 132.29 178.25 132.375 C172.65890909 132.61809091 172.65890909 132.61809091 169.640625 130.359375 C167.90976018 128.00210195 167.45507347 127.00029794 167.5 124.125 C167.48453125 123.135 167.48453125 123.135 167.46875 122.125 C168.2438334 119.20703896 169.69104167 118.0318912 172 116.125 C174.59375 115.60742188 174.59375 115.60742188 177.5 115.59375 C178.551875 115.58859375 179.60375 115.5834375 180.6875 115.578125 C182.3271875 115.60132813 182.3271875 115.60132813 184 115.625 C185.093125 115.60953125 186.18625 115.5940625 187.3125 115.578125 C188.364375 115.58328125 189.41625 115.5884375 190.5 115.59375 C191.4590625 115.59826172 192.418125 115.60277344 193.40625 115.60742188 C196 116.125 196 116.125 200 120.125 C200 129.365 200 138.605 200 148.125 C231.68 148.125 263.36 148.125 296 148.125 C296 132.285 296 116.445 296 100.125 C306.56 100.125 317.12 100.125 328 100.125 C328 115.965 328 131.805 328 148.125 C335.92 148.125 343.84 148.125 352 148.125 C352 140.205 352 132.285 352 124.125 C354.64 123.795 357.28 123.465 360 123.125 C359.05125 122.3825 358.1025 121.64 357.125 120.875 C354.56744888 118.87343826 353.15373758 117.18349302 352 114.125 C351.33928074 108.60876242 351.26801666 103.7015795 353.625 98.625 C358.19865673 93.8106245 361.3087462 91.87343764 368 91.625 C374.6912538 91.87343764 377.80134327 93.8106245 382.375 98.625 C384.7698571 103.78315375 384.76722701 108.53191511 384 114.125 C381.99932818 118.1977962 379.80644722 120.67799822 376 123.125 C379.96 123.62 379.96 123.62 384 124.125 C384 132.045 384 139.965 384 148.125 C387.96 148.125 391.92 148.125 396 148.125 C400.50002595 152.62502595 400.50002595 152.62502595 400.50336456 156.10430908 C400.51379555 156.89008709 400.52422654 157.6758651 400.53497362 158.48545456 C400.52605073 159.34264713 400.51712785 160.19983971 400.50793457 161.08300781 C400.51729451 162.45597456 400.51729451 162.45597456 400.52684355 163.85667801 C400.54282751 166.93075393 400.53014803 170.00404287 400.51757812 173.078125 C400.52299683 175.27909814 400.53011807 177.48006766 400.53881836 179.68103027 C400.55708441 185.66443236 400.54997051 191.64755917 400.53730202 197.63096619 C400.5271914 203.88582107 400.5365623 210.14065202 400.54284668 216.39550781 C400.55059547 227.57375212 400.5381466 238.75189516 400.51780933 249.93011522 C400.49993809 260.06675357 400.50304213 270.2032087 400.52148438 280.33984375 C400.54288715 292.10923405 400.55086029 303.87853508 400.53903532 315.6479454 C400.53279165 321.8788264 400.53198882 328.10958116 400.54518127 334.3404541 C400.55671588 340.19770401 400.5487575 346.05460711 400.52560425 351.91181946 C400.5203044 354.06451338 400.5218526 356.21723637 400.53065491 358.36991882 C400.54154344 361.30267383 400.52792759 364.23430905 400.50793457 367.16699219 C400.5213189 368.45278105 400.5213189 368.45278105 400.53497362 369.76454544 C400.52454263 370.55032345 400.51411164 371.33610146 400.50336456 372.14569092 C400.50271515 372.82246258 400.50206574 373.49923424 400.50139666 374.19651413 C399.71697645 377.21357312 398.5230643 378.30757651 396 380.125 C393.16901079 380.51697625 390.72765285 380.66272548 387.89770508 380.62836456 C387.07036173 380.63417833 386.24301838 380.63999209 385.39060402 380.64598203 C382.59995485 380.66065664 379.81017497 380.64666221 377.01953125 380.63293457 C375.00602262 380.63754054 372.99251736 380.64389139 370.97901917 380.65184355 C365.43172013 380.66860177 359.88469497 380.66026104 354.33739471 380.64789867 C348.36048998 380.63887701 342.38363353 380.65280355 336.40673828 380.66381836 C325.36999932 380.68060817 314.33333604 380.67910934 303.29659653 380.66817249 C293.1015302 380.65811901 282.90649604 380.65547936 272.71142578 380.66026306 C272.03574401 380.6605686 271.36006224 380.66087414 270.66390526 380.66118894 C267.92124518 380.66243425 265.17858511 380.66370785 262.43592507 380.665028 C236.69603975 380.67727009 210.95621032 380.66616051 185.21633363 380.64464041 C162.33690081 380.6256573 139.45755704 380.62735578 116.578125 380.64648438 C90.88598768 380.66789265 65.19389976 380.67640197 39.50175476 380.66403532 C36.76402792 380.66275241 34.02630108 380.66150105 31.28857422 380.66026306 C30.61445248 380.65994675 29.94033074 380.65963044 29.24578106 380.65930455 C19.05593036 380.65475041 8.8661153 380.66008365 -1.32373047 380.67018127 C-12.90748683 380.68160281 -24.49115843 380.67840597 -36.0749054 380.6570583 C-41.98926771 380.64651929 -47.90344894 380.64247454 -53.81781006 380.65565491 C-59.22615637 380.66752565 -64.6341528 380.66110441 -70.04246712 380.6397447 C-72.00471715 380.63525599 -73.96699641 380.63759531 -75.92922783 380.64724785 C-78.58581396 380.65931916 -81.24118371 380.64703201 -83.89770508 380.62836456 C-85.05460877 380.64241156 -85.05460877 380.64241156 -86.23488426 380.65674233 C-89.669653 380.60812411 -91.65460761 380.37379439 -94.47493315 378.34224653 C-96.09376463 375.98867857 -96.50066736 374.95654173 -96.50336456 372.14569092 C-96.51379555 371.35991291 -96.52422654 370.5741349 -96.53497362 369.76454544 C-96.52605073 368.90735287 -96.51712785 368.05016029 -96.50793457 367.16699219 C-96.51417453 366.25168102 -96.5204145 365.33636986 -96.52684355 364.39332199 C-96.54282751 361.31924607 -96.53014803 358.24595713 -96.51757812 355.171875 C-96.52299683 352.97090186 -96.53011807 350.76993234 -96.53881836 348.56896973 C-96.55708441 342.58556764 -96.54997051 336.60244083 -96.53730202 330.61903381 C-96.5271914 324.36417893 -96.5365623 318.10934798 -96.54284668 311.85449219 C-96.55059547 300.67624788 -96.5381466 289.49810484 -96.51780933 278.31988478 C-96.49993809 268.18324643 -96.50304213 258.0467913 -96.52148438 247.91015625 C-96.54288715 236.14076595 -96.55086029 224.37146492 -96.53903532 212.6020546 C-96.53279165 206.3711736 -96.53198882 200.14041884 -96.54518127 193.9095459 C-96.55671588 188.05229599 -96.5487575 182.19539289 -96.52560425 176.33818054 C-96.5203044 174.18548662 -96.5218526 172.03276363 -96.53065491 169.88008118 C-96.54154344 166.94732617 -96.52792759 164.01569095 -96.50793457 161.08300781 C-96.5213189 159.79721895 -96.5213189 159.79721895 -96.53497362 158.48545456 C-96.45874228 152.74286287 -96.45874228 152.74286287 -94.12170029 149.59518814 C-91.47637599 147.76216562 -89.97545783 147.63980138 -86.77246094 147.67089844 C-85.71720215 147.67138184 -84.66194336 147.67186523 -83.57470703 147.67236328 C-82.47239746 147.69282715 -81.37008789 147.71329102 -80.234375 147.734375 C-78.70707764 147.74041748 -78.70707764 147.74041748 -77.14892578 147.74658203 C-73.34910029 147.76749435 -69.54953186 147.8233399 -65.75 147.875 C-57.2525 147.9575 -48.755 148.04 -40 148.125 C-40 124.365 -40 100.605 -40 76.125 C-37.36 76.125 -34.72 76.125 -32 76.125 C-32 62.925 -32 49.725 -32 36.125 C-45.2 36.125 -58.4 36.125 -72 36.125 C-72 28.33176202 -70.77359624 25.02407828 -66 19.125 C-59.31792458 13.48841937 -53.74805294 11.75998258 -45.078125 11.84375 C-38.20042617 12.47216918 -33.39179034 15.90233041 -29 21.125 C-23.39353261 28.7961721 -22.84684596 35.36937816 -22.90234375 44.6796875 C-22.9037587 45.58123566 -22.90517365 46.48278381 -22.90663147 47.41165161 C-22.9122026 50.274469 -22.92474974 53.13720648 -22.9375 56 C-22.94251873 57.94791553 -22.94708099 59.8958323 -22.95117188 61.84375 C-22.96130917 66.60422178 -22.98089014 71.36452206 -23 76.125 C-16.73 76.125 -10.46 76.125 -4 76.125 C-4.00523682 73.85826416 -4.01047363 71.59152832 -4.01586914 69.25610352 C-4.03240568 61.78422543 -4.04347148 54.31234656 -4.05181217 46.84045506 C-4.05704078 42.30825906 -4.06413801 37.77608173 -4.07543945 33.24389648 C-4.08626914 28.8737717 -4.09227701 24.50366492 -4.09487724 20.13352776 C-4.09673135 18.46249037 -4.10035168 16.79145403 -4.10573006 15.12042427 C-4.11294159 12.78802449 -4.1139909 10.45570007 -4.11352539 8.12329102 C-4.11712067 7.4255809 -4.12071594 6.72787079 -4.12442017 6.00901794 C-4.11173134 0.17132214 -4.11173134 0.17132214 0 0 Z " fill="#E09D70" transform="translate(104,123.875)"/>
<path d="M0 0 C1.051875 -0.00515625 2.10375 -0.0103125 3.1875 -0.015625 C4.280625 -0.00015625 5.37375 0.0153125 6.5 0.03125 C8.1396875 0.00804687 8.1396875 0.00804687 9.8125 -0.015625 C10.864375 -0.01046875 11.91625 -0.0053125 13 0 C14.43859375 0.00676758 14.43859375 0.00676758 15.90625 0.01367188 C19.21298564 0.673525 20.40908706 1.94238555 22.5 4.53125 C23.03125 6.53125 23.03125 6.53125 23 8.53125 C23.01546875 9.52125 23.01546875 9.52125 23.03125 10.53125 C22.23922269 13.51299986 20.95326814 14.69536059 18.5 16.53125 C14.43404512 17.05792809 10.61858117 16.71031875 6.5 16.53125 C6.5 21.81125 6.5 27.09125 6.5 32.53125 C14.42 32.53125 22.34 32.53125 30.5 32.53125 C30.45359375 30.55640625 30.4071875 28.5815625 30.359375 26.546875 C30.32186012 23.95834843 30.28545966 21.36980554 30.25 18.78125 C30.21648437 17.47929687 30.18296875 16.17734375 30.1484375 14.8359375 C30.12910156 12.96035156 30.12910156 12.96035156 30.109375 11.046875 C30.0779541 9.31872559 30.0779541 9.31872559 30.04589844 7.55566406 C30.59481149 3.89978507 31.616418 2.76331138 34.5 0.53125 C36.5 0 36.5 0 38.5 0.03125 C39.16 0.0209375 39.82 0.010625 40.5 0 C43.45613104 0.78522231 44.59984561 2.15630125 46.5 4.53125 C46.95410156 7.55566406 46.95410156 7.55566406 46.890625 11.046875 C46.87773437 12.29726562 46.86484375 13.54765625 46.8515625 14.8359375 C46.81804687 16.13789063 46.78453125 17.43984375 46.75 18.78125 C46.73195313 20.09867187 46.71390625 21.41609375 46.6953125 22.7734375 C46.64816882 26.02635156 46.57642616 29.27889217 46.5 32.53125 C54.42 32.53125 62.34 32.53125 70.5 32.53125 C70.5 27.25125 70.5 21.97125 70.5 16.53125 C68.6025 16.61375 66.705 16.69625 64.75 16.78125 C59.15890909 17.02434091 59.15890909 17.02434091 56.140625 14.765625 C54.40976018 12.40835195 53.95507347 11.40654794 54 8.53125 C53.98453125 7.54125 53.98453125 7.54125 53.96875 6.53125 C54.7438334 3.61328896 56.19104167 2.4381412 58.5 0.53125 C61.09375 0.01367188 61.09375 0.01367188 64 0 C65.051875 -0.00515625 66.10375 -0.0103125 67.1875 -0.015625 C68.280625 -0.00015625 69.37375 0.0153125 70.5 0.03125 C71.593125 0.01578125 72.68625 0.0003125 73.8125 -0.015625 C74.864375 -0.01046875 75.91625 -0.0053125 77 0 C77.9590625 0.00451172 78.918125 0.00902344 79.90625 0.01367188 C83.3335363 0.69758066 84.48700092 1.68778645 86.5 4.53125 C86.95410156 7.55566406 86.95410156 7.55566406 86.890625 11.046875 C86.88063477 12.17383789 86.87064453 13.30080078 86.86035156 14.46191406 C86.82393555 15.88729492 86.78751953 17.31267578 86.75 18.78125 C86.6675 23.31875 86.585 27.85625 86.5 32.53125 C102.34 32.53125 118.18 32.53125 134.5 32.53125 C134.5 98.53125 134.5 164.53125 134.5 232.53125 C71.14 232.53125 7.78 232.53125 -57.5 232.53125 C-57.5 166.53125 -57.5 100.53125 -57.5 32.53125 C-41.66 32.53125 -25.82 32.53125 -9.5 32.53125 C-9.65800294 23.49609723 -9.65800294 23.49609723 -9.86035156 14.46191406 C-9.8703418 13.33495117 -9.88033203 12.20798828 -9.890625 11.046875 C-9.91157227 9.89477539 -9.93251953 8.74267578 -9.95410156 7.55566406 C-9.5 4.53125 -9.5 4.53125 -7.81933594 2.15722656 C-4.99405637 0.17655688 -3.42921886 0.01613208 0 0 Z " fill="#A99E9E" transform="translate(217.5,239.46875)"/>
<path d="M0 0 C4.8846525 2.26787438 7.73212562 5.1153475 10 10 C10.76420174 15.67692721 10.79775329 20.37600222 8.25 25.5625 C6.27601696 27.70098163 4.44358912 29.42912128 2 31 C4.64 31.33 7.28 31.66 10 32 C10 39.92 10 47.84 10 56 C13.96 56 17.92 56 22 56 C26.50002595 60.50002595 26.50002595 60.50002595 26.50336456 63.97930908 C26.51379555 64.76508709 26.52422654 65.5508651 26.53497362 66.36045456 C26.52605073 67.21764713 26.51712785 68.07483971 26.50793457 68.95800781 C26.51417453 69.87331898 26.5204145 70.78863014 26.52684355 71.73167801 C26.54282751 74.80575393 26.53014803 77.87904287 26.51757812 80.953125 C26.52299683 83.15409814 26.53011807 85.35506766 26.53881836 87.55603027 C26.55708441 93.53943236 26.54997051 99.52255917 26.53730202 105.50596619 C26.5271914 111.76082107 26.5365623 118.01565202 26.54284668 124.27050781 C26.55059547 135.44875212 26.5381466 146.62689516 26.51780933 157.80511522 C26.49993809 167.94175357 26.50304213 178.0782087 26.52148438 188.21484375 C26.54288715 199.98423405 26.55086029 211.75353508 26.53903532 223.5229454 C26.53279165 229.7538264 26.53198882 235.98458116 26.54518127 242.2154541 C26.55671588 248.07270401 26.5487575 253.92960711 26.52560425 259.78681946 C26.5203044 261.93951338 26.5218526 264.09223637 26.53065491 266.24491882 C26.54154344 269.17767383 26.52792759 272.10930905 26.50793457 275.04199219 C26.51685746 275.89918476 26.52578034 276.75637733 26.53497362 277.63954544 C26.4860616 281.32414255 26.39542381 283.39391831 24.34948349 286.52981186 C21.33763784 288.4144728 19.44756819 288.4930426 15.90032959 288.48101807 C14.0241394 288.48926605 14.0241394 288.48926605 12.11004639 288.49768066 C10.72668073 288.48352501 9.34331895 288.46898578 7.95996094 288.45410156 C6.50126171 288.4529731 5.04256021 288.45360691 3.5838623 288.45587158 C-0.37465126 288.45701974 -4.33268048 288.43349433 -8.29108143 288.40557575 C-12.428384 288.38057891 -16.56569754 288.37822146 -20.70306396 288.37347412 C-28.53704987 288.36103927 -36.37081262 288.32821085 -44.20470023 288.28807616 C-53.12357605 288.24337424 -62.0424625 288.2213754 -70.96142244 288.20129442 C-89.30774501 288.15947859 -107.65384639 288.08831145 -126 288 C-126 280.08 -126 272.16 -126 264 C-123.36 263.34 -120.72 262.68 -118 262 C-111.67965921 259.67824216 -106.8199264 254.81579047 -103.92267799 248.74120808 C-102.89022884 245.67387801 -102.73867964 243.24111242 -102.7215271 240.00785828 C-102.71036362 238.80617508 -102.69920013 237.60449188 -102.68769836 236.36639404 C-102.68553818 235.05656555 -102.68337799 233.74673706 -102.68115234 232.3972168 C-102.67184951 230.99747643 -102.66168031 229.5977416 -102.65071106 228.19801331 C-102.62343691 224.40505364 -102.60826935 220.61213107 -102.59528303 216.81909919 C-102.57964117 212.8525669 -102.55285431 208.88611021 -102.5272522 204.91963196 C-102.4804831 197.41164187 -102.44372995 189.90363752 -102.41057932 182.3955763 C-102.37234473 173.84660408 -102.32293807 165.29770784 -102.27259517 156.74879968 C-102.16930311 139.16592143 -102.08003385 121.58299919 -102 104 C-102.78761719 103.86980469 -103.57523437 103.73960937 -104.38671875 103.60546875 C-107 103 -107 103 -108.8125 101.3125 C-110.40188959 98.21737291 -110.56159999 96.43979993 -110 93 C-107.6875 90.125 -107.6875 90.125 -105 88 C-104.01 88 -103.02 88 -102 88 C-102 77.44 -102 66.88 -102 56 C-94.08 56 -86.16 56 -78 56 C-78 40.16 -78 24.32 -78 8 C-67.44 8 -56.88 8 -46 8 C-46 23.84 -46 39.68 -46 56 C-38.08 56 -30.16 56 -22 56 C-22 48.08 -22 40.16 -22 32 C-18.04 31.505 -18.04 31.505 -14 31 C-14.94875 30.2575 -15.8975 29.515 -16.875 28.75 C-19.43255112 26.74843826 -20.84626242 25.05849302 -22 22 C-22.66071926 16.48376242 -22.73198334 11.5765795 -20.375 6.5 C-14.13633057 -0.06702045 -8.87259444 -1.19438771 0 0 Z " fill="#E09D70" transform="translate(478,216)"/>
<path d="M0 0 C21.12 0 42.24 0 64 0 C63.8125 23.1875 63.8125 23.1875 63.66723633 30.42260742 C63.54806082 44.12108187 63.54806082 44.12108187 70.22265625 55.60546875 C72.09260415 57.48109736 74.02344695 59.23220452 76 61 C77.08998484 62.28600067 78.1530236 63.59636289 79.1640625 64.9453125 C79.57938232 65.47930664 79.99470215 66.01330078 80.42260742 66.56347656 C80.81939697 67.0787793 81.21618652 67.59408203 81.625 68.125 C85.7790932 73.47879593 90.04467692 78.71313765 94.41796875 83.890625 C96 86 96 86 96 88 C96.94875 88.103125 97.8975 88.20625 98.875 88.3125 C102 89 102 89 104 92 C104.22061147 94.99864744 104.32805299 97.90207174 104.3359375 100.90234375 C104.3459227 102.21350914 104.3459227 102.21350914 104.35610962 103.55116272 C104.36623288 105.39956559 104.37092674 107.24800498 104.37060547 109.09643555 C104.37497854 111.92362687 104.41130002 114.74925682 104.44921875 117.57617188 C104.45508701 119.37239049 104.45905634 121.16861653 104.4609375 122.96484375 C104.47530853 123.80973862 104.48967957 124.65463348 104.50448608 125.52513123 C104.49833282 126.3159761 104.49217957 127.10682098 104.48583984 127.92163086 C104.48868988 128.6142955 104.49153992 129.30696014 104.49447632 130.02061462 C103.76337139 132.94722272 102.30827614 134.10174635 100 136 C97.39501953 136.50336456 97.39501953 136.50336456 94.3828125 136.50793457 C92.66674805 136.52485352 92.66674805 136.52485352 90.91601562 136.54211426 C89.66498047 136.53401733 88.41394531 136.52592041 87.125 136.51757812 C85.79100785 136.52299968 84.4570217 136.53012254 83.12304688 136.53881836 C79.50314652 136.55705113 75.88370226 136.54998474 72.26379395 136.53730202 C68.4753293 136.52717395 64.68690368 136.53656715 60.8984375 136.54284668 C54.53638702 136.55012368 48.17452228 136.54053413 41.8125 136.52148438 C34.45739863 136.49971536 27.10274077 136.50676671 19.74765015 136.52879 C13.43244633 136.54694262 7.11737602 136.54950305 0.80215454 136.53903532 C-2.96953603 136.53279956 -6.74101814 136.53196682 -10.51269531 136.54518127 C-14.05872353 136.55673735 -17.60418003 136.54871944 -21.15014648 136.52560425 C-23.07209487 136.51779314 -24.99409162 136.52967522 -26.91601562 136.54211426 C-28.06005859 136.53083496 -29.20410156 136.51955566 -30.3828125 136.50793457 C-31.37684082 136.50642647 -32.37086914 136.50491837 -33.39501953 136.50336456 C-36.71704955 135.86144336 -37.90876666 134.60247666 -40 132 C-40.50793457 130.02734375 -40.50793457 130.02734375 -40.51757812 127.9375 C-40.53649109 126.75607422 -40.53649109 126.75607422 -40.55578613 125.55078125 C-40.54768921 124.70902344 -40.53959229 123.86726563 -40.53125 123 C-40.5350769 122.12730469 -40.53890381 121.25460938 -40.54284668 120.35546875 C-40.5455649 118.51300908 -40.53820994 116.67051076 -40.52148438 114.828125 C-40.50007248 112.00954066 -40.52128801 109.19350515 -40.546875 106.375 C-40.54423171 104.58332771 -40.53910669 102.79165701 -40.53125 101 C-40.53934692 100.15824219 -40.54744385 99.31648438 -40.55578613 98.44921875 C-40.49494461 94.64866477 -40.42965431 92.61742219 -38.21679688 89.4375 C-36 88 -36 88 -32 88 C-31.72470459 87.41009277 -31.44940918 86.82018555 -31.16577148 86.21240234 C-30.05173756 84.0981876 -28.86807816 82.43683658 -27.34765625 80.6015625 C-26.56165039 79.64515869 -26.56165039 79.64515869 -25.75976562 78.66943359 C-25.19966797 77.99477051 -24.63957031 77.32010742 -24.0625 76.625 C-22.88574878 75.19350514 -21.70998559 73.76119757 -20.53515625 72.328125 C-19.9436377 71.60689453 -19.35211914 70.88566406 -18.74267578 70.14257812 C-15.67259255 66.36798433 -12.67978705 62.53342762 -9.69165039 58.69384766 C-7.68796529 56.1249806 -5.74911635 53.75951993 -3.3918457 51.5 C0.2015251 47.16879771 -0.27157961 42.30801566 -0.29296875 36.9140625 C-0.27834595 35.97651123 -0.26372314 35.03895996 -0.24865723 34.07299805 C-0.20149876 30.59059166 -0.1970006 27.10771272 -0.1875 23.625 C-0.125625 15.82875 -0.06375 8.0325 0 0 Z " fill="#F7F6F5" transform="translate(224,8)"/>
<path d="M0 0 C7.92 0 15.84 0 24 0 C24 10.56 24 21.12 24 32 C22.02 32.99 20.04 33.98 18 35 C16.57958179 37.84083641 16.68547728 39.85477278 17 43 C19.23206431 45.84780619 20.54992999 46.84997666 24 48 C24.09352754 66.37629355 24.16402039 84.75252514 24.20724869 103.12900543 C24.2278557 111.66193102 24.25594059 120.19470853 24.30175781 128.72753906 C24.34168272 136.16656454 24.36744634 143.60548276 24.37635398 151.04461241 C24.3815592 154.98198955 24.39375417 158.91905989 24.42292023 162.8563385 C24.45017896 166.56638385 24.45842411 170.27599759 24.45243073 173.98613358 C24.45404659 175.98852306 24.47551448 177.9908661 24.49768066 179.99313354 C24.45977323 188.30590004 23.42133518 193.49404574 18.32421875 200.20703125 C12.49007134 205.92978683 8.45982926 208 0 208 C0 215.92 0 223.84 0 232 C-63.36 232 -126.72 232 -192 232 C-192 221.44 -192 210.88 -192 200 C-128.64 200 -65.28 200 0 200 C0 134 0 68 0 0 Z " fill="#CCCACA" transform="translate(352,272)"/>
<path d="M0 0 C3 0.125 3 0.125 4 1.125 C4.09492722 3.46753782 4.12559791 5.78046104 4.11352539 8.12329102 C4.11367142 8.85495483 4.11381744 9.58661865 4.1139679 10.3404541 C4.11326867 12.76996784 4.10547585 15.19940583 4.09765625 17.62890625 C4.0957921 19.30899514 4.09436819 20.98908457 4.09336853 22.66917419 C4.08954307 27.09973643 4.07971256 31.5302661 4.06866455 35.96081543 C4.05845103 40.47842976 4.05387104 44.99604934 4.04882812 49.51367188 C4.03809031 58.38412893 4.02101356 67.25456176 4 76.125 C5.32 76.125 6.64 76.125 8 76.125 C8 99.885 8 123.645 8 148.125 C0.08 148.125 -7.84 148.125 -16 148.125 C-16 151.755 -16 155.385 -16 159.125 C-16.55078125 162.30151367 -16.55078125 162.30151367 -17.3125 164.79296875 C-17.58320312 165.70498047 -17.85390625 166.61699219 -18.1328125 167.55664062 C-18.41898437 168.46607422 -18.70515625 169.37550781 -19 170.3125 C-19.28617187 171.26447266 -19.57234375 172.21644531 -19.8671875 173.19726562 C-20.56478272 175.51095645 -21.27571565 177.81955411 -22 180.125 C-22.66 180.125 -23.32 180.125 -24 180.125 C-24.6496875 178.6709375 -24.6496875 178.6709375 -25.3125 177.1875 C-26.7014861 173.84768235 -26.7014861 173.84768235 -30 173.125 C-34.1299236 172.87629208 -38.25986636 172.85433613 -42.39672852 172.82983398 C-43.75555822 172.8182923 -45.11434181 172.79780546 -46.47290039 172.76831055 C-48.43863675 172.72564451 -50.40493641 172.71206945 -52.37109375 172.69921875 C-53.54599365 172.68463623 -54.72089355 172.67005371 -55.93139648 172.6550293 C-59.60916535 173.21829647 -60.7662259 174.20987906 -63 177.125 C-63.53863681 179.98856915 -63.10986928 182.43703534 -62 185.125 C-59.13343033 186.80831939 -59.13343033 186.80831939 -56 188.125 C-54.25 191.25 -54.25 191.25 -53 194.125 C-50.70691037 195.27154482 -49.20090344 195.32229117 -46.6484375 195.44140625 C-45.79765625 195.48330078 -44.946875 195.52519531 -44.0703125 195.56835938 C-43.18085937 195.60767578 -42.29140625 195.64699219 -41.375 195.6875 C-40.02921875 195.75227539 -40.02921875 195.75227539 -38.65625 195.81835938 C-36.43765717 195.92456861 -34.2189512 196.02661194 -32 196.125 C-41.94375609 211.22142971 -57.65170916 220.59591742 -74.6875 225.625 C-75.54206787 225.88055664 -76.39663574 226.13611328 -77.27709961 226.39941406 C-81.87490082 227.65275889 -86.04856554 228.24890599 -90.82348633 228.18945312 C-92.28483757 228.175495 -92.28483757 228.175495 -93.77571106 228.16125488 C-94.50972641 228.14929077 -95.24374176 228.13732666 -96 228.125 C-96.09266175 218.2849946 -96.16374551 208.44509291 -96.20724869 198.60474014 C-96.22812765 194.03549036 -96.25645071 189.46653898 -96.30175781 184.89746094 C-96.34520488 180.48839127 -96.36913478 176.0796087 -96.37950897 171.67034149 C-96.38690243 169.98778513 -96.40134017 168.30524457 -96.42292023 166.62281036 C-96.45194003 164.26674899 -96.45595675 161.91187527 -96.45410156 159.55566406 C-96.46848267 158.85938904 -96.48286377 158.16311401 -96.49768066 157.44573975 C-96.47000604 154.19959727 -96.1747971 152.37523321 -94.29833984 149.68896484 C-91.53791913 147.81056511 -90.0903431 147.63868599 -86.77246094 147.67089844 C-85.71720215 147.67138184 -84.66194336 147.67186523 -83.57470703 147.67236328 C-82.47239746 147.69282715 -81.37008789 147.71329102 -80.234375 147.734375 C-78.70707764 147.74041748 -78.70707764 147.74041748 -77.14892578 147.74658203 C-73.34910029 147.76749435 -69.54953186 147.8233399 -65.75 147.875 C-57.2525 147.9575 -48.755 148.04 -40 148.125 C-40 124.365 -40 100.605 -40 76.125 C-37.36 76.125 -34.72 76.125 -32 76.125 C-32 62.925 -32 49.725 -32 36.125 C-45.2 36.125 -58.4 36.125 -72 36.125 C-72 28.33176202 -70.77359624 25.02407828 -66 19.125 C-59.31792458 13.48841937 -53.74805294 11.75998258 -45.078125 11.84375 C-38.20042617 12.47216918 -33.39179034 15.90233041 -29 21.125 C-23.39353261 28.7961721 -22.84684596 35.36937816 -22.90234375 44.6796875 C-22.9037587 45.58123566 -22.90517365 46.48278381 -22.90663147 47.41165161 C-22.9122026 50.274469 -22.92474974 53.13720648 -22.9375 56 C-22.94251873 57.94791553 -22.94708099 59.8958323 -22.95117188 61.84375 C-22.96130917 66.60422178 -22.98089014 71.36452206 -23 76.125 C-16.73 76.125 -10.46 76.125 -4 76.125 C-4.00523682 73.85826416 -4.01047363 71.59152832 -4.01586914 69.25610352 C-4.03240568 61.78422543 -4.04347148 54.31234656 -4.05181217 46.84045506 C-4.05704078 42.30825906 -4.06413801 37.77608173 -4.07543945 33.24389648 C-4.08626914 28.8737717 -4.09227701 24.50366492 -4.09487724 20.13352776 C-4.09673135 18.46249037 -4.10035168 16.79145403 -4.10573006 15.12042427 C-4.11294159 12.78802449 -4.1139909 10.45570007 -4.11352539 8.12329102 C-4.11712067 7.4255809 -4.12071594 6.72787079 -4.12442017 6.00901794 C-4.11173134 0.17132214 -4.11173134 0.17132214 0 0 Z " fill="#EABF9D" transform="translate(104,123.875)"/>
<path d="M0 0 C42.24 0 84.48 0 128 0 C128 21.12 128 42.24 128 64 C85.76 64 43.52 64 0 64 C0 42.88 0 21.76 0 0 Z " fill="#F5F4F4" transform="translate(192,384)"/>
<path d="M0 0 C4.8846525 2.26787438 7.73212562 5.1153475 10 10 C10.76420174 15.67692721 10.79775329 20.37600222 8.25 25.5625 C6.27601696 27.70098163 4.44358912 29.42912128 2 31 C4.64 31.33 7.28 31.66 10 32 C10 39.92 10 47.84 10 56 C7.36 56 4.72 56 2 56 C2.10441406 56.82564453 2.10441406 56.82564453 2.2109375 57.66796875 C2.89666022 68.19871058 -0.8833575 78.07951695 -4 88 C-4.66 88 -5.32 88 -6 88 C-6.433125 87.030625 -6.86625 86.06125 -7.3125 85.0625 C-8.7014861 81.72268235 -8.7014861 81.72268235 -12 81 C-16.1299236 80.75129208 -20.25986636 80.72933613 -24.39672852 80.70483398 C-25.75555822 80.6932923 -27.11434181 80.67280546 -28.47290039 80.64331055 C-30.43863675 80.60064451 -32.40493641 80.58706945 -34.37109375 80.57421875 C-35.54599365 80.55963623 -36.72089355 80.54505371 -37.93139648 80.5300293 C-41.60916535 81.09329647 -42.7662259 82.08487906 -45 85 C-45.53863681 87.86356915 -45.10986928 90.31203534 -44 93 C-41.13343033 94.68331939 -41.13343033 94.68331939 -38 96 C-36.25 99.125 -36.25 99.125 -35 102 C-32.70691037 103.14654482 -31.20090344 103.19729117 -28.6484375 103.31640625 C-27.79765625 103.35830078 -26.946875 103.40019531 -26.0703125 103.44335938 C-25.18085938 103.48267578 -24.29140625 103.52199219 -23.375 103.5625 C-22.02921875 103.62727539 -22.02921875 103.62727539 -20.65625 103.69335938 C-18.43765717 103.79956861 -16.2189512 103.90161194 -14 104 C-23.94375609 119.09642971 -39.65170916 128.47091742 -56.6875 133.5 C-57.54206787 133.75555664 -58.39663574 134.01111328 -59.27709961 134.27441406 C-65.98520399 136.1030203 -70.65605151 136 -78 136 C-78 93.76 -78 51.52 -78 8 C-67.44 8 -56.88 8 -46 8 C-46 23.84 -46 39.68 -46 56 C-38.08 56 -30.16 56 -22 56 C-22 48.08 -22 40.16 -22 32 C-18.04 31.505 -18.04 31.505 -14 31 C-14.94875 30.2575 -15.8975 29.515 -16.875 28.75 C-19.43255112 26.74843826 -20.84626242 25.05849302 -22 22 C-22.66071926 16.48376242 -22.73198334 11.5765795 -20.375 6.5 C-14.13633057 -0.06702045 -8.87259444 -1.19438771 0 0 Z " fill="#EABF9D" transform="translate(478,216)"/>
<path d="M0 0 C4.8846525 2.26787438 7.73212562 5.1153475 10 10 C10.76420174 15.67692721 10.79775329 20.37600222 8.25 25.5625 C6.27601696 27.70098163 4.44358912 29.42912128 2 31 C4.64 31.33 7.28 31.66 10 32 C10 39.92 10 47.84 10 56 C17.92 56 25.84 56 34 56 C34 40.16 34 24.32 34 8 C44.56 8 55.12 8 66 8 C66 23.84 66 39.68 66 56 C71.28 56 76.56 56 82 56 C82 66.56 82 77.12 82 88 C42.4 88 2.8 88 -38 88 C-38 77.44 -38 66.88 -38 56 C-32.72 56 -27.44 56 -22 56 C-22 48.08 -22 40.16 -22 32 C-18.04 31.505 -18.04 31.505 -14 31 C-14.94875 30.2575 -15.8975 29.515 -16.875 28.75 C-19.43255112 26.74843826 -20.84626242 25.05849302 -22 22 C-22.66071926 16.48376242 -22.73198334 11.5765795 -20.375 6.5 C-14.13633057 -0.06702045 -8.87259444 -1.19438771 0 0 Z " fill="#EABF9D" transform="translate(422,8)"/>
<path d="M0 0 C10.56 0 21.12 0 32 0 C32 15.84 32 31.68 32 48 C39.92 48 47.84 48 56 48 C56 32.16 56 16.32 56 0 C66.56 0 77.12 0 88 0 C88 15.84 88 31.68 88 48 C93.28 48 98.56 48 104 48 C104 58.56 104 69.12 104 80 C64.4 80 24.8 80 -16 80 C-16 69.44 -16 58.88 -16 48 C-10.72 48 -5.44 48 0 48 C0 32.16 0 16.32 0 0 Z " fill="#EABF9D" transform="translate(400,120)"/>
<path d="M0 0 C1.14404297 -0.0112793 2.28808594 -0.02255859 3.46679688 -0.03417969 C5.34334961 -0.0220343 5.34334961 -0.0220343 7.2578125 -0.00964355 C8.59180465 -0.01506511 9.9257908 -0.02218797 11.25976562 -0.03088379 C14.87966598 -0.04911656 18.49911024 -0.04205017 22.11901855 -0.02936745 C25.9074832 -0.01923938 29.69590882 -0.02863258 33.484375 -0.03491211 C39.84642548 -0.04218911 46.20829022 -0.03259956 52.5703125 -0.0135498 C59.92541387 0.00821921 67.28007173 0.00116786 74.63516235 -0.02085543 C80.95036617 -0.03900805 87.26543648 -0.04156848 93.58065796 -0.03110075 C97.35234853 -0.02486499 101.12383064 -0.02403225 104.89550781 -0.0372467 C108.44153603 -0.04880278 111.98699253 -0.04078487 115.53295898 -0.01766968 C117.45490737 -0.00985857 119.37690412 -0.02174065 121.29882812 -0.03417969 C123.01489258 -0.01726074 123.01489258 -0.01726074 124.765625 0 C125.75965332 0.0015081 126.75368164 0.0030162 127.77783203 0.00457001 C131.09986205 0.64649121 132.29157916 1.90545791 134.3828125 4.50793457 C134.89074707 6.48059082 134.89074707 6.48059082 134.90039062 8.57043457 C134.91299927 9.35805176 134.92560791 10.14566895 134.93859863 10.95715332 C134.93050171 11.79891113 134.92240479 12.64066895 134.9140625 13.50793457 C134.9178894 14.38062988 134.92171631 15.2533252 134.92565918 16.15246582 C134.9283774 17.99492549 134.92102244 19.83742381 134.90429688 21.67980957 C134.88288498 24.49839391 134.90410051 27.31442942 134.9296875 30.13293457 C134.92704421 31.92460686 134.92191919 33.71627756 134.9140625 35.50793457 C134.92215942 36.34969238 134.93025635 37.1914502 134.93859863 38.05871582 C134.91968567 39.2401416 134.91968567 39.2401416 134.90039062 40.44543457 C134.89720825 41.13508301 134.89402588 41.82473145 134.89074707 42.53527832 C134.14043358 45.44925717 132.68574862 46.61296795 130.3828125 48.50793457 C127.77783203 49.01129913 127.77783203 49.01129913 124.765625 49.01586914 C123.62158203 49.02714844 122.47753906 49.03842773 121.29882812 49.05004883 C120.04779297 49.0419519 118.79675781 49.03385498 117.5078125 49.0255127 C116.17382035 49.03093425 114.8398342 49.03805711 113.50585938 49.04675293 C109.88595902 49.0649857 106.26651476 49.05791931 102.64660645 49.04523659 C98.8581418 49.03510852 95.06971618 49.04450172 91.28125 49.05078125 C84.91919952 49.05805825 78.55733478 49.0484687 72.1953125 49.02941895 C64.84021113 49.00764993 57.48555327 49.01470128 50.13046265 49.03672457 C43.81525883 49.05487719 37.50018852 49.05743762 31.18496704 49.04696989 C27.41327647 49.04073413 23.64179436 49.03990139 19.87011719 49.05311584 C16.32408897 49.06467192 12.77863247 49.05665401 9.23266602 49.03353882 C7.31071763 49.02572771 5.38872088 49.03760979 3.46679688 49.05004883 C2.32275391 49.03876953 1.17871094 49.02749023 0 49.01586914 C-0.99402832 49.01436104 -1.98805664 49.01285294 -3.01220703 49.01129913 C-6.33423705 48.36937793 -7.52595416 47.11041123 -9.6171875 44.50793457 C-10.12512207 42.53527832 -10.12512207 42.53527832 -10.13476562 40.44543457 C-10.14737427 39.65781738 -10.15998291 38.8702002 -10.17297363 38.05871582 C-10.16487671 37.21695801 -10.15677979 36.3752002 -10.1484375 35.50793457 C-10.1522644 34.63523926 -10.15609131 33.76254395 -10.16003418 32.86340332 C-10.1627524 31.02094365 -10.15539744 29.17844533 -10.13867188 27.33605957 C-10.11725998 24.51747523 -10.13847551 21.70143972 -10.1640625 18.88293457 C-10.16141921 17.09126228 -10.15629419 15.29959158 -10.1484375 13.50793457 C-10.15653442 12.66617676 -10.16463135 11.82441895 -10.17297363 10.95715332 C-10.16036499 10.16953613 -10.14775635 9.38191895 -10.13476562 8.57043457 C-10.13158325 7.88078613 -10.12840088 7.1911377 -10.12512207 6.48059082 C-8.76956948 1.21605588 -4.95398674 0.007516 0 0 Z " fill="#AA9F9F" transform="translate(193.6171875,95.4920654296875)"/>
<path d="M0 0 C26.4 0 52.8 0 80 0 C80 11.55 80 23.1 80 35 C74 33 74 33 72 32 C71.525625 31.01 71.05125 30.02 70.5625 29 C69.29136173 25.71082942 69.29136173 25.71082942 66 25 C61.8700764 24.75129208 57.74013364 24.72933613 53.60327148 24.70483398 C52.24444178 24.6932923 50.88565819 24.67280546 49.52709961 24.64331055 C47.56136325 24.60064451 45.59506359 24.58706945 43.62890625 24.57421875 C42.45400635 24.55963623 41.27910645 24.54505371 40.06860352 24.5300293 C36.39083465 25.09329647 35.2337741 26.08487906 33 29 C32.46136319 31.86356915 32.89013072 34.31203534 34 37 C36.86656967 38.68331939 36.86656967 38.68331939 40 40 C41.75 43.125 41.75 43.125 43 46 C45.9528472 47.4764236 48.68448983 47.22272939 51.9765625 47.31640625 C52.66181 47.33718735 53.3470575 47.35796844 54.05307007 47.37937927 C56.24361069 47.44480185 58.43427189 47.50372554 60.625 47.5625 C62.1093875 47.60569218 63.59376278 47.6493067 65.078125 47.69335938 C68.71862084 47.80047553 72.35925251 47.90176362 76 48 C70.41200327 68.12025596 57.58505288 83.30878634 39.76171875 93.9296875 C33.30885744 97.39800742 26.83099266 99.89773677 19.8125 101.9375 C18.74491455 102.25509277 18.74491455 102.25509277 17.65576172 102.57910156 C11.3711481 104.26553274 6.95254919 104 0 104 C0 69.68 0 35.36 0 0 Z " fill="#EABF9D" transform="translate(400,376)"/>
<path d="M0 0 C26.4 0 52.8 0 80 0 C80 11.55 80 23.1 80 35 C74 33 74 33 72 32 C71.525625 31.01 71.05125 30.02 70.5625 29 C69.29136173 25.71082942 69.29136173 25.71082942 66 25 C61.8700764 24.75129208 57.74013364 24.72933613 53.60327148 24.70483398 C52.24444178 24.6932923 50.88565819 24.67280546 49.52709961 24.64331055 C47.56136325 24.60064451 45.59506359 24.58706945 43.62890625 24.57421875 C42.45400635 24.55963623 41.27910645 24.54505371 40.06860352 24.5300293 C36.39083465 25.09329647 35.2337741 26.08487906 33 29 C32.46136319 31.86356915 32.89013072 34.31203534 34 37 C36.86656967 38.68331939 36.86656967 38.68331939 40 40 C41.75 43.125 41.75 43.125 43 46 C45.9528472 47.4764236 48.68448983 47.22272939 51.9765625 47.31640625 C52.66181 47.33718735 53.3470575 47.35796844 54.05307007 47.37937927 C56.24361069 47.44480185 58.43427189 47.50372554 60.625 47.5625 C62.1093875 47.60569218 63.59376278 47.6493067 65.078125 47.69335938 C68.71862084 47.80047553 72.35925251 47.90176362 76 48 C70.41200327 68.12025596 57.58505288 83.30878634 39.76171875 93.9296875 C33.30885744 97.39800742 26.83099266 99.89773677 19.8125 101.9375 C18.74491455 102.25509277 18.74491455 102.25509277 17.65576172 102.57910156 C11.3711481 104.26553274 6.95254919 104 0 104 C0 69.68 0 35.36 0 0 Z " fill="#EABF9D" transform="translate(8,376)"/>
<path d="M0 0 C7.92 0 15.84 0 24 0 C24 10.56 24 21.12 24 32 C22.02 32.99 20.04 33.98 18 35 C16.57958179 37.84083641 16.68547728 39.85477278 17 43 C19.23206431 45.84780619 20.54992999 46.84997666 24 48 C24.09352754 66.37629355 24.16402039 84.75252514 24.20724869 103.12900543 C24.2278557 111.66193102 24.25594059 120.19470853 24.30175781 128.72753906 C24.34168272 136.16656454 24.36744634 143.60548276 24.37635398 151.04461241 C24.3815592 154.98198955 24.39375417 158.91905989 24.42292023 162.8563385 C24.45017896 166.56638385 24.45842411 170.27599759 24.45243073 173.98613358 C24.45404659 175.98852306 24.47551448 177.9908661 24.49768066 179.99313354 C24.45977323 188.30590004 23.42133518 193.49404574 18.32421875 200.20703125 C12.49007134 205.92978683 8.45982926 208 0 208 C0 139.36 0 70.72 0 0 Z " fill="#EABF9D" transform="translate(352,272)"/>
<path d="M0 0 C7.92 0 15.84 0 24 0 C24 10.56 24 21.12 24 32 C22.02 32.99 20.04 33.98 18 35 C16.57958179 37.84083641 16.68547728 39.85477278 17 43 C19.23206431 45.84780619 20.54992999 46.84997666 24 48 C24.09352754 66.37629355 24.16402039 84.75252514 24.20724869 103.12900543 C24.2278557 111.66193102 24.25594059 120.19470853 24.30175781 128.72753906 C24.34168272 136.16656454 24.36744634 143.60548276 24.37635398 151.04461241 C24.3815592 154.98198955 24.39375417 158.91905989 24.42292023 162.8563385 C24.45017896 166.56638385 24.45842411 170.27599759 24.45243073 173.98613358 C24.45404659 175.98852306 24.47551448 177.9908661 24.49768066 179.99313354 C24.45977323 188.30590004 23.42133518 193.49404574 18.32421875 200.20703125 C12.49007134 205.92978683 8.45982926 208 0 208 C0 139.36 0 70.72 0 0 Z " fill="#EABF9D" transform="translate(112,272)"/>
<path d="M0 0 C0.33 0 0.66 0 1 0 C1 48.18 1 96.36 1 146 C-25.4 146 -51.8 146 -79 146 C-74.81628619 141.11900056 -70.60081536 136.34455568 -66.24609375 131.625 C-64.02543909 129.25904429 -64.02543909 129.25904429 -63.11303711 127.14428711 C-61.93935404 124.87029415 -61.04737241 123.56080135 -59 122 C-54.21008055 121.11488514 -49.53725498 121.34260578 -44.6875 121.5625 C-42.71813477 121.60987305 -42.71813477 121.60987305 -40.70898438 121.65820312 C-37.47038991 121.74064008 -34.2363306 121.85567672 -31 122 C-31.05760498 120.75726318 -31.11520996 119.51452637 -31.17456055 118.23413086 C-33.00974496 74.86450604 -33.00974496 74.86450604 -21.46630859 56.51171875 C-18.89474019 52.1067411 -17.16472698 47.38890298 -15.375 42.625 C-14.83842773 41.22544067 -14.83842773 41.22544067 -14.29101562 39.79760742 C-9.28162773 26.63442532 -4.37184245 13.39019807 0 0 Z " fill="#938383" transform="translate(351,326)"/>
<path d="M0 0 C0 21.12 0 42.24 0 64 C-31.35 64 -62.7 64 -95 64 C-91.93906748 60.17383435 -89.72743566 57.79260589 -86 54.875 C-81.85009592 51.55286934 -77.88397719 48.12256172 -74 44.5 C-69.39053293 40.20986124 -64.62211689 36.19585018 -59.71484375 32.24609375 C-56.89326505 29.9116941 -54.19409288 27.48009402 -51.5 25 C-47.06424052 20.91708503 -42.47829546 17.09402224 -37.78515625 13.3125 C-33.79812821 10.00209243 -30.00945606 6.49659616 -26.21484375 2.96875 C-18.31490148 -4.05342091 -15.07132584 0 0 0 Z " fill="#E8E7E6" transform="translate(320,384)"/>
<path d="M0 0 C47.52 0 95.04 0 144 0 C144 7.92 144 15.84 144 24 C96.48 24 48.96 24 0 24 C0 16.08 0 8.16 0 0 Z " fill="#EBC09E" transform="translate(184,360)"/>
<path d="M0 0 C1.25079346 -0.00549866 2.50158691 -0.01099731 3.7902832 -0.0166626 C5.17364886 -0.00250694 6.55701064 0.01203228 7.94036865 0.0269165 C9.39906788 0.02804496 10.85776938 0.02741115 12.31646729 0.02514648 C16.27498085 0.02399832 20.23301007 0.04752373 24.19141102 0.07544231 C28.32871359 0.10043916 32.46602713 0.10279661 36.60339355 0.10754395 C44.43737946 0.1199788 52.27114221 0.15280722 60.10502982 0.1929419 C69.02390564 0.23764383 77.94279209 0.25964267 86.86175203 0.27972364 C105.20807109 0.32153947 123.5541824 0.39190135 141.90032959 0.48101807 C141.94427298 2.73865674 141.97575416 4.99654056 142.00189209 7.25445557 C142.0301709 9.14043457 142.0301709 9.14043457 142.059021 11.06451416 C141.85889141 15.37315014 140.94988961 17.43145804 137.90032959 20.48101807 C133.26180887 24.14930076 130.22100291 24.98439865 124.33782959 24.99859619 C123.60531982 25.00560547 122.87281006 25.01261475 122.11810303 25.01983643 C119.71178577 25.03735204 117.3066575 25.02581761 114.90032959 25.01226807 C113.21933773 25.01496486 111.53834738 25.01884883 109.85736084 25.02386475 C106.34028216 25.02975104 102.82361079 25.02122515 99.30657959 25.00250244 C94.8073077 24.97971308 90.30899032 24.99284087 85.80975342 25.0167923 C82.34036112 25.03127398 78.87119365 25.0266335 75.40179443 25.01628113 C73.74326463 25.01362037 72.08471415 25.01686063 70.4262085 25.02619934 C68.10453538 25.03640453 65.78438948 25.02081085 63.46282959 24.99859619 C62.14411865 24.99541382 60.82540771 24.99223145 59.46673584 24.98895264 C55.26953409 24.39117893 53.13612011 23.18649517 49.90032959 20.48101807 C48.52532959 18.23101807 48.52532959 18.23101807 47.90032959 16.48101807 C47.23269592 16.48990051 46.56506226 16.49878296 45.87719727 16.50793457 C38.93447421 16.5963628 31.99191088 16.65673383 25.04876709 16.70074463 C22.45690413 16.72087182 19.86508663 16.74817622 17.27337646 16.78277588 C13.5499551 16.83124308 9.8271336 16.85397623 6.10345459 16.87164307 C4.36264618 16.90261078 4.36264618 16.90261078 2.58666992 16.9342041 C0.9654422 16.93465729 0.9654422 16.93465729 -0.6885376 16.93511963 C-2.11417023 16.9484433 -2.11417023 16.9484433 -3.56860352 16.96203613 C-6.84823879 16.33875596 -8.03028882 15.04071441 -10.09967041 12.48101807 C-10.63092041 10.48101807 -10.63092041 10.48101807 -10.59967041 8.48101807 C-10.61513916 7.49101807 -10.61513916 7.49101807 -10.63092041 6.48101807 C-9.15866905 0.93842472 -5.18242817 -0.01756755 0 0 Z " fill="#AA9E9E" transform="translate(162.09967041015625,199.51898193359375)"/>
<path d="M0 0 C21.12 0 42.24 0 64 0 C64 15.84 64 31.68 64 48 C42.88 48 21.76 48 0 48 C0 32.16 0 16.32 0 0 Z " fill="#938383" transform="translate(224,8)"/>
<path d="M0 0 C1.91541138 -0.10841951 3.83259773 -0.18578079 5.75 -0.25 C6.81734375 -0.29640625 7.8846875 -0.3428125 8.984375 -0.390625 C12 0 12 0 14.15527344 1.46191406 C16.8735092 5.20182658 16.57469474 8.48347606 16.53125 13 C16.5350769 13.87269531 16.53890381 14.74539062 16.54284668 15.64453125 C16.5455649 17.48699092 16.53820994 19.32948924 16.52148438 21.171875 C16.50007248 23.99045934 16.52128801 26.80649485 16.546875 29.625 C16.54423171 31.41667229 16.53910669 33.20834299 16.53125 35 C16.53934692 35.84175781 16.54744385 36.68351562 16.55578613 37.55078125 C16.53687317 38.73220703 16.53687317 38.73220703 16.51757812 39.9375 C16.51439575 40.62714844 16.51121338 41.31679687 16.50793457 42.02734375 C15.75762108 44.9413226 14.30293612 46.10503338 12 48 C9.39501953 48.50336456 9.39501953 48.50336456 6.3828125 48.50793457 C5.23876953 48.51921387 4.09472656 48.53049316 2.91601562 48.54211426 C1.66498047 48.53401733 0.41394531 48.52592041 -0.875 48.51757812 C-2.20899215 48.52299968 -3.5429783 48.53012254 -4.87695312 48.53881836 C-8.49685348 48.55705113 -12.11629774 48.54998474 -15.73620605 48.53730202 C-19.5246707 48.52717395 -23.31309632 48.53656715 -27.1015625 48.54284668 C-33.46361298 48.55012368 -39.82547772 48.54053413 -46.1875 48.52148438 C-53.54260137 48.49971536 -60.89725923 48.50676671 -68.25234985 48.52879 C-74.56755367 48.54694262 -80.88262398 48.54950305 -87.19784546 48.53903532 C-90.96953603 48.53279956 -94.74101814 48.53196682 -98.51269531 48.54518127 C-102.05872353 48.55673735 -105.60418003 48.54871944 -109.15014648 48.52560425 C-111.07209487 48.51779314 -112.99409162 48.52967522 -114.91601562 48.54211426 C-116.06005859 48.53083496 -117.20410156 48.51955566 -118.3828125 48.50793457 C-119.37684082 48.50642647 -120.37086914 48.50491837 -121.39501953 48.50336456 C-124.73921919 47.85715949 -125.9350615 46.66145349 -128 44 C-128.390625 40.984375 -128.390625 40.984375 -128.25 37.75 C-128.21390625 36.67234375 -128.1778125 35.5946875 -128.140625 34.484375 C-128.07101563 33.25460938 -128.07101563 33.25460938 -128 32 C-126.7693985 31.99413376 -125.538797 31.98826752 -124.27090454 31.98222351 C-112.64813784 31.92489878 -101.02555648 31.85208617 -89.4029789 31.76428509 C-83.42833441 31.71964353 -77.45375714 31.68037359 -71.47900391 31.65356445 C-65.70818673 31.62746968 -59.93762908 31.58702334 -54.16697311 31.53681374 C-51.97031264 31.52018679 -49.77360733 31.50864663 -47.57689285 31.50238609 C-44.48930188 31.49269967 -41.40236865 31.4645858 -38.31494141 31.43237305 C-37.41582031 31.43380814 -36.51669922 31.43524323 -35.59033203 31.4367218 C-25.72979029 31.29214929 -16.42048079 28.72392225 -9 22 C-3.65635673 15.45462036 -1.60161604 8.17667137 0 0 Z " fill="#938383" transform="translate(312,96)"/>
<path d="M0 0 C36.63 0 73.26 0 111 0 C103.25741174 7.74258826 95.49426601 14.5325215 86.20141602 20.32714844 C83.61463388 21.94562869 81.13115618 23.62801002 78.67993164 25.44335938 C65.14713816 34.69473231 49.35741307 33.04313549 33.70117188 32.61798096 C29.21945732 32.50813738 24.73659897 32.46812832 20.25391388 32.41590118 C13.50030275 32.32965112 6.75399409 32.15688945 0 32 C0 21.44 0 10.88 0 0 Z " fill="#E7E6E5" transform="translate(160,472)"/>
<path d="M0 0 C6.0799824 3.60527882 10.56424322 8.93543847 13.5625 15.3125 C14.704621 20.51282756 14.69170691 25.57424852 14.66015625 30.8671875 C14.6587413 31.76873566 14.65732635 32.67028381 14.65586853 33.59915161 C14.6502974 36.461969 14.63775026 39.32470648 14.625 42.1875 C14.61998127 44.13541553 14.61541901 46.0833323 14.61132812 48.03125 C14.60033742 52.79169718 14.58309277 57.55208507 14.5625 62.3125 C19.5125 62.3125 24.4625 62.3125 29.5625 62.3125 C29.63197789 66.2598734 29.69151982 70.20565729 29.72729492 74.15332031 C29.74951479 76.14402905 29.78766595 78.13453968 29.82617188 80.125 C29.91962973 92.46143721 28.2108858 101.23259391 19.5625 110.3125 C13.42220208 116.10605169 5.88960474 118.3125 -2.4375 118.3125 C-2.4375 99.8325 -2.4375 81.3525 -2.4375 62.3125 C0.2025 62.3125 2.8425 62.3125 5.5625 62.3125 C5.5625 49.1125 5.5625 35.9125 5.5625 22.3125 C-7.6375 22.3125 -20.8375 22.3125 -34.4375 22.3125 C-34.4375 14.51926202 -33.21109624 11.21157828 -28.4375 5.3125 C-20.40484068 -1.46334868 -10.03984741 -4.75168351 0 0 Z " fill="#E7E6E5" transform="translate(66.4375,137.6875)"/>
<path d="M0 0 C3 0.125 3 0.125 4 1.125 C4.09492722 3.46753782 4.12559791 5.78046104 4.11352539 8.12329102 C4.11367142 8.85495483 4.11381744 9.58661865 4.1139679 10.3404541 C4.11326867 12.76996784 4.10547585 15.19940583 4.09765625 17.62890625 C4.0957921 19.30899514 4.09436819 20.98908457 4.09336853 22.66917419 C4.08954307 27.09973643 4.07971256 31.5302661 4.06866455 35.96081543 C4.05845103 40.47842976 4.05387104 44.99604934 4.04882812 49.51367188 C4.03809031 58.38412893 4.02101356 67.25456176 4 76.125 C5.32 76.125 6.64 76.125 8 76.125 C8 99.885 8 123.645 8 148.125 C-7.84 148.125 -23.68 148.125 -40 148.125 C-40 142.845 -40 137.565 -40 132.125 C-38.205625 131.733125 -36.41125 131.34125 -34.5625 130.9375 C-25.37766319 128.59266519 -19.42349077 125.36771901 -13.5078125 117.89453125 C-8.68029144 109.02740059 -8.48464114 99.91532953 -8.3125 90 C-8.27924547 88.64840615 -8.24474864 87.29684227 -8.20898438 85.9453125 C-8.12715053 82.67195888 -8.05778887 79.39885146 -8 76.125 C-6.68 76.125 -5.36 76.125 -4 76.125 C-4.00222061 75.1876149 -4.00444122 74.2502298 -4.00672913 73.28443909 C-4.02696143 64.46978215 -4.04197256 55.6551299 -4.05181217 46.84045506 C-4.05704078 42.30825906 -4.06413801 37.77608173 -4.07543945 33.24389648 C-4.08626914 28.8737717 -4.09227701 24.50366492 -4.09487724 20.13352776 C-4.09673135 18.46249037 -4.10035168 16.79145403 -4.10573006 15.12042427 C-4.11294159 12.78802449 -4.1139909 10.45570007 -4.11352539 8.12329102 C-4.11712067 7.4255809 -4.12071594 6.72787079 -4.12442017 6.00901794 C-4.11173134 0.17132214 -4.11173134 0.17132214 0 0 Z " fill="#CCCACA" transform="translate(104,123.875)"/>
<path d="M0 0 C5.28 0 10.56 0 16 0 C16 10.56 16 21.12 16 32 C-23.6 32 -63.2 32 -104 32 C-104 26.72 -104 21.44 -104 16 C-102.31323402 15.99120064 -102.31323402 15.99120064 -100.59239197 15.98222351 C-89.98409222 15.92495854 -79.37599673 15.852177 -68.76790524 15.76428509 C-63.31444215 15.71959765 -57.86105349 15.68033778 -52.4074707 15.65356445 C-47.14239347 15.62751549 -41.87760289 15.58710141 -36.61270332 15.53681374 C-34.60615167 15.52015587 -32.59955044 15.50863488 -30.59293938 15.50238609 C-27.77771986 15.49273338 -24.96323193 15.46465977 -22.14819336 15.43237305 C-20.90956795 15.43452568 -20.90956795 15.43452568 -19.6459198 15.4367218 C-13.34884928 15.33488702 -8.36192324 14.29808748 -3.6875 9.75 C-1.51312766 6.48288869 -1.51312766 6.48288869 0 0 Z " fill="#E09D70" transform="translate(488,168)"/>
<path d="M0 0 C5.28 0 10.56 0 16 0 C16 10.56 16 21.12 16 32 C-23.6 32 -63.2 32 -104 32 C-104 26.72 -104 21.44 -104 16 C-102.31323402 15.99120064 -102.31323402 15.99120064 -100.59239197 15.98222351 C-89.98409222 15.92495854 -79.37599673 15.852177 -68.76790524 15.76428509 C-63.31444215 15.71959765 -57.86105349 15.68033778 -52.4074707 15.65356445 C-47.14239347 15.62751549 -41.87760289 15.58710141 -36.61270332 15.53681374 C-34.60615167 15.52015587 -32.59955044 15.50863488 -30.59293938 15.50238609 C-27.77771986 15.49273338 -24.96323193 15.46465977 -22.14819336 15.43237305 C-20.90956795 15.43452568 -20.90956795 15.43452568 -19.6459198 15.4367218 C-13.34884928 15.33488702 -8.36192324 14.29808748 -3.6875 9.75 C-1.51312766 6.48288869 -1.51312766 6.48288869 0 0 Z " fill="#E09D70" transform="translate(488,64)"/>
<path d="M0 0 C10.56 0 21.12 0 32 0 C32 15.84 32 31.68 32 48 C21.44 48 10.88 48 0 48 C0 32.16 0 16.32 0 0 Z " fill="#938383" transform="translate(400,224)"/>
<path d="M0 0 C10.56 0 21.12 0 32 0 C32 15.84 32 31.68 32 48 C21.44 48 10.88 48 0 48 C0 32.16 0 16.32 0 0 Z " fill="#938383" transform="translate(456,120)"/>
<path d="M0 0 C10.56 0 21.12 0 32 0 C32 15.84 32 31.68 32 48 C21.44 48 10.88 48 0 48 C0 32.16 0 16.32 0 0 Z " fill="#938383" transform="translate(400,120)"/>
<path d="M0 0 C10.56 0 21.12 0 32 0 C32 15.84 32 31.68 32 48 C21.44 48 10.88 48 0 48 C0 32.16 0 16.32 0 0 Z " fill="#938383" transform="translate(456,16)"/>
<path d="M0 0 C18.81 0 37.62 0 57 0 C50.48062121 6.51937879 43.73312601 12.64150043 36.5625 18.4375 C32.75912497 21.51336588 29.09917348 24.68753166 25.5 28 C20.99778272 32.1425537 16.35164652 36.04331013 11.58984375 39.8828125 C8.46961794 42.43358534 5.45613977 45.0894742 2.4609375 47.78515625 C1 49 1 49 0 49 C0 32.83 0 16.66 0 0 Z " fill="#E8E7E6" transform="translate(192,384)"/>
<path d="M0 0 C31.10262084 -2.24764514 31.10262084 -2.24764514 37.25390625 2.40234375 C39.6869168 4.99428848 41.37383901 7.94830249 42.97070312 11.109375 C44.77538248 14.42423195 47.23817516 17.21722996 49.625 20.125 C50.53291183 21.28675228 51.4379094 22.45078849 52.33984375 23.6171875 C55.5986232 27.79253601 59.00029524 31.84448263 62.41796875 35.890625 C64 38 64 38 64 40 C59.58950123 40.22412628 55.18209292 40.38651489 50.76757812 40.49438477 C49.2695946 40.53938233 47.7720006 40.60060971 46.27539062 40.67895508 C33.90340666 41.30992626 33.90340666 41.30992626 29.3659668 38.18725586 C27.31463188 35.89916341 25.64928902 33.58920926 24 31 C23.10260919 29.86350076 22.19374476 28.73588977 21.26953125 27.62109375 C20.44781876 26.56198674 19.62883463 25.50075766 18.8125 24.4375 C13.9977229 18.2292228 9.06118379 12.12828088 4.0637207 6.06616211 C0 1.10707672 0 1.10707672 0 0 Z " fill="#DAD4D4" transform="translate(256,56)"/>
<path d="M0 0 C15.84 0 31.68 0 48 0 C46.97147821 9.25669608 44.86295194 17.32253325 38 24 C28.8229814 30.32405945 21.67214796 32.30887505 10.625 32.125 C7.11875 32.08375 3.6125 32.0425 0 32 C0 21.44 0 10.88 0 0 Z " fill="#A99E9E" transform="translate(224,8)"/>
<path d="M0 0 C6.0799824 3.60527882 10.56424322 8.93543847 13.5625 15.3125 C14.704621 20.51282756 14.69170691 25.57424852 14.66015625 30.8671875 C14.6587413 31.76873566 14.65732635 32.67028381 14.65586853 33.59915161 C14.6502974 36.461969 14.63775026 39.32470648 14.625 42.1875 C14.61998127 44.13541553 14.61541901 46.0833323 14.61132812 48.03125 C14.60033742 52.79169718 14.58309277 57.55208507 14.5625 62.3125 C11.5925 62.3125 8.6225 62.3125 5.5625 62.3125 C5.5625 49.1125 5.5625 35.9125 5.5625 22.3125 C-7.6375 22.3125 -20.8375 22.3125 -34.4375 22.3125 C-34.4375 14.51926202 -33.21109624 11.21157828 -28.4375 5.3125 C-20.40484068 -1.46334868 -10.03984741 -4.75168351 0 0 Z " fill="#DAD4D4" transform="translate(66.4375,137.6875)"/>
<path d="M0 0 C1.56116547 0.00045319 1.56116547 0.00045319 3.15386963 0.00091553 C4.8290567 0.03188324 4.8290567 0.03188324 6.53808594 0.06347656 C8.26088776 0.07196625 8.26088776 0.07196625 10.01849365 0.08062744 C13.68690668 0.10301825 17.3543431 0.15322215 21.02246094 0.20410156 C23.509426 0.22416295 25.99640637 0.24241435 28.48339844 0.25878906 C34.58008583 0.30289201 40.67620361 0.36983207 46.77246094 0.45410156 C46.83304688 1.35773438 46.89363281 2.26136719 46.95605469 3.19238281 C47.03984375 4.371875 47.12363281 5.55136719 47.20996094 6.76660156 C47.29117188 7.93835938 47.37238281 9.11011719 47.45605469 10.31738281 C47.65919804 13.48001114 47.65919804 13.48001114 48.77246094 16.45410156 C41.1553889 16.55544192 33.53849041 16.62554217 25.92089844 16.67382812 C23.32903547 16.69395532 20.73721798 16.72125972 18.14550781 16.75585938 C14.42208645 16.80432657 10.69926495 16.82705972 6.97558594 16.84472656 C5.23477753 16.87569427 5.23477753 16.87569427 3.45880127 16.9072876 C1.83757355 16.90774078 1.83757355 16.90774078 0.18359375 16.90820312 C-1.24203888 16.92152679 -1.24203888 16.92152679 -2.69647217 16.93511963 C-5.97610744 16.31183945 -7.15815747 15.0137979 -9.22753906 12.45410156 C-9.75878906 10.45410156 -9.75878906 10.45410156 -9.72753906 8.45410156 C-9.74300781 7.46410156 -9.74300781 7.46410156 -9.75878906 6.45410156 C-8.41637945 1.40032422 -4.84751011 -0.0470632 0 0 Z " fill="#7B6D6D" transform="translate(161.2275390625,199.5458984375)"/>
<path d="M0 0 C4.8846525 2.26787438 7.73212562 5.1153475 10 10 C10.75381535 15.5997712 10.77303575 20.33499991 8.375 25.5 C3.80134327 30.3143755 0.6912538 32.25156236 -6 32.5 C-12.6912538 32.25156236 -15.80134327 30.3143755 -20.375 25.5 C-22.77303575 20.33499991 -22.75381535 15.5997712 -22 10 C-17.52212837 0.3553534 -9.85292056 -1.32635469 0 0 Z " fill="#87A70D" transform="translate(478,216)"/>
<path d="M0 0 C4.8846525 2.26787438 7.73212562 5.1153475 10 10 C10.75381535 15.5997712 10.77303575 20.33499991 8.375 25.5 C3.80134327 30.3143755 0.6912538 32.25156236 -6 32.5 C-12.6912538 32.25156236 -15.80134327 30.3143755 -20.375 25.5 C-22.77303575 20.33499991 -22.75381535 15.5997712 -22 10 C-17.52212837 0.3553534 -9.85292056 -1.32635469 0 0 Z " fill="#87A70D" transform="translate(422,8)"/>
<path d="M0 0 C5.67476113 1.96434039 9.31400331 5.62800662 12 11 C12.59057744 16.67862925 12.29370905 21.16922672 9 26 C4.99653611 30.03627917 1.41408246 32.12458106 -4.3125 32.3125 C-8.94226662 32.25237316 -11.4369151 31.06591027 -15 28 C-19.3022759 23.23261319 -20.36282503 19.56252705 -20.28125 13.28125 C-19.69180611 8.50020514 -16.85179203 5.75038822 -13.375 2.6875 C-8.92314854 -0.47565762 -5.3540278 -0.48837416 0 0 Z " fill="#7C6D6D" transform="translate(308,288)"/>
<path d="M0 0 C5.67476113 1.96434039 9.31400331 5.62800662 12 11 C12.59057744 16.67862925 12.29370905 21.16922672 9 26 C4.99653611 30.03627917 1.41408246 32.12458106 -4.3125 32.3125 C-8.94226662 32.25237316 -11.4369151 31.06591027 -15 28 C-19.3022759 23.23261319 -20.36282503 19.56252705 -20.28125 13.28125 C-19.69180611 8.50020514 -16.85179203 5.75038822 -13.375 2.6875 C-8.92314854 -0.47565762 -5.3540278 -0.48837416 0 0 Z " fill="#7C6D6D" transform="translate(260,288)"/>
<path d="M0 0 C5.67476113 1.96434039 9.31400331 5.62800662 12 11 C12.59057744 16.67862925 12.29370905 21.16922672 9 26 C4.99653611 30.03627917 1.41408246 32.12458106 -4.3125 32.3125 C-8.94226662 32.25237316 -11.4369151 31.06591027 -15 28 C-19.3022759 23.23261319 -20.36282503 19.56252705 -20.28125 13.28125 C-19.69180611 8.50020514 -16.85179203 5.75038822 -13.375 2.6875 C-8.92314854 -0.47565762 -5.3540278 -0.48837416 0 0 Z " fill="#7C6D6D" transform="translate(212,288)"/>
<path d="M0 0 C1.09054687 0.02320313 2.18109375 0.04640625 3.3046875 0.0703125 C4.40039062 0.08835937 5.49609375 0.10640625 6.625 0.125 C7.88957031 0.15980469 7.88957031 0.15980469 9.1796875 0.1953125 C5.43639653 5.22939347 1.03005862 8.86713397 -3.859375 12.7734375 C-6.77527149 15.15847157 -9.55203384 17.64119866 -12.3203125 20.1953125 C-16.76758362 24.28882341 -21.36748713 28.11973749 -26.0703125 31.9140625 C-28.90130828 34.26250218 -31.61414848 36.70441152 -34.3203125 39.1953125 C-38.779984 43.29973278 -43.38843995 47.14972445 -48.10546875 50.953125 C-51.75521985 53.96745181 -55.24436651 57.14245312 -58.7265625 60.34765625 C-62.68383343 63.83980019 -64.81008118 64.43209167 -70.0078125 64.3203125 C-71.09449219 64.30226563 -72.18117187 64.28421875 -73.30078125 64.265625 C-74.13222656 64.24242187 -74.96367187 64.21921875 -75.8203125 64.1953125 C-68.15613033 56.44871977 -60.04759054 49.31618456 -51.5703125 42.4765625 C-48.73931672 40.12812282 -46.02647652 37.68621348 -43.3203125 35.1953125 C-38.87304138 31.10180159 -34.27313787 27.27088751 -29.5703125 23.4765625 C-25.79471794 20.34453519 -22.21328214 17.01761547 -18.60546875 13.6953125 C-14.85617306 10.32988579 -10.96196604 7.16278162 -7.03515625 4.0078125 C-2.33530314 0.16172459 -2.33530314 0.16172459 0 0 Z " fill="#E8E7E6" transform="translate(275.8203125,383.8046875)"/>
<path d="M0 0 C10.56 0 21.12 0 32 0 C32 7.92 32 15.84 32 24 C21.44 24 10.88 24 0 24 C0 16.08 0 8.16 0 0 Z " fill="#CCCACA" transform="translate(456,248)"/>
<path d="M0 0 C10.56 0 21.12 0 32 0 C32 7.92 32 15.84 32 24 C21.44 24 10.88 24 0 24 C0 16.08 0 8.16 0 0 Z " fill="#E8E7E6" transform="translate(400,224)"/>
<path d="M0 0 C10.56 0 21.12 0 32 0 C32 7.92 32 15.84 32 24 C21.44 24 10.88 24 0 24 C0 16.08 0 8.16 0 0 Z " fill="#CCCACA" transform="translate(456,120)"/>
<path d="M0 0 C10.56 0 21.12 0 32 0 C32 7.92 32 15.84 32 24 C21.44 24 10.88 24 0 24 C0 16.08 0 8.16 0 0 Z " fill="#E8E7E6" transform="translate(400,120)"/>
<path d="M0 0 C10.56 0 21.12 0 32 0 C32 7.92 32 15.84 32 24 C21.44 24 10.88 24 0 24 C0 16.08 0 8.16 0 0 Z " fill="#CCCACA" transform="translate(400,40)"/>
<path d="M0 0 C10.56 0 21.12 0 32 0 C32 7.92 32 15.84 32 24 C21.44 24 10.88 24 0 24 C0 16.08 0 8.16 0 0 Z " fill="#CCCACA" transform="translate(456,16)"/>
<path d="M0 0 C1.051875 -0.00515625 2.10375 -0.0103125 3.1875 -0.015625 C4.280625 -0.00015625 5.37375 0.0153125 6.5 0.03125 C8.1396875 0.00804687 8.1396875 0.00804687 9.8125 -0.015625 C10.864375 -0.01046875 11.91625 -0.0053125 13 0 C14.43859375 0.00676758 14.43859375 0.00676758 15.90625 0.01367188 C19.3335363 0.69758066 20.48700092 1.68778645 22.5 4.53125 C22.95410156 7.55566406 22.95410156 7.55566406 22.890625 11.046875 C22.87773437 12.29726562 22.86484375 13.54765625 22.8515625 14.8359375 C22.81804687 16.13789063 22.78453125 17.43984375 22.75 18.78125 C22.73195313 20.09867187 22.71390625 21.41609375 22.6953125 22.7734375 C22.64816882 26.02635156 22.57642616 29.27889217 22.5 32.53125 C17.22 32.53125 11.94 32.53125 6.5 32.53125 C6.5 27.25125 6.5 21.97125 6.5 16.53125 C4.6025 16.61375 2.705 16.69625 0.75 16.78125 C-4.84109091 17.02434091 -4.84109091 17.02434091 -7.859375 14.765625 C-9.59023982 12.40835195 -10.04492653 11.40654794 -10 8.53125 C-10.01546875 7.54125 -10.01546875 7.54125 -10.03125 6.53125 C-8.65240655 1.34030994 -4.94094259 0.02324368 0 0 Z " fill="#928383" transform="translate(281.5,239.46875)"/>
<path d="M0 0 C1.051875 -0.00515625 2.10375 -0.0103125 3.1875 -0.015625 C4.280625 -0.00015625 5.37375 0.0153125 6.5 0.03125 C8.1396875 0.00804687 8.1396875 0.00804687 9.8125 -0.015625 C10.864375 -0.01046875 11.91625 -0.0053125 13 0 C14.43859375 0.00676758 14.43859375 0.00676758 15.90625 0.01367188 C19.21298564 0.673525 20.40908706 1.94238555 22.5 4.53125 C23.03125 6.53125 23.03125 6.53125 23 8.53125 C23.0103125 9.19125 23.020625 9.85125 23.03125 10.53125 C22.23922269 13.51299986 20.95326814 14.69536059 18.5 16.53125 C14.43404512 17.05792809 10.61858117 16.71031875 6.5 16.53125 C6.5 21.81125 6.5 27.09125 6.5 32.53125 C1.22 32.53125 -4.06 32.53125 -9.5 32.53125 C-9.60771702 27.94729218 -9.68719721 23.36585364 -9.75 18.78125 C-9.78351563 17.47929687 -9.81703125 16.17734375 -9.8515625 14.8359375 C-9.86445313 13.58554688 -9.87734375 12.33515625 -9.890625 11.046875 C-9.91157227 9.89477539 -9.93251953 8.74267578 -9.95410156 7.55566406 C-9.5 4.53125 -9.5 4.53125 -7.81933594 2.15722656 C-4.99405637 0.17655688 -3.42921886 0.01613208 0 0 Z " fill="#928383" transform="translate(217.5,239.46875)"/>
<path d="M0 0 C3 0.125 3 0.125 4 1.125 C4.09492722 3.46753782 4.12559791 5.78046104 4.11352539 8.12329102 C4.11367142 8.85495483 4.11381744 9.58661865 4.1139679 10.3404541 C4.11326867 12.76996784 4.10547585 15.19940583 4.09765625 17.62890625 C4.0957921 19.30899514 4.09436819 20.98908457 4.09336853 22.66917419 C4.08954307 27.09973643 4.07971256 31.5302661 4.06866455 35.96081543 C4.05845103 40.47842976 4.05387104 44.99604934 4.04882812 49.51367188 C4.03809031 58.38412893 4.02101356 67.25456176 4 76.125 C1.36 76.125 -1.28 76.125 -4 76.125 C-4.02312446 66.36349012 -4.04091561 56.6019867 -4.05181217 46.84045506 C-4.05704078 42.30825906 -4.06413801 37.77608173 -4.07543945 33.24389648 C-4.08626914 28.8737717 -4.09227701 24.50366492 -4.09487724 20.13352776 C-4.09673135 18.46249037 -4.10035168 16.79145403 -4.10573006 15.12042427 C-4.11294159 12.78802449 -4.1139909 10.45570007 -4.11352539 8.12329102 C-4.11712067 7.4255809 -4.12071594 6.72787079 -4.12442017 6.00901794 C-4.11173134 0.17132214 -4.11173134 0.17132214 0 0 Z " fill="#AA9F9F" transform="translate(104,123.875)"/>
<path d="M0 0 C7.92 0 15.84 0 24 0 C24.48728246 12.91298527 24.48728246 12.91298527 22.375 17.625 C17.34468284 22.65531716 14.72020824 24.24570824 7.5078125 24.390625 C5.04657089 24.36416004 2.58548166 24.31663805 0.125 24.25 C-1.13570313 24.23195312 -2.39640625 24.21390625 -3.6953125 24.1953125 C-6.79765614 24.14830729 -9.8984338 24.08260676 -13 24 C-12.40445312 23.71640625 -11.80890625 23.4328125 -11.1953125 23.140625 C-7.08730072 21.00621319 -3.78030799 18.56061598 -1.6875 14.375 C-0.7244942 9.647517 -0.43679604 4.80475649 0 0 Z " fill="#938383" transform="translate(280,200)"/>
<path d="M0 0 C1.26972656 0.00257813 2.53945313 0.00515625 3.84765625 0.0078125 C5.16636719 0.03617187 6.48507812 0.06453125 7.84375 0.09375 C9.16246094 0.09117187 10.48117187 0.08859375 11.83984375 0.0859375 C23.01106169 0.19935088 23.01106169 0.19935088 27.34375 3.59375 C28.51555914 7.54860583 28.7485633 9.66267942 27.09375 13.46875 C25.34375 15.59375 25.34375 15.59375 22.34375 16.59375 C18.21346894 16.82017956 14.08306774 16.82198569 9.94702148 16.83398438 C7.91673966 16.8436998 5.8874667 16.87474209 3.85742188 16.90625 C2.57544922 16.91140625 1.29347656 16.9165625 -0.02734375 16.921875 C-1.20224365 16.9312207 -2.37714355 16.94056641 -3.58764648 16.95019531 C-6.92795458 16.56218912 -8.27640665 15.91743815 -10.65625 13.59375 C-11.44140625 11.7265625 -11.44140625 11.7265625 -11.71875 9.71875 C-11.83347656 9.06132812 -11.94820313 8.40390625 -12.06640625 7.7265625 C-10.85989613 1.45270987 -5.62319549 -0.03445969 0 0 Z " fill="#7D6E6D" transform="translate(443.65625,399.40625)"/>
<path d="M0 0 C1.26972656 0.00257813 2.53945313 0.00515625 3.84765625 0.0078125 C5.16636719 0.03617187 6.48507813 0.06453125 7.84375 0.09375 C9.16246094 0.09117187 10.48117188 0.08859375 11.83984375 0.0859375 C23.01106169 0.19935088 23.01106169 0.19935088 27.34375 3.59375 C28.51555914 7.54860583 28.7485633 9.66267942 27.09375 13.46875 C25.34375 15.59375 25.34375 15.59375 22.34375 16.59375 C18.21346894 16.82017956 14.08306774 16.82198569 9.94702148 16.83398438 C7.91673966 16.8436998 5.8874667 16.87474209 3.85742188 16.90625 C2.57544922 16.91140625 1.29347656 16.9165625 -0.02734375 16.921875 C-1.20224365 16.9312207 -2.37714355 16.94056641 -3.58764648 16.95019531 C-6.92795458 16.56218912 -8.27640665 15.91743815 -10.65625 13.59375 C-11.44140625 11.7265625 -11.44140625 11.7265625 -11.71875 9.71875 C-11.83347656 9.06132812 -11.94820312 8.40390625 -12.06640625 7.7265625 C-10.85989613 1.45270987 -5.62319549 -0.03445969 0 0 Z " fill="#7D6E6D" transform="translate(51.65625,399.40625)"/>
<path d="M0 0 C1.26972656 0.00257813 2.53945313 0.00515625 3.84765625 0.0078125 C5.16636719 0.03617187 6.48507812 0.06453125 7.84375 0.09375 C9.16246094 0.09117187 10.48117187 0.08859375 11.83984375 0.0859375 C23.01106169 0.19935088 23.01106169 0.19935088 27.34375 3.59375 C28.51555914 7.54860583 28.7485633 9.66267942 27.09375 13.46875 C25.34375 15.59375 25.34375 15.59375 22.34375 16.59375 C18.21346894 16.82017956 14.08306774 16.82198569 9.94702148 16.83398438 C7.91673966 16.8436998 5.8874667 16.87474209 3.85742188 16.90625 C2.57544922 16.91140625 1.29347656 16.9165625 -0.02734375 16.921875 C-1.20224365 16.9312207 -2.37714355 16.94056641 -3.58764648 16.95019531 C-6.92795458 16.56218912 -8.27640665 15.91743815 -10.65625 13.59375 C-11.44140625 11.7265625 -11.44140625 11.7265625 -11.71875 9.71875 C-11.83347656 9.06132812 -11.94820313 8.40390625 -12.06640625 7.7265625 C-10.85989613 1.45270987 -5.62319549 -0.03445969 0 0 Z " fill="#7D6E6D" transform="translate(443.65625,295.40625)"/>
<path d="M0 0 C1.26972656 0.00257813 2.53945313 0.00515625 3.84765625 0.0078125 C5.16636719 0.03617187 6.48507813 0.06453125 7.84375 0.09375 C9.16246094 0.09117187 10.48117188 0.08859375 11.83984375 0.0859375 C23.01106169 0.19935088 23.01106169 0.19935088 27.34375 3.59375 C28.51555914 7.54860583 28.7485633 9.66267942 27.09375 13.46875 C25.34375 15.59375 25.34375 15.59375 22.34375 16.59375 C18.21346894 16.82017956 14.08306774 16.82198569 9.94702148 16.83398438 C7.91673966 16.8436998 5.8874667 16.87474209 3.85742188 16.90625 C2.57544922 16.91140625 1.29347656 16.9165625 -0.02734375 16.921875 C-1.20224365 16.9312207 -2.37714355 16.94056641 -3.58764648 16.95019531 C-6.92795458 16.56218912 -8.27640665 15.91743815 -10.65625 13.59375 C-11.44140625 11.7265625 -11.44140625 11.7265625 -11.71875 9.71875 C-11.83347656 9.06132812 -11.94820312 8.40390625 -12.06640625 7.7265625 C-10.85989613 1.45270987 -5.62319549 -0.03445969 0 0 Z " fill="#7D6E6D" transform="translate(51.65625,295.40625)"/>
<path d="M0 0 C7.92 0 15.84 0 24 0 C24.12375 2.7534375 24.12375 2.7534375 24.25 5.5625 C24.79419803 12.06221729 26.03489685 16.31287527 31 20.8125 C32.96033044 21.9764462 34.95665071 22.99109629 37 24 C32.62522526 24.11651725 28.25085173 24.18736 23.875 24.25 C22.6375 24.28351563 21.4 24.31703125 20.125 24.3515625 C8.67804117 24.47464808 8.67804117 24.47464808 4 20 C-0.68163552 13.21970029 -0.08029019 8.18959986 0 0 Z " fill="#C5B8B8" transform="translate(208,200)"/>
<path d="M0 0 C7.92 0 15.84 0 24 0 C24 7.92 24 15.84 24 24 C16.08 24 8.16 24 0 24 C0 16.08 0 8.16 0 0 Z " fill="#E09D70" transform="translate(304,360)"/>
<path d="M0 0 C0.66 -0.0103125 1.32 -0.020625 2 -0.03125 C4.95613104 0.75397231 6.09984561 2.12505125 8 4.5 C8.45410156 7.52441406 8.45410156 7.52441406 8.390625 11.015625 C8.37128906 12.89121094 8.37128906 12.89121094 8.3515625 14.8046875 C8.31804687 16.10664063 8.28453125 17.40859375 8.25 18.75 C8.23195313 20.06742187 8.21390625 21.38484375 8.1953125 22.7421875 C8.14816882 25.99510156 8.07642616 29.24764217 8 32.5 C2.72 32.5 -2.56 32.5 -8 32.5 C-8.10771702 27.91604218 -8.18719721 23.33460364 -8.25 18.75 C-8.28351563 17.44804687 -8.31703125 16.14609375 -8.3515625 14.8046875 C-8.36445313 13.55429688 -8.37734375 12.30390625 -8.390625 11.015625 C-8.41157227 9.86352539 -8.43251953 8.71142578 -8.45410156 7.52441406 C-7.72635896 2.67749179 -4.9699792 -0.07765593 0 0 Z " fill="#928383" transform="translate(256,239.5)"/>
<path d="M0 0 C4.21690386 0.78680177 5.52843079 2.5057125 8 6 C10.09305576 10.18611152 9.42364608 15.44132948 9 20 C6.73212562 24.8846525 3.8846525 27.73212562 -1 30 C-6.36587255 30.722329 -11.92987852 31.20111408 -16.625 28.125 C-18.11871368 26.78851934 -19.58272072 25.41727928 -21 24 C-21 23.01 -21 22.02 -21 21 C-20.43152344 21.03480469 -19.86304688 21.06960937 -19.27734375 21.10546875 C-13.7992016 21.29752382 -9.88429251 20.7773428 -5 18 C-1.49050672 14.39815163 -0.10837248 11.61827913 0.09765625 6.640625 C0.08605469 5.85171875 0.07445312 5.0628125 0.0625 4.25 C0.05347656 3.45078125 0.04445313 2.6515625 0.03515625 1.828125 C0.02355469 1.22484375 0.01195312 0.6215625 0 0 Z " fill="#5DA50D" transform="translate(479,218)"/>
<path d="M0 0 C4.21690386 0.78680177 5.52843079 2.5057125 8 6 C10.09305576 10.18611152 9.42364608 15.44132948 9 20 C6.73212562 24.8846525 3.8846525 27.73212562 -1 30 C-6.36587255 30.722329 -11.92987852 31.20111408 -16.625 28.125 C-18.11871368 26.78851934 -19.58272072 25.41727928 -21 24 C-21 23.01 -21 22.02 -21 21 C-20.43152344 21.03480469 -19.86304688 21.06960937 -19.27734375 21.10546875 C-13.7992016 21.29752382 -9.88429251 20.7773428 -5 18 C-1.49050672 14.39815163 -0.10837248 11.61827913 0.09765625 6.640625 C0.08605469 5.85171875 0.07445312 5.0628125 0.0625 4.25 C0.05347656 3.45078125 0.04445313 2.6515625 0.03515625 1.828125 C0.02355469 1.22484375 0.01195312 0.6215625 0 0 Z " fill="#5DA50D" transform="translate(423,10)"/>
<path d="M0 0 C5.28 0 10.56 0 16 0 C16 7.92 16 15.84 16 24 C10.72 24 5.44 24 0 24 C0 16.08 0 8.16 0 0 Z " fill="#E8E7E6" transform="translate(456,248)"/>
<path d="M0 0 C5.28 0 10.56 0 16 0 C16 7.92 16 15.84 16 24 C10.72 24 5.44 24 0 24 C0 16.08 0 8.16 0 0 Z " fill="#AA9F9F" transform="translate(400,248)"/>
<path d="M0 0 C5.28 0 10.56 0 16 0 C16 7.92 16 15.84 16 24 C10.72 24 5.44 24 0 24 C0 16.08 0 8.16 0 0 Z " fill="#F7F6F5" transform="translate(400,224)"/>
<path d="M0 0 C5.28 0 10.56 0 16 0 C16 7.92 16 15.84 16 24 C10.72 24 5.44 24 0 24 C0 16.08 0 8.16 0 0 Z " fill="#AA9F9F" transform="translate(456,144)"/>
<path d="M0 0 C5.28 0 10.56 0 16 0 C16 7.92 16 15.84 16 24 C10.72 24 5.44 24 0 24 C0 16.08 0 8.16 0 0 Z " fill="#AA9F9F" transform="translate(400,144)"/>
<path d="M0 0 C5.28 0 10.56 0 16 0 C16 7.92 16 15.84 16 24 C10.72 24 5.44 24 0 24 C0 16.08 0 8.16 0 0 Z " fill="#F7F6F5" transform="translate(456,120)"/>
<path d="M0 0 C5.28 0 10.56 0 16 0 C16 7.92 16 15.84 16 24 C10.72 24 5.44 24 0 24 C0 16.08 0 8.16 0 0 Z " fill="#F7F6F5" transform="translate(400,120)"/>
<path d="M0 0 C5.28 0 10.56 0 16 0 C16 7.92 16 15.84 16 24 C10.72 24 5.44 24 0 24 C0 16.08 0 8.16 0 0 Z " fill="#AA9F9F" transform="translate(456,40)"/>
<path d="M0 0 C5.28 0 10.56 0 16 0 C16 7.92 16 15.84 16 24 C10.72 24 5.44 24 0 24 C0 16.08 0 8.16 0 0 Z " fill="#E8E7E6" transform="translate(400,40)"/>
<path d="M0 0 C5.28 0 10.56 0 16 0 C16 7.92 16 15.84 16 24 C10.72 24 5.44 24 0 24 C0 16.08 0 8.16 0 0 Z " fill="#F7F6F5" transform="translate(456,16)"/>
<path d="M0 0 C2.97454134 0.32157204 4.59335278 0.62139742 6.8125 2.6875 C8.40188959 5.78262709 8.56159999 7.56020007 8 11 C5.39785186 14.28998193 3.91586813 15.82705225 -0.25805664 16.61523438 C-1.46324951 16.60814453 -2.66844238 16.60105469 -3.91015625 16.59375 C-5.22951172 16.59117187 -6.54886719 16.58859375 -7.90820312 16.5859375 C-8.59019775 16.57143555 -9.27219238 16.55693359 -9.97485352 16.54199219 C-12.06036511 16.50004294 -14.14265211 16.50093414 -16.22851562 16.5078125 C-26.20394062 16.41025333 -26.20394062 16.41025333 -29.36108398 14.78320312 C-31.3846726 12.58146155 -31.68275473 10.93451876 -32 8 C-30.84999512 7.970271 -30.84999512 7.970271 -29.67675781 7.93994141 C-26.20082781 7.84464554 -22.72549494 7.73498402 -19.25 7.625 C-17.44015625 7.57859375 -17.44015625 7.57859375 -15.59375 7.53125 C-14.43359375 7.49257813 -13.2734375 7.45390625 -12.078125 7.4140625 C-11.00981445 7.3826416 -9.94150391 7.3512207 -8.84082031 7.31884766 C-6.02880579 7.0032331 -4.33832959 6.56717834 -2 5 C-0.71745356 2.46229997 -0.71745356 2.46229997 0 0 Z " fill="#DA915E" transform="translate(472,304)"/>
<path d="M0 0 C2.97454134 0.32157204 4.59335278 0.62139742 6.8125 2.6875 C8.40188959 5.78262709 8.56159999 7.56020007 8 11 C5.39785186 14.28998193 3.91586813 15.82705225 -0.25805664 16.61523438 C-1.46324951 16.60814453 -2.66844238 16.60105469 -3.91015625 16.59375 C-5.22951172 16.59117187 -6.54886719 16.58859375 -7.90820312 16.5859375 C-8.59019775 16.57143555 -9.27219238 16.55693359 -9.97485352 16.54199219 C-12.06036511 16.50004294 -14.14265211 16.50093414 -16.22851562 16.5078125 C-26.20394062 16.41025333 -26.20394062 16.41025333 -29.36108398 14.78320312 C-31.3846726 12.58146155 -31.68275473 10.93451876 -32 8 C-30.84999512 7.970271 -30.84999512 7.970271 -29.67675781 7.93994141 C-26.20082781 7.84464554 -22.72549494 7.73498402 -19.25 7.625 C-17.44015625 7.57859375 -17.44015625 7.57859375 -15.59375 7.53125 C-14.43359375 7.49257813 -13.2734375 7.45390625 -12.078125 7.4140625 C-11.00981445 7.3826416 -9.94150391 7.3512207 -8.84082031 7.31884766 C-6.02880579 7.0032331 -4.33832959 6.56717834 -2 5 C-0.71745356 2.46229997 -0.71745356 2.46229997 0 0 Z " fill="#DA915E" transform="translate(80,304)"/>
<path d="M0 0 C0 13.53 0 27.06 0 41 C-2.97 41 -5.94 41 -9 41 C-9 27.8 -9 14.6 -9 1 C-1 0 -1 0 0 0 Z " fill="#A99F9F" transform="translate(81,159)"/>
<path d="M0 0 C5.75 1.625 5.75 1.625 8 5 C8.375 7.9375 8.375 7.9375 8 11 C6.1329009 13.30275556 4.64352259 14.67823871 2 16 C-2.10449212 16.23405606 -6.21063734 16.22838242 -10.32128906 16.24023438 C-12.36044246 16.24993078 -14.39858361 16.28095004 -16.4375 16.3125 C-17.72398437 16.31765625 -19.01046875 16.3228125 -20.3359375 16.328125 C-21.51720215 16.3374707 -22.6984668 16.34681641 -23.91552734 16.35644531 C-27.32147006 15.96285054 -28.6902589 15.51460986 -31 13 C-31.75 10.3125 -31.75 10.3125 -32 8 C-30.84999512 7.970271 -30.84999512 7.970271 -29.67675781 7.93994141 C-26.20082781 7.84464554 -22.72549494 7.73498402 -19.25 7.625 C-17.44015625 7.57859375 -17.44015625 7.57859375 -15.59375 7.53125 C-14.43359375 7.49257813 -13.2734375 7.45390625 -12.078125 7.4140625 C-11.00981445 7.3826416 -9.94150391 7.3512207 -8.84082031 7.31884766 C-6.02880579 7.0032331 -4.33832959 6.56717834 -2 5 C-0.71745356 2.46229997 -0.71745356 2.46229997 0 0 Z " fill="#DA915E" transform="translate(472,408)"/>
<path d="M0 0 C5.75 1.625 5.75 1.625 8 5 C8.375 7.9375 8.375 7.9375 8 11 C6.1329009 13.30275556 4.64352259 14.67823871 2 16 C-2.10449212 16.23405606 -6.21063734 16.22838242 -10.32128906 16.24023438 C-12.36044246 16.24993078 -14.39858361 16.28095004 -16.4375 16.3125 C-17.72398438 16.31765625 -19.01046875 16.3228125 -20.3359375 16.328125 C-21.51720215 16.3374707 -22.6984668 16.34681641 -23.91552734 16.35644531 C-27.32147006 15.96285054 -28.6902589 15.51460986 -31 13 C-31.75 10.3125 -31.75 10.3125 -32 8 C-30.84999512 7.970271 -30.84999512 7.970271 -29.67675781 7.93994141 C-26.20082781 7.84464554 -22.72549494 7.73498402 -19.25 7.625 C-17.44015625 7.57859375 -17.44015625 7.57859375 -15.59375 7.53125 C-14.43359375 7.49257813 -13.2734375 7.45390625 -12.078125 7.4140625 C-11.00981445 7.3826416 -9.94150391 7.3512207 -8.84082031 7.31884766 C-6.02880579 7.0032331 -4.33832959 6.56717834 -2 5 C-0.71745356 2.46229997 -0.71745356 2.46229997 0 0 Z " fill="#DA915E" transform="translate(80,408)"/>
<path d="M0 0 C4.0743356 0.84881992 5.54405875 2.30225596 8 5.625 C8.625 8.625 8.625 8.625 8 11.625 C5.54405875 14.94774404 4.0743356 16.40118008 0 17.25 C-4.0743356 16.40118008 -5.54405875 14.94774404 -8 11.625 C-8.625 8.625 -8.625 8.625 -8 5.625 C-5.54405875 2.30225596 -4.0743356 0.84881992 0 0 Z " fill="#7E6E6E" transform="translate(376,303.375)"/>
<path d="M0 0 C4.0743356 0.84881992 5.54405875 2.30225596 8 5.625 C8.625 8.625 8.625 8.625 8 11.625 C5.54405875 14.94774404 4.0743356 16.40118008 0 17.25 C-4.0743356 16.40118008 -5.54405875 14.94774404 -8 11.625 C-8.625 8.625 -8.625 8.625 -8 5.625 C-5.54405875 2.30225596 -4.0743356 0.84881992 0 0 Z " fill="#7E6E6D" transform="translate(136,303.375)"/>
<path d="M0 0 C2 1 2 1 3 3 C3.38567013 7.04953637 3.50238217 9.74404458 2 13.5 C-0.59692538 15.44769403 -2.85501119 15.62031248 -6.05859375 15.44921875 C-8 15 -8 15 -10.5 12.875 C-12.25584708 9.50962644 -12.63656938 7.73984509 -12 4 C-8.87063045 -0.95483512 -5.3663324 -0.59625916 0 0 Z " fill="#FDFDFD" transform="translate(183,293)"/>
<path d="M0 0 C1.1859375 0.00257812 2.371875 0.00515625 3.59375 0.0078125 C4.7796875 0.00523438 5.965625 0.00265625 7.1875 0 C10.09375 0.1328125 10.09375 0.1328125 11.09375 1.1328125 C11.28125 3.5703125 11.28125 3.5703125 11.09375 6.1328125 C9.09375 8.1328125 9.09375 8.1328125 6.5625 8.3984375 C5.5828125 8.39328125 4.603125 8.388125 3.59375 8.3828125 C2.6140625 8.38796875 1.634375 8.393125 0.625 8.3984375 C-1.90625 8.1328125 -1.90625 8.1328125 -3.90625 6.1328125 C-4.09375 3.5703125 -4.09375 3.5703125 -3.90625 1.1328125 C-2.90625 0.1328125 -2.90625 0.1328125 0 0 Z " fill="#E6E0E0" transform="translate(198.90625,107.8671875)"/>
<path d="M0 0 C2.625 0.375 2.625 0.375 5 1 C5.625 3.375 5.625 3.375 6 6 C5.34 6.66 4.68 7.32 4 8 C1.375 7.625 1.375 7.625 -1 7 C-1.625 4.625 -1.625 4.625 -2 2 C-1.34 1.34 -0.68 0.68 0 0 Z " fill="#FDFDFC" transform="translate(78,216)"/>
<path d="M0 0 C2.5 0.125 2.5 0.125 3.5 1.125 C3.54080783 3.12458364 3.54254356 5.12545254 3.5 7.125 C1.125 7.75 1.125 7.75 -1.5 8.125 C-3.5 6.125 -3.5 6.125 -3.6875 3.5625 C-3.4324847 0.24730106 -3.33009823 0.16650491 0 0 Z " fill="#F8F7F7" transform="translate(174.5,281.875)"/>
<path d="M0 0 C2.5 0.125 2.5 0.125 3.5 1.125 C3.6875 3.5625 3.6875 3.5625 3.5 6.125 C2.84 6.785 2.18 7.445 1.5 8.125 C-2.03571429 7.58928571 -2.03571429 7.58928571 -3.5 6.125 C-3.625 3.625 -3.625 3.625 -3.5 1.125 C-2.5 0.125 -2.5 0.125 0 0 Z " fill="#FDFDFD" transform="translate(206.5,394.875)"/>
</svg>
