<?xml version="1.0" encoding="UTF-8"?>
<svg version="1.1" xmlns="http://www.w3.org/2000/svg" width="512" height="512">
<path d="M0 0 C5.12640619 4.94293481 7.73382136 11.67633392 10.625 18.0625 C14.37425517 26.04168407 18.00367384 33.12817986 25.625 38.0625 C29.32521257 39.0785167 33.09022896 39.63705115 36.875 40.25 C62.18368299 44.87139285 91.08146572 54.72288003 110.625 72.0625 C111.33011719 72.65933594 112.03523438 73.25617188 112.76171875 73.87109375 C117.05077186 77.78938392 120.36705595 82.28575896 123.625 87.0625 C124.00414551 87.61244629 124.38329102 88.16239258 124.77392578 88.72900391 C129.40732138 95.7811759 132.9257461 103.49509886 136.625 111.0625 C137.31067706 112.46339485 137.99638643 113.86427389 138.68212891 115.26513672 C139.02099625 115.95747406 139.35986359 116.6498114 139.70899963 117.36312866 C153.24631888 145.08032715 153.24631888 145.08032715 171.06640625 170.1796875 C172.625 172.0625 172.625 172.0625 174.625 175.0625 C168.60715663 181.79938715 162.66463739 188.36778473 155.625 194.0625 C155.13692871 194.46823242 154.64885742 194.87396484 154.14599609 195.29199219 C140.98275082 206.21744644 126.010582 216.63719855 108.625 219.0625 C107.97120361 219.16151611 107.31740723 219.26053223 106.64379883 219.36254883 C100.49186147 219.88897861 97.30161607 218.00195131 92.58203125 214.18359375 C91.81246094 213.52488281 91.04289062 212.86617187 90.25 212.1875 C88.67987439 210.89820987 87.10956949 209.60913804 85.5390625 208.3203125 C84.8579541 207.7442627 84.1768457 207.16821289 83.47509766 206.57470703 C81.49108533 204.90310668 81.49108533 204.90310668 78.625 203.0625 C74.7663902 220.96216212 71.73231176 238.87164109 69.625 257.0625 C69.47256836 258.36896484 69.32013672 259.67542969 69.16308594 261.02148438 C64.67718549 300.63322822 65.42275247 340.44102367 69.84570312 380.01342773 C70.93588318 389.84300512 71.857884 399.57498713 71.90625 409.47265625 C71.91718689 410.70779213 71.91718689 410.70779213 71.92834473 411.96788025 C71.88018165 417.67772277 71.56064976 423.65000914 69.625 429.0625 C66.88090201 430.87824643 65.43256021 431.54108287 62.375 432.3125 C61.6219458 432.53736084 60.8688916 432.76222168 60.09301758 432.99389648 C58.46106853 433.47317887 56.82301816 433.9320609 55.18017578 434.37255859 C52.63307507 435.06031959 50.11353303 435.81318977 47.58984375 436.58203125 C-18.58706292 456.25003645 -94.26297063 455.03976577 -159.34277344 431.74804688 C-161.50295265 430.96911874 -161.50295265 430.96911874 -164.3515625 430.484375 C-167.47160483 428.29191283 -167.32361381 425.45684544 -167.98104858 421.83132935 C-168.56964772 417.69444727 -168.69320851 413.64649217 -168.65625 409.47265625 C-168.65185913 408.57410416 -168.64746826 407.67555206 -168.64294434 406.74977112 C-168.49669553 396.70212216 -167.35168841 386.77727326 -166.23657227 376.80026245 C-159.87129487 318.70098886 -162.81802872 260.16515151 -175.375 203.0625 C-175.8690332 203.44059814 -176.36306641 203.81869629 -176.87207031 204.20825195 C-179.12289594 205.93069864 -181.37394581 207.65285204 -183.625 209.375 C-184.40230469 209.96990234 -185.17960937 210.56480469 -185.98046875 211.17773438 C-186.73457031 211.75458984 -187.48867187 212.33144531 -188.265625 212.92578125 C-188.95688477 213.45469971 -189.64814453 213.98361816 -190.36035156 214.52856445 C-191.02518555 215.03476318 -191.69001953 215.54096191 -192.375 216.0625 C-193.03983398 216.61317139 -193.70466797 217.16384277 -194.38964844 217.73120117 C-197.83697915 220.04284583 -201.43234125 219.55321718 -205.375 219.0625 C-224.86102141 215.20412216 -240.59617004 204.56212175 -254.9921875 191.25390625 C-257.34498726 189.09010188 -259.75990132 187.01658204 -262.1875 184.9375 C-265.93109511 181.63198517 -268.66962069 178.25147442 -271.375 174.0625 C-270.91351563 173.58683594 -270.45203125 173.11117187 -269.9765625 172.62109375 C-254.10987334 155.59419214 -244.30503505 133.85015286 -234.625 112.9375 C-228.66363876 100.09605571 -221.85317194 87.66758835 -212.375 77.0625 C-211.86066406 76.45535156 -211.34632813 75.84820312 -210.81640625 75.22265625 C-192.32384286 54.88544813 -156.82460028 43.690425 -130.69677734 39.99707031 C-122.31313443 38.65135897 -117.71608964 35.28391824 -112.4921875 28.68359375 C-109.75885276 23.87876948 -107.51574259 19.06456286 -105.4375 13.9375 C-101.26241814 4.04180469 -96.4875612 -1.19404766 -86.6640625 -5.69140625 C-81.00528609 -7.83528947 -75.3403832 -8.99494465 -69.375 -9.9375 C-68.71338867 -10.04578125 -68.05177734 -10.1540625 -67.37011719 -10.265625 C-46.57042997 -13.56997247 -17.46986859 -13.23575922 0 0 Z " fill="#F7EF50" transform="translate(304.375,36.9375)"/>
<path d="M0 0 C3.91456167 2.47011876 6.88882635 5.59578017 10 9 C10.79019531 9.84691406 11.58039063 10.69382812 12.39453125 11.56640625 C24.30665456 25.09503741 33.56708467 41.13018295 42 57 C42.49886719 57.93199219 42.49886719 57.93199219 43.0078125 58.8828125 C48.45999021 69.14320992 53.46670158 79.08556111 52 91 C49.21228857 99.80329925 43.97355937 104.85846547 36 109 C31.44183168 111.06101044 26.9968648 112.47949325 22 113 C20.741875 113.165 19.48375 113.33 18.1875 113.5 C12.35456512 113.31290586 8.91734766 110.05574858 5 106 C0.99555738 101.23036891 -2.6853404 96.20807713 -6.37890625 91.19677734 C-8.84467456 87.8553642 -11.34506076 84.54301448 -13.875 81.25 C-14.29056152 80.69046631 -14.70612305 80.13093262 -15.13427734 79.55444336 C-18.16136529 75.62282557 -21.58254285 72.30224768 -26 70 C-29.79404603 69.58008019 -29.79404603 69.58008019 -33 70 C-35.82538512 76.66130944 -37.04816983 83.12278239 -38.05859375 90.26953125 C-38.22902695 91.45295609 -38.39946014 92.63638092 -38.57505798 93.85566711 C-40.35638953 106.76061508 -41.26506223 119.69103978 -42.0625 132.6875 C-42.22919464 135.2581838 -42.39661012 137.82882094 -42.56469727 140.39941406 C-43.530013 155.37180715 -44.34307875 170.34941047 -45.09155273 185.33398438 C-46.16539768 206.82830421 -47.54795057 228.25321734 -49.5 249.6875 C-49.60182587 250.81941772 -49.70365173 251.95133545 -49.80856323 253.11755371 C-50.8249377 264.30761819 -51.9710791 275.46569428 -53.53515625 286.59375 C-53.6522998 287.43270309 -53.76944336 288.27165619 -53.89013672 289.1360321 C-55.83304032 302.3564106 -58.83181212 316.52543814 -70 325 C-85.09688689 333.66368781 -101.2339518 334.23412786 -118.1875 334.25 C-118.93677765 334.25100708 -119.6860553 334.25201416 -120.45803833 334.25305176 C-133.50059187 334.24125404 -146.14709703 333.33017367 -159 331 C-160.27665527 330.77521973 -160.27665527 330.77521973 -161.57910156 330.54589844 C-193.79783499 324.7428302 -193.79783499 324.7428302 -201.2265625 315.46875 C-207.23377819 305.0134433 -208.70421117 290.25805841 -210.4375 278.5625 C-210.5388324 277.8848056 -210.64016479 277.20711121 -210.74456787 276.50888062 C-216.69811495 236.31928993 -220.81848639 195.07365522 -221.15625 154.42578125 C-221.16756454 153.14749451 -221.16756454 153.14749451 -221.17910767 151.84338379 C-221.18654999 150.99932983 -221.19399231 150.15527588 -221.20166016 149.28564453 C-221.40080119 127.6012241 -223.660606 106.40010878 -230.7265625 85.74609375 C-232 82 -232 82 -232 79 C-232.56203125 79.47566406 -233.1240625 79.95132813 -233.703125 80.44140625 C-274.29445685 114.24676391 -274.29445685 114.24676391 -287.0625 115.0625 C-295.10818508 114.06601607 -300.29244838 109.12683293 -305.3125 103.125 C-309.97202471 96.93090128 -313.52903355 91.95546671 -313 84 C-307.71770058 63.89224144 -294.33115065 45.08363639 -283 28 C-282.47809082 27.21093262 -281.95618164 26.42186523 -281.41845703 25.60888672 C-267.74046684 5.03212387 -267.74046684 5.03212387 -263.1953125 3.3203125 C-254.62240071 2.0694606 -243.86632916 1.53193006 -236.54443359 6.75 C-229.75601551 12.36212641 -223.43317389 18.29307038 -217.25 24.5625 C-216.35667969 25.45646484 -215.46335937 26.35042969 -214.54296875 27.27148438 C-210.01359804 31.830873 -205.63637457 36.46123417 -201.44824219 41.33569336 C-199.72058053 43.32110629 -197.89295251 45.17232172 -196 47 C-193.52036671 49.44663437 -191.14559624 51.92107774 -188.875 54.5625 C-185.3998607 58.60354501 -181.7700053 62.48795673 -178.125 66.375 C-174.15150888 70.6145708 -170.19167616 74.86099542 -166.3125 79.1875 C-165.61511719 79.95707031 -164.91773438 80.72664063 -164.19921875 81.51953125 C-162.55948745 83.36896176 -160.97030458 85.23440793 -159.39453125 87.13671875 C-152.07670022 95.79428777 -145.3050455 99.47009564 -134 101 C-130.87416243 101.23211488 -127.75848105 101.32080457 -124.625 101.375 C-123.40683594 101.43107422 -123.40683594 101.43107422 -122.1640625 101.48828125 C-114.13668494 101.60406073 -109.26465828 98.24848859 -103.5625 92.875 C-99.96510981 89.1070789 -96.71005977 85.06775222 -93.4453125 81.01171875 C-90.88648707 77.86019413 -88.26329285 74.77226601 -85.625 71.6875 C-81.8235774 67.22963079 -78.15414374 62.69075374 -74.5625 58.0625 C-69.39332808 51.40671407 -63.96669741 44.99528011 -58.42260742 38.6496582 C-57.43224577 37.501233 -56.45685674 36.33979621 -55.4934082 35.16870117 C-52.53325742 31.59519009 -49.69953476 28.79257776 -45.8125 26.1875 C-41.81975836 23.39473328 -38.23318309 20.46672786 -34.6875 17.125 C-30.52799839 13.25875822 -26.23261495 9.80366415 -21.625 6.5 C-21.04194092 6.0786377 -20.45888184 5.65727539 -19.8581543 5.22314453 C-13.62040688 0.83451751 -7.65418203 -1.77666415 0 0 Z " fill="#F8F272" transform="translate(386,110)"/>
<path d="M0 0 C5.12640619 4.94293481 7.73382136 11.67633392 10.625 18.0625 C14.37425517 26.04168407 18.00367384 33.12817986 25.625 38.0625 C29.32521257 39.0785167 33.09022896 39.63705115 36.875 40.25 C62.18368299 44.87139285 91.08146572 54.72288003 110.625 72.0625 C111.33011719 72.65933594 112.03523438 73.25617188 112.76171875 73.87109375 C117.05077186 77.78938392 120.36705595 82.28575896 123.625 87.0625 C124.00414551 87.61244629 124.38329102 88.16239258 124.77392578 88.72900391 C129.40732138 95.7811759 132.9257461 103.49509886 136.625 111.0625 C137.31067706 112.46339485 137.99638643 113.86427389 138.68212891 115.26513672 C139.02099625 115.95747406 139.35986359 116.6498114 139.70899963 117.36312866 C153.24631888 145.08032715 153.24631888 145.08032715 171.06640625 170.1796875 C172.625 172.0625 172.625 172.0625 174.625 175.0625 C168.60715663 181.79938715 162.66463739 188.36778473 155.625 194.0625 C155.13692871 194.46823242 154.64885742 194.87396484 154.14599609 195.29199219 C140.98275082 206.21744644 126.010582 216.63719855 108.625 219.0625 C107.97120361 219.16151611 107.31740723 219.26053223 106.64379883 219.36254883 C100.49186147 219.88897861 97.30161607 218.00195131 92.58203125 214.18359375 C91.81246094 213.52488281 91.04289062 212.86617187 90.25 212.1875 C88.67987439 210.89820987 87.10956949 209.60913804 85.5390625 208.3203125 C84.8579541 207.7442627 84.1768457 207.16821289 83.47509766 206.57470703 C81.49108533 204.90310668 81.49108533 204.90310668 78.625 203.0625 C74.7663902 220.96216212 71.73231176 238.87164109 69.625 257.0625 C69.47256836 258.36896484 69.32013672 259.67542969 69.16308594 261.02148438 C64.67718549 300.63322822 65.42275247 340.44102367 69.84570312 380.01342773 C70.93588318 389.84300512 71.857884 399.57498713 71.90625 409.47265625 C71.91718689 410.70779213 71.91718689 410.70779213 71.92834473 411.96788025 C71.88018165 417.67772277 71.56064976 423.65000914 69.625 429.0625 C66.88090201 430.87824643 65.43256021 431.54108287 62.375 432.3125 C61.6219458 432.53736084 60.8688916 432.76222168 60.09301758 432.99389648 C58.46106853 433.47317887 56.82301816 433.9320609 55.18017578 434.37255859 C52.63307507 435.06031959 50.11353303 435.81318977 47.58984375 436.58203125 C-18.58706292 456.25003645 -94.26297063 455.03976577 -159.34277344 431.74804688 C-161.50295265 430.96911874 -161.50295265 430.96911874 -164.3515625 430.484375 C-167.47160483 428.29191283 -167.32361381 425.45684544 -167.98104858 421.83132935 C-168.56964772 417.69444727 -168.69320851 413.64649217 -168.65625 409.47265625 C-168.65185913 408.57410416 -168.64746826 407.67555206 -168.64294434 406.74977112 C-168.49669553 396.70212216 -167.35168841 386.77727326 -166.23657227 376.80026245 C-159.87129487 318.70098886 -162.81802872 260.16515151 -175.375 203.0625 C-175.8690332 203.44059814 -176.36306641 203.81869629 -176.87207031 204.20825195 C-179.12289594 205.93069864 -181.37394581 207.65285204 -183.625 209.375 C-184.40230469 209.96990234 -185.17960937 210.56480469 -185.98046875 211.17773438 C-186.73457031 211.75458984 -187.48867187 212.33144531 -188.265625 212.92578125 C-188.95688477 213.45469971 -189.64814453 213.98361816 -190.36035156 214.52856445 C-191.02518555 215.03476318 -191.69001953 215.54096191 -192.375 216.0625 C-193.03983398 216.61317139 -193.70466797 217.16384277 -194.38964844 217.73120117 C-197.83697915 220.04284583 -201.43234125 219.55321718 -205.375 219.0625 C-224.86102141 215.20412216 -240.59617004 204.56212175 -254.9921875 191.25390625 C-257.34498726 189.09010188 -259.75990132 187.01658204 -262.1875 184.9375 C-265.93109511 181.63198517 -268.66962069 178.25147442 -271.375 174.0625 C-270.91351563 173.58683594 -270.45203125 173.11117187 -269.9765625 172.62109375 C-254.10987334 155.59419214 -244.30503505 133.85015286 -234.625 112.9375 C-228.66363876 100.09605571 -221.85317194 87.66758835 -212.375 77.0625 C-211.86066406 76.45535156 -211.34632813 75.84820312 -210.81640625 75.22265625 C-192.32384286 54.88544813 -156.82460028 43.690425 -130.69677734 39.99707031 C-122.31313443 38.65135897 -117.71608964 35.28391824 -112.4921875 28.68359375 C-109.75885276 23.87876948 -107.51574259 19.06456286 -105.4375 13.9375 C-101.26241814 4.04180469 -96.4875612 -1.19404766 -86.6640625 -5.69140625 C-81.00528609 -7.83528947 -75.3403832 -8.99494465 -69.375 -9.9375 C-68.71338867 -10.04578125 -68.05177734 -10.1540625 -67.37011719 -10.265625 C-46.57042997 -13.56997247 -17.46986859 -13.23575922 0 0 Z M-208.99609375 77.62890625 C-214.94539324 83.71497124 -219.78100534 89.81160188 -223.9375 97.25 C-224.44144287 98.13929199 -224.94538574 99.02858398 -225.46459961 99.94482422 C-229.78218712 107.70394788 -233.63076659 115.67076207 -237.4375 123.6875 C-245.07633696 139.77351922 -253.16086871 155.16141844 -264.375 169.0625 C-265.49068359 170.45855469 -265.49068359 170.45855469 -266.62890625 171.8828125 C-267.49322266 172.96175781 -267.49322266 172.96175781 -268.375 174.0625 C-252.1060759 194.39865513 -226.34415974 213.42092084 -199.80859375 216.47265625 C-195.53790124 215.96250527 -193.16804069 214.20713764 -190 211.5 C-189.16625854 210.82251709 -189.16625854 210.82251709 -188.31567383 210.13134766 C-187.1933718 209.21908313 -186.07616 208.30051752 -184.96435547 207.37548828 C-182.70500728 205.50900985 -180.38504249 203.72435338 -178.0625 201.9375 C-176.83285812 200.97977649 -175.60360459 200.02155382 -174.375 199.0625 C-172.07708661 205.48020184 -170.37313802 211.88864957 -169 218.5625 C-168.79012451 219.582229 -168.58024902 220.60195801 -168.36401367 221.65258789 C-166.58330286 230.56672961 -165.08514005 239.51952065 -163.6875 248.5 C-163.48527832 249.76972656 -163.28305664 251.03945313 -163.07470703 252.34765625 C-159.82488284 273.95181642 -159.04023848 295.55887595 -159.11425781 317.38183594 C-159.12562826 320.75490047 -159.11888101 324.12764825 -159.10737038 327.5007019 C-159.04816509 348.04075767 -160.15532429 368.33608918 -162.24253845 388.76527405 C-163.11949307 397.44152717 -163.5556744 406.02687948 -163.5625 414.75 C-163.56330566 415.73709961 -163.56411133 416.72419922 -163.56494141 417.74121094 C-163.55096778 422.98630786 -163.55096778 422.98630786 -162.375 428.0625 C-160.67077219 428.95720808 -160.67077219 428.95720808 -158.52734375 429.4921875 C-157.70709717 429.72760254 -156.88685059 429.96301758 -156.04174805 430.20556641 C-155.14109619 430.44710449 -154.24044434 430.68864258 -153.3125 430.9375 C-152.37510986 431.1957959 -151.43771973 431.4540918 -150.47192383 431.72021484 C-139.54258558 434.66081968 -128.49417128 436.96920752 -117.375 439.0625 C-115.87549805 439.34504639 -115.87549805 439.34504639 -114.34570312 439.63330078 C-99.73884005 442.33486138 -85.19078862 444.0503268 -70.375 445.0625 C-69.56353516 445.12034668 -68.75207031 445.17819336 -67.91601562 445.23779297 C-26.11734736 448.17976273 16.93260745 442.00760688 57.25 430.8125 C58.10811279 430.57877686 58.96622559 430.34505371 59.8503418 430.10424805 C62.38426161 429.39355013 62.38426161 429.39355013 65.625 428.0625 C70.0598752 414.7578744 66.31525409 396.72737838 64.78027344 383.1472168 C62.62994655 364.00486037 62.40922605 344.91375193 62.38476562 325.67211914 C62.3804058 322.74360529 62.36658214 319.81539017 62.34375 316.88696289 C62.05672601 279.2666949 62.72279317 233.9947686 77.625 199.0625 C78.0782666 199.43536133 78.5315332 199.80822266 78.99853516 200.19238281 C81.08003404 201.90193912 83.16498088 203.60723918 85.25 205.3125 C85.96285156 205.89902344 86.67570312 206.48554688 87.41015625 207.08984375 C94.444126 213.38309491 94.444126 213.38309491 103.03515625 216.4375 C130.03250083 213.61732037 153.59740014 193.94855699 171.625 175.0625 C170.31610636 172.16915618 168.90983327 170.18700116 166.6875 167.9375 C157.30591748 157.42230959 150.89321263 144.11585116 144.8046875 131.50390625 C131.28072466 102.27132552 131.28072466 102.27132552 111.625 77.0625 C110.69300781 76.13244141 110.69300781 76.13244141 109.7421875 75.18359375 C91.2292394 57.87127617 58.61648256 44.96183866 33.625 42.0625 C31.38280907 42.43348115 31.38280907 42.43348115 29.625 43.0625 C30.02332031 43.53558594 30.42164063 44.00867188 30.83203125 44.49609375 C39.08123443 54.79254444 39.49604555 64.48919165 38.125 77.3125 C37.96 78.55 37.795 79.7875 37.625 81.0625 C36.92117188 80.73636719 36.21734375 80.41023438 35.4921875 80.07421875 C27.65100073 76.60403296 20.03899333 74.60422572 11.625 73.0625 C10.76519531 72.81371094 9.90539062 72.56492187 9.01953125 72.30859375 C6.57217467 71.70623232 5.07683788 71.45787202 2.625 72.0625 C-0.76663155 74.90939532 -2.99829543 78.35540901 -5.375 82.0625 C-6.02210938 83.04089844 -6.66921875 84.01929688 -7.3359375 85.02734375 C-9.43904404 88.32331902 -11.42799676 91.67317128 -13.375 95.0625 C-13.7373877 95.68479492 -14.09977539 96.30708984 -14.47314453 96.94824219 C-26.47213014 117.75759891 -32.08360778 139.64277079 -36.375 163.0625 C-40.43639376 163.7725388 -44.24836655 164.19824644 -48.375 164.1875 C-49.365 164.19007813 -50.355 164.19265625 -51.375 164.1953125 C-54.44602524 164.05935565 -57.3561129 163.62854133 -60.375 163.0625 C-60.48980713 162.41514893 -60.60461426 161.76779785 -60.72290039 161.10083008 C-65.77375682 133.11755567 -74.17805814 107.50583304 -90.19921875 83.8046875 C-91.31198768 82.1558671 -92.39145743 80.48471533 -93.46875 78.8125 C-96.56606054 74.10398082 -96.56606054 74.10398082 -101.34375 71.578125 C-103.81482768 71.78097466 -105.98698371 72.38967205 -108.375 73.0625 C-110.83320369 73.47993082 -113.29154852 73.89653101 -115.75 74.3125 C-122.47679577 75.67686524 -128.31333826 77.87414154 -134.375 81.0625 C-136.2558508 65.57906754 -135.30989027 55.17188818 -126.375 42.0625 C-154.02458217 42.0625 -189.01389007 59.29103418 -208.99609375 77.62890625 Z " fill="#6A787A" transform="translate(304.375,36.9375)"/>
<path d="M0 0 C-2.53697351 4.39605127 -4.17377676 7.1756347 -9.1953125 8.53125 C-10.83377755 8.87752958 -12.47757327 9.19923025 -14.125 9.5 C-15.93023716 9.89262217 -17.73361138 10.29389469 -19.53515625 10.703125 C-20.44797363 10.91001953 -21.36079102 11.11691406 -22.30126953 11.33007812 C-44.66596238 16.88179851 -71.74360413 28.01952676 -84.82006836 47.74560547 C-86.64699787 50.77969987 -88.3986452 53.84509146 -90.125 56.9375 C-90.76679199 58.0706665 -91.40858398 59.20383301 -92.06982422 60.37133789 C-94.06556999 63.9037509 -96.03447021 67.45071252 -98 71 C-98.60714844 72.09183594 -99.21429688 73.18367188 -99.83984375 74.30859375 C-106.34444316 86.0510325 -112.6074938 97.92221017 -118.55047607 109.95901489 C-119.41717467 111.70896124 -120.29754425 113.45211563 -121.17822266 115.19506836 C-121.95431885 116.79233765 -121.95431885 116.79233765 -122.74609375 118.421875 C-123.20685303 119.35612305 -123.6676123 120.29037109 -124.14233398 121.25292969 C-125.18222001 124.58364347 -124.8716167 126.64958615 -124 130 C-115.79963817 143.69043458 -97.16109264 159.94630245 -82 165 C-75.9817255 165.42987675 -72.67500356 164.84346871 -67.375 161.6875 C-66.7867041 161.33864746 -66.1984082 160.98979492 -65.59228516 160.63037109 C-59.6754937 157.01255029 -54.31094886 152.71614658 -48.9609375 148.3203125 C-46.64117022 146.50244737 -44.68817442 145.140835 -42 144 C-35.52798182 152.48057555 -34.56827565 161.91593992 -34 172.3125 C-33.23037761 183.99104335 -31.85268532 195.44851885 -30 207 C-29.88543457 207.71446289 -29.77086914 208.42892578 -29.65283203 209.16503906 C-29.42677324 210.57126253 -29.20036818 211.97743038 -28.97363281 213.38354492 C-28.46563738 216.55851638 -27.97326964 219.73583533 -27.48291016 222.91357422 C-27.12309011 225.21329367 -26.75410855 227.51158331 -26.38037109 229.80908203 C-23.67521558 246.49597334 -21.51217966 262.94331103 -21.5625 279.875 C-21.56600464 281.84944092 -21.56600464 281.84944092 -21.56958008 283.86376953 C-21.75803074 295.98510226 -23.63822917 307.69976078 -26 319.5625 C-26.35026696 321.37995662 -26.6992303 323.19766497 -27.046875 325.015625 C-27.21123047 325.87478516 -27.37558594 326.73394531 -27.54492188 327.61914062 C-27.69509766 328.40482422 -27.84527344 329.19050781 -28 330 C-28.23203125 331.21171875 -28.4640625 332.4234375 -28.703125 333.671875 C-30.43431935 343.61387686 -32.43588213 356.14418865 -27.55859375 365.421875 C-22.07960623 370.96952151 -14.77901528 372.36842884 -7.4375 374 C-6.30272217 374.25491211 -5.16794434 374.50982422 -3.9987793 374.77246094 C48.49490215 386.11278359 130.42601117 394.10500236 180.921875 368.51953125 C184.40254176 365.97445725 185.89775836 363.05340472 187 359 C188.05518456 348.5419486 186.55557247 338.58410955 184.47949219 328.36132812 C183.76665316 324.85084996 183.08505496 321.33452676 182.40722656 317.81713867 C182.06338677 316.03753114 181.71415384 314.25895332 181.35839844 312.48168945 C174.00280728 274.91041197 181.59015165 235.64672545 188.36962891 198.54492188 C189.81652607 190.40822672 190.86304229 182.28483056 191.42578125 174.04296875 C191.53877563 172.45657593 191.53877563 172.45657593 191.65405273 170.83813477 C191.79783502 168.74717495 191.92702975 166.65514386 192.03930664 164.56225586 C192.57640036 156.72430695 193.9990684 149.49531937 200 144 C200.54825439 144.42297363 201.09650879 144.84594727 201.66137695 145.28173828 C217.56562572 159.49812573 217.56562572 159.49812573 236.92578125 165.5703125 C252.68669317 161.23680376 270.25208291 144.76054013 280.01171875 131.94921875 C281.39492771 129.22107143 281.76496366 127.06405199 282 124 C281.13504811 121.49336721 280.24784667 119.37582061 279.0546875 117.0390625 C278.73349945 116.3801149 278.4123114 115.7211673 278.08139038 115.04225159 C277.02869459 112.89477796 275.95288692 110.75992629 274.875 108.625 C274.13562278 107.13490353 273.39702264 105.64442123 272.65917969 104.15356445 C264.53463297 87.81577073 255.92857792 71.76192041 246.625 56.0625 C246.16125977 55.27576904 245.69751953 54.48903809 245.21972656 53.6784668 C228.15040634 25.37884971 196.545249 15.69171991 166 8 C164.64346313 7.76579346 164.64346313 7.76579346 163.25952148 7.52685547 C161 7 161 7 159.41796875 5.15234375 C158.80888672 4.05599609 158.80888672 4.05599609 158.1875 2.9375 C157.76855469 2.20402344 157.34960938 1.47054687 156.91796875 0.71484375 C156.61503906 0.14894531 156.31210937 -0.41695313 156 -1 C187.07430208 2.33565955 224.42136091 16.60919449 245 41 C256.33248739 55.92215191 264.04003094 73.95853904 272.3125 90.6875 C279.28718167 104.73634375 286.56629111 119.00308448 298 130 C294.03474756 138.9366137 284.46068433 145.11579944 277 151 C276.07316406 151.75539062 275.14632813 152.51078125 274.19140625 153.2890625 C261.55127026 163.27082525 245.63180663 171.54727306 229.43359375 173.41015625 C225.16290124 172.90000527 222.79304069 171.14463764 219.625 168.4375 C219.06917236 167.98584473 218.51334473 167.53418945 217.94067383 167.06884766 C216.8183718 166.15658313 215.70116 165.23801752 214.58935547 164.31298828 C212.33000728 162.44650985 210.01004249 160.66185338 207.6875 158.875 C206.45785812 157.91727649 205.22860459 156.95905382 204 156 C200.99598762 164.17200936 199.25485216 172.54358853 197.5625 181.0625 C197.33430573 182.20043503 197.33430573 182.20043503 197.10150146 183.36135864 C193.89353343 199.46874165 191.61354804 215.65456653 190 232 C189.87056252 233.276474 189.87056252 233.276474 189.73851013 234.57873535 C188.97923953 242.69558763 188.83647496 250.76634843 188.83203125 258.9140625 C188.82880182 260.33678213 188.82543663 261.75950145 188.82194519 263.18222046 C188.81599636 266.15566777 188.81410046 269.12908623 188.81469727 272.10253906 C188.81477785 275.09251036 188.80793763 278.08232624 188.79418945 281.07226562 C188.69607316 302.7405087 189.66452244 324.05551408 191.86767578 345.6275177 C192.74229106 354.32860165 193.18065045 362.93993826 193.1875 371.6875 C193.18830566 372.67451904 193.18911133 373.66153809 193.18994141 374.6784668 C193.13509405 381.59471784 193.13509405 381.59471784 192 385 C189.19389824 386.10217089 186.52406445 386.96038532 183.625 387.75 C182.71596924 388.00241455 181.80693848 388.2548291 180.87036133 388.51489258 C126.43898143 403.06094225 70.55531313 406.66574804 15 397 C13.90316895 396.81034668 12.80633789 396.62069336 11.67626953 396.42529297 C-26.62123784 389.68938108 -26.62123784 389.68938108 -36 385 C-40.53419457 371.39741629 -36.67951297 353.46562654 -35.15527344 339.44042969 C-32.99031876 319.42908458 -32.75582146 299.48595462 -32.75 279.375 C-32.74955814 278.67442852 -32.74911629 277.97385704 -32.74866104 277.25205612 C-32.74175729 256.34811919 -33.0321346 235.73200366 -36 215 C-36.26538574 213.03957764 -36.26538574 213.03957764 -36.53613281 211.03955078 C-39.01763525 192.78890763 -42.5164813 174.86906264 -47 157 C-50.53118855 157 -53.03477603 160.03716496 -55.6875 162.1875 C-57.50830811 163.65236066 -59.33229016 165.11181439 -61.16943359 166.55615234 C-62.38358392 167.51380572 -63.5847961 168.48810895 -64.77197266 169.47900391 C-67.82204455 171.895029 -69.52423447 172.94006104 -73.47265625 173.4375 C-100.56223095 170.07755275 -123.77960435 151.08803354 -142 132 C-140.04469283 128.58121139 -137.92731402 125.61845471 -135.375 122.625 C-126.41930219 111.53699318 -120.20624095 98.7500494 -114 86 C-94.83453078 46.64578768 -94.83453078 46.64578768 -82 34 C-81.401875 33.3915625 -80.80375 32.783125 -80.1875 32.15625 C-65.33342911 18.07049312 -20.69058275 -6.89686092 0 0 Z " fill="#C5BF40" transform="translate(178,80)"/>
<path d="M0 0 C0.93215332 0.07831055 1.86430664 0.15662109 2.82470703 0.23730469 C13.73264906 1.26453646 19.99444877 3.98987128 27.5 12.125 C31.21601169 17.12213668 34.14440038 21.78209515 34.5 28.125 C30.63001151 36.51448553 22.56711329 45.01548834 15.375 50.75 C-0.30477356 63.70285642 -9.8539023 82.98798615 -15.5 102.125 C-16.16 102.125 -16.82 102.125 -17.5 102.125 C-17.75652344 101.23941406 -18.01304687 100.35382813 -18.27734375 99.44140625 C-22.96800046 84.26389412 -29.74707411 70.94061036 -40.5 59.125 C-41.36238281 58.155625 -42.22476563 57.18625 -43.11328125 56.1875 C-47.69483692 51.08330761 -52.3509951 46.09387115 -57.34375 41.38671875 C-61.34469188 37.58393673 -65.60350375 33.40950777 -67.5 28.125 C-66.94290248 19.4783822 -61.14793325 12.35262627 -55.0625 6.5625 C-51.07215229 3.28614427 -47.6119355 1.73972642 -42.5 1.125 C-40.75203125 0.85429688 -40.75203125 0.85429688 -38.96875 0.578125 C-25.88128546 -1.36400092 -13.15098122 -1.12617098 0 0 Z " fill="#F7EF4F" transform="translate(272.5,56.875)"/>
<path d="M0 0 C-3.29223723 3.79743987 -7.08880228 5.72053973 -11.5625 7.8125 C-40.85693879 22.04889487 -53.58549411 44.13455855 -67.0625 72.6875 C-74.33759939 88.08300733 -82.28478606 102.71737836 -93 116 C-93.74378906 116.93070312 -94.48757812 117.86140625 -95.25390625 118.8203125 C-96.11822266 119.89925781 -96.11822266 119.89925781 -97 121 C-80.95904323 140.94281112 -55.49910515 159.41247969 -29.43359375 162.41015625 C-25.16290124 161.90000527 -22.79304069 160.14463764 -19.625 157.4375 C-18.79125854 156.76001709 -18.79125854 156.76001709 -17.94067383 156.06884766 C-16.8183718 155.15658313 -15.70116 154.23801752 -14.58935547 153.31298828 C-12.33000728 151.44650985 -10.01004249 149.66185338 -7.6875 147.875 C-6.45804313 146.91703899 -5.22874903 145.95886875 -4 145 C-0.5418174 148.4581826 -0.24790356 153.45594158 0.8125 158.125 C1.07458252 159.27790527 1.33666504 160.43081055 1.60668945 161.61865234 C4.77198267 175.97780833 7.02888925 190.43927205 9 205 C9.16661133 206.1638623 9.33322266 207.32772461 9.50488281 208.52685547 C12.18218483 227.86384945 12.28510632 247.24304471 12.30962753 266.72745895 C12.31244659 268.77372831 12.31796823 270.81997829 12.32363892 272.86624146 C12.35374357 293.88073912 11.31113703 314.65948006 9.13298035 335.55912781 C7.77788654 348.70859523 7.79426783 361.79199468 8 375 C11.9554863 375.93903454 15.91221954 376.87222376 19.87109375 377.796875 C23.24199322 378.58425722 26.60830889 379.38824486 29.97265625 380.203125 C53.03649896 385.71195574 76.3348627 389.47233169 100 391 C101.59115959 391.11178359 103.18230598 391.22375509 104.7734375 391.3359375 C146.25915358 394.09957175 190.22017805 387.98684485 230 375.84765625 C233 375 233 375 236 375 C236.37775408 359.83946941 235.87704323 345.00717595 234.1550293 329.93310547 C231.98400191 310.84444954 231.78416034 291.79954094 231.75976562 272.60961914 C231.7554058 269.68110529 231.74158214 266.75289017 231.71875 263.82446289 C231.41954415 224.60751666 234.07450933 182.27896456 247 145 C251.84259815 148.10557925 256.29146933 151.5567319 260.75 155.1875 C262.07677679 156.26598363 263.40484166 157.34288517 264.734375 158.41796875 C265.31413086 158.89000732 265.89388672 159.3620459 266.49121094 159.84838867 C269.94826334 162.48704825 272.71644319 162.20916656 277 162 C302.50948942 156.27618792 323.01444306 140.33874764 341 122 C339.69110636 119.10665618 338.28483327 117.12450116 336.0625 114.875 C329.09614468 107.09420648 314 87.81762162 314 77 C317 78 317 78 318.1315918 79.66723633 C318.48390869 80.38161865 318.83622559 81.09600098 319.19921875 81.83203125 C319.59963379 82.62488525 320.00004883 83.41773926 320.41259766 84.23461914 C320.83331543 85.08531982 321.2540332 85.93602051 321.6875 86.8125 C327.25559616 97.71592598 333.52805082 107.46928874 341.3359375 116.94140625 C343 119 343 119 345 122 C338.98215663 128.73688715 333.03963739 135.30528473 326 141 C325.51192871 141.40573242 325.02385742 141.81146484 324.52099609 142.22949219 C311.35775082 153.15494644 296.385582 163.57469855 279 166 C278.34620361 166.09901611 277.69240723 166.19803223 277.01879883 166.30004883 C270.86686147 166.82647861 267.67661607 164.93945131 262.95703125 161.12109375 C262.18746094 160.46238281 261.41789062 159.80367187 260.625 159.125 C259.05487439 157.83570987 257.48456949 156.54663804 255.9140625 155.2578125 C255.2329541 154.6817627 254.5518457 154.10571289 253.85009766 153.51220703 C251.86608533 151.84060668 251.86608533 151.84060668 249 150 C245.1413902 167.89966212 242.10731176 185.80914109 240 204 C239.84756836 205.30646484 239.69513672 206.61292969 239.53808594 207.95898438 C235.05218549 247.57072822 235.79775247 287.37852367 240.22070312 326.95092773 C241.31088318 336.78050512 242.232884 346.51248713 242.28125 356.41015625 C242.29218689 357.64529213 242.29218689 357.64529213 242.30334473 358.90538025 C242.25518165 364.61522277 241.93564976 370.58750914 240 376 C237.25590201 377.81574643 235.80756021 378.47858287 232.75 379.25 C231.9969458 379.47486084 231.2438916 379.69972168 230.46801758 379.93139648 C228.83606853 380.41067887 227.19801816 380.8695609 225.55517578 381.31005859 C223.00807507 381.99781959 220.48853303 382.75068977 217.96484375 383.51953125 C151.78793708 403.18753645 76.11202937 401.97726577 11.03222656 378.68554688 C8.87204735 377.90661874 8.87204735 377.90661874 6.0234375 377.421875 C2.90339517 375.22941283 3.05138619 372.39434544 2.39395142 368.76882935 C1.80535228 364.63194727 1.68179149 360.58399217 1.71875 356.41015625 C1.72314087 355.51160416 1.72753174 354.61305206 1.73205566 353.68727112 C1.87830447 343.63962216 3.02331159 333.71477326 4.13842773 323.73776245 C10.50370513 265.63848886 7.55697128 207.10265151 -5 150 C-5.4940332 150.37809814 -5.98806641 150.75619629 -6.49707031 151.14575195 C-8.74789594 152.86819864 -10.99894581 154.59035204 -13.25 156.3125 C-14.02730469 156.90740234 -14.80460937 157.50230469 -15.60546875 158.11523438 C-16.35957031 158.69208984 -17.11367187 159.26894531 -17.890625 159.86328125 C-18.58188477 160.39219971 -19.27314453 160.92111816 -19.98535156 161.46606445 C-20.65018555 161.97226318 -21.31501953 162.47846191 -22 163 C-22.66483398 163.55067139 -23.32966797 164.10134277 -24.01464844 164.66870117 C-27.46197915 166.98034583 -31.05734125 166.49071718 -35 166 C-54.48602141 162.14162216 -70.22117004 151.49962175 -84.6171875 138.19140625 C-86.96998726 136.02760188 -89.38490132 133.95408204 -91.8125 131.875 C-95.55609511 128.56948517 -98.29462069 125.18897442 -101 121 C-100.53851563 120.52433594 -100.07703125 120.04867187 -99.6015625 119.55859375 C-83.73487334 102.53169214 -73.93003505 80.78765286 -64.25 59.875 C-58.28863876 47.03355571 -51.47817194 34.60508835 -42 24 C-41.48566406 23.39285156 -40.97132812 22.78570312 -40.44140625 22.16015625 C-32.46878268 13.39225851 -21.27915756 7.92859755 -10.75 2.875 C-9.9156543 2.4723291 -9.08130859 2.0696582 -8.22167969 1.65478516 C-7.44211914 1.29175293 -6.66255859 0.9287207 -5.859375 0.5546875 C-5.16295898 0.22968262 -4.46654297 -0.09532227 -3.74902344 -0.43017578 C-2 -1 -2 -1 0 0 Z " fill="#6A7576" transform="translate(134,90)"/>
<path d="M0 0 C1.7199707 1.42358398 1.7199707 1.42358398 3.42578125 3.24609375 C4.05411865 3.91318359 4.68245605 4.58027344 5.32983398 5.26757812 C5.98411377 5.98365234 6.63839355 6.69972656 7.3125 7.4375 C7.98676025 8.17033203 8.66102051 8.90316406 9.35571289 9.65820312 C21.49014571 23.00769931 35 43.12837288 35 62 C35.66 62 36.32 62 37 62 C37.061875 60.989375 37.12375 59.97875 37.1875 58.9375 C39.44631982 41.59953162 48.55810629 25.82613507 60 13 C61.05041736 11.71537024 62.09844976 10.42878794 63.14453125 9.140625 C64.26112464 7.8213095 65.37960289 6.50358682 66.5 5.1875 C67.00942139 4.54546631 67.51884277 3.90343262 68.04370117 3.24194336 C69.63138747 1.43769755 70.88181621 0.14333784 73 -1 C76.2404407 -0.95812142 78.97885084 -0.11842013 82 1 C82.99 1.33 83.98 1.66 85 2 C83.6102606 5.20889266 81.67541838 7.77553509 79.52270508 10.51391602 C61.03920052 34.29871568 50.57118293 63.33171106 47 93 C39.74 93 32.48 93 25 93 C24.79375 90.958125 24.5875 88.91625 24.375 86.8125 C20.76273071 57.70821076 7.33678524 29.20975065 -10.92773438 6.53955078 C-12 5 -12 5 -13 2 C-11.5882217 1.46605821 -10.17029756 0.94834896 -8.75 0.4375 C-7.96109375 0.14746094 -7.1721875 -0.14257812 -6.359375 -0.44140625 C-3.68163925 -1.07537349 -2.56747265 -0.91658622 0 0 Z " fill="#54C0ED" transform="translate(220,106)"/>
<path d="M0 0 C16.02372691 -0.5962317 36.3401068 1.95325416 48.45703125 13.15625 C54.91865026 19.61786901 57.77633663 27.78265812 57.95703125 36.78125 C57.76018074 42.80364524 56.78859443 47.61878745 54.45703125 53.15625 C52.13475169 50.17843206 50.20031614 47.08618448 48.26953125 43.84375 C43.73303968 36.76493295 39.43586386 31.68795685 31.14453125 29.34375 C15.1156659 26.04428852 -0.87420899 25.51804737 -17.10546875 27.28125 C-18.17732422 27.3740625 -19.24917969 27.466875 -20.35351562 27.5625 C-30.04220744 28.62914497 -36.99761683 32.457514 -43.125 40.078125 C-45.95876384 44.23118936 -48.26158199 48.68246675 -50.54296875 53.15625 C-54.6930734 49.00614535 -54.91561291 42.72205685 -55.10546875 37.09375 C-54.97626934 27.79139276 -51.86361312 20.28096048 -45.80078125 13.08984375 C-44.12747195 11.55147875 -42.47647183 10.34609805 -40.54296875 9.15625 C-39.42921875 8.455 -38.31546875 7.75375 -37.16796875 7.03125 C-25.57720779 1.65223666 -12.53150459 0.76998492 0 0 Z " fill="#54C0ED" transform="translate(254.54296875,27.84375)"/>
<path d="M0 0 C2.48477305 2.48035175 4.96501084 4.96450457 7.4296875 7.46484375 C12.89966505 13.00871011 12.89966505 13.00871011 18.8125 18.0625 C23.48676544 21.93009552 26.10671652 27.32014956 28 33 C28.30565991 38.72662827 28.21547083 44.37844743 27 50 C23.47143625 49.3850195 20.3539667 48.43041795 17.03125 47.10546875 C10.64277203 44.73337114 4.19537289 43.49560282 -2.5 42.3125 C-4.80237717 41.89353867 -7.10447524 41.4730397 -9.40625 41.05078125 C-10.40978516 40.87200439 -11.41332031 40.69322754 -12.44726562 40.5090332 C-15 40 -15 40 -18 39 C-16.65001615 35.98393853 -15.12609526 33.96506661 -12.8125 31.625 C-4.7284237 22.5092738 -0.97862335 12.02308692 0 0 Z " fill="#54C0ED" transform="translate(314,65)"/>
<path d="M0 0 C1.32170227 2.64340454 0.95438104 4.48867516 0.8125 7.4375 C0.78308999 19.77499985 6.41420369 27.69182481 14 37 C14.74894531 37.94101563 15.49789062 38.88203125 16.26953125 39.8515625 C20.66954893 45.32268781 25.25469979 50.59192963 30 55.765625 C31.68253585 57.64533303 33.22284313 59.5581066 34.75 61.5625 C37.32314867 64.35007773 38.2708643 64.82898934 42 65 C44.35036574 63.60655218 44.35036574 63.60655218 46.5 61.375 C47.36238281 60.54871094 48.22476563 59.72242188 49.11328125 58.87109375 C50.07627086 57.9148172 51.03846703 56.95774119 52 56 C53.09724853 54.92796795 54.19492007 53.85636871 55.29296875 52.78515625 C61.11184537 47.07021807 66.79828136 41.2892316 72 35 C72.90685547 33.9790625 72.90685547 33.9790625 73.83203125 32.9375 C81.84687206 23.48842452 83.60880213 13.12713391 84 1 C86.9659401 3.75000441 88.9755243 6.33569567 90.8125 9.9375 C91.25207031 10.77152344 91.69164062 11.60554688 92.14453125 12.46484375 C93.17467737 15.5176512 93.02634515 16.96453579 92 20 C86.51365459 28.71454286 78.87379011 36.46642948 71 43 C57.36941565 57.01910457 48.48819759 73.39817644 43 92 C42.34 92 41.68 92 41 92 C40.74347656 91.11441406 40.48695313 90.22882813 40.22265625 89.31640625 C35.53199954 74.13889412 28.75292589 60.81561036 18 49 C17.13761719 48.030625 16.27523437 47.06125 15.38671875 46.0625 C10.80516308 40.95830761 6.1490049 35.96887115 1.15625 31.26171875 C-2.84469188 27.45893673 -7.10350375 23.28450777 -9 18 C-8.73996605 13.20237365 -7.13957213 10.14144924 -4.5 6.1875 C-3.8709375 5.23230469 -3.241875 4.27710937 -2.59375 3.29296875 C-1 1 -1 1 0 0 Z " fill="#C4BE41" transform="translate(214,67)"/>
<path d="M0 0 C0.33 0 0.66 0 1 0 C1.06316406 0.77601562 1.12632812 1.55203125 1.19140625 2.3515625 C2.68592366 15.53477924 7.96314305 25.71742638 17.27734375 35.109375 C19 37 19 37 19 39 C18.04746338 39.19110352 17.09492676 39.38220703 16.11352539 39.57910156 C12.53858359 40.29922552 8.96658429 41.03314173 5.39526367 41.77099609 C3.85695585 42.08686841 2.31790089 42.39912672 0.77807617 42.70751953 C-10.61315928 44.92719825 -10.61315928 44.92719825 -21.33813477 49.25683594 C-23 50 -23 50 -26 50 C-27.98873281 40.80211075 -28.15402579 32.10745629 -23 24 C-18.88431961 18.60955135 -14.13271349 14.1275414 -8.9609375 9.7734375 C-6.156779 7.23740571 -3.76443888 4.40514644 -1.34765625 1.50390625 C-0.90292969 1.00761719 -0.45820313 0.51132813 0 0 Z " fill="#54C0ED" transform="translate(197,65)"/>
<path d="M0 0 C1.45125134 2.90250268 0.94039197 5.39659196 0.8125 8.625 C0.74042418 14.99388152 1.58910676 18.67047931 5 24 C4.56429687 24.44988281 4.12859375 24.89976563 3.6796875 25.36328125 C-1.30509859 30.74728181 -4.71719834 36.45844651 -8 43 C-12.15010465 38.84989535 -12.37264416 32.56580685 -12.5625 26.9375 C-12.44757039 17.29299007 -8.9542505 9.1855262 -2.26171875 2.1015625 C-1.14216797 1.06128906 -1.14216797 1.06128906 0 0 Z " fill="#4399BE" transform="translate(212,38)"/>
<path d="M0 0 C6.15575131 4.43786722 9.60047237 9.80141712 12 17 C12.30565991 22.72662827 12.21547083 28.37844743 11 34 C7.39198956 33.37054494 4.16203397 32.38441375 0.75 31.0625 C-4.13091016 29.24126486 -8.89209969 28.00483285 -14 27 C-11 25 -11 25 -9.09765625 24.02734375 C-4.02275478 21.30969018 -1.65167585 18.67415061 0.38671875 13.27734375 C1.61044878 8.73317427 1.42798048 4.46243901 0 0 Z " fill="#96D7F1" transform="translate(330,81)"/>
<path d="M0 0 C0.33 0.66 0.66 1.32 1 2 C0.69835937 2.58007812 0.39671875 3.16015625 0.0859375 3.7578125 C-2.05360784 8.17543489 -1.50661954 13.21597249 -1 18 C1.44294703 23.47220135 4.83227208 25.41613604 10 28 C10 28.33 10 28.66 10 29 C9.20335937 29.18175781 8.40671875 29.36351563 7.5859375 29.55078125 C1.99507239 30.87708137 -2.91299444 32.26084316 -8 35 C-8.99 35 -9.98 35 -11 35 C-12.98236727 25.83155138 -13.18162313 17.07137449 -8 9 C-5.47948352 5.8493544 -2.81449213 2.88963634 0 0 Z " fill="#96D7F2" transform="translate(182,80)"/>
<path d="M0 0 C5.60185832 5.20685549 8.56047385 11.10530991 9.421875 18.73828125 C9.57029515 26.1221836 8.86638265 32.19234121 6 39 C3.61999736 35.92128099 1.51116831 32.72939245 -0.5625 29.4375 C-2.34966075 26.60494629 -4.14209266 23.78686101 -6 21 C-4.99088542 19.2421875 -3.98177083 17.484375 -2.97265625 15.7265625 C-1.0534801 12.31983215 -0.72967671 9.79851583 -0.4375 5.875 C-0.35371094 4.77929688 -0.26992188 3.68359375 -0.18359375 2.5546875 C-0.12300781 1.71164063 -0.06242187 0.86859375 0 0 Z " fill="#4399BE" transform="translate(303,42)"/>
<path d="M0 0 C3.73159743 6.23413698 2.5156978 14.41853349 1 21.25 C0.67 22.4875 0.34 23.725 0 25 C-0.53367187 24.81824219 -1.06734375 24.63648437 -1.6171875 24.44921875 C-4.07412338 23.6203217 -6.53642243 22.80893592 -9 22 C-9.78117187 21.73703125 -10.56234375 21.4740625 -11.3671875 21.203125 C-18.14231483 19.02619884 -24.95553983 17.93852526 -32 17 C-27.16669355 13.7777957 -22.54702914 14.94313869 -17 16 C-11.54105854 17.65661881 -6.26496024 19.81517513 -1 22 C-1.00785522 21.10692139 -1.00785522 21.10692139 -1.01586914 20.19580078 C-1.03661999 17.50554453 -1.04965407 14.81530511 -1.0625 12.125 C-1.07087891 11.18785156 -1.07925781 10.25070313 -1.08789062 9.28515625 C-1.09272461 7.94130859 -1.09272461 7.94130859 -1.09765625 6.5703125 C-1.10551147 5.32918701 -1.10551147 5.32918701 -1.11352539 4.06298828 C-1 2 -1 2 0 0 Z " fill="#778279" transform="translate(342,93)"/>
<path d="M0 0 C-3.32421589 1.99196371 -5.83571068 2.24636523 -9.68359375 2.23046875 C-10.77607422 2.22853516 -11.86855469 2.22660156 -12.99414062 2.22460938 C-14.13044922 2.21236328 -15.26675781 2.20011719 -16.4375 2.1875 C-18.13616211 2.1865332 -18.13616211 2.1865332 -19.86914062 2.18554688 C-24.72915909 2.15977188 -29.2458391 2.08925753 -34 1 C-34 0.67 -34 0.34 -34 0 C-22.47790758 -1.22668665 -11.53961818 -1.01288185 0 0 Z " fill="#667D86" transform="translate(273,54)"/>
<path d="M0 0 C0.33 0 0.66 0 1 0 C1.2062504 5.15625988 0.69930719 7.90207844 -1 13 C-6.94 12.67 -12.88 12.34 -19 12 C-19 11.67 -19 11.34 -19 11 C-13.39 11 -7.78 11 -2 11 C-2 8.69 -2 6.38 -2 4 C-1 1.5625 -1 1.5625 0 0 Z " fill="#698087" transform="translate(269,188)"/>
<path d="M0 0 C0.33 0.66 0.66 1.32 1 2 C-2.32850747 5.59478807 -5.98971331 8.22364768 -10 11 C-8.55218207 7.55571735 -6.72305391 5.63869038 -3.875 3.25 C-3.15054687 2.63640625 -2.42609375 2.0228125 -1.6796875 1.390625 C-0.84824219 0.70226562 -0.84824219 0.70226562 0 0 Z M-14 13 C-13.34 13.33 -12.68 13.66 -12 14 C-15.465 16.97 -15.465 16.97 -19 20 C-17.38262276 16.76524552 -16.52370777 15.29427979 -14 13 Z " fill="#727C72" transform="translate(303,92)"/>
<path d="M0 0 C-5.58464759 3.72309839 -10.44085669 4.43727622 -17 4 C-17.66 3.34 -18.32 2.68 -19 2 C-16.58525383 1.46839543 -14.16891893 0.94945234 -11.75 0.4375 C-11.06808594 0.28603516 -10.38617188 0.13457031 -9.68359375 -0.02148438 C-6.18230962 -0.75233495 -3.39701827 -1.32203546 0 0 Z " fill="#667E87" transform="translate(216,105)"/>
<path d="M0 0 C1.485 0.99 1.485 0.99 3 2 C2.67 2.99 2.34 3.98 2 5 C1.92948886 7.73865287 1.90642235 10.45027588 1.9375 13.1875 C1.94201172 13.93708984 1.94652344 14.68667969 1.95117188 15.45898438 C1.96293646 17.30602383 1.98087135 19.15302213 2 21 C1.34 21 0.68 21 0 21 C-1.45497499 14.27074066 -1.9718625 6.66677322 0 0 Z " fill="#7A867B" transform="translate(169,93)"/>
<path d="M0 0 C2.05760161 3.39138289 2.24205319 6.00471084 2.1875 9.9375 C2.18105469 10.95714844 2.17460937 11.97679688 2.16796875 13.02734375 C2.01221966 15.78374048 1.61837386 18.31378395 1 21 C0.67 21 0.34 21 0 21 C-0.19645093 17.87549468 -0.38063489 14.75038555 -0.5625 11.625 C-0.61857422 10.73554687 -0.67464844 9.84609375 -0.73242188 8.9296875 C-0.78076172 8.07890625 -0.82910156 7.228125 -0.87890625 6.3515625 C-0.9260376 5.56604004 -0.97316895 4.78051758 -1.02172852 3.97119141 C-1 2 -1 2 0 0 Z " fill="#7D8675" transform="translate(342,93)"/>
<path d="M0 0 C0.33 0.99 0.66 1.98 1 3 C-4.61 2.67 -10.22 2.34 -16 2 C-16 1.67 -16 1.34 -16 1 C-10.59255982 0.22750855 -5.46137814 -0.09752461 0 0 Z " fill="#7E8774" transform="translate(277,55)"/>
<path d="M0 0 C0.66 0 1.32 0 2 0 C1.67 2.97 1.34 5.94 1 9 C0.01 8.34 -0.98 7.68 -2 7 C-2.3125 4.5 -2.3125 4.5 -2 2 C-1.34 1.34 -0.68 0.68 0 0 Z " fill="#75857C" transform="translate(270,182)"/>
<path d="M0 0 C0.66 0 1.32 0 2 0 C1.39301257 4.12751449 -0.03810791 7.3321148 -2 11 C-2.66 10.34 -3.32 9.68 -4 9 C-2.68 6.03 -1.36 3.06 0 0 Z " fill="#606A6C" transform="translate(74,141)"/>
<path d="M0 0 C3 1 3 1 4.1875 2.875 C5 5 5 5 5 8 C4.34 8 3.68 8 3 8 C0 2.25 0 2.25 0 0 Z " fill="#707970" transform="translate(448,167)"/>
<path d="M0 0 C0.33 0 0.66 0 1 0 C1 2.97 1 5.94 1 9 C-0.98 8.34 -2.96 7.68 -5 7 C-4.34 6.34 -3.68 5.68 -3 5 C-2.01 5.33 -1.02 5.66 0 6 C0 4.02 0 2.04 0 0 Z " fill="#738385" transform="translate(341,109)"/>
<path d="M0 0 C0.33 0.66 0.66 1.32 1 2 C-1.0140476 5.0210714 -2.63279613 6.60667426 -6 8 C-4.55746343 4.63408134 -2.66735273 2.48952921 0 0 Z " fill="#90CEE9" transform="translate(182,80)"/>
<path d="M0 0 C0.99 0.33 1.98 0.66 3 1 C4.1875 4.5625 4.1875 4.5625 5 8 C4.34 8 3.68 8 3 8 C0 2.25 0 2.25 0 0 Z " fill="#646F70" transform="translate(437,144)"/>
</svg>
