<?xml version="1.0" standalone="no"?>
<!DOCTYPE svg PUBLIC "-//W3C//DTD SVG 20010904//EN"
 "http://www.w3.org/TR/2001/REC-SVG-20010904/DTD/svg10.dtd">
<svg version="1.0" xmlns="http://www.w3.org/2000/svg"
 width="512.000000pt" height="512.000000pt" viewBox="0 0 512.000000 512.000000"
 preserveAspectRatio="xMidYMid meet">

<g transform="translate(0.000000,512.000000) scale(0.100000,-0.100000)"
fill="#000000" stroke="none">
<path d="M1410 5106 c-105 -29 -180 -91 -223 -184 l-22 -47 -3 -2302 -2 -2302
21 -57 c28 -73 94 -145 168 -181 l56 -28 1155 0 1155 0 56 28 c66 32 132 99
162 165 l22 47 0 2315 0 2315 -28 57 c-34 68 -108 139 -175 165 -45 17 -106
18 -1172 20 -874 1 -1135 -1 -1170 -11z m502 -158 c27 -8 55 -30 94 -74 39
-45 66 -66 92 -74 50 -13 874 -13 924 0 26 8 53 29 92 74 39 44 67 66 94 74
48 15 422 16 472 2 41 -11 94 -61 109 -103 8 -20 11 -719 11 -2288 0 -1896 -2
-2265 -14 -2292 -19 -45 -67 -87 -112 -98 -56 -13 -2179 -12 -2226 1 -48 14
-97 55 -114 97 -21 49 -21 4538 0 4586 17 41 65 85 102 97 45 13 430 12 476
-2z"/>
</g>
</svg>
