<?xml version="1.0" encoding="UTF-8"?>
<svg version="1.1" xmlns="http://www.w3.org/2000/svg" width="512" height="513">
<path d="M0 0 C0.63164063 0.63292969 1.26328125 1.26585938 1.9140625 1.91796875 C4.40194801 4.40672966 6.89987102 6.88524661 9.3984375 9.36328125 C11.05735698 11.01295516 12.71620932 12.66269658 14.375 14.3125 C15.6125 15.53743164 15.6125 15.53743164 16.875 16.78710938 C21.18608265 21.08108455 25.31589519 25.4443987 29.27978516 30.05932617 C32.3580354 33.53207826 35.68833948 36.75178125 39 40 C42.95867373 43.88283707 46.85058338 47.76340662 50.46875 51.96875 C54.26142048 56.37203182 58.35573206 60.42986924 62.5 64.5 C67.27880802 69.1933195 71.87155094 73.93991978 76.24023438 79.01757812 C79.33394006 82.50271827 82.67436478 85.73807426 86 89 C90.60802955 93.51975312 95.01017797 98.10932227 99.22265625 103 C102.32386585 106.48971278 105.66834132 109.7321662 109 113 C112.95867373 116.88283707 116.85058338 120.76340662 120.46875 124.96875 C124.26142048 129.37203182 128.35573206 133.42986924 132.5 137.5 C137.27880802 142.1933195 141.87155094 146.93991978 146.24023438 152.01757812 C149.33394006 155.50271827 152.67436478 158.73807426 156 162 C160.60802955 166.51975312 165.01017797 171.10932227 169.22265625 176 C172.32386585 179.48971278 175.66834132 182.7321662 179 186 C182.95867373 189.88283707 186.85058338 193.76340662 190.46875 197.96875 C194.26142048 202.37203182 198.35573206 206.42986924 202.5 210.5 C207.33922937 215.25265997 212.00372433 220.05846841 216.42822266 225.20117188 C218.49905189 227.57114233 220.69544012 229.79243335 222.9375 232 C224.09572266 233.1446875 224.09572266 233.1446875 225.27734375 234.3125 C225.84582031 234.869375 226.41429687 235.42625 227 236 C225.64768813 239.02977429 224.14519457 241.08472613 221.76953125 243.390625 C220.81143555 244.33228516 220.81143555 244.33228516 219.83398438 245.29296875 C219.16689453 245.93878906 218.49980469 246.58460938 217.8125 247.25 C213.90538918 251.05214366 210.07063283 254.85066043 206.51171875 258.984375 C202.25802849 263.92507501 197.61226002 268.43778328 192.9609375 273 C189.68299366 276.23997537 186.50864439 279.50697069 183.5 283 C179.24967188 287.93462131 174.60741662 292.44253389 169.9609375 297 C166.68299366 300.23997537 163.50864439 303.50697069 160.5 307 C156.24967188 311.93462131 151.60741662 316.44253389 146.9609375 321 C143.68299366 324.23997537 140.50864439 327.50697069 137.5 331 C133.24967188 335.93462131 128.60741662 340.44253389 123.9609375 345 C120.69334698 348.22974198 117.52847667 351.48511625 114.53125 354.96875 C110.07439395 360.14314977 105.1855361 364.86250569 100.31640625 369.64453125 C96.2817751 373.63538702 92.46028262 377.71652009 88.75976562 382.01757812 C85.03608091 386.21240607 80.96344461 390.07416927 76.9609375 394 C73.68299366 397.23997537 70.50864439 400.50697069 67.5 404 C63.24967188 408.93462131 58.60741662 413.44253389 53.9609375 418 C50.68299366 421.23997537 47.50864439 424.50697069 44.5 428 C40.24967188 432.93462131 35.60741662 437.44253389 30.9609375 442 C27.6894645 445.23357949 24.52104154 448.49331315 21.51953125 451.98046875 C17.78840663 456.31314852 13.76629151 460.30931167 9.6875 464.3125 C8.27241561 465.70206438 6.85955401 467.093897 5.44921875 468.48828125 C4.52629028 469.39380737 4.52629028 469.39380737 3.5847168 470.31762695 C1.80163866 472.11691651 1.80163866 472.11691651 0 475 C-0.66 475 -1.32 475 -2 475 C-2.97148051 473.19451263 -3.92646511 471.38014699 -4.875 469.5625 C-5.67550781 468.04849609 -5.67550781 468.04849609 -6.4921875 466.50390625 C-10.6644205 456.80832852 -10.28565703 447.01675203 -10.26069641 436.6807251 C-10.2637191 434.90855681 -10.26760917 433.13638983 -10.27228898 431.36422515 C-10.28256272 426.50695797 -10.28038872 421.64976466 -10.27610838 416.79249144 C-10.27364001 411.54899012 -10.28265677 406.30550653 -10.29014587 401.06201172 C-10.3028922 390.79380203 -10.30468661 380.52561848 -10.30234561 370.25740221 C-10.30056206 361.90961273 -10.30231289 353.56183119 -10.30657005 345.21404266 C-10.30716524 344.02561014 -10.30776043 342.83717761 -10.30837366 341.61273198 C-10.30958542 339.19835029 -10.31079955 336.7839686 -10.31201603 334.36958691 C-10.32289151 311.72913008 -10.32072916 289.08868815 -10.31463119 266.44823048 C-10.30946316 245.74528197 -10.32071446 225.04238053 -10.33972941 204.33944133 C-10.35911155 183.07338581 -10.36736307 161.80735255 -10.36360615 140.54128814 C-10.36169454 128.60539307 -10.36417776 116.66953806 -10.37832069 104.73365021 C-10.3902403 94.57137517 -10.39163291 84.40916484 -10.37953053 74.24688891 C-10.3736457 69.06454188 -10.37253151 63.88231317 -10.38453293 58.69997406 C-10.3954046 53.95015842 -10.39227303 49.20055969 -10.37827124 44.45075414 C-10.37562784 42.73815188 -10.37797957 41.02553255 -10.38600711 39.31294706 C-10.44735748 25.24083714 -9.44799629 12.83731216 -1 1 C-0.67 0.67 -0.34 0.34 0 0 Z " fill="#69A8FF" transform="translate(38,18)"/>
<path d="M0 0 C4.34590777 3.5940179 8.31330791 7.26953286 12.0625 11.5 C16.84693904 16.83453069 21.84306295 21.91726386 26.96508789 26.92773438 C29.90145013 29.82002765 32.70164329 32.76575812 35.390625 35.890625 C39.21319967 40.31665226 43.32946739 44.40407441 47.5 48.5 C52.30158044 53.21568455 56.91551039 57.98564092 61.30322266 63.08935547 C64.56744229 66.76500767 68.15796741 70.12262623 71.72070312 73.50585938 C73.20218579 74.94948766 74.60802925 76.46987877 76 78 C76 78.99 76 79.98 76 81 C75.33170166 81.3717334 74.66340332 81.7434668 73.97485352 82.12646484 C57.19311466 91.4658349 57.19311466 91.4658349 40.5859375 101.11010742 C34.27328523 104.85224409 27.92096234 108.52381678 21.5625 112.1875 C20.45527588 112.82550537 19.34805176 113.46351074 18.20727539 114.12084961 C15.93662932 115.42889477 13.66587642 116.73675448 11.39501953 118.04443359 C5.9283002 121.19332054 0.46425113 124.34683264 -5 127.5 C-7.16665311 128.7500235 -9.33331979 130.00002347 -11.5 131.25 C-12.5725 131.86875 -13.645 132.4875 -14.75 133.125 C-50.5 153.75 -50.5 153.75 -53.75048828 155.62524414 C-55.91557071 156.87435518 -58.08060982 158.12354129 -60.24560547 159.37280273 C-65.68615706 162.51202309 -71.12747216 165.64990563 -76.5703125 168.78515625 C-87.02206199 174.80747329 -97.46299548 180.84669337 -107.875 186.9375 C-117.14224807 192.35760357 -126.45201676 197.70034064 -135.78039551 203.01419067 C-144.09230397 207.74982951 -152.37096039 212.5390117 -160.625 217.375 C-164.41428543 219.58744169 -168.20627206 221.79518583 -172 224 C-172.86431641 224.50354004 -173.72863281 225.00708008 -174.61914062 225.52587891 C-189.15374964 233.95561438 -200.86565882 238.8086249 -218 237 C-221.546875 235.98046875 -221.546875 235.98046875 -224 235 C-222.39017885 230.90227343 -219.42394174 228.23514706 -216.3125 225.25 C-212.92787025 221.98208162 -209.67675381 218.67670355 -206.60546875 215.109375 C-202.31490695 210.14191712 -197.64399102 205.59333986 -192.9609375 201 C-189.68299366 197.76002463 -186.50864439 194.49302931 -183.5 191 C-179.24967188 186.06537869 -174.60741662 181.55746611 -169.9609375 177 C-166.68299366 173.76002463 -163.50864439 170.49302931 -160.5 167 C-156.24967188 162.06537869 -151.60741662 157.55746611 -146.9609375 153 C-143.69334698 149.77025802 -140.52847667 146.51488375 -137.53125 143.03125 C-133.07439395 137.85685023 -128.1855361 133.13749431 -123.31640625 128.35546875 C-119.2817751 124.36461298 -115.46028262 120.28347991 -111.75976562 115.98242188 C-108.03608091 111.78759393 -103.96344461 107.92583073 -99.9609375 104 C-96.68299366 100.76002463 -93.50864439 97.49302931 -90.5 94 C-86.24967188 89.06537869 -81.60741662 84.55746611 -76.9609375 80 C-73.68299366 76.76002463 -70.50864439 73.49302931 -67.5 70 C-63.24967188 65.06537869 -58.60741662 60.55746611 -53.9609375 56 C-50.68299366 52.76002463 -47.50864439 49.49302931 -44.5 46 C-40.24967188 41.06537869 -35.60741662 36.55746611 -30.9609375 32 C-27.7136839 28.79035937 -24.56625818 25.55752801 -21.58984375 22.09375 C-17.4829437 17.32550024 -13.03360673 12.92426999 -8.5625 8.5 C-7.73556641 7.67757813 -6.90863281 6.85515625 -6.05664062 6.0078125 C-4.04005041 4.00287887 -2.02114764 2.00033747 0 0 Z " fill="#FF5A5A" transform="translate(285,276)"/>
<path d="M0 0 C0.73992187 -0.02900391 1.47984375 -0.05800781 2.2421875 -0.08789062 C13.75388187 -0.21558007 23.53016962 5.04339883 33.25 10.6875 C34.32709229 11.30181885 35.40418457 11.9161377 36.51391602 12.54907227 C39.85021014 14.45736733 43.176478 16.38205921 46.5 18.3125 C47.51239746 18.89918457 48.52479492 19.48586914 49.56787109 20.09033203 C54.52240639 22.96482444 59.4688265 25.85287286 64.41015625 28.75 C70.71570419 32.4446331 77.04294436 36.10102681 83.375 39.75 C84.99523071 40.68380493 84.99523071 40.68380493 86.64819336 41.63647461 C88.83796334 42.89826826 91.02782355 44.15990534 93.21777344 45.42138672 C98.64659942 48.54930148 104.07319281 51.68108448 109.5 54.8125 C111.66665583 56.06251879 113.8333225 57.31251878 116 58.5625 C155 81.0625 194 103.5625 233 126.0625 C234.07419189 126.6822168 235.14838379 127.30193359 236.25512695 127.94042969 C238.40473634 129.18060761 240.55431358 130.42084127 242.70385742 131.66113281 C247.77309212 134.5860023 252.84264936 137.51030833 257.9133606 140.43261719 C260.30426597 141.81056938 262.69498672 143.18884172 265.08569336 144.56713867 C266.76983963 145.53790982 268.45425231 146.50821874 270.13867188 147.47851562 C271.16154297 148.06826172 272.18441406 148.65800781 273.23828125 149.265625 C274.13587158 149.78286133 275.03346191 150.30009766 275.95825195 150.83300781 C278.48578745 152.3042272 280.9957655 153.80201829 283.5 155.3125 C282.92149623 158.84574825 281.70353355 160.45767694 279.1484375 162.921875 C278.46136719 163.59476563 277.77429688 164.26765625 277.06640625 164.9609375 C276.34324219 165.65445313 275.62007813 166.34796875 274.875 167.0625 C270.1359444 171.65318737 265.59549971 176.28491629 261.29541016 181.29003906 C257.35887854 185.72439151 253.04492112 189.80416066 248.81640625 193.95703125 C244.7817751 197.94788702 240.96028262 202.02902009 237.25976562 206.33007812 C233.53608091 210.52490607 229.46344461 214.38666927 225.4609375 218.3125 C221.45269811 222.27431191 217.66535251 226.32911055 214.04296875 230.6484375 C212.5 232.3125 212.5 232.3125 209.5 234.3125 C206.34927872 231.18677529 203.20206864 228.0575669 200.05786133 224.92529297 C198.99107703 223.86349139 197.92339147 222.80259442 196.85473633 221.74267578 C191.43558356 216.36667318 186.10045503 210.98021334 181.13891602 205.171875 C178.0961372 201.71979643 174.78369812 198.53329203 171.5 195.3125 C166.89197045 190.79274688 162.48982203 186.20317773 158.27734375 181.3125 C155.17613415 177.82278722 151.83165868 174.5803338 148.5 171.3125 C144.54132627 167.42966293 140.64941662 163.54909338 137.03125 159.34375 C133.23857952 154.94046818 129.14426794 150.88263076 125 146.8125 C120.22119198 142.1191805 115.62844906 137.37258022 111.25976562 132.29492188 C108.16605994 128.80978173 104.82563522 125.57442574 101.5 122.3125 C96.89197045 117.79274688 92.48982203 113.20317773 88.27734375 108.3125 C85.17613415 104.82278722 81.83165868 101.5803338 78.5 98.3125 C73.89197045 93.79274688 69.48982203 89.20317773 65.27734375 84.3125 C62.17613415 80.82278722 58.83165868 77.5803338 55.5 74.3125 C50.89197045 69.79274688 46.48982203 65.20317773 42.27734375 60.3125 C39.17613415 56.82278722 35.83165868 53.5803338 32.5 50.3125 C28.54132627 46.42966293 24.64941662 42.54909338 21.03125 38.34375 C17.23857952 33.94046818 13.14426794 29.88263076 9 25.8125 C4.15814208 21.0572585 -0.53256157 16.26447765 -4.93188477 11.09326172 C-6.52571775 9.28329476 -8.20279297 7.61195489 -9.9375 5.9375 C-12.5 3.3125 -12.5 3.3125 -12.5 1.3125 C-8.34470424 0.16447821 -4.28774406 0.05377605 0 0 Z " fill="#A7EAF9" transform="translate(75.5,-0.3125)"/>
<path d="M0 0 C3.78518732 1.4160506 7.19749321 3.15421065 10.69921875 5.16796875 C11.81280762 5.80629639 12.92639648 6.44462402 14.07373047 7.10229492 C15.27838145 7.79725732 16.48296968 8.4923285 17.6875 9.1875 C18.94142546 9.9082088 20.19549673 10.62866396 21.44970703 11.34887695 C24.03353538 12.83346773 26.61614661 14.32014415 29.19775391 15.80859375 C32.74805424 17.85553267 36.30151411 19.89691227 39.85546875 21.9375 C45.20991124 25.01421751 50.55541314 28.10605624 55.89697266 31.20507812 C58.99218954 32.9954821 62.09533965 34.77154088 65.19921875 36.546875 C67.1539786 37.67650769 69.10842082 38.80669026 71.0625 39.9375 C71.93632324 40.4327417 72.81014648 40.9279834 73.71044922 41.43823242 C85.99746508 48.59909094 95.49868984 58.0679119 99.51171875 72.02734375 C102.80260693 85.322532 101.03287477 98.57586881 94.484375 110.6328125 C84.63248735 126.3439807 65.92704562 133.98188548 50.2734375 142.859375 C43.56664204 146.66387864 36.90241634 150.53863813 30.25 154.4375 C21.22116864 159.72479436 12.14502211 164.91644359 3 170 C-2.19727515 165.86580386 -6.63974673 161.2209553 -11.09155273 156.31494141 C-15.58070355 151.39234099 -20.2535196 146.67939942 -25.01586914 142.02148438 C-27.94441656 139.13730236 -30.73455126 136.19686146 -33.41796875 133.08203125 C-37.07911081 128.84348292 -41.00329954 124.92013531 -45 121 C-48.96392028 117.11201689 -52.8602624 113.22553611 -56.484375 109.015625 C-60.19528689 104.70658656 -64.19313418 100.73117802 -68.25 96.75 C-69.6534099 95.37219977 -71.05453717 93.99206979 -72.453125 92.609375 C-73.06317383 92.01092773 -73.67322266 91.41248047 -74.30175781 90.79589844 C-74.86217773 90.20325195 -75.42259766 89.61060547 -76 89 C-76.91410645 88.05302246 -76.91410645 88.05302246 -77.84667969 87.08691406 C-79 85 -79 85 -78.48510742 82.5637207 C-76.73301945 79.53911511 -74.7428198 77.42121223 -72.23828125 74.98046875 C-71.76939987 74.51820389 -71.30051849 74.05593903 -70.81742859 73.57966614 C-69.32276878 72.10828217 -67.81833736 70.64743505 -66.3125 69.1875 C-60.56876554 63.58072213 -54.87517616 57.99922479 -49.66088867 51.88793945 C-45.98699173 47.71180466 -41.92967484 43.89270789 -37.9609375 40 C-34.68299366 36.76002463 -31.50864439 33.49302931 -28.5 30 C-24.24967188 25.06537869 -19.60741662 20.55746611 -14.9609375 16 C-10.9419161 12.02753097 -7.12200798 7.95639071 -3.4453125 3.6640625 C-2.34597202 2.39833536 -1.1854566 1.1854566 0 0 Z " fill="#FF9F00" transform="translate(385,171)"/>
<path d="M0 0 C4.34590777 3.5940179 8.31330791 7.26953286 12.0625 11.5 C16.84693904 16.83453069 21.84306295 21.91726386 26.96508789 26.92773438 C29.90145013 29.82002765 32.70164329 32.76575812 35.390625 35.890625 C39.21319967 40.31665226 43.32946739 44.40407441 47.5 48.5 C52.30158044 53.21568455 56.91551039 57.98564092 61.30322266 63.08935547 C64.56744229 66.76500767 68.15796741 70.12262623 71.72070312 73.50585938 C73.20218579 74.94948766 74.60802925 76.46987877 76 78 C76 78.99 76 79.98 76 81 C75.33170166 81.3717334 74.66340332 81.7434668 73.97485352 82.12646484 C57.19311466 91.4658349 57.19311466 91.4658349 40.5859375 101.11010742 C34.27328523 104.85224409 27.92096234 108.52381678 21.5625 112.1875 C20.45527588 112.82550537 19.34805176 113.46351074 18.20727539 114.12084961 C15.93662932 115.42889477 13.66587642 116.73675448 11.39501953 118.04443359 C7.00353299 120.57397532 2.61375978 123.10647868 -1.77563477 125.63964844 C-3.91506688 126.87402965 -6.05487467 128.10775999 -8.19506836 129.34082031 C-13.29974232 132.28261524 -18.4007575 135.23031576 -23.49072266 138.19747925 C-25.90938314 139.60697037 -28.32985862 141.01332765 -30.75048828 142.41943359 C-32.46956052 143.41978682 -34.1859782 144.42469734 -35.90234375 145.4296875 C-36.93488281 146.02910156 -37.96742188 146.62851562 -39.03125 147.24609375 C-39.94455078 147.77904053 -40.85785156 148.3119873 -41.79882812 148.86108398 C-44 150 -44 150 -46 150 C-46.64507178 137.08406483 -47.16450504 124.16943002 -47.53101921 111.2424221 C-47.7050899 105.23684236 -47.91958297 99.23884864 -48.23242188 93.23876953 C-50.46305242 49.54443722 -50.46305242 49.54443722 -40.87005043 38.46809578 C-36.90043851 34.34336399 -32.37378626 31.01623091 -27.60798645 27.86029053 C-23.73553568 25.09805091 -20.9720536 21.6711427 -18 18 C-16.47895728 16.40839109 -14.94132377 14.83226302 -13.37890625 13.28125 C-12.58935547 12.49492187 -11.79980469 11.70859375 -10.98632812 10.8984375 C-10.18646484 10.10695313 -9.38660156 9.31546875 -8.5625 8.5 C-7.73556641 7.67757813 -6.90863281 6.85515625 -6.05664062 6.0078125 C-4.04005041 4.00287887 -2.02114764 2.00033747 0 0 Z " fill="#FF3636" transform="translate(285,276)"/>
<path d="M0 0 C0.94110626 0.53861664 1.88221252 1.07723328 2.85183716 1.63217163 C4.10971236 2.35163841 5.36759655 3.07108947 6.62548828 3.79052734 C7.24301468 4.14400742 7.86054108 4.49748749 8.4967804 4.86167908 C13.27935114 7.59640262 18.08399874 10.28981889 22.89819336 12.96850586 C34.31696603 19.32267404 45.63636596 25.83021427 56.91015625 32.4375 C63.2157045 36.13213328 69.54296501 39.78849047 75.875 43.4375 C76.93992676 44.05133545 78.00485352 44.6651709 79.10205078 45.29760742 C82.40114408 47.19879245 85.70056874 49.09940156 89 51 C93.1963131 53.41783662 97.39220284 55.83640662 101.58770752 58.25564575 C103.27098222 59.22606473 104.95457887 60.19592519 106.63818359 61.16577148 C107.66121582 61.75559814 108.68424805 62.3454248 109.73828125 62.953125 C110.63587158 63.47036133 111.53346191 63.98759766 112.45825195 64.52050781 C114.98578745 65.9917272 117.4957655 67.48951829 120 69 C119.42149623 72.53324825 118.20353355 74.14517694 115.6484375 76.609375 C114.96136719 77.28226562 114.27429688 77.95515625 113.56640625 78.6484375 C112.84324219 79.34195313 112.12007813 80.03546875 111.375 80.75 C106.6359444 85.34068737 102.09549971 89.97241629 97.79541016 94.97753906 C93.85887854 99.41189151 89.54492112 103.49166066 85.31640625 107.64453125 C81.2817751 111.63538702 77.46028262 115.71652009 73.75976562 120.01757812 C70.03608091 124.21240607 65.96344461 128.07416927 61.9609375 132 C57.95269811 135.96181191 54.16535251 140.01661055 50.54296875 144.3359375 C49 146 49 146 46 148 C42.84927872 144.87427529 39.70206864 141.7450669 36.55786133 138.61279297 C35.49107703 137.55099139 34.42339147 136.49009442 33.35473633 135.43017578 C31.80563666 133.89341087 30.25996989 132.35325887 28.71484375 130.8125 C27.78792725 129.89082031 26.86101074 128.96914062 25.90600586 128.01953125 C23.76507675 125.85028508 21.79885062 123.5839856 19.83961487 121.25012207 C17.35703205 118.3876135 14.82024296 115.92699952 11.87133789 113.55041504 C4.68664714 107.60466491 -0.69846389 102.45390449 -1.69752502 92.84653473 C-1.90754321 87.66251435 -1.7678486 82.525564 -1.5625 77.34375 C-1.53258973 75.10225576 -1.5098466 72.8606556 -1.49389648 70.61901855 C-1.43332705 64.77018093 -1.27667083 58.92788715 -1.09863281 53.081604 C-0.93378775 47.09566772 -0.86163753 41.10865433 -0.78125 35.12109375 C-0.61058652 23.41121535 -0.33819742 11.70615545 0 0 Z " fill="#76E2F8" transform="translate(239,86)"/>
<path d="M0 0 C3.58524603 1.79262301 5.07351055 2.87363998 7.6796875 5.703125 C8.36160156 6.43660156 9.04351562 7.17007813 9.74609375 7.92578125 C10.44863281 8.69277344 11.15117187 9.45976562 11.875 10.25 C13.26735518 11.75601683 14.66057054 13.2612389 16.0546875 14.765625 C16.71952148 15.48427734 17.38435547 16.20292969 18.06933594 16.94335938 C20.65162581 19.69414464 23.31129196 22.35343472 26 25 C24.64768813 28.02977429 23.14519457 30.08472613 20.76953125 32.390625 C19.81663208 33.32636353 19.81663208 33.32636353 18.84448242 34.28100586 C18.17392822 34.93077393 17.50337402 35.58054199 16.8125 36.25 C12.04702181 40.923867 7.40327122 45.58020802 3.19921875 50.77734375 C2.80347656 51.18082031 2.40773437 51.58429688 2 52 C1.34 52 0.68 52 0 52 C0 34.84 0 17.68 0 0 Z " fill="#2883FF" transform="translate(239,229)"/>
</svg>
