<?xml version="1.0" encoding="UTF-8"?>
<svg version="1.1" xmlns="http://www.w3.org/2000/svg" width="512" height="512">
<path d="M0 0 C0.96594086 0.00054382 1.93188171 0.00108765 2.92709351 0.00164795 C18.82427694 0.04267209 34.1070568 0.96742637 49.6875 4.375 C51.16669922 4.69645996 51.16669922 4.69645996 52.67578125 5.02441406 C95.19933085 14.59639263 134.76892784 34.97465322 165.90673828 65.625 C167.7033347 67.39056116 169.52002449 69.13341596 171.33984375 70.875 C178.70405173 77.99389991 185.31439779 85.42628569 191.41259766 93.65576172 C192.6502098 95.32471322 193.90803819 96.97677553 195.16796875 98.62890625 C225.31116949 138.80787186 240.16848588 188.81471795 240.0625 238.6875 C240.06168427 240.13641129 240.06168427 240.13641129 240.06085205 241.61459351 C240.01982791 257.51177694 239.09507363 272.7945568 235.6875 288.375 C235.36604004 289.85419922 235.36604004 289.85419922 235.03808594 291.36328125 C221.02975195 353.59535596 182.53559508 408.07136302 128.6875 442.3125 C112.40608414 452.02947246 95.66473039 460.31246959 77.6875 466.375 C76.85653809 466.65569336 76.02557617 466.93638672 75.16943359 467.22558594 C62.5434945 471.41040823 49.81226375 474.26787357 36.6875 476.375 C35.99672363 476.49359375 35.30594727 476.6121875 34.59423828 476.734375 C1.61652115 482.24021995 -32.64290115 477.9965532 -64.73901367 469.99169922 C-65.58826416 469.78818848 -66.43751465 469.58467773 -67.3125 469.375 C-68.53102661 469.02332764 -68.53102661 469.02332764 -69.77416992 468.66455078 C-73.13404808 468.28128489 -75.13864889 469.1559338 -78.2578125 470.4375 C-79.40709229 470.90115967 -80.55637207 471.36481934 -81.74047852 471.8425293 C-82.343367 472.09255707 -82.94625549 472.34258484 -83.56741333 472.60018921 C-85.46188091 473.38510145 -87.36231814 474.15341916 -89.26538086 474.91723633 C-91.79991091 475.93490365 -94.33266499 476.95675301 -96.86376953 477.98291016 C-156.17039565 501.92219814 -156.17039565 501.92219814 -181.4921875 492.62890625 C-195.74333467 486.2928699 -204.62020747 476.90123286 -210.3125 462.375 C-211.71100772 457.76102572 -212.56929879 453.12949702 -213.3125 448.375 C-213.45171875 447.5495166 -213.5909375 446.7240332 -213.734375 445.87353516 C-214.1957469 443.12668197 -214.63325714 440.37704747 -215.0625 437.625 C-215.20268555 436.76189209 -215.34287109 435.89878418 -215.48730469 435.00952148 C-217.06999421 424.13528133 -215.95011388 414.00454054 -209.5390625 404.83984375 C-203.56183864 397.65162101 -196.27246029 393.06265798 -188.3125 388.375 C-190.11785432 384.30269508 -192.75555711 380.80771303 -195.3125 377.1875 C-211.43776334 353.96254549 -225.67615774 327.36420066 -230.94140625 299.35546875 C-232.57783997 285.3932135 -232.57783997 285.3932135 -239.5078125 274.23828125 C-243.06588332 272.58988775 -246.56720939 271.51360171 -250.3125 270.375 C-261.457448 262.50708956 -269.32791101 251.70800934 -272.3125 238.375 C-273.74723765 224.59816241 -271.56244486 213.04709202 -266.3125 200.375 C-265.99684082 199.58222656 -265.68118164 198.78945312 -265.35595703 197.97265625 C-258.23699179 180.18413741 -258.23699179 180.18413741 -251.3125 174.375 C-250.76722656 173.90191406 -250.22195312 173.42882812 -249.66015625 172.94140625 C-245.63272383 169.97150532 -242.41489792 169.26958407 -237.44775391 168.73193359 C-233.68882649 168.21360905 -230.4520016 167.6026706 -227.3125 165.375 C-223.54966792 159.79772339 -222.18796529 152.82422875 -220.31689453 146.44140625 C-208.38870676 110.02477076 -178.2004239 74.49177808 -148.3125 51.375 C-147.36761719 50.6015625 -146.42273438 49.828125 -145.44921875 49.03125 C-131.44717226 37.78691279 -115.60790409 28.85798017 -99.3125 21.375 C-98.24128906 20.8807251 -98.24128906 20.8807251 -97.1484375 20.37646484 C-78.09146353 11.69873563 -58.01359639 5.59013154 -37.3125 2.375 C-36.18803467 2.19839844 -35.06356934 2.02179687 -33.9050293 1.83984375 C-22.59999807 0.2374094 -11.40708054 -0.02424147 0 0 Z " fill="#F14E4E" transform="translate(272.3125,8.625)"/>
<path d="M0 0 C0.66 0 1.32 0 2 0 C3.37904389 74.45245816 -16.7723286 136.73012551 -68.82421875 190.953125 C-93.88364532 216.54877325 -126.17324271 235.59247279 -160 247 C-160.83096191 247.28069336 -161.66192383 247.56138672 -162.51806641 247.85058594 C-175.1440055 252.03540823 -187.87523625 254.89287357 -201 257 C-202.03616455 257.17789063 -202.03616455 257.17789063 -203.09326172 257.359375 C-236.07097885 262.86521995 -270.33040115 258.6215532 -302.42651367 250.61669922 C-303.27576416 250.41318848 -304.12501465 250.20967773 -305 250 C-305.81235107 249.76555176 -306.62470215 249.53110352 -307.46166992 249.28955078 C-310.82154808 248.90628489 -312.82614889 249.7809338 -315.9453125 251.0625 C-317.09459229 251.52615967 -318.24387207 251.98981934 -319.42797852 252.4675293 C-320.030867 252.71755707 -320.63375549 252.96758484 -321.25491333 253.22518921 C-323.14938091 254.01010145 -325.04981814 254.77841916 -326.95288086 255.54223633 C-329.48741091 256.55990365 -332.02016499 257.58175301 -334.55126953 258.60791016 C-393.85789565 282.54719814 -393.85789565 282.54719814 -419.1796875 273.25390625 C-433.62896083 266.82978334 -442.05827907 257.45105534 -448 243 C-449.66455753 238.1209363 -450.07905201 234.13188871 -450 229 C-449.12714355 228.86013672 -448.25428711 228.72027344 -447.35498047 228.57617188 C-394.91237361 220.05382009 -346.87916663 202.80701646 -299 180 C-298.07203613 179.56397461 -297.14407227 179.12794922 -296.18798828 178.67871094 C-281.68634084 171.84121416 -268.03751885 163.78817933 -254.42662048 155.35501099 C-248.46052852 151.65864927 -242.46064267 148.01909126 -236.4569397 144.38424683 C-233.53229685 142.61279528 -230.60991 140.83763188 -227.6875 139.0625 C-226.00333984 138.03962891 -226.00333984 138.03962891 -224.28515625 136.99609375 C-216.45177035 132.23645024 -208.62300832 127.46921129 -200.79443359 122.70166016 C-196.99217374 120.38628787 -193.18947044 118.07164447 -189.38671875 115.75708008 C-187.46347882 114.58644765 -185.54030165 113.4157121 -183.6171875 112.24487305 C-178.86446368 109.35140253 -174.11089897 106.45933318 -169.35546875 103.5703125 C-159.32239348 97.47282993 -149.30663765 91.34862024 -139.3125 85.1875 C-127.24261446 77.74792678 -115.12829706 70.38343457 -103.00325012 63.03431702 C-97.49770981 59.69685528 -91.99837567 56.34924724 -86.5 53 C-78.10803706 47.88945324 -69.71163841 42.78624317 -61.3125 37.6875 C-60.43794159 37.15657745 -60.43794159 37.15657745 -59.54571533 36.6149292 C-54.13642192 33.3311484 -48.72688291 30.04777246 -43.31689453 26.76513672 C-35.20974043 21.84592799 -27.10393318 16.92451397 -19 12 C-18.02530762 11.40799805 -17.05061523 10.81599609 -16.04638672 10.20605469 C-13.46745342 8.6389582 -10.8897211 7.06991026 -8.3125 5.5 C-7.56983887 5.04898926 -6.82717773 4.59797852 -6.06201172 4.13330078 C-2.85546827 2.30073374 -2.85546827 2.30073374 0 0 Z " fill="#E0E4DB" transform="translate(510,228)"/>
<path d="M0 0 C0.96594086 0.00054382 1.93188171 0.00108765 2.92709351 0.00164795 C18.82427694 0.04267209 34.1070568 0.96742637 49.6875 4.375 C51.16669922 4.69645996 51.16669922 4.69645996 52.67578125 5.02441406 C96.32654038 14.85012557 135.81981928 35.97685673 167.6875 67.375 C168.92811564 68.5771014 170.16900256 69.77892289 171.41015625 70.98046875 C178.34674956 77.75267041 184.75811743 84.68876334 190.6875 92.375 C178.25531598 116.87566052 178.25531598 116.87566052 172.41015625 119.33203125 C168.66639488 119.391115 165.68951716 118.1420586 162.3125 116.6875 C161.67828125 116.43033203 161.0440625 116.17316406 160.390625 115.90820312 C159.10439399 115.37402351 157.82815836 114.81517581 156.56274414 114.23339844 C154.78769981 113.42086675 152.97422594 112.69386447 151.16015625 111.97265625 C145.59722375 108.67856749 143.29079976 102.06553789 140.5 96.5 C139.85066214 95.24158442 139.19918871 93.98426864 138.5456543 92.72802734 C137.22204233 90.18059251 135.90680806 87.62911272 134.59765625 85.07421875 C131.81857402 79.66919885 128.9141664 74.33308501 126 69 C125.51958252 68.11070801 125.03916504 67.22141602 124.54418945 66.30517578 C122.60364228 62.73706175 120.65898752 59.24625847 118.35546875 55.8984375 C116.6875 53.375 116.6875 53.375 116.6875 51.375 C115.82125 50.941875 115.82125 50.941875 114.9375 50.5 C113.56735192 49.81492596 112.20891208 49.10476286 110.875 48.3515625 C106.16647201 46.24954107 101.68929248 46.40242924 96.6875 47.375 C91.7624508 49.51266386 87.40043635 52.72311671 83.01171875 55.77783203 C79.53363075 58.1679215 75.98230904 60.44136608 72.43554688 62.7277832 C68.50866329 65.26023238 64.59806021 67.81744535 60.6875 70.375 C59.76066406 69.72660156 58.83382813 69.07820313 57.87890625 68.41015625 C54.30453458 66.13078337 52.82718972 65.58229346 48.6875 66.375 C45.70958359 68.26885913 45.70958359 68.26885913 43.6875 71.375 C43.40359555 73.36209649 43.40359555 73.36209649 43.375 75.4375 C42.6875 79.375 42.6875 79.375 40.96484375 80.8125 C38.8619912 81.91163164 36.99243862 82.80549182 34.6875 83.375 C33.6975 83.045 32.7075 82.715 31.6875 82.375 C31.6875 81.715 31.6875 81.055 31.6875 80.375 C24.87676585 78.94507888 24.87676585 78.94507888 18.625 81.3125 C16.71618397 84.32966083 16.47948703 85.15407471 16.3125 88.5 C16.10625 89.77875 15.9 91.0575 15.6875 92.375 C12.46956343 94.37862088 10.26775865 95.50668822 6.4375 95.1875 C4.6875 94.375 4.6875 94.375 1.6875 92.375 C-2.67503463 91.80948625 -4.61002588 91.88177349 -8.25 94.4375 C-10.76793836 98.02365463 -10.7331933 100.08392835 -10.3125 104.375 C-11.55426695 105.07726141 -12.80635599 105.76129109 -14.0625 106.4375 C-14.75859375 106.82035156 -15.4546875 107.20320313 -16.171875 107.59765625 C-18.7387988 108.52980559 -19.79402507 108.35270063 -22.3125 107.375 C-23.3025 106.715 -24.2925 106.055 -25.3125 105.375 C-28.32800927 105.03994341 -30.41133544 104.81461409 -33.3125 105.375 C-35.99088573 107.30626102 -35.99088573 107.30626102 -37.3125 110.375 C-37.64715889 114.08440775 -37.64715889 114.08440775 -37.3125 117.375 C-38.55426695 118.07726141 -39.80635599 118.76129109 -41.0625 119.4375 C-41.75859375 119.82035156 -42.4546875 120.20320313 -43.171875 120.59765625 C-45.71284894 121.52038219 -46.8230355 121.34868062 -49.3125 120.375 C-49.910625 119.83875 -50.50875 119.3025 -51.125 118.75 C-53.37574577 117.0645666 -53.37574577 117.0645666 -56.8125 117.375 C-60.37342298 118.12439444 -60.37342298 118.12439444 -62.75 120.5 C-64.65927009 124.01305696 -64.42843871 126.43308396 -64.3125 130.375 C-95.03186892 145.65142971 -124.52755724 157.19100566 -158.5625 162.6875 C-159.74611618 162.88162979 -159.74611618 162.88162979 -160.9536438 163.0796814 C-178.27631263 165.88651498 -195.47645909 166.54878775 -213 166.4375 C-214.40689939 166.43245735 -215.81380059 166.42789949 -217.22070312 166.42382812 C-220.58468496 166.41226805 -223.9485661 166.39598222 -227.3125 166.375 C-214.21273756 121.38765795 -185.08608962 80.22890023 -148.3125 51.375 C-147.36246094 50.59640625 -146.41242188 49.8178125 -145.43359375 49.015625 C-131.42948818 37.78372423 -115.60279455 28.85563383 -99.3125 21.375 C-98.24128906 20.8807251 -98.24128906 20.8807251 -97.1484375 20.37646484 C-78.09146353 11.69873563 -58.01359639 5.59013154 -37.3125 2.375 C-36.18803467 2.19839844 -35.06356934 2.02179687 -33.9050293 1.83984375 C-22.59999807 0.2374094 -11.40708054 -0.02424147 0 0 Z " fill="#3E5795" transform="translate(272.3125,8.625)"/>
<path d="M0 0 C6.20973339 2.84938841 9.5741815 6.43371366 12.75 12.375 C13.15992188 13.10468994 13.56984375 13.83437988 13.9921875 14.58618164 C17.44826183 20.80439921 20.71174833 27.12946818 24 33.4375 C24.50974365 34.40929199 25.0194873 35.38108398 25.54467773 36.38232422 C27.93713559 40.95949898 30.27145397 45.54285487 32.45703125 50.22265625 C37.20033376 60.03980158 41.13569925 65.00925913 51.484375 68.90625 C52.64453125 69.2671875 53.8046875 69.628125 55 70 C56.03640625 70.4021875 57.0728125 70.804375 58.140625 71.21875 C61.43701777 72.11940376 62.8569107 72.37006457 66 71 C67.89322059 68.68080478 69.43883441 66.52484431 71 64 C71.65137939 62.98474243 71.65137939 62.98474243 72.31591797 61.94897461 C75.41154414 57.08018771 78.35790054 52.13123527 81 47 C88.27718187 53.59494607 93.5702871 61.98821519 98.5625 70.375 C98.92126221 70.95757568 99.28002441 71.54015137 99.6496582 72.14038086 C101.11788399 74.68259678 102.00548787 76.55754044 101.96875 79.51953125 C92.55056821 103.63463381 64.08998181 122.76362021 42 134 C41.04867188 134.48984375 40.09734375 134.9796875 39.1171875 135.484375 C19.77747485 144.83671366 -0.74475781 147.22895353 -22 147.3125 C-23.03398926 147.31742462 -23.03398926 147.31742462 -24.08886719 147.32244873 C-40.974826 147.34818952 -57.65764298 145.36058084 -74 141 C-70.76602767 134.70636348 -66.9695088 129.03593405 -62.81738281 123.32714844 C-58.9739371 118.02475034 -55.43683588 112.57632312 -52 107 C-65.81743422 103.7212868 -79.25281965 103.034874 -92 110 C-96.67551589 113.17465676 -100.84860248 116.27290373 -104 121 C-106.2421875 121.15234375 -106.2421875 121.15234375 -108.875 120.9375 C-112.94136933 120.80177078 -112.94136933 120.80177078 -116.5625 122.5625 C-118.47361596 125.80308794 -118.93294437 128.24488463 -119 132 C-118.01268258 133.34275169 -117.01405257 134.67732273 -116 136 C-116.88652705 139.54610821 -118.53922579 142.31602631 -121 145 C-123.33984375 145.50390625 -123.33984375 145.50390625 -125.9375 145.5625 C-129.94810413 145.665336 -132.06758142 146.16620536 -135 149 C-136.08916154 152.37350049 -136.08916154 152.37350049 -136 156 C-135.00585407 157.67016516 -134.0064275 159.33720673 -133 161 C-133.625 163.5625 -133.625 163.5625 -135 166 C-135.350625 166.763125 -135.70125 167.52625 -136.0625 168.3125 C-138.47171745 170.41085069 -139.26500774 170.13925338 -142.375 170 C-145.74228257 169.86816512 -146.92440442 169.96297359 -150.0625 171.5 C-152.31726804 174.40937812 -152.53357274 176.37995716 -152.30859375 180.02734375 C-151.91353388 182.55272646 -151.14111654 184.71776693 -150 187 C-150.66 187.66 -151.32 188.32 -152 189 C-160.60253317 180.349138 -163.41755337 172.76959495 -163.53125 160.58984375 C-163.04760978 157.32171607 -162.32654463 155.23160081 -160.96679688 152.27563477 C-160.60034058 151.472715 -160.23388428 150.66979523 -159.85632324 149.84254456 C-159.57373657 149.23450485 -159.2911499 148.62646515 -159 148 C-160.22879883 148.14147461 -161.45759766 148.28294922 -162.72363281 148.42871094 C-176.75936805 149.95519675 -190.63997355 150.32220784 -204.75 150.25 C-205.85106079 150.24656586 -206.95212158 150.24313171 -208.08654785 150.23959351 C-256.77572024 150.06157013 -303.90310507 141.76541311 -349 123 C-344.05456206 119.70304137 -339.10932376 119.83099412 -333.3046875 119.71875 C-332.55776642 119.70034058 -331.81084534 119.68193115 -331.04129028 119.66296387 C-328.65260327 119.60451935 -326.2638402 119.55177353 -323.875 119.5 C-304.81084554 119.07351777 -286.0960398 118.40497135 -267.25 115.3125 C-266.42650055 115.17928345 -265.6030011 115.04606689 -264.75454712 114.90881348 C-235.42743566 110.13357075 -209.44804822 100.93329411 -182.79345703 87.75927734 C-181.30434814 87.02378662 -181.30434814 87.02378662 -179.78515625 86.2734375 C-178.90738525 85.83435059 -178.02961426 85.39526367 -177.12524414 84.94287109 C-175 84 -175 84 -173 84 C-173.4021875 82.453125 -173.4021875 82.453125 -173.8125 80.875 C-174 77 -174 77 -172 73.625 C-168.45239524 70.52084584 -166.69314417 69.83238771 -162 70 C-160.30225062 71.29352333 -158.63260714 72.62517293 -157 74 C-153.09824936 73.90245623 -149.99292848 72.47985502 -147 70 C-147 69.071875 -147 68.14375 -147 67.1875 C-147 64 -147 64 -145 60.625 C-141.51775231 57.57803327 -141.51775231 57.57803327 -137.9375 57.4375 C-133.96322927 58.00525296 -132.98479329 58.63275015 -130 61 C-126.08894947 60.79943331 -123.00921468 59.4933493 -120 57 C-119.95653201 55.00047242 -119.960008 52.99960012 -120 51 C-118.20006226 48.30009338 -116.916227 46.4581135 -114 45 C-107.62348178 44.52766532 -107.62348178 44.52766532 -104.9375 46.5625 C-102.99775895 48.33234778 -102.99775895 48.33234778 -100 47.75 C-99.01 47.5025 -98.02 47.255 -97 47 C-96.21625 46.814375 -95.4325 46.62875 -94.625 46.4375 C-94.08875 46.293125 -93.5525 46.14875 -93 46 C-93.0825 44.783125 -93.165 43.56625 -93.25 42.3125 C-93.26200396 38.9273826 -93.03913893 38.06131766 -91.125 35.0625 C-88.55444644 32.56755095 -87.70222937 32.04579757 -84.125 31.8125 C-81.08511464 31.99489312 -79.50321291 32.3311914 -77 34 C-76.67 34.66 -76.34 35.32 -76 36 C-75.0925 35.690625 -74.185 35.38125 -73.25 35.0625 C-70.83436662 34.2727737 -68.47219715 33.57050703 -66 33 C-66.0825 31.783125 -66.165 30.56625 -66.25 29.3125 C-66.26200396 25.9273826 -66.03913893 25.06131766 -64.125 22.0625 C-61.63638486 19.64707942 -60.68494545 19.07783471 -57.25 18.6875 C-53.22752982 19.07427598 -51.25461111 20.69540805 -48 23 C-46.95042114 22.32795532 -46.95042114 22.32795532 -45.87963867 21.64233398 C-43.22753488 19.94429671 -40.57534299 18.24639712 -37.9230957 16.54858398 C-36.23316997 15.46673675 -34.54334145 14.38473767 -32.85351562 13.30273438 C-30.64682177 11.89018993 -28.43807751 10.48084355 -26.22729492 9.07470703 C-24.1165792 7.71780695 -22.01956644 6.33928833 -19.9387207 4.93701172 C-18.98956787 4.30424316 -18.04041504 3.67147461 -17.0625 3.01953125 C-16.23234375 2.45468018 -15.4021875 1.8898291 -14.546875 1.30786133 C-9.92306227 -1.06654097 -4.99499677 -1.21482457 0 0 Z " fill="#DC3C3C" transform="translate(381,55)"/>
<path d="M0 0 C7.88612014 0.99692462 15.52340672 2.54454637 23.25 4.375 C35.41624924 7.21386079 47.64399745 9.18948876 60 11 C61.3952319 11.20832686 62.79041204 11.41700067 64.18554688 11.62597656 C92.7682079 15.8924413 121.10051489 18.13460959 150 19 C147.525 23.95 147.525 23.95 145 29 C156.5014336 32.88780854 169.77730692 34.50547208 181 29 C182.99640639 28.32264783 184.99504414 27.65161065 187 27 C187.01417969 27.7734375 187.02835938 28.546875 187.04296875 29.34375 C187.36465751 36.36873695 188.08760027 41.7330972 193 47 C196.21642796 49.69567295 199.17472126 50.91747213 203.3984375 51.33984375 C207.68948538 50.9349401 209.07710349 49.90934733 212.25 47.0625 C213.19746094 46.23492187 214.14492187 45.40734375 215.12109375 44.5546875 C216.07113281 43.71164062 217.02117187 42.86859375 218 42 C219.76423787 40.55441303 221.53503985 39.11679785 223.3125 37.6875 C236.24028198 27.12949209 236.24028198 27.12949209 248.3125 15.625 C256.45773754 7.31979053 265.29272264 2.04529262 277 1 C278.175625 0.87625 279.35125 0.7525 280.5625 0.625 C292.1737472 0.82858461 304.32298914 8.39055177 314.4375 13.5625 C315.75940902 14.22922314 317.08167387 14.89524125 318.40429688 15.56054688 C324.35717877 18.56814708 330.22763517 21.65892392 336 25 C336 25.66 336 26.32 336 27 C333.67426424 28.5109478 331.35163467 29.89188096 328.9375 31.25 C327.36487076 32.1544881 325.79331156 33.06083847 324.22265625 33.96875 C322.95252686 34.70158203 322.95252686 34.70158203 321.65673828 35.44921875 C317.02456417 38.15309395 312.45137006 40.95304838 307.875 43.75 C306.41984985 44.63800293 306.41984985 44.63800293 304.93530273 45.54394531 C302.94718341 46.75741123 300.95931026 47.97128056 298.97167969 49.18554688 C294.15099437 52.12896893 289.3253068 55.0641627 284.5 58 C282.57679463 59.17052644 280.65361755 60.34109936 278.73046875 61.51171875 C277.78091309 62.08970215 276.83135742 62.66768555 275.85302734 63.26318359 C273.04377417 64.97335192 270.23474633 66.68388977 267.42578125 68.39453125 C259.39033042 73.28765837 251.35364199 78.17872949 243.3125 83.0625 C242.74231644 83.40888016 242.17213287 83.75526031 241.58467102 84.11213684 C238.64150029 85.89971596 235.69715886 87.68532102 232.75073242 89.4675293 C226.82743234 93.05270721 220.92255768 96.66300713 215.05078125 100.33203125 C162.01769188 133.3686312 86.01927967 172.70051212 22 171 C21.45855484 167.71139006 20.94578804 164.41888408 20.4375 161.125 C20.28603516 160.2071875 20.13457031 159.289375 19.97851562 158.34375 C18.28705441 147.17223874 19.156983 136.92316747 25.7734375 127.46484375 C31.75066136 120.27662101 39.04003971 115.68765798 47 111 C45.19464568 106.92769508 42.55694289 103.43271303 40 99.8125 C20.87607378 72.26862012 0 34.3151806 0 0 Z " fill="#DC3C3C" transform="translate(37,286)"/>
<path d="M0 0 C-1.17816695 8.62115915 -3.20489961 16.64207126 -6 24.875 C-6.39517822 26.04466309 -6.79035645 27.21432617 -7.19750977 28.41943359 C-28.70262948 90.59223307 -74.52591011 138.64578674 -133.04541016 167.59863281 C-140.82176552 171.28697191 -148.85065099 174.25176375 -157 177 C-158.24644287 177.42104004 -158.24644287 177.42104004 -159.51806641 177.85058594 C-172.1440055 182.03540823 -184.87523625 184.89287357 -198 187 C-198.69077637 187.11859375 -199.38155273 187.2371875 -200.09326172 187.359375 C-230.82348264 192.4899858 -278.18994913 193.1672738 -306 178 C-303.36567292 175.36567292 -300.31454769 174.30848341 -296.9375 172.875 C-275.38283922 163.48100811 -254.05859935 153.29072601 -234 141 C-232.16202048 139.88969389 -230.32344547 138.78037315 -228.484375 137.671875 C-218.3647361 131.55588996 -208.30705987 125.34075516 -198.26171875 119.10375977 C-187.93740862 112.70387816 -177.54267879 106.41987085 -167.15423584 100.12490845 C-161.49419676 96.69475757 -155.84013059 93.25484144 -150.1875 89.8125 C-149.25462158 89.24450684 -148.32174316 88.67651367 -147.3605957 88.09130859 C-144.57364076 86.39435299 -141.78680033 84.6972095 -139 83 C-126.073886 75.12777347 -113.14303697 67.26342595 -100.20513916 59.4105835 C-88.46390495 52.28387805 -76.73062518 45.1441532 -65 38 C-61.27096368 35.72895252 -57.5417827 33.45814287 -53.8125 31.1875 C-52.88493896 30.62256836 -51.95737793 30.05763672 -51.00170898 29.47558594 C-45.57659903 26.17266355 -40.14751938 22.87639353 -34.71484375 19.5859375 C-32.83870357 18.44899585 -30.96260784 17.31198089 -29.08651733 16.17495728 C-27.8846644 15.44694343 -26.68254662 14.71936658 -25.48013306 13.99227905 C-18.64827554 9.86109927 -11.87983463 5.67278689 -5.23339844 1.24780273 C-3 0 -3 0 0 0 Z " fill="#304C84" transform="translate(507,298)"/>
<path d="M0 0 C6.20973339 2.84938841 9.5741815 6.43371366 12.75 12.375 C13.15992188 13.10468994 13.56984375 13.83437988 13.9921875 14.58618164 C17.44826183 20.80439921 20.71174833 27.12946818 24 33.4375 C24.76461548 34.89518799 24.76461548 34.89518799 25.54467773 36.38232422 C27.93713559 40.95949898 30.27145397 45.54285487 32.45703125 50.22265625 C37.20033376 60.03980158 41.13569925 65.00925913 51.484375 68.90625 C52.64453125 69.2671875 53.8046875 69.628125 55 70 C56.03640625 70.4021875 57.0728125 70.804375 58.140625 71.21875 C61.43701777 72.11940376 62.8569107 72.37006457 66 71 C67.89322059 68.68080478 69.43883441 66.52484431 71 64 C71.43425293 63.32316162 71.86850586 62.64632324 72.31591797 61.94897461 C75.41154414 57.08018771 78.35790054 52.13123527 81 47 C88.27718187 53.59494607 93.5702871 61.98821519 98.5625 70.375 C98.92126221 70.95757568 99.28002441 71.54015137 99.6496582 72.14038086 C101.11788399 74.68259678 102.00548787 76.55754044 101.96875 79.51953125 C92.55056821 103.63463381 64.08998181 122.76362021 42 134 C41.04867187 134.48984375 40.09734375 134.9796875 39.1171875 135.484375 C19.77747485 144.83671366 -0.74475781 147.22895353 -22 147.3125 C-23.03398926 147.31742462 -23.03398926 147.31742462 -24.08886719 147.32244873 C-40.974826 147.34818952 -57.65764298 145.36058084 -74 141 C-70.76602767 134.70636348 -66.9695088 129.03593405 -62.81738281 123.32714844 C-58.9739371 118.02475034 -55.43683588 112.57632312 -52 107 C-65.79636305 103.72628673 -79.27730249 103.01661584 -92 110 C-95.53299455 112.46625813 -98.81386029 115.10154785 -102 118 C-102.33 117.34 -102.66 116.68 -103 116 C-102.07467741 113.7448839 -101.09100786 111.62275076 -99.9921875 109.453125 C-99.66969025 108.80430359 -99.34719299 108.15548218 -99.0149231 107.48699951 C-98.32768894 106.10980351 -97.63639138 104.734629 -96.94140625 103.36132812 C-95.88907907 101.27787449 -94.85386416 99.18656848 -93.8203125 97.09375 C-93.14946147 95.75469485 -92.4776164 94.41613715 -91.8046875 93.078125 C-91.34653152 92.14966766 -91.34653152 92.14966766 -90.87911987 91.20245361 C-86.67783416 82.97461592 -81.82783273 78.12998205 -72.984375 75.19140625 C-66.50139055 72.90284769 -60.41414159 69.96749211 -54.25 66.9375 C-52.46118415 66.06714255 -50.67236468 65.19679231 -48.88320923 64.32713318 C-47.0779955 63.44904963 -45.27382381 62.5688513 -43.46972656 61.68847656 C-38.36657334 59.20512393 -33.2469396 56.75681148 -28.125 54.3125 C-27.20420654 53.87244629 -26.28341309 53.43239258 -25.3347168 52.97900391 C-15.56135925 48.30909905 -5.78138128 43.65307077 4 39 C-2.9688099 30.35384885 -11.72926703 23.62932347 -23 22 C-30.68729329 21.50944167 -38.42283743 21.52269157 -46 23 C-42.28784782 18.76187531 -37.68550791 16.11091169 -32.9375 13.1875 C-26.21752016 9.09691152 -26.21752016 9.09691152 -19.7265625 4.66015625 C-13.43011539 0.14554828 -7.75696407 -1.88655788 0 0 Z " fill="#DC3C3C" transform="translate(381,55)"/>
<path d="M0 0 C0.99 0.495 0.99 0.495 2 1 C1.649375 1.78375 1.29875 2.5675 0.9375 3.375 C-1.54332795 12.96753474 2.12746782 20.94830548 6.8125 29.1875 C14.74963044 39.39238199 24.51606399 42.39462075 37 44 C33.51722048 46.89253878 29.96523237 49.35032371 26.08984375 51.6875 C25.53006836 52.02649826 24.97029297 52.36549652 24.39355469 52.71476746 C22.5770759 53.81354866 20.75750354 54.90706856 18.9375 56 C17.66402824 56.76714205 16.39067325 57.53447798 15.11743164 58.30200195 C13.20128168 59.45678961 11.28486068 60.61111075 9.36741638 61.76374817 C5.78366103 63.91901587 2.21310457 66.09344418 -1.34375 68.29296875 C-23.61753625 82.00882428 -47.18143787 93.25355408 -71 104 C-71.98387695 104.44827148 -72.96775391 104.89654297 -73.98144531 105.35839844 C-155.63573578 142.46377088 -155.63573578 142.46377088 -186.1796875 131.25390625 C-200.62896083 124.82978334 -209.05827907 115.45105534 -215 101 C-216.66455753 96.1209363 -217.07905201 92.13188871 -217 87 C-216.12714355 86.86013672 -215.25428711 86.72027344 -214.35498047 86.57617188 C-161.91237361 78.05382009 -113.87916663 60.80701646 -66 38 C-65.07203613 37.56397461 -64.14407227 37.12794922 -63.18798828 36.67871094 C-44.8903903 28.05143133 -27.77001412 17.51772499 -10.734375 6.65234375 C-9.9820459 6.17418213 -9.2297168 5.69602051 -8.45458984 5.20336914 C-7.11095146 4.34510001 -5.77232094 3.47891683 -4.43994141 2.60327148 C-2.99664168 1.67578532 -1.50297724 0.82728719 0 0 Z " fill="#D2D5CF" transform="translate(277,370)"/>
<path d="M0 0 C4.56539946 0.59219359 8.3334606 1.8256135 12.5625 3.625 C55.59682594 21.24796893 101.9050567 27.47211923 147.89772034 31.79692078 C149.40864572 31.94287546 150.91844019 32.10071844 152.42735291 32.26618958 C160.10120714 33.06013974 167.70792053 33.12880532 175.41796875 33.09765625 C176.76988166 33.09578598 178.12179527 33.09436496 179.47370911 33.09336853 C182.99335679 33.08959127 186.51296172 33.07980326 190.03259277 33.06866455 C193.63956118 33.05834608 197.24653664 33.05384879 200.85351562 33.04882812 C207.902361 33.03817556 214.95117768 33.02115841 222 33 C222 33.99 222 34.98 222 36 C222.72832031 36.26941406 223.45664063 36.53882813 224.20703125 36.81640625 C226.93618316 37.97295594 229.22577842 39.29495912 231.6875 40.9375 C232.45449219 41.44152344 233.22148437 41.94554687 234.01171875 42.46484375 C236 44 236 44 238 47 C238.21916772 51.03268603 237.90568399 54.80449714 235.4375 58.0625 C231.72818941 59.48915792 228.84062339 59.88490852 225 59 C221.48829743 57.2939601 218.20148339 55.4459097 214.85546875 53.43359375 C213.91316406 52.96050781 212.97085938 52.48742187 212 52 C208.00003714 53.33332095 207.16217663 55.4957827 205 59 C206.48113281 59.92232422 206.48113281 59.92232422 207.9921875 60.86328125 C209.28666269 61.67936344 210.58092234 62.49578758 211.875 63.3125 C212.52597656 63.71662109 213.17695313 64.12074219 213.84765625 64.53710938 C216.94301621 66.49963141 218.941689 67.9125335 221 71 C221.6779661 78.11864407 221.6779661 78.11864407 219.125 81.4375 C215.54777473 84.0678127 213.45489863 84.41344767 209 84 C206.23773502 82.9002225 203.70098982 81.47769959 201.125 80 C200.43664062 79.6184375 199.74828125 79.236875 199.0390625 78.84375 C197.35307255 77.90708892 195.67563186 76.95506752 194 76 C192.89227061 77.39300765 191.78898477 78.78954935 190.6875 80.1875 C190.07261719 80.96480469 189.45773438 81.74210937 188.82421875 82.54296875 C186.93590485 84.93316973 186.93590485 84.93316973 185.70800781 87.61645508 C184 90 184 90 181.66040039 90.61523438 C180.73219482 90.60814453 179.80398926 90.60105469 178.84765625 90.59375 C177.24736572 90.5935083 177.24736572 90.5935083 175.61474609 90.59326172 C173.85638428 90.54709717 173.85638428 90.54709717 172.0625 90.5 C170.82322754 90.4808252 169.58395508 90.46165039 168.30712891 90.44189453 C144.70389351 89.90234201 121.29797361 87.37142463 97.9375 84.0625 C97.07533875 83.94138855 96.21317749 83.8202771 95.32489014 83.69549561 C83.82088494 82.06237239 72.48773404 79.95208532 61.13973999 77.46243286 C58.01053622 76.78616067 54.87065005 76.1659733 51.73046875 75.54296875 C31.27170984 71.37108771 15.40201185 65.72263385 2.46875 48.3359375 C-4.59350764 37.10394264 -6.03687331 22.81321675 -3.60302734 9.89257812 C-2.69674135 6.47377207 -1.46422282 3.21606085 0 0 Z " fill="#E0E4DB" transform="translate(4,215)"/>
<path d="M0 0 C40.66078613 15.2326693 82.38221554 21.65211186 125.66577148 21.56787109 C128.91459887 21.5625376 132.1632863 21.56783358 135.41210938 21.57421875 C148.71997171 21.57800337 161.96449192 21.20637984 175.25 20.4375 C175.03846786 21.0455397 174.82693573 21.65357941 174.60899353 22.28004456 C174.19720604 23.48442421 174.19720604 23.48442421 173.77709961 24.71313477 C173.50369247 25.50679947 173.23028534 26.30046417 172.94859314 27.11817932 C170.22365894 36.16492755 172.04212524 45.23675138 176.25 53.4375 C176.58 54.16195312 176.91 54.88640625 177.25 55.6328125 C178.5230108 57.93019917 179.85467385 58.47936954 182.25 59.4375 C181.375 64.3125 181.375 64.3125 180.25 65.4375 C173.65319377 66.53236742 167.14018531 66.59851156 160.46484375 66.60546875 C159.3321254 66.60879715 158.19940704 66.61212555 157.03236389 66.61555481 C154.63445438 66.62060443 152.23653787 66.62296374 149.83862305 66.62280273 C146.25101353 66.62496178 142.66372596 66.64306217 139.07617188 66.66210938 C124.35792689 66.69868142 109.8807592 66.03464494 95.25 64.4375 C94.51675507 64.35944122 93.78351013 64.28138245 93.02804565 64.20095825 C83.08015714 63.13176178 73.16228944 61.79363519 63.25 60.4375 C61.97060547 60.26379883 60.69121094 60.09009766 59.37304688 59.91113281 C24.97783011 55.12270969 -10.14214745 47.12847372 -41.75 32.4375 C-40.35108743 19.92722475 -33.40900265 6.81226584 -23.81640625 -1.171875 C-15.88539563 -6.92301721 -8.34652368 -3.26419265 0 0 Z " fill="#CC3636" transform="translate(46.75,182.5625)"/>
<path d="M0 0 C1.54350015 2.85809138 2.46028504 5.54382699 3.25 8.6875 C5.65588421 16.80287062 9.56629413 22.93817653 17.06640625 27.078125 C22.46715686 29.65302832 28.17720013 30.7836818 34 32 C31.35941055 34.80262562 28.82976973 36.88678318 25.5 38.8125 C24.6239209 39.32417725 23.7478418 39.83585449 22.84521484 40.36303711 C21.90629395 40.90323486 20.96737305 41.44343262 20 42 C17.99161377 43.16698191 15.98381235 44.33497081 13.9765625 45.50390625 C12.96754883 46.09059082 11.95853516 46.67727539 10.91894531 47.28173828 C8.28619161 48.8315309 5.68097123 50.41543881 3.0859375 52.02734375 C-46.95388645 83.04912712 -121.66169006 119.60273636 -182 118 C-182.54144516 114.71139006 -183.05421196 111.41888408 -183.5625 108.125 C-183.71396484 107.2071875 -183.86542969 106.289375 -184.02148438 105.34375 C-185.24148319 97.2860834 -185.3573905 89.40281456 -182.375 81.6875 C-182.09398437 80.90761719 -181.81296875 80.12773437 -181.5234375 79.32421875 C-178.5217263 74.744685 -175.08774956 72.58152607 -169.91210938 71.13989258 C-166.81528553 70.50028461 -163.7171267 69.92191292 -160.59783936 69.40319824 C-157.10303381 68.81819796 -153.62089039 68.16435567 -150.13671875 67.51953125 C-149.43802673 67.39162201 -148.73933472 67.26371277 -148.01947021 67.13192749 C-97.003331 57.73075172 -50.79882338 34.33963482 -8.18994141 5.48144531 C-5.46887722 3.64070758 -2.73618936 1.81815529 0 0 Z " fill="#CC3636" transform="translate(241,339)"/>
<path d="M0 0 C7.88612014 0.99692462 15.52340672 2.54454637 23.25 4.375 C35.41624924 7.21386079 47.64399745 9.18948876 60 11 C61.3952319 11.20832686 62.79041204 11.41700067 64.18554688 11.62597656 C92.76526207 15.89200158 121.1022257 18.15340568 150 19 C138.54603046 39.61192697 122.17977437 58.05077787 104 73 C103.5143457 73.40476562 103.02869141 73.80953125 102.52832031 74.2265625 C88.56296807 85.82982252 73.68570896 96.13235384 58.375 105.875 C57.56321289 106.39320313 56.75142578 106.91140625 55.91503906 107.4453125 C55.16706055 107.91453125 54.41908203 108.38375 53.6484375 108.8671875 C52.99020996 109.28081543 52.33198242 109.69444336 51.65380859 110.12060547 C50 111 50 111 48 111 C45.80001916 108.64063191 44.00109609 105.93284154 42.125 103.3125 C41.26032104 102.10702515 41.26032104 102.10702515 40.37817383 100.87719727 C21.16118648 73.56939914 0 34.12413917 0 0 Z " fill="#234172" transform="translate(37,286)"/>
<path d="M0 0 C0.94875 0.70125 1.8975 1.4025 2.875 2.125 C5.94780662 4.46245682 5.94780662 4.46245682 9.671875 3.13671875 C10.37618652 2.93755859 11.08049805 2.73839844 11.80615234 2.53320312 C23.76387327 -0.373058 36.33609191 2.01674344 46.6875 8.25 C51.34818372 11.35491572 55.28012734 14.82307814 59 19 C56.46073658 21.93882078 53.65627377 23.31134085 50.171875 24.96875 C48.99133545 25.53424561 47.8107959 26.09974121 46.59448242 26.68237305 C45.31306147 27.28840348 44.03156552 27.89427535 42.75 28.5 C41.4298244 29.12939817 40.1099214 29.75936842 38.7902832 30.38989258 C36.12226494 31.66365495 33.45266604 32.93401052 30.78173828 34.20166016 C27.45179889 35.78314816 24.1288227 37.37867596 20.80859375 38.98046875 C-10.70069414 54.16878691 -10.70069414 54.16878691 -23.75 59.5625 C-26.67346067 60.85556914 -29.36405563 62.35191696 -32.12857056 63.94754028 C-35.00109632 65.56299935 -37.953553 66.99505542 -40.91796875 68.43359375 C-41.88854218 68.90537552 -41.88854218 68.90537552 -42.87872314 69.38668823 C-44.98017396 70.40670403 -47.08359338 71.42256011 -49.1875 72.4375 C-49.9095462 72.78638275 -50.63159241 73.1352655 -51.3755188 73.49472046 C-61.7058183 78.48371848 -72.05311647 83.43702104 -82.4375 88.3125 C-83.55987061 88.84480225 -84.68224121 89.37710449 -85.83862305 89.92553711 C-98.83351263 95.98009746 -110.89240288 99.70253237 -125 95 C-133.90151247 91.61064655 -141.06180771 85.72117032 -145 77 C-142.3587447 75.55352609 -139.71248464 74.11782644 -137.0625 72.6875 C-136.32708984 72.28337891 -135.59167969 71.87925781 -134.83398438 71.46289062 C-129.69948456 68.70505885 -124.58470019 66.66326402 -119 65 C-119.268125 63.96875 -119.53625 62.9375 -119.8125 61.875 C-120 58 -120 58 -118 54.625 C-114.45239524 51.52084584 -112.69314417 50.83238771 -108 51 C-106.30225062 52.29352333 -104.63260714 53.62517293 -103 55 C-99.09824936 54.90245623 -95.99292848 53.47985502 -93 51 C-93 50.071875 -93 49.14375 -93 48.1875 C-93 45 -93 45 -91 41.625 C-87.51775231 38.57803327 -87.51775231 38.57803327 -83.9375 38.4375 C-79.96322927 39.00525296 -78.98479329 39.63275015 -76 42 C-72.08894947 41.79943331 -69.00921468 40.4933493 -66 38 C-65.95653201 36.00047242 -65.960008 33.99960012 -66 32 C-64.20006226 29.30009338 -62.916227 27.4581135 -60 26 C-53.62348178 25.52766532 -53.62348178 25.52766532 -50.9375 27.5625 C-48.99775895 29.33234778 -48.99775895 29.33234778 -46 28.75 C-45.01 28.5025 -44.02 28.255 -43 28 C-42.21625 27.814375 -41.4325 27.62875 -40.625 27.4375 C-40.08875 27.293125 -39.5525 27.14875 -39 27 C-39.0825 25.783125 -39.165 24.56625 -39.25 23.3125 C-39.26200396 19.9273826 -39.03913893 19.06131766 -37.125 16.0625 C-34.55444644 13.56755095 -33.70222937 13.04579757 -30.125 12.8125 C-27.08511464 12.99489312 -25.50321291 13.3311914 -23 15 C-22.505 15.99 -22.505 15.99 -22 17 C-20.63875 16.5359375 -20.63875 16.5359375 -19.25 16.0625 C-16.83436662 15.2727737 -14.47219715 14.57050703 -12 14 C-12.0825 12.783125 -12.165 11.56625 -12.25 10.3125 C-12.26200396 6.9273826 -12.03913893 6.06131766 -10.125 3.0625 C-6.76664891 -0.19707606 -4.63575359 -0.44574554 0 0 Z " fill="#F46363" transform="translate(327,74)"/>
<path d="M0 0 C0 3.29550921 -0.35477269 3.87720409 -2.17578125 6.46484375 C-2.90885498 7.51998169 -2.90885498 7.51998169 -3.65673828 8.59643555 C-4.20313965 9.36898682 -4.74954102 10.14153809 -5.3125 10.9375 C-6.50481012 12.65041286 -7.69615573 14.36399735 -8.88671875 16.078125 C-9.86970947 17.48868164 -9.86970947 17.48868164 -10.87255859 18.92773438 C-14.41591646 24.04474326 -17.89883645 29.2025617 -21.38656616 34.35757446 C-28.14286789 44.34077153 -34.92821036 54.3033259 -41.77587891 64.22412109 C-43.03436625 66.04985642 -44.28916784 67.8780748 -45.54296875 69.70703125 C-50.91204475 77.53643327 -56.32080807 85.33715542 -61.75 93.125 C-67.13051622 100.84348243 -72.46218763 108.59274335 -77.75 116.375 C-80.1636066 119.91876244 -82.58041745 123.46031528 -85 127 C-85.56267578 127.82387207 -86.12535156 128.64774414 -86.70507812 129.49658203 C-88.29496158 131.81617881 -89.89548777 134.12800585 -91.5 136.4375 C-91.95600586 137.10507324 -92.41201172 137.77264648 -92.88183594 138.46044922 C-99.58470521 148.03982375 -107.4056489 155.28744995 -119 158 C-121.79841167 158.28507375 -124.56352843 158.33305863 -127.375 158.3125 C-128.49273804 158.30947876 -128.49273804 158.30947876 -129.63305664 158.30639648 C-136.08079818 158.18893463 -141.18132676 156.90933662 -147 154 C-146.46104484 149.65711497 -144.95867489 147.19758786 -142.3125 143.75 C-138.69088943 138.94076218 -135.28694924 134.04247894 -132 129 C-130.91460937 129.5775 -129.82921875 130.155 -128.7109375 130.75 C-127.26595691 131.50063927 -125.82062569 132.25060385 -124.375 133 C-123.30572266 133.57234375 -123.30572266 133.57234375 -122.21484375 134.15625 C-117.97601471 136.33399703 -114.8847065 137.56781983 -110 137 C-106.79523376 135.79255056 -106.79523376 135.79255056 -105 133 C-104.37979182 127.31056648 -104.37979182 127.31056648 -106.8125 122.375 C-111.26913505 119.05436997 -116.05582818 116.51970928 -121 114 C-118.03 109.545 -118.03 109.545 -115 105 C-111.46679101 106.4132836 -108.47278804 107.80986509 -105.1875 109.625 C-100.42325377 112.03556638 -97.29334599 112.65006003 -92 112 C-88.90463463 110.3734371 -88.90463463 110.3734371 -88.3125 108.01171875 C-87.60601989 102.87493891 -87.60601989 102.87493891 -89.8125 98.3125 C-94.04419305 95.24244818 -98.45053094 92.57067086 -103 90 C-102.42705141 87.31678533 -101.91239931 85.87346567 -100.3125 83.5625 C-99.879375 82.716875 -99.44625 81.87125 -99 81 C-99.80972016 78.59915538 -99.80972016 78.59915538 -101 76 C-101.51697371 73.21061438 -101.62146099 70.77697882 -101 68 C-97.94695063 64.24240077 -97.94695063 64.24240077 -95 63 C-92.73828125 62.91015625 -92.73828125 62.91015625 -90.375 63.0625 C-88.10461536 63.26187616 -88.10461536 63.26187616 -86 63 C-83.12593109 60.48149733 -83.12593109 60.48149733 -82 57 C-82.61141128 54.42885788 -82.61141128 54.42885788 -84 52 C-84.98524453 48.36217403 -85.32591704 46.71701749 -83.75 43.25 C-82 41 -82 41 -79 39 C-77.35823305 38.85747599 -75.71017345 38.77973245 -74.0625 38.75 C-70.4078629 38.53680346 -70.4078629 38.53680346 -67.45703125 36.60546875 C-66.22128892 34.78411551 -66.22128892 34.78411551 -65 32 C-65.309375 31.484375 -65.61875 30.96875 -65.9375 30.4375 C-67.33948639 27.22117828 -67.81550652 24.50537621 -68 21 C-66.41161066 17.42612398 -65.28365642 16.18910428 -62 14 C-59.6953125 14.015625 -59.6953125 14.015625 -57.125 14.25 C-54.45448799 14.36439461 -54.45448799 14.36439461 -52 14 C-49.66280845 11.68736626 -49.66280845 11.68736626 -48.45703125 9.7890625 C-36.80318302 -4.52048841 -16.17681837 -3.83856707 0 0 Z " fill="#F46363" transform="translate(329,161)"/>
<path d="M0 0 C0.4125 1.19753906 0.825 2.39507812 1.25 3.62890625 C8.2804472 23.62625576 17.95451701 44.55634654 36.5625 56.4375 C37.7690625 57.2109375 37.7690625 57.2109375 39 58 C39 58.66 39 59.32 39 60 C23.46763302 65.07465753 8.16383546 69.52053182 -8 72 C-8.6820752 72.11569336 -9.36415039 72.23138672 -10.06689453 72.35058594 C-40.80400183 77.48995838 -88.1810976 78.17210132 -116 63 C-113.36567292 60.36567292 -110.31454769 59.30848341 -106.9375 57.875 C-85.38126906 48.4803238 -64.06350658 38.28523274 -44 26 C-42.13864053 24.87787766 -40.27662382 23.75684506 -38.4140625 22.63671875 C-28.10622922 16.41731457 -17.86870895 10.09660374 -7.76171875 3.55493164 C-7.02953125 3.08563232 -6.29734375 2.61633301 -5.54296875 2.1328125 C-4.5842688 1.51237061 -4.5842688 1.51237061 -3.60620117 0.87939453 C-2 0 -2 0 0 0 Z " fill="#224172" transform="translate(317,413)"/>
<path d="M0 0 C19.71733089 23.85858847 26.4763394 65.16807175 29 95 C18.44665145 101.68431167 7.78140424 108.16705183 -2.95288086 114.55688477 C-8.99392914 118.16150676 -14.94844703 121.86074042 -20.8269043 125.72583008 C-23 127 -23 127 -25 127 C-32.52031034 90.65183333 -28.62312785 47.77311624 -10 15 C-8.52550885 12.80572311 -6.94858057 10.77248863 -5.3125 8.6875 C-2.09165631 4.64722605 -2.09165631 4.64722605 0 0 Z " fill="#F46364" transform="translate(483,133)"/>
<path d="M0 0 C4.28080402 1.77458785 8.06927363 4.12076883 11.92871094 6.65185547 C14.21460178 8.13967834 16.52865002 9.57459567 18.8515625 11.00390625 C19.71015869 11.53258301 20.56875488 12.06125977 21.45336914 12.60595703 C22.33500732 13.14849121 23.21664551 13.69102539 24.125 14.25 C29.57925841 17.61125906 35.00939081 20.99647935 40.37109375 24.50390625 C52.67156527 32.57336245 52.67156527 32.57336245 67 33 C69.58233727 32.81855268 72.16577194 32.65216513 74.75 32.5 C76.83367307 32.33763587 78.91714521 32.17254418 81 32 C80.69964844 32.53367188 80.39929688 33.06734375 80.08984375 33.6171875 C76.99581926 39.67937785 76.2494349 44.37044058 78 51 C80.44584362 55.89168724 83.34494573 58.22677618 88 61 C89.485 61.99 89.485 61.99 91 63 C75.67038647 69.43843768 59.41671406 70.24797199 43 70.3125 C41.96601074 70.31742462 41.96601074 70.31742462 40.91113281 70.32244873 C24.025174 70.34818952 7.34235702 68.36058084 -9 64 C-5.76602767 57.70636348 -1.9695088 52.03593405 2.18261719 46.32714844 C6.0260629 41.02475034 9.56316412 35.57632312 13 30 C-0.79636305 26.72628673 -14.27730249 26.01661584 -27 33 C-30.53299455 35.46625813 -33.81386029 38.10154785 -37 41 C-37.33 40.34 -37.66 39.68 -38 39 C-37.07467741 36.7448839 -36.09100786 34.62275076 -34.9921875 32.453125 C-34.50844162 31.47989288 -34.50844162 31.47989288 -34.0149231 30.48699951 C-33.32768894 29.10980351 -32.63639138 27.734629 -31.94140625 26.36132812 C-30.88907907 24.27787449 -29.85386416 22.18656848 -28.8203125 20.09375 C-28.14946147 18.75469485 -27.4776164 17.41613715 -26.8046875 16.078125 C-26.49925018 15.45915344 -26.19381287 14.84018188 -25.87911987 14.20245361 C-20.05588794 2.79818111 -13.01106274 -2.13763353 0 0 Z " fill="#CC3636" transform="translate(316,132)"/>
<path d="M0 0 C6.20973339 2.84938841 9.5741815 6.43371366 12.75 12.375 C13.15992188 13.10468994 13.56984375 13.83437988 13.9921875 14.58618164 C17.44826183 20.80439921 20.71174833 27.12946818 24 33.4375 C24.50974365 34.40929199 25.0194873 35.38108398 25.54467773 36.38232422 C27.93713559 40.95949898 30.27145397 45.54285487 32.45703125 50.22265625 C37.08488567 59.80783154 41.10607395 65.27118919 51.34765625 68.875 C53.15556641 69.431875 53.15556641 69.431875 55 70 C56.05058594 70.350625 57.10117187 70.70125 58.18359375 71.0625 C60.44552723 71.78118525 62.6967758 72.43096814 65 73 C62.70833333 74.14583333 60.41666667 75.29166667 58.125 76.4375 C55.03336508 78.48838653 53.94826361 80.87439192 52.375 84.1875 C48.92900468 90.97009397 43.68482058 95.47480165 37 99 C32.53656943 99.38254714 29.74158873 98.73477967 25.8046875 96.65625 C24.84739746 96.15593262 23.89010742 95.65561523 22.90380859 95.14013672 C21.90430176 94.5988916 20.90479492 94.05764648 19.875 93.5 C18.8432666 92.94973145 17.8115332 92.39946289 16.74853516 91.83251953 C9.5256535 87.93537969 2.60428702 83.88813652 -4 79 C-5.03769531 78.23300781 -6.07539063 77.46601563 -7.14453125 76.67578125 C-10.47671953 74.17527703 -13.74863059 71.60446095 -17 69 C-17.60682617 68.51499023 -18.21365234 68.02998047 -18.83886719 67.53027344 C-20.6738507 66.05328879 -22.49530358 64.56129341 -24.3125 63.0625 C-24.88218506 62.60190186 -25.45187012 62.14130371 -26.03881836 61.66674805 C-27.41801011 60.51125526 -28.71727805 59.26172813 -30 58 C-30 57.01 -30 56.02 -30 55 C-29.18321777 54.62190186 -28.36643555 54.24380371 -27.52490234 53.85424805 C-24.471832 52.44042029 -21.41914184 51.0257779 -18.36669922 49.6105957 C-17.04979159 49.00024663 -15.73273672 48.39021516 -14.41552734 47.78051758 C-12.51360145 46.90010298 -10.61222196 46.01851754 -8.7109375 45.13671875 C-7.56931152 44.60780029 -6.42768555 44.07888184 -5.25146484 43.53393555 C-2.14340925 42.06765583 0.93287558 40.54981188 4 39 C-2.61447923 30.24028427 -11.95710868 23.59638615 -23 22 C-30.68729329 21.50944167 -38.42283743 21.52269157 -46 23 C-42.28784782 18.76187531 -37.68550791 16.11091169 -32.9375 13.1875 C-26.21752016 9.09691152 -26.21752016 9.09691152 -19.7265625 4.66015625 C-13.43011539 0.14554828 -7.75696407 -1.88655788 0 0 Z " fill="#CC3636" transform="translate(381,55)"/>
<path d="M0 0 C3.0850736 1.610681 5.51385263 3.94176943 8.0703125 6.265625 C25.19325942 21.31761476 44.05863323 32.93766899 64.9453125 42.015625 C63.9453125 45.015625 63.9453125 45.015625 61.64453125 46.296875 C52.39558168 50.03964059 42.93514687 53.1236755 32.9453125 54.015625 C32.11781494 54.10980713 31.29031738 54.20398926 30.43774414 54.30102539 C21.21666831 54.89751398 15.45530179 51.64428276 7.8828125 46.765625 C6.70083396 46.0317538 5.51738156 45.30025147 4.33251953 44.57104492 C0.84965047 42.41733896 -2.60272357 40.21851969 -6.0546875 38.015625 C-7.94056123 36.82808409 -9.82720816 35.64176962 -11.71484375 34.45703125 C-14.10966533 32.95170182 -16.50126142 31.44307505 -18.87915039 29.91113281 C-22.46119584 27.60596792 -26.07485869 25.36859266 -29.76171875 23.234375 C-30.46272705 22.82767578 -31.16373535 22.42097656 -31.88598633 22.00195312 C-35.55503563 20.33326471 -39.05548458 20.20606323 -43.0546875 20.015625 C-39.89900599 17.91183733 -36.63347477 16.28444317 -33.2265625 14.64453125 C-32.22571625 14.16003761 -32.22571625 14.16003761 -31.20465088 13.66575623 C-29.79303801 12.98305097 -28.38089495 12.30144106 -26.96826172 11.62084961 C-24.82511006 10.58796756 -22.6839209 9.551104 -20.54296875 8.51367188 C-19.1667826 7.84871834 -17.79048402 7.18399743 -16.4140625 6.51953125 C-15.7815155 6.21318253 -15.14896851 5.9068338 -14.49725342 5.59120178 C-2.91975738 0.02220348 -2.91975738 0.02220348 0 0 Z " fill="#F14D4D" transform="translate(350.0546875,111.984375)"/>
<path d="M0 0 C-1.50459137 3.94129544 -3.28559977 7.67286911 -5.1875 11.4375 C-5.49067139 12.04005615 -5.79384277 12.6426123 -6.10620117 13.26342773 C-7.39361135 15.82201049 -8.68579174 18.37817526 -9.97753906 20.93457031 C-10.92418633 22.80971521 -11.86839189 24.68607573 -12.8125 26.5625 C-13.37582031 27.67753906 -13.93914062 28.79257813 -14.51953125 29.94140625 C-15.80431877 32.5957298 -16.94882833 35.24644299 -18 38 C-18.67546875 37.95359375 -19.3509375 37.9071875 -20.046875 37.859375 C-25.56940971 37.55157953 -25.56940971 37.55157953 -30.5625 39.5625 C-32.47361596 42.80308794 -32.93294437 45.24488463 -33 49 C-32.01268258 50.34275169 -31.01405257 51.67732273 -30 53 C-30.8869207 56.5476828 -32.54103762 59.31294383 -35 62 C-37.375 62.57421875 -37.375 62.57421875 -40 62.6875 C-42.99390553 62.84343258 -45.12806668 63.04268889 -48 64 C-48 63.34 -48 62.68 -48 62 C-48.87140625 62.144375 -49.7428125 62.28875 -50.640625 62.4375 C-71.49931584 65.68820507 -71.49931584 65.68820507 -76.0078125 62.64453125 C-79.6138941 58.69874631 -81.89803714 54.35840157 -82.0625 48.94140625 C-81.72698659 42.89168 -80.17214376 37.49418897 -76 33 C-73.52441406 32.03686523 -73.52441406 32.03686523 -70.515625 31.30859375 C-61.00803687 28.613898 -52.36546304 24.18003414 -43.5 19.875 C-41.71512228 19.01690375 -39.92980071 18.15973015 -38.14404297 17.3034668 C-33.84977946 15.2423942 -29.55987634 13.17246367 -25.27185059 11.09844971 C-21.11893277 9.09049576 -16.96258944 7.08973869 -12.80273438 5.09619141 C-11.07016154 4.26560534 -9.33954898 3.43091239 -7.61132812 2.59130859 C-2.22329513 0 -2.22329513 0 0 0 Z " fill="#F14D4D" transform="translate(295,138)"/>
<path d="M0 0 C6.72484828 2.98012976 10.01116122 7.21641944 13.4375 13.5625 C14.0862207 14.69461914 14.0862207 14.69461914 14.74804688 15.84960938 C16.64591892 19.22063405 18.18704486 22.1947344 19 26 C18.13375 25.773125 17.2675 25.54625 16.375 25.3125 C12.13568778 24.91997109 10.48348866 25.57670354 7 28 C5.37440728 30.26278493 4.23541558 32.48165285 3 35 C-0.22346134 33.51053855 -2.95092264 31.65798578 -5.8125 29.5625 C-14.14648554 23.66743082 -21.23161276 21.82179816 -31.4375 21.875 C-32.17548828 21.87113281 -32.91347656 21.86726563 -33.67382812 21.86328125 C-37.89208711 21.87078038 -41.8452442 22.17036572 -46 23 C-42.28784782 18.76187531 -37.68550791 16.11091169 -32.9375 13.1875 C-26.21752016 9.09691152 -26.21752016 9.09691152 -19.7265625 4.66015625 C-13.43011539 0.14554828 -7.75696407 -1.88655788 0 0 Z " fill="#BB2E2F" transform="translate(381,55)"/>
<path d="M0 0 C6.76147197 2.60710425 13.0939893 6.67415954 18 12 C17.236875 12.391875 16.47375 12.78375 15.6875 13.1875 C12.55936298 15.29717381 11.37654401 16.4821653 10 20 C10.05648978 23.05558352 10.4567176 25.99558286 11 29 C9.845 28.835 8.69 28.67 7.5 28.5 C-7.81357297 26.91085564 -20.1817995 27.33902962 -32.8125 37.3125 C-34.22257672 38.52530049 -35.62421241 39.74843702 -37 41 C-37.33 40.34 -37.66 39.68 -38 39 C-37.07467741 36.7448839 -36.09100786 34.62275076 -34.9921875 32.453125 C-34.50844162 31.47989288 -34.50844162 31.47989288 -34.0149231 30.48699951 C-33.32768894 29.10980351 -32.63639138 27.734629 -31.94140625 26.36132812 C-30.88907907 24.27787449 -29.85386416 22.18656848 -28.8203125 20.09375 C-28.14946147 18.75469485 -27.4776164 17.41613715 -26.8046875 16.078125 C-26.49925018 15.45915344 -26.19381287 14.84018188 -25.87911987 14.20245361 C-20.08198979 2.84929921 -12.98268933 -2.21962108 0 0 Z " fill="#BC2E2E" transform="translate(316,132)"/>
<path d="M0 0 C2.48150387 2.00358461 4.19583186 4.38608711 6 7 C6.56332031 7.7940625 7.12664062 8.588125 7.70703125 9.40625 C11.277461 14.82460709 13.10094611 18.50441797 12 25 C10.20636089 27.8100346 8.98119065 29.50940468 6 31 C2.41347253 31.39850305 0.6033779 31.40386611 -2.43359375 29.37109375 C-7.71981803 24.48716964 -12.88033659 16.75112604 -14.3125 9.5625 C-13.88858798 4.729903 -12.47387044 3.31229507 -9 0 C-5.69035313 -1.65482343 -3.5180408 -0.93814421 0 0 Z " fill="#D1D3CE" transform="translate(221,126)"/>
<path d="M0 0 C2.54286236 1.07553911 4.8809522 2.3997886 7.25 3.8125 C7.86101562 4.15603516 8.47203125 4.49957031 9.1015625 4.85351562 C12.47138092 6.81433792 15.08705512 8.55940302 17 12 C17.5926089 14.73347531 17.52428278 17.25456221 17 20 C15.12984906 22.43119623 13.71861655 23.64069173 11 25 C5.4870667 25.60983775 2.04947639 23.90581011 -2.625 21.3125 C-3.60726562 20.80299805 -3.60726562 20.80299805 -4.609375 20.28320312 C-8.64193452 18.09958031 -11.54128426 15.99851752 -14 12 C-14.5295751 8.79553027 -14.07047501 6.05768659 -13 3 C-8.63430375 -1.36569625 -5.81418862 -1.28057808 0 0 Z " fill="#D3D5CF" transform="translate(208,274)"/>
<path d="M0 0 C2.87896646 1.17194291 5.51126081 2.67632203 8.1875 4.25 C8.89841797 4.64574219 9.60933594 5.04148438 10.34179688 5.44921875 C17.13894535 9.3497461 17.13894535 9.3497461 19 13 C19.3543221 16.14460863 18.90477049 18.97484713 18 22 C15.5124886 24.91394193 14.10081623 25.86936768 10.30078125 26.3203125 C6.02776511 25.90565295 3.08806942 24.37243991 -0.625 22.3125 C-1.60726562 21.80299805 -1.60726562 21.80299805 -2.609375 21.28320312 C-6.65541935 19.0922783 -9.47547422 16.96800463 -12 13 C-12.81832772 10.19430496 -12.75134051 7.82321888 -12 5 C-8.19825948 0.65515369 -5.6846113 -0.67273507 0 0 Z " fill="#D3D4CE" transform="translate(240,224)"/>
<path d="M0 0 C0 0.99 0 1.98 0 3 C1.09248047 3.40412109 1.09248047 3.40412109 2.20703125 3.81640625 C4.93618316 4.97295594 7.22577842 6.29495912 9.6875 7.9375 C10.45449219 8.44152344 11.22148437 8.94554687 12.01171875 9.46484375 C14 11 14 11 16 14 C16.21916772 18.03268603 15.90568399 21.80449714 13.4375 25.0625 C9.35250766 26.6336509 5.12924226 26.71354332 0.99145508 25.3269043 C-1.00114663 24.40537906 -2.90172258 23.39301068 -4.8125 22.3125 C-5.46669922 21.97283203 -6.12089844 21.63316406 -6.79492188 21.28320312 C-10.78756802 19.10131785 -13.13852844 17.17482209 -15 13 C-15.5625426 9.14256502 -15.3564248 7.56009611 -13.25 4.25 C-8.95168943 -0.04831057 -6.06208703 -0.23315719 0 0 Z " fill="#D3D4CE" transform="translate(226,248)"/>
<path d="M0 0 C5.74208586 1.67477504 8.59306625 6.47837358 11.375 11.4140625 C11.73400391 12.00509766 12.09300781 12.59613281 12.46289062 13.20507812 C14.91406743 17.48646694 15.58895096 20.7097092 15.0625 25.6015625 C13.26687595 28.35485271 12.00995078 30.12783711 9.0625 31.6015625 C5.49075511 31.99842304 3.66566115 31.99947459 0.62890625 29.99609375 C-2.26958901 27.29171385 -4.21683259 24.37217404 -6.1875 20.9765625 C-6.538125 20.39132813 -6.88875 19.80609375 -7.25 19.203125 C-11.55797208 11.9789872 -11.55797208 11.9789872 -10.9375 6.6015625 C-7.92399872 1.5162791 -5.69957911 -0.06894652 0 0 Z " fill="#D2D4CE" transform="translate(244.9375,112.3984375)"/>
<path d="M0 0 C4.35420366 2.81986523 6.80885198 6.37054384 9.3125 10.8125 C9.67150391 11.40353516 10.03050781 11.99457031 10.40039062 12.60351562 C12.85156743 16.88490444 13.52645096 20.1081467 13 25 C11.20437595 27.75329021 9.94745078 29.52627461 7 31 C3.14491273 31.52569372 1.40385629 31.24918792 -1.9375 29.1875 C-7.84197043 23.67353687 -12.92714676 16.1782129 -13.28125 7.9453125 C-12.82349513 4.77917464 -11.30539598 3.10779061 -9 1 C-5.89951072 -0.55024464 -3.42105782 -0.28992015 0 0 Z " fill="#D2D4CE" transform="translate(274,100)"/>
<path d="M0 0 C2.95835963 1.98904862 4.43748655 4.74078299 6.1875 7.76171875 C6.53425781 8.33921875 6.88101562 8.91671875 7.23828125 9.51171875 C12.75110369 18.76312193 12.75110369 18.76312193 12.0625 24.38671875 C10.26256226 27.08662537 8.978727 28.92860525 6.0625 30.38671875 C2.75 30.76171875 2.75 30.76171875 -0.9375 30.38671875 C-4.80183193 27.0498988 -7.53634575 23.31472605 -10.25 19.01171875 C-10.94738281 17.93148437 -11.64476562 16.85125 -12.36328125 15.73828125 C-14.14787825 11.93881667 -14.37923896 9.53608694 -13.9375 5.38671875 C-10.30906584 -0.1768803 -6.62314784 -2.09643994 0 0 Z " fill="#D2D4CE" transform="translate(301.9375,87.61328125)"/>
<path d="M0 0 C2.61865895 0.9326592 4.8886368 2.23254502 7.25 3.6875 C8.1471875 4.19700195 8.1471875 4.19700195 9.0625 4.71679688 C12.86641762 6.96800918 15.62117603 9.26436532 18 13 C18.47541341 15.8685056 17.97380089 18.27221857 17 21 C14.34944303 24.11830232 12.8718999 24.91270355 8.80078125 25.3203125 C4.22553364 24.93473151 1.27229257 23.5726649 -2.6875 21.375 C-3.33783203 21.04371094 -3.98816406 20.71242187 -4.65820312 20.37109375 C-9.08268019 17.98070349 -11.60845076 15.56568491 -14 11 C-14.07305303 6.76292454 -13.68376349 4.80808412 -10.9375 1.5625 C-7.22880952 -0.4102077 -4.08566808 -0.54198115 0 0 Z " fill="#D3D3CD" transform="translate(258,200)"/>
<path d="M0 0 C4.75248238 3.3901041 7.56931322 6.86652136 10.375 11.9375 C10.72949219 12.53240234 11.08398438 13.12730469 11.44921875 13.74023438 C13.65679348 17.63971484 14.56106597 20.53697523 14 25 C12.20006226 27.69990662 10.916227 29.5418865 8 31 C3.98650809 31.45435757 1.82389508 31.59732393 -1.5 29.1875 C-6.04705852 23.94322583 -11.65219609 16.68672143 -12.3125 9.6875 C-11.95124058 5.42463889 -10.98007946 3.98007946 -8 1 C-5.09704195 -0.45147903 -3.22738221 -0.37239025 0 0 Z " fill="#D2D4CE" transform="translate(327,74)"/>
<path d="M0 0 C6.31096509 2.16191953 14.62307845 6.53223183 18.6796875 11.91796875 C19.53010084 16.07809889 19.3222769 19.77248329 17.2421875 23.48046875 C13.27976766 25.70328963 10.01357856 25.8497866 5.6796875 24.91796875 C-1.26036042 22.05160576 -8.63522613 18.72120513 -12.3203125 11.91796875 C-12.47289147 7.56946797 -11.72729853 5.52844779 -9.3203125 1.91796875 C-5.74747323 -0.46392409 -4.1483419 -0.7053578 0 0 Z " fill="#D4D3CD" transform="translate(273.3203125,175.08203125)"/>
<path d="M0 0 C2.3125 1.5625 2.3125 1.5625 4 4 C4.61089984 8.81083621 4.73857492 10.8428993 2.125 14.9375 C-0.39168649 17.38016629 -1.33308219 17.92589802 -4.8125 18.3125 C-8.7307645 17.92835642 -10.21293267 16.70743683 -13 14 C-14.42662219 11.14675563 -14.31033868 9.16545451 -14 6 C-10.62287336 0.49653436 -6.3688617 -2.28625805 0 0 Z " fill="#E1E2D9" transform="translate(229,139)"/>
<path d="M0 0 C2.76186603 2.02536842 4.66292254 3.53545656 5.453125 6.96875 C5.63944742 10.53549342 5.30984021 12.59720773 3.125 15.4375 C-0.43179954 18.05279378 -2.58780627 18.26473162 -7 18 C-9.61580123 17.07134194 -10.71948383 16.56555679 -11.96875 14.046875 C-12.97554694 9.69395881 -13.34492902 7.72965753 -11.375 3.5625 C-7.68604191 -0.41769162 -5.32110687 -1.94674642 0 0 Z " fill="#E1E2D9" transform="translate(220,281)"/>
<path d="M0 0 C3.5036098 0.89836149 5.09324658 2.95515583 7.4375 5.625 C7.7675 5.955 8.0975 6.285 8.4375 6.625 C8.56786207 11.2156071 8.27532649 14.64354611 5.25 18.1875 C1.27790092 20.21768397 -1.57995175 20.23077863 -5.8125 18.9375 C-8.29967491 17.07211882 -8.82547185 15.64011517 -9.5625 12.625 C-9.5625 9.24277593 -9.48219437 6.78625966 -7.328125 4.06640625 C-5.05267587 1.99621671 -2.98881326 0.72897884 0 0 Z " fill="#E1E1D8" transform="translate(250.5625,230.375)"/>
<path d="M0 0 C2.17476401 1.54338091 2.81832637 2.63665273 4 5 C4.39447548 9.18144011 4.45035186 11.30946048 2.125 14.875 C-0.38666318 17.38666318 -1.29384163 17.92153796 -4.8125 18.3125 C-8.7307645 17.92835642 -10.21293267 16.70743683 -13 14 C-14.42662219 11.14675563 -14.31033868 9.16545451 -14 6 C-10.15661308 0.23491962 -6.83475667 -0.81232764 0 0 Z " fill="#E1E2D9" transform="translate(256,126)"/>
<path d="M0 0 C2.69990662 1.79993774 4.5418865 3.083773 6 6 C6.03831515 10.03841705 5.91798542 13.78825924 3.4375 17.0625 C-0.77132034 18.68127705 -4.92276419 18.71590449 -9.1875 17.24609375 C-11 16 -11 16 -11.75 14.046875 C-12.2287424 9.64842919 -12.28424939 7.54889536 -10.1875 3.5 C-6.92731082 -0.22593049 -4.88159527 -0.47858777 0 0 Z " fill="#E0E3DA" transform="translate(236,256)"/>
<path d="M0 0 C2.9375 2.0625 2.9375 2.0625 5 5 C5.69151325 9.30274909 5.51557405 11.20945312 3.125 14.875 C0.6528747 17.3471253 -0.3037718 17.90505979 -3.75 18.375 C-8.24132722 17.85676994 -10.01304516 16.34254471 -13 13 C-13.77152986 8.67943279 -13.52747866 6.80880061 -11.125 3.125 C-7.55800211 -0.44199789 -4.99020234 -0.5074782 0 0 Z " fill="#E1E2D9" transform="translate(282,113)"/>
<path d="M0 0 C3.6875 0.3125 3.6875 0.3125 6.0625 2.1875 C8.75213552 5.70471568 9.12217763 7.87878814 8.6875 12.3125 C6.88756226 15.01240662 5.603727 16.8543865 2.6875 18.3125 C-1.64577174 18.80305907 -3.63250344 18.78994439 -7.25 16.25 C-9.3125 13.3125 -9.3125 13.3125 -9.9375 9.8125 C-9.16460991 5.48431549 -7.64380443 4.07504514 -4.3125 1.3125 C-3.3125 0.3125 -3.3125 0.3125 0 0 Z " fill="#E1E1D8" transform="translate(305.3125,99.6875)"/>
<path d="M0 0 C3.74785043 2.08213913 4.79482295 3.2947039 6 7.4375 C6 11.40316899 5.44976383 12.93779521 3 16 C-0.70126859 18.46751239 -2.62223532 18.30721156 -7 18 C-9.16015625 17.25 -9.16015625 17.25 -11 16 C-12.13466618 13.04514016 -12.23717989 10.14131593 -12 7 C-8.91416435 1.04114496 -6.69055229 -0.6559365 0 0 Z " fill="#E1E2D9" transform="translate(270,207)"/>
<path d="M0 0 C2.89357127 2.59679473 3.86089908 4.16539447 4.5 8 C3.88466097 11.69203416 2.58383614 13.34016868 0 16 C-3.13871188 17.56935594 -5.53855822 17.35201103 -9 17 C-12.69186542 14.40783917 -13.82883761 12.95850936 -14.625 8.5 C-13.84922564 4.15566358 -12.38221335 2.73798224 -9 0 C-5.77839187 -1.61080407 -3.42436421 -0.82657067 0 0 Z " fill="#E1E1D8" transform="translate(337,88)"/>
<path d="M0 0 C2.375 1.5 2.375 1.5 4 4 C4.77115706 8.28070856 4.7076263 11.7385792 2.5625 15.5625 C-1.14548546 17.6425894 -4.83986986 17.85041334 -9 17 C-10.92135437 15.42877855 -11.88959708 14.22080584 -13 12 C-13.41204834 7.36445612 -12.87454146 4.69583902 -10 1 C-6.62055069 -1.56372016 -3.97046734 -1.15805297 0 0 Z " fill="#E1E3DA" transform="translate(288,183)"/>
<path d="M0 0 C3.78823229 1.72975069 5.27345454 3.11527272 7 7 C7.40121989 10.74471902 7.33217435 13.20647239 5.875 16.6875 C3.13323335 20.06901221 0.39886247 22.53433846 -3.9921875 23.38671875 C-7.60194471 23.58423377 -9.79087578 23.127293 -12.875 21.25 C-14.85881999 19.14948472 -16.14196205 17.74572145 -17 15 C-16.625 12.75 -16.625 12.75 -16 11 C-14.948125 11.99 -14.948125 11.99 -13.875 13 C-11.15610238 15.18293783 -11.15610238 15.18293783 -8 15.5625 C-4.86383796 15.17246881 -4.86383796 15.17246881 -2.125 13.125 C0.84400951 8.75880954 0.44797592 5.12683554 0 0 Z " fill="#F15150" transform="translate(232,141)"/>
<path d="M0 0 C4.875 3.75 4.875 3.75 6 6 C6.57717357 10.73093088 6.43416625 14.14717343 4.25 18.4375 C0.83781526 22.32359928 -0.7108264 22.85444814 -5.875 23.4375 C-10.70549894 23.32034238 -12.71843269 21.43783242 -16 18 C-18.05326875 14.92009688 -18 13.90161828 -18 10 C-17.34 10 -16.68 10 -16 10 C-15.2575 10.825 -14.515 11.65 -13.75 12.5 C-11.22848597 15.21722459 -11.22848597 15.21722459 -8 15.625 C-3.7826552 14.7463865 -2.42611651 13.56781839 0 10 C0.4072392 6.62352309 0.29556031 3.3825236 0 0 Z " fill="#F15151" transform="translate(259,128)"/>
<path d="M0 0 C5.28620124 0.41460402 8.17390997 1.28322682 12 5 C14.47448571 8.71172856 14.66022291 11.69632473 14 16 C11.77708378 20.36350222 9.54977416 23.09544338 5 25 C0.03592884 25.53186477 -3.05012476 25.13666564 -7 22 C-7.33 21.01 -7.66 20.02 -8 19 C-7.39671875 19.02320313 -6.7934375 19.04640625 -6.171875 19.0703125 C-5.37265625 19.08835937 -4.5734375 19.10640625 -3.75 19.125 C-2.56664062 19.15980469 -2.56664062 19.15980469 -1.359375 19.1953125 C1.24614317 18.97962391 2.79986977 18.3921178 5 17 C6.60697507 13.78604986 6.6204026 10.47558877 6 7 C3.68726558 4.1028059 3.68726558 4.1028059 1 2 C0.67 1.34 0.34 0.68 0 0 Z " fill="#F15151" transform="translate(218,279)"/>
<path d="M0 0 C3.27347035 2.41203078 5.5207636 4.18329098 7 8 C7.24137178 12.49756077 6.55333627 16.10321363 4.1875 19.9375 C1.54316944 22.43072596 -0.50216036 23.89549956 -4.18359375 24.15234375 C-8.28413615 23.76147749 -10.56876548 23.30545778 -14 20.875 C-16.34285287 17.507149 -16.76130833 15.05775837 -17 11 C-16.56429688 11.3609375 -16.12859375 11.721875 -15.6796875 12.09375 C-12.71940627 14.40046265 -10.60219006 15.87956199 -6.875 16.625 C-2.85552675 15.75120147 -1.39696563 14.31345248 1 11 C1.40965996 7.10823039 1.19354869 3.72983966 0 0 Z " fill="#F15050" transform="translate(285,114)"/>
<path d="M0 0 C3.84375 1.7890625 3.84375 1.7890625 5.25 3.6875 C6.32365701 6.99794246 6.3585013 9.53448741 6 13 C3.74665796 17.33976986 1.54633071 20.09688482 -3 22 C-7.15016496 22.52820281 -9.44218522 22.25745297 -13.25 20.5 C-16.60608371 17.44901481 -18.14235658 14.45203661 -19 10 C-18.67 9.34 -18.34 8.68 -18 8 C-16 10 -14 12 -12 14 C-7.76535618 14.48861275 -5.66332858 14.4375146 -2.0625 12.0625 C0.70477383 7.95351764 0.47138774 4.80815498 0 0 Z " fill="#F25050" transform="translate(313,103)"/>
<path d="M0 0 C3 1 3 1 4.16015625 2.75390625 C5.66772821 6.78578475 5.68484076 10.77453251 5 15 C2.56543724 18.15835169 0.30027757 19.79981495 -3 22 C-7.20414081 22.47594047 -9.46976921 22.27531214 -13.25 20.3125 C-16.02930244 17.97535931 -17.54638638 16.31100879 -19 13 C-19.1875 10.1875 -19.1875 10.1875 -19 8 C-18.36384766 8.6496875 -18.36384766 8.6496875 -17.71484375 9.3125 C-14.58064797 12.2882639 -12.70921986 13.86549278 -8.375 14.6875 C-3.96481401 13.78912878 -2.51655629 12.73670479 0 9 C0.39770984 5.9508912 0.29947785 3.0546741 0 0 Z " fill="#F15050" transform="translate(340,90)"/>
<path d="M0 0 C3.44730584 -0.39397781 4.75613114 -0.1644697 7.6875 1.8125 C10.16609849 4.1571202 11.83383708 5.86004505 12.3359375 9.3046875 C12.40080195 13.57276853 12.43985326 16.24596584 10.25 20 C6.20253377 23.59774776 3.52668421 24.40298242 -2.03125 24.2578125 C-4.92382545 23.87902286 -6.7615226 22.83148151 -9 21 C-9.33 20.01 -9.66 19.02 -10 18 C-9.24074219 18.02320313 -8.48148438 18.04640625 -7.69921875 18.0703125 C-6.20841797 18.09738281 -6.20841797 18.09738281 -4.6875 18.125 C-3.20830078 18.15980469 -3.20830078 18.15980469 -1.69921875 18.1953125 C1.22406527 18.20682639 1.22406527 18.20682639 4 16 C5.03261117 13.01364156 5.29894727 10.14166404 5 7 C2.70800597 4.03949126 2.70800597 4.03949126 0 2 C0 1.34 0 0.68 0 0 Z " fill="#F15252" transform="translate(236,255)"/>
<path d="M0 0 C4.01349645 0.28001138 5.72035142 0.75763789 8.8125 3.4375 C11.86790514 7.01668888 12.34554938 9.15326263 12.28515625 13.8984375 C11.72620038 18.01786567 9.44882888 20.86163445 6.25 23.375 C0.91469326 24.85702965 -2.70419785 24.69417972 -7.5 22.125 C-8.325 21.42375 -9.15 20.7225 -10 20 C-10 19.34 -10 18.68 -10 18 C-8.75283203 18.05220703 -8.75283203 18.05220703 -7.48046875 18.10546875 C-6.39378906 18.13253906 -5.30710937 18.15960938 -4.1875 18.1875 C-3.10855469 18.22230469 -2.02960938 18.25710937 -0.91796875 18.29296875 C1.96262007 18.23362188 1.96262007 18.23362188 3.85546875 16.765625 C6.00771113 13.44544222 5.76780237 9.7841688 5 6 C2.64167228 3.52791204 2.64167228 3.52791204 0 2 C0 1.34 0 0.68 0 0 Z " fill="#F15453" transform="translate(286,181)"/>
<path d="M0 0 C5.64060589 0.40290042 8.03471123 2.21914326 12 6 C13.85962086 9.71924173 13.57398707 13.95020231 13 18 C10.53461823 21.2871757 7.92924302 23.69025233 4 25 C-0.06504722 25.53022355 -1.74379099 25.14233834 -5.375 23.125 C-6.24125 22.42375 -7.1075 21.7225 -8 21 C-8 20.34 -8 19.68 -8 19 C-7.32453125 19.03480469 -6.6490625 19.06960937 -5.953125 19.10546875 C-5.06109375 19.13253906 -4.1690625 19.15960938 -3.25 19.1875 C-2.36828125 19.22230469 -1.4865625 19.25710937 -0.578125 19.29296875 C2.52621417 18.94020293 3.79780599 18.19229651 6 16 C7.11875499 13.33947818 7.34715982 10.86126885 7 8 C4.79135579 5.12448478 4.79135579 5.12448478 2 3 C1.34 2.01 0.68 1.02 0 0 Z " fill="#F15050" transform="translate(268,205)"/>
<path d="M0 0 C4.86045979 0.45213579 7.53141261 1.53141261 11 5 C13.25475922 8.689606 13.26216554 11.90551134 12.6171875 16.06640625 C11.60001197 19.25312706 9.54706149 20.94992612 7 23 C3.55329109 24.72335446 -0.22396774 24.37173375 -4 24 C-7 22.6875 -7 22.6875 -9 21 C-9.33 20.01 -9.66 19.02 -10 18 C-9.25234375 18.10699219 -8.5046875 18.21398437 -7.734375 18.32421875 C-6.74953125 18.44410156 -5.7646875 18.56398437 -4.75 18.6875 C-3.28820312 18.87892578 -3.28820312 18.87892578 -1.796875 19.07421875 C1.56068588 18.98512146 2.69991913 18.41587441 5 16 C6.12571084 13.00930554 6.35115177 10.17151358 6 7 C3.77023837 4.01880459 3.77023837 4.01880459 1 2 C0.67 1.34 0.34 0.68 0 0 Z " fill="#F15050" transform="translate(252,230)"/>
</svg>
