<?xml version="1.0" encoding="UTF-8"?>
<svg version="1.1" xmlns="http://www.w3.org/2000/svg" width="512" height="512">
<path d="M0 0 C4.33324999 0.73939098 7.97784928 2.33930808 11.87695312 4.32324219 C12.69470215 4.72599365 13.51245117 5.12874512 14.35498047 5.54370117 C22.03429665 9.4403876 28.89837111 14.09853949 35.62695312 19.44824219 C36.88572266 20.43244141 36.88572266 20.43244141 38.16992188 21.43652344 C52.28733197 33.17268364 62.53371965 51.14190153 64.62695312 69.44824219 C65.973202 88.67279395 66.4301417 108.77945289 53.62695312 124.44824219 C48.13414094 130.56982121 41.20779358 134.38221338 33.62695312 137.44824219 C32.63695312 137.44824219 31.64695313 137.44824219 30.62695312 137.44824219 C30.88089844 138.40859375 31.13484375 139.36894531 31.39648438 140.35839844 C37.45028841 164.07159179 38.39551623 188.10368209 39.62695312 212.44824219 C50.84695312 212.44824219 62.06695312 212.44824219 73.62695312 212.44824219 C73.95695313 209.80824219 74.28695312 207.16824219 74.62695312 204.44824219 C75.21540527 201.85385984 75.83497993 199.30050435 76.52197266 196.73364258 C76.71289458 196.00365114 76.90381651 195.27365971 77.10052395 194.52154732 C77.73209347 192.11169539 78.37091757 189.70383008 79.00976562 187.29589844 C79.46138754 185.57818865 79.91254383 183.86035638 80.36326599 182.14241028 C81.57037199 177.54681206 82.78377781 172.95290104 83.99882889 168.35939789 C85.25637957 163.60277376 86.50974338 158.84504668 87.76342773 154.08740234 C89.27562142 148.34930162 90.78822567 142.61131163 92.30326843 136.8739624 C95.13876505 126.13139227 97.94779931 115.3825657 100.71705627 104.62273216 C101.89272343 100.05900655 103.07586678 95.49720986 104.25750732 90.93502808 C104.87349162 88.54776116 105.48574197 86.15952733 106.09405518 83.77029419 C106.92955335 80.49096822 107.77865407 77.21544686 108.63085938 73.94042969 C108.8633287 73.01188675 109.09579803 72.08334381 109.33531189 71.12666321 C112.97505483 57.30473441 119.37868796 47.96030239 131.62695312 40.44824219 C141.46823527 35.68033356 152.28714311 34.80130132 162.87695312 37.57324219 C173.34348948 41.27942555 181.82878439 47.47548465 187.19726562 57.33105469 C194.24072123 72.42417384 191.76503182 86.12195186 187.50195312 101.63574219 C187.03547539 103.38825442 186.5709691 105.14129227 186.1081543 106.89477539 C184.99680746 111.0959085 183.87483735 115.29406375 182.74853516 119.49121094 C180.12450181 129.29958531 177.56344953 139.12440181 174.99804688 148.94824219 C173.99370871 152.79306485 172.98928224 156.63786445 171.98486328 160.48266602 C171.73419853 161.44230412 171.48353378 162.40194223 171.22527313 163.39066029 C168.50818887 173.79062175 165.78117323 184.18797355 163.05273438 194.58496094 C162.82617094 195.44837601 162.59960751 196.31179108 162.36617851 197.20137024 C161.12000125 201.95038826 159.87359782 206.69934685 158.62695312 211.44824219 C159.21597412 211.46806152 159.80499512 211.48788086 160.41186523 211.50830078 C163.12977664 211.60467495 165.84703416 211.71388931 168.56445312 211.82324219 C169.49064453 211.85417969 170.41683594 211.88511719 171.37109375 211.91699219 C179.81620484 212.27257581 188.82598353 212.90008278 195.62695312 218.44824219 C201.87729939 225.31786239 204.05155482 231.17735706 203.88085938 240.44042969 C203.3499722 246.7294008 201.13524958 251.93994573 196.62695312 256.44824219 C190.17036038 261.0619613 185.41774829 262.60132545 177.43945312 262.51074219 C176.68986328 262.50623047 175.94027344 262.50171875 175.16796875 262.49707031 C173.3209293 262.48530573 171.47393099 262.46737084 169.62695312 262.44824219 C169.51625488 263.56569824 169.40555664 264.6831543 169.29150391 265.83447266 C168.87134888 270.07286046 168.44977935 274.31110669 168.02783203 278.54931641 C167.84712151 280.36633674 167.66676951 282.18339278 167.48681641 284.00048828 C166.28235133 296.15952959 165.00559264 308.30767918 163.62695312 320.44824219 C164.17150146 320.56723877 164.7160498 320.68623535 165.27709961 320.80883789 C200.44329159 328.55043837 229.54393679 343.19132954 249.62695312 374.44824219 C259.35829567 390.82946852 266.10238674 410.23071493 265.62695312 429.44824219 C266.31732666 429.42729492 267.0077002 429.40634766 267.71899414 429.38476562 C270.87566305 429.30113123 274.03209814 429.24943266 277.18945312 429.19824219 C278.27548828 429.16472656 279.36152344 429.13121094 280.48046875 429.09667969 C287.08962876 429.01632516 291.35055215 429.30818545 296.62695312 433.44824219 C299.32123319 437.20200659 298.96799257 441.50328496 298.99804688 445.94042969 C299.00707535 446.76398956 299.01610382 447.58754944 299.02540588 448.43606567 C299.03989186 450.17592747 299.04879102 451.91584355 299.05249023 453.65576172 C299.06438289 456.30758138 299.11357742 458.95706987 299.1640625 461.60839844 C299.17352803 463.30239755 299.18076245 464.99641089 299.18554688 466.69042969 C299.20507919 467.47811737 299.22461151 468.26580505 299.24473572 469.07736206 C299.21143275 473.17288159 298.83662832 475.69549979 296.21704102 478.93310547 C292.42251308 482.61782852 290.64048897 482.57441048 285.44854164 482.58246326 C284.80487036 482.58481549 284.16119908 482.58716772 283.49802262 482.58959123 C281.32033055 482.59629925 279.14269789 482.59582247 276.96499634 482.59541321 C275.39614787 482.59871075 273.82730025 482.60243608 272.25845373 482.60655469 C267.93073732 482.61659594 263.60303478 482.62029491 259.27530837 482.622944 C254.61385108 482.62684095 249.95240484 482.63641993 245.29095459 482.64515686 C234.02281482 482.66494208 222.75467411 482.67499165 211.4865213 482.68388465 C206.18132504 482.68826558 200.87612977 482.69363302 195.5709343 482.69887352 C177.93548858 482.71589048 160.3000435 482.73038361 142.66459084 482.73762226 C138.08547591 482.7395322 133.506361 482.74145252 128.92724609 482.7434082 C127.22004192 482.74413381 127.22004192 482.74413381 125.47834878 482.74487408 C107.05048466 482.75317035 88.62268555 482.77849837 70.1948498 482.81098888 C51.27831965 482.84406911 32.3618225 482.86207204 13.44526327 482.8652665 C2.82327649 482.86743108 -7.7986156 482.8761717 -18.42057419 482.90172768 C-27.46938664 482.92344809 -36.51808142 482.9314786 -45.56691699 482.92176089 C-50.18206678 482.91721964 -54.79697387 482.91909216 -59.4120903 482.93852234 C-63.64284345 482.95617992 -67.87317731 482.95513535 -72.10393508 482.93962505 C-73.62898288 482.93725286 -75.15405992 482.94155226 -76.67906313 482.9534537 C-90.99046805 483.05816287 -102.60109891 480.31011774 -113.37304688 470.44824219 C-121.86624968 461.02721051 -125.5841547 450.52987288 -126.87231445 438.05859375 C-127.04618164 436.53699331 -127.04618164 436.53699331 -127.22356129 434.98465347 C-127.62051384 431.47391232 -127.99668936 427.96124776 -128.37304688 424.44824219 C-128.59652155 422.42235812 -128.82212957 420.39671901 -129.04796511 418.37109685 C-130.09280896 408.99722506 -131.10392617 399.61981431 -132.11002326 390.24171734 C-132.48207277 386.77624537 -132.8554744 383.31091961 -133.2288726 379.84559274 C-134.10858182 371.68143627 -134.98627715 363.51706516 -135.86254883 355.35253906 C-136.76494163 346.94489064 -137.67040425 338.53757682 -138.57738656 330.13042235 C-139.36031969 322.87235436 -140.14160059 315.6141099 -140.92149764 308.35571504 C-141.38558286 304.03656456 -141.8502422 299.71747797 -142.31641197 295.39855194 C-142.75256092 291.3569256 -143.18663803 287.31508205 -143.61910248 283.27305984 C-143.77800608 281.79108718 -143.93763516 280.3091921 -144.09803963 278.82738113 C-144.3166089 276.80714994 -144.53230436 274.78660844 -144.74784851 272.76605225 C-144.9300496 271.07062098 -144.9300496 271.07062098 -145.11593151 269.34093857 C-145.37304688 266.44824219 -145.37304688 266.44824219 -145.37304688 262.44824219 C-146.41203125 262.50625 -147.45101562 262.56425781 -148.52148438 262.62402344 C-157.06988237 262.96062302 -164.33803752 263.01205187 -171.37304688 257.44824219 C-176.82179892 251.79430701 -179.65243566 246.11485114 -179.74804688 238.19824219 C-179.60264507 231.04124222 -178.41430967 225.75617104 -173.50195312 220.41308594 C-168.53323513 215.83885973 -164.10149871 213.40037916 -157.29101562 212.81542969 C-156.35966797 212.73164063 -155.42832031 212.64785156 -154.46875 212.56152344 C-153.50904297 212.48289063 -152.54933594 212.40425781 -151.56054688 212.32324219 C-150.58150391 212.236875 -149.60246094 212.15050781 -148.59375 212.06152344 C-146.18735709 211.8502304 -143.78058075 211.64603456 -141.37304688 211.44824219 C-141.87006104 210.32893311 -142.3670752 209.20962402 -142.87915039 208.05639648 C-152.32236391 186.78027811 -161.71616919 165.48734358 -170.82641602 144.06616211 C-171.12112793 143.37406647 -171.41583984 142.68197083 -171.71948242 141.96890259 C-172.50455637 140.12414326 -173.28763895 138.27853681 -174.07055664 136.43286133 C-175.26024855 133.58506235 -175.26024855 133.58506235 -176.43994141 131.50114441 C-179.74299866 124.23416999 -176.63843289 113.36816118 -175.65820312 105.74511719 C-175.48080395 104.33511705 -175.3038454 102.92506142 -175.12730408 101.51495361 C-174.75825155 98.57626187 -174.38560376 95.63805804 -174.01000977 92.70019531 C-173.52970002 88.94285621 -173.05586814 85.18473742 -172.58438969 81.42628098 C-172.13216005 77.82393099 -171.67647367 74.22202055 -171.22070312 70.62011719 C-171.13478472 69.93841209 -171.04886631 69.256707 -170.96034431 68.55434418 C-170.71579562 66.61866859 -170.46842968 64.68334956 -170.22094727 62.74804688 C-170.08104874 61.64934265 -169.94115021 60.55063843 -169.79701233 59.41864014 C-169.41395151 56.7348293 -168.93571759 54.09950741 -168.37304688 51.44824219 C-165.88867188 50.59667969 -165.88867188 50.59667969 -162.37304688 50.44824219 C-159.33624391 51.93530411 -156.77836484 53.99486504 -154.12304688 56.07324219 C-152.514017 57.28463824 -150.90463211 58.49556286 -149.29492188 59.70605469 C-148.47701172 60.3302832 -147.65910156 60.95451172 -146.81640625 61.59765625 C-143.05092622 64.44960855 -139.21180136 67.19620635 -135.37304688 69.94824219 C-133.88823246 71.01924784 -132.40385977 72.09086615 -130.91992188 73.16308594 C-130.17935547 73.69788574 -129.43878906 74.23268555 -128.67578125 74.78369141 C-126.26621426 76.52546704 -123.85853671 78.26983062 -121.45117188 80.01464844 C-120.64292969 80.59988281 -119.8346875 81.18511719 -119.00195312 81.78808594 C-117.46222916 82.90305847 -115.92312513 84.01888782 -114.38476562 85.13574219 C-113.68480469 85.64234375 -112.98484375 86.14894531 -112.26367188 86.67089844 C-111.65555664 87.11183838 -111.04744141 87.55277832 -110.42089844 88.00708008 C-108.26700266 89.57428348 -108.26700266 89.57428348 -105.36865234 91.13793945 C-101.56065448 94.0747841 -100.34197274 96.82507588 -98.55273438 101.19042969 C-98.21615311 101.96953201 -97.87957184 102.74863434 -97.53279114 103.55134583 C-96.42106697 106.13513806 -95.33486325 108.72888633 -94.24804688 111.32324219 C-93.46575841 113.15319988 -92.68162282 114.98236892 -91.89575195 116.81079102 C-90.23323928 120.68434587 -88.58003753 124.56169071 -86.93310547 128.44189453 C-83.1288663 137.38918117 -79.22726221 146.29407976 -75.33831787 155.20477295 C-73.23839955 160.02159539 -71.14775402 164.84243613 -69.05664062 169.66308594 C-66.44740425 175.67701421 -63.83372235 181.68892164 -61.20735168 187.69538879 C-59.96184283 190.54423917 -58.71885533 193.39418551 -57.47622681 196.24429321 C-56.91320029 197.5337341 -56.34891555 198.82262642 -55.78329468 200.1109314 C-55.02351094 201.8417401 -54.26843771 203.57461441 -53.51367188 205.30761719 C-53.09633789 206.26120117 -52.67900391 207.21478516 -52.24902344 208.19726562 C-51.37304688 210.44824219 -51.37304688 210.44824219 -51.37304688 212.44824219 C-48.40304688 212.44824219 -45.43304688 212.44824219 -42.37304688 212.44824219 C-42.16550781 211.42730469 -41.95796875 210.40636719 -41.74414062 209.35449219 C-36.71732229 185.35276934 -29.6156878 161.44579053 -19.43945312 139.10058594 C-18.18652725 136.46078394 -18.18652725 136.46078394 -18.37304688 133.44824219 C-20.14063551 132.03126251 -20.14063551 132.03126251 -22.43554688 130.76074219 C-32.15012963 124.5745692 -37.59468456 116.04090086 -40.07617188 104.91699219 C-42.29047311 86.50332927 -33.47108995 71.06092516 -23.68554688 56.32324219 C-16.57918791 45.58384008 -12.14816069 33.71475909 -12.43554688 20.74902344 C-12.45270752 19.90807129 -12.46986816 19.06711914 -12.48754883 18.20068359 C-12.53527792 16.52362065 -12.60830688 14.84703765 -12.7097168 13.17236328 C-12.84500012 9.23086548 -12.7183546 6.21961253 -10.48632812 2.87402344 C-6.7022046 -0.07445926 -4.68225836 -0.2997893 0 0 Z M157.62695312 375.44824219 C156.07678453 376.99841078 156.28355704 378.62586656 156.05444336 380.78100586 C155.95441513 381.70253952 155.8543869 382.62407318 155.75132751 383.5735321 C155.6471199 384.57761612 155.54291229 385.58170013 155.43554688 386.61621094 C155.3259816 387.64378006 155.21641632 388.67134918 155.10353088 389.73005676 C154.87198869 391.91136592 154.6426389 394.09290872 154.4152832 396.2746582 C154.06770032 399.60463287 153.7121398 402.93368322 153.35546875 406.26269531 C153.1316815 408.38048319 152.90835932 410.49832028 152.68554688 412.61621094 C152.57931503 413.6101738 152.47308319 414.60413666 152.3636322 415.6282196 C152.26675613 416.56551407 152.16988007 417.50280853 152.07006836 418.46850586 C151.9842601 419.28711594 151.89845184 420.10572601 151.81004333 420.94914246 C151.60299509 423.77525871 151.62695312 426.61455166 151.62695312 429.44824219 C170.76695312 429.44824219 189.90695312 429.44824219 209.62695312 429.44824219 C207.9974391 411.5235879 201.47772232 398.10976618 187.62695312 386.44824219 C179.15049898 380.27689572 168.31048048 375.44824219 157.62695312 375.44824219 Z " fill="#AEA7D3" transform="translate(196.373046875,14.5517578125)"/>
<path d="M0 0 C4.33324999 0.73939098 7.97784928 2.33930808 11.87695312 4.32324219 C12.69470215 4.72599365 13.51245117 5.12874512 14.35498047 5.54370117 C22.03429665 9.4403876 28.89837111 14.09853949 35.62695312 19.44824219 C36.88572266 20.43244141 36.88572266 20.43244141 38.16992188 21.43652344 C52.28733197 33.17268364 62.53371965 51.14190153 64.62695312 69.44824219 C65.973202 88.67279395 66.4301417 108.77945289 53.62695312 124.44824219 C48.13414094 130.56982121 41.20779358 134.38221338 33.62695312 137.44824219 C32.63695312 137.44824219 31.64695313 137.44824219 30.62695312 137.44824219 C30.88089844 138.40859375 31.13484375 139.36894531 31.39648438 140.35839844 C37.45028841 164.07159179 38.39551623 188.10368209 39.62695312 212.44824219 C50.84695312 212.44824219 62.06695312 212.44824219 73.62695312 212.44824219 C73.95695313 209.80824219 74.28695312 207.16824219 74.62695312 204.44824219 C75.21540527 201.85385984 75.83497993 199.30050435 76.52197266 196.73364258 C76.71289458 196.00365114 76.90381651 195.27365971 77.10052395 194.52154732 C77.73209347 192.11169539 78.37091757 189.70383008 79.00976562 187.29589844 C79.46138754 185.57818865 79.91254383 183.86035638 80.36326599 182.14241028 C81.57037199 177.54681206 82.78377781 172.95290104 83.99882889 168.35939789 C85.25637957 163.60277376 86.50974338 158.84504668 87.76342773 154.08740234 C89.27562142 148.34930162 90.78822567 142.61131163 92.30326843 136.8739624 C95.13876505 126.13139227 97.94779931 115.3825657 100.71705627 104.62273216 C101.89272343 100.05900655 103.07586678 95.49720986 104.25750732 90.93502808 C104.87349162 88.54776116 105.48574197 86.15952733 106.09405518 83.77029419 C106.92955335 80.49096822 107.77865407 77.21544686 108.63085938 73.94042969 C108.8633287 73.01188675 109.09579803 72.08334381 109.33531189 71.12666321 C112.97505483 57.30473441 119.37868796 47.96030239 131.62695312 40.44824219 C141.46823527 35.68033356 152.28714311 34.80130132 162.87695312 37.57324219 C173.34348948 41.27942555 181.82878439 47.47548465 187.19726562 57.33105469 C194.24072123 72.42417384 191.76503182 86.12195186 187.50195312 101.63574219 C187.03547539 103.38825442 186.5709691 105.14129227 186.1081543 106.89477539 C184.99680746 111.0959085 183.87483735 115.29406375 182.74853516 119.49121094 C180.12450181 129.29958531 177.56344953 139.12440181 174.99804688 148.94824219 C173.99370871 152.79306485 172.98928224 156.63786445 171.98486328 160.48266602 C171.73419853 161.44230412 171.48353378 162.40194223 171.22527313 163.39066029 C168.50818887 173.79062175 165.78117323 184.18797355 163.05273438 194.58496094 C162.82617094 195.44837601 162.59960751 196.31179108 162.36617851 197.20137024 C161.12000125 201.95038826 159.87359782 206.69934685 158.62695312 211.44824219 C159.21597412 211.46806152 159.80499512 211.48788086 160.41186523 211.50830078 C163.12977664 211.60467495 165.84703416 211.71388931 168.56445312 211.82324219 C169.49064453 211.85417969 170.41683594 211.88511719 171.37109375 211.91699219 C179.81620484 212.27257581 188.82598353 212.90008278 195.62695312 218.44824219 C201.87729939 225.31786239 204.05155482 231.17735706 203.88085938 240.44042969 C203.3499722 246.7294008 201.13524958 251.93994573 196.62695312 256.44824219 C191.07482526 260.4156534 186.79135277 262.56984975 179.86651516 262.58525658 C178.65797074 262.59033112 177.44942632 262.59540566 176.20425934 262.60063398 C174.85617924 262.60123567 173.50809909 262.60173475 172.16001892 262.60214233 C170.73324974 262.60615676 169.30648169 262.61059494 167.87971503 262.61542189 C163.94945391 262.62739575 160.01920508 262.63303773 156.0889293 262.63760304 C151.85356917 262.64355614 147.61822375 262.65516679 143.38287354 262.66589355 C133.1489161 262.69042543 122.9149538 262.70504645 112.680976 262.71795362 C109.79060123 262.72166517 106.90022694 262.72563844 104.00985265 262.72970629 C86.06295166 262.7549439 68.11604991 262.77699815 50.16913509 262.78943443 C46.01127558 262.79236416 41.85341609 262.79532582 37.69555664 262.79833984 C36.66213292 262.79908589 35.62870921 262.79983195 34.56396962 262.8006006 C17.82579376 262.81325227 1.08772417 262.8464722 -15.65040202 262.88814168 C-32.83351456 262.93056836 -50.01657271 262.95413037 -67.19973749 262.959355 C-76.84804981 262.96276842 -86.4961961 262.97451547 -96.14445686 263.00745773 C-104.36218667 263.03546956 -112.57971641 263.04645263 -120.79749025 263.03526227 C-124.98918642 263.03007838 -129.1804637 263.03294452 -133.37209892 263.05772781 C-137.21359905 263.08025089 -141.05438016 263.07945735 -144.89589315 263.06052394 C-146.93534659 263.0564091 -148.9748046 263.07684707 -151.01414925 263.09831083 C-158.78959249 263.03130592 -164.9570874 262.08449029 -171.37304688 257.44824219 C-177.92613529 250.51506863 -179.87026912 244.21429274 -179.67773438 234.73730469 C-178.93372403 226.70580838 -175.5418839 221.96398386 -169.47070312 216.85839844 C-165.61086679 214.26361088 -161.89314712 213.21070478 -157.29101562 212.81542969 C-156.35966797 212.73164063 -155.42832031 212.64785156 -154.46875 212.56152344 C-153.50904297 212.48289063 -152.54933594 212.40425781 -151.56054688 212.32324219 C-150.58150391 212.236875 -149.60246094 212.15050781 -148.59375 212.06152344 C-146.18735709 211.8502304 -143.78058075 211.64603456 -141.37304688 211.44824219 C-141.87006104 210.32893311 -142.3670752 209.20962402 -142.87915039 208.05639648 C-152.32236391 186.78027811 -161.71616919 165.48734358 -170.82641602 144.06616211 C-171.12112793 143.37406647 -171.41583984 142.68197083 -171.71948242 141.96890259 C-172.50455637 140.12414326 -173.28763895 138.27853681 -174.07055664 136.43286133 C-175.26024855 133.58506235 -175.26024855 133.58506235 -176.43994141 131.50114441 C-179.74299866 124.23416999 -176.63843289 113.36816118 -175.65820312 105.74511719 C-175.48080395 104.33511705 -175.3038454 102.92506142 -175.12730408 101.51495361 C-174.75825155 98.57626187 -174.38560376 95.63805804 -174.01000977 92.70019531 C-173.52970002 88.94285621 -173.05586814 85.18473742 -172.58438969 81.42628098 C-172.13216005 77.82393099 -171.67647367 74.22202055 -171.22070312 70.62011719 C-171.13478472 69.93841209 -171.04886631 69.256707 -170.96034431 68.55434418 C-170.71579562 66.61866859 -170.46842968 64.68334956 -170.22094727 62.74804688 C-170.08104874 61.64934265 -169.94115021 60.55063843 -169.79701233 59.41864014 C-169.41395151 56.7348293 -168.93571759 54.09950741 -168.37304688 51.44824219 C-165.88867188 50.59667969 -165.88867188 50.59667969 -162.37304688 50.44824219 C-159.33624391 51.93530411 -156.77836484 53.99486504 -154.12304688 56.07324219 C-152.514017 57.28463824 -150.90463211 58.49556286 -149.29492188 59.70605469 C-148.47701172 60.3302832 -147.65910156 60.95451172 -146.81640625 61.59765625 C-143.05092622 64.44960855 -139.21180136 67.19620635 -135.37304688 69.94824219 C-133.88823246 71.01924784 -132.40385977 72.09086615 -130.91992188 73.16308594 C-130.17935547 73.69788574 -129.43878906 74.23268555 -128.67578125 74.78369141 C-126.26621426 76.52546704 -123.85853671 78.26983062 -121.45117188 80.01464844 C-120.64292969 80.59988281 -119.8346875 81.18511719 -119.00195312 81.78808594 C-117.46222916 82.90305847 -115.92312513 84.01888782 -114.38476562 85.13574219 C-113.68480469 85.64234375 -112.98484375 86.14894531 -112.26367188 86.67089844 C-111.65555664 87.11183838 -111.04744141 87.55277832 -110.42089844 88.00708008 C-108.26700266 89.57428348 -108.26700266 89.57428348 -105.36865234 91.13793945 C-101.56065448 94.0747841 -100.34197274 96.82507588 -98.55273438 101.19042969 C-98.21615311 101.96953201 -97.87957184 102.74863434 -97.53279114 103.55134583 C-96.42106697 106.13513806 -95.33486325 108.72888633 -94.24804688 111.32324219 C-93.46575841 113.15319988 -92.68162282 114.98236892 -91.89575195 116.81079102 C-90.23323928 120.68434587 -88.58003753 124.56169071 -86.93310547 128.44189453 C-83.1288663 137.38918117 -79.22726221 146.29407976 -75.33831787 155.20477295 C-73.23839955 160.02159539 -71.14775402 164.84243613 -69.05664062 169.66308594 C-66.44740425 175.67701421 -63.83372235 181.68892164 -61.20735168 187.69538879 C-59.96184283 190.54423917 -58.71885533 193.39418551 -57.47622681 196.24429321 C-56.91320029 197.5337341 -56.34891555 198.82262642 -55.78329468 200.1109314 C-55.02351094 201.8417401 -54.26843771 203.57461441 -53.51367188 205.30761719 C-53.09633789 206.26120117 -52.67900391 207.21478516 -52.24902344 208.19726562 C-51.37304688 210.44824219 -51.37304688 210.44824219 -51.37304688 212.44824219 C-48.40304688 212.44824219 -45.43304688 212.44824219 -42.37304688 212.44824219 C-42.16550781 211.42730469 -41.95796875 210.40636719 -41.74414062 209.35449219 C-36.71732229 185.35276934 -29.6156878 161.44579053 -19.43945312 139.10058594 C-18.18652725 136.46078394 -18.18652725 136.46078394 -18.37304688 133.44824219 C-20.14063551 132.03126251 -20.14063551 132.03126251 -22.43554688 130.76074219 C-32.15012963 124.5745692 -37.59468456 116.04090086 -40.07617188 104.91699219 C-42.29047311 86.50332927 -33.47108995 71.06092516 -23.68554688 56.32324219 C-16.57918791 45.58384008 -12.14816069 33.71475909 -12.43554688 20.74902344 C-12.45270752 19.90807129 -12.46986816 19.06711914 -12.48754883 18.20068359 C-12.53527792 16.52362065 -12.60830688 14.84703765 -12.7097168 13.17236328 C-12.84500012 9.23086548 -12.7183546 6.21961253 -10.48632812 2.87402344 C-6.7022046 -0.07445926 -4.68225836 -0.2997893 0 0 Z " fill="#AFA7D3" transform="translate(196.373046875,14.5517578125)"/>
<path d="M0 0 C21.0118806 18.34422805 32.61407745 44.69239696 36 72 C36.08190394 74.34456981 36.0580643 76.6529798 36 79 C37.0355603 78.9685791 37.0355603 78.9685791 38.09204102 78.93652344 C41.24870993 78.85288905 44.40514502 78.80119047 47.5625 78.75 C48.64853516 78.71648437 49.73457031 78.68296875 50.85351562 78.6484375 C57.46267564 78.56808297 61.72359902 78.85994327 67 83 C69.69428006 86.7537644 69.34103944 91.05504277 69.37109375 95.4921875 C69.38012222 96.31574738 69.3891507 97.13930725 69.39845276 97.98782349 C69.41293874 99.72768529 69.42183789 101.46760136 69.42553711 103.20751953 C69.43742977 105.85933919 69.4866243 108.50882768 69.53710938 111.16015625 C69.5465749 112.85415536 69.55380932 114.5481687 69.55859375 116.2421875 C69.57812607 117.02987518 69.59765839 117.81756287 69.61778259 118.62911987 C69.58447963 122.7246394 69.20967519 125.2472576 66.59008789 128.48486328 C63.27895068 131.70018381 61.93366924 132.12463085 57.4758873 132.13422108 C56.51767161 132.13867892 55.55945592 132.14313676 54.5722034 132.14772969 C53.51211102 132.14754533 52.45201864 132.14736097 51.35980225 132.14717102 C50.23934989 132.15084771 49.11889754 132.1545244 47.96449208 132.1583125 C44.18433132 132.16938578 40.40419802 132.17319933 36.62402344 132.17700195 C33.92413597 132.18272958 31.22425266 132.18989725 28.52436829 132.19691467 C20.40349043 132.2166902 12.28261131 132.22674681 4.16171539 132.23564246 C0.33908435 132.2400237 -3.48354529 132.24539095 -7.30617523 132.25063133 C-20.0107914 132.26764493 -32.71540669 132.28213951 -45.4200325 132.28938007 C-48.71800996 132.29129002 -52.01598741 132.29321035 -55.31396484 132.29516602 C-56.13367904 132.29564976 -56.95339324 132.2961335 -57.79794726 132.2966319 C-71.07928843 132.30493368 -84.36053958 132.33027249 -97.64184144 132.36274669 C-111.27214513 132.39580298 -124.90240304 132.41382755 -138.53274703 132.41702431 C-146.18784525 132.41919078 -153.8428122 132.42795919 -161.4978714 132.45348549 C-168.01686156 132.47517303 -174.53568858 132.48325259 -181.05471072 132.47351871 C-184.38115905 132.46896812 -187.70699722 132.47307661 -191.03344536 132.49028015 C-194.63987263 132.50789074 -198.24544082 132.50094534 -201.85186768 132.48774719 C-202.90303717 132.49871644 -203.95420666 132.50968568 -205.03722978 132.52098733 C-211.01549461 132.46802803 -214.44279287 131.97787394 -219 128 C-222.25222592 124.00872948 -222.45448202 120.25939437 -222.43359375 115.28515625 C-222.4388356 114.5517955 -222.44407745 113.81843475 -222.44947815 113.06285095 C-222.45587947 111.51725526 -222.45458585 109.97161074 -222.44604492 108.42602539 C-222.43753738 106.07283982 -222.46631347 103.72208657 -222.49804688 101.36914062 C-222.4996593 99.86197989 -222.49908056 98.35481489 -222.49609375 96.84765625 C-222.51294472 95.80207298 -222.51294472 95.80207298 -222.53013611 94.73536682 C-222.44533725 88.7321265 -220.30919395 85.29261358 -216.12988281 81.14331055 C-213.27290386 79.60969839 -211.15424328 79.65949642 -207.921875 79.70703125 C-206.76171875 79.71669922 -205.6015625 79.72636719 -204.40625 79.73632812 C-202.59640625 79.7740332 -202.59640625 79.7740332 -200.75 79.8125 C-198.91695312 79.83280273 -198.91695312 79.83280273 -197.046875 79.85351562 C-194.03080502 79.8888602 -191.01562513 79.9382044 -188 80 C-188.02320313 78.69160156 -188.04640625 77.38320313 -188.0703125 76.03515625 C-188.03602071 46.77854015 -172.86310725 20.92376297 -152.69921875 0.69140625 C-109.51211273 -40.09248929 -43.73205176 -37.56255886 0 0 Z M-72 25 C-73.55016859 26.55016859 -73.34339608 28.17762437 -73.57250977 30.33276367 C-73.67253799 31.25429733 -73.77256622 32.17583099 -73.87562561 33.12528992 C-73.97983322 34.12937393 -74.08404083 35.13345795 -74.19140625 36.16796875 C-74.30097153 37.19553787 -74.4105368 38.22310699 -74.52342224 39.28181458 C-74.75496443 41.46312373 -74.98431423 43.64466653 -75.21166992 45.82641602 C-75.55925281 49.15639068 -75.91481332 52.48544103 -76.27148438 55.81445312 C-76.49527163 57.932241 -76.71859381 60.05007809 -76.94140625 62.16796875 C-77.04763809 63.16193161 -77.15386993 64.15589447 -77.26332092 65.17997742 C-77.36019699 66.11727188 -77.45707306 67.05456635 -77.55688477 68.02026367 C-77.64269302 68.83887375 -77.72850128 69.65748383 -77.81690979 70.50090027 C-78.02395804 73.32701652 -78 76.16630947 -78 79 C-58.86 79 -39.72 79 -20 79 C-21.62951403 61.07534571 -28.1492308 47.66152399 -42 36 C-50.47645414 29.82865353 -61.31647265 25 -72 25 Z " fill="#FED442" transform="translate(426,365)"/>
<path d="M0 0 C8.49888634 6.35677751 14.24980746 15.34729645 16.38671875 25.78515625 C17.28455796 37.13460256 15.25122965 47.09549368 12.26171875 57.97265625 C11.79452761 59.72663802 11.32928814 61.48114049 10.86572266 63.23608398 C9.75334865 67.43860118 8.63055128 71.63820163 7.50390625 75.83691406 C5.14354005 84.66446553 2.84140611 93.50705967 0.53896713 102.34986687 C-3.43284568 117.60345474 -7.4060554 132.85672294 -11.40287781 148.10377884 C-11.8588335 149.84458295 -12.31399011 151.58559657 -12.76832581 153.32682419 C-13.39506392 155.7282808 -14.02455956 158.12899767 -14.65478516 160.52954102 C-14.8396454 161.24034411 -15.02450565 161.95114721 -15.21496773 162.6834898 C-16.49910259 167.55679894 -16.49910259 167.55679894 -17.61328125 169.78515625 C-45.33328125 169.78515625 -73.05328125 169.78515625 -101.61328125 169.78515625 C-100.95572646 163.86716313 -100.24033503 158.61342447 -98.71826172 152.95703125 C-98.52733979 152.22689379 -98.33641787 151.49675632 -98.13971043 150.74449348 C-97.50929985 148.33975664 -96.86991266 145.9375053 -96.23046875 143.53515625 C-95.77873723 141.81890465 -95.32758372 140.10250082 -94.87696838 138.38595581 C-93.6709399 133.79830102 -92.45713914 129.21273858 -91.24140549 124.6276474 C-89.9829434 119.87787682 -88.73008301 115.12662929 -87.47680664 110.37548828 C-85.96493619 104.64498159 -84.45250559 98.91462666 -82.93696594 93.18508911 C-80.09939604 82.45305649 -77.28971007 71.71448323 -74.5231781 60.96392059 C-73.34744486 56.39912336 -72.16427823 51.8362432 -70.98272705 47.27294922 C-70.36680038 44.88524002 -69.75455036 42.49657905 -69.1461792 40.10693359 C-68.31069585 36.82769496 -67.4615934 33.55226626 -66.609375 30.27734375 C-66.37690567 29.34880585 -66.14443634 28.42026794 -65.90492249 27.46359253 C-62.26519875 13.64165688 -55.86154383 4.29721486 -43.61328125 -3.21484375 C-29.0878759 -10.25211841 -13.3877946 -8.55389702 0 0 Z " fill="#0E4A77" transform="translate(371.61328125,58.21484375)"/>
<path d="M0 0 C2.83203125 1.86328125 2.83203125 1.86328125 5.8125 4.3125 C6.95843762 5.23228989 8.10700741 6.14880742 9.2578125 7.0625 C10.16708496 7.78566406 10.16708496 7.78566406 11.09472656 8.5234375 C14.37780151 11.06777852 17.78200006 13.43594922 21.1875 15.8125 C28.03276933 20.60340977 34.82480539 25.461675 41.5847168 30.37231445 C42.27734619 30.874646 42.96997559 31.37697754 43.68359375 31.89453125 C44.38000977 32.41362061 45.07642578 32.93270996 45.79394531 33.4675293 C47.9863974 35.05534125 47.9863974 35.05534125 50.46386719 36.30786133 C59.84849491 41.64853822 62.50595367 50.5206451 66.375 60.0625 C67.13779642 61.87930423 67.90373673 63.69479126 68.67260742 65.5090332 C70.2962061 69.34805746 71.90505461 73.19280191 73.50439453 77.04199219 C77.23672319 85.99318803 81.14341705 94.86856734 85.03070068 103.75323486 C87.13529109 108.57101419 89.22519748 113.39515112 91.31640625 118.21875 C93.92148144 124.22463984 96.53379652 130.22717122 99.16569519 136.22135925 C100.41198132 139.06015316 101.65459431 141.9005468 102.89682007 144.74111938 C103.45917068 146.02402382 104.02343737 147.30609031 104.5897522 148.58724976 C105.35113561 150.30994063 106.10547706 152.0357389 106.859375 153.76171875 C107.27670898 154.71006592 107.69404297 155.65841309 108.12402344 156.63549805 C109 159 109 159 109 162 C79.63 162 50.26 162 20 162 C5.09929556 128.75996703 5.09929556 128.75996703 -1.3125 113.8125 C-2.27855091 111.56393746 -3.24529467 109.31568063 -4.21359253 107.06808472 C-4.84837753 105.59289261 -5.48101435 104.11677402 -6.11135864 102.63967896 C-7.76061139 98.79238843 -9.46600736 94.98320883 -11.25927734 91.20068359 C-11.63030075 90.40554855 -12.00132416 89.61041351 -12.3835907 88.79118347 C-13.09032815 87.28221521 -13.81041293 85.77939102 -14.54670715 84.28462219 C-19.05590973 74.58386117 -16.60740428 64.57972424 -15.28515625 54.296875 C-15.10775707 52.88687486 -14.93079853 51.47681923 -14.7542572 50.06671143 C-14.38520467 47.12801968 -14.01255688 44.18981586 -13.63696289 41.25195312 C-13.15665315 37.49461402 -12.68282127 33.73649524 -12.21134281 29.97803879 C-11.75911318 26.3756888 -11.30342679 22.77377837 -10.84765625 19.171875 C-10.76173784 18.49016991 -10.67581944 17.80846481 -10.58729744 17.10610199 C-10.34274874 15.1704264 -10.09538281 13.23510738 -9.84790039 11.29980469 C-9.6380526 9.65174835 -9.6380526 9.65174835 -9.42396545 7.97039795 C-8.62407396 2.3661771 -8.62407396 2.3661771 -8 0 C-5.00843426 -1.49578287 -3.20500031 -0.82348018 0 0 Z " fill="#E24067" transform="translate(36,66)"/>
<path d="M0 0 C2.80568007 0.35299229 3.80381345 0.76935446 5.66796875 2.9609375 C6.16941406 3.75757813 6.67085938 4.55421875 7.1875 5.375 C7.69667969 6.16648438 8.20585937 6.95796875 8.73046875 7.7734375 C12.0597432 13.61247269 11.90353107 20.93411016 10.46875 27.390625 C7.72624953 35.20078937 3.07799296 39.22119472 -4 43 C-7.17546656 44.05848885 -9.42416542 44.12959163 -12.76043797 44.13701439 C-13.96898239 44.14208893 -15.17752681 44.14716347 -16.42269379 44.15239179 C-17.77077389 44.15299348 -19.11885403 44.15349256 -20.4669342 44.15390015 C-21.89370339 44.15791457 -23.32047143 44.16235276 -24.7472381 44.1671797 C-28.67749921 44.17915356 -32.60774805 44.18479554 -36.53802383 44.18936086 C-40.77338396 44.19531395 -45.00872938 44.2069246 -49.24407959 44.21765137 C-59.47803702 44.24218324 -69.71199933 44.25680427 -79.94597712 44.26971143 C-82.83635189 44.27342298 -85.72672618 44.27739625 -88.61710048 44.2814641 C-106.56400147 44.30670171 -124.51090321 44.32875596 -142.45781803 44.34119225 C-146.61567754 44.34412197 -150.77353703 44.34708363 -154.93139648 44.35009766 C-155.9648202 44.35084371 -156.99824392 44.35158976 -158.06298351 44.35235842 C-174.80115937 44.36501008 -191.53922895 44.39823001 -208.27735514 44.43989949 C-225.46046768 44.48232617 -242.64352583 44.50588819 -259.82669061 44.51111281 C-269.47500293 44.51452624 -279.12314922 44.52627328 -288.77140999 44.55921555 C-296.98913979 44.58722738 -305.20666953 44.59821044 -313.42444337 44.58702008 C-317.61613954 44.58183619 -321.80741683 44.58470234 -325.99905205 44.60948563 C-329.84055218 44.63200871 -333.68133328 44.63121516 -337.52284627 44.61228175 C-339.56229972 44.60816691 -341.60175773 44.62860488 -343.64110237 44.65006864 C-351.41654561 44.58306373 -357.58404053 43.6362481 -364 39 C-368.70934552 34.03440639 -371.89702672 29.14068506 -372.125 22.1875 C-372.063125 20.6096875 -372.063125 20.6096875 -372 19 C-366.25 20.875 -366.25 20.875 -364 22 C-362.13332583 22.09817307 -360.26309582 22.13101208 -358.3938446 22.13422108 C-356.59446473 22.14090784 -356.59446473 22.14090784 -354.75873375 22.14772969 C-353.41557184 22.14764039 -352.07240993 22.14745052 -350.72924805 22.14717102 C-349.31159171 22.15046875 -347.89393631 22.15419412 -346.47628212 22.1583125 C-342.56656257 22.16835147 -338.65685838 22.17205235 -334.74712777 22.17470181 C-330.53561005 22.1785994 -326.32410455 22.18817828 -322.1125946 22.19691467 C-311.9330925 22.21669727 -301.75358937 22.22674876 -291.57407284 22.23564246 C-286.78166069 22.24002349 -281.98924965 22.24539088 -277.19683838 22.25063133 C-261.26676666 22.26764741 -245.33669563 22.28214091 -229.40661621 22.28938007 C-225.27058918 22.29129002 -221.13456216 22.29321034 -216.99853516 22.29516602 C-215.97052717 22.29564976 -214.94251918 22.2961335 -213.88335943 22.2966319 C-197.23566891 22.30492958 -180.58805031 22.33026039 -163.94039118 22.36274669 C-146.85223061 22.39582085 -129.76410656 22.41382926 -112.67591381 22.41702431 C-103.08015169 22.41918937 -93.48449436 22.42793701 -83.88876343 22.45348549 C-75.71494387 22.47519756 -67.54125453 22.48324051 -59.36740941 22.47351871 C-55.19805622 22.46897512 -51.02897169 22.47086342 -46.85965538 22.49028015 C-43.03855224 22.50792114 -39.21791355 22.50690679 -35.39680541 22.49138286 C-33.36825378 22.48788784 -31.33969723 22.50402628 -29.31121349 22.52098733 C-21.25195069 22.46432319 -13.26827322 21.92212684 -7.06361961 16.22065526 C-2.48111171 11.17792219 -0.78336941 6.78920157 0 0 Z " fill="#9A95C4" transform="translate(389,233)"/>
<path d="M0 0 C4.33324999 0.73939098 7.97784928 2.33930808 11.87695312 4.32324219 C12.69470215 4.72599365 13.51245117 5.12874512 14.35498047 5.54370117 C22.03429665 9.4403876 28.89837111 14.09853949 35.62695312 19.44824219 C36.46613281 20.104375 37.3053125 20.76050781 38.16992188 21.43652344 C52.7106952 33.5246362 61.6679096 50.94918778 64.62695312 69.44824219 C64.77503418 70.26728027 64.92311523 71.08631836 65.07568359 71.93017578 C66.03010959 77.78803431 66.90091358 83.81482461 64.62695312 89.44824219 C59.8837469 94.80593084 53.12145277 97.73505204 46.62695312 100.44824219 C45.67046875 100.86074219 44.71398437 101.27324219 43.72851562 101.69824219 C40.80891982 102.74017972 38.70903669 102.82564018 35.62695312 102.44824219 C26.5300952 97.62133798 23.64227652 90.74956018 20.56445312 81.44824219 C17.29196751 70.85912229 17.29196751 70.85912229 10.23632812 62.60839844 C5.43568932 60.47398268 0.75725928 60.65442244 -4.37304688 61.44824219 C-7.81492801 62.95890706 -10.49828602 65.04839789 -13.37304688 67.44824219 C-15.10137674 68.84511153 -16.83056068 70.2409247 -18.56054688 71.63574219 C-19.39457031 72.30992188 -20.22859375 72.98410156 -21.08789062 73.67871094 C-25.84733895 77.36423246 -29.33631107 78.8794376 -35.37304688 78.44824219 C-34.08376028 74.19045181 -32.46179301 70.57879349 -30.18554688 66.76074219 C-29.25548828 65.19066406 -29.25548828 65.19066406 -28.30664062 63.58886719 C-26.51671081 60.68158724 -24.64443944 57.84910655 -22.74804688 55.01074219 C-16.14633581 44.70020468 -12.16325366 33.03382344 -12.43554688 20.74902344 C-12.45270752 19.90807129 -12.46986816 19.06711914 -12.48754883 18.20068359 C-12.53527792 16.52362065 -12.60830688 14.84703765 -12.7097168 13.17236328 C-12.84500012 9.23086548 -12.7183546 6.21961253 -10.48632812 2.87402344 C-6.7022046 -0.07445926 -4.68225836 -0.2997893 0 0 Z " fill="#F24C6E" transform="translate(196.373046875,14.5517578125)"/>
<path d="M0 0 C6.63849036 6.47657596 9.15489623 14.48960289 11.79101562 23.16601562 C13.86451726 29.55240066 16.58161322 35.24051427 22.63061523 38.67382812 C26.35446965 40.26633708 29.74706919 39.57716472 33.5625 38.5 C36.71573401 36.91716769 39.6806982 35.15284017 42.67578125 33.2890625 C46.20498969 31.10181289 49.82344551 29.29762235 53.5625 27.5 C53.95041124 41.44928811 50.1682004 54.02366867 40.75390625 64.515625 C27.49011607 77.20033078 11.40687579 78.16943211 -5.94140625 77.875 C-20.31962148 77.29263341 -32.41647161 72.18770943 -42.3125 61.5625 C-49.25906499 53.06317342 -52.20738856 43.47712079 -51.4375 32.5 C-50.92932957 29.61905448 -50.21041789 26.82010583 -49.4375 24 C-49.24671875 23.27296875 -49.0559375 22.5459375 -48.859375 21.796875 C-48.39412755 20.02893469 -47.91706407 18.26411067 -47.4375 16.5 C-46.138125 16.29375 -44.83875 16.0875 -43.5 15.875 C-34.83823909 13.9261038 -28.38006693 7.78561117 -21.69921875 2.234375 C-15.2812038 -2.68721159 -7.43749744 -3.24545343 0 0 Z " fill="#DEE6F2" transform="translate(207.4375,76.5)"/>
<path d="M0 0 C3.70081403 0.48694921 7.03349687 1.33838788 10.546875 2.546875 C16.77520403 4.46436057 22.78272585 4.36812373 29.25 4.25 C30.3946875 4.24484375 31.539375 4.2396875 32.71875 4.234375 C37.93984209 4.1858067 42.85516413 3.95331344 48 3 C54.63838521 28.10455319 55.5464187 52.83553654 57 79 C29.94 79 2.88 79 -25 79 C-20.05892215 51.82407185 -11.75636772 25.02480846 0 0 Z " fill="#00CC99" transform="translate(179,149)"/>
<path d="M0 0 C8.49616511 6.35474215 14.25501677 15.34825337 16.38671875 25.78515625 C17.24579571 36.93995373 15.39948968 46.55284713 12.38671875 57.22265625 C11.9995769 58.64731877 11.61415181 60.07244896 11.23046875 61.49804688 C10.30217602 64.93267389 9.35118015 68.36048463 8.38671875 71.78515625 C-1.54081515 70.48458403 -11.0446064 67.92388128 -20.67526245 65.27459717 C-25.22044452 64.02427347 -29.77046329 62.79180594 -34.3203125 61.55859375 C-35.21101944 61.31674347 -36.10172638 61.07489319 -37.01942444 60.82571411 C-45.31260546 58.58069564 -53.63570894 56.47382937 -61.98535156 54.44824219 C-63.28424316 54.13161621 -63.28424316 54.13161621 -64.609375 53.80859375 C-65.71043579 53.5444165 -65.71043579 53.5444165 -66.83374023 53.27490234 C-68.61328125 52.78515625 -68.61328125 52.78515625 -70.61328125 51.78515625 C-70.00385116 44.75494487 -68.6463574 38.16927333 -66.86328125 31.34765625 C-66.62351562 30.37505859 -66.38375 29.40246094 -66.13671875 28.40039062 C-62.44213856 14.14578614 -56.28372565 4.55614584 -43.61328125 -3.21484375 C-29.0878759 -10.25211841 -13.3877946 -8.55389702 0 0 Z " fill="#2CCCF4" transform="translate(371.61328125,58.21484375)"/>
<path d="M0 0 C18.18857902 15.87937071 32.31542762 40.79994176 35 65 C35.13626611 68.67448619 35.12574066 72.32557849 35 76 C34.01 76 33.02 76 32 76 C31.6596875 74.87464844 31.319375 73.74929688 30.96875 72.58984375 C21.78708173 43.14462721 3.52115299 18.83339781 -23.87011719 3.98632812 C-48.87008474 -8.97661801 -80.89404858 -13.08494113 -108.03857422 -4.65039062 C-137.43491729 5.09716451 -161.37690356 24.14137119 -175.91796875 51.6015625 C-179.77702842 59.38463096 -182.38839079 67.73266846 -185 76 C-185.99 76 -186.98 76 -188 76 C-186.99919976 46.77663294 -173.69609818 20.44616588 -152.50732422 0.60205078 C-108.53043203 -39.45740133 -44.21861351 -37.98047897 0 0 Z " fill="#E5C03D" transform="translate(426,365)"/>
<path d="M0 0 C-0.14026283 2.31284456 -0.28735558 4.62527591 -0.4375 6.9375 C-0.55931641 8.86916016 -0.55931641 8.86916016 -0.68359375 10.83984375 C-1 14 -1 14 -2 15 C-4.89898994 15.18965355 -7.78531604 15.3277221 -10.6875 15.4375 C-44.26634163 17.02918159 -73.44826486 29.44321753 -96.2421875 54.4609375 C-113.26288134 74.92550714 -120.54933846 97.94559832 -123 124 C-123.76143311 124.0093457 -124.52286621 124.01869141 -125.30737305 124.02832031 C-128.7680662 124.08210937 -132.22742018 124.16574184 -135.6875 124.25 C-136.88568359 124.26417969 -138.08386719 124.27835937 -139.31835938 124.29296875 C-140.47529297 124.32519531 -141.63222656 124.35742188 -142.82421875 124.390625 C-143.88729248 124.41157227 -144.95036621 124.43251953 -146.0456543 124.45410156 C-150.33467497 125.24661873 -152.75015573 127.28329519 -155.29150391 130.77392578 C-156.32787883 134.03018581 -156.32524298 137.23321966 -156.3359375 140.6171875 C-156.3425943 141.3519632 -156.3492511 142.08673889 -156.35610962 142.84378052 C-156.36621448 144.39534002 -156.37092731 145.94694279 -156.37060547 147.49853516 C-156.37497307 149.86043709 -156.41129571 152.22046037 -156.44921875 154.58203125 C-156.45508874 156.09374365 -156.45905691 157.60546487 -156.4609375 159.1171875 C-156.47530853 159.81738007 -156.48967957 160.51757263 -156.50448608 161.23898315 C-156.45784757 166.29708652 -155.19483217 169.12392202 -152 173 C-150.68 173.99 -149.36 174.98 -148 176 C-154.93 176 -161.86 176 -169 176 C-172.37586932 168.12297159 -172.37586932 168.12297159 -172.38818359 164.9675293 C-172.39764008 164.25956711 -172.40709656 163.55160492 -172.4168396 162.82218933 C-172.41076691 162.08035904 -172.40469421 161.33852875 -172.3984375 160.57421875 C-172.40130768 159.78658646 -172.40417786 158.99895416 -172.40713501 158.18745422 C-172.40916584 156.52934038 -172.40370497 154.87120204 -172.39111328 153.21313477 C-172.37510962 150.70468164 -172.39096118 148.19785537 -172.41015625 145.68945312 C-172.42809284 133.62165583 -171.92340894 124.01592903 -163.19140625 114.9140625 C-157.07162124 109.56879574 -150.74533069 107.85059423 -142.75 107.9375 C-141.67234375 107.94652344 -140.5946875 107.95554687 -139.484375 107.96484375 C-138.66453125 107.97644531 -137.8446875 107.98804688 -137 108 C-136.896875 106.741875 -136.79375 105.48375 -136.6875 104.1875 C-133.20943766 73.64725395 -113.61979981 44.889177 -90 26 C-75.79368542 15.27156213 -60.2388508 7.85318909 -42.99072266 3.50390625 C-41.15738992 3.03983969 -39.33390956 2.53730075 -37.51171875 2.03125 C-25.19886444 -0.98072795 -12.58913104 -0.278932 0 0 Z " fill="#9E97BE" transform="translate(361,321)"/>
<path d="M0 0 C2.83203125 1.86328125 2.83203125 1.86328125 5.8125 4.3125 C6.95843762 5.23228989 8.10700741 6.14880742 9.2578125 7.0625 C10.16708496 7.78566406 10.16708496 7.78566406 11.09472656 8.5234375 C14.37780151 11.06777852 17.78200006 13.43594922 21.1875 15.8125 C28.08034957 20.63671053 34.92936025 25.51610657 41.72094727 30.48217773 C45.77338016 33.43702998 49.88064413 36.19908029 54.125 38.875 C57.27456184 41.09822012 57.86511562 41.5447652 59 45.375 C56.07977355 55.96082087 48.429044 61.7366037 39.20898438 67.02783203 C31.71745556 71.16450955 23.99198491 74.55571746 15.9375 77.4375 C15.24769043 77.6845166 14.55788086 77.9315332 13.84716797 78.18603516 C5.70929499 80.96332433 -4.95451015 83.26532197 -13.0625 79.625 C-15 78 -15 78 -17 76 C-17.52868127 62.88922272 -14.63786404 49.17540717 -12.98876953 36.21728516 C-12.49680406 32.34987627 -12.01156379 28.48166681 -11.52734375 24.61328125 C-11.21653407 22.1457844 -10.90534975 19.6783347 -10.59375 17.2109375 C-10.44893188 16.0588681 -10.30411377 14.90679871 -10.15490723 13.71981812 C-9.94964417 12.1112645 -9.94964417 12.1112645 -9.74023438 10.47021484 C-9.62111694 9.53172699 -9.50199951 8.59323914 -9.37927246 7.62631226 C-8.62333414 2.39173744 -8.62333414 2.39173744 -8 0 C-5.00843426 -1.49578287 -3.20500031 -0.82348018 0 0 Z " fill="#FED442" transform="translate(36,66)"/>
<path d="M0 0 C-1.98 18.15 -3.96 36.3 -6 55 C-24.15 55 -42.3 55 -61 55 C-61 39.41754299 -55.97585927 27.17775599 -45.25 15.75 C-31.69854752 3.03088242 -18.69174959 0 0 0 Z " fill="#AFA7D2" transform="translate(354,390)"/>
<path d="M0 0 C5.8022175 -0.36263859 9.63999211 0.74315457 15 3 C13.40808219 13.55669413 10.55664166 23.80419449 7.84375 34.11328125 C7.33543375 36.05608906 6.82742298 37.99897681 6.31970215 39.94194031 C5.25977866 43.99459646 4.19712922 48.04652414 3.13232422 52.09790039 C1.7696992 57.2827738 0.41248783 62.4690449 -0.94287872 67.65581989 C-1.98958567 71.65999293 -3.03840466 75.66361022 -4.0879364 79.66704369 C-4.58916461 81.57943402 -5.0899124 83.49195034 -5.59016418 85.40459633 C-6.28919819 88.07536341 -6.99089413 90.74541685 -7.69335938 93.4152832 C-7.89809372 94.19929504 -8.10282806 94.98330688 -8.31376648 95.79107666 C-8.50715103 96.52387344 -8.70053558 97.25667023 -8.89978027 98.01167297 C-9.06494896 98.64079747 -9.23011765 99.26992197 -9.40029144 99.91811085 C-10.18362199 102.63744402 -11.10510449 105.31531348 -12 108 C-17.28 108 -22.56 108 -28 108 C-25.05110401 95.26386843 -21.88814371 82.5971975 -18.61328125 69.94140625 C-18.10563359 67.97511698 -17.59808231 66.00880282 -17.09062195 64.04246521 C-16.03713671 59.9621578 -14.98230462 55.88220162 -13.92651367 51.80249023 C-12.57194923 46.56770372 -11.22115483 41.33195249 -9.87136555 36.09593296 C-8.82896234 32.05420321 -7.78445387 28.01301986 -6.73930931 23.97199821 C-6.23983152 22.03960881 -5.74105003 20.1070393 -5.24297523 18.1742878 C-4.55127619 15.49135811 -3.85671448 12.8091859 -3.16137695 10.12719727 C-2.95618942 9.32887985 -2.75100189 8.53056244 -2.53959656 7.70805359 C-1.11423577 2.22847154 -1.11423577 2.22847154 0 0 Z " fill="#073D6F" transform="translate(332,119)"/>
<path d="M0 0 C0.589021 1.39738403 0.589021 1.39738403 1.18994141 2.82299805 C2.67504698 6.34459956 4.163055 9.86496892 5.65185547 13.38500977 C6.29064435 14.89640413 6.92868972 16.408113 7.56591797 17.92016602 C11.08635944 26.27220551 14.68248402 34.56701132 18.51708984 42.78100586 C21.28370906 48.7865828 23.88246475 54.86590563 26.5 60.9375 C27.04803635 62.20513898 27.5962132 63.47271722 28.14453125 64.74023438 C29.22651947 67.24223159 30.30567827 69.7454213 31.3828125 72.24951172 C32.49450555 74.83285766 33.61561024 77.4118814 34.7421875 79.98876953 C35.29689243 81.26464086 35.85158055 82.5405195 36.40625 83.81640625 C36.90447266 84.9566626 37.40269531 86.09691895 37.91601562 87.27172852 C39 90 39 90 39 92 C33.39 92 27.78 92 22 92 C16.75691275 79.99661971 11.52199787 67.9897136 6.29614258 55.9788208 C5.42181462 53.9694228 4.54729864 51.9601066 3.67260742 49.9508667 C1.01640209 43.8488158 -1.63569589 37.74500769 -4.28231812 31.63879395 C-5.1363664 29.66989597 -5.99169487 27.70155282 -6.84829712 25.73376465 C-8.04944554 22.97372858 -9.24599617 20.21174404 -10.44140625 17.44921875 C-10.80308899 16.62078964 -11.16477173 15.79236053 -11.53741455 14.93882751 C-14 9.22827118 -14 9.22827118 -14 7 C-14.99 6.67 -15.98 6.34 -17 6 C-14.5433053 4.99580363 -12.08481647 3.99649499 -9.625 3 C-8.92632812 2.71382812 -8.22765625 2.42765625 -7.5078125 2.1328125 C-2.2265625 0 -2.2265625 0 0 0 Z " fill="#F24C6D" transform="translate(70,136)"/>
<path d="M0 0 C2.35399976 2.36191873 2.96384381 3.67892262 3.34057617 7.02441406 C3.32486572 8.17651367 3.30915527 9.32861328 3.29296875 10.515625 C3.28330078 11.76601563 3.27363281 13.01640625 3.26367188 14.3046875 C3.23853516 15.60664063 3.21339844 16.90859375 3.1875 18.25 C3.16719727 20.22613281 3.16719727 20.22613281 3.14648438 22.2421875 C3.11112809 25.494966 3.05732152 28.74753443 3 32 C-2.28 32 -7.56 32 -13 32 C-13.10786127 27.43686907 -13.18726757 22.87628403 -13.25 18.3125 C-13.28351563 17.01892578 -13.31703125 15.72535156 -13.3515625 14.39257812 C-13.36445313 13.14541016 -13.37734375 11.89824219 -13.390625 10.61328125 C-13.41157227 9.46641846 -13.43251953 8.31955566 -13.45410156 7.13793945 C-12.90097729 3.31573181 -11.71594191 1.69846914 -9 -1 C-5.15941827 -2.28019391 -3.6601592 -1.60131965 0 0 Z " fill="#F2C538" transform="translate(362,465)"/>
<path d="M0 0 C3.5 1.1875 3.5 1.1875 5.5 3.1875 C5.72705078 6.16845703 5.72705078 6.16845703 5.6953125 9.9453125 C5.6924826 10.60836395 5.68965271 11.27141541 5.68673706 11.95455933 C5.67553435 14.07405583 5.65043051 16.19313104 5.625 18.3125 C5.61497028 19.74869182 5.60584441 21.18489025 5.59765625 22.62109375 C5.57729539 26.14352238 5.5381494 29.66503917 5.5 33.1875 C0.55 33.1875 -4.4 33.1875 -9.5 33.1875 C-9.59198433 29.12996917 -9.67156595 25.07510335 -9.71972656 21.01708984 C-9.73980642 19.6377332 -9.76707666 18.25846131 -9.80175781 16.87939453 C-9.85042817 14.89393021 -9.87086418 12.90783746 -9.890625 10.921875 C-9.91157227 9.72788086 -9.93251953 8.53388672 -9.95410156 7.30371094 C-9.41085766 3.57577265 -8.42394393 2.47255334 -5.5 0.1875 C-3.5 -0.8125 -3.5 -0.8125 0 0 Z " fill="#F2C538" transform="translate(256.5,463.8125)"/>
<path d="M0 0 C3.5 1.25 3.5 1.25 5.5 4.25 C5.72705078 7.25268555 5.72705078 7.25268555 5.6953125 10.88671875 C5.68564453 12.83481445 5.68564453 12.83481445 5.67578125 14.82226562 C5.6590706 16.19401307 5.64214071 17.56575786 5.625 18.9375 C5.61496674 20.32095718 5.60584149 21.70442127 5.59765625 23.08789062 C5.57405037 26.47533457 5.53817883 29.86268895 5.5 33.25 C0.55 33.25 -4.4 33.25 -9.5 33.25 C-9.59198433 29.19246917 -9.67156595 25.13760335 -9.71972656 21.07958984 C-9.73980642 19.7002332 -9.76707666 18.32096131 -9.80175781 16.94189453 C-9.85042817 14.95643021 -9.87086418 12.97033746 -9.890625 10.984375 C-9.91157227 9.79038086 -9.93251953 8.59638672 -9.95410156 7.36621094 C-9.41085766 3.63827265 -8.42394393 2.53505334 -5.5 0.25 C-3.5 -0.75 -3.5 -0.75 0 0 Z " fill="#F2C538" transform="translate(461.5,463.75)"/>
<path d="M0 0 C2.14453125 1.41015625 2.14453125 1.41015625 4 4 C4.49828682 7.42795488 4.37579806 10.79539175 4.25 14.25 C4.23195313 15.18585938 4.21390625 16.12171875 4.1953125 17.0859375 C4.14826909 19.39106438 4.07652778 21.69566354 4 24 C-0.95 24 -5.9 24 -11 24 C-11.08078777 20.56203163 -11.14039791 17.12595273 -11.1875 13.6875 C-11.21263672 12.71103516 -11.23777344 11.73457031 -11.26367188 10.72851562 C-11.27333984 9.79072266 -11.28300781 8.85292969 -11.29296875 7.88671875 C-11.3086792 7.02264404 -11.32438965 6.15856934 -11.34057617 5.26831055 C-10.92385564 2.49286222 -10.21724623 1.66982607 -8 0 C-4.61786861 -1.12737713 -3.35228621 -1.06292002 0 0 Z " fill="#F2C538" transform="translate(412,473)"/>
<path d="M0 0 C2.22103345 1.66097224 2.92434386 2.49611387 3.34057617 5.26831055 C3.32486572 6.13238525 3.30915527 6.99645996 3.29296875 7.88671875 C3.28330078 8.82451172 3.27363281 9.76230469 3.26367188 10.72851562 C3.23853516 11.70498047 3.21339844 12.68144531 3.1875 13.6875 C3.17396484 14.67556641 3.16042969 15.66363281 3.14648438 16.68164062 C3.11112661 19.12132617 3.05731962 21.56073163 3 24 C-1.95 24 -6.9 24 -12 24 C-12.05399244 20.91643195 -12.09366955 17.83381112 -12.125 14.75 C-12.14175781 13.87730469 -12.15851563 13.00460937 -12.17578125 12.10546875 C-12.18222656 11.26113281 -12.18867188 10.41679687 -12.1953125 9.546875 C-12.20578613 8.77182617 -12.21625977 7.99677734 -12.22705078 7.19824219 C-11.96958943 4.70557335 -11.3002152 3.13057071 -10 1 C-6.61147003 -1.54139747 -3.96754849 -1.09740703 0 0 Z " fill="#F2C538" transform="translate(310,473)"/>
<path d="M0 0 C2.9921875 1.84765625 2.9921875 1.84765625 5.875 4.0625 C6.84179688 4.79597656 7.80859375 5.52945313 8.8046875 6.28515625 C9.52914062 6.85105469 10.25359375 7.41695312 11 8 C10.3032644 11.85253801 8.79141446 13.48332019 5.66796875 15.89453125 C0.63116577 19.23274025 -4.18764353 19.20042609 -10 19 C-9.85820962 16.77057252 -9.71140302 14.54146372 -9.5625 12.3125 C-9.48128906 11.07113281 -9.40007813 9.82976562 -9.31640625 8.55078125 C-9.05374795 5.60317138 -8.79781018 2.84781249 -8 0 C-5.01634724 -1.49182638 -3.20025176 -0.80584653 0 0 Z " fill="#1B5173" transform="translate(36,66)"/>
</svg>
