<?xml version="1.0" encoding="UTF-8"?>
<svg version="1.1" xmlns="http://www.w3.org/2000/svg" width="512" height="512">
<path d="M0 0 C0.99660645 0.19335938 1.99321289 0.38671875 3.02001953 0.5859375 C49.47365335 9.76476193 92.27640218 30.69306284 127 63 C128.39160821 64.2131969 129.78727188 65.42176214 131.1875 66.625 C137.65718811 72.27623359 143.48510243 78.41972449 149 85 C149.42410156 85.50499023 149.84820312 86.00998047 150.28515625 86.53027344 C162.55286827 101.23273332 173.13262709 117.02708256 182 134 C182.59095459 135.11689209 182.59095459 135.11689209 183.19384766 136.25634766 C194.72239556 158.31274906 202.50044698 182.55056543 207 207 C207.16081055 207.80066895 207.32162109 208.60133789 207.48730469 209.42626953 C212.9794441 237.50412453 212.73396692 270.98977935 207 299 C206.80664062 299.99660645 206.61328125 300.99321289 206.4140625 302.02001953 C198.47427489 342.20294157 181.8327458 380.10665992 156 412 C155.29746094 412.89460938 154.59492188 413.78921875 153.87109375 414.7109375 C131.81362352 442.41479514 104.3006232 464.5476448 73 481 C72.25105469 481.39687012 71.50210937 481.79374023 70.73046875 482.20263672 C48.67880409 493.72673427 24.44303189 501.5016253 0 506 C-0.80066895 506.16081055 -1.60133789 506.32162109 -2.42626953 506.48730469 C-30.50412453 511.9794441 -63.98977935 511.73396692 -92 506 C-93.49490967 505.70996094 -93.49490967 505.70996094 -95.02001953 505.4140625 C-135.20294157 497.47427489 -173.10665992 480.8327458 -205 455 C-205.89460938 454.29746094 -206.78921875 453.59492188 -207.7109375 452.87109375 C-235.41479514 430.81362352 -257.5476448 403.3006232 -274 372 C-274.39687012 371.25105469 -274.79374023 370.50210937 -275.20263672 369.73046875 C-286.72673427 347.67880409 -294.5016253 323.44303189 -299 299 C-299.24121582 297.79899658 -299.24121582 297.79899658 -299.48730469 296.57373047 C-304.9794441 268.49587547 -304.73396692 235.01022065 -299 207 C-298.70996094 205.50509033 -298.70996094 205.50509033 -298.4140625 203.97998047 C-289.23478744 157.52406603 -268.30554139 114.72686402 -236 80 C-234.80778787 78.6290837 -233.62008001 77.25423376 -232.4375 75.875 C-226.41738238 69.00076958 -219.96227821 62.98465851 -212.828125 57.2734375 C-211.02615055 55.82488898 -209.24248128 54.35305078 -207.484375 52.8515625 C-194.55811998 41.86821084 -180.01113241 32.84245309 -165 25 C-164.25540527 24.60603027 -163.51081055 24.21206055 -162.74365234 23.80615234 C-140.68725094 12.27760444 -116.44943457 4.49955302 -92 0 C-91.19933105 -0.16081055 -90.39866211 -0.32162109 -89.57373047 -0.48730469 C-61.49587547 -5.9794441 -28.01022065 -5.73396692 0 0 Z " fill="#000000" transform="translate(302,3)"/>
<path d="M0 0 C1.3089624 -0.01283524 2.6179248 -0.02567047 3.96655273 -0.03889465 C5.4047813 -0.04706641 6.84301416 -0.0545093 8.28125 -0.0612793 C9.36854904 -0.06739259 9.36854904 -0.06739259 10.47781372 -0.07362938 C14.32130651 -0.09450606 18.16476353 -0.10879561 22.00830078 -0.11816406 C25.95792954 -0.12917651 29.90698678 -0.1635107 33.85641479 -0.20333576 C36.90900635 -0.22963943 39.96146527 -0.23786842 43.01416016 -0.24144554 C44.46846333 -0.2462834 45.92276171 -0.25781649 47.37695312 -0.27648354 C55.91963533 -0.37924505 63.08527838 0.15332973 70.78125 4.17700195 C71.67199219 4.63461914 72.56273437 5.09223633 73.48046875 5.5637207 C82.38945359 11.39219212 88.77632025 19.92129599 91.78125 30.17700195 C92.56472235 36.53597909 92.25588797 42.97504229 92.09375 49.36450195 C92.06861941 51.09689141 92.0458147 52.82931624 92.02539062 54.56176758 C91.97080906 58.76773346 91.88480655 62.97196857 91.78125 67.17700195 C92.6945105 67.14558105 92.6945105 67.14558105 93.6262207 67.11352539 C108.67119009 66.66378456 121.10832941 66.4954122 132.78125 77.17700195 C139.89896129 83.9380847 145.41951618 93.06766655 145.92842102 103.06942749 C145.93826523 104.19080109 145.94810944 105.31217468 145.95825195 106.4675293 C145.97750481 108.38134903 145.97750481 108.38134903 145.99714661 110.33383179 C146.00532086 111.72686368 146.01276327 113.11990002 146.01953125 114.51293945 C146.02360678 115.21994617 146.0276823 115.9269529 146.03188133 116.65538406 C146.05272668 120.40623935 146.06702834 124.15705836 146.07641602 127.90795898 C146.0874062 131.74504468 146.12172295 135.58153852 146.16158772 139.41841698 C146.18800617 142.39910807 146.19613046 145.37966438 146.19969749 148.36046219 C146.20450809 149.77238534 146.21595978 151.1843048 146.23473549 152.5961113 C146.44933028 169.81913981 142.15827517 185.19630957 130.27416992 197.90991211 C118.75826677 209.55298941 103.57602524 213.57562639 87.60362244 213.71911621 C85.62526146 213.70697083 85.62526146 213.70697083 83.60693359 213.69458008 C82.15784508 213.70001924 80.70876212 213.70715182 79.25968933 213.71582031 C75.37332337 213.73384075 71.48738868 213.72707665 67.60101652 213.71430397 C63.50586127 213.70406829 59.41073921 213.71359825 55.31558228 213.71984863 C48.44502229 213.72709301 41.57463521 213.71762058 34.70410156 213.69848633 C26.79285198 213.67670633 18.88201469 213.68378999 10.97077501 213.70579195 C4.14056635 213.72401733 -2.68951913 213.72647012 -9.51974428 213.71603727 C-13.58274671 213.70984357 -17.64555612 213.70885199 -21.70854568 213.72218323 C-25.52886952 213.73384657 -29.34866795 213.72552796 -33.16893578 213.7026062 C-34.55995377 213.69737519 -35.951017 213.69873502 -37.34201622 213.70765686 C-48.62737575 213.77329756 -59.62987491 212.2559639 -69.15625 205.73950195 C-69.99027344 205.18391602 -70.82429688 204.62833008 -71.68359375 204.0559082 C-82.47682439 196.05661092 -90.80646584 185.11031203 -93.74707031 171.7824707 C-94.42771246 166.57971542 -94.40185238 161.41520288 -94.421875 156.1730957 C-94.42757507 155.01705338 -94.43327515 153.86101105 -94.43914795 152.66993713 C-94.44857288 150.2316275 -94.45512194 147.79330526 -94.45898438 145.35498047 C-94.46872466 141.62420653 -94.49978643 137.8939757 -94.53125 134.16333008 C-94.53777724 131.79158855 -94.54302881 129.41984309 -94.546875 127.0480957 C-94.5592218 125.93341415 -94.5715686 124.8187326 -94.58428955 123.67027283 C-94.58128845 122.62891678 -94.57828735 121.58756073 -94.57519531 120.51464844 C-94.57884094 119.60230942 -94.58248657 118.6899704 -94.58624268 117.74998474 C-94.00670222 113.69235935 -92.20095953 111.04015578 -89.15625 108.36450195 C-83.92601634 106.25015218 -78.51148366 106.25015218 -73.28125 108.36450195 C-70.26619097 111.01409928 -68.44953107 113.31850579 -67.94042969 117.41833496 C-67.82478071 120.23197385 -67.80395714 123.03286615 -67.8125 125.84887695 C-67.80166382 126.88586731 -67.79082764 127.92285767 -67.77966309 128.99127197 C-67.74543498 132.30324529 -67.72982252 135.61487517 -67.71875 138.92700195 C-67.70411665 143.27628746 -67.67027907 147.62481428 -67.625 151.97387695 C-67.62802124 152.96168152 -67.63104248 153.94948608 -67.63415527 154.96722412 C-67.52913722 164.7738598 -65.22280529 173.08062475 -58.21875 180.17700195 C-50.51798128 185.68146184 -42.8083805 185.89686801 -33.64038086 185.82397461 C-32.19538781 185.8307633 -30.75040343 185.83967342 -29.30543518 185.8505249 C-25.4086342 185.87317478 -21.51250057 185.86454255 -17.61568904 185.84862947 C-13.52262987 185.83589803 -9.42962472 185.84773035 -5.33656311 185.8555603 C1.53362198 185.86463489 8.40353755 185.85272573 15.27368164 185.82885742 C23.19918621 185.80163932 31.12404771 185.81047377 39.04953676 185.83798945 C45.87450673 185.86072934 52.6992839 185.86385719 59.52427953 185.8507961 C63.59173867 185.84302967 67.65889617 185.84188224 71.72633553 185.85847855 C75.55079477 185.87299598 79.37443016 185.8627709 83.19880104 185.83400726 C84.59632758 185.8274354 85.99392431 185.82922693 87.39142227 185.84032059 C96.72508263 185.90754367 103.64727691 184.98764053 110.62324619 178.45101357 C118.31436831 170.49144132 118.23370882 161.26711602 118.1796875 150.7902832 C118.18171203 149.40121814 118.18462662 148.01215411 118.18838501 146.62309265 C118.19278618 143.72583804 118.18644629 140.82886258 118.17236328 137.93164062 C118.15522407 134.22610317 118.16515579 130.52121546 118.18308067 126.81570148 C118.19393765 123.95286691 118.19046431 121.09018569 118.1826973 118.22734642 C118.18070305 116.86105458 118.18312722 115.4947486 118.19013596 114.12847328 C118.19778647 112.21927801 118.18405084 110.31003355 118.16943359 108.40087891 C118.16585342 106.7749456 118.16585342 106.7749456 118.16220093 105.11616516 C117.72625622 101.75270666 116.78532787 99.89131959 114.78125 97.17700195 C109.96391443 93.93923784 105.52474212 93.65615214 99.90625 93.48950195 C99.1225 93.4553418 98.33875 93.42118164 97.53125 93.38598633 C95.61506252 93.30419784 93.69818285 93.23890736 91.78125 93.17700195 C91.80219727 94.17965088 91.82314453 95.1822998 91.84472656 96.21533203 C91.91789934 99.98552802 91.963326 103.75566319 92.00097656 107.52636719 C92.02091813 109.14887089 92.04808174 110.77130437 92.08300781 112.39355469 C92.38128657 126.6188197 90.81574763 137.31513559 80.78125 148.17700195 C72.54239408 156.70126859 61.87614314 160.17362996 50.18847656 160.4675293 C47.59899153 160.49413259 45.0113162 160.51010922 42.421875 160.51293945 C41.02715932 160.5193819 39.63244493 160.52611128 38.23773193 160.53311157 C35.32284417 160.54503612 32.40807447 160.5487975 29.49316406 160.54760742 C25.79046497 160.54740471 22.08853749 160.57467787 18.38602066 160.60915184 C15.50661872 160.63158665 12.62739749 160.63543992 9.74791718 160.63438797 C7.72969347 160.63784054 5.71152617 160.65939764 3.69342041 160.68148804 C-9.58432914 160.61636655 -20.33845825 157.24819894 -30.21875 148.17700195 C-39.58607065 137.23419045 -41.41772876 127.09836339 -41.53125 113.05200195 C-41.56025391 111.87895508 -41.58925781 110.7059082 -41.61914062 109.49731445 C-41.70775133 97.22813994 -38.26699037 87.50378153 -30.21875 78.17700195 C-21.76788579 70.30194813 -11.37775356 65.90930774 0.18530273 65.94995117 C0.888582 65.94965912 1.59186127 65.94936707 2.31645203 65.94906616 C4.61604623 65.95044749 6.91530691 65.96595139 9.21484375 65.98168945 C10.81909508 65.98542386 12.42334871 65.98826881 14.02760315 65.99026489 C18.23125608 65.99786773 22.43476881 66.01748711 26.6383667 66.03967285 C30.93532414 66.06020376 35.23230443 66.06928205 39.52929688 66.0793457 C47.94667862 66.10073645 56.36394682 66.13483153 64.78125 66.17700195 C64.73699362 61.71054088 64.66705533 57.24542768 64.57373047 52.77978516 C64.5455783 51.26199511 64.5243351 49.74406002 64.51025391 48.22607422 C64.48874277 46.03839175 64.44205772 43.8524423 64.390625 41.6652832 C64.36967773 40.35084229 64.34873047 39.03640137 64.32714844 37.68212891 C63.6932223 33.61179008 62.75093066 31.99335325 59.78125 29.17700195 C56.06756917 27.14355513 52.91706927 26.93433754 48.72509766 26.95336914 C46.9276561 26.95261383 46.9276561 26.95261383 45.09390259 26.95184326 C43.16410049 26.96274994 43.16410049 26.96274994 41.1953125 26.97387695 C39.85158751 26.97039469 38.50786601 26.96517882 37.16415405 26.95831299 C31.47488416 26.93043545 25.78596552 26.91780261 20.09667969 26.94702148 C16.60864746 26.96380817 13.12172285 26.95135094 9.63380051 26.92057037 C7.671345 26.91155399 5.70882582 26.9344321 3.74649048 26.95794678 C-2.9104793 26.88548497 -7.25682274 26.59868562 -12.07681274 21.75665283 C-14.54945104 18.33623264 -14.66449479 14.60893993 -14.64453125 10.53637695 C-13.90486227 6.43766077 -11.28676792 3.84760823 -8.21875 1.17700195 C-5.43031581 -0.21721514 -3.11986443 0.02657616 0 0 Z " fill="#FCFCFC" transform="translate(231.21875,176.822998046875)"/>
<path d="M0 0 C1.22785721 -0.00571014 2.45571442 -0.01142029 3.72077942 -0.01730347 C5.0736083 -0.01854868 6.42643729 -0.0196738 7.77926636 -0.02069092 C9.21041491 -0.02532265 10.64156223 -0.03034778 12.07270813 -0.03573608 C15.95525776 -0.04883057 19.83779012 -0.05529963 23.72035837 -0.05974674 C26.14986685 -0.0626831 28.57937067 -0.06678903 31.0088768 -0.07125092 C38.62120736 -0.08491998 46.2335272 -0.09458872 53.84586918 -0.09845281 C62.61233557 -0.10292796 71.3786456 -0.12045304 80.14506447 -0.1494534 C86.9342439 -0.17112743 93.72337952 -0.18116018 100.51259315 -0.18249393 C104.56114146 -0.18353815 108.60954269 -0.18936352 112.65805435 -0.20731354 C116.47155698 -0.22389283 120.28480353 -0.22590242 124.09832954 -0.21717453 C125.49019498 -0.21640931 126.88207475 -0.22067806 128.2739048 -0.23063278 C143.5319777 -0.33327305 159.8635762 3.46212589 171.31393433 14.36309814 C182.92231759 27.43689613 188.24568626 40.85870004 188.26705933 58.20294189 C188.29155151 59.2528833 188.3160437 60.30282471 188.34127808 61.38458252 C188.3658216 67.8845263 187.76512916 71.86159115 183.89205933 77.14044189 C180.14607609 80.5558972 176.21908197 80.70793884 171.33346558 80.56231689 C167.27579927 79.86115216 165.64466358 78.16830658 162.89205933 75.14044189 C160.91705478 71.95571532 160.64238022 69.50150342 160.61862183 65.78106689 C160.58768433 64.23032471 160.58768433 64.23032471 160.55612183 62.64825439 C160.53026844 60.49208233 160.51192728 58.33580592 160.50143433 56.17950439 C160.29309523 46.85054267 158.00769256 41.1638072 151.89205933 34.14044189 C143.47798316 28.18243969 135.43767638 27.27355689 125.37789917 27.37994385 C123.96378743 27.37343333 122.54968556 27.36436005 121.13560486 27.35295105 C117.33169619 27.33007317 113.52880387 27.34446528 109.72492933 27.36742043 C105.72444396 27.38648351 101.72402041 27.37515552 97.72351074 27.36851501 C91.01065112 27.36219575 84.29819383 27.38033608 77.5854187 27.41314697 C69.84618793 27.45066433 62.10771785 27.44884307 54.36844671 27.4261058 C46.8921898 27.40509562 39.41621165 27.41246345 31.93996048 27.43242455 C28.77188687 27.44037015 25.60405164 27.43846815 22.43598557 27.42840004 C18.70092641 27.41778244 14.96674539 27.43216303 11.23182487 27.4651432 C9.22286387 27.47714929 7.21380274 27.46489289 5.20484924 27.45169067 C-3.60963576 27.56432501 -10.60350849 29.01729809 -17.24952126 35.10074329 C-23.75500459 41.81009061 -25.56502774 49.05180253 -25.47683716 58.12335205 C-25.48060364 58.98295029 -25.48437012 59.84254852 -25.48825073 60.72819519 C-25.49464972 62.58056171 -25.49438486 64.43296112 -25.48806572 66.28532791 C-25.47890846 69.21986939 -25.48923072 72.15377839 -25.50468445 75.08828735 C-25.54466553 83.42630112 -25.5459831 91.76426222 -25.54373169 100.10235596 C-25.54368057 105.21454612 -25.56285119 110.32639217 -25.59306526 115.43848801 C-25.60387592 118.32468753 -25.59177182 121.21022687 -25.57923889 124.09640503 C-25.58814362 125.8697169 -25.59821811 127.64302342 -25.60964966 129.4163208 C-25.59990616 130.21439651 -25.59016266 131.01247223 -25.5801239 131.83473206 C-25.64703977 137.04379089 -26.66298111 140.00911794 -30.10794067 144.14044189 C-34.47349867 147.05081389 -37.90294146 147.7910668 -43.10794067 147.14044189 C-46.99418411 145.04784927 -49.95235945 143.00702408 -52.10794067 139.14044189 C-52.55907418 136.11157015 -52.52788771 133.10608148 -52.51199341 130.04840088 C-52.51885666 129.12914322 -52.52571991 128.20988556 -52.53279114 127.26277161 C-52.55110545 124.22053612 -52.5472125 121.17881451 -52.54153442 118.13653564 C-52.54609641 116.01625908 -52.55140204 113.895984 -52.55741882 111.77571106 C-52.56636084 107.32618212 -52.56391717 102.87683251 -52.5539856 98.42730713 C-52.54253812 92.74702736 -52.56263714 87.06737315 -52.59190273 81.38717556 C-52.61033002 77.00401418 -52.60995853 72.62100057 -52.60426521 68.23781013 C-52.60411256 66.14520457 -52.61011002 64.05258862 -52.62255669 61.96002007 C-52.72899682 41.11655103 -52.72899682 41.11655103 -48.10794067 32.14044189 C-47.72999863 31.34162094 -47.35205658 30.54279999 -46.96266174 29.71977234 C-40.21290478 15.84859339 -28.20707682 7.27922279 -14.08840942 2.08575439 C-9.30793933 0.56953714 -5.01532162 0.0140066 0 0 Z " fill="#FCFCFC" transform="translate(189.10794067382813,122.85955810546875)"/>
<path d="M0 0 C0.69337967 -0.00058411 1.38675934 -0.00116821 2.10115051 -0.00177002 C4.37411017 0.00099833 6.64572888 0.03202775 8.91845703 0.06347656 C10.50171187 0.07094348 12.084976 0.07663428 13.66824341 0.08062744 C17.82114494 0.09584852 21.97348062 0.13509911 26.12615967 0.17944336 C30.3693476 0.22047273 34.6126276 0.23865476 38.85595703 0.25878906 C47.17131992 0.3015975 55.4862242 0.36980518 63.80126953 0.45410156 C63.90065048 4.61663432 63.9729757 8.77852635 64.02099609 12.94189453 C64.04102796 14.35607951 64.06826201 15.77018253 64.10302734 17.18408203 C64.15192442 19.22481575 64.17432076 21.26444846 64.19189453 23.30566406 C64.22331543 25.14378662 64.22331543 25.14378662 64.25537109 27.01904297 C63.60656715 31.92693085 61.42033165 35.0312894 57.73876953 38.26660156 C54.154714 40.46328076 51.15614943 40.59226076 47.0480957 40.63110352 C45.27561714 40.65035637 45.27561714 40.65035637 43.46733093 40.66999817 C41.55015007 40.68107857 41.55015007 40.68107857 39.59423828 40.69238281 C37.62430656 40.70449043 37.62430656 40.70449043 35.61457825 40.71684265 C32.83297862 40.73185606 30.05140439 40.74170049 27.26977539 40.74926758 C23.71546968 40.76032501 20.16179124 40.79472228 16.60770702 40.83443928 C13.20740964 40.86694816 9.80717904 40.8713876 6.40673828 40.87988281 C5.1346904 40.8973909 3.86264252 40.91489899 2.55204773 40.93293762 C-8.5192995 40.90574449 -8.5192995 40.90574449 -13.19873047 36.45410156 C-16.02422863 33.49437546 -16.58125473 31.51827363 -16.59716797 27.46191406 C-16.60103516 26.50929688 -16.60490234 25.55667969 -16.60888672 24.57519531 C-16.59728516 23.58648437 -16.58568359 22.59777344 -16.57373047 21.57910156 C-16.58533203 20.598125 -16.59693359 19.61714844 -16.60888672 18.60644531 C-16.58703905 13.21007047 -16.47209595 8.97051722 -13.19873047 4.45410156 C-8.69259662 0.85148488 -5.73361641 -0.04080866 0 0 Z " fill="#010101" transform="translate(233.19873046875,269.5458984375)"/>
</svg>
