<?xml version="1.0" encoding="UTF-8"?>
<svg version="1.1" xmlns="http://www.w3.org/2000/svg" width="512" height="512">
<path d="M0 0 C5.43377825 3.21806285 10.49517629 8.07927886 12.51171875 14.12890625 C12.65819957 16.39654199 12.73268135 18.66922991 12.76171875 20.94140625 C12.7875 22.14410156 12.81328125 23.34679687 12.83984375 24.5859375 C12.2393064 31.07031099 9.23800331 34.86372263 4.51171875 39.12890625 C3.91359375 39.68578125 3.31546875 40.24265625 2.69921875 40.81640625 C-3.56245175 44.57340855 -9.56693921 44.35909092 -16.48828125 43.12890625 C-17.27460938 42.84273437 -18.0609375 42.5565625 -18.87109375 42.26171875 C-21.73896146 41.84608241 -21.73896146 41.84608241 -24.46875 44.234375 C-25.55469581 45.24380065 -26.62284482 46.27259433 -27.67578125 47.31640625 C-28.24530518 47.86449951 -28.8148291 48.41259277 -29.40161133 48.97729492 C-66.18471124 84.98753239 -80.01647421 134.38603812 -83.56640625 184.32421875 C-83.65615723 185.56179932 -83.7459082 186.79937988 -83.83837891 188.07446289 C-84.05696985 191.09247521 -84.27356655 194.11061611 -84.48828125 197.12890625 C-83.7919458 197.13255188 -83.09561035 197.13619751 -82.37817383 197.13995361 C-75.78756291 197.17795881 -69.19741431 197.23495199 -62.60714722 197.31280899 C-59.21968769 197.352171 -55.8324837 197.38441391 -52.44482422 197.39990234 C-48.54221959 197.42138457 -44.64059176 197.46806629 -40.73828125 197.51953125 C-38.93000854 197.52137421 -38.93000854 197.52137421 -37.08520508 197.52325439 C-28.96550356 197.66362996 -23.01360256 198.51081332 -17.11328125 204.56640625 C-13.8680048 209.68395757 -13.20411008 213.93804102 -13.26464844 219.92919922 C-13.26424057 220.69897095 -13.2638327 221.46874268 -13.26341248 222.26184082 C-13.26321546 223.9276562 -13.26723515 225.59347631 -13.27501678 227.25927353 C-13.28526747 229.89974265 -13.27984213 232.53974156 -13.26959229 235.1802063 C-13.24166069 242.68548913 -13.22911675 250.19050566 -13.25830078 257.69580078 C-13.27505283 262.29247516 -13.26268086 266.88830702 -13.23184967 271.48489761 C-13.22575717 273.23191094 -13.23058391 274.97899897 -13.24672699 276.72594833 C-13.82775295 287.16143114 -13.82775295 287.16143114 -9.73876953 296.24926758 C-9.19575195 296.72956421 -8.65273438 297.20986084 -8.09326172 297.70471191 C-5.17491444 300.29433449 -3.58102237 303.81228024 -1.74609375 307.2109375 C-1.33186157 307.97484299 -0.91762939 308.73874847 -0.49084473 309.52580261 C0.82366899 311.98687513 2.11085943 314.46008563 3.38671875 316.94140625 C3.82058899 317.78372803 4.25445923 318.6260498 4.70147705 319.49389648 C11.93070627 333.77802586 16.31005899 346.94489708 12.51171875 363.12890625 C10.3915245 368.4530812 8.03891708 370.82782413 3.51171875 374.12890625 C0.19627576 375.23405391 -2.69238236 375.44998256 -6.17578125 375.69140625 C-7.94501953 375.81708984 -7.94501953 375.81708984 -9.75 375.9453125 C-10.65363281 376.00589844 -11.55726563 376.06648438 -12.48828125 376.12890625 C-11.38419922 376.65677734 -11.38419922 376.65677734 -10.2578125 377.1953125 C0.85940667 382.82000859 0.85940667 382.82000859 3.51171875 389.12890625 C5.35180963 395.58087046 4.29778425 400.14402482 1.51171875 406.12890625 C0.85171875 407.11890625 0.19171875 408.10890625 -0.48828125 409.12890625 C-0.9432065 412.36308072 -0.85859329 415.6160867 -0.86328125 418.87890625 C-0.88777344 419.760625 -0.91226562 420.64234375 -0.9375 421.55078125 C-0.9649984 427.71042326 0.17836979 430.98492821 3.51171875 436.12890625 C4.87788493 440.72758584 4.77220255 444.30632584 3.32421875 448.87890625 C0.56971347 453.81801916 -1.09882343 456.74489669 -6.55078125 458.50390625 C-13.92050832 461.49594187 -18.92025159 469.26564313 -22.48828125 476.12890625 C-23.21250528 478.92026219 -23.43000695 481.18178671 -23.40625 484.046875 C-23.54418729 487.54785491 -25.27323769 489.54468876 -27.48828125 492.12890625 C-31.7392051 495.96510582 -34.73691553 497.27101562 -40.42578125 497.25390625 C-41.70775391 497.25777344 -41.70775391 497.25777344 -43.015625 497.26171875 C-45.48828125 497.12890625 -45.48828125 497.12890625 -47.40625 496.55834961 C-50.96148155 495.82504141 -54.20615839 497.41339945 -57.55078125 498.56640625 C-65.1431221 501.12890625 -65.1431221 501.12890625 -68.48828125 501.12890625 C-68.79765625 501.96421875 -68.79765625 501.96421875 -69.11328125 502.81640625 C-71.31344794 506.51668659 -74.62496845 509.19724985 -78.48828125 511.12890625 C-85.92981295 511.81772785 -91.46479854 511.74263769 -97.48828125 507.12890625 C-100.48828125 503.83858367 -100.48828125 503.83858367 -100.48828125 501.12890625 C-101.74640625 500.86078125 -103.00453125 500.59265625 -104.30078125 500.31640625 C-108.96938321 499.29538078 -113.52993371 497.99245516 -118.10546875 496.6171875 C-120.62001391 495.89490864 -120.62001391 495.89490864 -123.48828125 497.12890625 C-129.45717406 497.66312729 -134.42421823 497.66197347 -139.48828125 494.12890625 C-144.07046565 489.44258129 -146.21538819 485.41548789 -146.7578125 478.8828125 C-147.63188351 474.39092888 -149.26644788 471.65163351 -151.92578125 468.00390625 C-152.36809082 467.38717041 -152.81040039 466.77043457 -153.26611328 466.13500977 C-156.70089797 461.60645665 -160.04372184 459.20218488 -165.35546875 457.0625 C-169.25162539 455.35703949 -170.79562139 452.410327 -172.73828125 448.81640625 C-174.60385398 442.13143729 -173.69937372 437.62664192 -170.4609375 431.6953125 C-169.48828125 430.12890625 -169.48828125 430.12890625 -168.48828125 429.12890625 C-168.18093528 425.90919229 -168.20980833 422.67397909 -168.17578125 419.44140625 C-168.13227539 418.09272461 -168.13227539 418.09272461 -168.08789062 416.71679688 C-168.03255576 410.91514929 -168.73738204 407.79780757 -172.48828125 403.12890625 C-174.29848403 397.6982979 -174.18925872 393.03146853 -171.80078125 387.87890625 C-169.86363605 384.02055943 -168.26111994 383.1471772 -164.48828125 380.12890625 C-175.70828125 379.79890625 -186.92828125 379.46890625 -198.48828125 379.12890625 C-198.45347656 382.05636719 -198.41867187 384.98382813 -198.3828125 388 C-198.35936447 390.85960924 -198.3411778 393.71920745 -198.32348633 396.57885742 C-198.30847169 398.55449274 -198.28805374 400.53009514 -198.26196289 402.50561523 C-198.22525553 405.3579932 -198.20848132 408.20992754 -198.1953125 411.0625 C-198.17982864 411.93474716 -198.16434479 412.80699432 -198.14839172 413.70567322 C-198.14672159 419.89840199 -198.6379362 426.84149969 -202.8697052 431.72215271 C-207.35484246 435.59674588 -210.99852662 437.37208884 -216.88012695 437.41943359 C-217.95837234 437.4321933 -219.03661774 437.444953 -220.14753723 437.45809937 C-221.88821724 437.46143784 -221.88821724 437.46143784 -223.6640625 437.46484375 C-224.86258347 437.47150055 -226.06110443 437.47815735 -227.29594421 437.48501587 C-229.83196478 437.49514143 -232.36801198 437.49983292 -234.90405273 437.49951172 C-238.77567734 437.50387794 -242.64615573 437.54018196 -246.51757812 437.578125 C-248.98306902 437.58399457 -251.44856533 437.58796302 -253.9140625 437.58984375 C-255.06844315 437.60421478 -256.22282379 437.61858582 -257.41218567 437.63339233 C-264.00958083 437.59607008 -268.14213509 437.10027693 -273.48828125 433.12890625 C-279.42507071 426.87120926 -279.77444946 421.25960589 -279.68359375 413.015625 C-279.68076385 412.04607376 -279.67793396 411.07652252 -279.67501831 410.07759094 C-279.66385116 406.9904022 -279.63875277 403.90350686 -279.61328125 400.81640625 C-279.60324698 398.71940524 -279.59412191 396.62239967 -279.5859375 394.52539062 C-279.56562739 389.39302603 -279.52647181 384.26129339 -279.48828125 379.12890625 C-300.77328125 379.62390625 -300.77328125 379.62390625 -322.48828125 380.12890625 C-320.50828125 381.77890625 -318.52828125 383.42890625 -316.48828125 385.12890625 C-313.74591598 389.97375155 -312.50383951 394.59927604 -313.48828125 400.12890625 C-314.70600342 403.2884016 -316.06063797 406.70126297 -318.48828125 409.12890625 C-318.79562722 412.34862021 -318.76675417 415.58383341 -318.80078125 418.81640625 C-318.82978516 419.71552734 -318.85878906 420.61464844 -318.88867188 421.54101562 C-318.94400674 427.34266321 -318.23918046 430.46000493 -314.48828125 435.12890625 C-312.67807847 440.5595146 -312.78730378 445.22634397 -315.17578125 450.37890625 C-317.80292224 455.07285397 -320.72496982 457.49502263 -325.82421875 459.328125 C-330.08262243 461.13102199 -332.23454503 463.87786549 -334.80078125 467.62890625 C-335.23664551 468.24894531 -335.67250977 468.86898438 -336.12158203 469.5078125 C-339.22125933 474.15434684 -340.54973477 478.20390412 -341.1484375 483.7890625 C-341.83810168 488.53744002 -344.61497929 491.34080448 -348.05078125 494.44140625 C-351.57728164 496.88282959 -354.24009328 497.26649479 -358.42578125 497.25390625 C-359.70775391 497.25777344 -359.70775391 497.25777344 -361.015625 497.26171875 C-363.48828125 497.12890625 -363.48828125 497.12890625 -365.38330078 496.55786133 C-369.25722308 495.76842947 -372.76058207 497.46967319 -376.42578125 498.69140625 C-377.22435547 498.93181641 -378.02292969 499.17222656 -378.84570312 499.41992188 C-384.48483256 501.27471424 -387.0255031 503.32882385 -390.48828125 508.12890625 C-395.87472153 512.07020402 -402.07195182 511.93094743 -408.48828125 511.12890625 C-411.98828125 509.37890625 -411.98828125 509.37890625 -414.48828125 507.12890625 C-415.27203125 506.42765625 -416.05578125 505.72640625 -416.86328125 505.00390625 C-418.48828125 503.12890625 -418.48828125 503.12890625 -418.48828125 501.12890625 C-419.74640625 500.86078125 -421.00453125 500.59265625 -422.30078125 500.31640625 C-426.96938321 499.29538078 -431.52993371 497.99245516 -436.10546875 496.6171875 C-438.62001391 495.89490864 -438.62001391 495.89490864 -441.48828125 497.12890625 C-448.37335517 497.86315364 -452.89285941 497.26951841 -458.48828125 493.12890625 C-463.54188116 487.54334845 -463.54188116 487.54334845 -463.41796875 484.2734375 C-463.21136029 475.46306261 -468.42886478 469.02516264 -473.97314453 462.64599609 C-476.70006685 459.91555856 -479.78877769 458.55939098 -483.3203125 457.14453125 C-487.01425881 455.41403388 -488.89750577 452.82098516 -490.48828125 449.12890625 C-492.33522535 442.6820259 -491.27203717 438.10882637 -488.48828125 432.12890625 C-487.82828125 431.13890625 -487.16828125 430.14890625 -486.48828125 429.12890625 C-486.033356 425.89473178 -486.11796921 422.6417258 -486.11328125 419.37890625 C-486.08878906 418.4971875 -486.06429688 417.61546875 -486.0390625 416.70703125 C-486.01162399 410.56080445 -487.13216556 407.25004248 -490.48828125 402.12890625 C-492.1569711 397.10459964 -491.57345339 392.76699167 -489.51171875 387.953125 C-487.30309002 384.01637074 -484.18241807 381.59166413 -480.48828125 379.12890625 C-479.49828125 379.12890625 -478.50828125 379.12890625 -477.48828125 379.12890625 C-477.48828125 378.46890625 -477.48828125 377.80890625 -477.48828125 377.12890625 C-478.34550781 376.98195313 -479.20273437 376.835 -480.0859375 376.68359375 C-487.07565114 375.31244361 -493.0472904 374.0593371 -497.48828125 368.12890625 C-500.07971094 363.29139197 -499.78394308 358.4733096 -499.77880859 353.12890625 C-499.78552582 352.12493301 -499.79224304 351.12095978 -499.79916382 350.08656311 C-499.8181592 346.76729373 -499.82206962 343.44822661 -499.82421875 340.12890625 C-499.83064844 337.81306883 -499.83737693 335.49723221 -499.84439087 333.18139648 C-499.85636953 328.32257202 -499.86007137 323.46381866 -499.85888672 318.60498047 C-499.85868415 312.40594786 -499.88591949 306.2073769 -499.92043114 300.00845337 C-499.94277611 295.22119086 -499.94672184 290.43403781 -499.94566727 285.64672852 C-499.94801436 283.36318378 -499.95678713 281.07963561 -499.972332 278.79614258 C-500.09469481 258.9542262 -498.04082798 244.15357872 -483.98828125 229.00390625 C-467.84261716 213.66066221 -445.80377934 207.37808755 -424.48828125 203.12890625 C-423.75109863 202.97969727 -423.01391602 202.83048828 -422.25439453 202.67675781 C-414.00473842 201.07469985 -405.79880278 200.14117527 -397.40281677 199.80792236 C-393.84921322 199.66522889 -390.29775416 199.48401514 -386.74575806 199.30621338 C-384.97178342 199.23064132 -383.19677312 199.17600264 -381.42147827 199.14398193 C-371.52865949 198.96467569 -364.34986523 198.37211356 -357.02734375 191.23046875 C-355.12251592 189.24091753 -353.30984185 187.19736408 -351.48828125 185.12890625 C-350.11562059 183.87391458 -348.72589548 182.63650073 -347.30078125 181.44140625 C-344.33101336 178.87177551 -341.40317054 176.2607107 -338.48828125 173.62890625 C-334.8715178 170.36499777 -331.22438517 167.14099676 -327.55078125 163.94140625 C-325.17863696 161.85679461 -322.8327206 159.74461981 -320.48828125 157.62890625 C-316.18914037 153.75445254 -311.87588208 149.90301953 -307.48828125 146.12890625 C-306.50214844 145.27554688 -305.51601563 144.4221875 -304.5 143.54296875 C-303.43417967 142.63342754 -302.36777398 141.72457182 -301.30078125 140.81640625 C-300.31722656 139.97464844 -299.33367187 139.13289062 -298.3203125 138.265625 C-294.19855523 135.15583021 -290.75868042 133.88236334 -285.60623169 133.86148071 C-284.65026093 133.85295074 -283.69429016 133.84442078 -282.70935059 133.83563232 C-281.15383484 133.83699188 -281.15383484 133.83699188 -279.56689453 133.83837891 C-277.91480484 133.82830307 -277.91480484 133.82830307 -276.2293396 133.81802368 C-272.58904507 133.79902853 -268.94893475 133.79511875 -265.30859375 133.79296875 C-262.77660038 133.78654216 -260.24460777 133.7798139 -257.71261597 133.77279663 C-252.40490701 133.76082024 -247.09726663 133.75703052 -241.78955078 133.75830078 C-235.66542908 133.75950191 -229.54165996 133.73840215 -223.41762745 133.70681345 C-217.51390118 133.67745256 -211.61028204 133.6703262 -205.70647812 133.67152023 C-203.20027094 133.6691611 -200.69406112 133.66032006 -198.18790054 133.6448555 C-194.68112238 133.62524186 -191.17525004 133.63101623 -187.66845703 133.64306641 C-186.635495 133.63182739 -185.60253296 133.62058838 -184.53826904 133.60900879 C-178.30097491 133.66342222 -174.57345049 134.44187877 -169.48828125 138.12890625 C-167.05078125 140.87890625 -167.05078125 140.87890625 -165.48828125 143.12890625 C-165.47369873 142.28183105 -165.45911621 141.43475586 -165.4440918 140.56201172 C-165.38276948 137.39708691 -165.30856773 134.23279121 -165.22583008 131.06835938 C-165.19272739 129.70291375 -165.16465039 128.33733612 -165.1418457 126.97167969 C-165.10803134 125.00037401 -165.05419839 123.02944434 -165 121.05859375 C-164.97381592 119.87507324 -164.94763184 118.69155273 -164.9206543 117.47216797 C-164.22953423 112.12818256 -162.15864529 108.2093998 -157.98828125 104.81640625 C-157.40046875 104.32527344 -156.81265625 103.83414063 -156.20703125 103.328125 C-151.81360611 100.26271246 -146.60840975 100.60473879 -141.48828125 101.12890625 C-135.60774822 102.72621366 -132.56324538 105.76447543 -129.50992775 110.89874268 C-127.83685301 114.55091624 -127.82765113 117.87658014 -127.9206543 121.83984375 C-127.91992416 122.67006546 -127.91919403 123.50028717 -127.91844177 124.35566711 C-127.92189736 127.07243502 -127.9606598 129.78744166 -128 132.50390625 C-128.0093354 134.39818384 -128.01644808 136.29247356 -128.0214386 138.18676758 C-128.0404512 143.15185375 -128.08950211 148.11619864 -128.1449585 153.08099365 C-128.19627523 158.15545629 -128.2189791 163.2300397 -128.24414062 168.3046875 C-128.29762704 178.24647042 -128.38551555 188.18751047 -128.48828125 198.12890625 C-119.90828125 197.79890625 -111.32828125 197.46890625 -102.48828125 197.12890625 C-102.58109375 191.96234375 -102.58109375 191.96234375 -102.67578125 186.69140625 C-102.97210953 131.53635573 -83.34898008 75.7613069 -44.48828125 36.12890625 C-35.66528579 27.71740852 -35.66528579 27.71740852 -32.48828125 26.12890625 C-32.58109375 24.42734375 -32.58109375 24.42734375 -32.67578125 22.69140625 C-32.66330386 15.65415917 -30.51680169 9.15742669 -25.48828125 4.12890625 C-18.04445312 -1.3400287 -8.98008875 -3.14373594 0 0 Z M-260.48828125 379.12890625 C-260.48828125 380.44890625 -260.48828125 381.76890625 -260.48828125 383.12890625 C-246.29828125 383.12890625 -232.10828125 383.12890625 -217.48828125 383.12890625 C-217.48828125 381.80890625 -217.48828125 380.48890625 -217.48828125 379.12890625 C-231.67828125 379.12890625 -245.86828125 379.12890625 -260.48828125 379.12890625 Z M-260.48828125 402.12890625 C-260.48828125 407.73890625 -260.48828125 413.34890625 -260.48828125 419.12890625 C-246.29828125 419.12890625 -232.10828125 419.12890625 -217.48828125 419.12890625 C-217.48828125 413.51890625 -217.48828125 407.90890625 -217.48828125 402.12890625 C-231.67828125 402.12890625 -245.86828125 402.12890625 -260.48828125 402.12890625 Z " fill="#E54C3B" transform="translate(499.48828125,0.87109375)"/>
<path d="M0 0 C3.20574495 1.84033506 3.86922367 2.48086878 5.8125 5.3125 C10.4062962 11.0365159 18.38300304 12.8052603 25.375 13.9375 C29.1307902 14.19468046 32.8581871 14.16581232 36.61450195 13.92944336 C42.87184724 13.59110619 46.49479532 15.27095495 51.125 19.375 C53.46048849 22.33085262 53.73786996 24.86056895 54.125 28.5625 C55.16840218 36.75627591 60.17988735 43.38408718 66.41796875 48.66796875 C68.33945684 49.91444306 70.20425994 50.80245665 72.3125 51.6875 C76.72119219 53.86717058 79.31784997 56.45238319 81.375 60.9375 C83.23835756 67.37244909 82.15325372 71.96939941 79.375 77.9375 C78.715 78.9275 78.055 79.9175 77.375 80.9375 C76.92007475 84.17167447 77.00468796 87.42468045 77 90.6875 C76.97550781 91.56921875 76.95101562 92.4509375 76.92578125 93.359375 C76.89828285 99.51901701 78.04165104 102.79352196 81.375 107.9375 C82.74116618 112.53617959 82.6354838 116.11491959 81.1875 120.6875 C78.43299472 125.62661291 76.76445782 128.55349044 71.3125 130.3125 C63.94277293 133.30453562 58.94302966 141.07423688 55.375 147.9375 C54.65077597 150.72885594 54.4332743 152.99038046 54.45703125 155.85546875 C54.31909396 159.35644866 52.59004356 161.35328251 50.375 163.9375 C46.12407615 167.77369957 43.12636572 169.07960937 37.4375 169.0625 C36.15552734 169.06636719 36.15552734 169.06636719 34.84765625 169.0703125 C32.375 168.9375 32.375 168.9375 30.45703125 168.36694336 C26.9017997 167.63363516 23.65712286 169.2219932 20.3125 170.375 C12.72015915 172.9375 12.72015915 172.9375 9.375 172.9375 C9.16875 173.494375 8.9625 174.05125 8.75 174.625 C6.54983331 178.32528034 3.2383128 181.0058436 -0.625 182.9375 C-8.0665317 183.6263216 -13.60151729 183.55123144 -19.625 178.9375 C-22.625 175.64717742 -22.625 175.64717742 -22.625 172.9375 C-23.883125 172.669375 -25.14125 172.40125 -26.4375 172.125 C-31.10610196 171.10397453 -35.66665246 169.80104891 -40.2421875 168.42578125 C-42.75673266 167.70350239 -42.75673266 167.70350239 -45.625 168.9375 C-51.59389281 169.47172104 -56.56093698 169.47056722 -61.625 165.9375 C-66.2071844 161.25117504 -68.35210694 157.22408164 -68.89453125 150.69140625 C-69.76860226 146.19952263 -71.40316663 143.46022726 -74.0625 139.8125 C-74.72596436 138.88739624 -74.72596436 138.88739624 -75.40283203 137.94360352 C-78.83761672 133.4150504 -82.18044059 131.01077863 -87.4921875 128.87109375 C-91.38834414 127.16563324 -92.93234014 124.21892075 -94.875 120.625 C-96.74057273 113.94003104 -95.83609247 109.43523567 -92.59765625 103.50390625 C-91.625 101.9375 -91.625 101.9375 -90.625 100.9375 C-90.31765403 97.71778604 -90.34652708 94.48257284 -90.3125 91.25 C-90.28349609 90.35087891 -90.25449219 89.45175781 -90.22460938 88.52539062 C-90.16927451 82.72374304 -90.87410079 79.60640132 -94.625 74.9375 C-96.43520278 69.50689165 -96.32597747 64.84006228 -93.9375 59.6875 C-92.002573 56.2371057 -90.05978188 54.01434486 -86.625 51.9375 C-85.53574219 51.71835937 -84.44648438 51.49921875 -83.32421875 51.2734375 C-78.47985871 49.52394317 -76.63819877 47.06285007 -73.75 42.9375 C-73.2645874 42.26340088 -72.7791748 41.58930176 -72.27905273 40.89477539 C-69.11455518 36.26804269 -67.66546588 32.70215137 -67.703125 27.015625 C-67.52608684 22.30640981 -64.12371235 19.44590332 -61.01171875 16.2734375 C-57.18814152 13.14558496 -53.85984306 13.51425005 -49.125 13.875 C-41.5055585 14.19427001 -35.6152262 13.26052356 -28.34765625 10.8125 C-25.625 9.9375 -25.625 9.9375 -22.625 9.9375 C-22.398125 9.380625 -22.17125 8.82375 -21.9375 8.25 C-16.82931988 -0.75012687 -9.52220181 -2.79099019 0 0 Z " fill="#35495D" transform="translate(421.625,329.0625)"/>
<path d="M0 0 C3.56595851 2.1488031 6.68603112 4.30373415 8.73828125 8.0234375 C8.73828125 8.6834375 8.73828125 9.3434375 8.73828125 10.0234375 C10.19234375 10.178125 10.19234375 10.178125 11.67578125 10.3359375 C14.55338748 10.72265138 16.88137748 11.46753118 19.55078125 12.5859375 C25.01812184 14.57234152 30.54083285 14.15826633 36.2668457 13.82446289 C41.63812743 13.62003567 44.45680358 14.45768878 48.73828125 18.0234375 C53.78639646 23.75373045 53.78639646 23.75373045 53.66796875 26.87890625 C53.46138439 35.68825345 58.68939743 42.23614453 64.27050781 48.59667969 C66.81428 51.06936842 69.38914686 51.85162197 72.796875 52.50390625 C76.41811881 53.47297149 77.72858516 55.97844343 79.73828125 59.0234375 C82.02119029 63.15441576 82.45996698 67.38766796 81.73828125 72.0234375 C80.52989607 75.18382952 79.16389246 78.59782629 76.73828125 81.0234375 C76.43093528 84.24315146 76.45980833 87.47836466 76.42578125 90.7109375 C76.39677734 91.61005859 76.36777344 92.50917969 76.33789062 93.43554688 C76.28255576 99.23719446 76.98738204 102.35453618 80.73828125 107.0234375 C82.54848403 112.45404585 82.43925872 117.12087522 80.05078125 122.2734375 C77.42364026 126.96738522 74.50159268 129.38955388 69.40234375 131.22265625 C65.14394007 133.02555324 62.99201747 135.77239674 60.42578125 139.5234375 C59.98991699 140.14347656 59.55405273 140.76351562 59.10498047 141.40234375 C56.00530317 146.04887809 54.67682773 150.09843537 54.078125 155.68359375 C53.38846082 160.43197127 50.61158321 163.23533573 47.17578125 166.3359375 C43.64928086 168.77736084 40.98646922 169.16102604 36.80078125 169.1484375 C35.51880859 169.15230469 35.51880859 169.15230469 34.2109375 169.15625 C31.73828125 169.0234375 31.73828125 169.0234375 29.84326172 168.45239258 C25.96933942 167.66296072 22.46598043 169.36420444 18.80078125 170.5859375 C18.00220703 170.82634766 17.20363281 171.06675781 16.38085938 171.31445312 C10.74172994 173.16924549 8.2010594 175.2233551 4.73828125 180.0234375 C-0.64815903 183.96473527 -6.84538932 183.82547868 -13.26171875 183.0234375 C-16.76171875 181.2734375 -16.76171875 181.2734375 -19.26171875 179.0234375 C-20.04546875 178.3221875 -20.82921875 177.6209375 -21.63671875 176.8984375 C-23.26171875 175.0234375 -23.26171875 175.0234375 -23.26171875 173.0234375 C-24.51984375 172.7553125 -25.77796875 172.4871875 -27.07421875 172.2109375 C-31.74282071 171.18991203 -36.30337121 169.88698641 -40.87890625 168.51171875 C-43.39345141 167.78943989 -43.39345141 167.78943989 -46.26171875 169.0234375 C-53.14679267 169.75768489 -57.66629691 169.16404966 -63.26171875 165.0234375 C-68.31531866 159.4378797 -68.31531866 159.4378797 -68.19140625 156.16796875 C-67.98479779 147.35759386 -73.20230228 140.91969389 -78.74658203 134.54052734 C-81.47350435 131.81008981 -84.56221519 130.45392223 -88.09375 129.0390625 C-91.78769631 127.30856513 -93.67094327 124.71551641 -95.26171875 121.0234375 C-97.10866285 114.57655715 -96.04547467 110.00335762 -93.26171875 104.0234375 C-92.60171875 103.0334375 -91.94171875 102.0434375 -91.26171875 101.0234375 C-90.8067935 97.78926303 -90.89140671 94.53625705 -90.88671875 91.2734375 C-90.86222656 90.39171875 -90.83773437 89.51 -90.8125 88.6015625 C-90.78506149 82.4553357 -91.90560306 79.14457373 -95.26171875 74.0234375 C-96.92958336 69.00161563 -96.36561098 64.6393479 -94.26171875 59.83984375 C-91.75204744 55.2812611 -88.87422883 53.18594086 -84.07421875 51.5859375 C-77.07566009 48.68552812 -72.50889032 41.65271438 -69.26171875 35.0234375 C-68.44492462 31.86344213 -68.04136881 28.90319313 -67.73828125 25.66015625 C-66.83711161 20.6741767 -63.58006295 17.6378096 -59.55078125 14.83203125 C-56.2116188 13.65249776 -52.99134361 14.03509182 -49.51171875 14.2109375 C-41.47837651 14.44862586 -34.87548468 12.81678456 -27.359375 10.1171875 C-24.26171875 9.0234375 -24.26171875 9.0234375 -22.26171875 9.0234375 C-22.05546875 8.4665625 -21.84921875 7.9096875 -21.63671875 7.3359375 C-17.09901075 -0.29566231 -8.20645687 -3.54337516 0 0 Z " fill="#35495D" transform="translate(104.26171875,328.9765625)"/>
<path d="M0 0 C1.50318031 -0.0129007 1.50318031 -0.0129007 3.03672791 -0.02606201 C4.1251297 -0.03032196 5.21353149 -0.03458191 6.33491516 -0.03897095 C8.06755867 -0.05123718 8.06755867 -0.05123718 9.83520508 -0.06375122 C13.65582262 -0.08855261 17.47640315 -0.10510769 21.29707336 -0.11953735 C22.60391397 -0.12486103 23.91075459 -0.13018471 25.25719643 -0.13566971 C30.75180839 -0.15728267 36.24641755 -0.17601602 41.74106121 -0.1872921 C49.59077078 -0.20351264 57.43998405 -0.23666167 65.28950661 -0.29369295 C70.82262651 -0.33251101 76.35561432 -0.35193873 81.88886672 -0.35721266 C85.18695734 -0.36085011 88.48439876 -0.3752361 91.78236961 -0.4053154 C95.46823456 -0.4370154 99.15285533 -0.43699547 102.83882141 -0.42959595 C103.91710205 -0.44600128 104.99538269 -0.46240662 106.1063385 -0.47930908 C115.08274903 -0.40583075 122.18732297 2.12620349 128.57832336 8.57577515 C133.121559 14.24982493 136.09756203 20.88751047 139.22285461 27.40390015 C139.84736641 28.68310279 140.4730108 29.96175314 141.09980774 31.23983765 C142.24333602 33.57546583 143.37881222 35.91437894 144.50923157 38.25643921 C145.20278748 39.69068237 145.20278748 39.69068237 145.91035461 41.15390015 C146.26766663 41.92185913 146.62497864 42.68981812 146.99311829 43.48104858 C148.25211777 45.77720629 149.51180029 46.11668746 151.91035461 47.15390015 C153.66039395 48.16965725 155.3957558 49.20760768 157.12910461 50.2515564 C163.20592851 53.32994745 170.29821077 52.68160416 176.91035461 53.15390015 C176.91035461 66.02390015 176.91035461 78.89390015 176.91035461 92.15390015 C169.99843948 92.52363112 163.12120421 92.84075155 156.20722961 93.0328064 C153.86294511 93.11284254 151.51944889 93.22172741 149.17793274 93.3609314 C130.32511586 94.45291738 130.32511586 94.45291738 124.63569641 90.62246704 C119.04212234 85.2372966 114.6153457 78.38361684 113.91035461 70.52890015 C113.9245343 69.7606189 113.93871399 68.99233765 113.95332336 68.20077515 C113.87921196 64.67037744 112.17229784 62.72151138 109.91035461 60.15390015 C105.08832236 56.16548301 101.5550891 55.79339178 95.53535461 56.21640015 C89.01919449 56.43849608 83.28575363 55.93344378 77.03535461 54.02890015 C76.37616028 53.84077759 75.71696594 53.65265503 75.03779602 53.45883179 C70.17337334 51.83206416 68.45746311 49.4652642 65.91035461 45.15390015 C61.26323194 41.69133815 57.84344989 40.53242145 52.04707336 40.8374939 C48.79197435 41.31951039 46.62744603 42.30133782 43.91035461 44.15390015 C43.19879211 45.11296265 42.48722961 46.07202515 41.75410461 47.06015015 C38.67257764 50.82582636 35.21656863 52.09663949 30.66035461 53.52890015 C29.87692688 53.78655151 29.09349915 54.04420288 28.28633118 54.30966187 C21.97988266 56.21018349 16.1201184 56.6423886 9.5695343 56.10848999 C4.42104711 55.76061923 1.85597921 56.88036432 -2.08964539 60.15390015 C-4.94436888 64.08878928 -6.19273403 66.56478594 -6.34745789 71.38827515 C-6.87203879 76.81671606 -9.2981254 80.05842031 -12.65214539 84.21640015 C-13.1722821 84.89122437 -13.69241882 85.56604858 -14.22831726 86.26132202 C-15.4989822 87.90502621 -16.79205003 89.53137152 -18.08964539 91.15390015 C-36.02773435 87.74666537 -36.02773435 87.74666537 -41.13652039 80.8374939 C-45.72426026 72.73374026 -45.34594577 60.86495505 -43.08964539 52.15390015 C-40.51672345 44.8577318 -36.9942594 37.9617315 -33.46464539 31.09140015 C-33.0119931 30.20683136 -32.55934082 29.32226257 -32.0929718 28.41088867 C-30.76550935 25.84394947 -29.41599871 23.29067777 -28.05058289 20.7437439 C-27.64396927 19.98099152 -27.23735565 19.21823914 -26.81842041 18.43237305 C-22.58738233 10.77548834 -18.09569529 4.93857828 -10.08964539 1.15390015 C-6.68304533 0.3125428 -3.50257864 0.02250303 0 0 Z " fill="#BF3A2B" transform="translate(43.08964538574219,287.8460998535156)"/>
<path d="M0 0 C1.10775284 -0.00137466 2.21550568 -0.00274933 3.35682678 -0.00416565 C5.17267525 0.00122726 5.17267525 0.00122726 7.02520752 0.00672913 C8.94266029 0.00651009 8.94266029 0.00651009 10.89884949 0.00628662 C14.40058113 0.00599976 17.90227851 0.01187852 21.40400219 0.01886058 C25.06486525 0.02511263 28.7257291 0.02569938 32.38659668 0.02688599 C39.31737584 0.02999383 46.24813923 0.03819987 53.17891145 0.04823548 C61.0700248 0.05941356 68.96113891 0.06491134 76.85225821 0.06993091 C93.08341982 0.08038293 109.31456556 0.09797181 125.54571533 0.12025452 C125.85141449 1.07431183 126.15711365 2.02836914 126.47207642 3.01133728 C127.44486895 5.82823544 128.189651 7.24352547 130.08477783 9.44056702 C143.59753839 26.79768741 154.38742015 48.90027991 152.47149658 71.11244202 C151.64243735 76.64000971 150.08883826 81.39527078 145.54571533 84.93275452 C140.35882832 88.71485963 134.67519632 89.15807788 128.36993408 88.90541077 C123.66253782 87.93892798 122.20802842 86.59241054 119.23321533 82.87025452 C115.85784829 77.55263717 114.62813955 72.96009126 113.98712158 66.76087952 C113.28795706 62.57826698 111.69605875 60.90427893 108.54571533 58.12025452 C104.26009957 55.83920097 100.44030347 56.07148726 95.73321533 56.30775452 C86.37091336 56.51168181 75.54596547 55.47880588 68.20196533 49.07728577 C67.06213866 47.70499445 65.95970312 46.30020288 64.90899658 44.85853577 C62.81382088 42.18703666 60.83581076 41.65741295 57.54571533 41.12025452 C52.16638836 40.60793766 48.86972758 40.99933494 44.18634033 43.65931702 C42.30231701 45.18440389 42.30231701 45.18440389 40.81915283 48.08900452 C38.00584589 51.84008044 35.2854852 52.83267563 30.92071533 53.99525452 C30.18159912 54.20738586 29.44248291 54.41951721 28.68096924 54.63807678 C22.23524198 56.31217727 16.21704606 56.23491343 9.6116333 55.96253967 C5.25109825 55.86473509 2.44509155 56.02803747 -0.95428467 58.87025452 C-3.37190791 61.52964009 -5.46074863 64.45255121 -5.44647217 68.13587952 C-5.38846436 69.24189514 -5.38846436 69.24189514 -5.32928467 70.37025452 C-6.1533566 78.25912287 -10.85185322 85.07624974 -16.35351562 90.59083557 C-22.96876537 95.40692343 -32.51028109 93.66945612 -40.20428467 93.12025452 C-42.17274334 93.03985634 -44.14151972 92.96687686 -46.11053467 92.90150452 C-50.89973157 92.72649463 -55.67345446 92.45146045 -60.45428467 92.12025452 C-60.47893242 86.58436918 -60.49711962 81.04851552 -60.50921631 75.5125885 C-60.51425711 73.62781722 -60.52108965 71.74304987 -60.52972412 69.85829163 C-60.54180084 67.15523816 -60.54751535 64.45223621 -60.55194092 61.74916077 C-60.5571022 60.90124466 -60.56226349 60.05332855 -60.56758118 59.17971802 C-60.56777662 57.15954383 -60.51634677 55.13947518 -60.45428467 53.12025452 C-58.78825685 51.4542267 -56.54818151 51.63718699 -54.26678467 51.30775452 C-49.27157528 50.45254357 -46.4190312 49.19293308 -42.45428467 46.12025452 C-40.96928467 45.62525452 -40.96928467 45.62525452 -39.45428467 45.12025452 C-38.36680252 43.38329337 -38.36680252 43.38329337 -37.45428467 41.12025452 C-36.99191406 40.16409241 -36.52954346 39.2079303 -36.05316162 38.22279358 C-35.52166504 37.12161194 -34.99016846 36.0204303 -34.44256592 34.88587952 C-33.53250485 33.02130277 -32.62006154 31.15791442 -31.70648193 29.2950592 C-31.08455965 28.02116072 -30.46697425 26.74513497 -29.85394287 25.4669342 C-24.90090717 15.15222734 -20.13152658 6.15668938 -9.45428467 1.12025452 C-6.25706292 0.10917759 -3.34494544 -0.00320397 0 0 Z " fill="#BF3A2B" transform="translate(360.45428466796875,287.87974548339844)"/>
<path d="M0 0 C1.03505173 -0.01606293 2.07010345 -0.03212585 3.13652039 -0.04867554 C7.87502318 -0.09325103 12.61338714 -0.13420068 17.35205078 -0.15722656 C19.84758846 -0.17376941 22.34307909 -0.20103695 24.83837891 -0.23925781 C28.44303893 -0.29416687 32.04658876 -0.31592452 35.65161133 -0.33056641 C37.31452461 -0.36457047 37.31452461 -0.36457047 39.0110321 -0.39926147 C45.95521228 -0.38042732 50.56905828 0.63531837 55.92114258 5.19287109 C60.05456368 9.53826251 61.01082455 12.89007795 61.12646484 18.75390625 C61.14638992 19.66059555 61.166315 20.56728485 61.18684387 21.50144958 C61.21194283 22.97678917 61.21194283 22.97678917 61.23754883 24.48193359 C61.26899239 26.03540245 61.26899239 26.03540245 61.30107117 27.62025452 C61.36769099 31.01938063 61.426519 34.41857279 61.48364258 37.81787109 C61.50382446 38.97437164 61.52400635 40.13087219 61.5447998 41.32241821 C61.68769631 49.61234871 61.80850499 57.90248051 61.92114258 66.19287109 C61.93659119 67.27191711 61.95203979 68.35096313 61.96795654 69.46270752 C62.05133314 75.37009352 62.11686989 81.277121 62.15231323 87.18499756 C62.16475955 88.96665641 62.18218923 90.74828816 62.2048645 92.52984619 C62.4536583 113.20154657 62.4536583 113.20154657 57.53955078 118.75390625 C53.10161159 122.68001659 49.39747313 124.43616174 43.52929688 124.48339844 C41.91192879 124.50253799 41.91192879 124.50253799 40.2618866 124.52206421 C38.52120659 124.52540268 38.52120659 124.52540268 36.74536133 124.52880859 C35.54684036 124.53546539 34.3483194 124.54212219 33.11347961 124.54898071 C30.57745905 124.55910628 28.04141185 124.56379776 25.50537109 124.56347656 C21.63374649 124.56784278 17.7632681 124.6041468 13.8918457 124.64208984 C11.4263548 124.64795942 8.9608585 124.65192787 6.49536133 124.65380859 C5.34098068 124.66817963 4.18660004 124.68255066 2.99723816 124.69735718 C-3.60015701 124.66003493 -7.73271126 124.16424177 -13.07885742 120.19287109 C-18.39690219 114.58736444 -19.37959292 109.52487488 -19.30932617 101.97802734 C-19.30941177 101.15440201 -19.30949738 100.33077667 -19.30958557 99.48219299 C-19.30626834 96.73975962 -19.28725041 93.99772356 -19.26635742 91.25537109 C-19.25673135 89.32682384 -19.24729524 87.39827562 -19.23803711 85.46972656 C-19.20797939 80.18985495 -19.15960977 74.91026133 -19.10882568 69.6305542 C-19.07772493 66.06296242 -19.05610749 62.49540624 -19.03637695 58.92773438 C-19.00067471 52.76384631 -18.94222377 46.60052584 -18.86831665 40.4369812 C-18.84207593 38.03024285 -18.82216691 35.62342689 -18.8086853 33.21658325 C-18.78744908 29.82533725 -18.74096835 26.43531691 -18.68823242 23.04443359 C-18.68698868 22.03377335 -18.68574493 21.0231131 -18.6844635 19.98182678 C-18.53935208 13.05767943 -17.35625855 9.56643069 -12.48120117 4.54833984 C-8.21184096 1.14423663 -5.38612317 0.07605592 0 0 Z M-0.07885742 66.19287109 C-0.07885742 67.51287109 -0.07885742 68.83287109 -0.07885742 70.19287109 C14.11114258 70.19287109 28.30114258 70.19287109 42.92114258 70.19287109 C42.92114258 68.87287109 42.92114258 67.55287109 42.92114258 66.19287109 C28.73114258 66.19287109 14.54114258 66.19287109 -0.07885742 66.19287109 Z M-0.07885742 89.19287109 C-0.07885742 94.80287109 -0.07885742 100.41287109 -0.07885742 106.19287109 C14.11114258 106.19287109 28.30114258 106.19287109 42.92114258 106.19287109 C42.92114258 100.58287109 42.92114258 94.97287109 42.92114258 89.19287109 C28.73114258 89.19287109 14.54114258 89.19287109 -0.07885742 89.19287109 Z " fill="#EFC319" transform="translate(239.078857421875,313.80712890625)"/>
<path d="M0 0 C8.31885436 6.68338961 14.12361469 16.9409069 15.87890625 27.47265625 C16.93911946 41.52048123 13.55527284 53.60647596 4.75390625 64.59765625 C-3.37896559 73.45541449 -13.63611932 78.38550199 -25.50976562 78.92382812 C-39.8148483 79.21963215 -50.41583928 74.71010499 -60.79296875 64.890625 C-70.27323144 54.84838798 -72.61918749 43.29261481 -72.39453125 30.03125 C-71.9111169 18.36947711 -65.70080172 8.50983764 -57.30859375 0.66015625 C-40.28368931 -13.2484362 -17.51257711 -12.61034558 0 0 Z " fill="#53747F" transform="translate(443.12109375,385.52734375)"/>
<path d="M0 0 C10.17447129 6.73673326 16.83999053 15.79229917 20.79296875 27.3671875 C22.89753669 40.018242 20.95679772 52.60102934 14.140625 63.45703125 C8.84934856 70.53646632 3.09030996 75.59684769 -4.859375 79.45703125 C-5.519375 79.79605469 -6.179375 80.13507813 -6.859375 80.484375 C-16.398118 84.52716256 -29.27388603 83.81876672 -38.859375 80.45703125 C-50.60423781 75.19924273 -59.17950129 66.6149729 -64.046875 54.73046875 C-68.34589812 42.70147137 -68.10088932 30.76350405 -62.79296875 19.1171875 C-56.38703762 6.74930066 -46.97933404 -0.24505113 -33.859375 -4.54296875 C-22.77983701 -7.84820907 -9.99457335 -5.39324655 0 0 Z " fill="#53747F" transform="translate(119.859375,381.54296875)"/>
<path d="M0 0 C1.07544067 0.0002417 2.15088135 0.0004834 3.25891113 0.00073242 C4.37769653 0.01096436 5.49648193 0.02119629 6.64916992 0.03173828 C8.20444397 0.03475952 8.20444397 0.03475952 9.7911377 0.0378418 C13.65401653 0.04828392 17.51683217 0.07620649 21.37963867 0.10205078 C34.34245117 0.16392578 34.34245117 0.16392578 47.56713867 0.22705078 C47.56713867 21.67705078 47.56713867 43.12705078 47.56713867 65.22705078 C5.65713867 65.22705078 -36.25286133 65.22705078 -79.43286133 65.22705078 C-77.39375507 61.14883826 -75.6743653 59.39189065 -72.30786133 56.41455078 C-71.81358643 55.9744165 -71.31931152 55.53428223 -70.81005859 55.08081055 C-69.35681529 53.78964074 -67.89498804 52.50815228 -66.43286133 51.22705078 C-65.72258789 50.60314453 -65.01231445 49.97923828 -64.28051758 49.33642578 C-63.00901407 48.22353519 -61.73557859 47.11284799 -60.46020508 46.00439453 C-58.0979696 43.93345591 -55.7649028 41.83192231 -53.43286133 39.72705078 C-49.81609788 36.4631423 -46.16896524 33.23914129 -42.49536133 30.03955078 C-40.12321704 27.95493914 -37.77730068 25.84276434 -35.43286133 23.72705078 C-31.13372045 19.85259707 -26.82046216 16.00116406 -22.43286133 12.22705078 C-21.44672852 11.37369141 -20.4605957 10.52033203 -19.44458008 9.64111328 C-18.37875975 8.73157207 -17.31235406 7.82271635 -16.24536133 6.91455078 C-14.7700293 5.65191406 -14.7700293 5.65191406 -13.26489258 4.36376953 C-8.91536611 1.0821268 -5.42556531 -0.02589769 0 0 Z " fill="#B0D2EF" transform="translate(214.432861328125,134.77294921875)"/>
<path d="M0 0 C5.43377825 3.21806285 10.49517629 8.07927886 12.51171875 14.12890625 C12.65819957 16.39654199 12.73268135 18.66922991 12.76171875 20.94140625 C12.7875 22.14410156 12.81328125 23.34679687 12.83984375 24.5859375 C12.2393064 31.07031099 9.23800331 34.86372263 4.51171875 39.12890625 C3.91359375 39.68578125 3.31546875 40.24265625 2.69921875 40.81640625 C-3.56245175 44.57340855 -9.56693921 44.35909092 -16.48828125 43.12890625 C-17.66777344 42.69964844 -17.66777344 42.69964844 -18.87109375 42.26171875 C-21.73896146 41.84608241 -21.73896146 41.84608241 -24.46875 44.234375 C-25.55469581 45.24380065 -26.62284482 46.27259433 -27.67578125 47.31640625 C-28.24530518 47.86449951 -28.8148291 48.41259277 -29.40161133 48.97729492 C-67.22430384 86.00528175 -80.83933385 137.14316129 -83.75488281 188.47216797 C-83.82288086 189.57061035 -83.89087891 190.66905273 -83.9609375 191.80078125 C-84.01515869 192.78143555 -84.06937988 193.76208984 -84.12524414 194.77246094 C-84.48828125 197.12890625 -84.48828125 197.12890625 -86.48828125 199.12890625 C-89.67578125 199.39453125 -89.67578125 199.39453125 -93.48828125 199.37890625 C-94.74640625 199.3840625 -96.00453125 199.38921875 -97.30078125 199.39453125 C-100.48828125 199.12890625 -100.48828125 199.12890625 -102.48828125 197.12890625 C-102.96034465 193.63395862 -102.81977326 190.08928739 -102.80078125 186.56640625 C-102.7958667 185.49592041 -102.79095215 184.42543457 -102.78588867 183.32250977 C-102.01721383 129.23539466 -82.60839947 75.00601973 -44.48828125 36.12890625 C-35.66528579 27.71740852 -35.66528579 27.71740852 -32.48828125 26.12890625 C-32.55015625 24.99453125 -32.61203125 23.86015625 -32.67578125 22.69140625 C-32.66330386 15.65415917 -30.51680169 9.15742669 -25.48828125 4.12890625 C-18.04445312 -1.3400287 -8.98008875 -3.14373594 0 0 Z " fill="#54747F" transform="translate(499.48828125,0.87109375)"/>
<path d="M0 0 C10.4259375 -0.12375 10.4259375 -0.12375 21.0625 -0.25 C24.33426147 -0.30462402 24.33426147 -0.30462402 27.67211914 -0.36035156 C29.41812152 -0.37204372 31.16413488 -0.3822343 32.91015625 -0.390625 C33.80279175 -0.41108887 34.69542725 -0.43155273 35.6151123 -0.45263672 C41.62527233 -0.45596783 45.06501637 0.52212576 50 4 C56.45206967 10.62644993 56.28049618 17.79110423 56.1953125 26.5234375 C56.19329834 27.50030518 56.19128418 28.47717285 56.18920898 29.48364258 C56.17878703 33.11414318 56.15086456 36.74457657 56.125 40.375 C56.08375 48.50125 56.0425 56.6275 56 65 C37.52 65 19.04 65 0 65 C0 43.55 0 22.1 0 0 Z " fill="#B0D1EE" transform="translate(280,135)"/>
<path d="M0 0 C4.32449873 2.58942803 6.61047096 5.95464519 8.6875 10.5 C9.31714581 13.46233201 9.32513353 16.28303909 9.25512695 19.30273438 C9.25585709 20.14270966 9.25658722 20.98268494 9.25733948 21.84811401 C9.25388335 24.59733908 9.21511804 27.3448246 9.17578125 30.09375 C9.16644605 32.01044795 9.15933328 33.92715789 9.15434265 35.84387207 C9.1353285 40.86813786 9.08627615 45.8916713 9.03082275 50.91564941 C8.97950943 56.05043636 8.95680287 61.1853426 8.93164062 66.3203125 C8.87815147 76.38058049 8.79026159 86.44011453 8.6875 96.5 C-2.8625 96.5 -14.4125 96.5 -26.3125 96.5 C-26.68807166 79.8340074 -27.03102461 63.16786452 -27.3125 46.5 C-27.32901611 45.53072571 -27.34553223 44.56145142 -27.36254883 43.56280518 C-27.44547714 38.5324492 -27.51084955 33.50252377 -27.54467773 28.47158813 C-27.55647675 27.0008127 -27.57349238 25.53006907 -27.59594727 24.05941772 C-27.62554501 22.03456503 -27.63362264 20.0094319 -27.640625 17.984375 C-27.6499707 16.86772461 -27.65931641 15.75107422 -27.66894531 14.60058594 C-27.0665013 9.36014833 -24.87843662 5.49553177 -20.8125 2.1875 C-20.2246875 1.69636719 -19.636875 1.20523438 -19.03125 0.69921875 C-13.68191898 -3.03315539 -5.78055167 -2.49464872 0 0 Z " fill="#C03A2B" transform="translate(362.3125,103.5)"/>
<path d="M0 0 C0.07474224 4.26835703 0.12887823 8.53635674 0.16479492 12.80517578 C0.17978417 14.25413661 0.20018271 15.70305283 0.22631836 17.15185547 C0.5358535 34.76501183 0.5358535 34.76501183 -4.71875 41.05859375 C-5.3065625 41.51363281 -5.894375 41.96867187 -6.5 42.4375 C-7.0878125 42.91058594 -7.675625 43.38367188 -8.28125 43.87109375 C-11.59037189 46.04458517 -14.4570973 46.12247763 -18.29760742 46.11352539 C-19.37850143 46.11344986 -20.45939545 46.11337433 -21.57304382 46.11329651 C-22.73874405 46.10813522 -23.90444427 46.10297394 -25.10546875 46.09765625 C-26.29981033 46.0962413 -27.49415192 46.09482635 -28.72468567 46.09336853 C-32.54564908 46.0877635 -36.36655425 46.07521011 -40.1875 46.0625 C-42.77538978 46.05748565 -45.36328048 46.05292263 -47.95117188 46.04882812 C-54.30080118 46.03779243 -60.65039643 46.02104936 -67 46 C-67.24121113 36.7253521 -61.64188425 30.46879546 -55.5 23.875 C-41.83158204 10.88588595 -19.00354173 -0.17077815 0 0 Z " fill="#F2D15A" transform="translate(71,206)"/>
<path d="M0 0 C0.83778992 0.0028299 1.67557983 0.00565979 2.53875732 0.00857544 C5.20827663 0.01974901 7.8774575 0.04484829 10.546875 0.0703125 C12.35937015 0.08034596 14.17187056 0.08947117 15.984375 0.09765625 C20.42210954 0.11797555 24.85911448 0.15712909 29.296875 0.1953125 C29.296875 12.0753125 29.296875 23.9553125 29.296875 36.1953125 C14.446875 36.1953125 -0.403125 36.1953125 -15.703125 36.1953125 C-15.7959375 29.1725 -15.7959375 29.1725 -15.890625 22.0078125 C-15.91793701 20.53932861 -15.94524902 19.07084473 -15.97338867 17.55786133 C-15.98088135 16.39279053 -15.98837402 15.22771973 -15.99609375 14.02734375 C-16.01965942 12.24420776 -16.01965942 12.24420776 -16.04370117 10.42504883 C-15.66461067 6.83007521 -14.93009821 5.0219641 -12.703125 2.1953125 C-9.04400038 -0.69959209 -4.44360475 -0.0565899 0 0 Z " fill="#EFC01A" transform="translate(456.703125,251.8046875)"/>
<path d="M0 0 C5.43377825 3.21806285 10.49517629 8.07927886 12.51171875 14.12890625 C12.65819957 16.39654199 12.73268135 18.66922991 12.76171875 20.94140625 C12.7875 22.14410156 12.81328125 23.34679687 12.83984375 24.5859375 C12.2393064 31.07031099 9.23800331 34.86372263 4.51171875 39.12890625 C3.91359375 39.68578125 3.31546875 40.24265625 2.69921875 40.81640625 C-3.32720943 44.43226316 -9.79499392 44.78112312 -16.48828125 43.12890625 C-23.45436821 40.43460809 -27.54082576 35.3083679 -30.86328125 28.87890625 C-33.29259477 23.0031276 -32.67140442 17.89217375 -30.796875 11.9296875 C-28.44699572 6.3974605 -24.59823412 3.16130128 -19.48828125 0.12890625 C-13.51032322 -1.86374643 -5.97827811 -2.09286659 0 0 Z " fill="#34495D" transform="translate(499.48828125,0.87109375)"/>
<path d="M0 0 C5.94 0 11.88 0 18 0 C18 21.45 18 42.9 18 65 C12.06 65 6.12 65 0 65 C0 43.55 0 22.1 0 0 Z " fill="#BF3E30" transform="translate(262,135)"/>
<path d="M0 0 C14.85 0 29.7 0 45 0 C45 5.61 45 11.22 45 17 C44 18 44 18 42.20933533 18.12025452 C41.42990067 18.11803391 40.650466 18.11581329 39.84741211 18.11352539 C38.96657455 18.11344986 38.085737 18.11337433 37.1782074 18.11329651 C36.22092239 18.10813522 35.26363739 18.10297394 34.27734375 18.09765625 C33.30213272 18.0962413 32.32692169 18.09482635 31.32215881 18.09336853 C28.19390857 18.08775133 25.06572877 18.07519593 21.9375 18.0625 C19.82226666 18.05748722 17.70703219 18.05292393 15.59179688 18.04882812 C10.39450393 18.03777631 5.19726392 18.02050016 0 18 C0 12.06 0 6.12 0 0 Z " fill="#E35437" transform="translate(238,332)"/>
<path d="M0 0 C0.71353638 -0.00241196 1.42707275 -0.00482391 2.16223145 -0.00730896 C3.66501444 -0.0063331 5.16783454 0.0069986 6.67041016 0.03198242 C8.96251287 0.06631283 11.25075972 0.05262863 13.54296875 0.03320312 C15.00782881 0.04010207 16.47267897 0.04977492 17.9375 0.0625 C18.61784302 0.05754013 19.29818604 0.05258026 19.99914551 0.04747009 C24.72264517 0.16359327 27.19348735 1.23520096 30.46875 4.62890625 C31.59375 8.00390625 31.59375 8.00390625 31.46875 11.62890625 C29.74497791 14.65733721 27.62827697 17.04914276 24.46875 18.62890625 C20.11730386 18.91077264 15.76217041 18.9426023 11.40283203 18.97900391 C9.95377499 18.99552568 8.50479819 19.02276657 7.05615234 19.06103516 C4.9588833 19.11611301 2.86352212 19.13772328 0.765625 19.15234375 C-1.11624512 19.18207275 -1.11624512 19.18207275 -3.03613281 19.21240234 C-7.65668765 18.44101885 -9.25114375 16.91488363 -12.53125 13.62890625 C-13.29296875 11.56640625 -13.29296875 11.56640625 -13.21875 9.62890625 C-13.22261719 8.98953125 -13.22648438 8.35015625 -13.23046875 7.69140625 C-11.04864228 1.2556276 -6.16865207 -0.12021183 0 0 Z " fill="#3A495C" transform="translate(242.53125,225.37109375)"/>
<path d="M0 0 C14.85 0 29.7 0 45 0 C45 4.29 45 8.58 45 13 C30.15 13 15.3 13 0 13 C0 8.71 0 4.42 0 0 Z " fill="#C13D2A" transform="translate(238,367)"/>
<path d="M0 0 C14.19 0 28.38 0 43 0 C43 2.64 43 5.28 43 8 C28.81 8 14.62 8 0 8 C0 5.36 0 2.72 0 0 Z " fill="#C03A2B" transform="translate(239,341)"/>
<path d="M0 0 C3.3 0 6.6 0 10 0 C10 1.65 10 3.3 10 5 C5 3 5 3 0 1 C0 0.67 0 0.34 0 0 Z " fill="#E34A3A" transform="translate(476,288)"/>
</svg>
