<?xml version="1.0" encoding="UTF-8"?>
<svg version="1.1" xmlns="http://www.w3.org/2000/svg" width="512" height="512">
<path d="M0 0 C9.0843469 5.31372072 14.59856967 11.68400195 17.28125 21.8828125 C19.57730696 32.0662503 19.57730696 32.0662503 19.375 37.4375 C20.27412109 37.8396875 20.27412109 37.8396875 21.19140625 38.25 C28.2035382 42.06339555 32.71130331 50.8695904 34.92521667 58.27891541 C35.42327831 60.66919559 35.52359792 62.86534399 35.55200195 65.30688477 C35.56483719 66.27211563 35.57767242 67.2373465 35.59089661 68.23182678 C35.60197701 69.78963112 35.60197701 69.78963112 35.61328125 71.37890625 C35.621353 72.4569603 35.62942474 73.53501434 35.63774109 74.64573669 C35.65156856 76.92957966 35.66229669 79.21344318 35.67016602 81.49731445 C35.68166029 83.8199677 35.70207125 86.14259506 35.73168945 88.46508789 C35.77462303 91.83237549 35.79057354 95.19887797 35.80078125 98.56640625 C35.81828934 99.59077286 35.83579742 100.61513947 35.85383606 101.67054749 C35.82705699 110.70772133 33.77436876 119.3952926 27.8125 126.4375 C27.23371094 127.13875 26.65492188 127.84 26.05859375 128.5625 C22.87576357 132.10718326 22.87576357 132.10718326 21.375 133.4375 C20.715 133.4375 20.055 133.4375 19.375 133.4375 C19.375 143.9975 19.375 154.5575 19.375 165.4375 C22.675 165.7675 25.975 166.0975 29.375 166.4375 C32.1427002 167.01763916 32.1427002 167.01763916 34.29882812 167.66503906 C35.12668823 167.90909485 35.95454834 168.15315063 36.80749512 168.40460205 C37.66508423 168.66811462 38.52267334 168.9316272 39.40625 169.203125 C40.32281372 169.47840027 41.23937744 169.75367554 42.18371582 170.03729248 C44.10774127 170.61780963 46.03038191 171.2029349 47.95166016 171.79248047 C50.86354987 172.68399439 53.78082865 173.55581511 56.69921875 174.42578125 C58.58108529 174.9962223 60.46260783 175.56779972 62.34375 176.140625 C63.20133911 176.39604065 64.05892822 176.6514563 64.94250488 176.91461182 C77.29884186 180.74549114 87.01145829 185.82316705 93.375 197.4375 C95.44226664 202.64335998 97.11597344 207.81861727 98.4597168 213.25878906 C98.73835068 214.36281067 98.73835068 214.36281067 99.02261353 215.48913574 C99.62784928 217.89264703 100.22628026 220.29778885 100.82421875 222.703125 C101.245641 224.38611618 101.66734253 226.06903745 102.08930969 227.75189209 C102.96893085 231.26450282 103.8451691 234.77793523 104.71899414 238.29199219 C105.83901942 242.7949593 106.96753245 247.2957486 108.09855938 251.79596329 C108.96926586 255.26434193 109.83549002 258.73382788 110.70035744 262.20366669 C111.11482417 263.86419974 111.53068661 265.52438507 111.94797325 267.18421173 C112.52936656 269.49962959 113.1047071 271.81646959 113.6784668 274.13378906 C113.85141769 274.81749573 114.02436859 275.50120239 114.20256042 276.20562744 C114.99484035 279.43220335 115.375 282.08120151 115.375 285.4375 C116.08640137 285.69998535 116.79780273 285.9624707 117.53076172 286.23291016 C120.51741345 287.49781485 123.12593066 289.00362278 125.8828125 290.7109375 C126.94282471 291.36513672 128.00283691 292.01933594 129.0949707 292.69335938 C130.23006584 293.39960239 131.36507375 294.10598562 132.5 294.8125 C133.67066193 295.53735997 134.84148046 296.26196708 136.01245117 296.98632812 C142.92607182 301.26854795 149.81416303 305.59093669 156.6875 309.9375 C157.830979 310.65691772 157.830979 310.65691772 158.99755859 311.39086914 C162.42241715 313.54897345 165.82494478 315.72831346 169.18359375 317.98828125 C169.77035889 318.37371094 170.35712402 318.75914062 170.96166992 319.15625 C172.48831911 320.16012324 174.00263091 321.18269336 175.515625 322.20703125 C182.43370441 325.18407362 189.8854066 320.90406085 196.4609375 318.3984375 C204.13858959 316.07801518 211.67086997 318.92229009 218.9375 321.5 C219.75541016 321.78166016 220.57332031 322.06332031 221.41601562 322.35351562 C223.40523483 323.03985441 225.3905524 323.7374845 227.375 324.4375 C226.83233335 333.498244 225.15345183 342.25766027 223.3125 351.125 C223.02745056 352.5200712 222.74294179 353.91525299 222.45898438 355.31054688 C221.77053655 358.68749265 221.07483559 362.06289344 220.375 365.4375 C213.38418621 364.84636501 207.10154668 362.97886454 200.4375 360.83984375 C199.31682129 360.48612198 198.19614258 360.13240021 197.04150391 359.76795959 C193.48391503 358.64344311 189.92945607 357.50937528 186.375 356.375 C183.95462783 355.6080901 181.5340569 354.84180722 179.11328125 354.07617188 C173.19820022 352.20386793 167.28565545 350.32372546 161.375 348.4375 C161.72071045 349.04658203 162.0664209 349.65566406 162.42260742 350.28320312 C162.87482666 351.08693359 163.3270459 351.89066406 163.79296875 352.71875 C164.2418042 353.51345703 164.69063965 354.30816406 165.15307617 355.12695312 C169.15240442 362.68931928 169.35829588 370.36621946 167.25 378.5 C164.16518079 387.75445764 157.68580736 394.20636796 149.06770325 398.61883545 C146.53872257 399.72505252 143.99165752 400.75782898 141.421875 401.765625 C140.46566757 402.15193085 139.50946014 402.53823669 138.52427673 402.93624878 C135.39544569 404.19757731 132.26031829 405.44239561 129.125 406.6875 C126.91851852 407.57409442 124.71255219 408.46197188 122.50708008 409.35107422 C117.98859565 411.17154954 113.46801261 412.98665631 108.94580078 414.79785156 C102.00624257 417.58087254 95.08087551 420.39771784 88.16659546 423.24295044 C83.6361057 425.10682114 79.09933263 426.9492403 74.54199219 428.74658203 C66.54662337 431.92168907 58.72765138 435.12781322 51.17494202 439.26513672 C13.62153567 459.78624513 -28.14373228 455.17430984 -69.625 453.4375 C-69.73151382 452.77265594 -69.83802765 452.10781189 -69.94776917 451.42282104 C-71.50622814 442.90170726 -73.28217728 433.19483984 -80.09735107 427.29846191 C-87.38946464 422.83531891 -95.4940031 420.25723602 -103.5625 417.5625 C-105.91914059 416.70515614 -108.27270461 415.83930621 -110.62304688 414.96484375 C-115.29034374 413.24148804 -119.96910744 411.55900182 -124.66357422 409.91113281 C-131.59228971 407.46584676 -138.46976411 404.90847844 -145.31640625 402.2421875 C-146.32493149 401.86289093 -147.33345673 401.48359436 -148.37254333 401.09280396 C-156.73550998 397.79499989 -164.71619061 393.33867084 -169.125 385.1875 C-169.5890625 384.35734375 -170.053125 383.5271875 -170.53125 382.671875 C-173.9279394 375.73292381 -173.79306012 366.05895524 -171.90625 358.59375 C-169.88410773 353.83193111 -166.92932002 350.37221653 -163.625 346.4375 C-169.25877507 348.17829276 -174.89230622 349.91987216 -180.52563477 351.66210938 C-182.43279821 352.25183175 -184.3400225 352.84135742 -186.24731445 353.43066406 C-188.1001795 354.00318129 -189.9529525 354.57599651 -191.80563354 355.14910889 C-193.65852499 355.72218405 -195.51165488 356.29448884 -197.36502075 356.86602783 C-201.94565182 358.28209655 -206.5171871 359.72015016 -211.07568359 361.20605469 C-211.93941086 361.48569061 -212.80313812 361.76532654 -213.69303894 362.05343628 C-215.31690238 362.58070126 -216.93888517 363.11380835 -218.55854797 363.65383911 C-222.36486432 364.88609733 -225.56722855 365.76782458 -229.625 365.4375 C-230.62939982 360.56432913 -231.62605908 355.68966152 -232.61572266 350.81347656 C-232.9531408 349.15647201 -233.29263329 347.49988841 -233.63427734 345.84375 C-234.12629493 343.4568192 -234.61071866 341.06845091 -235.09375 338.6796875 C-235.24686646 337.94507294 -235.39998291 337.21045837 -235.55773926 336.45358276 C-236.37194932 332.38516537 -236.78474885 328.5852649 -236.625 324.4375 C-233.32297379 323.21939513 -230.00722493 322.04391723 -226.6875 320.875 C-225.76130859 320.53275391 -224.83511719 320.19050781 -223.88085938 319.83789062 C-213.76728762 316.32475517 -206.79119949 318.01503766 -197.04492188 321.796875 C-192.76557952 323.35299949 -189.98210036 323.81401069 -185.625 322.4375 C-182.70988458 320.91015237 -179.99124471 319.12996059 -177.25 317.3125 C-175.55919063 316.21782753 -173.86775352 315.12412419 -172.17578125 314.03125 C-170.8312085 313.15726562 -170.8312085 313.15726562 -169.45947266 312.265625 C-164.48720885 309.05870757 -159.46011936 305.93972387 -154.4375 302.8125 C-146.01094507 297.56010238 -146.01094507 297.56010238 -137.61328125 292.26171875 C-136.86780029 291.79008301 -136.12231934 291.31844727 -135.35424805 290.83251953 C-133.99010349 289.9686721 -132.62814046 289.1013662 -131.26879883 288.22998047 C-126.84887664 285.4375 -126.84887664 285.4375 -124.625 285.4375 C-124.49667786 284.27717758 -124.36835571 283.11685516 -124.23614502 281.92137146 C-123.71545836 277.77455845 -122.85556091 273.74868629 -121.84667969 269.69555664 C-121.66924728 268.9675737 -121.49181488 268.23959076 -121.30900574 267.48954773 C-120.72673759 265.10762872 -120.13741364 262.72753737 -119.546875 260.34765625 C-119.13426701 258.67671961 -118.72169023 257.00577527 -118.30914307 255.33482361 C-117.44516612 251.84154483 -116.57698616 248.34933876 -115.70654297 244.85766602 C-114.59737141 240.40462512 -113.50459855 235.94773373 -112.41572189 231.48969364 C-111.56999051 228.03947581 -110.71252472 224.59225083 -109.85190582 221.14571953 C-109.44419895 219.50469823 -109.0407444 217.86261389 -108.64180756 216.21943855 C-106.57937923 207.74333416 -104.5913596 199.76009688 -99.625 192.4375 C-99.0475 191.550625 -98.47 190.66375 -97.875 189.75 C-92.07428816 183.78815727 -85.09817604 180.47341285 -77.25 178.0625 C-76.36658936 177.78067871 -75.48317871 177.49885742 -74.57299805 177.20849609 C-71.59549901 176.26736945 -68.61083776 175.35180581 -65.625 174.4375 C-64.48853027 174.08300781 -63.35206055 173.72851562 -62.18115234 173.36328125 C-58.60392656 172.24951984 -55.02193592 171.15281711 -51.4375 170.0625 C-50.31617676 169.71654785 -49.19485352 169.3705957 -48.03955078 169.01416016 C-46.96044434 168.69237793 -45.88133789 168.3705957 -44.76953125 168.0390625 C-43.35184448 167.61101318 -43.35184448 167.61101318 -41.90551758 167.17431641 C-37.54950401 166.19593961 -33.06737865 165.88173787 -28.625 165.4375 C-28.625 154.8775 -28.625 144.3175 -28.625 133.4375 C-29.945 132.7775 -31.265 132.1175 -32.625 131.4375 C-34.31389872 130.1324419 -35.9853279 128.80389342 -37.625 127.4375 C-38.64207031 127.94410156 -38.64207031 127.94410156 -39.6796875 128.4609375 C-53.97827327 135.31316835 -67.41515502 136.23272206 -82.625 131.4375 C-86.07205836 129.95261332 -89.36662916 128.29837545 -92.625 126.4375 C-91.48347174 123.01291522 -91.03323874 122.8743789 -88.125 121.0625 C-78.63815907 114.16918393 -73.41185752 103.57482665 -70.625 92.4375 C-70.0138286 88.1718269 -69.76391847 83.92727284 -69.5625 79.625 C-67.67869608 50.00741616 -58.35523965 25.39349592 -36.8671875 4.3515625 C-27.0035516 -4.06861449 -11.62582037 -5.5403149 0 0 Z M-68.625 259.4375 C-68.95724579 260.30903717 -68.95724579 260.30903717 -69.29620361 261.19818115 C-73.4236783 271.79146811 -78.55632731 281.89733507 -83.59570312 292.07910156 C-84.78603036 294.48652329 -85.9644187 296.89924208 -87.1328125 299.31738281 C-88.83471464 302.83089491 -90.56269936 306.33045115 -92.296875 309.828125 C-92.81175476 310.90322327 -93.32663452 311.97832153 -93.8571167 313.08599854 C-97.82362675 320.97442633 -102.10841034 325.88965648 -110.47070312 329.03662109 C-111.77754363 329.444469 -113.08969751 329.83562221 -114.40625 330.2109375 C-115.10520386 330.42440826 -115.80415771 330.63787903 -116.52429199 330.8578186 C-118.72025325 331.52473311 -120.92209594 332.1689387 -123.125 332.8125 C-124.63065953 333.26542988 -126.13587302 333.71984532 -127.640625 334.17578125 C-131.29716523 335.2802176 -134.95915624 336.36436818 -138.625 337.4375 C-135.88378519 338.86645174 -133.15158267 339.99181071 -130.24609375 341.0390625 C-123.2578688 343.80771604 -117.03745553 347.84600831 -110.6875 351.8125 C-108.28500025 353.30346213 -105.87969034 354.78980801 -103.47265625 356.2734375 C-102.60575668 356.80877106 -102.60575668 356.80877106 -101.72134399 357.35491943 C-96.46143998 360.58194691 -91.0809929 363.55727083 -85.625 366.4375 C-70.97943681 356.41965108 -65.84153693 344.25882573 -60.6875 327.875 C-60.39131775 326.94497162 -60.0951355 326.01494324 -59.78997803 325.05673218 C-56.18103201 313.5551891 -53.69787137 302.4460699 -52.625 290.4375 C-52.47643555 289.252771 -52.32787109 288.06804199 -52.17480469 286.84741211 C-51.5752779 281.72194283 -51.88272259 278.14140063 -54.90625 273.91796875 C-57.60432257 270.54875703 -60.55202388 267.46371118 -63.625 264.4375 C-64.5796472 263.47938594 -65.53408929 262.52106744 -66.48828125 261.5625 C-67.19339844 260.86125 -67.89851563 260.16 -68.625 259.4375 Z M58.375 259.4375 C56.62414666 261.49928074 54.87429619 263.56189877 53.125 265.625 C52.63386719 266.20314453 52.14273437 266.78128906 51.63671875 267.37695312 C50.66486934 268.52373543 49.69752428 269.67435114 48.73486328 270.82885742 C47.53560246 272.24751623 46.29051889 273.6271649 45.0390625 275 C39.80580491 282.66561675 43.72344381 297.62531814 45.375 306.4375 C47.03304669 313.71444306 49.22534533 320.83333992 51.5 327.9375 C51.80235565 328.89050995 52.1047113 329.8435199 52.41622925 330.82540894 C56.95002527 344.85264032 61.76900932 357.83711414 75.375 365.4375 C76.14658447 365.87868164 76.91816895 366.31986328 77.71313477 366.77441406 C80.45903875 367.73744613 80.45903875 367.73744613 83.27490234 366.24682617 C84.32629395 365.58142822 85.37768555 364.91603027 86.4609375 364.23046875 C87.03533569 363.87423431 87.60973389 363.51799988 88.20153809 363.15097046 C90.06193138 361.99209916 91.90539085 360.80879883 93.75 359.625 C95.01979943 358.82938576 96.29079945 358.03568446 97.56298828 357.24389648 C100.05537499 355.68980522 102.54211895 354.12736629 105.0234375 352.55566406 C109.07441388 349.99547532 113.15002438 347.48070766 117.25 345 C118.31992187 344.34128906 119.38984375 343.68257813 120.4921875 343.00390625 C123.39757109 341.42523576 126.21070452 340.37734299 129.375 339.4375 C129.375 338.7775 129.375 338.1175 129.375 337.4375 C128.44751953 337.16599121 127.52003906 336.89448242 126.56445312 336.61474609 C123.085373 335.59145706 119.61319863 334.54621787 116.14257812 333.49462891 C114.6469454 333.04471527 113.14956381 332.60056945 111.65039062 332.16259766 C109.48068169 331.52759617 107.31836344 330.87127867 105.15625 330.2109375 C104.16824402 329.92928238 104.16824402 329.92928238 103.16027832 329.64193726 C94.99544646 327.09379955 89.95582139 323.04537693 85.83642578 315.49560547 C84.64257675 313.1063352 83.47289857 310.71333791 82.3203125 308.3046875 C81.6881163 307.02159957 81.05412153 305.73939641 80.41842651 304.45803833 C78.76066714 301.10460585 77.12727673 297.73987747 75.4989624 294.37207031 C73.83685203 290.9452815 72.15187382 287.52978391 70.46875 284.11328125 C67.51524442 278.11092292 64.58174504 272.09921958 61.66262817 266.08004761 C60.58026007 263.85874701 59.48535845 261.64490619 58.375 259.4375 Z " fill="#F1746A" transform="translate(260.625,26.5625)"/>
<path d="M0 0 C37.62 0 75.24 0 114 0 C116.64 7.92 119.28 15.84 122 24 C130.37550072 34.58618101 130.37550072 34.58618101 142 41 C145.03973699 39.8500458 145.03973699 39.8500458 148.0859375 37.79296875 C148.66033569 37.43673431 149.23473389 37.08049988 149.82653809 36.71347046 C151.68693138 35.55459916 153.53039085 34.37129883 155.375 33.1875 C156.64479943 32.39188576 157.91579945 31.59818446 159.18798828 30.80639648 C161.68037499 29.25230522 164.16711895 27.68986629 166.6484375 26.11816406 C170.69941388 23.55797532 174.77502438 21.04320766 178.875 18.5625 C179.94492187 17.90378906 181.01484375 17.24507813 182.1171875 16.56640625 C189.8833507 12.34658045 197.58040993 11.82241006 206.1640625 13.6875 C214.62751101 16.25867423 221.30817024 19.65403362 225.875 27.4375 C230.57823455 36.92314814 231.37973566 45.54829303 228.03515625 55.58203125 C223.79889747 65.47729232 215.45841473 71.30924479 205.74610901 75.26956177 C204.85536179 75.61888763 203.96461456 75.9682135 203.046875 76.328125 C202.09066757 76.71443085 201.13446014 77.10073669 200.14927673 77.49874878 C197.02044569 78.76007731 193.88531829 80.00489561 190.75 81.25 C188.54351852 82.13659442 186.33755219 83.02447188 184.13208008 83.91357422 C179.61359565 85.73404954 175.09301261 87.54915631 170.57080078 89.36035156 C163.63124257 92.14337254 156.70587551 94.96021784 149.79159546 97.80545044 C145.2611057 99.66932114 140.72433263 101.5117403 136.16699219 103.30908203 C128.17162337 106.48418907 120.35265138 109.69031322 112.79994202 113.82763672 C75.24653567 134.34874513 33.48126772 129.73680984 -8 128 C-8.10651382 127.33515594 -8.21302765 126.67031189 -8.32276917 125.98532104 C-9.88122814 117.46420726 -11.65717728 107.75733984 -18.47235107 101.86096191 C-25.76446464 97.39781891 -33.8690031 94.81973602 -41.9375 92.125 C-44.29414059 91.26765614 -46.64770461 90.40180621 -48.99804688 89.52734375 C-53.66534374 87.80398804 -58.34410744 86.12150182 -63.03857422 84.47363281 C-69.96728971 82.02834676 -76.84476411 79.47097844 -83.69140625 76.8046875 C-85.20419411 76.23574265 -85.20419411 76.23574265 -86.74754333 75.65530396 C-95.11050998 72.35749989 -103.09119061 67.90117084 -107.5 59.75 C-107.9640625 58.91984375 -108.428125 58.0896875 -108.90625 57.234375 C-112.30884798 50.2833534 -112.1048786 40.72568557 -110.3515625 33.2265625 C-109.41939797 30.95590531 -108.36456762 29.03868036 -107 27 C-106.54882812 26.30519531 -106.09765625 25.61039062 -105.6328125 24.89453125 C-100.19559771 17.68548775 -92.26324551 13.7421062 -83.3984375 12.4921875 C-69.9244212 12.05186017 -60.10323569 18.47841841 -49.0625 25.375 C-46.66000025 26.86596213 -44.25469034 28.35230801 -41.84765625 29.8359375 C-41.26972321 30.19282654 -40.69179016 30.54971558 -40.09634399 30.91741943 C-34.83643998 34.14444691 -29.4559929 37.11977083 -24 40 C-21.4250102 37.91227174 -18.9628756 35.71833476 -16.5 33.5 C-15.80390625 32.93796875 -15.1078125 32.3759375 -14.390625 31.796875 C-4.81292463 22.92863392 -4.50392484 13.51177451 0 0 Z " fill="#5D6FB2" transform="translate(199,352)"/>
<path d="M0 0 C9.0843469 5.31372072 14.59856967 11.68400195 17.28125 21.8828125 C19.57730696 32.0662503 19.57730696 32.0662503 19.375 37.4375 C19.97441406 37.705625 20.57382812 37.97375 21.19140625 38.25 C28.2035382 42.06339555 32.71130331 50.8695904 34.92521667 58.27891541 C35.42327831 60.66919559 35.52359792 62.86534399 35.55200195 65.30688477 C35.57125481 66.75473106 35.57125481 66.75473106 35.59089661 68.23182678 C35.59828354 69.27036301 35.60567047 70.30889923 35.61328125 71.37890625 C35.621353 72.4569603 35.62942474 73.53501434 35.63774109 74.64573669 C35.65156856 76.92957966 35.66229669 79.21344318 35.67016602 81.49731445 C35.68166029 83.8199677 35.70207125 86.14259506 35.73168945 88.46508789 C35.77462303 91.83237549 35.79057354 95.19887797 35.80078125 98.56640625 C35.81828934 99.59077286 35.83579742 100.61513947 35.85383606 101.67054749 C35.82705699 110.70772133 33.77436876 119.3952926 27.8125 126.4375 C27.23371094 127.13875 26.65492188 127.84 26.05859375 128.5625 C22.87576357 132.10718326 22.87576357 132.10718326 21.375 133.4375 C20.715 133.4375 20.055 133.4375 19.375 133.4375 C19.375 143.9975 19.375 154.5575 19.375 165.4375 C22.015 165.7675 24.655 166.0975 27.375 166.4375 C27.64867932 171.8264947 27.84728109 177.21138358 27.97924805 182.60571289 C28.0342865 184.43650809 28.10915181 186.26682584 28.20483398 188.09594727 C28.97494957 203.20586219 28.97494957 203.20586219 25.22680664 208.43383789 C22.39890288 210.76341727 19.53850859 212.59551793 16.375 214.4375 C14.66161723 215.72935774 12.96401802 217.04249309 11.28515625 218.37890625 C9.67145628 219.58885771 8.05559272 220.79592938 6.4375 222 C5.61443359 222.62712891 4.79136719 223.25425781 3.94335938 223.90039062 C3.14865234 224.49142578 2.35394531 225.08246094 1.53515625 225.69140625 C0.47760132 226.48526733 0.47760132 226.48526733 -0.60131836 227.29516602 C-2.625 228.4375 -2.625 228.4375 -6.625 228.4375 C-8.54101562 227.29516602 -8.54101562 227.29516602 -10.53125 225.69140625 C-11.27632813 225.10037109 -12.02140625 224.50933594 -12.7890625 223.90039062 C-13.55992187 223.27326172 -14.33078125 222.64613281 -15.125 222 C-16.63439682 220.79169366 -18.14483408 219.58468602 -19.65625 218.37890625 C-20.82365723 217.40642944 -20.82365723 217.40642944 -22.01464844 216.41430664 C-24.63758051 214.32754747 -24.63758051 214.32754747 -27.86816406 212.66186523 C-35.87659564 207.95161494 -35.87659564 207.95161494 -37.23730469 203.38058472 C-38.1205789 197.38755967 -37.71870416 191.3979291 -37.375 185.375 C-37.31473108 183.53728394 -37.2599914 181.69937774 -37.2109375 179.86132812 C-37.07942189 175.38198396 -36.8728865 170.91185141 -36.625 166.4375 C-33.985 166.1075 -31.345 165.7775 -28.625 165.4375 C-28.625 154.8775 -28.625 144.3175 -28.625 133.4375 C-29.945 132.7775 -31.265 132.1175 -32.625 131.4375 C-34.31389872 130.1324419 -35.9853279 128.80389342 -37.625 127.4375 C-38.64207031 127.94410156 -38.64207031 127.94410156 -39.6796875 128.4609375 C-53.97827327 135.31316835 -67.41515502 136.23272206 -82.625 131.4375 C-86.07205836 129.95261332 -89.36662916 128.29837545 -92.625 126.4375 C-91.48347174 123.01291522 -91.03323874 122.8743789 -88.125 121.0625 C-78.63815907 114.16918393 -73.41185752 103.57482665 -70.625 92.4375 C-70.0138286 88.1718269 -69.76391847 83.92727284 -69.5625 79.625 C-67.67869608 50.00741616 -58.35523965 25.39349592 -36.8671875 4.3515625 C-27.0035516 -4.06861449 -11.62582037 -5.5403149 0 0 Z " fill="#FCC8A5" transform="translate(260.625,26.5625)"/>
<path d="M0 0 C4.75193078 2.65778124 9.37761849 5.49956332 14 8.375 C15.21830383 9.12572454 16.43705203 9.87572844 17.65625 10.625 C20.02179776 12.07937559 22.3846766 13.53795292 24.74609375 14.99902344 C27.587405 16.74627637 30.44370243 18.46251526 33.3125 20.1640625 C36.33472006 21.96645243 39.27841837 23.83702764 42.1875 25.81640625 C48.61081983 30.14877236 55.32760576 34.00592545 62 37.9375 C64.86005832 39.62775177 67.71907564 41.31976105 70.578125 43.01171875 C71.29067444 43.43309113 72.00322388 43.8544635 72.73736572 44.28860474 C80.40734739 48.82678499 88.04643315 53.41570901 95.6796875 58.01538086 C96.60523438 58.57233643 97.53078125 59.12929199 98.484375 59.703125 C99.37447266 60.24130859 100.26457031 60.77949219 101.18164062 61.33398438 C103.22550998 62.54217603 105.28964068 63.71630071 107.36523438 64.86914062 C109.01749023 65.79243164 109.01749023 65.79243164 110.703125 66.734375 C111.71536133 67.28834961 112.72759766 67.84232422 113.77050781 68.41308594 C114.50624023 68.93676758 115.24197266 69.46044922 116 70 C116 70.99 116 71.98 116 73 C117.953125 72.47916667 119.90625 71.95833333 121.859375 71.4375 C124 71 124 71 128 71 C136 103.85934718 136 103.85934718 136 111 C109.27 111 82.54 111 55 111 C52.36 103.08 49.72 95.16 47 87 C42.31060549 83.0678509 40.67876597 81.85171596 35.28515625 80.1953125 C33.59319374 79.54935623 33.59319374 79.54935623 31.86705017 78.89035034 C28.29085873 77.54679435 24.68573175 76.33509566 21.0625 75.125 C18.70585941 74.26765614 16.35229539 73.40180621 14.00195312 72.52734375 C9.33465626 70.80398804 4.65589256 69.12150182 -0.03857422 67.47363281 C-6.96728971 65.02834676 -13.84476411 62.47097844 -20.69140625 59.8046875 C-22.20419411 59.23574265 -22.20419411 59.23574265 -23.74754333 58.65530396 C-32.11050998 55.35749989 -40.09119061 50.90117084 -44.5 42.75 C-44.9640625 41.91984375 -45.428125 41.0896875 -45.90625 40.234375 C-49.30884798 33.2833534 -49.1048786 23.72568557 -47.3515625 16.2265625 C-46.41939797 13.95590531 -45.36456762 12.03868036 -44 10 C-43.54882812 9.30519531 -43.09765625 8.61039062 -42.6328125 7.89453125 C-32.16916247 -5.97891518 -14.66640014 -7.12864864 0 0 Z " fill="#5D70B2" transform="translate(136,369)"/>
<path d="M0 0 C0.09943082 5.26524445 0.17173199 10.52993343 0.21972656 15.79589844 C0.23974959 17.58440684 0.26697654 19.37285054 0.30175781 21.16113281 C0.35068955 23.74300162 0.37306165 26.3239995 0.390625 28.90625 C0.41127014 29.69616333 0.43191528 30.48607666 0.45318604 31.29992676 C0.4552055 36.38117511 -0.52326986 39.85344768 -3.04107666 44.2767334 C-6.8610935 51.14162776 -5.7976851 61.41583184 -5 69 C-3.98390269 72.2010618 -2.83766604 74.76004084 -1.09375 77.61328125 C0.82146917 81.79256308 0.44765952 85.72423679 -1.05384827 90.00331116 C-1.54791672 91.00003342 -2.04198517 91.99675568 -2.55102539 93.02368164 C-3.10903336 94.16499039 -3.66704132 95.30629913 -4.24195862 96.48219299 C-4.85975381 97.70856929 -5.47833951 98.93454763 -6.09765625 100.16015625 C-6.73183268 101.43577525 -7.36523767 102.71177803 -7.99790955 103.98814392 C-9.32463504 106.65638855 -10.66150043 109.31923484 -12.00561523 111.97875977 C-13.71841994 115.3701537 -15.40387708 118.77429996 -17.08168888 122.18311405 C-18.38373558 124.82018218 -19.7009275 127.44946171 -21.0225811 130.0767498 C-21.64967433 131.32813513 -22.2719919 132.58192651 -22.88920784 133.83821297 C-26.92745007 142.03241442 -30.44446398 148.32327213 -38.83911133 152.36791992 C-40.19685669 152.79488159 -40.19685669 152.79488159 -41.58203125 153.23046875 C-42.59716797 153.55853516 -43.61230469 153.88660156 -44.65820312 154.22460938 C-45.69912109 154.54236328 -46.74003906 154.86011719 -47.8125 155.1875 C-48.84181641 155.51685547 -49.87113281 155.84621094 -50.93164062 156.18554688 C-53.94818016 157.14526818 -56.9726841 158.07492391 -60 159 C-60.91338135 159.28915283 -61.8267627 159.57830566 -62.76782227 159.8762207 C-67.30505287 161.29232076 -71.56397885 162.3407926 -76.3125 162.8125 C-81.05212201 163.47194363 -84.75616599 164.6413956 -89.02929688 166.77783203 C-95.92950604 170.06257614 -102.93355383 172.46337098 -110.21875 174.7421875 C-111.53357744 175.15905823 -112.84823057 175.5764791 -114.16271973 175.99441528 C-116.88705907 176.85852947 -119.61317567 177.71669105 -122.34082031 178.5703125 C-125.82867622 179.66228175 -129.31181868 180.76850522 -132.79381561 181.8789959 C-135.4944886 182.73876643 -138.1973296 183.59154347 -140.90089417 184.442173 C-142.80810076 185.04344854 -144.71357891 185.65019781 -146.61901855 186.25704956 C-148.35737976 186.79859177 -148.35737976 186.79859177 -150.13085938 187.35107422 C-151.14643921 187.67050995 -152.16201904 187.98994568 -153.20837402 188.31906128 C-155.92576808 188.98189321 -158.21671153 189.13446588 -161 189 C-162.00439982 184.12682913 -163.00105908 179.25216152 -163.99072266 174.37597656 C-164.3281408 172.71897201 -164.66763329 171.06238841 -165.00927734 169.40625 C-165.50129493 167.0193192 -165.98571866 164.63095091 -166.46875 162.2421875 C-166.62186646 161.50757294 -166.77498291 160.77295837 -166.93273926 160.01608276 C-167.74694932 155.94766537 -168.15974885 152.1477649 -168 148 C-164.69797379 146.78189513 -161.38222493 145.60641723 -158.0625 144.4375 C-157.13630859 144.09525391 -156.21011719 143.75300781 -155.25585938 143.40039062 C-145.14228762 139.88725517 -138.16619949 141.57753766 -128.41992188 145.359375 C-124.14057952 146.91549949 -121.35710036 147.37651069 -117 146 C-114.08488458 144.47265237 -111.36624471 142.69246059 -108.625 140.875 C-106.93419063 139.78032753 -105.24275352 138.68662419 -103.55078125 137.59375 C-102.65439941 137.01109375 -101.75801758 136.4284375 -100.83447266 135.828125 C-95.86220885 132.62120757 -90.83511936 129.50222387 -85.8125 126.375 C-77.38594507 121.12260238 -77.38594507 121.12260238 -68.98828125 115.82421875 C-68.24280029 115.35258301 -67.49731934 114.88094727 -66.72924805 114.39501953 C-65.36510349 113.5311721 -64.00314046 112.6638662 -62.64379883 111.79248047 C-58.22387664 109 -58.22387664 109 -56 109 C-55.87167786 107.83967758 -55.74335571 106.67935516 -55.61114502 105.48387146 C-55.09045836 101.33705845 -54.23056091 97.31118629 -53.22167969 93.25805664 C-53.04424728 92.5300737 -52.86681488 91.80209076 -52.68400574 91.05204773 C-52.10173759 88.67012872 -51.51241364 86.29003737 -50.921875 83.91015625 C-50.50926701 82.23921961 -50.09669023 80.56827527 -49.68414307 78.89732361 C-48.82016612 75.40404483 -47.95198616 71.91183876 -47.08154297 68.42016602 C-45.97237141 63.96712512 -44.87959855 59.51023373 -43.79072189 55.05219364 C-42.94499051 51.60197581 -42.08752472 48.15475083 -41.22690582 44.70821953 C-40.81919895 43.06719823 -40.4157444 41.42511389 -40.01680756 39.78193855 C-37.95437923 31.30583416 -35.9663596 23.32259688 -31 16 C-30.4225 15.113125 -29.845 14.22625 -29.25 13.3125 C-22.14503537 6.01017524 -10.40129861 0 0 0 Z " fill="#FCC9A5" transform="translate(192,203)"/>
<path d="M0 0 C11.14719886 1.48326667 22.39960926 5.12098124 29.7109375 14.1015625 C34.60620357 21.05045239 37.06133842 28.62960133 39.0847168 36.82128906 C39.27047272 37.55730347 39.45622864 38.29331787 39.64761353 39.05163574 C40.25284928 41.45514703 40.85128026 43.86028885 41.44921875 46.265625 C41.870641 47.94861618 42.29234253 49.63153745 42.71430969 51.31439209 C43.59393085 54.82700282 44.4701691 58.34043523 45.34399414 61.85449219 C46.46401942 66.3574593 47.59253245 70.8582486 48.72355938 75.35846329 C49.59426586 78.82684193 50.46049002 82.29632788 51.32535744 85.76616669 C51.73982417 87.42669974 52.15568661 89.08688507 52.57297325 90.74671173 C53.15436656 93.06212959 53.7297071 95.37896959 54.3034668 97.69628906 C54.47641769 98.37999573 54.64936859 99.06370239 54.82756042 99.76812744 C55.61984035 102.99470335 56 105.64370151 56 109 C57.06710205 109.39372803 57.06710205 109.39372803 58.15576172 109.79541016 C61.14241345 111.06031485 63.75093066 112.56612278 66.5078125 114.2734375 C67.56782471 114.92763672 68.62783691 115.58183594 69.7199707 116.25585938 C70.85506584 116.96210239 71.99007375 117.66848562 73.125 118.375 C74.29566193 119.09985997 75.46648046 119.82446708 76.63745117 120.54882812 C83.55107182 124.83104795 90.43916303 129.15343669 97.3125 133.5 C98.07481934 133.97961182 98.83713867 134.45922363 99.62255859 134.95336914 C103.04741715 137.11147345 106.44994478 139.29081346 109.80859375 141.55078125 C110.39535889 141.93621094 110.98212402 142.32164062 111.58666992 142.71875 C113.11331911 143.72262324 114.62763091 144.74519336 116.140625 145.76953125 C123.05870441 148.74657362 130.5104066 144.46656085 137.0859375 141.9609375 C144.76358959 139.64051518 152.29586997 142.48479009 159.5625 145.0625 C160.38041016 145.34416016 161.19832031 145.62582031 162.04101562 145.91601562 C164.03023483 146.60235441 166.0155524 147.2999845 168 148 C167.45733335 157.060744 165.77845183 165.82016027 163.9375 174.6875 C163.65245056 176.0825712 163.36794179 177.47775299 163.08398438 178.87304688 C162.39553655 182.24999265 161.69983559 185.62539344 161 189 C153.88994747 188.39992297 147.44400133 186.4918114 140.65234375 184.359375 C139.48167862 183.99531555 138.31101349 183.6312561 137.10487366 183.25616455 C134.63869536 182.48638632 132.17366073 181.71293555 129.7097168 180.93603516 C125.95076851 179.7541718 122.18572561 178.59339935 118.41992188 177.43359375 C116.01782742 176.68096853 113.616121 175.9271035 111.21484375 175.171875 C110.0948851 174.82896423 108.97492645 174.48605347 107.82102966 174.13275146 C101.6651248 172.1674088 97.04954242 170.03417312 92 166 C87.0615128 163.76310947 82.07132664 162.92912586 76.68359375 162.71484375 C69.43316094 162.15502063 62.74868029 160.17594059 55.86230469 157.98168945 C53.74489636 157.31088314 51.61967885 156.67120599 49.4921875 156.03320312 C48.11400876 155.60340057 46.73638295 155.17182014 45.359375 154.73828125 C44.13702148 154.35712158 42.91466797 153.97596191 41.65527344 153.58325195 C33.40135158 150.00813285 28.98814898 145.46562511 25.1640625 137.421875 C24.54454208 136.18313629 24.54454208 136.18313629 23.9125061 134.91937256 C23.03905159 133.1720529 22.17319434 131.42091698 21.3145752 129.66625977 C19.58691136 126.16216157 17.78726176 122.69744256 15.98773193 119.2298584 C14.20524501 115.78380907 12.45191089 112.3233447 10.70068359 108.86132812 C9.80454946 107.09612541 8.90269703 105.33381584 7.99560547 103.57421875 C6.6580489 100.97798106 5.33895818 98.37308316 4.0234375 95.765625 C3.61733246 94.98640686 3.21122742 94.20718872 2.79281616 93.40435791 C0.47514054 88.75201481 -0.54854668 85.3192278 0 80 C1.09375 77.61328125 1.09375 77.61328125 2.5 75.3125 C6.80815086 66.45071961 6.50130803 54.96501853 4.125 45.5234375 C2.57761577 41.44775869 2.57761577 41.44775869 0 38 C-0.08861992 35.1883662 -0.11522355 32.40141745 -0.09765625 29.58984375 C-0.0962413 28.74780899 -0.09482635 27.90577423 -0.09336853 27.03822327 C-0.08775263 24.33794665 -0.07519748 21.63775172 -0.0625 18.9375 C-0.05748705 17.11132932 -0.05292379 15.28515734 -0.04882812 13.45898438 C-0.03777804 8.97262458 -0.02050279 4.48632616 0 0 Z " fill="#FCC8A5" transform="translate(320,203)"/>
<path d="M0 0 C9.0843469 5.31372072 14.59856967 11.68400195 17.28125 21.8828125 C19.57730696 32.0662503 19.57730696 32.0662503 19.375 37.4375 C19.97441406 37.705625 20.57382812 37.97375 21.19140625 38.25 C28.22020814 42.07246114 32.62480302 50.82747985 34.93017578 58.21704102 C35.47821604 60.95273046 35.48689254 63.50656297 35.47265625 66.296875 C35.46943359 67.41191406 35.46621094 68.52695313 35.46289062 69.67578125 C35.45451172 70.83464844 35.44613281 71.99351563 35.4375 73.1875 C35.43298828 74.36183594 35.42847656 75.53617187 35.42382812 76.74609375 C35.41205094 79.64328072 35.39560326 82.54036454 35.375 85.4375 C7.63786067 87.12548123 -20.0540324 75.29962852 -41.625 58.4375 C-43.68201417 61.52302126 -43.88017362 62.20812909 -43.91552734 65.70263672 C-43.92828705 66.56138397 -43.94104675 67.42013123 -43.95419312 68.30490112 C-43.95641876 69.23295563 -43.95864441 70.16101013 -43.9609375 71.1171875 C-43.9675943 72.08093292 -43.9742511 73.04467834 -43.98110962 74.03762817 C-43.99124493 76.0836598 -43.99592637 78.12972454 -43.99560547 80.17578125 C-43.99993514 83.26620389 -44.03612353 86.3551468 -44.07421875 89.4453125 C-44.23901839 106.49230931 -44.23901839 106.49230931 -37.92724609 122.08544922 C-37.49750488 122.86162598 -37.06776367 123.63780273 -36.625 124.4375 C-37.625 127.4375 -37.625 127.4375 -39.77734375 128.75390625 C-54.16036959 135.18894866 -67.47006703 136.2154099 -82.625 131.4375 C-86.07205836 129.95261332 -89.36662916 128.29837545 -92.625 126.4375 C-91.48347174 123.01291522 -91.03323874 122.8743789 -88.125 121.0625 C-78.63815907 114.16918393 -73.41185752 103.57482665 -70.625 92.4375 C-70.0138286 88.1718269 -69.76391847 83.92727284 -69.5625 79.625 C-67.67869608 50.00741616 -58.35523965 25.39349592 -36.8671875 4.3515625 C-27.0035516 -4.06861449 -11.62582037 -5.5403149 0 0 Z " fill="#683B0D" transform="translate(260.625,26.5625)"/>
<path d="M0 0 C31.68 0 63.36 0 96 0 C96.99 11.88 96.99 11.88 98 24 C98.92098791 28.17307733 99.76689035 31.84539025 101.125 35.8125 C101.67213496 37.52643208 102.21654421 39.24123742 102.7578125 40.95703125 C102.9964502 41.66835205 103.23508789 42.37967285 103.48095703 43.11254883 C104 45 104 45 104 48 C67.04 48 30.08 48 -8 48 C-6.79816147 42.59172659 -5.60845667 37.65870114 -4 32.4375 C-1.4872506 21.83683849 -0.90473061 10.85676732 0 0 Z " fill="#FDC9A6" transform="translate(208,304)"/>
<path d="M0 0 C3.39310666 1.13103555 3.73646635 1.68253145 5.59375 4.5703125 C6.06683594 5.3025 6.53992188 6.0346875 7.02734375 6.7890625 C7.75630859 7.94535156 7.75630859 7.94535156 8.5 9.125 C9.22896484 10.24648437 9.22896484 10.24648437 9.97265625 11.390625 C14.54934893 18.548722 17 23.19240593 17 32 C27.56 32 38.12 32 49 32 C45.0230881 43.93073569 39.58817739 56.84175014 28.04907227 63.04956055 C23.48807281 64.47128934 19.04458145 64.32535191 14.29296875 64.3359375 C13.25360672 64.3425943 12.21424469 64.3492511 11.14338684 64.35610962 C8.94709031 64.36622098 6.75076314 64.37092711 4.55444336 64.37060547 C1.20960308 64.37497115 -2.13390926 64.41128743 -5.47851562 64.44921875 C-7.61718301 64.45508884 -9.75585663 64.45905695 -11.89453125 64.4609375 C-12.8874971 64.47530853 -13.88046295 64.48967957 -14.90351868 64.50448608 C-22.14680961 64.45728493 -27.21376274 62.86005398 -32.99609375 58.4921875 C-38.32208063 52.51669002 -47 40.29829557 -47 32 C-36.44 32 -25.88 32 -15 32 C-15 29.69 -15 27.38 -15 25 C-11.79425204 15.82276074 -5.66595639 7.80642881 0 0 Z " fill="#019E34" transform="translate(71,168)"/>
<path d="M0 0 C3.39310666 1.13103555 3.73646635 1.68253145 5.59375 4.5703125 C6.06683594 5.3025 6.53992188 6.0346875 7.02734375 6.7890625 C7.75630859 7.94535156 7.75630859 7.94535156 8.5 9.125 C9.22896484 10.24648437 9.22896484 10.24648437 9.97265625 11.390625 C14.54934893 18.548722 17 23.19240593 17 32 C27.56 32 38.12 32 49 32 C45.0230881 43.93073569 39.58817739 56.84175014 28.04907227 63.04956055 C23.48807281 64.47128934 19.04458145 64.32535191 14.29296875 64.3359375 C13.25360672 64.3425943 12.21424469 64.3492511 11.14338684 64.35610962 C8.94709031 64.36622098 6.75076314 64.37092711 4.55444336 64.37060547 C1.20960308 64.37497115 -2.13390926 64.41128743 -5.47851562 64.44921875 C-7.61718301 64.45508884 -9.75585663 64.45905695 -11.89453125 64.4609375 C-12.8874971 64.47530853 -13.88046295 64.48967957 -14.90351868 64.50448608 C-22.14680961 64.45728493 -27.21376274 62.86005398 -32.99609375 58.4921875 C-38.32208063 52.51669002 -47 40.29829557 -47 32 C-36.44 32 -25.88 32 -15 32 C-15 29.69 -15 27.38 -15 25 C-11.79425204 15.82276074 -5.66595639 7.80642881 0 0 Z " fill="#FAB43F" transform="translate(439,160)"/>
<path d="M0 0 C0.85078125 0.36738281 1.7015625 0.73476563 2.578125 1.11328125 C3.89907397 1.61201395 5.22223123 2.1049153 6.546875 2.59375 C7.27527588 2.8724292 8.00367676 3.1511084 8.75415039 3.43823242 C16.86990068 6.45041288 22.86779474 7.88024607 31.42578125 5.64306641 C35.3212856 4.68421382 39.26408585 3.94908435 43.19897461 3.17114258 C45.46736457 2.72106904 47.73389181 2.26148781 49.99829102 1.79174805 C51.57114868 1.46750854 51.57114868 1.46750854 53.17578125 1.13671875 C54.11945557 0.93997559 55.06312988 0.74323242 56.03540039 0.54052734 C58.578125 0.11328125 58.578125 0.11328125 62.578125 0.11328125 C70.578125 32.97262843 70.578125 32.97262843 70.578125 40.11328125 C43.848125 40.11328125 17.118125 40.11328125 -10.421875 40.11328125 C-17.421875 19.11328125 -17.421875 19.11328125 -16.421875 14.11328125 C-14.48276609 11.36680834 -12.05804642 9.10030114 -9.671875 6.73828125 C-9.05054688 6.08472656 -8.42921875 5.43117188 -7.7890625 4.7578125 C-3.19016993 0.14921763 -3.19016993 0.14921763 0 0 Z " fill="#FBC8A6" transform="translate(201.421875,439.88671875)"/>
<path d="M0 0 C1.32 0 2.64 0 4 0 C4 0.66 4 1.32 4 2 C5.05658813 2.39239868 5.05658813 2.39239868 6.13452148 2.79272461 C9.20821387 4.08772408 11.97165908 5.62721936 14.84765625 7.31640625 C15.4087056 7.64501648 15.96975494 7.97362671 16.54780579 8.31219482 C18.38825168 9.39191132 20.22546578 10.47699057 22.0625 11.5625 C23.34777515 12.31867807 24.63309483 13.07478046 25.91845703 13.83081055 C36.30135078 19.94952532 46.6155488 26.18037978 56.89868164 32.46508789 C59.02689447 33.76504365 61.15702815 35.06186277 63.28955078 36.35473633 C64.90331897 37.33430612 66.5127905 38.32110142 68.11279297 39.32299805 C73.82960167 42.80631035 78.94469688 43.80039463 85.59716797 42.69140625 C93.58411274 40.3931917 100.67471951 34.95642409 107.57093811 30.47637939 C114.20367707 26.17983546 121.01421238 22.18913403 127.82424927 18.18203735 C130.5465465 16.57881984 133.26425056 14.96795091 135.98060608 13.35469055 C137.24587201 12.60421906 138.5123939 11.85586038 139.78025818 11.10978699 C142.54834925 9.47777723 145.28427551 7.81663695 147.98486328 6.07470703 C149.29366455 5.23528564 149.29366455 5.23528564 150.62890625 4.37890625 C151.36310791 3.89107666 152.09730957 3.40324707 152.85375977 2.90063477 C155.59794249 1.74908317 157.19137027 2.18182993 160 3 C160 4.32 160 5.64 160 7 C157.9375 8.71313477 157.9375 8.71313477 155 10.44140625 C153.35076538 11.42669312 153.35076538 11.42669312 151.66821289 12.43188477 C150.44561011 13.14232197 149.22286856 13.85252038 148 14.5625 C146.74455252 15.30584598 145.48992724 16.05058213 144.23608398 16.79663086 C141.56429696 18.38300637 138.8875327 19.96047825 136.20654297 21.53125 C131.95190908 24.02491373 127.71095948 26.5412037 123.47265625 29.0625 C119.35216908 31.5135511 115.23153365 33.9642344 111.10351562 36.40258789 C110.46798264 36.77842514 109.83244965 37.15426239 109.17765808 37.54148865 C107.92742063 38.28051046 106.67654658 39.01845649 105.42500305 39.75526428 C102.39212932 41.54837342 99.39089505 43.37514887 96.4284668 45.28271484 C95.56571388 45.83299599 95.56571388 45.83299599 94.68553162 46.39439392 C93.12735511 47.39322209 91.57749354 48.40498869 90.02832031 49.41772461 C84.96213232 52.06477108 79.64513923 52.63043278 74 53 C74 52.01 74 51.02 74 50 C73.27522461 49.72631592 72.55044922 49.45263184 71.80371094 49.1706543 C69.09621593 48.04017375 66.67012392 46.75169835 64.140625 45.26953125 C63.20275146 44.72167969 62.26487793 44.17382812 61.29858398 43.609375 C60.29255127 43.01640625 59.28651855 42.4234375 58.25 41.8125 C56.66457397 40.88244141 56.66457397 40.88244141 55.04711914 39.93359375 C35.57870256 28.48783685 16.27334757 16.77038128 -3 5 C-1.125 1.125 -1.125 1.125 0 0 Z " fill="#4262A9" transform="translate(178,389)"/>
<path d="M0 0 C10.56 0 21.12 0 32 0 C32.99 4.95 33.98 9.9 35 15 C37.25964126 19.33926925 37.25964126 19.33926925 38.9140625 21.484375 C40 23 40 23 41 26 C41.639375 26.309375 42.27875 26.61875 42.9375 26.9375 C45.47802844 28.24625707 45.85331176 29.45466064 47 32 C43.33360752 32.11728126 39.6677048 32.18760891 36 32.25 C34.97003906 32.28351563 33.94007813 32.31703125 32.87890625 32.3515625 C25.17082363 32.44975464 20.14461564 31.13076641 14.00390625 26.4921875 C8.67791937 20.51669002 0 8.29829557 0 0 Z " fill="#EA9D2D" transform="translate(392,192)"/>
<path d="M0 0 C10.56 0 21.12 0 32 0 C28.40180809 10.79457573 23.26088351 23.97277371 13 30 C9.33605147 31.70439069 6.51159651 32.24035303 2.48046875 32.1953125 C0.9480957 32.18564453 0.9480957 32.18564453 -0.61523438 32.17578125 C-1.67033203 32.15902344 -2.72542969 32.14226562 -3.8125 32.125 C-4.88693359 32.11597656 -5.96136719 32.10695312 -7.06835938 32.09765625 C-9.71246854 32.07415306 -12.35611872 32.04129575 -15 32 C-14.04565501 30.71511658 -13.08959512 29.43150678 -12.1328125 28.1484375 C-11.33447998 27.07601807 -11.33447998 27.07601807 -10.52001953 25.98193359 C-9 24 -9 24 -6.875 21.625 C-1.99031533 14.78644146 -0.92942153 8.3647938 0 0 Z " fill="#019532" transform="translate(88,200)"/>
<path d="M0 0 C10.56 0 21.12 0 32 0 C28.40180809 10.79457573 23.26088351 23.97277371 13 30 C9.33605147 31.70439069 6.51159651 32.24035303 2.48046875 32.1953125 C0.9480957 32.18564453 0.9480957 32.18564453 -0.61523438 32.17578125 C-1.67033203 32.15902344 -2.72542969 32.14226562 -3.8125 32.125 C-4.88693359 32.11597656 -5.96136719 32.10695312 -7.06835938 32.09765625 C-9.71246854 32.07415306 -12.35611872 32.04129575 -15 32 C-14.04565501 30.71511658 -13.08959512 29.43150678 -12.1328125 28.1484375 C-11.33447998 27.07601807 -11.33447998 27.07601807 -10.52001953 25.98193359 C-9 24 -9 24 -6.875 21.625 C-1.99031533 14.78644146 -0.92942153 8.3647938 0 0 Z " fill="#EA9D2D" transform="translate(456,192)"/>
<path d="M0 0 C0.64066406 0.33773437 1.28132812 0.67546875 1.94140625 1.0234375 C12.36340187 6.39752168 22.40014287 9.17135696 34.140625 6.20703125 C38.92979751 4.49941646 43.52843272 2.4170634 48 0 C48.68898873 5.08129185 48.68898873 5.08129185 48 8 C45.69939775 10.4171661 43.02499544 11.65781715 40 13 C39.32582031 13.3196875 38.65164063 13.639375 37.95703125 13.96875 C29.41404271 17.43082416 19.63846159 17.22756237 11 14.25 C9.31820995 13.53455608 7.64919534 12.78767539 6 12 C5.33613281 11.71125 4.67226562 11.4225 3.98828125 11.125 C2.3125 10.25 2.3125 10.25 0 8 C-0.49802791 5.15412624 -0.29197583 2.91975834 0 0 Z " fill="#F6BB92" transform="translate(232,160)"/>
</svg>
