<?xml version="1.0" encoding="UTF-8"?>
<svg version="1.1" xmlns="http://www.w3.org/2000/svg" width="512" height="512">
<path d="M0 0 C3.48209317 0.00478262 6.96413382 -0.00782269 10.44620943 -0.01801741 C17.24734619 -0.03511307 24.04839018 -0.03606464 30.84954283 -0.03080451 C36.38484915 -0.02674369 41.92012832 -0.02822891 47.45543337 -0.03355277 C48.24679511 -0.03430119 49.03815685 -0.03504961 49.85349925 -0.03582071 C51.46177608 -0.03735238 53.07005291 -0.03889073 54.67832974 -0.04043568 C69.72213716 -0.05412771 84.76589241 -0.04874665 99.80969861 -0.03725047 C113.53012424 -0.02732494 127.25041487 -0.04025286 140.97081968 -0.06418466 C155.10563188 -0.08865088 169.24038141 -0.09816492 183.37521434 -0.09153193 C191.29210524 -0.08805592 199.2088925 -0.09016367 207.12576723 -0.10778296 C213.86618255 -0.12259964 220.60642124 -0.12301839 227.34683344 -0.10571205 C230.77628414 -0.09727601 234.20542062 -0.09486733 237.63485384 -0.1103636 C256.2259315 -0.17678101 274.3338109 0.71495553 291.83774996 7.59433305 C292.60812593 7.88912553 293.37850191 8.18391801 294.17222261 8.4876436 C325.37503496 20.86426764 350.65048267 45.68840576 364.20884371 76.31210649 C365.74160768 79.96519395 367.11248745 83.66083623 368.40024996 87.40683305 C368.63075045 88.06925004 368.86125093 88.73166704 369.09873629 89.41415727 C374.33453998 105.60034731 374.53369363 121.45944698 374.49458301 138.31908309 C374.48980039 141.80117627 374.5024057 145.28321691 374.51260042 148.76529253 C374.52969608 155.56642928 374.53064765 162.36747328 374.52538752 169.16862592 C374.5213267 174.70393225 374.52281192 180.23921141 374.52813578 185.77451646 C374.5288842 186.5658782 374.52963262 187.35723994 374.53040372 188.17258234 C374.53193539 189.78085918 374.53347374 191.38913601 374.53501869 192.99741283 C374.54871072 208.04122025 374.54332966 223.08497551 374.53183348 238.12878171 C374.52190795 251.84920733 374.53483587 265.56949796 374.55876767 279.28990278 C374.58323389 293.42471498 374.59274793 307.55946451 374.58611494 321.69429743 C374.58263893 329.61118834 374.58474668 337.52797559 374.60236597 345.44485033 C374.61718265 352.18526564 374.6176014 358.92550433 374.60029506 365.66591653 C374.59185902 369.09536723 374.58945034 372.52450372 374.60494661 375.95393693 C374.67136403 394.5450146 373.77962748 412.652894 366.90024996 430.15683305 C366.60545748 430.92720903 366.310665 431.69758501 366.00693941 432.49130571 C356.13486544 457.37987552 337.96730112 479.44357757 315.08774996 493.40683305 C314.01524996 494.09003618 312.94274996 494.7732393 311.83774996 495.47714555 C305.45004956 499.3659539 298.94823783 502.48484403 291.96274996 505.15683305 C291.27874117 505.42640825 290.59473238 505.69598344 289.88999605 505.97372758 C271.57496724 512.61625088 252.95550458 512.98750368 233.69712496 512.92441118 C230.88921006 512.92764626 228.08132106 512.93682879 225.2734189 512.94565141 C218.48616735 512.96329401 211.69909425 512.95966107 204.91183615 512.94800085 C199.38806192 512.93890996 193.86433716 512.93776673 188.34055758 512.94209611 C187.54973779 512.94270905 186.75891801 512.94332198 185.944134 512.94395348 C184.33682329 512.94523258 182.7295126 512.94652944 181.12220192 512.94784385 C166.10506253 512.95920786 151.08802133 512.94620193 136.07089806 512.92464238 C123.22881 512.90677521 110.38686666 512.9098805 97.54478121 512.92831743 C82.57569806 512.94979842 67.60670065 512.95810962 52.63760424 512.94586837 C51.03671695 512.94459438 49.43582965 512.9433369 47.83494234 512.94209611 C47.04759258 512.94147901 46.26024282 512.94086191 45.44903398 512.94022611 C39.94182532 512.93679481 34.43467175 512.94255319 28.92747164 512.95201433 C22.20178323 512.96331652 15.47628117 512.96002387 8.75061369 512.93889135 C5.32917146 512.92848977 1.90829014 512.92627884 -1.51318693 512.93748796 C-22.88729031 513.00100847 -42.22548579 511.05828192 -61.91225004 502.40683305 C-62.56644926 502.12356157 -63.22064848 501.84029008 -63.89467192 501.54843462 C-93.98974488 488.26256094 -117.69643593 462.6852702 -129.78334379 432.21054399 C-130.63388989 429.95385314 -131.44074075 427.68745259 -132.22475004 425.40683305 C-132.57050077 424.41320756 -132.57050077 424.41320756 -132.92323637 423.39950883 C-138.15904006 407.2133188 -138.35819372 391.35421913 -138.31908309 374.49458301 C-138.31430048 371.01248984 -138.32690578 367.53044919 -138.33710051 364.04837358 C-138.35419617 357.24723682 -138.35514773 350.44619283 -138.3498876 343.64504018 C-138.34582678 338.10973386 -138.347312 332.5744547 -138.35263586 327.03914964 C-138.35338428 326.2477879 -138.3541327 325.45642616 -138.35490381 324.64108376 C-138.35643548 323.03280693 -138.35797382 321.4245301 -138.35951877 319.81625327 C-138.3732108 304.77244585 -138.36782974 289.7286906 -138.35633356 274.6848844 C-138.34640804 260.96445877 -138.35933595 247.24416814 -138.38326775 233.52376333 C-138.40773398 219.38895113 -138.41724801 205.2542016 -138.41061503 191.11936867 C-138.40713902 183.20247777 -138.40924677 175.28569051 -138.42686605 167.36881578 C-138.44168273 160.62840046 -138.44210148 153.88816178 -138.42479514 147.14774957 C-138.41635911 143.71829887 -138.41395042 140.28916239 -138.4294467 136.85972917 C-138.49586411 118.26865151 -137.60412757 100.16077211 -130.72475004 82.65683305 C-130.42995756 81.88645708 -130.13516508 81.1160811 -129.8314395 80.3223604 C-117.45481545 49.11954805 -92.63067734 23.84410034 -62.0069766 10.2857393 C-58.35388915 8.75297533 -54.65824686 7.38209556 -50.91225004 6.09433305 C-49.91862455 5.74858232 -49.91862455 5.74858232 -48.90492582 5.39584672 C-32.71873579 0.16004303 -16.85963612 -0.03911062 0 0 Z " fill="#D5002B" transform="translate(137.91225004196167,-0.40683305263519287)"/>
<path d="M0 0 C2.76455213 -0.00572234 5.52908467 -0.0158484 8.29362488 -0.02566528 C14.98913802 -0.04658765 21.68456433 -0.05126789 28.38010633 -0.0494774 C33.82725212 -0.04816356 39.27437109 -0.05200537 44.72151184 -0.05940247 C46.29767497 -0.06150191 47.8738381 -0.06359951 49.45000124 -0.06569529 C50.62715554 -0.06726058 50.62715554 -0.06726058 51.82809073 -0.06885749 C66.62617348 -0.08770516 81.42420652 -0.08672596 96.2222963 -0.07988816 C109.72882158 -0.07431147 123.23515726 -0.0951533 136.74163824 -0.12824863 C150.65043094 -0.16206229 164.55913298 -0.17714479 178.46796751 -0.1725316 C186.26068242 -0.17029534 194.05322195 -0.1754065 201.84590149 -0.20042419 C208.47776251 -0.2215364 215.10935185 -0.22493137 221.74122441 -0.2061246 C225.11770887 -0.19702862 228.49327816 -0.19839412 231.86978722 -0.21648026 C245.92396857 -0.28653242 258.38195672 -0.13940777 271.45898438 5.41992188 C272.0875191 5.68393704 272.71605383 5.94795221 273.36363506 6.21996784 C283.16115106 10.37111151 290.12680544 15.92334431 297.45898438 23.41992188 C298.12542969 24.05414062 298.791875 24.68835938 299.47851562 25.34179688 C312.73432824 38.86691494 316.85155107 58.32223883 316.66992188 76.52148438 C315.59045181 96.47169043 306.43536601 113.38872657 292.21289062 127.06835938 C276.09523107 140.8312403 257.4060225 144.7221189 236.85449219 144.70703125 C235.17969431 144.71306357 233.50489946 144.71998986 231.83010864 144.72773743 C228.23708464 144.74257146 224.64411567 144.75136188 221.05106354 144.75544739 C215.35908023 144.76219333 209.66721387 144.78398665 203.97528076 144.8079834 C191.88654281 144.85684994 179.79778004 144.88921867 167.70898438 144.91992188 C154.66920737 144.95306799 141.62947646 144.98915057 128.58977008 145.0440526 C122.94256264 145.06727001 117.29543659 145.08110925 111.64818621 145.0875473 C108.12068853 145.09352663 104.59325604 145.10765802 101.06579208 145.12389183 C99.44257081 145.1297195 97.81933344 145.13225023 96.19610214 145.13105202 C86.78804306 145.12609143 77.73493665 145.65143377 68.45898438 147.41992188 C82.99728309 156.43344338 97.55734672 165.41114952 112.12841797 174.37158203 C117.57266005 177.71985876 123.01577328 181.06996947 128.45898438 184.41992188 C130.62564545 185.75326429 132.79231212 187.08659762 134.95898438 188.41992188 C147.95898438 196.41992188 160.95898438 204.41992188 173.95898438 212.41992188 C175.03301514 213.08080811 176.1070459 213.74169434 177.21362305 214.42260742 C179.36502897 215.74666158 181.51623574 217.0710394 183.66723633 218.39575195 C188.71473103 221.50375859 193.76409446 224.6085853 198.82077026 227.70162964 C201.19291657 229.1528934 203.56390696 230.60603971 205.93481445 232.05932617 C207.59604793 233.07653846 209.25893637 234.09104644 210.921875 235.10546875 C227.57256773 245.31550038 227.57256773 245.31550038 229.45898438 250.41992188 C230.21482825 256.50446511 230.16364899 261.34325629 226.84448242 266.71484375 C224.19904876 269.97047524 220.72753102 271.88274345 217.14648438 273.98242188 C216.31616699 274.48781494 215.48584961 274.99320801 214.63037109 275.51391602 C212.8433377 276.59940888 211.05182934 277.67756246 209.25634766 278.74902344 C206.43732578 280.43285881 203.63212974 282.13770148 200.83007812 283.84960938 C196.95896478 286.2141505 193.08380002 288.57178921 189.20507812 290.92382812 C183.83428643 294.18553359 178.48595662 297.48224882 173.14648438 300.79492188 C165.36419883 305.6227597 157.57211115 310.43426766 149.77148438 315.23242188 C148.67989014 315.9038623 147.5882959 316.57530273 146.46362305 317.26708984 C144.23897613 318.63532519 142.01428516 320.00348891 139.78955078 321.37158203 C135.42508897 324.05578043 131.06135546 326.7411612 126.69775391 329.42675781 C124.53610419 330.75705393 122.37432001 332.08713157 120.21240234 333.41699219 C114.780224 336.75874097 109.35006899 340.10369561 103.92382812 343.45507812 C92.80553541 350.31771984 81.66194163 357.13403152 70.45898438 363.85742188 C68.84624634 364.8253064 68.84624634 364.8253064 67.20092773 365.81274414 C59.93635559 370.16081731 55.17722403 372.87491746 46.45898438 371.41992188 C41.95622689 368.78909728 38.33653985 365.33285682 36.45898438 360.41992188 C36.2730854 357.60609216 36.19783104 354.89326038 36.21847534 352.0803833 C36.21676649 351.23167026 36.21505764 350.38295722 36.21329701 349.50852561 C36.20999868 346.66022067 36.22101149 343.81215049 36.23193359 340.96386719 C36.23249763 338.9238943 36.23218129 336.88392101 36.23104858 334.84394836 C36.23047379 329.30093814 36.24224866 323.75801414 36.2561965 318.21502399 C36.2686827 312.42409513 36.26987269 306.63316437 36.27224731 300.84222412 C36.27846829 289.87401316 36.29488748 278.90584197 36.31494629 267.93764853 C36.33728607 255.45170457 36.34829389 242.96575872 36.35833716 230.47979975 C36.37925316 204.79315172 36.41444114 179.10653902 36.45898438 153.41992188 C32.69195532 154.64482626 28.92873598 155.88106994 25.16601562 157.11914062 C24.1161145 157.46037964 23.06621338 157.80161865 21.98449707 158.15319824 C-7.98689498 168.04750765 -34.97878096 184.55949012 -58.54101562 205.41992188 C-59.89839844 206.61101562 -59.89839844 206.61101562 -61.28320312 207.82617188 C-70.22520005 215.76253389 -78.11866675 224.0397581 -85.54101562 233.41992188 C-86.71470703 234.86818359 -86.71470703 234.86818359 -87.91210938 236.34570312 C-108.77777935 262.61975476 -123.36839693 292.93124015 -131.54101562 325.41992188 C-132.08096776 327.17045164 -132.62243075 328.92051676 -133.16601562 330.66992188 C-136.89889374 344.41370039 -137.90021124 359.2338385 -138.54101562 373.41992188 C-138.87101563 373.41992188 -139.20101562 373.41992188 -139.54101562 373.41992188 C-139.63278704 340.51052172 -139.70316351 307.60115506 -139.74527694 274.69165592 C-139.75027912 270.79687848 -139.75545648 266.90210129 -139.76074219 263.00732422 C-139.76179143 262.23201997 -139.76284067 261.45671573 -139.76392171 260.65791741 C-139.78127587 248.1424943 -139.8127857 235.6271455 -139.84962681 223.11176631 C-139.88717573 210.2476132 -139.90928078 197.38349872 -139.9173696 184.51929307 C-139.92282863 176.59621748 -139.94000158 168.67335199 -139.97268149 160.75034115 C-139.99654073 154.65113942 -139.99880063 148.55209426 -139.99344635 142.45285225 C-139.99453784 139.9682264 -140.00237334 137.48359186 -140.01783752 134.9990139 C-140.12390273 117.06302552 -138.98608851 99.54588937 -132.35351562 82.66992188 C-132.05872314 81.8995459 -131.76393066 81.12916992 -131.46020508 80.33544922 C-119.08358103 49.13263688 -94.25944292 23.85718916 -63.63574219 10.29882812 C-59.98265473 8.76606416 -56.28701244 7.39518438 -52.54101562 6.10742188 C-51.54739014 5.76167114 -51.54739014 5.76167114 -50.53369141 5.40893555 C-33.82523723 0.00419324 -17.39136829 -0.02194181 0 0 Z " fill="#FF5950" transform="translate(139.541015625,-0.419921875)"/>
<path d="M0 0 C0.00146656 1.06129183 0.00293312 2.12258366 0.00444412 3.21603584 C0.0410259 29.02992732 0.10045817 54.84368892 0.18390274 80.65747261 C0.22372582 93.14079125 0.25610173 105.62404655 0.27099609 118.10742188 C0.28399563 128.98690287 0.31091692 139.86624469 0.35461307 150.74564731 C0.37726597 156.50716056 0.39290838 162.2685019 0.39188385 168.03006363 C0.39113951 173.45228712 0.40899961 178.87413005 0.44116783 184.29625511 C0.44969108 186.28683805 0.45140038 188.27746355 0.44580269 190.26805687 C0.43917782 192.98580159 0.45704694 195.70233014 0.48101807 198.41995239 C0.47325765 199.20790164 0.46549723 199.99585089 0.45750165 200.80767739 C0.55671465 207.16045938 2.90675955 210.5896019 7.0625 215.375 C11.83840834 218.01699185 15.68052524 218.115167 21 217 C26.66478665 214.53536617 31.78382851 211.29078129 37 208 C38.85104496 206.85072852 40.70263758 205.70233878 42.5546875 204.5546875 C46.62007815 202.02703722 50.67580766 199.48462459 54.7265625 196.93359375 C60.93357737 193.03118281 67.17642523 189.18996804 73.4375 185.375 C74.36570557 184.8075708 75.29391113 184.2401416 76.25024414 183.65551758 C81.763131 180.30244246 87.3327805 177.08522633 93 174 C92.06311888 176.91759326 91.09894574 179.77016813 89.88671875 182.5859375 C76.79795932 213.02689591 77.86620963 248.03569906 89.8125 278.5625 C96.24032844 294.38924202 105.29979851 307.61392463 117 320 C118.02867187 321.12535156 118.02867187 321.12535156 119.078125 322.2734375 C138.39163429 342.65991953 167.26070351 355.28046113 195 358 C195 358.33 195 358.66 195 359 C162.3453868 359.09146531 129.69081086 359.16214916 97.03609858 359.20426132 C93.17136369 359.20926349 89.30662905 359.21444084 85.44189453 359.21972656 C84.67257151 359.2207758 83.9032485 359.22182505 83.11061266 359.22290608 C70.69218714 359.24025965 58.27383651 359.27176914 45.85545525 359.30861118 C33.09074327 359.34616179 20.32607022 359.36826551 7.56130528 359.37635398 C-0.30035211 359.38181267 -8.16179772 359.39898368 -16.02338985 359.43166587 C-22.07559262 359.45552768 -28.12761744 359.4577846 -34.17987251 359.45243073 C-36.64514777 359.45352209 -39.11043181 359.46135596 -41.5756588 359.4768219 C-62.22142406 359.59988235 -80.99588681 357.35145438 -100 349 C-100.65419922 348.71672852 -101.30839844 348.43345703 -101.98242188 348.14160156 C-132.07749484 334.85572789 -155.78418589 309.27843714 -167.87109375 278.80371094 C-177.57581158 253.05490316 -177.37592766 227.3821645 -174.26025391 200.3203125 C-174.0324861 198.28963218 -173.84671298 196.2543313 -173.66796875 194.21875 C-169.06262163 149.27865942 -145.56443116 105.39933475 -116 72 C-115.21753906 71.10667969 -114.43507812 70.21335937 -113.62890625 69.29296875 C-105.39117799 59.99875541 -96.75644597 51.69083358 -87 44 C-86.00097656 43.195625 -85.00195312 42.39125 -83.97265625 41.5625 C-75.73403878 34.9994244 -67.06585092 29.35050331 -58 24 C-56.88093262 23.33266846 -56.88093262 23.33266846 -55.73925781 22.65185547 C-17.42020426 0 -17.42020426 0 0 0 Z " fill="#FE0000" transform="translate(176,153)"/>
<path d="M0 0 C33.29972073 0.73113159 62.83383589 18.68570884 85.34765625 41.9765625 C99.52231212 57.19037263 108.41406074 76.15247371 114 96 C114.51240234 97.81951172 114.51240234 97.81951172 115.03515625 99.67578125 C119.25351219 117.94224348 118.75445889 138.88463117 114 157 C113.67515625 158.42119141 113.67515625 158.42119141 113.34375 159.87109375 C107.45444383 184.02426012 93.89595778 204.97701577 76 222 C75.35289062 222.64195312 74.70578125 223.28390625 74.0390625 223.9453125 C59.62654457 237.68748076 41.11901983 246.87457698 22 252 C20.94554687 252.28746094 19.89109375 252.57492188 18.8046875 252.87109375 C8.37358685 255.60304868 -1.24500024 256.13631996 -12 256.0625 C-13.25167969 256.05798828 -14.50335938 256.05347656 -15.79296875 256.04882812 C-18.86202941 256.03711415 -21.93098907 256.02071073 -25 256 C-25.34611328 255.11248047 -25.34611328 255.11248047 -25.69921875 254.20703125 C-29.61749472 244.71334283 -35.42461579 240.89145809 -44.125 235.9375 C-51.31386225 231.76979484 -58.43551594 227.53757654 -65.4375 223.0625 C-72.36600609 218.64319707 -79.34802484 214.32356306 -86.375 210.0625 C-93.70770199 205.61532388 -101.02515375 201.1461576 -108.3125 196.625 C-116.09478578 191.79716202 -123.88691223 186.98571789 -131.6875 182.1875 C-133.31401489 181.18686523 -133.31401489 181.18686523 -134.97338867 180.16601562 C-139.45946146 177.40657653 -143.94586776 174.64768111 -148.43310547 171.89013672 C-154.99605809 167.85696094 -161.55676401 163.8201826 -168.11376953 159.77734375 C-170.79085317 158.12879284 -173.47129154 156.48583511 -176.15234375 154.84375 C-177.62258451 153.93780612 -179.09265218 153.03158126 -180.5625 152.125 C-181.21750488 151.72619629 -181.87250977 151.32739258 -182.54736328 150.91650391 C-186.88595796 148.22808407 -186.88595796 148.22808407 -188 146 C-177.55879501 144.18152883 -167.44126719 143.71518985 -156.87548828 143.74462891 C-155.20482208 143.74187159 -153.53415721 143.73818723 -151.86349487 143.73365784 C-148.29402006 143.72560929 -144.72460763 143.72336122 -141.15512466 143.72560501 C-135.49552656 143.72846437 -129.83605062 143.71398943 -124.17648315 143.69662476 C-108.092446 143.64984532 -92.0084187 143.62566694 -75.92431641 143.61914062 C-67.01937741 143.6153751 -58.11457848 143.59723175 -49.20969951 143.56404626 C-43.59918185 143.54398381 -37.98902915 143.54138627 -32.37849069 143.55232644 C-28.8704613 143.55495723 -25.36263899 143.5408161 -21.85466385 143.52224541 C-20.24559795 143.51698123 -18.63649249 143.51831941 -17.02744293 143.52728081 C-3.42695569 143.59683567 10.02256241 141.85847062 22.25 135.4375 C22.90347412 135.10161865 23.55694824 134.7657373 24.23022461 134.41967773 C40.74875913 125.46987 52.30941521 109.28591564 57.875 91.5625 C60.3490333 82.80943282 60.2033695 74.01604767 60 65 C59.98324219 64.18144531 59.96648437 63.36289062 59.94921875 62.51953125 C58.87496453 46.1601741 49.23280051 31.29192052 38 20 C37.11441406 19.06220703 37.11441406 19.06220703 36.2109375 18.10546875 C26.5630477 8.6913384 12.84648165 4.05103939 0 1 C0 0.67 0 0.34 0 0 Z " fill="#FE0000" transform="translate(395,0)"/>
<path d="M0 0 C5.65926283 2.48077275 10.78233207 5.70827463 16 9 C17.85104496 10.14927148 19.70263758 11.29766122 21.5546875 12.4453125 C25.63611176 14.98275037 29.70723325 17.53590938 33.7734375 20.09765625 C39.7104888 23.83076007 45.69030011 27.48951576 51.6875 31.125 C59.77948545 36.03348931 67.84425019 40.98275588 75.88671875 45.97192383 C82.81126776 50.26687277 89.7469863 54.54340009 96.6875 58.8125 C97.77909424 59.48394043 98.87068848 60.15538086 99.99536133 60.84716797 C102.22000824 62.21540332 104.44469921 63.58356704 106.66943359 64.95166016 C109.953116 66.97116576 113.23641114 68.99129917 116.51953125 71.01171875 C117.59074219 71.67091309 118.66195312 72.33010742 119.765625 73.00927734 C121.9129397 74.3309262 124.06007666 75.6528639 126.20703125 76.97509766 C131.25494343 80.0833312 136.30470532 83.18841585 141.36178589 86.28170776 C143.73393219 87.73297152 146.10492258 89.18611784 148.47583008 90.6394043 C150.13706356 91.65661658 151.799952 92.67112456 153.46289062 93.68554688 C170.11358336 103.8955785 170.11358336 103.8955785 172 109 C172.75584388 115.08454323 172.70466461 119.92333442 169.38549805 125.29492188 C166.74006439 128.55055336 163.26854664 130.46282157 159.6875 132.5625 C158.85718262 133.06789307 158.02686523 133.57328613 157.17138672 134.09399414 C155.38435333 135.17948701 153.59284496 136.25764058 151.79736328 137.32910156 C148.9783414 139.01293694 146.17314537 140.7177796 143.37109375 142.4296875 C139.49998041 144.79422862 135.62481565 147.15186733 131.74609375 149.50390625 C126.37530205 152.76561171 121.02697225 156.06232695 115.6875 159.375 C107.90521446 164.20283783 100.11312677 169.01434579 92.3125 173.8125 C90.67510864 174.81966064 90.67510864 174.81966064 89.00463867 175.84716797 C86.77999176 177.21540332 84.55530079 178.58356704 82.33056641 179.95166016 C77.96610459 182.63585856 73.60237108 185.32123932 69.23876953 188.00683594 C67.07711982 189.33713205 64.91533563 190.66720969 62.75341797 191.99707031 C57.32123963 195.33881909 51.89108461 198.68377373 46.46484375 202.03515625 C35.34655104 208.89779797 24.20295726 215.71410964 13 222.4375 C11.92484131 223.08275635 10.84968262 223.7280127 9.74194336 224.39282227 C2.47737121 228.74089543 -2.28176035 231.45499558 -11 230 C-15.50568143 227.36746703 -19.11570903 223.91288666 -21 219 C-21.19209078 216.21474375 -21.27410173 213.53032346 -21.26069641 210.74552917 C-21.26452196 209.90583865 -21.26834751 209.06614812 -21.27228898 208.20101243 C-21.28262073 205.38288695 -21.27862647 202.56496515 -21.2746582 199.74682617 C-21.27900464 197.72806103 -21.28418755 195.70929753 -21.29014587 193.6905365 C-21.30355596 188.20285653 -21.3041122 182.71524534 -21.30158257 177.22755218 C-21.30051401 172.64754566 -21.30539341 168.06755313 -21.310188 163.4875496 C-21.32129059 152.68171192 -21.32171666 141.87590899 -21.31567383 131.07006836 C-21.30963532 119.9217762 -21.32194026 108.7736103 -21.3432439 97.62533969 C-21.36085844 88.0557939 -21.3668614 78.48628829 -21.36360615 68.91672689 C-21.36179259 63.20051952 -21.3644367 57.48440216 -21.37832069 51.76820946 C-21.3908916 46.39116559 -21.38896179 41.01431843 -21.37590981 35.6372776 C-21.37354271 33.66483112 -21.37628348 31.69237083 -21.38453293 29.71994019 C-21.39499094 27.02487244 -21.38690723 24.33046584 -21.3742218 21.63542175 C-21.38159609 20.85700477 -21.38897037 20.07858779 -21.39656812 19.27658242 C-21.33833126 13.38504956 -20.0683882 8.87213687 -16.5625 4.00390625 C-11.4521387 -0.71040205 -6.74482342 -1.5948351 0 0 Z " fill="#FEFEFE" transform="translate(197,141)"/>
</svg>
